G75*
G70*
%OFA0B0*%
%FSLAX24Y24*%
%IPPOS*%
%LPD*%
%AMOC8*
5,1,8,0,0,1.08239X$1,22.5*
%
%ADD10C,0.0354*%
%ADD11C,0.0059*%
%ADD12C,0.0750*%
%ADD13C,0.1050*%
%ADD14C,0.0283*%
%ADD15C,0.0051*%
%ADD16C,0.0063*%
%ADD17C,0.0039*%
%ADD18R,0.0740X0.0740*%
%ADD19OC8,0.0740*%
%ADD20C,0.0600*%
%ADD21C,0.0436*%
%ADD22C,0.0100*%
%ADD23C,0.0043*%
%ADD24C,0.0079*%
%ADD25C,0.0046*%
%ADD26C,0.0515*%
%ADD27C,0.0520*%
%ADD28C,0.0560*%
%ADD29C,0.0200*%
%ADD30C,0.0100*%
%ADD31C,0.0160*%
%ADD32C,0.0554*%
%ADD33C,0.0500*%
%ADD34C,0.1000*%
%ADD35C,0.0350*%
%ADD36C,0.0460*%
%ADD37C,0.0700*%
%ADD38OC8,0.0440*%
D10*
X023334Y006095D02*
X023846Y006095D01*
X023846Y006607D02*
X023334Y006607D01*
X023334Y007119D02*
X023846Y007119D01*
X023846Y007630D02*
X023334Y007630D01*
X023334Y008142D02*
X023846Y008142D01*
X023846Y008654D02*
X023334Y008654D01*
X023334Y009166D02*
X023846Y009166D01*
X023846Y009678D02*
X023334Y009678D01*
X023334Y010189D02*
X023846Y010189D01*
X023846Y010701D02*
X023334Y010701D01*
X023334Y011213D02*
X023846Y011213D01*
X023846Y011725D02*
X023334Y011725D01*
X023334Y012237D02*
X023846Y012237D01*
X023846Y012749D02*
X023334Y012749D01*
X023334Y013260D02*
X023846Y013260D01*
X023846Y013772D02*
X023334Y013772D01*
X024338Y015386D02*
X024338Y015898D01*
X024850Y015898D02*
X024850Y015386D01*
X025362Y015386D02*
X025362Y015898D01*
X025874Y015898D02*
X025874Y015386D01*
X026385Y015386D02*
X026385Y015898D01*
X026897Y015898D02*
X026897Y015386D01*
X027409Y015386D02*
X027409Y015898D01*
X030165Y015898D02*
X030165Y015386D01*
X030677Y015386D02*
X030677Y015898D01*
X031189Y015898D02*
X031189Y015386D01*
X031700Y015386D02*
X031700Y015898D01*
X032212Y015898D02*
X032212Y015386D01*
X032724Y015386D02*
X032724Y015898D01*
X033236Y015898D02*
X033236Y015386D01*
X033748Y015386D02*
X033748Y015898D01*
X034259Y015898D02*
X034259Y015386D01*
X034751Y013772D02*
X035263Y013772D01*
X035263Y013260D02*
X034751Y013260D01*
X034751Y012749D02*
X035263Y012749D01*
X035263Y012237D02*
X034751Y012237D01*
X034751Y011725D02*
X035263Y011725D01*
X035263Y011213D02*
X034751Y011213D01*
X034751Y010701D02*
X035263Y010701D01*
X035263Y010189D02*
X034751Y010189D01*
X034751Y009678D02*
X035263Y009678D01*
X035263Y009166D02*
X034751Y009166D01*
X034751Y008654D02*
X035263Y008654D01*
X035263Y008142D02*
X034751Y008142D01*
X034751Y007630D02*
X035263Y007630D01*
X035263Y007119D02*
X034751Y007119D01*
X034751Y006607D02*
X035263Y006607D01*
X035263Y006095D02*
X034751Y006095D01*
X034259Y004481D02*
X034259Y003969D01*
X033748Y003969D02*
X033748Y004481D01*
X033236Y004481D02*
X033236Y003969D01*
X032724Y003969D02*
X032724Y004481D01*
X032212Y004481D02*
X032212Y003969D01*
X031700Y003969D02*
X031700Y004481D01*
X031189Y004481D02*
X031189Y003969D01*
X030677Y003969D02*
X030677Y004481D01*
X030165Y004481D02*
X030165Y003969D01*
X027409Y003969D02*
X027409Y004481D01*
X026897Y004481D02*
X026897Y003969D01*
X026385Y003969D02*
X026385Y004481D01*
X025874Y004481D02*
X025874Y003969D01*
X025362Y003969D02*
X025362Y004481D01*
X024850Y004481D02*
X024850Y003969D01*
X024338Y003969D02*
X024338Y004481D01*
D11*
X007936Y003109D02*
X007936Y002479D01*
X007936Y003109D02*
X008468Y003109D01*
X008468Y002479D01*
X007936Y002479D01*
X007936Y002537D02*
X008468Y002537D01*
X008468Y002595D02*
X007936Y002595D01*
X007936Y002653D02*
X008468Y002653D01*
X008468Y002711D02*
X007936Y002711D01*
X007936Y002769D02*
X008468Y002769D01*
X008468Y002827D02*
X007936Y002827D01*
X007936Y002885D02*
X008468Y002885D01*
X008468Y002943D02*
X007936Y002943D01*
X007936Y003001D02*
X008468Y003001D01*
X008468Y003059D02*
X007936Y003059D01*
X007936Y005046D02*
X007936Y005676D01*
X008468Y005676D01*
X008468Y005046D01*
X007936Y005046D01*
X007936Y005104D02*
X008468Y005104D01*
X008468Y005162D02*
X007936Y005162D01*
X007936Y005220D02*
X008468Y005220D01*
X008468Y005278D02*
X007936Y005278D01*
X007936Y005336D02*
X008468Y005336D01*
X008468Y005394D02*
X007936Y005394D01*
X007936Y005452D02*
X008468Y005452D01*
X008468Y005510D02*
X007936Y005510D01*
X007936Y005568D02*
X008468Y005568D01*
X008468Y005626D02*
X007936Y005626D01*
X012880Y005676D02*
X012880Y005046D01*
X012880Y005676D02*
X013412Y005676D01*
X013412Y005046D01*
X012880Y005046D01*
X012880Y005104D02*
X013412Y005104D01*
X013412Y005162D02*
X012880Y005162D01*
X012880Y005220D02*
X013412Y005220D01*
X013412Y005278D02*
X012880Y005278D01*
X012880Y005336D02*
X013412Y005336D01*
X013412Y005394D02*
X012880Y005394D01*
X012880Y005452D02*
X013412Y005452D01*
X013412Y005510D02*
X012880Y005510D01*
X012880Y005568D02*
X013412Y005568D01*
X013412Y005626D02*
X012880Y005626D01*
X017995Y004544D02*
X017995Y003618D01*
X017995Y004544D02*
X018527Y004544D01*
X018527Y003618D01*
X017995Y003618D01*
X017995Y003676D02*
X018527Y003676D01*
X018527Y003734D02*
X017995Y003734D01*
X017995Y003792D02*
X018527Y003792D01*
X018527Y003850D02*
X017995Y003850D01*
X017995Y003908D02*
X018527Y003908D01*
X018527Y003966D02*
X017995Y003966D01*
X017995Y004024D02*
X018527Y004024D01*
X018527Y004082D02*
X017995Y004082D01*
X017995Y004140D02*
X018527Y004140D01*
X018527Y004198D02*
X017995Y004198D01*
X017995Y004256D02*
X018527Y004256D01*
X018527Y004314D02*
X017995Y004314D01*
X017995Y004372D02*
X018527Y004372D01*
X018527Y004430D02*
X017995Y004430D01*
X017995Y004488D02*
X018527Y004488D01*
X012880Y003109D02*
X012880Y002479D01*
X012880Y003109D02*
X013412Y003109D01*
X013412Y002479D01*
X012880Y002479D01*
X012880Y002537D02*
X013412Y002537D01*
X013412Y002595D02*
X012880Y002595D01*
X012880Y002653D02*
X013412Y002653D01*
X013412Y002711D02*
X012880Y002711D01*
X012880Y002769D02*
X013412Y002769D01*
X013412Y002827D02*
X012880Y002827D01*
X012880Y002885D02*
X013412Y002885D01*
X013412Y002943D02*
X012880Y002943D01*
X012880Y003001D02*
X013412Y003001D01*
X013412Y003059D02*
X012880Y003059D01*
D12*
X020127Y004086D03*
D13*
X019124Y003082D03*
X021131Y003082D03*
X021131Y005090D03*
X019124Y005090D03*
D14*
X022093Y004161D02*
X022093Y004011D01*
X022021Y004011D01*
X022021Y004161D01*
X022093Y004161D01*
X022793Y004161D02*
X022793Y004011D01*
X022721Y004011D01*
X022721Y004161D01*
X022793Y004161D01*
X022832Y003422D02*
X022832Y003350D01*
X022682Y003350D01*
X022682Y003422D01*
X022832Y003422D01*
X022152Y003422D02*
X022152Y003350D01*
X022002Y003350D01*
X022002Y003422D01*
X022152Y003422D01*
X022152Y002722D02*
X022152Y002650D01*
X022002Y002650D01*
X022002Y002722D01*
X022152Y002722D01*
X022832Y002722D02*
X022832Y002650D01*
X022682Y002650D01*
X022682Y002722D01*
X022832Y002722D01*
D15*
X043166Y003469D02*
X043166Y004087D01*
X043166Y003469D02*
X042704Y003469D01*
X042704Y004087D01*
X043166Y004087D01*
X043166Y003519D02*
X042704Y003519D01*
X042704Y003569D02*
X043166Y003569D01*
X043166Y003619D02*
X042704Y003619D01*
X042704Y003669D02*
X043166Y003669D01*
X043166Y003719D02*
X042704Y003719D01*
X042704Y003769D02*
X043166Y003769D01*
X043166Y003819D02*
X042704Y003819D01*
X042704Y003869D02*
X043166Y003869D01*
X043166Y003919D02*
X042704Y003919D01*
X042704Y003969D02*
X043166Y003969D01*
X043166Y004019D02*
X042704Y004019D01*
X042704Y004069D02*
X043166Y004069D01*
X044166Y004087D02*
X044166Y003469D01*
X043704Y003469D01*
X043704Y004087D01*
X044166Y004087D01*
X044166Y003519D02*
X043704Y003519D01*
X043704Y003569D02*
X044166Y003569D01*
X044166Y003619D02*
X043704Y003619D01*
X043704Y003669D02*
X044166Y003669D01*
X044166Y003719D02*
X043704Y003719D01*
X043704Y003769D02*
X044166Y003769D01*
X044166Y003819D02*
X043704Y003819D01*
X043704Y003869D02*
X044166Y003869D01*
X044166Y003919D02*
X043704Y003919D01*
X043704Y003969D02*
X044166Y003969D01*
X044166Y004019D02*
X043704Y004019D01*
X043704Y004069D02*
X044166Y004069D01*
X045166Y004087D02*
X045166Y003469D01*
X044704Y003469D01*
X044704Y004087D01*
X045166Y004087D01*
X045166Y003519D02*
X044704Y003519D01*
X044704Y003569D02*
X045166Y003569D01*
X045166Y003619D02*
X044704Y003619D01*
X044704Y003669D02*
X045166Y003669D01*
X045166Y003719D02*
X044704Y003719D01*
X044704Y003769D02*
X045166Y003769D01*
X045166Y003819D02*
X044704Y003819D01*
X044704Y003869D02*
X045166Y003869D01*
X045166Y003919D02*
X044704Y003919D01*
X044704Y003969D02*
X045166Y003969D01*
X045166Y004019D02*
X044704Y004019D01*
X044704Y004069D02*
X045166Y004069D01*
X044704Y013588D02*
X044704Y014206D01*
X045166Y014206D01*
X045166Y013588D01*
X044704Y013588D01*
X044704Y013638D02*
X045166Y013638D01*
X045166Y013688D02*
X044704Y013688D01*
X044704Y013738D02*
X045166Y013738D01*
X045166Y013788D02*
X044704Y013788D01*
X044704Y013838D02*
X045166Y013838D01*
X045166Y013888D02*
X044704Y013888D01*
X044704Y013938D02*
X045166Y013938D01*
X045166Y013988D02*
X044704Y013988D01*
X044704Y014038D02*
X045166Y014038D01*
X045166Y014088D02*
X044704Y014088D01*
X044704Y014138D02*
X045166Y014138D01*
X045166Y014188D02*
X044704Y014188D01*
X043704Y014206D02*
X043704Y013588D01*
X043704Y014206D02*
X044166Y014206D01*
X044166Y013588D01*
X043704Y013588D01*
X043704Y013638D02*
X044166Y013638D01*
X044166Y013688D02*
X043704Y013688D01*
X043704Y013738D02*
X044166Y013738D01*
X044166Y013788D02*
X043704Y013788D01*
X043704Y013838D02*
X044166Y013838D01*
X044166Y013888D02*
X043704Y013888D01*
X043704Y013938D02*
X044166Y013938D01*
X044166Y013988D02*
X043704Y013988D01*
X043704Y014038D02*
X044166Y014038D01*
X044166Y014088D02*
X043704Y014088D01*
X043704Y014138D02*
X044166Y014138D01*
X044166Y014188D02*
X043704Y014188D01*
X042704Y014206D02*
X042704Y013588D01*
X042704Y014206D02*
X043166Y014206D01*
X043166Y013588D01*
X042704Y013588D01*
X042704Y013638D02*
X043166Y013638D01*
X043166Y013688D02*
X042704Y013688D01*
X042704Y013738D02*
X043166Y013738D01*
X043166Y013788D02*
X042704Y013788D01*
X042704Y013838D02*
X043166Y013838D01*
X043166Y013888D02*
X042704Y013888D01*
X042704Y013938D02*
X043166Y013938D01*
X043166Y013988D02*
X042704Y013988D01*
X042704Y014038D02*
X043166Y014038D01*
X043166Y014088D02*
X042704Y014088D01*
X042704Y014138D02*
X043166Y014138D01*
X043166Y014188D02*
X042704Y014188D01*
D16*
X040985Y015753D02*
X040417Y015753D01*
X040985Y015753D02*
X040985Y015107D01*
X040417Y015107D01*
X040417Y015753D01*
X040417Y015169D02*
X040985Y015169D01*
X040985Y015231D02*
X040417Y015231D01*
X040417Y015293D02*
X040985Y015293D01*
X040985Y015355D02*
X040417Y015355D01*
X040417Y015417D02*
X040985Y015417D01*
X040985Y015479D02*
X040417Y015479D01*
X040417Y015541D02*
X040985Y015541D01*
X040985Y015603D02*
X040417Y015603D01*
X040417Y015665D02*
X040985Y015665D01*
X040985Y015727D02*
X040417Y015727D01*
X039883Y015753D02*
X039315Y015753D01*
X039883Y015753D02*
X039883Y015107D01*
X039315Y015107D01*
X039315Y015753D01*
X039315Y015169D02*
X039883Y015169D01*
X039883Y015231D02*
X039315Y015231D01*
X039315Y015293D02*
X039883Y015293D01*
X039883Y015355D02*
X039315Y015355D01*
X039315Y015417D02*
X039883Y015417D01*
X039883Y015479D02*
X039315Y015479D01*
X039315Y015541D02*
X039883Y015541D01*
X039883Y015603D02*
X039315Y015603D01*
X039315Y015665D02*
X039883Y015665D01*
X039883Y015727D02*
X039315Y015727D01*
X034424Y016486D02*
X034424Y017054D01*
X034424Y016486D02*
X033776Y016486D01*
X033776Y017054D01*
X034424Y017054D01*
X034424Y016548D02*
X033776Y016548D01*
X033776Y016610D02*
X034424Y016610D01*
X034424Y016672D02*
X033776Y016672D01*
X033776Y016734D02*
X034424Y016734D01*
X034424Y016796D02*
X033776Y016796D01*
X033776Y016858D02*
X034424Y016858D01*
X034424Y016920D02*
X033776Y016920D01*
X033776Y016982D02*
X034424Y016982D01*
X034424Y017044D02*
X033776Y017044D01*
X033524Y017054D02*
X033524Y016486D01*
X032876Y016486D01*
X032876Y017054D01*
X033524Y017054D01*
X033524Y016548D02*
X032876Y016548D01*
X032876Y016610D02*
X033524Y016610D01*
X033524Y016672D02*
X032876Y016672D01*
X032876Y016734D02*
X033524Y016734D01*
X033524Y016796D02*
X032876Y016796D01*
X032876Y016858D02*
X033524Y016858D01*
X033524Y016920D02*
X032876Y016920D01*
X032876Y016982D02*
X033524Y016982D01*
X033524Y017044D02*
X032876Y017044D01*
X032624Y017054D02*
X032624Y016486D01*
X031976Y016486D01*
X031976Y017054D01*
X032624Y017054D01*
X032624Y016548D02*
X031976Y016548D01*
X031976Y016610D02*
X032624Y016610D01*
X032624Y016672D02*
X031976Y016672D01*
X031976Y016734D02*
X032624Y016734D01*
X032624Y016796D02*
X031976Y016796D01*
X031976Y016858D02*
X032624Y016858D01*
X032624Y016920D02*
X031976Y016920D01*
X031976Y016982D02*
X032624Y016982D01*
X032624Y017044D02*
X031976Y017044D01*
X032624Y017606D02*
X032624Y018174D01*
X032624Y017606D02*
X031976Y017606D01*
X031976Y018174D01*
X032624Y018174D01*
X032624Y017668D02*
X031976Y017668D01*
X031976Y017730D02*
X032624Y017730D01*
X032624Y017792D02*
X031976Y017792D01*
X031976Y017854D02*
X032624Y017854D01*
X032624Y017916D02*
X031976Y017916D01*
X031976Y017978D02*
X032624Y017978D01*
X032624Y018040D02*
X031976Y018040D01*
X031976Y018102D02*
X032624Y018102D01*
X032624Y018164D02*
X031976Y018164D01*
X033524Y018174D02*
X033524Y017606D01*
X032876Y017606D01*
X032876Y018174D01*
X033524Y018174D01*
X033524Y017668D02*
X032876Y017668D01*
X032876Y017730D02*
X033524Y017730D01*
X033524Y017792D02*
X032876Y017792D01*
X032876Y017854D02*
X033524Y017854D01*
X033524Y017916D02*
X032876Y017916D01*
X032876Y017978D02*
X033524Y017978D01*
X033524Y018040D02*
X032876Y018040D01*
X032876Y018102D02*
X033524Y018102D01*
X033524Y018164D02*
X032876Y018164D01*
X034424Y018174D02*
X034424Y017606D01*
X033776Y017606D01*
X033776Y018174D01*
X034424Y018174D01*
X034424Y017668D02*
X033776Y017668D01*
X033776Y017730D02*
X034424Y017730D01*
X034424Y017792D02*
X033776Y017792D01*
X033776Y017854D02*
X034424Y017854D01*
X034424Y017916D02*
X033776Y017916D01*
X033776Y017978D02*
X034424Y017978D01*
X034424Y018040D02*
X033776Y018040D01*
X033776Y018102D02*
X034424Y018102D01*
X034424Y018164D02*
X033776Y018164D01*
X028097Y018425D02*
X026821Y018425D01*
X028097Y018425D02*
X028097Y017857D01*
X026821Y017857D01*
X026821Y018425D01*
X026821Y017919D02*
X028097Y017919D01*
X028097Y017981D02*
X026821Y017981D01*
X026821Y018043D02*
X028097Y018043D01*
X028097Y018105D02*
X026821Y018105D01*
X026821Y018167D02*
X028097Y018167D01*
X028097Y018229D02*
X026821Y018229D01*
X026821Y018291D02*
X028097Y018291D01*
X028097Y018353D02*
X026821Y018353D01*
X026821Y018415D02*
X028097Y018415D01*
X028097Y021103D02*
X026821Y021103D01*
X028097Y021103D02*
X028097Y020535D01*
X026821Y020535D01*
X026821Y021103D01*
X026821Y020597D02*
X028097Y020597D01*
X028097Y020659D02*
X026821Y020659D01*
X026821Y020721D02*
X028097Y020721D01*
X028097Y020783D02*
X026821Y020783D01*
X026821Y020845D02*
X028097Y020845D01*
X028097Y020907D02*
X026821Y020907D01*
X026821Y020969D02*
X028097Y020969D01*
X028097Y021031D02*
X026821Y021031D01*
X026821Y021093D02*
X028097Y021093D01*
X045115Y018407D02*
X045683Y018407D01*
X045115Y018407D02*
X045115Y019053D01*
X045683Y019053D01*
X045683Y018407D01*
X045683Y018469D02*
X045115Y018469D01*
X045115Y018531D02*
X045683Y018531D01*
X045683Y018593D02*
X045115Y018593D01*
X045115Y018655D02*
X045683Y018655D01*
X045683Y018717D02*
X045115Y018717D01*
X045115Y018779D02*
X045683Y018779D01*
X045683Y018841D02*
X045115Y018841D01*
X045115Y018903D02*
X045683Y018903D01*
X045683Y018965D02*
X045115Y018965D01*
X045115Y019027D02*
X045683Y019027D01*
X046217Y018407D02*
X046785Y018407D01*
X046217Y018407D02*
X046217Y019053D01*
X046785Y019053D01*
X046785Y018407D01*
X046785Y018469D02*
X046217Y018469D01*
X046217Y018531D02*
X046785Y018531D01*
X046785Y018593D02*
X046217Y018593D01*
X046217Y018655D02*
X046785Y018655D01*
X046785Y018717D02*
X046217Y018717D01*
X046217Y018779D02*
X046785Y018779D01*
X046785Y018841D02*
X046217Y018841D01*
X046217Y018903D02*
X046785Y018903D01*
X046785Y018965D02*
X046217Y018965D01*
X046217Y019027D02*
X046785Y019027D01*
X049081Y018962D02*
X049081Y019530D01*
X049081Y018962D02*
X048433Y018962D01*
X048433Y019530D01*
X049081Y019530D01*
X049081Y019024D02*
X048433Y019024D01*
X048433Y019086D02*
X049081Y019086D01*
X049081Y019148D02*
X048433Y019148D01*
X048433Y019210D02*
X049081Y019210D01*
X049081Y019272D02*
X048433Y019272D01*
X048433Y019334D02*
X049081Y019334D01*
X049081Y019396D02*
X048433Y019396D01*
X048433Y019458D02*
X049081Y019458D01*
X049081Y019520D02*
X048433Y019520D01*
X049081Y018410D02*
X049081Y017842D01*
X048433Y017842D01*
X048433Y018410D01*
X049081Y018410D01*
X049081Y017904D02*
X048433Y017904D01*
X048433Y017966D02*
X049081Y017966D01*
X049081Y018028D02*
X048433Y018028D01*
X048433Y018090D02*
X049081Y018090D01*
X049081Y018152D02*
X048433Y018152D01*
X048433Y018214D02*
X049081Y018214D01*
X049081Y018276D02*
X048433Y018276D01*
X048433Y018338D02*
X049081Y018338D01*
X049081Y018400D02*
X048433Y018400D01*
X046785Y017357D02*
X046217Y017357D01*
X046217Y018003D01*
X046785Y018003D01*
X046785Y017357D01*
X046785Y017419D02*
X046217Y017419D01*
X046217Y017481D02*
X046785Y017481D01*
X046785Y017543D02*
X046217Y017543D01*
X046217Y017605D02*
X046785Y017605D01*
X046785Y017667D02*
X046217Y017667D01*
X046217Y017729D02*
X046785Y017729D01*
X046785Y017791D02*
X046217Y017791D01*
X046217Y017853D02*
X046785Y017853D01*
X046785Y017915D02*
X046217Y017915D01*
X046217Y017977D02*
X046785Y017977D01*
X045683Y017357D02*
X045115Y017357D01*
X045115Y018003D01*
X045683Y018003D01*
X045683Y017357D01*
X045683Y017419D02*
X045115Y017419D01*
X045115Y017481D02*
X045683Y017481D01*
X045683Y017543D02*
X045115Y017543D01*
X045115Y017605D02*
X045683Y017605D01*
X045683Y017667D02*
X045115Y017667D01*
X045115Y017729D02*
X045683Y017729D01*
X045683Y017791D02*
X045115Y017791D01*
X045115Y017853D02*
X045683Y017853D01*
X045683Y017915D02*
X045115Y017915D01*
X045115Y017977D02*
X045683Y017977D01*
X049116Y015309D02*
X049116Y014741D01*
X048470Y014741D01*
X048470Y015309D01*
X049116Y015309D01*
X049116Y014803D02*
X048470Y014803D01*
X048470Y014865D02*
X049116Y014865D01*
X049116Y014927D02*
X048470Y014927D01*
X048470Y014989D02*
X049116Y014989D01*
X049116Y015051D02*
X048470Y015051D01*
X048470Y015113D02*
X049116Y015113D01*
X049116Y015175D02*
X048470Y015175D01*
X048470Y015237D02*
X049116Y015237D01*
X049116Y015299D02*
X048470Y015299D01*
X049116Y014207D02*
X049116Y013639D01*
X048470Y013639D01*
X048470Y014207D01*
X049116Y014207D01*
X049116Y013701D02*
X048470Y013701D01*
X048470Y013763D02*
X049116Y013763D01*
X049116Y013825D02*
X048470Y013825D01*
X048470Y013887D02*
X049116Y013887D01*
X049116Y013949D02*
X048470Y013949D01*
X048470Y014011D02*
X049116Y014011D01*
X049116Y014073D02*
X048470Y014073D01*
X048470Y014135D02*
X049116Y014135D01*
X049116Y014197D02*
X048470Y014197D01*
X030624Y003274D02*
X030624Y002706D01*
X029976Y002706D01*
X029976Y003274D01*
X030624Y003274D01*
X030624Y002768D02*
X029976Y002768D01*
X029976Y002830D02*
X030624Y002830D01*
X030624Y002892D02*
X029976Y002892D01*
X029976Y002954D02*
X030624Y002954D01*
X030624Y003016D02*
X029976Y003016D01*
X029976Y003078D02*
X030624Y003078D01*
X030624Y003140D02*
X029976Y003140D01*
X029976Y003202D02*
X030624Y003202D01*
X030624Y003264D02*
X029976Y003264D01*
X028176Y003274D02*
X028176Y002706D01*
X028176Y003274D02*
X028824Y003274D01*
X028824Y002706D01*
X028176Y002706D01*
X028176Y002768D02*
X028824Y002768D01*
X028824Y002830D02*
X028176Y002830D01*
X028176Y002892D02*
X028824Y002892D01*
X028824Y002954D02*
X028176Y002954D01*
X028176Y003016D02*
X028824Y003016D01*
X028824Y003078D02*
X028176Y003078D01*
X028176Y003140D02*
X028824Y003140D01*
X028824Y003202D02*
X028176Y003202D01*
X028176Y003264D02*
X028824Y003264D01*
X028176Y002154D02*
X028176Y001586D01*
X028176Y002154D02*
X028824Y002154D01*
X028824Y001586D01*
X028176Y001586D01*
X028176Y001648D02*
X028824Y001648D01*
X028824Y001710D02*
X028176Y001710D01*
X028176Y001772D02*
X028824Y001772D01*
X028824Y001834D02*
X028176Y001834D01*
X028176Y001896D02*
X028824Y001896D01*
X028824Y001958D02*
X028176Y001958D01*
X028176Y002020D02*
X028824Y002020D01*
X028824Y002082D02*
X028176Y002082D01*
X028176Y002144D02*
X028824Y002144D01*
X030624Y002154D02*
X030624Y001586D01*
X029976Y001586D01*
X029976Y002154D01*
X030624Y002154D01*
X030624Y001648D02*
X029976Y001648D01*
X029976Y001710D02*
X030624Y001710D01*
X030624Y001772D02*
X029976Y001772D01*
X029976Y001834D02*
X030624Y001834D01*
X030624Y001896D02*
X029976Y001896D01*
X029976Y001958D02*
X030624Y001958D01*
X030624Y002020D02*
X029976Y002020D01*
X029976Y002082D02*
X030624Y002082D01*
X030624Y002144D02*
X029976Y002144D01*
X022327Y005295D02*
X022327Y005863D01*
X022973Y005863D01*
X022973Y005295D01*
X022327Y005295D01*
X022327Y005357D02*
X022973Y005357D01*
X022973Y005419D02*
X022327Y005419D01*
X022327Y005481D02*
X022973Y005481D01*
X022973Y005543D02*
X022327Y005543D01*
X022327Y005605D02*
X022973Y005605D01*
X022973Y005667D02*
X022327Y005667D01*
X022327Y005729D02*
X022973Y005729D01*
X022973Y005791D02*
X022327Y005791D01*
X022327Y005853D02*
X022973Y005853D01*
X022327Y006397D02*
X022327Y006965D01*
X022973Y006965D01*
X022973Y006397D01*
X022327Y006397D01*
X022327Y006459D02*
X022973Y006459D01*
X022973Y006521D02*
X022327Y006521D01*
X022327Y006583D02*
X022973Y006583D01*
X022973Y006645D02*
X022327Y006645D01*
X022327Y006707D02*
X022973Y006707D01*
X022973Y006769D02*
X022327Y006769D01*
X022327Y006831D02*
X022973Y006831D01*
X022973Y006893D02*
X022327Y006893D01*
X022327Y006955D02*
X022973Y006955D01*
D17*
X037476Y015371D02*
X037476Y015727D01*
X038224Y015727D01*
X038224Y015371D01*
X037476Y015371D01*
X037476Y015409D02*
X038224Y015409D01*
X038224Y015447D02*
X037476Y015447D01*
X037476Y015485D02*
X038224Y015485D01*
X038224Y015523D02*
X037476Y015523D01*
X037476Y015561D02*
X038224Y015561D01*
X038224Y015599D02*
X037476Y015599D01*
X037476Y015637D02*
X038224Y015637D01*
X038224Y015675D02*
X037476Y015675D01*
X037476Y015713D02*
X038224Y015713D01*
X038404Y016679D02*
X038562Y016679D01*
X038562Y016127D01*
X038404Y016127D01*
X038404Y016679D01*
X038404Y016165D02*
X038562Y016165D01*
X038562Y016203D02*
X038404Y016203D01*
X038404Y016241D02*
X038562Y016241D01*
X038562Y016279D02*
X038404Y016279D01*
X038404Y016317D02*
X038562Y016317D01*
X038562Y016355D02*
X038404Y016355D01*
X038404Y016393D02*
X038562Y016393D01*
X038562Y016431D02*
X038404Y016431D01*
X038404Y016469D02*
X038562Y016469D01*
X038562Y016507D02*
X038404Y016507D01*
X038404Y016545D02*
X038562Y016545D01*
X038562Y016583D02*
X038404Y016583D01*
X038404Y016621D02*
X038562Y016621D01*
X038562Y016659D02*
X038404Y016659D01*
X038050Y017190D02*
X037498Y017190D01*
X038050Y017190D02*
X038050Y017032D01*
X037498Y017032D01*
X037498Y017190D01*
X037498Y017070D02*
X038050Y017070D01*
X038050Y017108D02*
X037498Y017108D01*
X037498Y017146D02*
X038050Y017146D01*
X038050Y017184D02*
X037498Y017184D01*
X037498Y017505D02*
X038050Y017505D01*
X038050Y017347D01*
X037498Y017347D01*
X037498Y017505D01*
X037498Y017385D02*
X038050Y017385D01*
X038050Y017423D02*
X037498Y017423D01*
X037498Y017461D02*
X038050Y017461D01*
X038050Y017499D02*
X037498Y017499D01*
X037498Y017820D02*
X038050Y017820D01*
X038050Y017662D01*
X037498Y017662D01*
X037498Y017820D01*
X037498Y017700D02*
X038050Y017700D01*
X038050Y017738D02*
X037498Y017738D01*
X037498Y017776D02*
X038050Y017776D01*
X038050Y017814D02*
X037498Y017814D01*
X037498Y018135D02*
X038050Y018135D01*
X038050Y017977D01*
X037498Y017977D01*
X037498Y018135D01*
X037498Y018015D02*
X038050Y018015D01*
X038050Y018053D02*
X037498Y018053D01*
X037498Y018091D02*
X038050Y018091D01*
X038050Y018129D02*
X037498Y018129D01*
X037498Y018450D02*
X038050Y018450D01*
X038050Y018292D01*
X037498Y018292D01*
X037498Y018450D01*
X037498Y018330D02*
X038050Y018330D01*
X038050Y018368D02*
X037498Y018368D01*
X037498Y018406D02*
X038050Y018406D01*
X038050Y018444D02*
X037498Y018444D01*
X037498Y018765D02*
X038050Y018765D01*
X038050Y018607D01*
X037498Y018607D01*
X037498Y018765D01*
X037498Y018645D02*
X038050Y018645D01*
X038050Y018683D02*
X037498Y018683D01*
X037498Y018721D02*
X038050Y018721D01*
X038050Y018759D02*
X037498Y018759D01*
X037498Y019080D02*
X038050Y019080D01*
X038050Y018922D01*
X037498Y018922D01*
X037498Y019080D01*
X037498Y018960D02*
X038050Y018960D01*
X038050Y018998D02*
X037498Y018998D01*
X037498Y019036D02*
X038050Y019036D01*
X038050Y019074D02*
X037498Y019074D01*
X037498Y019395D02*
X038050Y019395D01*
X038050Y019237D01*
X037498Y019237D01*
X037498Y019395D01*
X037498Y019275D02*
X038050Y019275D01*
X038050Y019313D02*
X037498Y019313D01*
X037498Y019351D02*
X038050Y019351D01*
X038050Y019389D02*
X037498Y019389D01*
X037498Y019710D02*
X038050Y019710D01*
X038050Y019552D01*
X037498Y019552D01*
X037498Y019710D01*
X037498Y019590D02*
X038050Y019590D01*
X038050Y019628D02*
X037498Y019628D01*
X037498Y019666D02*
X038050Y019666D01*
X038050Y019704D02*
X037498Y019704D01*
X037498Y020025D02*
X038050Y020025D01*
X038050Y019867D01*
X037498Y019867D01*
X037498Y020025D01*
X037498Y019905D02*
X038050Y019905D01*
X038050Y019943D02*
X037498Y019943D01*
X037498Y019981D02*
X038050Y019981D01*
X038050Y020019D02*
X037498Y020019D01*
X037498Y020340D02*
X038050Y020340D01*
X038050Y020182D01*
X037498Y020182D01*
X037498Y020340D01*
X037498Y020220D02*
X038050Y020220D01*
X038050Y020258D02*
X037498Y020258D01*
X037498Y020296D02*
X038050Y020296D01*
X038050Y020334D02*
X037498Y020334D01*
X038404Y021246D02*
X038562Y021246D01*
X038562Y020694D01*
X038404Y020694D01*
X038404Y021246D01*
X038404Y020732D02*
X038562Y020732D01*
X038562Y020770D02*
X038404Y020770D01*
X038404Y020808D02*
X038562Y020808D01*
X038562Y020846D02*
X038404Y020846D01*
X038404Y020884D02*
X038562Y020884D01*
X038562Y020922D02*
X038404Y020922D01*
X038404Y020960D02*
X038562Y020960D01*
X038562Y020998D02*
X038404Y020998D01*
X038404Y021036D02*
X038562Y021036D01*
X038562Y021074D02*
X038404Y021074D01*
X038404Y021112D02*
X038562Y021112D01*
X038562Y021150D02*
X038404Y021150D01*
X038404Y021188D02*
X038562Y021188D01*
X038562Y021226D02*
X038404Y021226D01*
X038719Y021246D02*
X038877Y021246D01*
X038877Y020694D01*
X038719Y020694D01*
X038719Y021246D01*
X038719Y020732D02*
X038877Y020732D01*
X038877Y020770D02*
X038719Y020770D01*
X038719Y020808D02*
X038877Y020808D01*
X038877Y020846D02*
X038719Y020846D01*
X038719Y020884D02*
X038877Y020884D01*
X038877Y020922D02*
X038719Y020922D01*
X038719Y020960D02*
X038877Y020960D01*
X038877Y020998D02*
X038719Y020998D01*
X038719Y021036D02*
X038877Y021036D01*
X038877Y021074D02*
X038719Y021074D01*
X038719Y021112D02*
X038877Y021112D01*
X038877Y021150D02*
X038719Y021150D01*
X038719Y021188D02*
X038877Y021188D01*
X038877Y021226D02*
X038719Y021226D01*
X039034Y021246D02*
X039192Y021246D01*
X039192Y020694D01*
X039034Y020694D01*
X039034Y021246D01*
X039034Y020732D02*
X039192Y020732D01*
X039192Y020770D02*
X039034Y020770D01*
X039034Y020808D02*
X039192Y020808D01*
X039192Y020846D02*
X039034Y020846D01*
X039034Y020884D02*
X039192Y020884D01*
X039192Y020922D02*
X039034Y020922D01*
X039034Y020960D02*
X039192Y020960D01*
X039192Y020998D02*
X039034Y020998D01*
X039034Y021036D02*
X039192Y021036D01*
X039192Y021074D02*
X039034Y021074D01*
X039034Y021112D02*
X039192Y021112D01*
X039192Y021150D02*
X039034Y021150D01*
X039034Y021188D02*
X039192Y021188D01*
X039192Y021226D02*
X039034Y021226D01*
X039349Y021246D02*
X039507Y021246D01*
X039507Y020694D01*
X039349Y020694D01*
X039349Y021246D01*
X039349Y020732D02*
X039507Y020732D01*
X039507Y020770D02*
X039349Y020770D01*
X039349Y020808D02*
X039507Y020808D01*
X039507Y020846D02*
X039349Y020846D01*
X039349Y020884D02*
X039507Y020884D01*
X039507Y020922D02*
X039349Y020922D01*
X039349Y020960D02*
X039507Y020960D01*
X039507Y020998D02*
X039349Y020998D01*
X039349Y021036D02*
X039507Y021036D01*
X039507Y021074D02*
X039349Y021074D01*
X039349Y021112D02*
X039507Y021112D01*
X039507Y021150D02*
X039349Y021150D01*
X039349Y021188D02*
X039507Y021188D01*
X039507Y021226D02*
X039349Y021226D01*
X039664Y021246D02*
X039822Y021246D01*
X039822Y020694D01*
X039664Y020694D01*
X039664Y021246D01*
X039664Y020732D02*
X039822Y020732D01*
X039822Y020770D02*
X039664Y020770D01*
X039664Y020808D02*
X039822Y020808D01*
X039822Y020846D02*
X039664Y020846D01*
X039664Y020884D02*
X039822Y020884D01*
X039822Y020922D02*
X039664Y020922D01*
X039664Y020960D02*
X039822Y020960D01*
X039822Y020998D02*
X039664Y020998D01*
X039664Y021036D02*
X039822Y021036D01*
X039822Y021074D02*
X039664Y021074D01*
X039664Y021112D02*
X039822Y021112D01*
X039822Y021150D02*
X039664Y021150D01*
X039664Y021188D02*
X039822Y021188D01*
X039822Y021226D02*
X039664Y021226D01*
X039978Y021246D02*
X040136Y021246D01*
X040136Y020694D01*
X039978Y020694D01*
X039978Y021246D01*
X039978Y020732D02*
X040136Y020732D01*
X040136Y020770D02*
X039978Y020770D01*
X039978Y020808D02*
X040136Y020808D01*
X040136Y020846D02*
X039978Y020846D01*
X039978Y020884D02*
X040136Y020884D01*
X040136Y020922D02*
X039978Y020922D01*
X039978Y020960D02*
X040136Y020960D01*
X040136Y020998D02*
X039978Y020998D01*
X039978Y021036D02*
X040136Y021036D01*
X040136Y021074D02*
X039978Y021074D01*
X039978Y021112D02*
X040136Y021112D01*
X040136Y021150D02*
X039978Y021150D01*
X039978Y021188D02*
X040136Y021188D01*
X040136Y021226D02*
X039978Y021226D01*
X040293Y021246D02*
X040451Y021246D01*
X040451Y020694D01*
X040293Y020694D01*
X040293Y021246D01*
X040293Y020732D02*
X040451Y020732D01*
X040451Y020770D02*
X040293Y020770D01*
X040293Y020808D02*
X040451Y020808D01*
X040451Y020846D02*
X040293Y020846D01*
X040293Y020884D02*
X040451Y020884D01*
X040451Y020922D02*
X040293Y020922D01*
X040293Y020960D02*
X040451Y020960D01*
X040451Y020998D02*
X040293Y020998D01*
X040293Y021036D02*
X040451Y021036D01*
X040451Y021074D02*
X040293Y021074D01*
X040293Y021112D02*
X040451Y021112D01*
X040451Y021150D02*
X040293Y021150D01*
X040293Y021188D02*
X040451Y021188D01*
X040451Y021226D02*
X040293Y021226D01*
X040608Y021246D02*
X040766Y021246D01*
X040766Y020694D01*
X040608Y020694D01*
X040608Y021246D01*
X040608Y020732D02*
X040766Y020732D01*
X040766Y020770D02*
X040608Y020770D01*
X040608Y020808D02*
X040766Y020808D01*
X040766Y020846D02*
X040608Y020846D01*
X040608Y020884D02*
X040766Y020884D01*
X040766Y020922D02*
X040608Y020922D01*
X040608Y020960D02*
X040766Y020960D01*
X040766Y020998D02*
X040608Y020998D01*
X040608Y021036D02*
X040766Y021036D01*
X040766Y021074D02*
X040608Y021074D01*
X040608Y021112D02*
X040766Y021112D01*
X040766Y021150D02*
X040608Y021150D01*
X040608Y021188D02*
X040766Y021188D01*
X040766Y021226D02*
X040608Y021226D01*
X040923Y021246D02*
X041081Y021246D01*
X041081Y020694D01*
X040923Y020694D01*
X040923Y021246D01*
X040923Y020732D02*
X041081Y020732D01*
X041081Y020770D02*
X040923Y020770D01*
X040923Y020808D02*
X041081Y020808D01*
X041081Y020846D02*
X040923Y020846D01*
X040923Y020884D02*
X041081Y020884D01*
X041081Y020922D02*
X040923Y020922D01*
X040923Y020960D02*
X041081Y020960D01*
X041081Y020998D02*
X040923Y020998D01*
X040923Y021036D02*
X041081Y021036D01*
X041081Y021074D02*
X040923Y021074D01*
X040923Y021112D02*
X041081Y021112D01*
X041081Y021150D02*
X040923Y021150D01*
X040923Y021188D02*
X041081Y021188D01*
X041081Y021226D02*
X040923Y021226D01*
X041238Y021246D02*
X041396Y021246D01*
X041396Y020694D01*
X041238Y020694D01*
X041238Y021246D01*
X041238Y020732D02*
X041396Y020732D01*
X041396Y020770D02*
X041238Y020770D01*
X041238Y020808D02*
X041396Y020808D01*
X041396Y020846D02*
X041238Y020846D01*
X041238Y020884D02*
X041396Y020884D01*
X041396Y020922D02*
X041238Y020922D01*
X041238Y020960D02*
X041396Y020960D01*
X041396Y020998D02*
X041238Y020998D01*
X041238Y021036D02*
X041396Y021036D01*
X041396Y021074D02*
X041238Y021074D01*
X041238Y021112D02*
X041396Y021112D01*
X041396Y021150D02*
X041238Y021150D01*
X041238Y021188D02*
X041396Y021188D01*
X041396Y021226D02*
X041238Y021226D01*
X041553Y021246D02*
X041711Y021246D01*
X041711Y020694D01*
X041553Y020694D01*
X041553Y021246D01*
X041553Y020732D02*
X041711Y020732D01*
X041711Y020770D02*
X041553Y020770D01*
X041553Y020808D02*
X041711Y020808D01*
X041711Y020846D02*
X041553Y020846D01*
X041553Y020884D02*
X041711Y020884D01*
X041711Y020922D02*
X041553Y020922D01*
X041553Y020960D02*
X041711Y020960D01*
X041711Y020998D02*
X041553Y020998D01*
X041553Y021036D02*
X041711Y021036D01*
X041711Y021074D02*
X041553Y021074D01*
X041553Y021112D02*
X041711Y021112D01*
X041711Y021150D02*
X041553Y021150D01*
X041553Y021188D02*
X041711Y021188D01*
X041711Y021226D02*
X041553Y021226D01*
X042065Y020340D02*
X042617Y020340D01*
X042617Y020182D01*
X042065Y020182D01*
X042065Y020340D01*
X042065Y020220D02*
X042617Y020220D01*
X042617Y020258D02*
X042065Y020258D01*
X042065Y020296D02*
X042617Y020296D01*
X042617Y020334D02*
X042065Y020334D01*
X042065Y020025D02*
X042617Y020025D01*
X042617Y019867D01*
X042065Y019867D01*
X042065Y020025D01*
X042065Y019905D02*
X042617Y019905D01*
X042617Y019943D02*
X042065Y019943D01*
X042065Y019981D02*
X042617Y019981D01*
X042617Y020019D02*
X042065Y020019D01*
X042065Y019710D02*
X042617Y019710D01*
X042617Y019552D01*
X042065Y019552D01*
X042065Y019710D01*
X042065Y019590D02*
X042617Y019590D01*
X042617Y019628D02*
X042065Y019628D01*
X042065Y019666D02*
X042617Y019666D01*
X042617Y019704D02*
X042065Y019704D01*
X042065Y019395D02*
X042617Y019395D01*
X042617Y019237D01*
X042065Y019237D01*
X042065Y019395D01*
X042065Y019275D02*
X042617Y019275D01*
X042617Y019313D02*
X042065Y019313D01*
X042065Y019351D02*
X042617Y019351D01*
X042617Y019389D02*
X042065Y019389D01*
X042065Y019080D02*
X042617Y019080D01*
X042617Y018922D01*
X042065Y018922D01*
X042065Y019080D01*
X042065Y018960D02*
X042617Y018960D01*
X042617Y018998D02*
X042065Y018998D01*
X042065Y019036D02*
X042617Y019036D01*
X042617Y019074D02*
X042065Y019074D01*
X042065Y018765D02*
X042617Y018765D01*
X042617Y018607D01*
X042065Y018607D01*
X042065Y018765D01*
X042065Y018645D02*
X042617Y018645D01*
X042617Y018683D02*
X042065Y018683D01*
X042065Y018721D02*
X042617Y018721D01*
X042617Y018759D02*
X042065Y018759D01*
X042065Y018450D02*
X042617Y018450D01*
X042617Y018292D01*
X042065Y018292D01*
X042065Y018450D01*
X042065Y018330D02*
X042617Y018330D01*
X042617Y018368D02*
X042065Y018368D01*
X042065Y018406D02*
X042617Y018406D01*
X042617Y018444D02*
X042065Y018444D01*
X042065Y018135D02*
X042617Y018135D01*
X042617Y017977D01*
X042065Y017977D01*
X042065Y018135D01*
X042065Y018015D02*
X042617Y018015D01*
X042617Y018053D02*
X042065Y018053D01*
X042065Y018091D02*
X042617Y018091D01*
X042617Y018129D02*
X042065Y018129D01*
X042065Y017820D02*
X042617Y017820D01*
X042617Y017662D01*
X042065Y017662D01*
X042065Y017820D01*
X042065Y017700D02*
X042617Y017700D01*
X042617Y017738D02*
X042065Y017738D01*
X042065Y017776D02*
X042617Y017776D01*
X042617Y017814D02*
X042065Y017814D01*
X042065Y017505D02*
X042617Y017505D01*
X042617Y017347D01*
X042065Y017347D01*
X042065Y017505D01*
X042065Y017385D02*
X042617Y017385D01*
X042617Y017423D02*
X042065Y017423D01*
X042065Y017461D02*
X042617Y017461D01*
X042617Y017499D02*
X042065Y017499D01*
X042065Y017190D02*
X042617Y017190D01*
X042617Y017032D01*
X042065Y017032D01*
X042065Y017190D01*
X042065Y017070D02*
X042617Y017070D01*
X042617Y017108D02*
X042065Y017108D01*
X042065Y017146D02*
X042617Y017146D01*
X042617Y017184D02*
X042065Y017184D01*
X041711Y016679D02*
X041553Y016679D01*
X041711Y016679D02*
X041711Y016127D01*
X041553Y016127D01*
X041553Y016679D01*
X041553Y016165D02*
X041711Y016165D01*
X041711Y016203D02*
X041553Y016203D01*
X041553Y016241D02*
X041711Y016241D01*
X041711Y016279D02*
X041553Y016279D01*
X041553Y016317D02*
X041711Y016317D01*
X041711Y016355D02*
X041553Y016355D01*
X041553Y016393D02*
X041711Y016393D01*
X041711Y016431D02*
X041553Y016431D01*
X041553Y016469D02*
X041711Y016469D01*
X041711Y016507D02*
X041553Y016507D01*
X041553Y016545D02*
X041711Y016545D01*
X041711Y016583D02*
X041553Y016583D01*
X041553Y016621D02*
X041711Y016621D01*
X041711Y016659D02*
X041553Y016659D01*
X041396Y016679D02*
X041238Y016679D01*
X041396Y016679D02*
X041396Y016127D01*
X041238Y016127D01*
X041238Y016679D01*
X041238Y016165D02*
X041396Y016165D01*
X041396Y016203D02*
X041238Y016203D01*
X041238Y016241D02*
X041396Y016241D01*
X041396Y016279D02*
X041238Y016279D01*
X041238Y016317D02*
X041396Y016317D01*
X041396Y016355D02*
X041238Y016355D01*
X041238Y016393D02*
X041396Y016393D01*
X041396Y016431D02*
X041238Y016431D01*
X041238Y016469D02*
X041396Y016469D01*
X041396Y016507D02*
X041238Y016507D01*
X041238Y016545D02*
X041396Y016545D01*
X041396Y016583D02*
X041238Y016583D01*
X041238Y016621D02*
X041396Y016621D01*
X041396Y016659D02*
X041238Y016659D01*
X041081Y016679D02*
X040923Y016679D01*
X041081Y016679D02*
X041081Y016127D01*
X040923Y016127D01*
X040923Y016679D01*
X040923Y016165D02*
X041081Y016165D01*
X041081Y016203D02*
X040923Y016203D01*
X040923Y016241D02*
X041081Y016241D01*
X041081Y016279D02*
X040923Y016279D01*
X040923Y016317D02*
X041081Y016317D01*
X041081Y016355D02*
X040923Y016355D01*
X040923Y016393D02*
X041081Y016393D01*
X041081Y016431D02*
X040923Y016431D01*
X040923Y016469D02*
X041081Y016469D01*
X041081Y016507D02*
X040923Y016507D01*
X040923Y016545D02*
X041081Y016545D01*
X041081Y016583D02*
X040923Y016583D01*
X040923Y016621D02*
X041081Y016621D01*
X041081Y016659D02*
X040923Y016659D01*
X040766Y016679D02*
X040608Y016679D01*
X040766Y016679D02*
X040766Y016127D01*
X040608Y016127D01*
X040608Y016679D01*
X040608Y016165D02*
X040766Y016165D01*
X040766Y016203D02*
X040608Y016203D01*
X040608Y016241D02*
X040766Y016241D01*
X040766Y016279D02*
X040608Y016279D01*
X040608Y016317D02*
X040766Y016317D01*
X040766Y016355D02*
X040608Y016355D01*
X040608Y016393D02*
X040766Y016393D01*
X040766Y016431D02*
X040608Y016431D01*
X040608Y016469D02*
X040766Y016469D01*
X040766Y016507D02*
X040608Y016507D01*
X040608Y016545D02*
X040766Y016545D01*
X040766Y016583D02*
X040608Y016583D01*
X040608Y016621D02*
X040766Y016621D01*
X040766Y016659D02*
X040608Y016659D01*
X040451Y016679D02*
X040293Y016679D01*
X040451Y016679D02*
X040451Y016127D01*
X040293Y016127D01*
X040293Y016679D01*
X040293Y016165D02*
X040451Y016165D01*
X040451Y016203D02*
X040293Y016203D01*
X040293Y016241D02*
X040451Y016241D01*
X040451Y016279D02*
X040293Y016279D01*
X040293Y016317D02*
X040451Y016317D01*
X040451Y016355D02*
X040293Y016355D01*
X040293Y016393D02*
X040451Y016393D01*
X040451Y016431D02*
X040293Y016431D01*
X040293Y016469D02*
X040451Y016469D01*
X040451Y016507D02*
X040293Y016507D01*
X040293Y016545D02*
X040451Y016545D01*
X040451Y016583D02*
X040293Y016583D01*
X040293Y016621D02*
X040451Y016621D01*
X040451Y016659D02*
X040293Y016659D01*
X040136Y016679D02*
X039978Y016679D01*
X040136Y016679D02*
X040136Y016127D01*
X039978Y016127D01*
X039978Y016679D01*
X039978Y016165D02*
X040136Y016165D01*
X040136Y016203D02*
X039978Y016203D01*
X039978Y016241D02*
X040136Y016241D01*
X040136Y016279D02*
X039978Y016279D01*
X039978Y016317D02*
X040136Y016317D01*
X040136Y016355D02*
X039978Y016355D01*
X039978Y016393D02*
X040136Y016393D01*
X040136Y016431D02*
X039978Y016431D01*
X039978Y016469D02*
X040136Y016469D01*
X040136Y016507D02*
X039978Y016507D01*
X039978Y016545D02*
X040136Y016545D01*
X040136Y016583D02*
X039978Y016583D01*
X039978Y016621D02*
X040136Y016621D01*
X040136Y016659D02*
X039978Y016659D01*
X039822Y016679D02*
X039664Y016679D01*
X039822Y016679D02*
X039822Y016127D01*
X039664Y016127D01*
X039664Y016679D01*
X039664Y016165D02*
X039822Y016165D01*
X039822Y016203D02*
X039664Y016203D01*
X039664Y016241D02*
X039822Y016241D01*
X039822Y016279D02*
X039664Y016279D01*
X039664Y016317D02*
X039822Y016317D01*
X039822Y016355D02*
X039664Y016355D01*
X039664Y016393D02*
X039822Y016393D01*
X039822Y016431D02*
X039664Y016431D01*
X039664Y016469D02*
X039822Y016469D01*
X039822Y016507D02*
X039664Y016507D01*
X039664Y016545D02*
X039822Y016545D01*
X039822Y016583D02*
X039664Y016583D01*
X039664Y016621D02*
X039822Y016621D01*
X039822Y016659D02*
X039664Y016659D01*
X039507Y016679D02*
X039349Y016679D01*
X039507Y016679D02*
X039507Y016127D01*
X039349Y016127D01*
X039349Y016679D01*
X039349Y016165D02*
X039507Y016165D01*
X039507Y016203D02*
X039349Y016203D01*
X039349Y016241D02*
X039507Y016241D01*
X039507Y016279D02*
X039349Y016279D01*
X039349Y016317D02*
X039507Y016317D01*
X039507Y016355D02*
X039349Y016355D01*
X039349Y016393D02*
X039507Y016393D01*
X039507Y016431D02*
X039349Y016431D01*
X039349Y016469D02*
X039507Y016469D01*
X039507Y016507D02*
X039349Y016507D01*
X039349Y016545D02*
X039507Y016545D01*
X039507Y016583D02*
X039349Y016583D01*
X039349Y016621D02*
X039507Y016621D01*
X039507Y016659D02*
X039349Y016659D01*
X039192Y016679D02*
X039034Y016679D01*
X039192Y016679D02*
X039192Y016127D01*
X039034Y016127D01*
X039034Y016679D01*
X039034Y016165D02*
X039192Y016165D01*
X039192Y016203D02*
X039034Y016203D01*
X039034Y016241D02*
X039192Y016241D01*
X039192Y016279D02*
X039034Y016279D01*
X039034Y016317D02*
X039192Y016317D01*
X039192Y016355D02*
X039034Y016355D01*
X039034Y016393D02*
X039192Y016393D01*
X039192Y016431D02*
X039034Y016431D01*
X039034Y016469D02*
X039192Y016469D01*
X039192Y016507D02*
X039034Y016507D01*
X039034Y016545D02*
X039192Y016545D01*
X039192Y016583D02*
X039034Y016583D01*
X039034Y016621D02*
X039192Y016621D01*
X039192Y016659D02*
X039034Y016659D01*
X038877Y016679D02*
X038719Y016679D01*
X038877Y016679D02*
X038877Y016127D01*
X038719Y016127D01*
X038719Y016679D01*
X038719Y016165D02*
X038877Y016165D01*
X038877Y016203D02*
X038719Y016203D01*
X038719Y016241D02*
X038877Y016241D01*
X038877Y016279D02*
X038719Y016279D01*
X038719Y016317D02*
X038877Y016317D01*
X038877Y016355D02*
X038719Y016355D01*
X038719Y016393D02*
X038877Y016393D01*
X038877Y016431D02*
X038719Y016431D01*
X038719Y016469D02*
X038877Y016469D01*
X038877Y016507D02*
X038719Y016507D01*
X038719Y016545D02*
X038877Y016545D01*
X038877Y016583D02*
X038719Y016583D01*
X038719Y016621D02*
X038877Y016621D01*
X038877Y016659D02*
X038719Y016659D01*
X028621Y018908D02*
X028621Y019264D01*
X030393Y019264D01*
X030393Y018908D01*
X028621Y018908D01*
X028621Y018946D02*
X030393Y018946D01*
X030393Y018984D02*
X028621Y018984D01*
X028621Y019022D02*
X030393Y019022D01*
X030393Y019060D02*
X028621Y019060D01*
X028621Y019098D02*
X030393Y019098D01*
X030393Y019136D02*
X028621Y019136D01*
X028621Y019174D02*
X030393Y019174D01*
X030393Y019212D02*
X028621Y019212D01*
X028621Y019250D02*
X030393Y019250D01*
X028621Y019696D02*
X028621Y020052D01*
X030393Y020052D01*
X030393Y019696D01*
X028621Y019696D01*
X028621Y019734D02*
X030393Y019734D01*
X030393Y019772D02*
X028621Y019772D01*
X028621Y019810D02*
X030393Y019810D01*
X030393Y019848D02*
X028621Y019848D01*
X028621Y019886D02*
X030393Y019886D01*
X030393Y019924D02*
X028621Y019924D01*
X028621Y019962D02*
X030393Y019962D01*
X030393Y020000D02*
X028621Y020000D01*
X028621Y020038D02*
X030393Y020038D01*
D18*
X047293Y020774D03*
D19*
X048293Y020774D03*
X049293Y020774D03*
X049293Y021774D03*
X048293Y021774D03*
X047293Y021774D03*
D20*
X043700Y021850D02*
X043700Y022210D01*
X042700Y022210D02*
X042700Y021850D01*
X041700Y021850D02*
X041700Y022210D01*
X040700Y022210D02*
X040700Y021850D01*
X039700Y021850D02*
X039700Y022210D01*
X047420Y018930D02*
X047780Y018930D01*
X047780Y017930D02*
X047420Y017930D01*
X047420Y016930D02*
X047780Y016930D01*
X047780Y015930D02*
X047420Y015930D01*
X047420Y014930D02*
X047780Y014930D01*
X047780Y013930D02*
X047420Y013930D01*
X019250Y014230D02*
X018500Y014230D01*
X018500Y013130D02*
X019250Y013130D01*
X019150Y015330D02*
X018600Y015330D01*
D21*
X020650Y014780D03*
X022200Y014780D03*
X022200Y013680D03*
X020650Y013680D03*
X013150Y018480D03*
X013100Y019430D03*
X013200Y020180D03*
X013850Y020280D03*
X013600Y021680D03*
X014600Y021680D03*
X016100Y021930D03*
X017100Y021930D03*
X018100Y021930D03*
X018100Y022680D03*
X017100Y022680D03*
X016100Y022680D03*
X014600Y022680D03*
X013600Y022680D03*
X012100Y022680D03*
X011850Y021930D03*
X010650Y020080D03*
X016850Y020130D03*
X016850Y019430D03*
X017600Y019430D03*
X030850Y017930D03*
X035100Y017930D03*
X035100Y016980D03*
X036900Y016080D03*
X036900Y015230D03*
X039350Y013930D03*
X038700Y013530D03*
X042350Y014680D03*
X042100Y015930D03*
X045750Y015530D03*
X041100Y017930D03*
X039100Y017680D03*
X037100Y017930D03*
X036300Y019630D03*
X036750Y020080D03*
X035950Y020480D03*
X037050Y020880D03*
X037800Y020980D03*
X037300Y021680D03*
X036250Y021880D03*
X035700Y022330D03*
X040850Y019930D03*
X050100Y019680D03*
X033350Y013430D03*
X033600Y011430D03*
X044850Y011680D03*
X049100Y008680D03*
X041600Y003680D03*
X031200Y002180D03*
X003100Y010180D03*
X001706Y011306D03*
X001706Y012054D03*
X002300Y013180D03*
D22*
X018698Y006249D02*
X019602Y006249D01*
X018698Y006249D02*
X018698Y007211D01*
X019602Y007211D01*
X019602Y006249D01*
X019602Y006348D02*
X018698Y006348D01*
X018698Y006447D02*
X019602Y006447D01*
X019602Y006546D02*
X018698Y006546D01*
X018698Y006645D02*
X019602Y006645D01*
X019602Y006744D02*
X018698Y006744D01*
X018698Y006843D02*
X019602Y006843D01*
X019602Y006942D02*
X018698Y006942D01*
X018698Y007041D02*
X019602Y007041D01*
X019602Y007140D02*
X018698Y007140D01*
X021198Y006249D02*
X022102Y006249D01*
X021198Y006249D02*
X021198Y007211D01*
X022102Y007211D01*
X022102Y006249D01*
X022102Y006348D02*
X021198Y006348D01*
X021198Y006447D02*
X022102Y006447D01*
X022102Y006546D02*
X021198Y006546D01*
X021198Y006645D02*
X022102Y006645D01*
X022102Y006744D02*
X021198Y006744D01*
X021198Y006843D02*
X022102Y006843D01*
X022102Y006942D02*
X021198Y006942D01*
X021198Y007041D02*
X022102Y007041D01*
X022102Y007140D02*
X021198Y007140D01*
X031148Y020161D02*
X032052Y020161D01*
X032052Y019199D01*
X031148Y019199D01*
X031148Y020161D01*
X031148Y019298D02*
X032052Y019298D01*
X032052Y019397D02*
X031148Y019397D01*
X031148Y019496D02*
X032052Y019496D01*
X032052Y019595D02*
X031148Y019595D01*
X031148Y019694D02*
X032052Y019694D01*
X032052Y019793D02*
X031148Y019793D01*
X031148Y019892D02*
X032052Y019892D01*
X032052Y019991D02*
X031148Y019991D01*
X031148Y020090D02*
X032052Y020090D01*
X033648Y020161D02*
X034552Y020161D01*
X034552Y019199D01*
X033648Y019199D01*
X033648Y020161D01*
X033648Y019298D02*
X034552Y019298D01*
X034552Y019397D02*
X033648Y019397D01*
X033648Y019496D02*
X034552Y019496D01*
X034552Y019595D02*
X033648Y019595D01*
X033648Y019694D02*
X034552Y019694D01*
X034552Y019793D02*
X033648Y019793D01*
X033648Y019892D02*
X034552Y019892D01*
X034552Y019991D02*
X033648Y019991D01*
X033648Y020090D02*
X034552Y020090D01*
D23*
X037281Y013106D02*
X037281Y012716D01*
X037281Y013106D02*
X038419Y013106D01*
X038419Y012716D01*
X037281Y012716D01*
X037281Y012758D02*
X038419Y012758D01*
X038419Y012800D02*
X037281Y012800D01*
X037281Y012842D02*
X038419Y012842D01*
X038419Y012884D02*
X037281Y012884D01*
X037281Y012926D02*
X038419Y012926D01*
X038419Y012968D02*
X037281Y012968D01*
X037281Y013010D02*
X038419Y013010D01*
X038419Y013052D02*
X037281Y013052D01*
X037281Y013094D02*
X038419Y013094D01*
D24*
X044683Y017089D02*
X044683Y017797D01*
X044683Y017089D02*
X043817Y017089D01*
X043817Y017797D01*
X044683Y017797D01*
X044683Y017167D02*
X043817Y017167D01*
X043817Y017245D02*
X044683Y017245D01*
X044683Y017323D02*
X043817Y017323D01*
X043817Y017401D02*
X044683Y017401D01*
X044683Y017479D02*
X043817Y017479D01*
X043817Y017557D02*
X044683Y017557D01*
X044683Y017635D02*
X043817Y017635D01*
X043817Y017713D02*
X044683Y017713D01*
X044683Y017791D02*
X043817Y017791D01*
X044683Y018663D02*
X044683Y019371D01*
X044683Y018663D02*
X043817Y018663D01*
X043817Y019371D01*
X044683Y019371D01*
X044683Y018741D02*
X043817Y018741D01*
X043817Y018819D02*
X044683Y018819D01*
X044683Y018897D02*
X043817Y018897D01*
X043817Y018975D02*
X044683Y018975D01*
X044683Y019053D02*
X043817Y019053D01*
X043817Y019131D02*
X044683Y019131D01*
X044683Y019209D02*
X043817Y019209D01*
X043817Y019287D02*
X044683Y019287D01*
X044683Y019365D02*
X043817Y019365D01*
D25*
X046108Y016937D02*
X046108Y016523D01*
X046108Y016937D02*
X046692Y016937D01*
X046692Y016523D01*
X046108Y016523D01*
X046108Y016568D02*
X046692Y016568D01*
X046692Y016613D02*
X046108Y016613D01*
X046108Y016658D02*
X046692Y016658D01*
X046692Y016703D02*
X046108Y016703D01*
X046108Y016748D02*
X046692Y016748D01*
X046692Y016793D02*
X046108Y016793D01*
X046108Y016838D02*
X046692Y016838D01*
X046692Y016883D02*
X046108Y016883D01*
X046108Y016928D02*
X046692Y016928D01*
X046108Y016337D02*
X046108Y015923D01*
X046108Y016337D02*
X046692Y016337D01*
X046692Y015923D01*
X046108Y015923D01*
X046108Y015968D02*
X046692Y015968D01*
X046692Y016013D02*
X046108Y016013D01*
X046108Y016058D02*
X046692Y016058D01*
X046692Y016103D02*
X046108Y016103D01*
X046108Y016148D02*
X046692Y016148D01*
X046692Y016193D02*
X046108Y016193D01*
X046108Y016238D02*
X046692Y016238D01*
X046692Y016283D02*
X046108Y016283D01*
X046108Y016328D02*
X046692Y016328D01*
X046108Y015737D02*
X046108Y015323D01*
X046108Y015737D02*
X046692Y015737D01*
X046692Y015323D01*
X046108Y015323D01*
X046108Y015368D02*
X046692Y015368D01*
X046692Y015413D02*
X046108Y015413D01*
X046108Y015458D02*
X046692Y015458D01*
X046692Y015503D02*
X046108Y015503D01*
X046108Y015548D02*
X046692Y015548D01*
X046692Y015593D02*
X046108Y015593D01*
X046108Y015638D02*
X046692Y015638D01*
X046692Y015683D02*
X046108Y015683D01*
X046108Y015728D02*
X046692Y015728D01*
X045157Y015922D02*
X044743Y015922D01*
X045157Y015922D02*
X045157Y015338D01*
X044743Y015338D01*
X044743Y015922D01*
X044743Y015383D02*
X045157Y015383D01*
X045157Y015428D02*
X044743Y015428D01*
X044743Y015473D02*
X045157Y015473D01*
X045157Y015518D02*
X044743Y015518D01*
X044743Y015563D02*
X045157Y015563D01*
X045157Y015608D02*
X044743Y015608D01*
X044743Y015653D02*
X045157Y015653D01*
X045157Y015698D02*
X044743Y015698D01*
X044743Y015743D02*
X045157Y015743D01*
X045157Y015788D02*
X044743Y015788D01*
X044743Y015833D02*
X045157Y015833D01*
X045157Y015878D02*
X044743Y015878D01*
X044557Y015922D02*
X044143Y015922D01*
X044557Y015922D02*
X044557Y015338D01*
X044143Y015338D01*
X044143Y015922D01*
X044143Y015383D02*
X044557Y015383D01*
X044557Y015428D02*
X044143Y015428D01*
X044143Y015473D02*
X044557Y015473D01*
X044557Y015518D02*
X044143Y015518D01*
X044143Y015563D02*
X044557Y015563D01*
X044557Y015608D02*
X044143Y015608D01*
X044143Y015653D02*
X044557Y015653D01*
X044557Y015698D02*
X044143Y015698D01*
X044143Y015743D02*
X044557Y015743D01*
X044557Y015788D02*
X044143Y015788D01*
X044143Y015833D02*
X044557Y015833D01*
X044557Y015878D02*
X044143Y015878D01*
X043957Y015922D02*
X043543Y015922D01*
X043957Y015922D02*
X043957Y015338D01*
X043543Y015338D01*
X043543Y015922D01*
X043543Y015383D02*
X043957Y015383D01*
X043957Y015428D02*
X043543Y015428D01*
X043543Y015473D02*
X043957Y015473D01*
X043957Y015518D02*
X043543Y015518D01*
X043543Y015563D02*
X043957Y015563D01*
X043957Y015608D02*
X043543Y015608D01*
X043543Y015653D02*
X043957Y015653D01*
X043957Y015698D02*
X043543Y015698D01*
X043543Y015743D02*
X043957Y015743D01*
X043957Y015788D02*
X043543Y015788D01*
X043543Y015833D02*
X043957Y015833D01*
X043957Y015878D02*
X043543Y015878D01*
D26*
X047446Y012180D02*
X047754Y012180D01*
X047754Y011180D02*
X047446Y011180D01*
D27*
X039506Y011680D02*
X039194Y011680D01*
X036506Y011680D02*
X036194Y011680D01*
X036194Y010680D02*
X036506Y010680D01*
X036506Y009680D02*
X036194Y009680D01*
X036194Y007680D02*
X036506Y007680D01*
X036506Y006680D02*
X036194Y006680D01*
X036194Y005680D02*
X036506Y005680D01*
X039194Y007680D02*
X039506Y007680D01*
X036506Y012680D02*
X036194Y012680D01*
X036194Y013680D02*
X036506Y013680D01*
X036506Y014680D02*
X036194Y014680D01*
X039194Y014680D02*
X039506Y014680D01*
X036506Y016680D02*
X036194Y016680D01*
X036194Y017680D02*
X036506Y017680D01*
D28*
X031606Y019086D02*
X031600Y019680D01*
X031606Y019086D02*
X029507Y019086D01*
X024006Y019086D01*
X021600Y016680D01*
X021600Y006780D01*
X021650Y006730D01*
X022650Y006681D02*
X023087Y007119D01*
X023590Y007119D01*
D29*
X036350Y009680D02*
X037350Y009680D01*
X039350Y007680D01*
X039350Y014680D02*
X039901Y014680D01*
X040701Y015430D01*
X040057Y015974D01*
X040057Y016403D01*
X040057Y018370D01*
X037815Y018370D01*
X037765Y018370D02*
X036249Y018370D01*
X035799Y018830D01*
X033250Y018830D01*
X032400Y019680D01*
X031600Y019680D01*
X039743Y020037D02*
X040600Y019000D01*
X040057Y018437D01*
X040600Y019000D02*
X042162Y019000D01*
X039743Y020037D02*
X039743Y020970D01*
D30*
X040057Y020970D02*
X040057Y020970D01*
X040057Y020524D01*
X040053Y020524D01*
X040053Y020149D01*
X040746Y019310D01*
X041836Y019310D01*
X041836Y020087D01*
X041836Y020098D01*
X041797Y020060D01*
X041702Y020020D01*
X041348Y020020D01*
X041253Y020060D01*
X041180Y020133D01*
X041097Y020215D01*
X041057Y020311D01*
X041057Y020464D01*
X040199Y020464D01*
X040139Y020524D01*
X040057Y020524D01*
X040057Y020970D01*
X040057Y020964D02*
X040057Y020964D01*
X040057Y020865D02*
X040057Y020865D01*
X040057Y020767D02*
X040057Y020767D01*
X040057Y020668D02*
X040057Y020668D01*
X040057Y020570D02*
X040057Y020570D01*
X040053Y020471D02*
X040192Y020471D01*
X040053Y020373D02*
X041057Y020373D01*
X041073Y020274D02*
X040053Y020274D01*
X040053Y020176D02*
X041137Y020176D01*
X041235Y020077D02*
X040112Y020077D01*
X040193Y019979D02*
X041836Y019979D01*
X041836Y020077D02*
X041815Y020077D01*
X041836Y019880D02*
X040275Y019880D01*
X040356Y019782D02*
X041836Y019782D01*
X041836Y019683D02*
X040438Y019683D01*
X040519Y019585D02*
X041836Y019585D01*
X041836Y019486D02*
X040600Y019486D01*
X040682Y019388D02*
X041836Y019388D01*
X042162Y019000D02*
X042341Y019001D01*
X042341Y019316D02*
X042836Y019316D01*
X043450Y019930D01*
X048449Y019930D01*
X049293Y020774D01*
X049293Y020680D01*
X050600Y020680D01*
X050600Y018126D01*
X048757Y018126D01*
X048793Y018091D01*
X048793Y015025D01*
X049505Y015025D01*
X049600Y014930D01*
X049600Y009180D01*
X049100Y008680D01*
X048706Y008848D02*
X047636Y008848D01*
X047734Y008947D02*
X048761Y008947D01*
X048737Y008923D02*
X048672Y008765D01*
X048672Y008595D01*
X048737Y008437D01*
X048857Y008317D01*
X049015Y008252D01*
X049185Y008252D01*
X049343Y008317D01*
X049463Y008437D01*
X049528Y008595D01*
X049528Y008740D01*
X049747Y008960D01*
X049820Y009033D01*
X049860Y009128D01*
X049860Y014982D01*
X049820Y015077D01*
X049747Y015150D01*
X049726Y015172D01*
X049652Y015245D01*
X049557Y015285D01*
X049357Y015285D01*
X049357Y015356D01*
X049320Y015445D01*
X049252Y015513D01*
X049163Y015550D01*
X049053Y015550D01*
X049053Y017601D01*
X049129Y017601D01*
X049218Y017638D01*
X049286Y017706D01*
X049322Y017795D01*
X049322Y017866D01*
X050652Y017866D01*
X050747Y017906D01*
X050820Y017979D01*
X050860Y018075D01*
X050860Y020732D01*
X050820Y020827D01*
X050747Y020900D01*
X050652Y020940D01*
X049873Y020940D01*
X049873Y021014D01*
X049570Y021316D01*
X049813Y021558D01*
X049813Y021724D01*
X049343Y021724D01*
X049343Y021824D01*
X049813Y021824D01*
X049813Y021988D01*
X049921Y021726D01*
X050146Y021501D01*
X050441Y021379D01*
X050759Y021379D01*
X051054Y021501D01*
X051279Y021726D01*
X051350Y021897D01*
X051350Y001463D01*
X051279Y001634D01*
X051054Y001859D01*
X050759Y001981D01*
X050441Y001981D01*
X050146Y001859D01*
X049921Y001634D01*
X049799Y001339D01*
X049799Y001021D01*
X049921Y000726D01*
X050146Y000501D01*
X050317Y000430D01*
X026133Y000430D01*
X026304Y000501D01*
X026529Y000726D01*
X026651Y001021D01*
X026651Y001339D01*
X026529Y001634D01*
X026304Y001859D01*
X026009Y001981D01*
X025691Y001981D01*
X025396Y001859D01*
X025171Y001634D01*
X025049Y001339D01*
X025049Y001021D01*
X025171Y000726D01*
X025396Y000501D01*
X025567Y000430D01*
X019100Y000430D01*
X019100Y003032D01*
X019174Y003032D01*
X019174Y003132D01*
X019798Y003132D01*
X019787Y003214D01*
X019764Y003300D01*
X019730Y003382D01*
X019686Y003458D01*
X019632Y003528D01*
X019594Y003566D01*
X019707Y003566D01*
X019751Y003523D01*
X019995Y003421D01*
X020260Y003421D01*
X020504Y003523D01*
X020548Y003566D01*
X020661Y003566D01*
X020623Y003528D01*
X020569Y003458D01*
X020525Y003382D01*
X020491Y003300D01*
X020468Y003214D01*
X020457Y003132D01*
X021081Y003132D01*
X021081Y003032D01*
X021181Y003032D01*
X021181Y002408D01*
X021263Y002419D01*
X021349Y002442D01*
X021431Y002476D01*
X021507Y002520D01*
X021577Y002574D01*
X021640Y002636D01*
X021694Y002707D01*
X021711Y002736D01*
X021711Y002725D01*
X022039Y002725D01*
X022039Y002648D01*
X021711Y002648D01*
X021711Y002622D01*
X021722Y002566D01*
X021744Y002513D01*
X021776Y002465D01*
X021817Y002425D01*
X021864Y002393D01*
X021917Y002371D01*
X021974Y002359D01*
X022039Y002359D01*
X022039Y002648D01*
X022116Y002648D01*
X022116Y002725D01*
X022719Y002725D01*
X022719Y002648D01*
X022391Y002648D01*
X022116Y002648D01*
X022116Y002359D01*
X022181Y002359D01*
X022238Y002371D01*
X022291Y002393D01*
X022338Y002425D01*
X022379Y002465D01*
X022411Y002513D01*
X022417Y002529D01*
X022424Y002513D01*
X022456Y002465D01*
X022497Y002425D01*
X022544Y002393D01*
X022597Y002371D01*
X022654Y002359D01*
X022719Y002359D01*
X022719Y002648D01*
X022796Y002648D01*
X022796Y002359D01*
X022861Y002359D01*
X022918Y002371D01*
X022971Y002393D01*
X023018Y002425D01*
X023059Y002465D01*
X023091Y002513D01*
X023113Y002566D01*
X023124Y002622D01*
X023124Y002632D01*
X023241Y002470D01*
X023241Y002470D01*
X023241Y002470D01*
X023516Y002271D01*
X023838Y002166D01*
X026382Y002166D01*
X026418Y002157D01*
X026484Y002166D01*
X026551Y002166D01*
X026586Y002181D01*
X026685Y002195D01*
X026685Y002195D01*
X026984Y002342D01*
X027223Y002573D01*
X027223Y002573D01*
X027379Y002867D01*
X027436Y003195D01*
X027417Y003323D01*
X027417Y003590D01*
X027370Y003703D01*
X027370Y004186D01*
X027448Y004186D01*
X027448Y004263D01*
X027736Y004263D01*
X027736Y004513D01*
X027724Y004576D01*
X027699Y004636D01*
X027663Y004689D01*
X027618Y004735D01*
X027564Y004771D01*
X027504Y004795D01*
X027448Y004807D01*
X027448Y004263D01*
X027370Y004263D01*
X027370Y004807D01*
X027314Y004795D01*
X027264Y004775D01*
X027223Y004815D01*
X027225Y004816D01*
X027232Y004811D01*
X027311Y004828D01*
X027391Y004834D01*
X027397Y004841D01*
X027406Y004837D01*
X027481Y004865D01*
X027560Y004883D01*
X027565Y004890D01*
X027573Y004888D01*
X027644Y004926D01*
X027720Y004954D01*
X027723Y004963D01*
X027732Y004961D01*
X027797Y005010D01*
X027868Y005048D01*
X027870Y005057D01*
X027879Y005057D01*
X027936Y005114D01*
X028001Y005162D01*
X028002Y005171D01*
X028011Y005173D01*
X028059Y005237D01*
X028116Y005294D01*
X028116Y005303D01*
X028125Y005306D01*
X028164Y005376D01*
X028212Y005441D01*
X028211Y005450D01*
X028219Y005454D01*
X028240Y005510D01*
X028240Y003515D01*
X028129Y003515D01*
X028040Y003478D01*
X027972Y003410D01*
X027935Y003321D01*
X027935Y002658D01*
X027972Y002570D01*
X028040Y002502D01*
X028129Y002465D01*
X028871Y002465D01*
X028960Y002502D01*
X029028Y002570D01*
X029065Y002658D01*
X029065Y003321D01*
X029028Y003410D01*
X028960Y003478D01*
X028871Y003515D01*
X028760Y003515D01*
X028760Y006832D01*
X028720Y006927D01*
X028647Y007000D01*
X026773Y008874D01*
X026678Y008914D01*
X024142Y008914D01*
X024174Y008947D01*
X029716Y008947D01*
X029617Y009045D02*
X024215Y009045D01*
X024233Y009089D02*
X024233Y009243D01*
X024174Y009385D01*
X024138Y009422D01*
X024174Y009458D01*
X024233Y009601D01*
X024233Y009755D01*
X024174Y009897D01*
X024138Y009934D01*
X024174Y009970D01*
X024233Y010112D01*
X024233Y010266D01*
X024174Y010409D01*
X024138Y010445D01*
X024174Y010482D01*
X024233Y010624D01*
X024233Y010778D01*
X024174Y010921D01*
X024138Y010957D01*
X024174Y010994D01*
X024233Y011136D01*
X024233Y011290D01*
X024174Y011432D01*
X024142Y011465D01*
X027197Y011465D01*
X033794Y004868D01*
X033671Y004868D01*
X033528Y004809D01*
X033492Y004772D01*
X033455Y004809D01*
X033313Y004868D01*
X033159Y004868D01*
X033017Y004809D01*
X032980Y004772D01*
X032943Y004809D01*
X032801Y004868D01*
X032647Y004868D01*
X032505Y004809D01*
X032468Y004772D01*
X032432Y004809D01*
X032289Y004868D01*
X032135Y004868D01*
X031993Y004809D01*
X031956Y004772D01*
X031920Y004809D01*
X031777Y004868D01*
X031623Y004868D01*
X031481Y004809D01*
X031444Y004772D01*
X031408Y004809D01*
X031266Y004868D01*
X031112Y004868D01*
X030969Y004809D01*
X030933Y004772D01*
X030896Y004809D01*
X030754Y004868D01*
X030600Y004868D01*
X030457Y004809D01*
X030421Y004772D01*
X030384Y004809D01*
X030242Y004868D01*
X030088Y004868D01*
X029946Y004809D01*
X029837Y004700D01*
X029778Y004558D01*
X029778Y003892D01*
X029837Y003750D01*
X029946Y003641D01*
X030088Y003582D01*
X030242Y003582D01*
X030384Y003641D01*
X030421Y003677D01*
X030457Y003641D01*
X030600Y003582D01*
X030754Y003582D01*
X030896Y003641D01*
X030933Y003677D01*
X030940Y003670D01*
X030940Y002525D01*
X030837Y002423D01*
X030796Y002323D01*
X030760Y002358D01*
X030671Y002395D01*
X029929Y002395D01*
X029840Y002358D01*
X029772Y002290D01*
X029735Y002202D01*
X029735Y002130D01*
X029065Y002130D01*
X029065Y002202D01*
X029028Y002290D01*
X028960Y002358D01*
X028871Y002395D01*
X028129Y002395D01*
X028040Y002358D01*
X027972Y002290D01*
X027935Y002202D01*
X027935Y001539D01*
X027972Y001450D01*
X028040Y001382D01*
X028129Y001345D01*
X028871Y001345D01*
X028960Y001382D01*
X029028Y001450D01*
X029065Y001539D01*
X029065Y001610D01*
X029735Y001610D01*
X029735Y001539D01*
X029772Y001450D01*
X029840Y001382D01*
X029929Y001345D01*
X030671Y001345D01*
X030760Y001382D01*
X030828Y001450D01*
X030865Y001539D01*
X030865Y001910D01*
X030957Y001817D01*
X031115Y001752D01*
X031285Y001752D01*
X031443Y001817D01*
X031563Y001937D01*
X031628Y002095D01*
X031628Y002265D01*
X031563Y002423D01*
X031460Y002525D01*
X031460Y003662D01*
X031481Y003641D01*
X031623Y003582D01*
X031777Y003582D01*
X031920Y003641D01*
X031956Y003677D01*
X031993Y003641D01*
X032135Y003582D01*
X032289Y003582D01*
X032432Y003641D01*
X032468Y003677D01*
X032505Y003641D01*
X032647Y003582D01*
X032801Y003582D01*
X032943Y003641D01*
X032980Y003677D01*
X033017Y003641D01*
X033159Y003582D01*
X033313Y003582D01*
X033455Y003641D01*
X033492Y003677D01*
X033528Y003641D01*
X033671Y003582D01*
X033825Y003582D01*
X033967Y003641D01*
X034004Y003677D01*
X034040Y003641D01*
X034182Y003582D01*
X034336Y003582D01*
X034479Y003641D01*
X034588Y003750D01*
X034647Y003892D01*
X034647Y004558D01*
X034600Y004670D01*
X043402Y004670D01*
X043497Y004710D01*
X049340Y010552D01*
X049340Y009288D01*
X049160Y009108D01*
X049015Y009108D01*
X048857Y009043D01*
X048737Y008923D01*
X048863Y009045D02*
X047833Y009045D01*
X047931Y009144D02*
X049196Y009144D01*
X049294Y009242D02*
X048030Y009242D01*
X048128Y009341D02*
X049340Y009341D01*
X049340Y009439D02*
X048227Y009439D01*
X048325Y009538D02*
X049340Y009538D01*
X049340Y009636D02*
X048424Y009636D01*
X048522Y009735D02*
X049340Y009735D01*
X049340Y009833D02*
X048621Y009833D01*
X048719Y009932D02*
X049340Y009932D01*
X049340Y010030D02*
X048818Y010030D01*
X048916Y010129D02*
X049340Y010129D01*
X049340Y010227D02*
X049015Y010227D01*
X049113Y010326D02*
X049340Y010326D01*
X049340Y010424D02*
X049212Y010424D01*
X049310Y010523D02*
X049340Y010523D01*
X049860Y010523D02*
X051350Y010523D01*
X051350Y010621D02*
X049860Y010621D01*
X049860Y010720D02*
X051350Y010720D01*
X051350Y010818D02*
X049860Y010818D01*
X049860Y010917D02*
X051350Y010917D01*
X051350Y011015D02*
X049860Y011015D01*
X049860Y011114D02*
X051350Y011114D01*
X051350Y011212D02*
X049860Y011212D01*
X049860Y011311D02*
X051350Y011311D01*
X051350Y011409D02*
X049860Y011409D01*
X049860Y011508D02*
X051350Y011508D01*
X051350Y011606D02*
X049860Y011606D01*
X049860Y011705D02*
X051350Y011705D01*
X051350Y011803D02*
X049860Y011803D01*
X049860Y011902D02*
X051350Y011902D01*
X051350Y012000D02*
X049860Y012000D01*
X049860Y012099D02*
X051350Y012099D01*
X051350Y012197D02*
X049860Y012197D01*
X049860Y012296D02*
X051350Y012296D01*
X051350Y012394D02*
X049860Y012394D01*
X049860Y012493D02*
X051350Y012493D01*
X051350Y012591D02*
X049860Y012591D01*
X049860Y012690D02*
X051350Y012690D01*
X051350Y012788D02*
X049860Y012788D01*
X049860Y012887D02*
X051350Y012887D01*
X051350Y012985D02*
X049860Y012985D01*
X049860Y013084D02*
X051350Y013084D01*
X051350Y013182D02*
X049860Y013182D01*
X049860Y013281D02*
X051350Y013281D01*
X051350Y013379D02*
X049860Y013379D01*
X049860Y013478D02*
X051350Y013478D01*
X051350Y013576D02*
X049860Y013576D01*
X049860Y013675D02*
X051350Y013675D01*
X051350Y013773D02*
X049860Y013773D01*
X049860Y013872D02*
X051350Y013872D01*
X051350Y013970D02*
X049860Y013970D01*
X049860Y014069D02*
X051350Y014069D01*
X051350Y014167D02*
X049860Y014167D01*
X049860Y014266D02*
X051350Y014266D01*
X051350Y014364D02*
X049860Y014364D01*
X049860Y014463D02*
X051350Y014463D01*
X051350Y014561D02*
X049860Y014561D01*
X049860Y014660D02*
X051350Y014660D01*
X051350Y014758D02*
X049860Y014758D01*
X049860Y014857D02*
X051350Y014857D01*
X051350Y014955D02*
X049860Y014955D01*
X049830Y015054D02*
X051350Y015054D01*
X051350Y015152D02*
X049746Y015152D01*
X049747Y015150D02*
X049747Y015150D01*
X049726Y015172D02*
X049726Y015172D01*
X049640Y015251D02*
X051350Y015251D01*
X051350Y015349D02*
X049357Y015349D01*
X049318Y015448D02*
X051350Y015448D01*
X051350Y015546D02*
X049173Y015546D01*
X049053Y015645D02*
X051350Y015645D01*
X051350Y015743D02*
X049053Y015743D01*
X049053Y015842D02*
X051350Y015842D01*
X051350Y015940D02*
X049053Y015940D01*
X049053Y016039D02*
X051350Y016039D01*
X051350Y016137D02*
X049053Y016137D01*
X049053Y016236D02*
X051350Y016236D01*
X051350Y016334D02*
X049053Y016334D01*
X049053Y016433D02*
X051350Y016433D01*
X051350Y016531D02*
X049053Y016531D01*
X049053Y016630D02*
X051350Y016630D01*
X051350Y016728D02*
X049053Y016728D01*
X049053Y016827D02*
X051350Y016827D01*
X051350Y016925D02*
X049053Y016925D01*
X049053Y017024D02*
X051350Y017024D01*
X051350Y017122D02*
X049053Y017122D01*
X049053Y017221D02*
X051350Y017221D01*
X051350Y017319D02*
X049053Y017319D01*
X049053Y017418D02*
X051350Y017418D01*
X051350Y017516D02*
X049053Y017516D01*
X049160Y017615D02*
X051350Y017615D01*
X051350Y017713D02*
X049288Y017713D01*
X049322Y017812D02*
X051350Y017812D01*
X051350Y017910D02*
X050751Y017910D01*
X050833Y018009D02*
X051350Y018009D01*
X051350Y018107D02*
X050860Y018107D01*
X050860Y018206D02*
X051350Y018206D01*
X051350Y018304D02*
X050860Y018304D01*
X050860Y018403D02*
X051350Y018403D01*
X051350Y018501D02*
X050860Y018501D01*
X050860Y018600D02*
X051350Y018600D01*
X051350Y018698D02*
X050860Y018698D01*
X050860Y018797D02*
X051350Y018797D01*
X051350Y018895D02*
X050860Y018895D01*
X050860Y018994D02*
X051350Y018994D01*
X051350Y019092D02*
X050860Y019092D01*
X050860Y019191D02*
X051350Y019191D01*
X051350Y019289D02*
X050860Y019289D01*
X050860Y019388D02*
X051350Y019388D01*
X051350Y019486D02*
X050860Y019486D01*
X050860Y019585D02*
X051350Y019585D01*
X051350Y019683D02*
X050860Y019683D01*
X050860Y019782D02*
X051350Y019782D01*
X051350Y019880D02*
X050860Y019880D01*
X050860Y019979D02*
X051350Y019979D01*
X051350Y020077D02*
X050860Y020077D01*
X050860Y020176D02*
X051350Y020176D01*
X051350Y020274D02*
X050860Y020274D01*
X050860Y020373D02*
X051350Y020373D01*
X051350Y020471D02*
X050860Y020471D01*
X050860Y020570D02*
X051350Y020570D01*
X051350Y020668D02*
X050860Y020668D01*
X050846Y020767D02*
X051350Y020767D01*
X051350Y020865D02*
X050783Y020865D01*
X051350Y020964D02*
X049873Y020964D01*
X049824Y021062D02*
X051350Y021062D01*
X051350Y021161D02*
X049726Y021161D01*
X049627Y021259D02*
X051350Y021259D01*
X051350Y021358D02*
X049612Y021358D01*
X049710Y021456D02*
X050254Y021456D01*
X050092Y021555D02*
X049809Y021555D01*
X049813Y021653D02*
X049994Y021653D01*
X049910Y021752D02*
X049343Y021752D01*
X049343Y021824D02*
X049243Y021824D01*
X049243Y022294D01*
X049077Y022294D01*
X048835Y022052D01*
X048533Y022354D01*
X048080Y022354D01*
X047733Y022700D01*
X047638Y022740D01*
X046452Y022740D01*
X046402Y022741D01*
X046400Y022740D01*
X046398Y022740D01*
X046352Y022721D01*
X046306Y022702D01*
X046304Y022701D01*
X046303Y022700D01*
X046267Y022665D01*
X044494Y020940D01*
X043950Y020940D01*
X043997Y020960D01*
X044497Y021460D01*
X044570Y021533D01*
X044610Y021628D01*
X044610Y022482D01*
X044570Y022577D01*
X044320Y022827D01*
X044247Y022900D01*
X044176Y022930D01*
X050317Y022930D01*
X050146Y022859D01*
X049921Y022634D01*
X049799Y022339D01*
X049799Y022021D01*
X049811Y021990D01*
X049508Y022294D01*
X049343Y022294D01*
X049343Y021824D01*
X049343Y021850D02*
X049243Y021850D01*
X049243Y021949D02*
X049343Y021949D01*
X049343Y022047D02*
X049243Y022047D01*
X049243Y022146D02*
X049343Y022146D01*
X049343Y022244D02*
X049243Y022244D01*
X049027Y022244D02*
X048642Y022244D01*
X048544Y022343D02*
X049800Y022343D01*
X049799Y022244D02*
X049558Y022244D01*
X049656Y022146D02*
X049799Y022146D01*
X049799Y022047D02*
X049755Y022047D01*
X049813Y021949D02*
X049829Y021949D01*
X049813Y021850D02*
X049869Y021850D01*
X049841Y022441D02*
X047993Y022441D01*
X047894Y022540D02*
X049882Y022540D01*
X049925Y022638D02*
X047796Y022638D01*
X047646Y022737D02*
X050024Y022737D01*
X050122Y022835D02*
X044313Y022835D01*
X044411Y022737D02*
X046390Y022737D01*
X046240Y022638D02*
X044510Y022638D01*
X044586Y022540D02*
X046138Y022540D01*
X046037Y022441D02*
X044610Y022441D01*
X044610Y022343D02*
X045936Y022343D01*
X045835Y022244D02*
X044610Y022244D01*
X044610Y022146D02*
X045733Y022146D01*
X045632Y022047D02*
X044610Y022047D01*
X044610Y021949D02*
X045531Y021949D01*
X045430Y021850D02*
X044610Y021850D01*
X044610Y021752D02*
X045328Y021752D01*
X045227Y021653D02*
X044610Y021653D01*
X044579Y021555D02*
X045126Y021555D01*
X045025Y021456D02*
X044494Y021456D01*
X044395Y021358D02*
X044924Y021358D01*
X044822Y021259D02*
X044297Y021259D01*
X044198Y021161D02*
X044721Y021161D01*
X044620Y021062D02*
X044100Y021062D01*
X044001Y020964D02*
X044519Y020964D01*
X044600Y020680D02*
X046450Y022480D01*
X047586Y022480D01*
X048293Y021774D01*
X048741Y022146D02*
X048929Y022146D01*
X050946Y021456D02*
X051350Y021456D01*
X051350Y021555D02*
X051108Y021555D01*
X051206Y021653D02*
X051350Y021653D01*
X051350Y021752D02*
X051290Y021752D01*
X051331Y021850D02*
X051350Y021850D01*
X048293Y020774D02*
X047649Y020130D01*
X043300Y020130D01*
X042801Y019631D01*
X042341Y019631D01*
X042341Y019946D02*
X042766Y019946D01*
X043200Y020380D01*
X046899Y020380D01*
X047293Y020774D01*
X044600Y020680D02*
X043150Y020680D01*
X042731Y020261D01*
X042341Y020261D01*
X042050Y020680D02*
X042850Y020680D01*
X043350Y021180D01*
X043850Y021180D01*
X044350Y021680D01*
X044350Y022430D01*
X044100Y022680D01*
X043350Y022680D01*
X042700Y022030D01*
X041700Y022030D02*
X041002Y021332D01*
X041002Y020970D01*
X040687Y020970D02*
X040687Y021817D01*
X040700Y022030D01*
X040372Y021558D02*
X039700Y022030D01*
X039190Y022108D02*
X038820Y022477D01*
X038747Y022550D01*
X038652Y022590D01*
X036045Y022590D01*
X035943Y022693D01*
X035785Y022758D01*
X035615Y022758D01*
X035457Y022693D01*
X035337Y022573D01*
X035272Y022415D01*
X035272Y022245D01*
X035337Y022087D01*
X035457Y021967D01*
X035615Y021902D01*
X035785Y021902D01*
X035822Y021917D01*
X035822Y021795D01*
X035887Y021637D01*
X036007Y021517D01*
X036165Y021452D01*
X036335Y021452D01*
X036493Y021517D01*
X036595Y021620D01*
X036836Y021620D01*
X036872Y021616D01*
X036872Y021595D01*
X036937Y021437D01*
X037057Y021317D01*
X037079Y021308D01*
X036965Y021308D01*
X036807Y021243D01*
X036687Y021123D01*
X036622Y020965D01*
X036622Y020795D01*
X036645Y020740D01*
X036295Y020740D01*
X036193Y020843D01*
X036035Y020908D01*
X035865Y020908D01*
X035707Y020843D01*
X035587Y020723D01*
X035522Y020565D01*
X035522Y020395D01*
X035587Y020237D01*
X035707Y020117D01*
X035865Y020052D01*
X036035Y020052D01*
X036193Y020117D01*
X036295Y020220D01*
X036345Y020220D01*
X036322Y020165D01*
X036322Y020058D01*
X036215Y020058D01*
X036057Y019993D01*
X035937Y019873D01*
X035872Y019715D01*
X035872Y019545D01*
X035937Y019387D01*
X036057Y019267D01*
X036215Y019202D01*
X036385Y019202D01*
X036543Y019267D01*
X036645Y019370D01*
X036892Y019370D01*
X037080Y019183D01*
X037080Y019183D01*
X037153Y019110D01*
X037248Y019070D01*
X037269Y019070D01*
X037269Y018827D01*
X037329Y018767D01*
X037329Y018686D01*
X037329Y018680D01*
X036379Y018680D01*
X036062Y019004D01*
X036062Y019006D01*
X036019Y019048D01*
X035977Y019091D01*
X035976Y019092D01*
X035974Y019093D01*
X035919Y019116D01*
X035864Y019139D01*
X035862Y019139D01*
X035860Y019140D01*
X035801Y019140D01*
X035741Y019141D01*
X035739Y019140D01*
X034743Y019140D01*
X034752Y019172D01*
X034752Y019630D01*
X034150Y019630D01*
X034150Y019730D01*
X034050Y019730D01*
X034050Y020361D01*
X033622Y020361D01*
X033571Y020348D01*
X033525Y020321D01*
X033488Y020284D01*
X033462Y020239D01*
X033448Y020188D01*
X033448Y019730D01*
X034050Y019730D01*
X034050Y019630D01*
X033448Y019630D01*
X033448Y019172D01*
X033457Y019140D01*
X033378Y019140D01*
X032576Y019943D01*
X032462Y019990D01*
X032312Y019990D01*
X032312Y020213D01*
X032272Y020309D01*
X032199Y020382D01*
X032104Y020421D01*
X031096Y020421D01*
X031001Y020382D01*
X030928Y020309D01*
X030888Y020213D01*
X030888Y019576D01*
X030512Y019576D01*
X030528Y019592D01*
X030551Y019631D01*
X030562Y019674D01*
X030562Y019825D01*
X029555Y019825D01*
X029555Y019922D01*
X029458Y019922D01*
X029458Y019825D01*
X028451Y019825D01*
X028451Y019674D01*
X028463Y019631D01*
X028485Y019592D01*
X028501Y019576D01*
X023909Y019576D01*
X023729Y019502D01*
X022704Y018477D01*
X019790Y021390D01*
X019763Y021456D01*
X019626Y021593D01*
X019447Y021667D01*
X019253Y021667D01*
X019100Y021604D01*
X019100Y022930D01*
X025567Y022930D01*
X025396Y022859D01*
X025171Y022634D01*
X025049Y022339D01*
X025049Y022021D01*
X025171Y021726D01*
X025396Y021501D01*
X025691Y021379D01*
X026009Y021379D01*
X026304Y021501D01*
X026529Y021726D01*
X026651Y022021D01*
X026651Y022339D01*
X026529Y022634D01*
X026304Y022859D01*
X026133Y022930D01*
X043274Y022930D01*
X043203Y022900D01*
X042958Y022655D01*
X042801Y022720D01*
X042599Y022720D01*
X042411Y022642D01*
X042268Y022499D01*
X042200Y022336D01*
X042132Y022499D01*
X041989Y022642D01*
X041801Y022720D01*
X041599Y022720D01*
X041411Y022642D01*
X041268Y022499D01*
X041200Y022336D01*
X041132Y022499D01*
X040989Y022642D01*
X040801Y022720D01*
X040599Y022720D01*
X040411Y022642D01*
X040268Y022499D01*
X040200Y022336D01*
X040132Y022499D01*
X039989Y022642D01*
X039801Y022720D01*
X039599Y022720D01*
X039411Y022642D01*
X039268Y022499D01*
X039190Y022311D01*
X039190Y022108D01*
X039190Y022146D02*
X039152Y022146D01*
X039190Y022244D02*
X039054Y022244D01*
X038955Y022343D02*
X039203Y022343D01*
X039244Y022441D02*
X038857Y022441D01*
X038758Y022540D02*
X039308Y022540D01*
X039407Y022638D02*
X035997Y022638D01*
X035837Y022737D02*
X043039Y022737D01*
X043137Y022835D02*
X026328Y022835D01*
X026426Y022737D02*
X035563Y022737D01*
X035403Y022638D02*
X026525Y022638D01*
X026568Y022540D02*
X035323Y022540D01*
X035283Y022441D02*
X026609Y022441D01*
X026650Y022343D02*
X035272Y022343D01*
X035272Y022244D02*
X026651Y022244D01*
X026651Y022146D02*
X035313Y022146D01*
X035378Y022047D02*
X026651Y022047D01*
X026621Y021949D02*
X035502Y021949D01*
X035822Y021850D02*
X026581Y021850D01*
X026540Y021752D02*
X035840Y021752D01*
X035881Y021653D02*
X026456Y021653D01*
X026358Y021555D02*
X035970Y021555D01*
X036155Y021456D02*
X026196Y021456D01*
X026617Y021239D02*
X026580Y021150D01*
X026580Y020487D01*
X026617Y020398D01*
X026685Y020330D01*
X026774Y020294D01*
X028145Y020294D01*
X028234Y020330D01*
X028302Y020398D01*
X028339Y020487D01*
X028339Y021150D01*
X028302Y021239D01*
X028234Y021307D01*
X028145Y021344D01*
X026774Y021344D01*
X026685Y021307D01*
X026617Y021239D01*
X026637Y021259D02*
X019921Y021259D01*
X019823Y021358D02*
X037017Y021358D01*
X036929Y021456D02*
X036345Y021456D01*
X036530Y021555D02*
X036889Y021555D01*
X036846Y021259D02*
X028282Y021259D01*
X028334Y021161D02*
X036725Y021161D01*
X036662Y021062D02*
X028339Y021062D01*
X028339Y020964D02*
X036622Y020964D01*
X036622Y020865D02*
X036139Y020865D01*
X036269Y020767D02*
X036634Y020767D01*
X036900Y020480D02*
X035950Y020480D01*
X036251Y020176D02*
X036326Y020176D01*
X036322Y020077D02*
X036096Y020077D01*
X036043Y019979D02*
X034752Y019979D01*
X034752Y020077D02*
X035804Y020077D01*
X035649Y020176D02*
X034752Y020176D01*
X034752Y020188D02*
X034738Y020239D01*
X034712Y020284D01*
X034675Y020321D01*
X034629Y020348D01*
X034578Y020361D01*
X034150Y020361D01*
X034150Y019730D01*
X034752Y019730D01*
X034752Y020188D01*
X034718Y020274D02*
X035572Y020274D01*
X035531Y020373D02*
X032208Y020373D01*
X032287Y020274D02*
X033482Y020274D01*
X033448Y020176D02*
X032312Y020176D01*
X032312Y020077D02*
X033448Y020077D01*
X033448Y019979D02*
X032489Y019979D01*
X032638Y019880D02*
X033448Y019880D01*
X033448Y019782D02*
X032737Y019782D01*
X032835Y019683D02*
X034050Y019683D01*
X034050Y019782D02*
X034150Y019782D01*
X034150Y019880D02*
X034050Y019880D01*
X034050Y019979D02*
X034150Y019979D01*
X034150Y020077D02*
X034050Y020077D01*
X034050Y020176D02*
X034150Y020176D01*
X034150Y020274D02*
X034050Y020274D01*
X034752Y019880D02*
X035945Y019880D01*
X035899Y019782D02*
X034752Y019782D01*
X034752Y019585D02*
X035872Y019585D01*
X035872Y019683D02*
X034150Y019683D01*
X034752Y019486D02*
X035896Y019486D01*
X035937Y019388D02*
X034752Y019388D01*
X034752Y019289D02*
X036036Y019289D01*
X035975Y019092D02*
X037195Y019092D01*
X037269Y018994D02*
X036072Y018994D01*
X036169Y018895D02*
X037269Y018895D01*
X037300Y018797D02*
X036265Y018797D01*
X036362Y018698D02*
X037329Y018698D01*
X037329Y018686D02*
X037774Y018686D01*
X037329Y018686D01*
X037774Y018686D02*
X037774Y018686D01*
X037774Y018686D01*
X038219Y018686D01*
X038219Y018680D01*
X039861Y018680D01*
X040185Y019016D01*
X039513Y019829D01*
X039480Y019862D01*
X039474Y019876D01*
X039464Y019888D01*
X039450Y019932D01*
X039433Y019976D01*
X039433Y019991D01*
X039428Y020005D01*
X039433Y020052D01*
X039433Y020464D01*
X038309Y020464D01*
X038174Y020599D01*
X038174Y020720D01*
X038145Y020720D01*
X038043Y020617D01*
X037928Y020570D01*
X038204Y020570D01*
X038145Y020570D02*
X037928Y020570D01*
X038093Y020668D02*
X038174Y020668D01*
X038145Y020570D02*
X038279Y020435D01*
X038279Y018827D01*
X038219Y018767D01*
X038219Y018686D01*
X037774Y018686D01*
X037774Y018371D02*
X037815Y018370D01*
X037774Y018056D02*
X037226Y018056D01*
X037100Y017930D01*
X037450Y017730D02*
X037763Y017730D01*
X037774Y017741D01*
X037770Y017430D02*
X037500Y017430D01*
X036750Y016680D01*
X036350Y016680D01*
X036599Y017150D02*
X036772Y017078D01*
X036776Y017074D01*
X036872Y017170D01*
X036798Y017170D01*
X036703Y017210D01*
X036672Y017240D01*
X036599Y017210D01*
X036101Y017210D01*
X035928Y017282D01*
X035796Y017414D01*
X035724Y017587D01*
X035724Y017773D01*
X035796Y017946D01*
X035928Y018078D01*
X036051Y018129D01*
X036028Y018152D01*
X035986Y018194D01*
X035985Y018196D01*
X035668Y018520D01*
X033188Y018520D01*
X033074Y018567D01*
X032987Y018654D01*
X032312Y019330D01*
X032312Y019147D01*
X032272Y019051D01*
X032199Y018978D01*
X032104Y018939D01*
X032075Y018939D01*
X032060Y018901D01*
X032025Y018813D01*
X032023Y018811D01*
X032022Y018809D01*
X031955Y018742D01*
X031888Y018674D01*
X031886Y018673D01*
X031884Y018671D01*
X031796Y018635D01*
X031709Y018597D01*
X031706Y018597D01*
X031704Y018596D01*
X031609Y018596D01*
X031514Y018595D01*
X031512Y018596D01*
X028267Y018596D01*
X028302Y018562D01*
X028339Y018473D01*
X028339Y017810D01*
X028302Y017721D01*
X028234Y017653D01*
X028145Y017616D01*
X026774Y017616D01*
X026685Y017653D01*
X026617Y017721D01*
X026580Y017810D01*
X026580Y018473D01*
X026617Y018562D01*
X026652Y018596D01*
X024209Y018596D01*
X022090Y016477D01*
X022090Y015198D01*
X022115Y015208D01*
X022285Y015208D01*
X022443Y015143D01*
X022545Y015040D01*
X022592Y015040D01*
X022840Y015288D01*
X022840Y016232D01*
X022880Y016327D01*
X022953Y016400D01*
X023953Y017400D01*
X024048Y017440D01*
X024152Y017440D01*
X029548Y017440D01*
X029652Y017440D01*
X029747Y017400D01*
X029820Y017327D01*
X029860Y017232D01*
X029860Y016017D01*
X029875Y016053D01*
X029911Y016107D01*
X029956Y016152D01*
X030010Y016188D01*
X030070Y016213D01*
X030126Y016224D01*
X030126Y015681D01*
X030204Y015681D01*
X030204Y016224D01*
X030260Y016213D01*
X030320Y016188D01*
X030374Y016152D01*
X030378Y016147D01*
X030457Y016226D01*
X030600Y016285D01*
X030754Y016285D01*
X030896Y016226D01*
X030933Y016190D01*
X030969Y016226D01*
X031112Y016285D01*
X031266Y016285D01*
X031408Y016226D01*
X031444Y016190D01*
X031481Y016226D01*
X031623Y016285D01*
X031777Y016285D01*
X031920Y016226D01*
X031956Y016190D01*
X031993Y016226D01*
X032038Y016245D01*
X031929Y016245D01*
X031840Y016282D01*
X031772Y016350D01*
X031735Y016439D01*
X031735Y017102D01*
X031772Y017190D01*
X031840Y017258D01*
X031929Y017295D01*
X032671Y017295D01*
X032750Y017263D01*
X032829Y017295D01*
X033117Y017295D01*
X033047Y017365D01*
X032829Y017365D01*
X032750Y017397D01*
X032671Y017365D01*
X031929Y017365D01*
X031840Y017402D01*
X031772Y017470D01*
X031735Y017558D01*
X031735Y017670D01*
X031195Y017670D01*
X031093Y017567D01*
X030935Y017502D01*
X030765Y017502D01*
X030607Y017567D01*
X030487Y017687D01*
X030422Y017845D01*
X030422Y018015D01*
X030487Y018173D01*
X030607Y018293D01*
X030765Y018358D01*
X030935Y018358D01*
X031093Y018293D01*
X031195Y018190D01*
X031735Y018190D01*
X031735Y018221D01*
X031772Y018310D01*
X031840Y018378D01*
X031929Y018415D01*
X032671Y018415D01*
X032750Y018382D01*
X032829Y018415D01*
X033571Y018415D01*
X033650Y018382D01*
X033729Y018415D01*
X034471Y018415D01*
X034560Y018378D01*
X034628Y018310D01*
X034665Y018221D01*
X034665Y018150D01*
X034728Y018150D01*
X034737Y018173D01*
X034857Y018293D01*
X035015Y018358D01*
X035185Y018358D01*
X035343Y018293D01*
X035463Y018173D01*
X035528Y018015D01*
X035528Y017845D01*
X035463Y017687D01*
X035343Y017567D01*
X035185Y017502D01*
X035015Y017502D01*
X034857Y017567D01*
X034795Y017630D01*
X034665Y017630D01*
X034665Y017590D01*
X034802Y017590D01*
X034897Y017550D01*
X035040Y017408D01*
X035185Y017408D01*
X035343Y017343D01*
X035463Y017223D01*
X035528Y017065D01*
X035528Y016895D01*
X035463Y016737D01*
X035343Y016617D01*
X035185Y016552D01*
X035015Y016552D01*
X034857Y016617D01*
X034737Y016737D01*
X034672Y016895D01*
X034672Y017040D01*
X034665Y017047D01*
X034665Y016439D01*
X034628Y016350D01*
X034560Y016282D01*
X034471Y016245D01*
X034433Y016245D01*
X034479Y016226D01*
X034588Y016117D01*
X034647Y015975D01*
X034647Y015902D01*
X036510Y015902D01*
X036472Y015995D01*
X036472Y016165D01*
X036490Y016210D01*
X036101Y016210D01*
X035928Y016282D01*
X035796Y016414D01*
X035724Y016587D01*
X035724Y016773D01*
X035796Y016946D01*
X035928Y017078D01*
X036101Y017150D01*
X036599Y017150D01*
X036667Y017122D02*
X036824Y017122D01*
X036692Y017221D02*
X036625Y017221D01*
X036850Y017430D02*
X037150Y017430D01*
X037450Y017730D01*
X037770Y017430D02*
X037774Y017426D01*
X038279Y017418D02*
X039747Y017418D01*
X039747Y017516D02*
X038279Y017516D01*
X038279Y017615D02*
X039747Y017615D01*
X039747Y017713D02*
X038279Y017713D01*
X038279Y017812D02*
X039747Y017812D01*
X039747Y017910D02*
X038279Y017910D01*
X038279Y018009D02*
X039747Y018009D01*
X039747Y018060D02*
X039747Y016848D01*
X039743Y016848D01*
X039743Y016403D01*
X039743Y016403D01*
X039743Y015958D01*
X039747Y015958D01*
X039747Y015934D01*
X039649Y015934D01*
X039649Y015480D01*
X040064Y015480D01*
X040064Y015563D01*
X040176Y015468D01*
X040176Y015363D01*
X040064Y015257D01*
X040064Y015380D01*
X039649Y015380D01*
X039649Y015480D01*
X039549Y015480D01*
X039549Y015898D01*
X039601Y015898D01*
X039661Y015958D01*
X039743Y015958D01*
X039743Y016403D01*
X039743Y016403D01*
X039743Y016848D01*
X039661Y016848D01*
X039601Y016908D01*
X038309Y016908D01*
X038174Y016774D01*
X038174Y016032D01*
X038223Y015984D01*
X038223Y015956D01*
X037381Y015956D01*
X037327Y015902D01*
X037290Y015902D01*
X037328Y015995D01*
X037328Y016165D01*
X037289Y016259D01*
X037833Y016803D01*
X038145Y016803D01*
X038279Y016938D01*
X038279Y018060D01*
X039747Y018060D01*
X040057Y018370D02*
X040057Y018437D01*
X039878Y018698D02*
X038219Y018698D01*
X038248Y018797D02*
X039973Y018797D01*
X040068Y018895D02*
X038279Y018895D01*
X038279Y018994D02*
X040163Y018994D01*
X040122Y019092D02*
X038279Y019092D01*
X038279Y019191D02*
X040040Y019191D01*
X039959Y019289D02*
X038279Y019289D01*
X038279Y019388D02*
X039878Y019388D01*
X039796Y019486D02*
X038279Y019486D01*
X038279Y019585D02*
X039715Y019585D01*
X039633Y019683D02*
X038279Y019683D01*
X038279Y019782D02*
X039552Y019782D01*
X039470Y019880D02*
X038279Y019880D01*
X038279Y019979D02*
X039433Y019979D01*
X039433Y020077D02*
X038279Y020077D01*
X038279Y020176D02*
X039433Y020176D01*
X039433Y020274D02*
X038279Y020274D01*
X038279Y020373D02*
X039433Y020373D01*
X038302Y020471D02*
X038243Y020471D01*
X037774Y020261D02*
X037755Y020280D01*
X037500Y020280D01*
X037050Y020880D01*
X037800Y020980D02*
X038472Y020980D01*
X038483Y020970D01*
X038798Y020970D02*
X038800Y020972D01*
X038800Y021430D01*
X038550Y021680D01*
X037300Y021680D01*
X037100Y022080D02*
X036850Y021880D01*
X036250Y021880D01*
X035700Y022330D02*
X038600Y022330D01*
X039428Y021502D01*
X039428Y020970D01*
X039113Y020970D02*
X039113Y021517D01*
X038550Y022080D01*
X037100Y022080D01*
X035761Y020865D02*
X028339Y020865D01*
X028339Y020767D02*
X035631Y020767D01*
X035565Y020668D02*
X028339Y020668D01*
X028339Y020570D02*
X035524Y020570D01*
X035522Y020471D02*
X028332Y020471D01*
X028276Y020373D02*
X030992Y020373D01*
X030913Y020274D02*
X020906Y020274D01*
X020808Y020373D02*
X026643Y020373D01*
X026587Y020471D02*
X020709Y020471D01*
X020611Y020570D02*
X026580Y020570D01*
X026580Y020668D02*
X020512Y020668D01*
X020414Y020767D02*
X026580Y020767D01*
X026580Y020865D02*
X020315Y020865D01*
X020217Y020964D02*
X026580Y020964D01*
X026580Y021062D02*
X020118Y021062D01*
X020020Y021161D02*
X026584Y021161D01*
X025504Y021456D02*
X019763Y021456D01*
X019664Y021555D02*
X025342Y021555D01*
X025244Y021653D02*
X019481Y021653D01*
X019219Y021653D02*
X019100Y021653D01*
X019100Y021752D02*
X025160Y021752D01*
X025119Y021850D02*
X019100Y021850D01*
X019100Y021949D02*
X025079Y021949D01*
X025049Y022047D02*
X019100Y022047D01*
X019100Y022146D02*
X025049Y022146D01*
X025049Y022244D02*
X019100Y022244D01*
X019100Y022343D02*
X025050Y022343D01*
X025091Y022441D02*
X019100Y022441D01*
X019100Y022540D02*
X025132Y022540D01*
X025175Y022638D02*
X019100Y022638D01*
X019100Y022737D02*
X025274Y022737D01*
X025372Y022835D02*
X019100Y022835D01*
X018600Y022835D02*
X015650Y022835D01*
X015650Y022930D02*
X018600Y022930D01*
X018600Y020980D01*
X015650Y020980D01*
X015650Y022930D01*
X015650Y022737D02*
X018600Y022737D01*
X018600Y022638D02*
X015650Y022638D01*
X015650Y022540D02*
X018600Y022540D01*
X018600Y022441D02*
X015650Y022441D01*
X015650Y022343D02*
X018600Y022343D01*
X018600Y022244D02*
X015650Y022244D01*
X015650Y022146D02*
X018600Y022146D01*
X018600Y022047D02*
X015650Y022047D01*
X015650Y021949D02*
X018600Y021949D01*
X018600Y021850D02*
X015650Y021850D01*
X015650Y021752D02*
X018600Y021752D01*
X018600Y021653D02*
X015650Y021653D01*
X015650Y021555D02*
X018600Y021555D01*
X018600Y021456D02*
X015650Y021456D01*
X015650Y021358D02*
X018600Y021358D01*
X018600Y021259D02*
X015650Y021259D01*
X015650Y021161D02*
X018600Y021161D01*
X018600Y021062D02*
X015650Y021062D01*
X015050Y021062D02*
X010950Y021062D01*
X010950Y020980D02*
X015050Y020980D01*
X015050Y022930D01*
X010950Y022930D01*
X010950Y020980D01*
X010950Y021161D02*
X015050Y021161D01*
X015050Y021259D02*
X010950Y021259D01*
X010950Y021358D02*
X015050Y021358D01*
X015050Y021456D02*
X010950Y021456D01*
X010950Y021555D02*
X015050Y021555D01*
X015050Y021653D02*
X010950Y021653D01*
X010950Y021752D02*
X015050Y021752D01*
X015050Y021850D02*
X010950Y021850D01*
X010950Y021949D02*
X015050Y021949D01*
X015050Y022047D02*
X010950Y022047D01*
X010950Y022146D02*
X015050Y022146D01*
X015050Y022244D02*
X010950Y022244D01*
X010950Y022343D02*
X015050Y022343D01*
X015050Y022441D02*
X010950Y022441D01*
X010950Y022540D02*
X015050Y022540D01*
X015050Y022638D02*
X010950Y022638D01*
X010950Y022737D02*
X015050Y022737D01*
X015050Y022835D02*
X010950Y022835D01*
X011950Y020730D02*
X018600Y020730D01*
X018600Y019030D01*
X011950Y019030D01*
X011950Y020730D01*
X011950Y020668D02*
X018600Y020668D01*
X018600Y020570D02*
X011950Y020570D01*
X011950Y020471D02*
X018600Y020471D01*
X018600Y020373D02*
X011950Y020373D01*
X011950Y020274D02*
X018600Y020274D01*
X018600Y020176D02*
X011950Y020176D01*
X011950Y020077D02*
X018600Y020077D01*
X018600Y019979D02*
X011950Y019979D01*
X011950Y019880D02*
X018600Y019880D01*
X018600Y019782D02*
X011950Y019782D01*
X011950Y019683D02*
X018600Y019683D01*
X018600Y019585D02*
X011950Y019585D01*
X011950Y019486D02*
X018600Y019486D01*
X018600Y019388D02*
X011950Y019388D01*
X011950Y019289D02*
X018600Y019289D01*
X018600Y019191D02*
X011950Y019191D01*
X011950Y019092D02*
X018600Y019092D01*
X019100Y019092D02*
X020787Y019092D01*
X020689Y019191D02*
X019100Y019191D01*
X019100Y019289D02*
X020590Y019289D01*
X020492Y019388D02*
X019100Y019388D01*
X019100Y019486D02*
X020393Y019486D01*
X020295Y019585D02*
X019100Y019585D01*
X019100Y019683D02*
X020196Y019683D01*
X020098Y019782D02*
X019100Y019782D01*
X019100Y019880D02*
X019999Y019880D01*
X019901Y019979D02*
X019100Y019979D01*
X019100Y020077D02*
X019802Y020077D01*
X019704Y020176D02*
X019100Y020176D01*
X019100Y020274D02*
X019605Y020274D01*
X019507Y020373D02*
X019100Y020373D01*
X019100Y020471D02*
X019408Y020471D01*
X019310Y020570D02*
X019100Y020570D01*
X019100Y020668D02*
X019211Y020668D01*
X019140Y020740D02*
X022053Y017826D01*
X021322Y017095D01*
X021185Y016958D01*
X021110Y016777D01*
X021110Y007456D01*
X021051Y007432D01*
X020978Y007359D01*
X020938Y007263D01*
X020938Y007037D01*
X020890Y006921D01*
X020890Y006639D01*
X020938Y006523D01*
X020938Y006197D01*
X020978Y006101D01*
X021051Y006028D01*
X021146Y005989D01*
X022154Y005989D01*
X022249Y006028D01*
X022322Y006101D01*
X022345Y006156D01*
X023013Y006156D01*
X023008Y006134D01*
X023552Y006134D01*
X023552Y006056D01*
X023629Y006056D01*
X023629Y005768D01*
X023878Y005768D01*
X023941Y005780D01*
X024001Y005805D01*
X024055Y005841D01*
X024100Y005886D01*
X024136Y005940D01*
X024161Y006000D01*
X024172Y006056D01*
X023629Y006056D01*
X023629Y006134D01*
X024172Y006134D01*
X024161Y006190D01*
X024136Y006250D01*
X024100Y006304D01*
X024095Y006308D01*
X024174Y006387D01*
X024233Y006530D01*
X024233Y006684D01*
X024206Y006750D01*
X024300Y006977D01*
X024300Y007260D01*
X024206Y007487D01*
X024233Y007553D01*
X024233Y007707D01*
X024174Y007850D01*
X024138Y007886D01*
X024174Y007923D01*
X024233Y008065D01*
X024233Y008219D01*
X024174Y008362D01*
X024142Y008394D01*
X026518Y008394D01*
X028240Y006672D01*
X028240Y006561D01*
X028219Y006618D01*
X028211Y006622D01*
X028212Y006631D01*
X028164Y006695D01*
X028125Y006766D01*
X028116Y006769D01*
X028116Y006778D01*
X028059Y006835D01*
X028011Y006899D01*
X028002Y006901D01*
X028001Y006910D01*
X027936Y006958D01*
X027879Y007015D01*
X027870Y007015D01*
X027868Y007024D01*
X027797Y007062D01*
X027732Y007110D01*
X027723Y007109D01*
X027720Y007117D01*
X027644Y007146D01*
X027573Y007184D01*
X027565Y007182D01*
X027560Y007189D01*
X027481Y007206D01*
X027406Y007234D01*
X027397Y007231D01*
X027391Y007238D01*
X027311Y007243D01*
X027232Y007260D01*
X027225Y007256D01*
X027218Y007262D01*
X027137Y007256D01*
X027057Y007262D01*
X027050Y007256D01*
X027042Y007260D01*
X026964Y007243D01*
X026883Y007238D01*
X026877Y007231D01*
X026869Y007234D01*
X026794Y007206D01*
X026715Y007189D01*
X026710Y007182D01*
X026701Y007184D01*
X026631Y007146D01*
X026555Y007117D01*
X026551Y007109D01*
X026542Y007110D01*
X026478Y007062D01*
X026407Y007024D01*
X026405Y007015D01*
X026396Y007015D01*
X026339Y006958D01*
X026274Y006910D01*
X026273Y006901D01*
X026264Y006899D01*
X026215Y006835D01*
X026159Y006778D01*
X026159Y006769D01*
X026150Y006766D01*
X026111Y006695D01*
X026063Y006631D01*
X026064Y006622D01*
X026056Y006618D01*
X026028Y006543D01*
X025989Y006472D01*
X025992Y006463D01*
X025984Y006458D01*
X025967Y006380D01*
X025939Y006304D01*
X025943Y006296D01*
X025936Y006290D01*
X025930Y006210D01*
X025913Y006131D01*
X025918Y006123D01*
X025912Y006116D01*
X025918Y006036D01*
X025912Y005956D01*
X025918Y005949D01*
X025913Y005941D01*
X025930Y005862D01*
X025936Y005782D01*
X025943Y005776D01*
X025939Y005768D01*
X025967Y005692D01*
X025984Y005614D01*
X025992Y005609D01*
X025989Y005600D01*
X026028Y005529D01*
X026056Y005454D01*
X026064Y005450D01*
X026063Y005441D01*
X026111Y005376D01*
X026150Y005306D01*
X026159Y005303D01*
X026159Y005294D01*
X026215Y005237D01*
X026264Y005173D01*
X026273Y005171D01*
X026274Y005162D01*
X026339Y005114D01*
X026396Y005057D01*
X026405Y005057D01*
X026407Y005048D01*
X026478Y005010D01*
X026542Y004961D01*
X026551Y004963D01*
X026555Y004954D01*
X026631Y004926D01*
X026683Y004898D01*
X026633Y004877D01*
X026531Y004775D01*
X026481Y004795D01*
X026424Y004807D01*
X026424Y004263D01*
X026347Y004263D01*
X026347Y004186D01*
X026424Y004186D01*
X026424Y003703D01*
X026377Y003590D01*
X026377Y003352D01*
X026368Y003315D01*
X026377Y003249D01*
X026377Y003206D01*
X024007Y003206D01*
X024003Y003207D01*
X023994Y003210D01*
X023986Y003215D01*
X023981Y003223D01*
X023978Y003232D01*
X023977Y003236D01*
X023977Y003327D01*
X023984Y003516D01*
X023875Y003895D01*
X023654Y004222D01*
X023343Y004464D01*
X022973Y004599D01*
X022973Y004599D01*
X022775Y004606D01*
X022672Y004610D01*
X022478Y004537D01*
X022408Y004471D01*
X022352Y004527D01*
X022161Y004606D01*
X021602Y004606D01*
X021640Y004644D01*
X021694Y004714D01*
X021738Y004791D01*
X021772Y004873D01*
X021795Y004958D01*
X021806Y005040D01*
X021181Y005040D01*
X021181Y005140D01*
X021081Y005140D01*
X021081Y005040D01*
X020457Y005040D01*
X020468Y004958D01*
X020491Y004873D01*
X020525Y004791D01*
X020569Y004714D01*
X020623Y004644D01*
X020661Y004606D01*
X020548Y004606D01*
X020504Y004650D01*
X020260Y004751D01*
X019995Y004751D01*
X019751Y004650D01*
X019707Y004606D01*
X019594Y004606D01*
X019632Y004644D01*
X019686Y004714D01*
X019730Y004791D01*
X019764Y004873D01*
X019787Y004958D01*
X019798Y005040D01*
X019174Y005040D01*
X019174Y005140D01*
X019798Y005140D01*
X019787Y005222D01*
X019764Y005308D01*
X019730Y005389D01*
X019686Y005466D01*
X019632Y005536D01*
X019570Y005599D01*
X019499Y005653D01*
X019423Y005697D01*
X019341Y005731D01*
X019256Y005754D01*
X019174Y005764D01*
X019174Y005140D01*
X019100Y005140D01*
X019100Y006049D01*
X019100Y006680D01*
X019200Y006680D01*
X019200Y006780D01*
X019100Y006780D01*
X019100Y007411D01*
X019100Y013420D01*
X020305Y013420D01*
X020407Y013317D01*
X020565Y013252D01*
X020735Y013252D01*
X020893Y013317D01*
X021013Y013437D01*
X021078Y013595D01*
X021078Y013765D01*
X021013Y013923D01*
X020893Y014043D01*
X020735Y014108D01*
X020565Y014108D01*
X020407Y014043D01*
X020305Y013940D01*
X019100Y013940D01*
X019100Y014520D01*
X020305Y014520D01*
X020407Y014417D01*
X020565Y014352D01*
X020735Y014352D01*
X020893Y014417D01*
X021013Y014537D01*
X021078Y014695D01*
X021078Y014865D01*
X021013Y015023D01*
X020893Y015143D01*
X020735Y015208D01*
X020565Y015208D01*
X020407Y015143D01*
X020305Y015040D01*
X019100Y015040D01*
X019100Y020756D01*
X019140Y020740D01*
X021005Y020176D02*
X028506Y020176D01*
X028517Y020187D02*
X028485Y020155D01*
X028463Y020116D01*
X028451Y020073D01*
X028451Y019922D01*
X029458Y019922D01*
X029458Y020221D01*
X028599Y020221D01*
X028555Y020209D01*
X028517Y020187D01*
X028452Y020077D02*
X021103Y020077D01*
X021202Y019979D02*
X028451Y019979D01*
X028451Y019782D02*
X021399Y019782D01*
X021300Y019880D02*
X029458Y019880D01*
X029555Y019880D02*
X030888Y019880D01*
X030888Y019782D02*
X030562Y019782D01*
X030562Y019683D02*
X030888Y019683D01*
X030888Y019585D02*
X030521Y019585D01*
X030562Y019922D02*
X030562Y020073D01*
X030551Y020116D01*
X030528Y020155D01*
X030497Y020187D01*
X030458Y020209D01*
X030415Y020221D01*
X029555Y020221D01*
X029555Y019922D01*
X030562Y019922D01*
X030562Y019979D02*
X030888Y019979D01*
X030888Y020077D02*
X030561Y020077D01*
X030508Y020176D02*
X030888Y020176D01*
X029555Y020176D02*
X029458Y020176D01*
X029458Y020077D02*
X029555Y020077D01*
X029555Y019979D02*
X029458Y019979D01*
X028493Y019585D02*
X021596Y019585D01*
X021497Y019683D02*
X028451Y019683D01*
X028327Y018501D02*
X035687Y018501D01*
X035783Y018403D02*
X034501Y018403D01*
X034631Y018304D02*
X034884Y018304D01*
X034770Y018206D02*
X034665Y018206D01*
X035060Y017890D02*
X034100Y017890D01*
X034665Y017615D02*
X034810Y017615D01*
X034932Y017516D02*
X034981Y017516D01*
X035030Y017418D02*
X035794Y017418D01*
X035753Y017516D02*
X035219Y017516D01*
X035390Y017615D02*
X035724Y017615D01*
X035724Y017713D02*
X035474Y017713D01*
X035514Y017812D02*
X035740Y017812D01*
X035781Y017910D02*
X035528Y017910D01*
X035528Y018009D02*
X035858Y018009D01*
X035997Y018107D02*
X035490Y018107D01*
X035430Y018206D02*
X035976Y018206D01*
X035880Y018304D02*
X035316Y018304D01*
X035100Y017930D02*
X035060Y017890D01*
X036350Y017680D02*
X036600Y017680D01*
X036850Y017430D01*
X036075Y017221D02*
X035464Y017221D01*
X035505Y017122D02*
X036033Y017122D01*
X035873Y017024D02*
X035528Y017024D01*
X035528Y016925D02*
X035787Y016925D01*
X035746Y016827D02*
X035500Y016827D01*
X035453Y016728D02*
X035724Y016728D01*
X035724Y016630D02*
X035355Y016630D01*
X035747Y016531D02*
X034665Y016531D01*
X034662Y016433D02*
X035788Y016433D01*
X035875Y016334D02*
X034612Y016334D01*
X034457Y016236D02*
X036039Y016236D01*
X036472Y016137D02*
X034568Y016137D01*
X034620Y016039D02*
X036472Y016039D01*
X036495Y015940D02*
X034647Y015940D01*
X034259Y015642D02*
X037757Y015642D01*
X037850Y015549D01*
X037365Y015940D02*
X037305Y015940D01*
X037328Y016039D02*
X038174Y016039D01*
X038174Y016137D02*
X037328Y016137D01*
X037299Y016236D02*
X038174Y016236D01*
X038174Y016334D02*
X037364Y016334D01*
X037463Y016433D02*
X038174Y016433D01*
X038174Y016531D02*
X037561Y016531D01*
X037660Y016630D02*
X038174Y016630D01*
X038174Y016728D02*
X037758Y016728D01*
X037774Y017111D02*
X036900Y016237D01*
X036900Y016080D01*
X036500Y015382D02*
X036472Y015315D01*
X036472Y015170D01*
X036452Y015150D01*
X036101Y015150D01*
X035928Y015078D01*
X035796Y014946D01*
X035724Y014773D01*
X035724Y014587D01*
X035796Y014414D01*
X035881Y014329D01*
X035880Y014327D01*
X035568Y014015D01*
X035483Y014100D01*
X035340Y014159D01*
X034675Y014159D01*
X034532Y014100D01*
X034423Y013991D01*
X034364Y013849D01*
X034364Y013695D01*
X034423Y013553D01*
X034460Y013516D01*
X034423Y013480D01*
X034364Y013337D01*
X034364Y013183D01*
X034423Y013041D01*
X034502Y012962D01*
X034497Y012957D01*
X034462Y012903D01*
X034437Y012844D01*
X034426Y012787D01*
X034969Y012787D01*
X034969Y012710D01*
X034426Y012710D01*
X034437Y012653D01*
X034462Y012594D01*
X034497Y012540D01*
X034502Y012535D01*
X034423Y012456D01*
X034364Y012314D01*
X034364Y012160D01*
X034423Y012017D01*
X034460Y011981D01*
X034423Y011944D01*
X034364Y011802D01*
X034364Y011648D01*
X034423Y011506D01*
X034460Y011469D01*
X034423Y011432D01*
X034364Y011290D01*
X034364Y011136D01*
X034423Y010994D01*
X034460Y010957D01*
X034443Y010940D01*
X033458Y010940D01*
X029860Y014538D01*
X029860Y015268D01*
X029875Y015231D01*
X029911Y015178D01*
X029956Y015132D01*
X030010Y015096D01*
X030070Y015072D01*
X030126Y015060D01*
X030126Y015604D01*
X030204Y015604D01*
X030204Y015060D01*
X030260Y015072D01*
X030320Y015096D01*
X030374Y015132D01*
X030378Y015137D01*
X030457Y015058D01*
X030600Y014999D01*
X030754Y014999D01*
X030896Y015058D01*
X030933Y015095D01*
X030969Y015058D01*
X031112Y014999D01*
X031266Y014999D01*
X031408Y015058D01*
X031444Y015095D01*
X031481Y015058D01*
X031623Y014999D01*
X031777Y014999D01*
X031920Y015058D01*
X031952Y015091D01*
X031952Y012766D01*
X031992Y012671D01*
X033172Y011490D01*
X033172Y011345D01*
X033237Y011187D01*
X033357Y011067D01*
X033515Y011002D01*
X033685Y011002D01*
X033843Y011067D01*
X033963Y011187D01*
X034028Y011345D01*
X034028Y011515D01*
X033963Y011673D01*
X033843Y011793D01*
X033685Y011858D01*
X033540Y011858D01*
X032472Y012925D01*
X032472Y015091D01*
X032505Y015058D01*
X032647Y014999D01*
X032801Y014999D01*
X032943Y015058D01*
X032980Y015095D01*
X033017Y015058D01*
X033159Y014999D01*
X033313Y014999D01*
X033455Y015058D01*
X033492Y015095D01*
X033528Y015058D01*
X033671Y014999D01*
X033825Y014999D01*
X033967Y015058D01*
X034004Y015095D01*
X034040Y015058D01*
X034182Y014999D01*
X034336Y014999D01*
X034479Y015058D01*
X034588Y015167D01*
X034647Y015309D01*
X034647Y015382D01*
X036500Y015382D01*
X036486Y015349D02*
X034647Y015349D01*
X034622Y015251D02*
X036472Y015251D01*
X036454Y015152D02*
X034573Y015152D01*
X034468Y015054D02*
X035903Y015054D01*
X035804Y014955D02*
X032472Y014955D01*
X032472Y014857D02*
X035758Y014857D01*
X035724Y014758D02*
X032472Y014758D01*
X032472Y014660D02*
X035724Y014660D01*
X035735Y014561D02*
X032472Y014561D01*
X032472Y014463D02*
X035775Y014463D01*
X035845Y014364D02*
X032472Y014364D01*
X032472Y014266D02*
X035818Y014266D01*
X035719Y014167D02*
X032472Y014167D01*
X032472Y014069D02*
X034500Y014069D01*
X034414Y013970D02*
X032472Y013970D01*
X032472Y013872D02*
X034374Y013872D01*
X034364Y013773D02*
X032472Y013773D01*
X032472Y013675D02*
X034373Y013675D01*
X034414Y013576D02*
X032472Y013576D01*
X032472Y013478D02*
X034422Y013478D01*
X034382Y013379D02*
X032472Y013379D01*
X032472Y013281D02*
X034364Y013281D01*
X034365Y013182D02*
X032472Y013182D01*
X032472Y013084D02*
X034406Y013084D01*
X034479Y012985D02*
X032472Y012985D01*
X032511Y012887D02*
X034455Y012887D01*
X034426Y012788D02*
X032610Y012788D01*
X032708Y012690D02*
X034430Y012690D01*
X034463Y012591D02*
X032807Y012591D01*
X032905Y012493D02*
X034460Y012493D01*
X034398Y012394D02*
X033004Y012394D01*
X033102Y012296D02*
X034364Y012296D01*
X034364Y012197D02*
X033201Y012197D01*
X033299Y012099D02*
X034390Y012099D01*
X034441Y012000D02*
X033398Y012000D01*
X033496Y011902D02*
X034406Y011902D01*
X034365Y011803D02*
X033818Y011803D01*
X033931Y011705D02*
X034364Y011705D01*
X034382Y011606D02*
X033990Y011606D01*
X034028Y011508D02*
X034423Y011508D01*
X034414Y011409D02*
X034028Y011409D01*
X034014Y011311D02*
X034373Y011311D01*
X034364Y011212D02*
X033973Y011212D01*
X033889Y011114D02*
X034374Y011114D01*
X034415Y011015D02*
X033717Y011015D01*
X033483Y011015D02*
X033383Y011015D01*
X033311Y011114D02*
X033284Y011114D01*
X033227Y011212D02*
X033186Y011212D01*
X033186Y011311D02*
X033087Y011311D01*
X033172Y011409D02*
X032989Y011409D01*
X032890Y011508D02*
X033155Y011508D01*
X033056Y011606D02*
X032792Y011606D01*
X032693Y011705D02*
X032958Y011705D01*
X032859Y011803D02*
X032595Y011803D01*
X032496Y011902D02*
X032761Y011902D01*
X032662Y012000D02*
X032398Y012000D01*
X032299Y012099D02*
X032564Y012099D01*
X032465Y012197D02*
X032201Y012197D01*
X032102Y012296D02*
X032367Y012296D01*
X032268Y012394D02*
X032004Y012394D01*
X031905Y012493D02*
X032170Y012493D01*
X032071Y012591D02*
X031807Y012591D01*
X031708Y012690D02*
X031984Y012690D01*
X031952Y012788D02*
X031610Y012788D01*
X031511Y012887D02*
X031952Y012887D01*
X031952Y012985D02*
X031413Y012985D01*
X031314Y013084D02*
X031952Y013084D01*
X031952Y013182D02*
X031216Y013182D01*
X031117Y013281D02*
X031952Y013281D01*
X031952Y013379D02*
X031019Y013379D01*
X030920Y013478D02*
X031952Y013478D01*
X031952Y013576D02*
X030822Y013576D01*
X030723Y013675D02*
X031952Y013675D01*
X031952Y013773D02*
X030625Y013773D01*
X030526Y013872D02*
X031952Y013872D01*
X031952Y013970D02*
X030428Y013970D01*
X030329Y014069D02*
X031952Y014069D01*
X031952Y014167D02*
X030231Y014167D01*
X030132Y014266D02*
X031952Y014266D01*
X031952Y014364D02*
X030034Y014364D01*
X029935Y014463D02*
X031952Y014463D01*
X031952Y014561D02*
X029860Y014561D01*
X029860Y014660D02*
X031952Y014660D01*
X031952Y014758D02*
X029860Y014758D01*
X029860Y014857D02*
X031952Y014857D01*
X031952Y014955D02*
X029860Y014955D01*
X029860Y015054D02*
X030468Y015054D01*
X030204Y015152D02*
X030126Y015152D01*
X030126Y015251D02*
X030204Y015251D01*
X030204Y015349D02*
X030126Y015349D01*
X030126Y015448D02*
X030204Y015448D01*
X030204Y015546D02*
X030126Y015546D01*
X030126Y015743D02*
X030204Y015743D01*
X030204Y015842D02*
X030126Y015842D01*
X030126Y015940D02*
X030204Y015940D01*
X030204Y016039D02*
X030126Y016039D01*
X030126Y016137D02*
X030204Y016137D01*
X029941Y016137D02*
X029860Y016137D01*
X029860Y016039D02*
X029869Y016039D01*
X029860Y016236D02*
X030480Y016236D01*
X030874Y016236D02*
X030992Y016236D01*
X031386Y016236D02*
X031503Y016236D01*
X031788Y016334D02*
X029860Y016334D01*
X029860Y016433D02*
X031738Y016433D01*
X031735Y016531D02*
X029860Y016531D01*
X029860Y016630D02*
X031735Y016630D01*
X031735Y016728D02*
X029860Y016728D01*
X029860Y016827D02*
X031735Y016827D01*
X031735Y016925D02*
X029860Y016925D01*
X029860Y017024D02*
X031735Y017024D01*
X031744Y017122D02*
X029860Y017122D01*
X029860Y017221D02*
X031802Y017221D01*
X031824Y017418D02*
X029706Y017418D01*
X029824Y017319D02*
X033093Y017319D01*
X033200Y017580D02*
X033450Y017330D01*
X034750Y017330D01*
X035100Y016980D01*
X034700Y016827D02*
X034665Y016827D01*
X034665Y016925D02*
X034672Y016925D01*
X034665Y017024D02*
X034672Y017024D01*
X034665Y016728D02*
X034747Y016728D01*
X034665Y016630D02*
X034845Y016630D01*
X034100Y016770D02*
X033748Y016418D01*
X033748Y015642D01*
X033236Y015642D02*
X033200Y015678D01*
X033200Y016770D01*
X032724Y016046D02*
X032300Y016770D01*
X032015Y016236D02*
X031897Y016236D01*
X032724Y016046D02*
X032724Y015642D01*
X032212Y015642D02*
X032212Y012818D01*
X033600Y011430D01*
X033350Y010680D02*
X034986Y010680D01*
X035007Y010701D01*
X035750Y010430D02*
X036000Y010180D01*
X046600Y010180D01*
X047600Y011180D01*
X046600Y011180D02*
X047600Y012180D01*
X048400Y013130D02*
X049150Y012380D01*
X049150Y011080D01*
X043250Y005180D01*
X034600Y005180D01*
X027543Y012237D01*
X023590Y012237D01*
X023590Y011725D02*
X027305Y011725D01*
X034100Y004930D01*
X043350Y004930D01*
X049350Y010930D01*
X049350Y012680D01*
X048700Y013330D01*
X047200Y013330D01*
X045850Y014680D01*
X044100Y014680D01*
X043600Y015180D01*
X043600Y015480D01*
X043750Y015630D01*
X043150Y015630D01*
X042350Y016430D01*
X042350Y017102D01*
X042341Y017111D01*
X042090Y016803D02*
X042090Y016378D01*
X042098Y016358D01*
X042045Y016358D01*
X041941Y016462D01*
X041941Y016774D01*
X041806Y016908D01*
X040367Y016908D01*
X040367Y018312D01*
X040732Y018690D01*
X041896Y018690D01*
X041896Y018686D01*
X041896Y018605D01*
X041836Y018545D01*
X041836Y016938D01*
X041970Y016803D01*
X042090Y016803D01*
X042090Y016728D02*
X041941Y016728D01*
X041941Y016630D02*
X042090Y016630D01*
X042090Y016531D02*
X041941Y016531D01*
X041970Y016433D02*
X042090Y016433D01*
X041947Y016827D02*
X041888Y016827D01*
X041848Y016925D02*
X040367Y016925D01*
X040367Y017024D02*
X041836Y017024D01*
X041836Y017122D02*
X040367Y017122D01*
X040367Y017221D02*
X041836Y017221D01*
X041836Y017319D02*
X040367Y017319D01*
X040367Y017418D02*
X041836Y017418D01*
X041836Y017516D02*
X040367Y017516D01*
X040367Y017615D02*
X041836Y017615D01*
X041836Y017713D02*
X040367Y017713D01*
X040367Y017812D02*
X041836Y017812D01*
X041836Y017910D02*
X040367Y017910D01*
X040367Y018009D02*
X041836Y018009D01*
X041836Y018107D02*
X040367Y018107D01*
X040367Y018206D02*
X041836Y018206D01*
X041836Y018304D02*
X040367Y018304D01*
X040454Y018403D02*
X041836Y018403D01*
X041836Y018501D02*
X040549Y018501D01*
X040644Y018600D02*
X041890Y018600D01*
X041896Y018686D02*
X042341Y018686D01*
X042341Y018686D01*
X042786Y018686D01*
X042786Y018631D01*
X043407Y018631D01*
X043568Y018770D01*
X043568Y019187D01*
X043440Y019060D01*
X043440Y018944D01*
X043396Y018837D01*
X043314Y018755D01*
X043208Y018711D01*
X042786Y018711D01*
X042786Y018686D01*
X042341Y018686D01*
X042341Y018686D01*
X041896Y018686D01*
X042341Y018371D02*
X043504Y018371D01*
X044250Y019017D01*
X044000Y018829D01*
X045399Y018730D01*
X045924Y018698D02*
X046451Y018698D01*
X046451Y018680D02*
X046036Y018680D01*
X046036Y018383D01*
X046049Y018337D01*
X046072Y018296D01*
X046106Y018262D01*
X046148Y018238D01*
X046194Y018226D01*
X046451Y018226D01*
X046451Y018680D01*
X046451Y018780D01*
X046036Y018780D01*
X046036Y019077D01*
X046049Y019123D01*
X046072Y019164D01*
X046106Y019198D01*
X046148Y019222D01*
X046194Y019234D01*
X046451Y019234D01*
X046451Y018780D01*
X046551Y018780D01*
X046551Y019234D01*
X046809Y019234D01*
X046855Y019222D01*
X046896Y019198D01*
X046930Y019164D01*
X046954Y019123D01*
X046966Y019077D01*
X046966Y018780D01*
X046551Y018780D01*
X046551Y018680D01*
X046551Y018226D01*
X046809Y018226D01*
X046855Y018238D01*
X046896Y018262D01*
X046930Y018296D01*
X046954Y018337D01*
X046966Y018383D01*
X046966Y018680D01*
X046551Y018680D01*
X046451Y018680D01*
X046501Y018730D02*
X046501Y017680D01*
X046451Y017713D02*
X045924Y017713D01*
X045924Y017615D02*
X046036Y017615D01*
X046036Y017630D02*
X046036Y017333D01*
X046049Y017287D01*
X046072Y017246D01*
X046106Y017212D01*
X046148Y017188D01*
X046194Y017176D01*
X046451Y017176D01*
X046451Y017630D01*
X046036Y017630D01*
X046036Y017730D02*
X046451Y017730D01*
X046451Y017630D01*
X046551Y017630D01*
X046551Y017176D01*
X046809Y017176D01*
X046855Y017188D01*
X046896Y017212D01*
X046930Y017246D01*
X046954Y017287D01*
X046966Y017333D01*
X046966Y017630D01*
X046551Y017630D01*
X046551Y017730D01*
X046451Y017730D01*
X046451Y018184D01*
X046194Y018184D01*
X046148Y018172D01*
X046106Y018148D01*
X046072Y018114D01*
X046049Y018073D01*
X046036Y018027D01*
X046036Y017730D01*
X046036Y017812D02*
X045924Y017812D01*
X045924Y017910D02*
X046036Y017910D01*
X046036Y018009D02*
X045924Y018009D01*
X045924Y018051D02*
X045887Y018140D01*
X045822Y018205D01*
X045887Y018270D01*
X045924Y018359D01*
X045924Y019101D01*
X045887Y019190D01*
X045819Y019258D01*
X045730Y019294D01*
X045067Y019294D01*
X044979Y019258D01*
X044932Y019211D01*
X044932Y019390D01*
X048193Y019390D01*
X048193Y019112D01*
X048165Y019166D01*
X048123Y019223D01*
X048073Y019273D01*
X048016Y019315D01*
X047953Y019347D01*
X047885Y019369D01*
X047815Y019380D01*
X047650Y019380D01*
X047650Y018980D01*
X048193Y018980D01*
X048193Y018915D01*
X048207Y018880D01*
X047650Y018880D01*
X047650Y018980D01*
X047550Y018980D01*
X047550Y019380D01*
X047385Y019380D01*
X047315Y019369D01*
X047247Y019347D01*
X047184Y019315D01*
X047127Y019273D01*
X047077Y019223D01*
X047035Y019166D01*
X047003Y019103D01*
X046981Y019035D01*
X046972Y018980D01*
X047550Y018980D01*
X047550Y018880D01*
X047650Y018880D01*
X047650Y018480D01*
X047815Y018480D01*
X047885Y018491D01*
X047953Y018513D01*
X048016Y018545D01*
X048073Y018587D01*
X048123Y018637D01*
X048165Y018694D01*
X048197Y018757D01*
X048219Y018825D01*
X048222Y018844D01*
X048229Y018826D01*
X048297Y018758D01*
X048386Y018721D01*
X049129Y018721D01*
X049218Y018758D01*
X049286Y018826D01*
X049322Y018915D01*
X049322Y019390D01*
X049785Y019390D01*
X049857Y019317D01*
X050015Y019252D01*
X050185Y019252D01*
X050340Y019316D01*
X050340Y018386D01*
X049322Y018386D01*
X049322Y018458D01*
X049286Y018547D01*
X049218Y018615D01*
X049129Y018651D01*
X048386Y018651D01*
X048297Y018615D01*
X048229Y018547D01*
X048193Y018458D01*
X048193Y018239D01*
X048069Y018362D01*
X047881Y018440D01*
X047319Y018440D01*
X047131Y018362D01*
X046988Y018219D01*
X046938Y018100D01*
X046930Y018114D01*
X046896Y018148D01*
X046855Y018172D01*
X046809Y018184D01*
X046551Y018184D01*
X046551Y017730D01*
X046951Y017730D01*
X046988Y017641D01*
X047131Y017498D01*
X047294Y017430D01*
X047131Y017362D01*
X046988Y017219D01*
X046915Y017044D01*
X046789Y017170D01*
X046011Y017170D01*
X045875Y017034D01*
X045875Y016940D01*
X044887Y016940D01*
X044894Y016947D01*
X044932Y017039D01*
X044932Y017199D01*
X044979Y017152D01*
X045067Y017116D01*
X045730Y017116D01*
X045819Y017152D01*
X045887Y017220D01*
X045924Y017309D01*
X045924Y018051D01*
X045901Y018107D02*
X046068Y018107D01*
X046068Y018304D02*
X045901Y018304D01*
X045924Y018403D02*
X046036Y018403D01*
X046036Y018501D02*
X045924Y018501D01*
X045924Y018600D02*
X046036Y018600D01*
X046036Y018797D02*
X045924Y018797D01*
X045924Y018895D02*
X046036Y018895D01*
X046036Y018994D02*
X045924Y018994D01*
X045924Y019092D02*
X046040Y019092D01*
X046099Y019191D02*
X045886Y019191D01*
X045743Y019289D02*
X047149Y019289D01*
X047053Y019191D02*
X046904Y019191D01*
X046962Y019092D02*
X046999Y019092D01*
X046974Y018994D02*
X046966Y018994D01*
X046966Y018895D02*
X047550Y018895D01*
X047550Y018880D02*
X046972Y018880D01*
X046981Y018825D01*
X047003Y018757D01*
X047035Y018694D01*
X047077Y018637D01*
X047127Y018587D01*
X047184Y018545D01*
X047247Y018513D01*
X047315Y018491D01*
X047385Y018480D01*
X047550Y018480D01*
X047550Y018880D01*
X047550Y018797D02*
X047650Y018797D01*
X047650Y018895D02*
X048201Y018895D01*
X048210Y018797D02*
X048259Y018797D01*
X048167Y018698D02*
X050340Y018698D01*
X050340Y018600D02*
X049233Y018600D01*
X049305Y018501D02*
X050340Y018501D01*
X050340Y018403D02*
X049322Y018403D01*
X049256Y018797D02*
X050340Y018797D01*
X050340Y018895D02*
X049314Y018895D01*
X049322Y018994D02*
X050340Y018994D01*
X050340Y019092D02*
X049322Y019092D01*
X049322Y019191D02*
X050340Y019191D01*
X050340Y019289D02*
X050275Y019289D01*
X049925Y019289D02*
X049322Y019289D01*
X049322Y019388D02*
X049787Y019388D01*
X048193Y019388D02*
X044932Y019388D01*
X044932Y019289D02*
X045055Y019289D01*
X046451Y019191D02*
X046551Y019191D01*
X046551Y019092D02*
X046451Y019092D01*
X046451Y018994D02*
X046551Y018994D01*
X046551Y018895D02*
X046451Y018895D01*
X046451Y018797D02*
X046551Y018797D01*
X046551Y018698D02*
X047033Y018698D01*
X046990Y018797D02*
X046966Y018797D01*
X046966Y018600D02*
X047114Y018600D01*
X046966Y018501D02*
X047284Y018501D01*
X047228Y018403D02*
X046966Y018403D01*
X046935Y018304D02*
X047073Y018304D01*
X046982Y018206D02*
X045822Y018206D01*
X046451Y018304D02*
X046551Y018304D01*
X046551Y018403D02*
X046451Y018403D01*
X046451Y018501D02*
X046551Y018501D01*
X046551Y018600D02*
X046451Y018600D01*
X046451Y018107D02*
X046551Y018107D01*
X046551Y018009D02*
X046451Y018009D01*
X046451Y017910D02*
X046551Y017910D01*
X046551Y017812D02*
X046451Y017812D01*
X046551Y017713D02*
X046958Y017713D01*
X046966Y017615D02*
X047014Y017615D01*
X046966Y017516D02*
X047113Y017516D01*
X046966Y017418D02*
X047264Y017418D01*
X047088Y017319D02*
X046962Y017319D01*
X046989Y017221D02*
X046905Y017221D01*
X046948Y017122D02*
X046836Y017122D01*
X046551Y017221D02*
X046451Y017221D01*
X046451Y017319D02*
X046551Y017319D01*
X046551Y017418D02*
X046451Y017418D01*
X046451Y017516D02*
X046551Y017516D01*
X046551Y017615D02*
X046451Y017615D01*
X046036Y017516D02*
X045924Y017516D01*
X045924Y017418D02*
X046036Y017418D01*
X046040Y017319D02*
X045924Y017319D01*
X045887Y017221D02*
X046098Y017221D01*
X045964Y017122D02*
X045746Y017122D01*
X045875Y017024D02*
X044926Y017024D01*
X044932Y017122D02*
X045052Y017122D01*
X045399Y017680D02*
X044250Y017443D01*
X043486Y018056D01*
X042341Y018056D01*
X042341Y017741D02*
X043039Y017741D01*
X043350Y017430D01*
X043350Y016930D01*
X043600Y016680D01*
X046350Y016680D01*
X046400Y016730D01*
X046400Y016130D02*
X047300Y016130D01*
X047600Y015930D01*
X046400Y015530D02*
X045750Y015530D01*
X044950Y015630D02*
X044950Y015980D01*
X044500Y016430D01*
X043100Y016430D01*
X043100Y017180D01*
X042854Y017426D01*
X042341Y017426D01*
X041632Y016403D02*
X042100Y015935D01*
X042100Y015930D01*
X042350Y015930D01*
X043800Y014480D01*
X045750Y014480D01*
X047100Y013130D01*
X048400Y013130D01*
X048793Y013923D02*
X048793Y013930D01*
X047600Y013930D01*
X047600Y014930D02*
X044350Y014930D01*
X044350Y015630D01*
X043150Y014682D02*
X042350Y014680D01*
X043150Y014682D02*
X043935Y013897D01*
X043469Y013872D02*
X043401Y013872D01*
X043401Y013970D02*
X043469Y013970D01*
X043469Y013995D02*
X043469Y013490D01*
X043607Y013352D01*
X044263Y013352D01*
X044401Y013490D01*
X044401Y014220D01*
X044469Y014220D01*
X044469Y013490D01*
X044590Y013369D01*
X044590Y012025D01*
X044487Y011923D01*
X044422Y011765D01*
X044422Y011595D01*
X044486Y011440D01*
X039838Y011440D01*
X039857Y011465D01*
X039886Y011523D01*
X039906Y011584D01*
X039916Y011648D01*
X039916Y011650D01*
X039380Y011650D01*
X039380Y011710D01*
X039320Y011710D01*
X039320Y012090D01*
X039162Y012090D01*
X039098Y012080D01*
X039037Y012060D01*
X038979Y012031D01*
X038927Y011993D01*
X038881Y011947D01*
X038843Y011895D01*
X038814Y011837D01*
X038794Y011776D01*
X038784Y011712D01*
X038784Y011710D01*
X039320Y011710D01*
X039320Y011650D01*
X038784Y011650D01*
X038784Y011648D01*
X038794Y011584D01*
X038814Y011523D01*
X038843Y011465D01*
X038862Y011440D01*
X036838Y011440D01*
X036857Y011465D01*
X036886Y011523D01*
X036906Y011584D01*
X036916Y011648D01*
X036916Y011650D01*
X036380Y011650D01*
X036380Y011710D01*
X036320Y011710D01*
X036320Y012090D01*
X036162Y012090D01*
X036098Y012080D01*
X036037Y012060D01*
X035979Y012031D01*
X035927Y011993D01*
X035881Y011947D01*
X035843Y011895D01*
X035814Y011837D01*
X035813Y011835D01*
X035702Y011945D01*
X035607Y011985D01*
X035559Y011985D01*
X035592Y012017D01*
X035651Y012160D01*
X035651Y012314D01*
X035592Y012456D01*
X035513Y012535D01*
X035518Y012540D01*
X035553Y012594D01*
X035578Y012653D01*
X035589Y012710D01*
X035046Y012710D01*
X035046Y012787D01*
X035589Y012787D01*
X035578Y012844D01*
X035553Y012903D01*
X035518Y012957D01*
X035513Y012962D01*
X035592Y013041D01*
X035601Y013063D01*
X035747Y013210D01*
X035820Y013283D01*
X035852Y013358D01*
X035928Y013282D01*
X036101Y013210D01*
X036599Y013210D01*
X036772Y013282D01*
X036904Y013414D01*
X036907Y013420D01*
X037302Y013420D01*
X037397Y013460D01*
X038440Y014502D01*
X038440Y013875D01*
X038337Y013773D01*
X038272Y013615D01*
X038272Y013445D01*
X038337Y013287D01*
X038347Y013278D01*
X037900Y013278D01*
X037900Y012961D01*
X038591Y012961D01*
X038591Y013112D01*
X038615Y013102D01*
X038785Y013102D01*
X038943Y013167D01*
X039063Y013287D01*
X039128Y013445D01*
X039128Y013559D01*
X039265Y013502D01*
X039435Y013502D01*
X039593Y013567D01*
X039695Y013670D01*
X042469Y013670D01*
X042469Y013490D01*
X042607Y013352D01*
X043263Y013352D01*
X043401Y013490D01*
X043401Y014063D01*
X043469Y013995D01*
X043469Y013773D02*
X043401Y013773D01*
X043401Y013675D02*
X043469Y013675D01*
X043469Y013576D02*
X043401Y013576D01*
X043389Y013478D02*
X043481Y013478D01*
X043580Y013379D02*
X043290Y013379D01*
X042935Y013897D02*
X042902Y013930D01*
X039350Y013930D01*
X039601Y013576D02*
X042469Y013576D01*
X042481Y013478D02*
X039128Y013478D01*
X039101Y013379D02*
X042580Y013379D01*
X041823Y013124D02*
X041680Y013266D01*
X041494Y013343D01*
X041293Y013343D01*
X041107Y013266D01*
X040965Y013124D01*
X040888Y012938D01*
X040888Y012737D01*
X040965Y012551D01*
X041107Y012409D01*
X041293Y012332D01*
X041494Y012332D01*
X041680Y012409D01*
X041823Y012551D01*
X041900Y012737D01*
X041900Y012938D01*
X041823Y013124D01*
X041839Y013084D02*
X044590Y013084D01*
X044590Y013182D02*
X041765Y013182D01*
X041646Y013281D02*
X044590Y013281D01*
X044580Y013379D02*
X044290Y013379D01*
X044389Y013478D02*
X044481Y013478D01*
X044469Y013576D02*
X044401Y013576D01*
X044401Y013675D02*
X044469Y013675D01*
X044469Y013773D02*
X044401Y013773D01*
X044401Y013872D02*
X044469Y013872D01*
X044469Y013970D02*
X044401Y013970D01*
X044401Y014069D02*
X044469Y014069D01*
X044469Y014167D02*
X044401Y014167D01*
X044850Y013811D02*
X044935Y013897D01*
X044850Y013811D02*
X044850Y011680D01*
X044458Y011508D02*
X039878Y011508D01*
X039909Y011606D02*
X044422Y011606D01*
X044422Y011705D02*
X039380Y011705D01*
X039380Y011710D02*
X039916Y011710D01*
X039916Y011712D01*
X039906Y011776D01*
X039886Y011837D01*
X039857Y011895D01*
X039819Y011947D01*
X039773Y011993D01*
X039721Y012031D01*
X039663Y012060D01*
X039602Y012080D01*
X039538Y012090D01*
X039380Y012090D01*
X039380Y011710D01*
X039320Y011705D02*
X036380Y011705D01*
X036380Y011710D02*
X036916Y011710D01*
X036916Y011712D01*
X036906Y011776D01*
X036886Y011837D01*
X036857Y011895D01*
X036819Y011947D01*
X036773Y011993D01*
X036721Y012031D01*
X036663Y012060D01*
X036602Y012080D01*
X036538Y012090D01*
X036380Y012090D01*
X036380Y011710D01*
X036380Y011803D02*
X036320Y011803D01*
X036320Y011902D02*
X036380Y011902D01*
X036380Y012000D02*
X036320Y012000D01*
X036320Y012270D02*
X036320Y012650D01*
X036380Y012650D01*
X036380Y012710D01*
X036320Y012710D01*
X036320Y013090D01*
X036162Y013090D01*
X036098Y013080D01*
X036037Y013060D01*
X035979Y013031D01*
X035927Y012993D01*
X035881Y012947D01*
X035843Y012895D01*
X035814Y012837D01*
X035794Y012776D01*
X035784Y012712D01*
X035784Y012710D01*
X036320Y012710D01*
X036320Y012650D01*
X035784Y012650D01*
X035784Y012648D01*
X035794Y012584D01*
X035814Y012523D01*
X035843Y012465D01*
X035881Y012413D01*
X035927Y012367D01*
X035979Y012329D01*
X036037Y012300D01*
X036098Y012280D01*
X036162Y012270D01*
X036320Y012270D01*
X036320Y012296D02*
X036380Y012296D01*
X036380Y012270D02*
X036538Y012270D01*
X036602Y012280D01*
X036663Y012300D01*
X036721Y012329D01*
X036773Y012367D01*
X036819Y012413D01*
X036857Y012465D01*
X036886Y012523D01*
X036906Y012584D01*
X036916Y012648D01*
X036916Y012650D01*
X036380Y012650D01*
X036380Y012270D01*
X036380Y012394D02*
X036320Y012394D01*
X036320Y012493D02*
X036380Y012493D01*
X036380Y012591D02*
X036320Y012591D01*
X036320Y012690D02*
X035585Y012690D01*
X035589Y012788D02*
X035798Y012788D01*
X035839Y012887D02*
X035560Y012887D01*
X035536Y012985D02*
X035919Y012985D01*
X036121Y013084D02*
X035621Y013084D01*
X035720Y013182D02*
X037127Y013182D01*
X037121Y013172D02*
X037109Y013129D01*
X037109Y012961D01*
X037800Y012961D01*
X037800Y012861D01*
X037900Y012861D01*
X037900Y012545D01*
X038441Y012545D01*
X038485Y012556D01*
X038524Y012579D01*
X038556Y012611D01*
X038579Y012650D01*
X038591Y012694D01*
X038591Y012861D01*
X037900Y012861D01*
X037900Y012961D01*
X037800Y012961D01*
X037800Y013278D01*
X037259Y013278D01*
X037215Y013266D01*
X037176Y013243D01*
X037144Y013211D01*
X037121Y013172D01*
X037109Y013084D02*
X036579Y013084D01*
X036602Y013080D02*
X036538Y013090D01*
X036380Y013090D01*
X036380Y012710D01*
X036916Y012710D01*
X036916Y012712D01*
X036906Y012776D01*
X036886Y012837D01*
X036857Y012895D01*
X036819Y012947D01*
X036773Y012993D01*
X036721Y013031D01*
X036663Y013060D01*
X036602Y013080D01*
X036781Y012985D02*
X037109Y012985D01*
X037109Y012861D02*
X037109Y012694D01*
X037121Y012650D01*
X037144Y012611D01*
X037176Y012579D01*
X037215Y012556D01*
X037259Y012545D01*
X037800Y012545D01*
X037800Y012861D01*
X037109Y012861D01*
X037109Y012788D02*
X036902Y012788D01*
X036861Y012887D02*
X037800Y012887D01*
X037800Y012985D02*
X037900Y012985D01*
X037900Y012887D02*
X040888Y012887D01*
X040888Y012788D02*
X038591Y012788D01*
X038589Y012690D02*
X040907Y012690D01*
X040948Y012591D02*
X038536Y012591D01*
X037900Y012591D02*
X037800Y012591D01*
X037800Y012690D02*
X037900Y012690D01*
X037900Y012788D02*
X037800Y012788D01*
X037800Y013084D02*
X037900Y013084D01*
X037900Y013182D02*
X037800Y013182D01*
X037415Y013478D02*
X038272Y013478D01*
X038272Y013576D02*
X037514Y013576D01*
X037612Y013675D02*
X038296Y013675D01*
X038338Y013773D02*
X037711Y013773D01*
X037809Y013872D02*
X038436Y013872D01*
X038440Y013970D02*
X037908Y013970D01*
X038006Y014069D02*
X038440Y014069D01*
X038440Y014167D02*
X038105Y014167D01*
X038203Y014266D02*
X038440Y014266D01*
X038440Y014364D02*
X038302Y014364D01*
X038400Y014463D02*
X038440Y014463D01*
X038700Y014780D02*
X038700Y013530D01*
X038299Y013379D02*
X036870Y013379D01*
X036770Y013281D02*
X038344Y013281D01*
X038591Y013084D02*
X040948Y013084D01*
X040907Y012985D02*
X038591Y012985D01*
X038957Y013182D02*
X041023Y013182D01*
X041141Y013281D02*
X039056Y013281D01*
X037250Y013680D02*
X038798Y015228D01*
X038798Y016403D01*
X039113Y016403D02*
X039113Y015193D01*
X038700Y014780D01*
X038483Y015313D02*
X037350Y014180D01*
X036100Y014180D01*
X035600Y013680D01*
X035600Y013430D01*
X035430Y013260D01*
X035007Y013260D01*
X035818Y013281D02*
X035930Y013281D01*
X036320Y013084D02*
X036380Y013084D01*
X036380Y012985D02*
X036320Y012985D01*
X036320Y012887D02*
X036380Y012887D01*
X036380Y012788D02*
X036320Y012788D01*
X036380Y012690D02*
X037111Y012690D01*
X037164Y012591D02*
X036907Y012591D01*
X036871Y012493D02*
X041023Y012493D01*
X041142Y012394D02*
X036800Y012394D01*
X036650Y012296D02*
X044590Y012296D01*
X044590Y012394D02*
X041645Y012394D01*
X041764Y012493D02*
X044590Y012493D01*
X044590Y012591D02*
X041839Y012591D01*
X041880Y012690D02*
X044590Y012690D01*
X044590Y012788D02*
X041900Y012788D01*
X041900Y012887D02*
X044590Y012887D01*
X044590Y012985D02*
X041880Y012985D01*
X039763Y012000D02*
X044565Y012000D01*
X044590Y012099D02*
X035625Y012099D01*
X035651Y012197D02*
X044590Y012197D01*
X044478Y011902D02*
X039852Y011902D01*
X039897Y011803D02*
X044438Y011803D01*
X046600Y011180D02*
X036100Y011180D01*
X035555Y011725D01*
X035007Y011725D01*
X035574Y012000D02*
X035937Y012000D01*
X035848Y011902D02*
X035746Y011902D01*
X035651Y012296D02*
X036050Y012296D01*
X035900Y012394D02*
X035617Y012394D01*
X035555Y012493D02*
X035829Y012493D01*
X035793Y012591D02*
X035552Y012591D01*
X035076Y012680D02*
X035007Y012749D01*
X036763Y012000D02*
X038937Y012000D01*
X038848Y011902D02*
X036852Y011902D01*
X036897Y011803D02*
X038803Y011803D01*
X038791Y011606D02*
X036909Y011606D01*
X036878Y011508D02*
X038822Y011508D01*
X039320Y011803D02*
X039380Y011803D01*
X039380Y011902D02*
X039320Y011902D01*
X039320Y012000D02*
X039380Y012000D01*
X037250Y013680D02*
X036350Y013680D01*
X035621Y014069D02*
X035515Y014069D01*
X036350Y014680D02*
X036900Y015230D01*
X038483Y015313D02*
X038483Y016403D01*
X038227Y016827D02*
X038168Y016827D01*
X038267Y016925D02*
X039747Y016925D01*
X039747Y017024D02*
X038279Y017024D01*
X038279Y017122D02*
X039747Y017122D01*
X039747Y017221D02*
X038279Y017221D01*
X038279Y017319D02*
X039747Y017319D01*
X039743Y016827D02*
X039743Y016827D01*
X039743Y016728D02*
X039743Y016728D01*
X039743Y016630D02*
X039743Y016630D01*
X039743Y016531D02*
X039743Y016531D01*
X039743Y016433D02*
X039743Y016433D01*
X039743Y016334D02*
X039743Y016334D01*
X039743Y016236D02*
X039743Y016236D01*
X039743Y016137D02*
X039743Y016137D01*
X039743Y016039D02*
X039743Y016039D01*
X039747Y015940D02*
X039644Y015940D01*
X039649Y015842D02*
X039549Y015842D01*
X039549Y015743D02*
X039649Y015743D01*
X039649Y015645D02*
X039549Y015645D01*
X039549Y015546D02*
X039649Y015546D01*
X039649Y015448D02*
X040176Y015448D01*
X040162Y015349D02*
X040064Y015349D01*
X040064Y015546D02*
X040083Y015546D01*
X035890Y017319D02*
X035366Y017319D01*
X033200Y017580D02*
X033200Y017890D01*
X032799Y018403D02*
X032701Y018403D01*
X032944Y018698D02*
X031912Y018698D01*
X032010Y018797D02*
X032845Y018797D01*
X032747Y018895D02*
X032058Y018895D01*
X032215Y018994D02*
X032648Y018994D01*
X032550Y019092D02*
X032289Y019092D01*
X032312Y019191D02*
X032451Y019191D01*
X032353Y019289D02*
X032312Y019289D01*
X032934Y019585D02*
X033448Y019585D01*
X033448Y019486D02*
X033032Y019486D01*
X033131Y019388D02*
X033448Y019388D01*
X033448Y019289D02*
X033229Y019289D01*
X033328Y019191D02*
X033448Y019191D01*
X033042Y018600D02*
X031714Y018600D01*
X031899Y018403D02*
X028339Y018403D01*
X028339Y018304D02*
X030634Y018304D01*
X030520Y018206D02*
X028339Y018206D01*
X028339Y018107D02*
X030460Y018107D01*
X030422Y018009D02*
X028339Y018009D01*
X028339Y017910D02*
X030422Y017910D01*
X030436Y017812D02*
X028339Y017812D01*
X028294Y017713D02*
X030476Y017713D01*
X030560Y017615D02*
X023228Y017615D01*
X023326Y017713D02*
X026625Y017713D01*
X026580Y017812D02*
X023425Y017812D01*
X023523Y017910D02*
X026580Y017910D01*
X026580Y018009D02*
X023622Y018009D01*
X023720Y018107D02*
X026580Y018107D01*
X026580Y018206D02*
X023819Y018206D01*
X023917Y018304D02*
X026580Y018304D01*
X026580Y018403D02*
X024016Y018403D01*
X024114Y018501D02*
X026592Y018501D01*
X023994Y017418D02*
X023031Y017418D01*
X023129Y017516D02*
X030731Y017516D01*
X030969Y017516D02*
X031753Y017516D01*
X031735Y017615D02*
X031140Y017615D01*
X030850Y017930D02*
X032260Y017930D01*
X032300Y017890D01*
X031735Y018206D02*
X031180Y018206D01*
X031066Y018304D02*
X031769Y018304D01*
X033601Y018403D02*
X033699Y018403D01*
X034752Y019191D02*
X037072Y019191D01*
X036973Y019289D02*
X036564Y019289D01*
X036300Y019630D02*
X037000Y019630D01*
X037300Y019330D01*
X037750Y019330D01*
X037764Y019316D01*
X037774Y019316D01*
X037774Y019631D02*
X037349Y019631D01*
X036900Y020080D01*
X036750Y020080D01*
X036900Y020480D02*
X037434Y019946D01*
X037774Y019946D01*
X038798Y020970D02*
X038850Y021022D01*
X040372Y020970D02*
X040372Y021558D01*
X041317Y020970D02*
X041317Y020363D01*
X041400Y020280D01*
X041650Y020280D01*
X042050Y020680D01*
X041632Y020970D02*
X042840Y020970D01*
X043700Y022030D01*
X042244Y022441D02*
X042156Y022441D01*
X042197Y022343D02*
X042203Y022343D01*
X042308Y022540D02*
X042092Y022540D01*
X041993Y022638D02*
X042407Y022638D01*
X041407Y022638D02*
X040993Y022638D01*
X041092Y022540D02*
X041308Y022540D01*
X041244Y022441D02*
X041156Y022441D01*
X041197Y022343D02*
X041203Y022343D01*
X040407Y022638D02*
X039993Y022638D01*
X040092Y022540D02*
X040308Y022540D01*
X040244Y022441D02*
X040156Y022441D01*
X040197Y022343D02*
X040203Y022343D01*
X043472Y019092D02*
X043568Y019092D01*
X043568Y018994D02*
X043440Y018994D01*
X043420Y018895D02*
X043568Y018895D01*
X043568Y018797D02*
X043355Y018797D01*
X043484Y018698D02*
X042786Y018698D01*
X046934Y018107D02*
X046941Y018107D01*
X047550Y018501D02*
X047650Y018501D01*
X047650Y018600D02*
X047550Y018600D01*
X047550Y018698D02*
X047650Y018698D01*
X047916Y018501D02*
X048210Y018501D01*
X048193Y018403D02*
X047972Y018403D01*
X048127Y018304D02*
X048193Y018304D01*
X048282Y018600D02*
X048086Y018600D01*
X047650Y018994D02*
X047550Y018994D01*
X047550Y019092D02*
X047650Y019092D01*
X047650Y019191D02*
X047550Y019191D01*
X047550Y019289D02*
X047650Y019289D01*
X048051Y019289D02*
X048193Y019289D01*
X048193Y019191D02*
X048147Y019191D01*
X034051Y015054D02*
X033956Y015054D01*
X033539Y015054D02*
X033444Y015054D01*
X033027Y015054D02*
X032932Y015054D01*
X032516Y015054D02*
X032472Y015054D01*
X031952Y015054D02*
X031909Y015054D01*
X031492Y015054D02*
X031397Y015054D01*
X030980Y015054D02*
X030885Y015054D01*
X029937Y015152D02*
X029860Y015152D01*
X029860Y015251D02*
X029867Y015251D01*
X029600Y014430D02*
X033350Y010680D01*
X033350Y010180D02*
X034998Y010180D01*
X035007Y010189D01*
X035750Y010430D02*
X035750Y011030D01*
X035567Y011213D01*
X035007Y011213D01*
X033350Y010180D02*
X029300Y014230D01*
X029300Y016780D01*
X024200Y016780D01*
X023400Y015980D01*
X023400Y014880D01*
X022200Y013680D01*
X021110Y013675D02*
X021078Y013675D01*
X021075Y013773D02*
X021110Y013773D01*
X021110Y013872D02*
X021034Y013872D01*
X020965Y013970D02*
X021110Y013970D01*
X021110Y014069D02*
X020831Y014069D01*
X021110Y014167D02*
X019100Y014167D01*
X019100Y014069D02*
X020469Y014069D01*
X020335Y013970D02*
X019100Y013970D01*
X019100Y014266D02*
X021110Y014266D01*
X021110Y014364D02*
X020764Y014364D01*
X020938Y014463D02*
X021110Y014463D01*
X021110Y014561D02*
X021023Y014561D01*
X021063Y014660D02*
X021110Y014660D01*
X021110Y014758D02*
X021078Y014758D01*
X021078Y014857D02*
X021110Y014857D01*
X021110Y014955D02*
X021041Y014955D01*
X020982Y015054D02*
X021110Y015054D01*
X021110Y015152D02*
X020871Y015152D01*
X021110Y015251D02*
X019100Y015251D01*
X019100Y015349D02*
X021110Y015349D01*
X021110Y015448D02*
X019100Y015448D01*
X019100Y015546D02*
X021110Y015546D01*
X021110Y015645D02*
X019100Y015645D01*
X019100Y015743D02*
X021110Y015743D01*
X021110Y015842D02*
X019100Y015842D01*
X019100Y015940D02*
X021110Y015940D01*
X021110Y016039D02*
X019100Y016039D01*
X019100Y016137D02*
X021110Y016137D01*
X021110Y016236D02*
X019100Y016236D01*
X019100Y016334D02*
X021110Y016334D01*
X021110Y016433D02*
X019100Y016433D01*
X019100Y016531D02*
X021110Y016531D01*
X021110Y016630D02*
X019100Y016630D01*
X019100Y016728D02*
X021110Y016728D01*
X021130Y016827D02*
X019100Y016827D01*
X019100Y016925D02*
X021171Y016925D01*
X021251Y017024D02*
X019100Y017024D01*
X019100Y017122D02*
X021349Y017122D01*
X021448Y017221D02*
X019100Y017221D01*
X019100Y017319D02*
X021546Y017319D01*
X021645Y017418D02*
X019100Y017418D01*
X019100Y017516D02*
X021743Y017516D01*
X021842Y017615D02*
X019100Y017615D01*
X019100Y017713D02*
X021940Y017713D01*
X022039Y017812D02*
X019100Y017812D01*
X019100Y017910D02*
X021969Y017910D01*
X021871Y018009D02*
X019100Y018009D01*
X019100Y018107D02*
X021772Y018107D01*
X021674Y018206D02*
X019100Y018206D01*
X019100Y018304D02*
X021575Y018304D01*
X021477Y018403D02*
X019100Y018403D01*
X019100Y018501D02*
X021378Y018501D01*
X021280Y018600D02*
X019100Y018600D01*
X019100Y018698D02*
X021181Y018698D01*
X021083Y018797D02*
X019100Y018797D01*
X019100Y018895D02*
X020984Y018895D01*
X020886Y018994D02*
X019100Y018994D01*
X021694Y019486D02*
X023713Y019486D01*
X023615Y019388D02*
X021793Y019388D01*
X021891Y019289D02*
X023516Y019289D01*
X023418Y019191D02*
X021990Y019191D01*
X022088Y019092D02*
X023319Y019092D01*
X023221Y018994D02*
X022187Y018994D01*
X022285Y018895D02*
X023122Y018895D01*
X023024Y018797D02*
X022384Y018797D01*
X022482Y018698D02*
X022925Y018698D01*
X022827Y018600D02*
X022581Y018600D01*
X022679Y018501D02*
X022728Y018501D01*
X022932Y017319D02*
X023871Y017319D01*
X023773Y017221D02*
X022834Y017221D01*
X022735Y017122D02*
X023674Y017122D01*
X023576Y017024D02*
X022637Y017024D01*
X022538Y016925D02*
X023477Y016925D01*
X023379Y016827D02*
X022440Y016827D01*
X022341Y016728D02*
X023280Y016728D01*
X023182Y016630D02*
X022243Y016630D01*
X022144Y016531D02*
X023083Y016531D01*
X022985Y016433D02*
X022090Y016433D01*
X022090Y016334D02*
X022886Y016334D01*
X022842Y016236D02*
X022090Y016236D01*
X022090Y016137D02*
X022840Y016137D01*
X022840Y016039D02*
X022090Y016039D01*
X022090Y015940D02*
X022840Y015940D01*
X022840Y015842D02*
X022090Y015842D01*
X022090Y015743D02*
X022840Y015743D01*
X022840Y015645D02*
X022090Y015645D01*
X022090Y015546D02*
X022840Y015546D01*
X022840Y015448D02*
X022090Y015448D01*
X022090Y015349D02*
X022840Y015349D01*
X022803Y015251D02*
X022090Y015251D01*
X022421Y015152D02*
X022704Y015152D01*
X022606Y015054D02*
X022532Y015054D01*
X022700Y014780D02*
X022200Y014780D01*
X022700Y014780D02*
X023100Y015180D01*
X023100Y016180D01*
X024100Y017180D01*
X029600Y017180D01*
X029600Y014430D01*
X027253Y011409D02*
X024184Y011409D01*
X024225Y011311D02*
X027352Y011311D01*
X027450Y011212D02*
X024233Y011212D01*
X024224Y011114D02*
X027549Y011114D01*
X027647Y011015D02*
X024183Y011015D01*
X024176Y010917D02*
X027746Y010917D01*
X027844Y010818D02*
X024217Y010818D01*
X024233Y010720D02*
X027943Y010720D01*
X028041Y010621D02*
X024232Y010621D01*
X024191Y010523D02*
X028140Y010523D01*
X028238Y010424D02*
X024159Y010424D01*
X024209Y010326D02*
X028337Y010326D01*
X028435Y010227D02*
X024233Y010227D01*
X024233Y010129D02*
X028534Y010129D01*
X028632Y010030D02*
X024199Y010030D01*
X024140Y009932D02*
X028731Y009932D01*
X028829Y009833D02*
X024201Y009833D01*
X024233Y009735D02*
X028928Y009735D01*
X029026Y009636D02*
X024233Y009636D01*
X024207Y009538D02*
X029125Y009538D01*
X029223Y009439D02*
X024155Y009439D01*
X024193Y009341D02*
X029322Y009341D01*
X029420Y009242D02*
X024233Y009242D01*
X024233Y009144D02*
X029519Y009144D01*
X029814Y008848D02*
X026800Y008848D01*
X026898Y008750D02*
X029913Y008750D01*
X030011Y008651D02*
X026997Y008651D01*
X027095Y008553D02*
X030110Y008553D01*
X030208Y008454D02*
X027194Y008454D01*
X027292Y008356D02*
X030307Y008356D01*
X030405Y008257D02*
X027391Y008257D01*
X027489Y008159D02*
X030504Y008159D01*
X030602Y008060D02*
X027588Y008060D01*
X027686Y007962D02*
X030701Y007962D01*
X030799Y007863D02*
X027785Y007863D01*
X027883Y007765D02*
X030898Y007765D01*
X030996Y007666D02*
X027982Y007666D01*
X028080Y007568D02*
X031095Y007568D01*
X031193Y007469D02*
X028179Y007469D01*
X028277Y007371D02*
X031292Y007371D01*
X031390Y007272D02*
X028376Y007272D01*
X028474Y007174D02*
X031489Y007174D01*
X031587Y007075D02*
X028573Y007075D01*
X028671Y006977D02*
X031686Y006977D01*
X031784Y006878D02*
X028741Y006878D01*
X028760Y006780D02*
X031883Y006780D01*
X031981Y006681D02*
X028760Y006681D01*
X028760Y006583D02*
X032080Y006583D01*
X032178Y006484D02*
X028760Y006484D01*
X028760Y006386D02*
X032277Y006386D01*
X032375Y006287D02*
X028760Y006287D01*
X028760Y006189D02*
X032474Y006189D01*
X032572Y006090D02*
X028760Y006090D01*
X028760Y005992D02*
X032671Y005992D01*
X032769Y005893D02*
X028760Y005893D01*
X028760Y005795D02*
X032868Y005795D01*
X032966Y005696D02*
X028760Y005696D01*
X028760Y005598D02*
X033065Y005598D01*
X033163Y005499D02*
X028760Y005499D01*
X028760Y005401D02*
X033262Y005401D01*
X033360Y005302D02*
X028760Y005302D01*
X028760Y005204D02*
X033459Y005204D01*
X033557Y005105D02*
X028760Y005105D01*
X028760Y005007D02*
X033656Y005007D01*
X033754Y004908D02*
X028760Y004908D01*
X028760Y004810D02*
X029947Y004810D01*
X029848Y004711D02*
X028760Y004711D01*
X028760Y004613D02*
X029800Y004613D01*
X029778Y004514D02*
X028760Y004514D01*
X028760Y004416D02*
X029778Y004416D01*
X029778Y004317D02*
X028760Y004317D01*
X028760Y004219D02*
X029778Y004219D01*
X029778Y004120D02*
X028760Y004120D01*
X028760Y004022D02*
X029778Y004022D01*
X029778Y003923D02*
X028760Y003923D01*
X028760Y003825D02*
X029806Y003825D01*
X029860Y003726D02*
X028760Y003726D01*
X028760Y003628D02*
X029978Y003628D01*
X029953Y003455D02*
X029907Y003442D01*
X029865Y003419D01*
X029831Y003385D01*
X029807Y003343D01*
X029795Y003297D01*
X029795Y003040D01*
X030250Y003040D01*
X030250Y003455D01*
X029953Y003455D01*
X029886Y003431D02*
X029008Y003431D01*
X029061Y003332D02*
X029804Y003332D01*
X029795Y003234D02*
X029065Y003234D01*
X029065Y003135D02*
X029795Y003135D01*
X029795Y002940D02*
X029795Y002682D01*
X029807Y002636D01*
X029831Y002595D01*
X029865Y002561D01*
X029907Y002537D01*
X029953Y002525D01*
X030250Y002525D01*
X030250Y002940D01*
X029795Y002940D01*
X029795Y002938D02*
X029065Y002938D01*
X029065Y002840D02*
X029795Y002840D01*
X029795Y002741D02*
X029065Y002741D01*
X029058Y002643D02*
X029806Y002643D01*
X029895Y002544D02*
X029003Y002544D01*
X028972Y002347D02*
X029828Y002347D01*
X029754Y002249D02*
X029046Y002249D01*
X029065Y002150D02*
X029735Y002150D01*
X030250Y002544D02*
X030350Y002544D01*
X030350Y002525D02*
X030647Y002525D01*
X030693Y002537D01*
X030735Y002561D01*
X030769Y002595D01*
X030793Y002636D01*
X030805Y002682D01*
X030805Y002940D01*
X030350Y002940D01*
X030350Y003040D01*
X030250Y003040D01*
X030250Y002940D01*
X030350Y002940D01*
X030350Y002525D01*
X030350Y002643D02*
X030250Y002643D01*
X030250Y002741D02*
X030350Y002741D01*
X030350Y002840D02*
X030250Y002840D01*
X030250Y002938D02*
X030350Y002938D01*
X030350Y003037D02*
X030940Y003037D01*
X030940Y003135D02*
X030805Y003135D01*
X030805Y003040D02*
X030350Y003040D01*
X030350Y003455D01*
X030647Y003455D01*
X030693Y003442D01*
X030735Y003419D01*
X030769Y003385D01*
X030793Y003343D01*
X030805Y003297D01*
X030805Y003040D01*
X030805Y002938D02*
X030940Y002938D01*
X030940Y002840D02*
X030805Y002840D01*
X030805Y002741D02*
X030940Y002741D01*
X030940Y002643D02*
X030794Y002643D01*
X030705Y002544D02*
X030940Y002544D01*
X030860Y002446D02*
X027091Y002446D01*
X027193Y002544D02*
X027997Y002544D01*
X027942Y002643D02*
X027260Y002643D01*
X027312Y002741D02*
X027935Y002741D01*
X027935Y002840D02*
X027364Y002840D01*
X027379Y002867D02*
X027379Y002867D01*
X027391Y002938D02*
X027935Y002938D01*
X027935Y003037D02*
X027408Y003037D01*
X027425Y003135D02*
X027935Y003135D01*
X027935Y003234D02*
X027430Y003234D01*
X027436Y003195D02*
X027436Y003195D01*
X027417Y003332D02*
X027939Y003332D01*
X027992Y003431D02*
X027417Y003431D01*
X027417Y003529D02*
X028240Y003529D01*
X028240Y003628D02*
X027402Y003628D01*
X027448Y003643D02*
X027504Y003654D01*
X027564Y003679D01*
X027618Y003715D01*
X027663Y003760D01*
X027699Y003814D01*
X027724Y003874D01*
X027736Y003937D01*
X027736Y004186D01*
X027448Y004186D01*
X027448Y003643D01*
X027448Y003726D02*
X027370Y003726D01*
X027370Y003825D02*
X027448Y003825D01*
X027448Y003923D02*
X027370Y003923D01*
X027370Y004022D02*
X027448Y004022D01*
X027448Y004120D02*
X027370Y004120D01*
X027448Y004219D02*
X028240Y004219D01*
X028240Y004317D02*
X027736Y004317D01*
X027736Y004416D02*
X028240Y004416D01*
X028240Y004514D02*
X027736Y004514D01*
X027709Y004613D02*
X028240Y004613D01*
X028240Y004711D02*
X027642Y004711D01*
X027448Y004711D02*
X027370Y004711D01*
X027370Y004613D02*
X027448Y004613D01*
X027448Y004514D02*
X027370Y004514D01*
X027370Y004416D02*
X027448Y004416D01*
X027448Y004317D02*
X027370Y004317D01*
X027736Y004120D02*
X028240Y004120D01*
X028240Y004022D02*
X027736Y004022D01*
X027733Y003923D02*
X028240Y003923D01*
X028240Y003825D02*
X027703Y003825D01*
X027629Y003726D02*
X028240Y003726D01*
X028760Y003529D02*
X030940Y003529D01*
X030940Y003431D02*
X030714Y003431D01*
X030796Y003332D02*
X030940Y003332D01*
X030940Y003234D02*
X030805Y003234D01*
X030350Y003234D02*
X030250Y003234D01*
X030250Y003332D02*
X030350Y003332D01*
X030350Y003431D02*
X030250Y003431D01*
X030352Y003628D02*
X030489Y003628D01*
X030864Y003628D02*
X030940Y003628D01*
X031460Y003628D02*
X031513Y003628D01*
X031460Y003529D02*
X041199Y003529D01*
X041172Y003595D02*
X041237Y003437D01*
X041357Y003317D01*
X041515Y003252D01*
X041685Y003252D01*
X041843Y003317D01*
X041963Y003437D01*
X041996Y003518D01*
X042469Y003518D01*
X042469Y003372D01*
X042607Y003234D01*
X043263Y003234D01*
X043401Y003372D01*
X043401Y004185D01*
X043263Y004323D01*
X042607Y004323D01*
X042469Y004185D01*
X042469Y004038D01*
X041847Y004038D01*
X041843Y004043D01*
X041685Y004108D01*
X041515Y004108D01*
X041357Y004043D01*
X041237Y003923D01*
X041172Y003765D01*
X041172Y003595D01*
X041172Y003628D02*
X034447Y003628D01*
X034564Y003726D02*
X041172Y003726D01*
X041196Y003825D02*
X034619Y003825D01*
X034647Y003923D02*
X041238Y003923D01*
X041336Y004022D02*
X034647Y004022D01*
X034647Y004120D02*
X042469Y004120D01*
X042503Y004219D02*
X034647Y004219D01*
X034647Y004317D02*
X042601Y004317D01*
X042935Y003778D02*
X041698Y003778D01*
X041600Y003680D01*
X041343Y003332D02*
X031460Y003332D01*
X031460Y003234D02*
X051350Y003234D01*
X051350Y003332D02*
X045276Y003332D01*
X045273Y003329D02*
X045306Y003362D01*
X045329Y003402D01*
X045341Y003446D01*
X045341Y003728D01*
X044985Y003728D01*
X044985Y003294D01*
X045188Y003294D01*
X045233Y003306D01*
X045273Y003329D01*
X045337Y003431D02*
X051350Y003431D01*
X051350Y003529D02*
X045341Y003529D01*
X045341Y003628D02*
X051350Y003628D01*
X051350Y003726D02*
X045341Y003726D01*
X045341Y003828D02*
X044985Y003828D01*
X044985Y003728D01*
X044885Y003728D01*
X044885Y003294D01*
X044682Y003294D01*
X044637Y003306D01*
X044597Y003329D01*
X044564Y003362D01*
X044541Y003402D01*
X044529Y003446D01*
X044529Y003728D01*
X044885Y003728D01*
X044885Y003828D01*
X044529Y003828D01*
X044529Y004111D01*
X044541Y004155D01*
X044564Y004195D01*
X044597Y004228D01*
X044637Y004251D01*
X044682Y004263D01*
X044885Y004263D01*
X044885Y003828D01*
X044985Y003828D01*
X044985Y004263D01*
X045188Y004263D01*
X045233Y004251D01*
X045273Y004228D01*
X045306Y004195D01*
X045329Y004155D01*
X045341Y004111D01*
X045341Y003828D01*
X045341Y003923D02*
X051350Y003923D01*
X051350Y003825D02*
X044985Y003825D01*
X044985Y003923D02*
X044885Y003923D01*
X044885Y003825D02*
X044401Y003825D01*
X044401Y003923D02*
X044529Y003923D01*
X044529Y004022D02*
X044401Y004022D01*
X044401Y004120D02*
X044532Y004120D01*
X044587Y004219D02*
X044367Y004219D01*
X044401Y004185D02*
X044263Y004323D01*
X043607Y004323D01*
X043469Y004185D01*
X043469Y003372D01*
X043607Y003234D01*
X044263Y003234D01*
X044401Y003372D01*
X044401Y004185D01*
X044269Y004317D02*
X051350Y004317D01*
X051350Y004219D02*
X045283Y004219D01*
X045293Y004332D02*
X045494Y004332D01*
X045680Y004409D01*
X045823Y004551D01*
X045900Y004737D01*
X045900Y004938D01*
X045823Y005124D01*
X045680Y005266D01*
X045494Y005343D01*
X045293Y005343D01*
X045107Y005266D01*
X044965Y005124D01*
X044888Y004938D01*
X044888Y004737D01*
X044965Y004551D01*
X045107Y004409D01*
X045293Y004332D01*
X045100Y004416D02*
X034647Y004416D01*
X034647Y004514D02*
X045002Y004514D01*
X044939Y004613D02*
X034624Y004613D01*
X033530Y004810D02*
X033454Y004810D01*
X033018Y004810D02*
X032942Y004810D01*
X032506Y004810D02*
X032430Y004810D01*
X031994Y004810D02*
X031918Y004810D01*
X031482Y004810D02*
X031407Y004810D01*
X030970Y004810D02*
X030895Y004810D01*
X030459Y004810D02*
X030383Y004810D01*
X031189Y004225D02*
X031189Y004180D01*
X031100Y004180D01*
X031189Y004180D02*
X031200Y004180D01*
X031200Y002180D01*
X030806Y002347D02*
X030772Y002347D01*
X031460Y002544D02*
X051350Y002544D01*
X051350Y002446D02*
X031540Y002446D01*
X031594Y002347D02*
X051350Y002347D01*
X051350Y002249D02*
X031628Y002249D01*
X031628Y002150D02*
X051350Y002150D01*
X051350Y002052D02*
X031610Y002052D01*
X031569Y001953D02*
X050373Y001953D01*
X050141Y001855D02*
X031480Y001855D01*
X031295Y001756D02*
X050043Y001756D01*
X049944Y001658D02*
X030865Y001658D01*
X030865Y001756D02*
X031105Y001756D01*
X030920Y001855D02*
X030865Y001855D01*
X030865Y001559D02*
X049890Y001559D01*
X049849Y001461D02*
X030833Y001461D01*
X030712Y001362D02*
X049808Y001362D01*
X049799Y001264D02*
X026651Y001264D01*
X026642Y001362D02*
X028088Y001362D01*
X027967Y001461D02*
X026601Y001461D01*
X026560Y001559D02*
X027935Y001559D01*
X027935Y001658D02*
X026506Y001658D01*
X026407Y001756D02*
X027935Y001756D01*
X027935Y001855D02*
X026309Y001855D01*
X026077Y001953D02*
X027935Y001953D01*
X027935Y002052D02*
X019100Y002052D01*
X019100Y002150D02*
X027935Y002150D01*
X027954Y002249D02*
X026794Y002249D01*
X026984Y002342D02*
X026984Y002342D01*
X026990Y002347D02*
X028028Y002347D01*
X028500Y002990D02*
X028500Y006780D01*
X026626Y008654D01*
X023590Y008654D01*
X024177Y008356D02*
X026557Y008356D01*
X026655Y008257D02*
X024218Y008257D01*
X024233Y008159D02*
X026754Y008159D01*
X026852Y008060D02*
X024231Y008060D01*
X024190Y007962D02*
X026951Y007962D01*
X027049Y007863D02*
X024161Y007863D01*
X024210Y007765D02*
X027148Y007765D01*
X027246Y007666D02*
X024233Y007666D01*
X024233Y007568D02*
X027345Y007568D01*
X027443Y007469D02*
X024214Y007469D01*
X024254Y007371D02*
X027542Y007371D01*
X027640Y007272D02*
X024295Y007272D01*
X024300Y007174D02*
X026682Y007174D01*
X026495Y007075D02*
X024300Y007075D01*
X024300Y006977D02*
X026357Y006977D01*
X026248Y006878D02*
X024259Y006878D01*
X024218Y006780D02*
X026160Y006780D01*
X026100Y006681D02*
X024233Y006681D01*
X024233Y006583D02*
X026043Y006583D01*
X025996Y006484D02*
X024214Y006484D01*
X024172Y006386D02*
X025968Y006386D01*
X025936Y006287D02*
X024111Y006287D01*
X024161Y006189D02*
X025925Y006189D01*
X025914Y006090D02*
X023629Y006090D01*
X023552Y006090D02*
X022311Y006090D01*
X022303Y006044D02*
X022257Y006031D01*
X022216Y006008D01*
X022182Y005974D01*
X022158Y005932D01*
X022146Y005886D01*
X022146Y005629D01*
X022600Y005629D01*
X022600Y006044D01*
X022303Y006044D01*
X022200Y005992D02*
X022161Y005992D01*
X022148Y005893D02*
X019100Y005893D01*
X019100Y005795D02*
X022146Y005795D01*
X022146Y005696D02*
X021432Y005696D01*
X021431Y005697D02*
X021349Y005731D01*
X021263Y005754D01*
X021181Y005764D01*
X021181Y005140D01*
X021806Y005140D01*
X021795Y005222D01*
X021772Y005308D01*
X021738Y005389D01*
X021694Y005466D01*
X021640Y005536D01*
X021577Y005599D01*
X021507Y005653D01*
X021431Y005697D01*
X021579Y005598D02*
X022600Y005598D01*
X022600Y005629D02*
X022600Y005529D01*
X022146Y005529D01*
X022146Y005271D01*
X022158Y005225D01*
X022182Y005184D01*
X022216Y005150D01*
X022257Y005126D01*
X022303Y005114D01*
X022600Y005114D01*
X022600Y005529D01*
X022700Y005529D01*
X022700Y005629D01*
X022600Y005629D01*
X022600Y005696D02*
X022700Y005696D01*
X022700Y005629D02*
X022700Y006044D01*
X022997Y006044D01*
X023012Y006040D01*
X023008Y006056D01*
X023552Y006056D01*
X023552Y005768D01*
X023302Y005768D01*
X023239Y005780D01*
X023179Y005805D01*
X023154Y005822D01*
X023154Y005629D01*
X022700Y005629D01*
X022700Y005598D02*
X025990Y005598D01*
X025966Y005696D02*
X023154Y005696D01*
X023154Y005795D02*
X023205Y005795D01*
X023154Y005529D02*
X022700Y005529D01*
X022700Y005114D01*
X022997Y005114D01*
X023043Y005126D01*
X023084Y005150D01*
X023118Y005184D01*
X023142Y005225D01*
X023154Y005271D01*
X023154Y005529D01*
X023154Y005499D02*
X026039Y005499D01*
X026093Y005401D02*
X023154Y005401D01*
X023154Y005302D02*
X026159Y005302D01*
X026241Y005204D02*
X023129Y005204D01*
X022700Y005204D02*
X022600Y005204D01*
X022600Y005302D02*
X022700Y005302D01*
X022700Y005401D02*
X022600Y005401D01*
X022600Y005499D02*
X022700Y005499D01*
X022700Y005795D02*
X022600Y005795D01*
X022600Y005893D02*
X022700Y005893D01*
X022700Y005992D02*
X022600Y005992D01*
X022146Y005499D02*
X021669Y005499D01*
X021732Y005401D02*
X022146Y005401D01*
X022146Y005302D02*
X021773Y005302D01*
X021797Y005204D02*
X022171Y005204D01*
X021801Y005007D02*
X026482Y005007D01*
X026348Y005105D02*
X021181Y005105D01*
X021181Y005204D02*
X021081Y005204D01*
X021081Y005140D02*
X021081Y005764D01*
X020999Y005754D01*
X020914Y005731D01*
X020832Y005697D01*
X020756Y005653D01*
X020685Y005599D01*
X020623Y005536D01*
X020569Y005466D01*
X020525Y005389D01*
X020491Y005308D01*
X020468Y005222D01*
X020457Y005140D01*
X021081Y005140D01*
X021081Y005105D02*
X019174Y005105D01*
X019174Y005204D02*
X019100Y005204D01*
X019100Y005302D02*
X019174Y005302D01*
X019174Y005401D02*
X019100Y005401D01*
X019100Y005499D02*
X019174Y005499D01*
X019174Y005598D02*
X019100Y005598D01*
X019100Y005696D02*
X019174Y005696D01*
X019424Y005696D02*
X020831Y005696D01*
X020684Y005598D02*
X019571Y005598D01*
X019661Y005499D02*
X020594Y005499D01*
X020531Y005401D02*
X019724Y005401D01*
X019766Y005302D02*
X020489Y005302D01*
X020465Y005204D02*
X019789Y005204D01*
X019793Y005007D02*
X020462Y005007D01*
X020481Y004908D02*
X019774Y004908D01*
X019738Y004810D02*
X020517Y004810D01*
X020572Y004711D02*
X020357Y004711D01*
X020542Y004613D02*
X020654Y004613D01*
X019898Y004711D02*
X019683Y004711D01*
X019713Y004613D02*
X019600Y004613D01*
X021081Y005302D02*
X021181Y005302D01*
X021181Y005401D02*
X021081Y005401D01*
X021081Y005499D02*
X021181Y005499D01*
X021181Y005598D02*
X021081Y005598D01*
X021081Y005696D02*
X021181Y005696D01*
X021139Y005992D02*
X019100Y005992D01*
X019100Y006049D02*
X019100Y006049D01*
X019100Y006090D02*
X019200Y006090D01*
X019200Y006049D02*
X019628Y006049D01*
X019679Y006062D01*
X019725Y006089D01*
X019762Y006126D01*
X019788Y006171D01*
X019802Y006222D01*
X019802Y006680D01*
X019200Y006680D01*
X019200Y006049D01*
X019200Y006189D02*
X019100Y006189D01*
X019100Y006287D02*
X019200Y006287D01*
X019200Y006386D02*
X019100Y006386D01*
X019100Y006484D02*
X019200Y006484D01*
X019200Y006583D02*
X019100Y006583D01*
X019200Y006681D02*
X020890Y006681D01*
X020890Y006780D02*
X019200Y006780D01*
X019200Y007411D01*
X019628Y007411D01*
X019679Y007398D01*
X019725Y007371D01*
X019762Y007334D01*
X019788Y007289D01*
X019802Y007238D01*
X019802Y006780D01*
X019200Y006780D01*
X019200Y006878D02*
X019100Y006878D01*
X019100Y006977D02*
X019200Y006977D01*
X019200Y007075D02*
X019100Y007075D01*
X019100Y007174D02*
X019200Y007174D01*
X019200Y007272D02*
X019100Y007272D01*
X019100Y007371D02*
X019200Y007371D01*
X019100Y007411D02*
X019100Y007411D01*
X019100Y007469D02*
X021110Y007469D01*
X021110Y007568D02*
X019100Y007568D01*
X019100Y007666D02*
X021110Y007666D01*
X021110Y007765D02*
X019100Y007765D01*
X019100Y007863D02*
X021110Y007863D01*
X021110Y007962D02*
X019100Y007962D01*
X019100Y008060D02*
X021110Y008060D01*
X021110Y008159D02*
X019100Y008159D01*
X019100Y008257D02*
X021110Y008257D01*
X021110Y008356D02*
X019100Y008356D01*
X019100Y008454D02*
X021110Y008454D01*
X021110Y008553D02*
X019100Y008553D01*
X019100Y008651D02*
X021110Y008651D01*
X021110Y008750D02*
X019100Y008750D01*
X019100Y008848D02*
X021110Y008848D01*
X021110Y008947D02*
X019100Y008947D01*
X019100Y009045D02*
X021110Y009045D01*
X021110Y009144D02*
X019100Y009144D01*
X019100Y009242D02*
X021110Y009242D01*
X021110Y009341D02*
X019100Y009341D01*
X019100Y009439D02*
X021110Y009439D01*
X021110Y009538D02*
X019100Y009538D01*
X019100Y009636D02*
X021110Y009636D01*
X021110Y009735D02*
X019100Y009735D01*
X019100Y009833D02*
X021110Y009833D01*
X021110Y009932D02*
X019100Y009932D01*
X019100Y010030D02*
X021110Y010030D01*
X021110Y010129D02*
X019100Y010129D01*
X019100Y010227D02*
X021110Y010227D01*
X021110Y010326D02*
X019100Y010326D01*
X019100Y010424D02*
X021110Y010424D01*
X021110Y010523D02*
X019100Y010523D01*
X019100Y010621D02*
X021110Y010621D01*
X021110Y010720D02*
X019100Y010720D01*
X019100Y010818D02*
X021110Y010818D01*
X021110Y010917D02*
X019100Y010917D01*
X019100Y011015D02*
X021110Y011015D01*
X021110Y011114D02*
X019100Y011114D01*
X019100Y011212D02*
X021110Y011212D01*
X021110Y011311D02*
X019100Y011311D01*
X019100Y011409D02*
X021110Y011409D01*
X021110Y011508D02*
X019100Y011508D01*
X019100Y011606D02*
X021110Y011606D01*
X021110Y011705D02*
X019100Y011705D01*
X019100Y011803D02*
X021110Y011803D01*
X021110Y011902D02*
X019100Y011902D01*
X019100Y012000D02*
X021110Y012000D01*
X021110Y012099D02*
X019100Y012099D01*
X019100Y012197D02*
X021110Y012197D01*
X021110Y012296D02*
X019100Y012296D01*
X019100Y012394D02*
X021110Y012394D01*
X021110Y012493D02*
X019100Y012493D01*
X019100Y012591D02*
X021110Y012591D01*
X021110Y012690D02*
X019100Y012690D01*
X019100Y012788D02*
X021110Y012788D01*
X021110Y012887D02*
X019100Y012887D01*
X019100Y012985D02*
X021110Y012985D01*
X021110Y013084D02*
X019100Y013084D01*
X019100Y013182D02*
X021110Y013182D01*
X021110Y013281D02*
X020804Y013281D01*
X020954Y013379D02*
X021110Y013379D01*
X021110Y013478D02*
X021030Y013478D01*
X021070Y013576D02*
X021110Y013576D01*
X020650Y013680D02*
X003100Y013680D01*
X003100Y012700D01*
X001706Y011306D01*
X003100Y010180D01*
X001706Y012054D02*
X001700Y012060D01*
X001700Y013180D01*
X002300Y013180D01*
X001700Y013180D02*
X001700Y014080D01*
X002400Y014780D01*
X020650Y014780D01*
X020318Y015054D02*
X019100Y015054D01*
X019100Y015152D02*
X020429Y015152D01*
X020362Y014463D02*
X019100Y014463D01*
X019100Y014364D02*
X020536Y014364D01*
X020346Y013379D02*
X019100Y013379D01*
X019100Y013281D02*
X020496Y013281D01*
X024233Y009089D02*
X024174Y008947D01*
X020989Y007371D02*
X019726Y007371D01*
X019793Y007272D02*
X020942Y007272D01*
X020938Y007174D02*
X019802Y007174D01*
X019802Y007075D02*
X020938Y007075D01*
X020913Y006977D02*
X019802Y006977D01*
X019802Y006878D02*
X020890Y006878D01*
X020913Y006583D02*
X019802Y006583D01*
X019802Y006484D02*
X020938Y006484D01*
X020938Y006386D02*
X019802Y006386D01*
X019802Y006287D02*
X020938Y006287D01*
X020942Y006189D02*
X019793Y006189D01*
X019726Y006090D02*
X020989Y006090D01*
X021781Y004908D02*
X026664Y004908D01*
X026565Y004810D02*
X021746Y004810D01*
X021691Y004711D02*
X024106Y004711D01*
X024084Y004689D02*
X024048Y004636D01*
X024024Y004576D01*
X024011Y004513D01*
X024011Y004263D01*
X024300Y004263D01*
X024300Y004186D01*
X024377Y004186D01*
X024377Y004263D01*
X024665Y004263D01*
X024811Y004263D01*
X024811Y004186D01*
X024377Y004186D01*
X024377Y003643D01*
X024434Y003654D01*
X024493Y003679D01*
X024547Y003715D01*
X024592Y003760D01*
X024594Y003763D01*
X024596Y003760D01*
X024641Y003715D01*
X024695Y003679D01*
X024755Y003654D01*
X024811Y003643D01*
X024811Y004186D01*
X024889Y004186D01*
X024889Y004263D01*
X025177Y004263D01*
X025323Y004263D01*
X025323Y004186D01*
X025400Y004186D01*
X025400Y003643D01*
X025457Y003654D01*
X025517Y003679D01*
X025570Y003715D01*
X025616Y003760D01*
X025618Y003763D01*
X025619Y003760D01*
X025665Y003715D01*
X025719Y003679D01*
X025778Y003654D01*
X025835Y003643D01*
X025835Y004186D01*
X025912Y004186D01*
X025912Y003643D01*
X025969Y003654D01*
X026029Y003679D01*
X026082Y003715D01*
X026128Y003760D01*
X026130Y003763D01*
X026131Y003760D01*
X026177Y003715D01*
X026230Y003679D01*
X026290Y003654D01*
X026347Y003643D01*
X026347Y004186D01*
X025912Y004186D01*
X025912Y004263D01*
X026201Y004263D01*
X026347Y004263D01*
X026347Y004807D01*
X026290Y004795D01*
X026230Y004771D01*
X026177Y004735D01*
X026131Y004689D01*
X026130Y004687D01*
X026128Y004689D01*
X026082Y004735D01*
X026029Y004771D01*
X025969Y004795D01*
X025912Y004807D01*
X025912Y004263D01*
X025835Y004263D01*
X025835Y004186D01*
X025400Y004186D01*
X025400Y004263D01*
X025546Y004263D01*
X025835Y004263D01*
X025835Y004807D01*
X025778Y004795D01*
X025719Y004771D01*
X025665Y004735D01*
X025619Y004689D01*
X025618Y004687D01*
X025616Y004689D01*
X025570Y004735D01*
X025517Y004771D01*
X025457Y004795D01*
X025400Y004807D01*
X025400Y004263D01*
X025323Y004263D01*
X025323Y004807D01*
X025266Y004795D01*
X025207Y004771D01*
X025153Y004735D01*
X025108Y004689D01*
X025106Y004687D01*
X025104Y004689D01*
X025059Y004735D01*
X025005Y004771D01*
X024945Y004795D01*
X024889Y004807D01*
X024889Y004263D01*
X024811Y004263D01*
X024811Y004807D01*
X024755Y004795D01*
X024695Y004771D01*
X024641Y004735D01*
X024596Y004689D01*
X024594Y004687D01*
X024592Y004689D01*
X024547Y004735D01*
X024493Y004771D01*
X024434Y004795D01*
X024377Y004807D01*
X024377Y004263D01*
X024300Y004263D01*
X024300Y004807D01*
X024243Y004795D01*
X024183Y004771D01*
X024130Y004735D01*
X024084Y004689D01*
X024039Y004613D02*
X021608Y004613D01*
X022365Y004514D02*
X022454Y004514D01*
X023207Y004514D02*
X024011Y004514D01*
X024011Y004416D02*
X023406Y004416D01*
X023343Y004464D02*
X023343Y004464D01*
X023532Y004317D02*
X024011Y004317D01*
X024011Y004186D02*
X024011Y003937D01*
X024024Y003874D01*
X024048Y003814D01*
X024084Y003760D01*
X024130Y003715D01*
X024183Y003679D01*
X024243Y003654D01*
X024300Y003643D01*
X024300Y004186D01*
X024011Y004186D01*
X024011Y004120D02*
X023723Y004120D01*
X023789Y004022D02*
X024011Y004022D01*
X024014Y003923D02*
X023856Y003923D01*
X023875Y003895D02*
X023875Y003895D01*
X023895Y003825D02*
X024044Y003825D01*
X024118Y003726D02*
X023924Y003726D01*
X023952Y003628D02*
X026393Y003628D01*
X026377Y003529D02*
X023980Y003529D01*
X023984Y003516D02*
X023984Y003516D01*
X023981Y003431D02*
X026377Y003431D01*
X026372Y003332D02*
X023978Y003332D01*
X023978Y003234D02*
X026377Y003234D01*
X026347Y003726D02*
X026424Y003726D01*
X026424Y003825D02*
X026347Y003825D01*
X026347Y003923D02*
X026424Y003923D01*
X026424Y004022D02*
X026347Y004022D01*
X026347Y004120D02*
X026424Y004120D01*
X026347Y004219D02*
X025912Y004219D01*
X025835Y004219D02*
X025400Y004219D01*
X025323Y004219D02*
X024889Y004219D01*
X024889Y004186D02*
X025323Y004186D01*
X025323Y003643D01*
X025266Y003654D01*
X025207Y003679D01*
X025153Y003715D01*
X025108Y003760D01*
X025106Y003763D01*
X025104Y003760D01*
X025059Y003715D01*
X025005Y003679D01*
X024945Y003654D01*
X024889Y003643D01*
X024889Y004186D01*
X024889Y004120D02*
X024811Y004120D01*
X024811Y004022D02*
X024889Y004022D01*
X024889Y003923D02*
X024811Y003923D01*
X024811Y003825D02*
X024889Y003825D01*
X024889Y003726D02*
X024811Y003726D01*
X024630Y003726D02*
X024558Y003726D01*
X024377Y003726D02*
X024300Y003726D01*
X024300Y003825D02*
X024377Y003825D01*
X024377Y003923D02*
X024300Y003923D01*
X024300Y004022D02*
X024377Y004022D01*
X024377Y004120D02*
X024300Y004120D01*
X024300Y004219D02*
X023656Y004219D01*
X023654Y004222D02*
X023654Y004222D01*
X024300Y004317D02*
X024377Y004317D01*
X024377Y004219D02*
X024811Y004219D01*
X024811Y004317D02*
X024889Y004317D01*
X024889Y004416D02*
X024811Y004416D01*
X024811Y004514D02*
X024889Y004514D01*
X024889Y004613D02*
X024811Y004613D01*
X024811Y004711D02*
X024889Y004711D01*
X025082Y004711D02*
X025129Y004711D01*
X025323Y004711D02*
X025400Y004711D01*
X025400Y004613D02*
X025323Y004613D01*
X025323Y004514D02*
X025400Y004514D01*
X025400Y004416D02*
X025323Y004416D01*
X025323Y004317D02*
X025400Y004317D01*
X025400Y004120D02*
X025323Y004120D01*
X025323Y004022D02*
X025400Y004022D01*
X025400Y003923D02*
X025323Y003923D01*
X025323Y003825D02*
X025400Y003825D01*
X025400Y003726D02*
X025323Y003726D01*
X025142Y003726D02*
X025070Y003726D01*
X025582Y003726D02*
X025654Y003726D01*
X025835Y003726D02*
X025912Y003726D01*
X025912Y003825D02*
X025835Y003825D01*
X025835Y003923D02*
X025912Y003923D01*
X025912Y004022D02*
X025835Y004022D01*
X025835Y004120D02*
X025912Y004120D01*
X025912Y004317D02*
X025835Y004317D01*
X025835Y004416D02*
X025912Y004416D01*
X025912Y004514D02*
X025835Y004514D01*
X025835Y004613D02*
X025912Y004613D01*
X025912Y004711D02*
X025835Y004711D01*
X025641Y004711D02*
X025594Y004711D01*
X026106Y004711D02*
X026153Y004711D01*
X026347Y004711D02*
X026424Y004711D01*
X026424Y004613D02*
X026347Y004613D01*
X026347Y004514D02*
X026424Y004514D01*
X026424Y004416D02*
X026347Y004416D01*
X026347Y004317D02*
X026424Y004317D01*
X027229Y004810D02*
X028240Y004810D01*
X028240Y004908D02*
X027611Y004908D01*
X027793Y005007D02*
X028240Y005007D01*
X028240Y005105D02*
X027927Y005105D01*
X028034Y005204D02*
X028240Y005204D01*
X028240Y005302D02*
X028116Y005302D01*
X028182Y005401D02*
X028240Y005401D01*
X028236Y005499D02*
X028240Y005499D01*
X028232Y006583D02*
X028240Y006583D01*
X028231Y006681D02*
X028174Y006681D01*
X028133Y006780D02*
X028115Y006780D01*
X028034Y006878D02*
X028027Y006878D01*
X027936Y006977D02*
X027918Y006977D01*
X027837Y007075D02*
X027780Y007075D01*
X027739Y007174D02*
X027593Y007174D01*
X025914Y005992D02*
X024157Y005992D01*
X024105Y005893D02*
X025923Y005893D01*
X025935Y005795D02*
X023976Y005795D01*
X023629Y005795D02*
X023552Y005795D01*
X023552Y005893D02*
X023629Y005893D01*
X023629Y005992D02*
X023552Y005992D01*
X024300Y004711D02*
X024377Y004711D01*
X024377Y004613D02*
X024300Y004613D01*
X024300Y004514D02*
X024377Y004514D01*
X024377Y004416D02*
X024300Y004416D01*
X024571Y004711D02*
X024618Y004711D01*
X026093Y003726D02*
X026166Y003726D01*
X023994Y003210D02*
X023994Y003210D01*
X023411Y002347D02*
X019100Y002347D01*
X019174Y002408D02*
X019256Y002419D01*
X019341Y002442D01*
X019423Y002476D01*
X019499Y002520D01*
X019570Y002574D01*
X019632Y002636D01*
X019686Y002707D01*
X019730Y002783D01*
X019764Y002865D01*
X019787Y002950D01*
X019798Y003032D01*
X019174Y003032D01*
X019174Y002408D01*
X019174Y002446D02*
X019100Y002446D01*
X019100Y002544D02*
X019174Y002544D01*
X019174Y002643D02*
X019100Y002643D01*
X019100Y002741D02*
X019174Y002741D01*
X019174Y002840D02*
X019100Y002840D01*
X019100Y002938D02*
X019174Y002938D01*
X019174Y003037D02*
X021081Y003037D01*
X021081Y003032D02*
X020457Y003032D01*
X020468Y002950D01*
X020491Y002865D01*
X020525Y002783D01*
X020569Y002707D01*
X020623Y002636D01*
X020685Y002574D01*
X020756Y002520D01*
X020832Y002476D01*
X020914Y002442D01*
X020999Y002419D01*
X021081Y002408D01*
X021081Y003032D01*
X021081Y002938D02*
X021181Y002938D01*
X021181Y002840D02*
X021081Y002840D01*
X021081Y002741D02*
X021181Y002741D01*
X021181Y002643D02*
X021081Y002643D01*
X021081Y002544D02*
X021181Y002544D01*
X021181Y002446D02*
X021081Y002446D01*
X020905Y002446D02*
X019350Y002446D01*
X019531Y002544D02*
X020724Y002544D01*
X020618Y002643D02*
X019637Y002643D01*
X019706Y002741D02*
X020549Y002741D01*
X020501Y002840D02*
X019754Y002840D01*
X019784Y002938D02*
X020471Y002938D01*
X020457Y003135D02*
X019797Y003135D01*
X019782Y003234D02*
X020473Y003234D01*
X020504Y003332D02*
X019751Y003332D01*
X019702Y003431D02*
X019973Y003431D01*
X019744Y003529D02*
X019632Y003529D01*
X020282Y003431D02*
X020553Y003431D01*
X020511Y003529D02*
X020623Y003529D01*
X021645Y002643D02*
X021711Y002643D01*
X021731Y002544D02*
X021539Y002544D01*
X021358Y002446D02*
X021796Y002446D01*
X022039Y002446D02*
X022116Y002446D01*
X022116Y002544D02*
X022039Y002544D01*
X022039Y002643D02*
X022116Y002643D01*
X022359Y002446D02*
X022476Y002446D01*
X022719Y002446D02*
X022796Y002446D01*
X022796Y002544D02*
X022719Y002544D01*
X022719Y002643D02*
X022796Y002643D01*
X023039Y002446D02*
X023276Y002446D01*
X023188Y002544D02*
X023104Y002544D01*
X023585Y002249D02*
X019100Y002249D01*
X019100Y001953D02*
X025623Y001953D01*
X025391Y001855D02*
X019100Y001855D01*
X019100Y001756D02*
X025293Y001756D01*
X025194Y001658D02*
X019100Y001658D01*
X019100Y001559D02*
X025140Y001559D01*
X025099Y001461D02*
X019100Y001461D01*
X019100Y001362D02*
X025058Y001362D01*
X025049Y001264D02*
X019100Y001264D01*
X019100Y001165D02*
X025049Y001165D01*
X025049Y001067D02*
X019100Y001067D01*
X019100Y000968D02*
X025071Y000968D01*
X025111Y000870D02*
X019100Y000870D01*
X019100Y000771D02*
X025152Y000771D01*
X025224Y000673D02*
X019100Y000673D01*
X019100Y000574D02*
X025323Y000574D01*
X025457Y000476D02*
X019100Y000476D01*
X026243Y000476D02*
X050207Y000476D01*
X050073Y000574D02*
X026377Y000574D01*
X026476Y000673D02*
X049974Y000673D01*
X049902Y000771D02*
X026548Y000771D01*
X026589Y000870D02*
X049861Y000870D01*
X049821Y000968D02*
X026629Y000968D01*
X026651Y001067D02*
X049799Y001067D01*
X049799Y001165D02*
X026651Y001165D01*
X028500Y001870D02*
X030300Y001870D01*
X029735Y001559D02*
X029065Y001559D01*
X029033Y001461D02*
X029767Y001461D01*
X029888Y001362D02*
X028912Y001362D01*
X031460Y002643D02*
X051350Y002643D01*
X051350Y002741D02*
X031460Y002741D01*
X031460Y002840D02*
X051350Y002840D01*
X051350Y002938D02*
X031460Y002938D01*
X031460Y003037D02*
X051350Y003037D01*
X051350Y003135D02*
X031460Y003135D01*
X031460Y003431D02*
X041244Y003431D01*
X041857Y003332D02*
X042509Y003332D01*
X042469Y003431D02*
X041956Y003431D01*
X043361Y003332D02*
X043509Y003332D01*
X043469Y003431D02*
X043401Y003431D01*
X043401Y003529D02*
X043469Y003529D01*
X043469Y003628D02*
X043401Y003628D01*
X043401Y003726D02*
X043469Y003726D01*
X043469Y003825D02*
X043401Y003825D01*
X043401Y003923D02*
X043469Y003923D01*
X043469Y004022D02*
X043401Y004022D01*
X043401Y004120D02*
X043469Y004120D01*
X043503Y004219D02*
X043367Y004219D01*
X043269Y004317D02*
X043601Y004317D01*
X043499Y004711D02*
X044898Y004711D01*
X044888Y004810D02*
X043597Y004810D01*
X043696Y004908D02*
X044888Y004908D01*
X044916Y005007D02*
X043794Y005007D01*
X043893Y005105D02*
X044957Y005105D01*
X045044Y005204D02*
X043991Y005204D01*
X044090Y005302D02*
X045193Y005302D01*
X045594Y005302D02*
X051350Y005302D01*
X051350Y005204D02*
X045743Y005204D01*
X045830Y005105D02*
X051350Y005105D01*
X051350Y005007D02*
X045871Y005007D01*
X045900Y004908D02*
X051350Y004908D01*
X051350Y004810D02*
X045900Y004810D01*
X045889Y004711D02*
X051350Y004711D01*
X051350Y004613D02*
X045848Y004613D01*
X045786Y004514D02*
X051350Y004514D01*
X051350Y004416D02*
X045687Y004416D01*
X045338Y004120D02*
X051350Y004120D01*
X051350Y004022D02*
X045341Y004022D01*
X044985Y004022D02*
X044885Y004022D01*
X044885Y004120D02*
X044985Y004120D01*
X044985Y004219D02*
X044885Y004219D01*
X044885Y003726D02*
X044985Y003726D01*
X044985Y003628D02*
X044885Y003628D01*
X044885Y003529D02*
X044985Y003529D01*
X044985Y003431D02*
X044885Y003431D01*
X044885Y003332D02*
X044985Y003332D01*
X044594Y003332D02*
X044361Y003332D01*
X044401Y003431D02*
X044533Y003431D01*
X044529Y003529D02*
X044401Y003529D01*
X044401Y003628D02*
X044529Y003628D01*
X044529Y003726D02*
X044401Y003726D01*
X044188Y005401D02*
X051350Y005401D01*
X051350Y005499D02*
X044287Y005499D01*
X044385Y005598D02*
X051350Y005598D01*
X051350Y005696D02*
X044484Y005696D01*
X044582Y005795D02*
X051350Y005795D01*
X051350Y005893D02*
X044681Y005893D01*
X044779Y005992D02*
X051350Y005992D01*
X051350Y006090D02*
X044878Y006090D01*
X044976Y006189D02*
X051350Y006189D01*
X051350Y006287D02*
X045075Y006287D01*
X045173Y006386D02*
X051350Y006386D01*
X051350Y006484D02*
X045272Y006484D01*
X045370Y006583D02*
X051350Y006583D01*
X051350Y006681D02*
X045469Y006681D01*
X045567Y006780D02*
X051350Y006780D01*
X051350Y006878D02*
X045666Y006878D01*
X045764Y006977D02*
X051350Y006977D01*
X051350Y007075D02*
X045863Y007075D01*
X045961Y007174D02*
X051350Y007174D01*
X051350Y007272D02*
X046060Y007272D01*
X046158Y007371D02*
X051350Y007371D01*
X051350Y007469D02*
X046257Y007469D01*
X046355Y007568D02*
X051350Y007568D01*
X051350Y007666D02*
X046454Y007666D01*
X046552Y007765D02*
X051350Y007765D01*
X051350Y007863D02*
X046651Y007863D01*
X046749Y007962D02*
X051350Y007962D01*
X051350Y008060D02*
X046848Y008060D01*
X046946Y008159D02*
X051350Y008159D01*
X051350Y008257D02*
X049198Y008257D01*
X049002Y008257D02*
X047045Y008257D01*
X047143Y008356D02*
X048819Y008356D01*
X048730Y008454D02*
X047242Y008454D01*
X047340Y008553D02*
X048689Y008553D01*
X048672Y008651D02*
X047439Y008651D01*
X047537Y008750D02*
X048672Y008750D01*
X049470Y008454D02*
X051350Y008454D01*
X051350Y008356D02*
X049381Y008356D01*
X049511Y008553D02*
X051350Y008553D01*
X051350Y008651D02*
X049528Y008651D01*
X049537Y008750D02*
X051350Y008750D01*
X051350Y008848D02*
X049636Y008848D01*
X049734Y008947D02*
X051350Y008947D01*
X051350Y009045D02*
X049826Y009045D01*
X049860Y009144D02*
X051350Y009144D01*
X051350Y009242D02*
X049860Y009242D01*
X049860Y009341D02*
X051350Y009341D01*
X051350Y009439D02*
X049860Y009439D01*
X049860Y009538D02*
X051350Y009538D01*
X051350Y009636D02*
X049860Y009636D01*
X049860Y009735D02*
X051350Y009735D01*
X051350Y009833D02*
X049860Y009833D01*
X049860Y009932D02*
X051350Y009932D01*
X051350Y010030D02*
X049860Y010030D01*
X049860Y010129D02*
X051350Y010129D01*
X051350Y010227D02*
X049860Y010227D01*
X049860Y010326D02*
X051350Y010326D01*
X051350Y010424D02*
X049860Y010424D01*
X034072Y003628D02*
X033935Y003628D01*
X033560Y003628D02*
X033423Y003628D01*
X033048Y003628D02*
X032911Y003628D01*
X032537Y003628D02*
X032400Y003628D01*
X032025Y003628D02*
X031888Y003628D01*
X030350Y003135D02*
X030250Y003135D01*
X030250Y003037D02*
X029065Y003037D01*
X050827Y001953D02*
X051350Y001953D01*
X051350Y001855D02*
X051059Y001855D01*
X051157Y001756D02*
X051350Y001756D01*
X051350Y001658D02*
X051256Y001658D01*
X051310Y001559D02*
X051350Y001559D01*
X013150Y018480D02*
X010650Y018480D01*
X010650Y020080D01*
D31*
X003350Y015630D02*
X018600Y015630D01*
X018600Y015070D01*
X003350Y015070D01*
X003350Y015630D01*
X003350Y015555D02*
X018600Y015555D01*
X018600Y015396D02*
X003350Y015396D01*
X003350Y015238D02*
X018600Y015238D01*
X018600Y015079D02*
X003350Y015079D01*
X003350Y014490D02*
X018600Y014490D01*
X018600Y013970D01*
X003350Y013970D01*
X003350Y014490D01*
X003350Y014445D02*
X018600Y014445D01*
X018600Y014287D02*
X003350Y014287D01*
X003350Y014128D02*
X018600Y014128D01*
X018600Y013390D02*
X018600Y012830D01*
X003390Y012830D01*
X003390Y013390D01*
X018600Y013390D01*
X018600Y013336D02*
X003390Y013336D01*
X003390Y013177D02*
X018600Y013177D01*
X018600Y013019D02*
X003390Y013019D01*
X003390Y012860D02*
X018600Y012860D01*
X023590Y007630D02*
X023590Y007119D01*
X023590Y006607D01*
X022757Y004086D02*
X022757Y003386D01*
X022077Y003386D02*
X022057Y003386D01*
X022057Y004086D01*
X021957Y004002D01*
X039599Y015430D02*
X039743Y015724D01*
X039743Y016403D01*
X037774Y018371D02*
X037765Y018370D01*
X042341Y019001D02*
X043150Y019001D01*
X043150Y019180D01*
X043650Y019680D01*
X048757Y019680D01*
X050100Y019680D01*
X048757Y019680D02*
X048757Y019246D01*
D32*
X023600Y020680D03*
X019350Y021180D03*
D33*
X022700Y017830D01*
X022700Y017780D01*
X021600Y016680D01*
X024850Y020680D02*
X025650Y019880D01*
X029550Y019880D01*
X024850Y020680D02*
X023600Y020680D01*
D34*
X023590Y007119D02*
X021939Y007119D01*
X021600Y006780D01*
D35*
X026897Y004225D02*
X026897Y003486D01*
D36*
X026897Y003286D01*
X026901Y003242D01*
X026902Y003199D01*
X026899Y003155D01*
X026893Y003112D01*
X026883Y003069D01*
X026869Y003027D01*
X026852Y002987D01*
X026832Y002948D01*
X026809Y002911D01*
X026782Y002876D01*
X026753Y002843D01*
X026722Y002813D01*
X026688Y002785D01*
X026651Y002761D01*
X026613Y002739D01*
X026573Y002721D01*
X026532Y002706D01*
X026490Y002694D01*
X026447Y002686D01*
X024007Y002686D01*
X023962Y002688D01*
X023916Y002694D01*
X023872Y002703D01*
X023828Y002716D01*
X023786Y002732D01*
X023745Y002752D01*
X023706Y002776D01*
X023669Y002802D01*
X023634Y002831D01*
X023602Y002863D01*
X023573Y002898D01*
X023547Y002935D01*
X023523Y002974D01*
X023503Y003015D01*
X023487Y003057D01*
X023474Y003101D01*
X023465Y003145D01*
X023459Y003191D01*
X023457Y003236D01*
X023457Y003336D01*
X023457Y003388D01*
X023453Y003439D01*
X023445Y003491D01*
X023434Y003541D01*
X023420Y003591D01*
X023401Y003639D01*
X023380Y003686D01*
X023355Y003732D01*
X023327Y003775D01*
X023296Y003817D01*
X023262Y003856D01*
X023225Y003892D01*
X023186Y003926D01*
X023145Y003957D01*
X023101Y003985D01*
X023056Y004010D01*
X023009Y004031D01*
X022960Y004049D01*
X022910Y004064D01*
X022860Y004075D01*
X022809Y004082D01*
X022757Y004086D01*
X022057Y004086D02*
X020127Y004086D01*
X018317Y004086D01*
X018318Y004086D02*
X018309Y004091D01*
X018299Y004094D01*
X018288Y004095D01*
X018278Y004093D01*
X018269Y004088D01*
X018261Y004081D01*
D37*
X019124Y003082D02*
X021131Y003082D01*
X021131Y005090D02*
X019124Y005090D01*
D38*
X022157Y004836D03*
X023057Y004836D03*
X023807Y004346D03*
X025107Y004986D03*
X026157Y004986D03*
X027757Y003586D03*
X026127Y003496D03*
X025107Y003496D03*
X024187Y003496D03*
X023157Y002126D03*
X024007Y001876D03*
X025117Y001876D03*
X026157Y001876D03*
X027357Y002286D03*
X029357Y002636D03*
X029357Y003936D03*
X022187Y002116D03*
X020857Y001636D03*
X020607Y006636D03*
X020757Y007886D03*
X018957Y008036D03*
M02*
