G75*
G70*
%OFA0B0*%
%FSLAX24Y24*%
%IPPOS*%
%LPD*%
%AMOC8*
5,1,8,0,0,1.08239X$1,22.5*
%
%ADD10C,0.0060*%
%ADD11C,0.0750*%
%ADD12C,0.1050*%
%ADD13R,0.0740X0.0740*%
%ADD14OC8,0.0740*%
%ADD15C,0.0055*%
%ADD16C,0.0515*%
%ADD17C,0.0043*%
%ADD18C,0.0039*%
%ADD19C,0.0063*%
%ADD20C,0.0600*%
%ADD21C,0.0039*%
%ADD22C,0.0079*%
%ADD23C,0.0436*%
%ADD24C,0.0100*%
%ADD25C,0.0320*%
%ADD26C,0.0160*%
%ADD27C,0.0500*%
%ADD28C,0.0554*%
%ADD29OC8,0.0440*%
%ADD30C,0.0240*%
%ADD31C,0.0827*%
%ADD32OC8,0.0717*%
D10*
X002844Y021710D02*
X002844Y022351D01*
X003057Y022351D02*
X002630Y022351D01*
X003275Y022244D02*
X003275Y021817D01*
X003381Y021710D01*
X003595Y021710D01*
X003702Y021817D01*
X003702Y022244D01*
X003595Y022351D01*
X003381Y022351D01*
X003275Y022244D01*
X003919Y022351D02*
X004239Y022351D01*
X004346Y022244D01*
X004346Y022030D01*
X004239Y021924D01*
X003919Y021924D01*
X003919Y021710D02*
X003919Y022351D01*
D11*
X020127Y004086D03*
D12*
X019124Y003082D03*
X021131Y003082D03*
X021131Y005090D03*
X019124Y005090D03*
D13*
X044543Y020774D03*
D14*
X045543Y020774D03*
X046543Y020774D03*
X046543Y021774D03*
X045543Y021774D03*
X044543Y021774D03*
D15*
X005716Y007253D02*
X005716Y006207D01*
X005716Y007253D02*
X006212Y007253D01*
X006212Y006207D01*
X005716Y006207D01*
X005716Y006261D02*
X006212Y006261D01*
X006212Y006315D02*
X005716Y006315D01*
X005716Y006369D02*
X006212Y006369D01*
X006212Y006423D02*
X005716Y006423D01*
X005716Y006477D02*
X006212Y006477D01*
X006212Y006531D02*
X005716Y006531D01*
X005716Y006585D02*
X006212Y006585D01*
X006212Y006639D02*
X005716Y006639D01*
X005716Y006693D02*
X006212Y006693D01*
X006212Y006747D02*
X005716Y006747D01*
X005716Y006801D02*
X006212Y006801D01*
X006212Y006855D02*
X005716Y006855D01*
X005716Y006909D02*
X006212Y006909D01*
X006212Y006963D02*
X005716Y006963D01*
X005716Y007017D02*
X006212Y007017D01*
X006212Y007071D02*
X005716Y007071D01*
X005716Y007125D02*
X006212Y007125D01*
X006212Y007179D02*
X005716Y007179D01*
X005716Y007233D02*
X006212Y007233D01*
X007488Y007253D02*
X007488Y006207D01*
X007488Y007253D02*
X007984Y007253D01*
X007984Y006207D01*
X007488Y006207D01*
X007488Y006261D02*
X007984Y006261D01*
X007984Y006315D02*
X007488Y006315D01*
X007488Y006369D02*
X007984Y006369D01*
X007984Y006423D02*
X007488Y006423D01*
X007488Y006477D02*
X007984Y006477D01*
X007984Y006531D02*
X007488Y006531D01*
X007488Y006585D02*
X007984Y006585D01*
X007984Y006639D02*
X007488Y006639D01*
X007488Y006693D02*
X007984Y006693D01*
X007984Y006747D02*
X007488Y006747D01*
X007488Y006801D02*
X007984Y006801D01*
X007984Y006855D02*
X007488Y006855D01*
X007488Y006909D02*
X007984Y006909D01*
X007984Y006963D02*
X007488Y006963D01*
X007488Y007017D02*
X007984Y007017D01*
X007984Y007071D02*
X007488Y007071D01*
X007488Y007125D02*
X007984Y007125D01*
X007984Y007179D02*
X007488Y007179D01*
X007488Y007233D02*
X007984Y007233D01*
X009716Y007253D02*
X009716Y006207D01*
X009716Y007253D02*
X010212Y007253D01*
X010212Y006207D01*
X009716Y006207D01*
X009716Y006261D02*
X010212Y006261D01*
X010212Y006315D02*
X009716Y006315D01*
X009716Y006369D02*
X010212Y006369D01*
X010212Y006423D02*
X009716Y006423D01*
X009716Y006477D02*
X010212Y006477D01*
X010212Y006531D02*
X009716Y006531D01*
X009716Y006585D02*
X010212Y006585D01*
X010212Y006639D02*
X009716Y006639D01*
X009716Y006693D02*
X010212Y006693D01*
X010212Y006747D02*
X009716Y006747D01*
X009716Y006801D02*
X010212Y006801D01*
X010212Y006855D02*
X009716Y006855D01*
X009716Y006909D02*
X010212Y006909D01*
X010212Y006963D02*
X009716Y006963D01*
X009716Y007017D02*
X010212Y007017D01*
X010212Y007071D02*
X009716Y007071D01*
X009716Y007125D02*
X010212Y007125D01*
X010212Y007179D02*
X009716Y007179D01*
X009716Y007233D02*
X010212Y007233D01*
X011488Y007253D02*
X011488Y006207D01*
X011488Y007253D02*
X011984Y007253D01*
X011984Y006207D01*
X011488Y006207D01*
X011488Y006261D02*
X011984Y006261D01*
X011984Y006315D02*
X011488Y006315D01*
X011488Y006369D02*
X011984Y006369D01*
X011984Y006423D02*
X011488Y006423D01*
X011488Y006477D02*
X011984Y006477D01*
X011984Y006531D02*
X011488Y006531D01*
X011488Y006585D02*
X011984Y006585D01*
X011984Y006639D02*
X011488Y006639D01*
X011488Y006693D02*
X011984Y006693D01*
X011984Y006747D02*
X011488Y006747D01*
X011488Y006801D02*
X011984Y006801D01*
X011984Y006855D02*
X011488Y006855D01*
X011488Y006909D02*
X011984Y006909D01*
X011984Y006963D02*
X011488Y006963D01*
X011488Y007017D02*
X011984Y007017D01*
X011984Y007071D02*
X011488Y007071D01*
X011488Y007125D02*
X011984Y007125D01*
X011984Y007179D02*
X011488Y007179D01*
X011488Y007233D02*
X011984Y007233D01*
X013716Y007253D02*
X013716Y006207D01*
X013716Y007253D02*
X014212Y007253D01*
X014212Y006207D01*
X013716Y006207D01*
X013716Y006261D02*
X014212Y006261D01*
X014212Y006315D02*
X013716Y006315D01*
X013716Y006369D02*
X014212Y006369D01*
X014212Y006423D02*
X013716Y006423D01*
X013716Y006477D02*
X014212Y006477D01*
X014212Y006531D02*
X013716Y006531D01*
X013716Y006585D02*
X014212Y006585D01*
X014212Y006639D02*
X013716Y006639D01*
X013716Y006693D02*
X014212Y006693D01*
X014212Y006747D02*
X013716Y006747D01*
X013716Y006801D02*
X014212Y006801D01*
X014212Y006855D02*
X013716Y006855D01*
X013716Y006909D02*
X014212Y006909D01*
X014212Y006963D02*
X013716Y006963D01*
X013716Y007017D02*
X014212Y007017D01*
X014212Y007071D02*
X013716Y007071D01*
X013716Y007125D02*
X014212Y007125D01*
X014212Y007179D02*
X013716Y007179D01*
X013716Y007233D02*
X014212Y007233D01*
X015488Y007253D02*
X015488Y006207D01*
X015488Y007253D02*
X015984Y007253D01*
X015984Y006207D01*
X015488Y006207D01*
X015488Y006261D02*
X015984Y006261D01*
X015984Y006315D02*
X015488Y006315D01*
X015488Y006369D02*
X015984Y006369D01*
X015984Y006423D02*
X015488Y006423D01*
X015488Y006477D02*
X015984Y006477D01*
X015984Y006531D02*
X015488Y006531D01*
X015488Y006585D02*
X015984Y006585D01*
X015984Y006639D02*
X015488Y006639D01*
X015488Y006693D02*
X015984Y006693D01*
X015984Y006747D02*
X015488Y006747D01*
X015488Y006801D02*
X015984Y006801D01*
X015984Y006855D02*
X015488Y006855D01*
X015488Y006909D02*
X015984Y006909D01*
X015984Y006963D02*
X015488Y006963D01*
X015488Y007017D02*
X015984Y007017D01*
X015984Y007071D02*
X015488Y007071D01*
X015488Y007125D02*
X015984Y007125D01*
X015984Y007179D02*
X015488Y007179D01*
X015488Y007233D02*
X015984Y007233D01*
X017716Y007253D02*
X017716Y006207D01*
X017716Y007253D02*
X018212Y007253D01*
X018212Y006207D01*
X017716Y006207D01*
X017716Y006261D02*
X018212Y006261D01*
X018212Y006315D02*
X017716Y006315D01*
X017716Y006369D02*
X018212Y006369D01*
X018212Y006423D02*
X017716Y006423D01*
X017716Y006477D02*
X018212Y006477D01*
X018212Y006531D02*
X017716Y006531D01*
X017716Y006585D02*
X018212Y006585D01*
X018212Y006639D02*
X017716Y006639D01*
X017716Y006693D02*
X018212Y006693D01*
X018212Y006747D02*
X017716Y006747D01*
X017716Y006801D02*
X018212Y006801D01*
X018212Y006855D02*
X017716Y006855D01*
X017716Y006909D02*
X018212Y006909D01*
X018212Y006963D02*
X017716Y006963D01*
X017716Y007017D02*
X018212Y007017D01*
X018212Y007071D02*
X017716Y007071D01*
X017716Y007125D02*
X018212Y007125D01*
X018212Y007179D02*
X017716Y007179D01*
X017716Y007233D02*
X018212Y007233D01*
X019488Y007253D02*
X019488Y006207D01*
X019488Y007253D02*
X019984Y007253D01*
X019984Y006207D01*
X019488Y006207D01*
X019488Y006261D02*
X019984Y006261D01*
X019984Y006315D02*
X019488Y006315D01*
X019488Y006369D02*
X019984Y006369D01*
X019984Y006423D02*
X019488Y006423D01*
X019488Y006477D02*
X019984Y006477D01*
X019984Y006531D02*
X019488Y006531D01*
X019488Y006585D02*
X019984Y006585D01*
X019984Y006639D02*
X019488Y006639D01*
X019488Y006693D02*
X019984Y006693D01*
X019984Y006747D02*
X019488Y006747D01*
X019488Y006801D02*
X019984Y006801D01*
X019984Y006855D02*
X019488Y006855D01*
X019488Y006909D02*
X019984Y006909D01*
X019984Y006963D02*
X019488Y006963D01*
X019488Y007017D02*
X019984Y007017D01*
X019984Y007071D02*
X019488Y007071D01*
X019488Y007125D02*
X019984Y007125D01*
X019984Y007179D02*
X019488Y007179D01*
X019488Y007233D02*
X019984Y007233D01*
X019488Y008107D02*
X019488Y009153D01*
X019984Y009153D01*
X019984Y008107D01*
X019488Y008107D01*
X019488Y008161D02*
X019984Y008161D01*
X019984Y008215D02*
X019488Y008215D01*
X019488Y008269D02*
X019984Y008269D01*
X019984Y008323D02*
X019488Y008323D01*
X019488Y008377D02*
X019984Y008377D01*
X019984Y008431D02*
X019488Y008431D01*
X019488Y008485D02*
X019984Y008485D01*
X019984Y008539D02*
X019488Y008539D01*
X019488Y008593D02*
X019984Y008593D01*
X019984Y008647D02*
X019488Y008647D01*
X019488Y008701D02*
X019984Y008701D01*
X019984Y008755D02*
X019488Y008755D01*
X019488Y008809D02*
X019984Y008809D01*
X019984Y008863D02*
X019488Y008863D01*
X019488Y008917D02*
X019984Y008917D01*
X019984Y008971D02*
X019488Y008971D01*
X019488Y009025D02*
X019984Y009025D01*
X019984Y009079D02*
X019488Y009079D01*
X019488Y009133D02*
X019984Y009133D01*
X017716Y009153D02*
X017716Y008107D01*
X017716Y009153D02*
X018212Y009153D01*
X018212Y008107D01*
X017716Y008107D01*
X017716Y008161D02*
X018212Y008161D01*
X018212Y008215D02*
X017716Y008215D01*
X017716Y008269D02*
X018212Y008269D01*
X018212Y008323D02*
X017716Y008323D01*
X017716Y008377D02*
X018212Y008377D01*
X018212Y008431D02*
X017716Y008431D01*
X017716Y008485D02*
X018212Y008485D01*
X018212Y008539D02*
X017716Y008539D01*
X017716Y008593D02*
X018212Y008593D01*
X018212Y008647D02*
X017716Y008647D01*
X017716Y008701D02*
X018212Y008701D01*
X018212Y008755D02*
X017716Y008755D01*
X017716Y008809D02*
X018212Y008809D01*
X018212Y008863D02*
X017716Y008863D01*
X017716Y008917D02*
X018212Y008917D01*
X018212Y008971D02*
X017716Y008971D01*
X017716Y009025D02*
X018212Y009025D01*
X018212Y009079D02*
X017716Y009079D01*
X017716Y009133D02*
X018212Y009133D01*
X015488Y009153D02*
X015488Y008107D01*
X015488Y009153D02*
X015984Y009153D01*
X015984Y008107D01*
X015488Y008107D01*
X015488Y008161D02*
X015984Y008161D01*
X015984Y008215D02*
X015488Y008215D01*
X015488Y008269D02*
X015984Y008269D01*
X015984Y008323D02*
X015488Y008323D01*
X015488Y008377D02*
X015984Y008377D01*
X015984Y008431D02*
X015488Y008431D01*
X015488Y008485D02*
X015984Y008485D01*
X015984Y008539D02*
X015488Y008539D01*
X015488Y008593D02*
X015984Y008593D01*
X015984Y008647D02*
X015488Y008647D01*
X015488Y008701D02*
X015984Y008701D01*
X015984Y008755D02*
X015488Y008755D01*
X015488Y008809D02*
X015984Y008809D01*
X015984Y008863D02*
X015488Y008863D01*
X015488Y008917D02*
X015984Y008917D01*
X015984Y008971D02*
X015488Y008971D01*
X015488Y009025D02*
X015984Y009025D01*
X015984Y009079D02*
X015488Y009079D01*
X015488Y009133D02*
X015984Y009133D01*
X013716Y009153D02*
X013716Y008107D01*
X013716Y009153D02*
X014212Y009153D01*
X014212Y008107D01*
X013716Y008107D01*
X013716Y008161D02*
X014212Y008161D01*
X014212Y008215D02*
X013716Y008215D01*
X013716Y008269D02*
X014212Y008269D01*
X014212Y008323D02*
X013716Y008323D01*
X013716Y008377D02*
X014212Y008377D01*
X014212Y008431D02*
X013716Y008431D01*
X013716Y008485D02*
X014212Y008485D01*
X014212Y008539D02*
X013716Y008539D01*
X013716Y008593D02*
X014212Y008593D01*
X014212Y008647D02*
X013716Y008647D01*
X013716Y008701D02*
X014212Y008701D01*
X014212Y008755D02*
X013716Y008755D01*
X013716Y008809D02*
X014212Y008809D01*
X014212Y008863D02*
X013716Y008863D01*
X013716Y008917D02*
X014212Y008917D01*
X014212Y008971D02*
X013716Y008971D01*
X013716Y009025D02*
X014212Y009025D01*
X014212Y009079D02*
X013716Y009079D01*
X013716Y009133D02*
X014212Y009133D01*
X011488Y009153D02*
X011488Y008107D01*
X011488Y009153D02*
X011984Y009153D01*
X011984Y008107D01*
X011488Y008107D01*
X011488Y008161D02*
X011984Y008161D01*
X011984Y008215D02*
X011488Y008215D01*
X011488Y008269D02*
X011984Y008269D01*
X011984Y008323D02*
X011488Y008323D01*
X011488Y008377D02*
X011984Y008377D01*
X011984Y008431D02*
X011488Y008431D01*
X011488Y008485D02*
X011984Y008485D01*
X011984Y008539D02*
X011488Y008539D01*
X011488Y008593D02*
X011984Y008593D01*
X011984Y008647D02*
X011488Y008647D01*
X011488Y008701D02*
X011984Y008701D01*
X011984Y008755D02*
X011488Y008755D01*
X011488Y008809D02*
X011984Y008809D01*
X011984Y008863D02*
X011488Y008863D01*
X011488Y008917D02*
X011984Y008917D01*
X011984Y008971D02*
X011488Y008971D01*
X011488Y009025D02*
X011984Y009025D01*
X011984Y009079D02*
X011488Y009079D01*
X011488Y009133D02*
X011984Y009133D01*
X009716Y009153D02*
X009716Y008107D01*
X009716Y009153D02*
X010212Y009153D01*
X010212Y008107D01*
X009716Y008107D01*
X009716Y008161D02*
X010212Y008161D01*
X010212Y008215D02*
X009716Y008215D01*
X009716Y008269D02*
X010212Y008269D01*
X010212Y008323D02*
X009716Y008323D01*
X009716Y008377D02*
X010212Y008377D01*
X010212Y008431D02*
X009716Y008431D01*
X009716Y008485D02*
X010212Y008485D01*
X010212Y008539D02*
X009716Y008539D01*
X009716Y008593D02*
X010212Y008593D01*
X010212Y008647D02*
X009716Y008647D01*
X009716Y008701D02*
X010212Y008701D01*
X010212Y008755D02*
X009716Y008755D01*
X009716Y008809D02*
X010212Y008809D01*
X010212Y008863D02*
X009716Y008863D01*
X009716Y008917D02*
X010212Y008917D01*
X010212Y008971D02*
X009716Y008971D01*
X009716Y009025D02*
X010212Y009025D01*
X010212Y009079D02*
X009716Y009079D01*
X009716Y009133D02*
X010212Y009133D01*
X007488Y009153D02*
X007488Y008107D01*
X007488Y009153D02*
X007984Y009153D01*
X007984Y008107D01*
X007488Y008107D01*
X007488Y008161D02*
X007984Y008161D01*
X007984Y008215D02*
X007488Y008215D01*
X007488Y008269D02*
X007984Y008269D01*
X007984Y008323D02*
X007488Y008323D01*
X007488Y008377D02*
X007984Y008377D01*
X007984Y008431D02*
X007488Y008431D01*
X007488Y008485D02*
X007984Y008485D01*
X007984Y008539D02*
X007488Y008539D01*
X007488Y008593D02*
X007984Y008593D01*
X007984Y008647D02*
X007488Y008647D01*
X007488Y008701D02*
X007984Y008701D01*
X007984Y008755D02*
X007488Y008755D01*
X007488Y008809D02*
X007984Y008809D01*
X007984Y008863D02*
X007488Y008863D01*
X007488Y008917D02*
X007984Y008917D01*
X007984Y008971D02*
X007488Y008971D01*
X007488Y009025D02*
X007984Y009025D01*
X007984Y009079D02*
X007488Y009079D01*
X007488Y009133D02*
X007984Y009133D01*
X005716Y009153D02*
X005716Y008107D01*
X005716Y009153D02*
X006212Y009153D01*
X006212Y008107D01*
X005716Y008107D01*
X005716Y008161D02*
X006212Y008161D01*
X006212Y008215D02*
X005716Y008215D01*
X005716Y008269D02*
X006212Y008269D01*
X006212Y008323D02*
X005716Y008323D01*
X005716Y008377D02*
X006212Y008377D01*
X006212Y008431D02*
X005716Y008431D01*
X005716Y008485D02*
X006212Y008485D01*
X006212Y008539D02*
X005716Y008539D01*
X005716Y008593D02*
X006212Y008593D01*
X006212Y008647D02*
X005716Y008647D01*
X005716Y008701D02*
X006212Y008701D01*
X006212Y008755D02*
X005716Y008755D01*
X005716Y008809D02*
X006212Y008809D01*
X006212Y008863D02*
X005716Y008863D01*
X005716Y008917D02*
X006212Y008917D01*
X006212Y008971D02*
X005716Y008971D01*
X005716Y009025D02*
X006212Y009025D01*
X006212Y009079D02*
X005716Y009079D01*
X005716Y009133D02*
X006212Y009133D01*
X005716Y010207D02*
X005716Y011253D01*
X006212Y011253D01*
X006212Y010207D01*
X005716Y010207D01*
X005716Y010261D02*
X006212Y010261D01*
X006212Y010315D02*
X005716Y010315D01*
X005716Y010369D02*
X006212Y010369D01*
X006212Y010423D02*
X005716Y010423D01*
X005716Y010477D02*
X006212Y010477D01*
X006212Y010531D02*
X005716Y010531D01*
X005716Y010585D02*
X006212Y010585D01*
X006212Y010639D02*
X005716Y010639D01*
X005716Y010693D02*
X006212Y010693D01*
X006212Y010747D02*
X005716Y010747D01*
X005716Y010801D02*
X006212Y010801D01*
X006212Y010855D02*
X005716Y010855D01*
X005716Y010909D02*
X006212Y010909D01*
X006212Y010963D02*
X005716Y010963D01*
X005716Y011017D02*
X006212Y011017D01*
X006212Y011071D02*
X005716Y011071D01*
X005716Y011125D02*
X006212Y011125D01*
X006212Y011179D02*
X005716Y011179D01*
X005716Y011233D02*
X006212Y011233D01*
X007488Y011253D02*
X007488Y010207D01*
X007488Y011253D02*
X007984Y011253D01*
X007984Y010207D01*
X007488Y010207D01*
X007488Y010261D02*
X007984Y010261D01*
X007984Y010315D02*
X007488Y010315D01*
X007488Y010369D02*
X007984Y010369D01*
X007984Y010423D02*
X007488Y010423D01*
X007488Y010477D02*
X007984Y010477D01*
X007984Y010531D02*
X007488Y010531D01*
X007488Y010585D02*
X007984Y010585D01*
X007984Y010639D02*
X007488Y010639D01*
X007488Y010693D02*
X007984Y010693D01*
X007984Y010747D02*
X007488Y010747D01*
X007488Y010801D02*
X007984Y010801D01*
X007984Y010855D02*
X007488Y010855D01*
X007488Y010909D02*
X007984Y010909D01*
X007984Y010963D02*
X007488Y010963D01*
X007488Y011017D02*
X007984Y011017D01*
X007984Y011071D02*
X007488Y011071D01*
X007488Y011125D02*
X007984Y011125D01*
X007984Y011179D02*
X007488Y011179D01*
X007488Y011233D02*
X007984Y011233D01*
X009716Y011253D02*
X009716Y010207D01*
X009716Y011253D02*
X010212Y011253D01*
X010212Y010207D01*
X009716Y010207D01*
X009716Y010261D02*
X010212Y010261D01*
X010212Y010315D02*
X009716Y010315D01*
X009716Y010369D02*
X010212Y010369D01*
X010212Y010423D02*
X009716Y010423D01*
X009716Y010477D02*
X010212Y010477D01*
X010212Y010531D02*
X009716Y010531D01*
X009716Y010585D02*
X010212Y010585D01*
X010212Y010639D02*
X009716Y010639D01*
X009716Y010693D02*
X010212Y010693D01*
X010212Y010747D02*
X009716Y010747D01*
X009716Y010801D02*
X010212Y010801D01*
X010212Y010855D02*
X009716Y010855D01*
X009716Y010909D02*
X010212Y010909D01*
X010212Y010963D02*
X009716Y010963D01*
X009716Y011017D02*
X010212Y011017D01*
X010212Y011071D02*
X009716Y011071D01*
X009716Y011125D02*
X010212Y011125D01*
X010212Y011179D02*
X009716Y011179D01*
X009716Y011233D02*
X010212Y011233D01*
X011488Y011253D02*
X011488Y010207D01*
X011488Y011253D02*
X011984Y011253D01*
X011984Y010207D01*
X011488Y010207D01*
X011488Y010261D02*
X011984Y010261D01*
X011984Y010315D02*
X011488Y010315D01*
X011488Y010369D02*
X011984Y010369D01*
X011984Y010423D02*
X011488Y010423D01*
X011488Y010477D02*
X011984Y010477D01*
X011984Y010531D02*
X011488Y010531D01*
X011488Y010585D02*
X011984Y010585D01*
X011984Y010639D02*
X011488Y010639D01*
X011488Y010693D02*
X011984Y010693D01*
X011984Y010747D02*
X011488Y010747D01*
X011488Y010801D02*
X011984Y010801D01*
X011984Y010855D02*
X011488Y010855D01*
X011488Y010909D02*
X011984Y010909D01*
X011984Y010963D02*
X011488Y010963D01*
X011488Y011017D02*
X011984Y011017D01*
X011984Y011071D02*
X011488Y011071D01*
X011488Y011125D02*
X011984Y011125D01*
X011984Y011179D02*
X011488Y011179D01*
X011488Y011233D02*
X011984Y011233D01*
X013716Y011253D02*
X013716Y010207D01*
X013716Y011253D02*
X014212Y011253D01*
X014212Y010207D01*
X013716Y010207D01*
X013716Y010261D02*
X014212Y010261D01*
X014212Y010315D02*
X013716Y010315D01*
X013716Y010369D02*
X014212Y010369D01*
X014212Y010423D02*
X013716Y010423D01*
X013716Y010477D02*
X014212Y010477D01*
X014212Y010531D02*
X013716Y010531D01*
X013716Y010585D02*
X014212Y010585D01*
X014212Y010639D02*
X013716Y010639D01*
X013716Y010693D02*
X014212Y010693D01*
X014212Y010747D02*
X013716Y010747D01*
X013716Y010801D02*
X014212Y010801D01*
X014212Y010855D02*
X013716Y010855D01*
X013716Y010909D02*
X014212Y010909D01*
X014212Y010963D02*
X013716Y010963D01*
X013716Y011017D02*
X014212Y011017D01*
X014212Y011071D02*
X013716Y011071D01*
X013716Y011125D02*
X014212Y011125D01*
X014212Y011179D02*
X013716Y011179D01*
X013716Y011233D02*
X014212Y011233D01*
X015488Y011253D02*
X015488Y010207D01*
X015488Y011253D02*
X015984Y011253D01*
X015984Y010207D01*
X015488Y010207D01*
X015488Y010261D02*
X015984Y010261D01*
X015984Y010315D02*
X015488Y010315D01*
X015488Y010369D02*
X015984Y010369D01*
X015984Y010423D02*
X015488Y010423D01*
X015488Y010477D02*
X015984Y010477D01*
X015984Y010531D02*
X015488Y010531D01*
X015488Y010585D02*
X015984Y010585D01*
X015984Y010639D02*
X015488Y010639D01*
X015488Y010693D02*
X015984Y010693D01*
X015984Y010747D02*
X015488Y010747D01*
X015488Y010801D02*
X015984Y010801D01*
X015984Y010855D02*
X015488Y010855D01*
X015488Y010909D02*
X015984Y010909D01*
X015984Y010963D02*
X015488Y010963D01*
X015488Y011017D02*
X015984Y011017D01*
X015984Y011071D02*
X015488Y011071D01*
X015488Y011125D02*
X015984Y011125D01*
X015984Y011179D02*
X015488Y011179D01*
X015488Y011233D02*
X015984Y011233D01*
X017716Y011253D02*
X017716Y010207D01*
X017716Y011253D02*
X018212Y011253D01*
X018212Y010207D01*
X017716Y010207D01*
X017716Y010261D02*
X018212Y010261D01*
X018212Y010315D02*
X017716Y010315D01*
X017716Y010369D02*
X018212Y010369D01*
X018212Y010423D02*
X017716Y010423D01*
X017716Y010477D02*
X018212Y010477D01*
X018212Y010531D02*
X017716Y010531D01*
X017716Y010585D02*
X018212Y010585D01*
X018212Y010639D02*
X017716Y010639D01*
X017716Y010693D02*
X018212Y010693D01*
X018212Y010747D02*
X017716Y010747D01*
X017716Y010801D02*
X018212Y010801D01*
X018212Y010855D02*
X017716Y010855D01*
X017716Y010909D02*
X018212Y010909D01*
X018212Y010963D02*
X017716Y010963D01*
X017716Y011017D02*
X018212Y011017D01*
X018212Y011071D02*
X017716Y011071D01*
X017716Y011125D02*
X018212Y011125D01*
X018212Y011179D02*
X017716Y011179D01*
X017716Y011233D02*
X018212Y011233D01*
X019488Y011253D02*
X019488Y010207D01*
X019488Y011253D02*
X019984Y011253D01*
X019984Y010207D01*
X019488Y010207D01*
X019488Y010261D02*
X019984Y010261D01*
X019984Y010315D02*
X019488Y010315D01*
X019488Y010369D02*
X019984Y010369D01*
X019984Y010423D02*
X019488Y010423D01*
X019488Y010477D02*
X019984Y010477D01*
X019984Y010531D02*
X019488Y010531D01*
X019488Y010585D02*
X019984Y010585D01*
X019984Y010639D02*
X019488Y010639D01*
X019488Y010693D02*
X019984Y010693D01*
X019984Y010747D02*
X019488Y010747D01*
X019488Y010801D02*
X019984Y010801D01*
X019984Y010855D02*
X019488Y010855D01*
X019488Y010909D02*
X019984Y010909D01*
X019984Y010963D02*
X019488Y010963D01*
X019488Y011017D02*
X019984Y011017D01*
X019984Y011071D02*
X019488Y011071D01*
X019488Y011125D02*
X019984Y011125D01*
X019984Y011179D02*
X019488Y011179D01*
X019488Y011233D02*
X019984Y011233D01*
X021466Y011253D02*
X021466Y010207D01*
X021466Y011253D02*
X021962Y011253D01*
X021962Y010207D01*
X021466Y010207D01*
X021466Y010261D02*
X021962Y010261D01*
X021962Y010315D02*
X021466Y010315D01*
X021466Y010369D02*
X021962Y010369D01*
X021962Y010423D02*
X021466Y010423D01*
X021466Y010477D02*
X021962Y010477D01*
X021962Y010531D02*
X021466Y010531D01*
X021466Y010585D02*
X021962Y010585D01*
X021962Y010639D02*
X021466Y010639D01*
X021466Y010693D02*
X021962Y010693D01*
X021962Y010747D02*
X021466Y010747D01*
X021466Y010801D02*
X021962Y010801D01*
X021962Y010855D02*
X021466Y010855D01*
X021466Y010909D02*
X021962Y010909D01*
X021962Y010963D02*
X021466Y010963D01*
X021466Y011017D02*
X021962Y011017D01*
X021962Y011071D02*
X021466Y011071D01*
X021466Y011125D02*
X021962Y011125D01*
X021962Y011179D02*
X021466Y011179D01*
X021466Y011233D02*
X021962Y011233D01*
X023238Y011253D02*
X023238Y010207D01*
X023238Y011253D02*
X023734Y011253D01*
X023734Y010207D01*
X023238Y010207D01*
X023238Y010261D02*
X023734Y010261D01*
X023734Y010315D02*
X023238Y010315D01*
X023238Y010369D02*
X023734Y010369D01*
X023734Y010423D02*
X023238Y010423D01*
X023238Y010477D02*
X023734Y010477D01*
X023734Y010531D02*
X023238Y010531D01*
X023238Y010585D02*
X023734Y010585D01*
X023734Y010639D02*
X023238Y010639D01*
X023238Y010693D02*
X023734Y010693D01*
X023734Y010747D02*
X023238Y010747D01*
X023238Y010801D02*
X023734Y010801D01*
X023734Y010855D02*
X023238Y010855D01*
X023238Y010909D02*
X023734Y010909D01*
X023734Y010963D02*
X023238Y010963D01*
X023238Y011017D02*
X023734Y011017D01*
X023734Y011071D02*
X023238Y011071D01*
X023238Y011125D02*
X023734Y011125D01*
X023734Y011179D02*
X023238Y011179D01*
X023238Y011233D02*
X023734Y011233D01*
X024466Y011253D02*
X024466Y010207D01*
X024466Y011253D02*
X024962Y011253D01*
X024962Y010207D01*
X024466Y010207D01*
X024466Y010261D02*
X024962Y010261D01*
X024962Y010315D02*
X024466Y010315D01*
X024466Y010369D02*
X024962Y010369D01*
X024962Y010423D02*
X024466Y010423D01*
X024466Y010477D02*
X024962Y010477D01*
X024962Y010531D02*
X024466Y010531D01*
X024466Y010585D02*
X024962Y010585D01*
X024962Y010639D02*
X024466Y010639D01*
X024466Y010693D02*
X024962Y010693D01*
X024962Y010747D02*
X024466Y010747D01*
X024466Y010801D02*
X024962Y010801D01*
X024962Y010855D02*
X024466Y010855D01*
X024466Y010909D02*
X024962Y010909D01*
X024962Y010963D02*
X024466Y010963D01*
X024466Y011017D02*
X024962Y011017D01*
X024962Y011071D02*
X024466Y011071D01*
X024466Y011125D02*
X024962Y011125D01*
X024962Y011179D02*
X024466Y011179D01*
X024466Y011233D02*
X024962Y011233D01*
X026238Y011253D02*
X026238Y010207D01*
X026238Y011253D02*
X026734Y011253D01*
X026734Y010207D01*
X026238Y010207D01*
X026238Y010261D02*
X026734Y010261D01*
X026734Y010315D02*
X026238Y010315D01*
X026238Y010369D02*
X026734Y010369D01*
X026734Y010423D02*
X026238Y010423D01*
X026238Y010477D02*
X026734Y010477D01*
X026734Y010531D02*
X026238Y010531D01*
X026238Y010585D02*
X026734Y010585D01*
X026734Y010639D02*
X026238Y010639D01*
X026238Y010693D02*
X026734Y010693D01*
X026734Y010747D02*
X026238Y010747D01*
X026238Y010801D02*
X026734Y010801D01*
X026734Y010855D02*
X026238Y010855D01*
X026238Y010909D02*
X026734Y010909D01*
X026734Y010963D02*
X026238Y010963D01*
X026238Y011017D02*
X026734Y011017D01*
X026734Y011071D02*
X026238Y011071D01*
X026238Y011125D02*
X026734Y011125D01*
X026734Y011179D02*
X026238Y011179D01*
X026238Y011233D02*
X026734Y011233D01*
X026238Y012107D02*
X026238Y013153D01*
X026734Y013153D01*
X026734Y012107D01*
X026238Y012107D01*
X026238Y012161D02*
X026734Y012161D01*
X026734Y012215D02*
X026238Y012215D01*
X026238Y012269D02*
X026734Y012269D01*
X026734Y012323D02*
X026238Y012323D01*
X026238Y012377D02*
X026734Y012377D01*
X026734Y012431D02*
X026238Y012431D01*
X026238Y012485D02*
X026734Y012485D01*
X026734Y012539D02*
X026238Y012539D01*
X026238Y012593D02*
X026734Y012593D01*
X026734Y012647D02*
X026238Y012647D01*
X026238Y012701D02*
X026734Y012701D01*
X026734Y012755D02*
X026238Y012755D01*
X026238Y012809D02*
X026734Y012809D01*
X026734Y012863D02*
X026238Y012863D01*
X026238Y012917D02*
X026734Y012917D01*
X026734Y012971D02*
X026238Y012971D01*
X026238Y013025D02*
X026734Y013025D01*
X026734Y013079D02*
X026238Y013079D01*
X026238Y013133D02*
X026734Y013133D01*
X024466Y013153D02*
X024466Y012107D01*
X024466Y013153D02*
X024962Y013153D01*
X024962Y012107D01*
X024466Y012107D01*
X024466Y012161D02*
X024962Y012161D01*
X024962Y012215D02*
X024466Y012215D01*
X024466Y012269D02*
X024962Y012269D01*
X024962Y012323D02*
X024466Y012323D01*
X024466Y012377D02*
X024962Y012377D01*
X024962Y012431D02*
X024466Y012431D01*
X024466Y012485D02*
X024962Y012485D01*
X024962Y012539D02*
X024466Y012539D01*
X024466Y012593D02*
X024962Y012593D01*
X024962Y012647D02*
X024466Y012647D01*
X024466Y012701D02*
X024962Y012701D01*
X024962Y012755D02*
X024466Y012755D01*
X024466Y012809D02*
X024962Y012809D01*
X024962Y012863D02*
X024466Y012863D01*
X024466Y012917D02*
X024962Y012917D01*
X024962Y012971D02*
X024466Y012971D01*
X024466Y013025D02*
X024962Y013025D01*
X024962Y013079D02*
X024466Y013079D01*
X024466Y013133D02*
X024962Y013133D01*
X023238Y013153D02*
X023238Y012107D01*
X023238Y013153D02*
X023734Y013153D01*
X023734Y012107D01*
X023238Y012107D01*
X023238Y012161D02*
X023734Y012161D01*
X023734Y012215D02*
X023238Y012215D01*
X023238Y012269D02*
X023734Y012269D01*
X023734Y012323D02*
X023238Y012323D01*
X023238Y012377D02*
X023734Y012377D01*
X023734Y012431D02*
X023238Y012431D01*
X023238Y012485D02*
X023734Y012485D01*
X023734Y012539D02*
X023238Y012539D01*
X023238Y012593D02*
X023734Y012593D01*
X023734Y012647D02*
X023238Y012647D01*
X023238Y012701D02*
X023734Y012701D01*
X023734Y012755D02*
X023238Y012755D01*
X023238Y012809D02*
X023734Y012809D01*
X023734Y012863D02*
X023238Y012863D01*
X023238Y012917D02*
X023734Y012917D01*
X023734Y012971D02*
X023238Y012971D01*
X023238Y013025D02*
X023734Y013025D01*
X023734Y013079D02*
X023238Y013079D01*
X023238Y013133D02*
X023734Y013133D01*
X021466Y013153D02*
X021466Y012107D01*
X021466Y013153D02*
X021962Y013153D01*
X021962Y012107D01*
X021466Y012107D01*
X021466Y012161D02*
X021962Y012161D01*
X021962Y012215D02*
X021466Y012215D01*
X021466Y012269D02*
X021962Y012269D01*
X021962Y012323D02*
X021466Y012323D01*
X021466Y012377D02*
X021962Y012377D01*
X021962Y012431D02*
X021466Y012431D01*
X021466Y012485D02*
X021962Y012485D01*
X021962Y012539D02*
X021466Y012539D01*
X021466Y012593D02*
X021962Y012593D01*
X021962Y012647D02*
X021466Y012647D01*
X021466Y012701D02*
X021962Y012701D01*
X021962Y012755D02*
X021466Y012755D01*
X021466Y012809D02*
X021962Y012809D01*
X021962Y012863D02*
X021466Y012863D01*
X021466Y012917D02*
X021962Y012917D01*
X021962Y012971D02*
X021466Y012971D01*
X021466Y013025D02*
X021962Y013025D01*
X021962Y013079D02*
X021466Y013079D01*
X021466Y013133D02*
X021962Y013133D01*
X019488Y013153D02*
X019488Y012107D01*
X019488Y013153D02*
X019984Y013153D01*
X019984Y012107D01*
X019488Y012107D01*
X019488Y012161D02*
X019984Y012161D01*
X019984Y012215D02*
X019488Y012215D01*
X019488Y012269D02*
X019984Y012269D01*
X019984Y012323D02*
X019488Y012323D01*
X019488Y012377D02*
X019984Y012377D01*
X019984Y012431D02*
X019488Y012431D01*
X019488Y012485D02*
X019984Y012485D01*
X019984Y012539D02*
X019488Y012539D01*
X019488Y012593D02*
X019984Y012593D01*
X019984Y012647D02*
X019488Y012647D01*
X019488Y012701D02*
X019984Y012701D01*
X019984Y012755D02*
X019488Y012755D01*
X019488Y012809D02*
X019984Y012809D01*
X019984Y012863D02*
X019488Y012863D01*
X019488Y012917D02*
X019984Y012917D01*
X019984Y012971D02*
X019488Y012971D01*
X019488Y013025D02*
X019984Y013025D01*
X019984Y013079D02*
X019488Y013079D01*
X019488Y013133D02*
X019984Y013133D01*
X017716Y013153D02*
X017716Y012107D01*
X017716Y013153D02*
X018212Y013153D01*
X018212Y012107D01*
X017716Y012107D01*
X017716Y012161D02*
X018212Y012161D01*
X018212Y012215D02*
X017716Y012215D01*
X017716Y012269D02*
X018212Y012269D01*
X018212Y012323D02*
X017716Y012323D01*
X017716Y012377D02*
X018212Y012377D01*
X018212Y012431D02*
X017716Y012431D01*
X017716Y012485D02*
X018212Y012485D01*
X018212Y012539D02*
X017716Y012539D01*
X017716Y012593D02*
X018212Y012593D01*
X018212Y012647D02*
X017716Y012647D01*
X017716Y012701D02*
X018212Y012701D01*
X018212Y012755D02*
X017716Y012755D01*
X017716Y012809D02*
X018212Y012809D01*
X018212Y012863D02*
X017716Y012863D01*
X017716Y012917D02*
X018212Y012917D01*
X018212Y012971D02*
X017716Y012971D01*
X017716Y013025D02*
X018212Y013025D01*
X018212Y013079D02*
X017716Y013079D01*
X017716Y013133D02*
X018212Y013133D01*
X015488Y013153D02*
X015488Y012107D01*
X015488Y013153D02*
X015984Y013153D01*
X015984Y012107D01*
X015488Y012107D01*
X015488Y012161D02*
X015984Y012161D01*
X015984Y012215D02*
X015488Y012215D01*
X015488Y012269D02*
X015984Y012269D01*
X015984Y012323D02*
X015488Y012323D01*
X015488Y012377D02*
X015984Y012377D01*
X015984Y012431D02*
X015488Y012431D01*
X015488Y012485D02*
X015984Y012485D01*
X015984Y012539D02*
X015488Y012539D01*
X015488Y012593D02*
X015984Y012593D01*
X015984Y012647D02*
X015488Y012647D01*
X015488Y012701D02*
X015984Y012701D01*
X015984Y012755D02*
X015488Y012755D01*
X015488Y012809D02*
X015984Y012809D01*
X015984Y012863D02*
X015488Y012863D01*
X015488Y012917D02*
X015984Y012917D01*
X015984Y012971D02*
X015488Y012971D01*
X015488Y013025D02*
X015984Y013025D01*
X015984Y013079D02*
X015488Y013079D01*
X015488Y013133D02*
X015984Y013133D01*
X013716Y013153D02*
X013716Y012107D01*
X013716Y013153D02*
X014212Y013153D01*
X014212Y012107D01*
X013716Y012107D01*
X013716Y012161D02*
X014212Y012161D01*
X014212Y012215D02*
X013716Y012215D01*
X013716Y012269D02*
X014212Y012269D01*
X014212Y012323D02*
X013716Y012323D01*
X013716Y012377D02*
X014212Y012377D01*
X014212Y012431D02*
X013716Y012431D01*
X013716Y012485D02*
X014212Y012485D01*
X014212Y012539D02*
X013716Y012539D01*
X013716Y012593D02*
X014212Y012593D01*
X014212Y012647D02*
X013716Y012647D01*
X013716Y012701D02*
X014212Y012701D01*
X014212Y012755D02*
X013716Y012755D01*
X013716Y012809D02*
X014212Y012809D01*
X014212Y012863D02*
X013716Y012863D01*
X013716Y012917D02*
X014212Y012917D01*
X014212Y012971D02*
X013716Y012971D01*
X013716Y013025D02*
X014212Y013025D01*
X014212Y013079D02*
X013716Y013079D01*
X013716Y013133D02*
X014212Y013133D01*
X011488Y013153D02*
X011488Y012107D01*
X011488Y013153D02*
X011984Y013153D01*
X011984Y012107D01*
X011488Y012107D01*
X011488Y012161D02*
X011984Y012161D01*
X011984Y012215D02*
X011488Y012215D01*
X011488Y012269D02*
X011984Y012269D01*
X011984Y012323D02*
X011488Y012323D01*
X011488Y012377D02*
X011984Y012377D01*
X011984Y012431D02*
X011488Y012431D01*
X011488Y012485D02*
X011984Y012485D01*
X011984Y012539D02*
X011488Y012539D01*
X011488Y012593D02*
X011984Y012593D01*
X011984Y012647D02*
X011488Y012647D01*
X011488Y012701D02*
X011984Y012701D01*
X011984Y012755D02*
X011488Y012755D01*
X011488Y012809D02*
X011984Y012809D01*
X011984Y012863D02*
X011488Y012863D01*
X011488Y012917D02*
X011984Y012917D01*
X011984Y012971D02*
X011488Y012971D01*
X011488Y013025D02*
X011984Y013025D01*
X011984Y013079D02*
X011488Y013079D01*
X011488Y013133D02*
X011984Y013133D01*
X009716Y013153D02*
X009716Y012107D01*
X009716Y013153D02*
X010212Y013153D01*
X010212Y012107D01*
X009716Y012107D01*
X009716Y012161D02*
X010212Y012161D01*
X010212Y012215D02*
X009716Y012215D01*
X009716Y012269D02*
X010212Y012269D01*
X010212Y012323D02*
X009716Y012323D01*
X009716Y012377D02*
X010212Y012377D01*
X010212Y012431D02*
X009716Y012431D01*
X009716Y012485D02*
X010212Y012485D01*
X010212Y012539D02*
X009716Y012539D01*
X009716Y012593D02*
X010212Y012593D01*
X010212Y012647D02*
X009716Y012647D01*
X009716Y012701D02*
X010212Y012701D01*
X010212Y012755D02*
X009716Y012755D01*
X009716Y012809D02*
X010212Y012809D01*
X010212Y012863D02*
X009716Y012863D01*
X009716Y012917D02*
X010212Y012917D01*
X010212Y012971D02*
X009716Y012971D01*
X009716Y013025D02*
X010212Y013025D01*
X010212Y013079D02*
X009716Y013079D01*
X009716Y013133D02*
X010212Y013133D01*
X007488Y013153D02*
X007488Y012107D01*
X007488Y013153D02*
X007984Y013153D01*
X007984Y012107D01*
X007488Y012107D01*
X007488Y012161D02*
X007984Y012161D01*
X007984Y012215D02*
X007488Y012215D01*
X007488Y012269D02*
X007984Y012269D01*
X007984Y012323D02*
X007488Y012323D01*
X007488Y012377D02*
X007984Y012377D01*
X007984Y012431D02*
X007488Y012431D01*
X007488Y012485D02*
X007984Y012485D01*
X007984Y012539D02*
X007488Y012539D01*
X007488Y012593D02*
X007984Y012593D01*
X007984Y012647D02*
X007488Y012647D01*
X007488Y012701D02*
X007984Y012701D01*
X007984Y012755D02*
X007488Y012755D01*
X007488Y012809D02*
X007984Y012809D01*
X007984Y012863D02*
X007488Y012863D01*
X007488Y012917D02*
X007984Y012917D01*
X007984Y012971D02*
X007488Y012971D01*
X007488Y013025D02*
X007984Y013025D01*
X007984Y013079D02*
X007488Y013079D01*
X007488Y013133D02*
X007984Y013133D01*
X005716Y013153D02*
X005716Y012107D01*
X005716Y013153D02*
X006212Y013153D01*
X006212Y012107D01*
X005716Y012107D01*
X005716Y012161D02*
X006212Y012161D01*
X006212Y012215D02*
X005716Y012215D01*
X005716Y012269D02*
X006212Y012269D01*
X006212Y012323D02*
X005716Y012323D01*
X005716Y012377D02*
X006212Y012377D01*
X006212Y012431D02*
X005716Y012431D01*
X005716Y012485D02*
X006212Y012485D01*
X006212Y012539D02*
X005716Y012539D01*
X005716Y012593D02*
X006212Y012593D01*
X006212Y012647D02*
X005716Y012647D01*
X005716Y012701D02*
X006212Y012701D01*
X006212Y012755D02*
X005716Y012755D01*
X005716Y012809D02*
X006212Y012809D01*
X006212Y012863D02*
X005716Y012863D01*
X005716Y012917D02*
X006212Y012917D01*
X006212Y012971D02*
X005716Y012971D01*
X005716Y013025D02*
X006212Y013025D01*
X006212Y013079D02*
X005716Y013079D01*
X005716Y013133D02*
X006212Y013133D01*
X005716Y014207D02*
X005716Y015253D01*
X006212Y015253D01*
X006212Y014207D01*
X005716Y014207D01*
X005716Y014261D02*
X006212Y014261D01*
X006212Y014315D02*
X005716Y014315D01*
X005716Y014369D02*
X006212Y014369D01*
X006212Y014423D02*
X005716Y014423D01*
X005716Y014477D02*
X006212Y014477D01*
X006212Y014531D02*
X005716Y014531D01*
X005716Y014585D02*
X006212Y014585D01*
X006212Y014639D02*
X005716Y014639D01*
X005716Y014693D02*
X006212Y014693D01*
X006212Y014747D02*
X005716Y014747D01*
X005716Y014801D02*
X006212Y014801D01*
X006212Y014855D02*
X005716Y014855D01*
X005716Y014909D02*
X006212Y014909D01*
X006212Y014963D02*
X005716Y014963D01*
X005716Y015017D02*
X006212Y015017D01*
X006212Y015071D02*
X005716Y015071D01*
X005716Y015125D02*
X006212Y015125D01*
X006212Y015179D02*
X005716Y015179D01*
X005716Y015233D02*
X006212Y015233D01*
X007488Y015253D02*
X007488Y014207D01*
X007488Y015253D02*
X007984Y015253D01*
X007984Y014207D01*
X007488Y014207D01*
X007488Y014261D02*
X007984Y014261D01*
X007984Y014315D02*
X007488Y014315D01*
X007488Y014369D02*
X007984Y014369D01*
X007984Y014423D02*
X007488Y014423D01*
X007488Y014477D02*
X007984Y014477D01*
X007984Y014531D02*
X007488Y014531D01*
X007488Y014585D02*
X007984Y014585D01*
X007984Y014639D02*
X007488Y014639D01*
X007488Y014693D02*
X007984Y014693D01*
X007984Y014747D02*
X007488Y014747D01*
X007488Y014801D02*
X007984Y014801D01*
X007984Y014855D02*
X007488Y014855D01*
X007488Y014909D02*
X007984Y014909D01*
X007984Y014963D02*
X007488Y014963D01*
X007488Y015017D02*
X007984Y015017D01*
X007984Y015071D02*
X007488Y015071D01*
X007488Y015125D02*
X007984Y015125D01*
X007984Y015179D02*
X007488Y015179D01*
X007488Y015233D02*
X007984Y015233D01*
X009716Y015253D02*
X009716Y014207D01*
X009716Y015253D02*
X010212Y015253D01*
X010212Y014207D01*
X009716Y014207D01*
X009716Y014261D02*
X010212Y014261D01*
X010212Y014315D02*
X009716Y014315D01*
X009716Y014369D02*
X010212Y014369D01*
X010212Y014423D02*
X009716Y014423D01*
X009716Y014477D02*
X010212Y014477D01*
X010212Y014531D02*
X009716Y014531D01*
X009716Y014585D02*
X010212Y014585D01*
X010212Y014639D02*
X009716Y014639D01*
X009716Y014693D02*
X010212Y014693D01*
X010212Y014747D02*
X009716Y014747D01*
X009716Y014801D02*
X010212Y014801D01*
X010212Y014855D02*
X009716Y014855D01*
X009716Y014909D02*
X010212Y014909D01*
X010212Y014963D02*
X009716Y014963D01*
X009716Y015017D02*
X010212Y015017D01*
X010212Y015071D02*
X009716Y015071D01*
X009716Y015125D02*
X010212Y015125D01*
X010212Y015179D02*
X009716Y015179D01*
X009716Y015233D02*
X010212Y015233D01*
X011488Y015253D02*
X011488Y014207D01*
X011488Y015253D02*
X011984Y015253D01*
X011984Y014207D01*
X011488Y014207D01*
X011488Y014261D02*
X011984Y014261D01*
X011984Y014315D02*
X011488Y014315D01*
X011488Y014369D02*
X011984Y014369D01*
X011984Y014423D02*
X011488Y014423D01*
X011488Y014477D02*
X011984Y014477D01*
X011984Y014531D02*
X011488Y014531D01*
X011488Y014585D02*
X011984Y014585D01*
X011984Y014639D02*
X011488Y014639D01*
X011488Y014693D02*
X011984Y014693D01*
X011984Y014747D02*
X011488Y014747D01*
X011488Y014801D02*
X011984Y014801D01*
X011984Y014855D02*
X011488Y014855D01*
X011488Y014909D02*
X011984Y014909D01*
X011984Y014963D02*
X011488Y014963D01*
X011488Y015017D02*
X011984Y015017D01*
X011984Y015071D02*
X011488Y015071D01*
X011488Y015125D02*
X011984Y015125D01*
X011984Y015179D02*
X011488Y015179D01*
X011488Y015233D02*
X011984Y015233D01*
X013716Y015253D02*
X013716Y014207D01*
X013716Y015253D02*
X014212Y015253D01*
X014212Y014207D01*
X013716Y014207D01*
X013716Y014261D02*
X014212Y014261D01*
X014212Y014315D02*
X013716Y014315D01*
X013716Y014369D02*
X014212Y014369D01*
X014212Y014423D02*
X013716Y014423D01*
X013716Y014477D02*
X014212Y014477D01*
X014212Y014531D02*
X013716Y014531D01*
X013716Y014585D02*
X014212Y014585D01*
X014212Y014639D02*
X013716Y014639D01*
X013716Y014693D02*
X014212Y014693D01*
X014212Y014747D02*
X013716Y014747D01*
X013716Y014801D02*
X014212Y014801D01*
X014212Y014855D02*
X013716Y014855D01*
X013716Y014909D02*
X014212Y014909D01*
X014212Y014963D02*
X013716Y014963D01*
X013716Y015017D02*
X014212Y015017D01*
X014212Y015071D02*
X013716Y015071D01*
X013716Y015125D02*
X014212Y015125D01*
X014212Y015179D02*
X013716Y015179D01*
X013716Y015233D02*
X014212Y015233D01*
X015488Y015253D02*
X015488Y014207D01*
X015488Y015253D02*
X015984Y015253D01*
X015984Y014207D01*
X015488Y014207D01*
X015488Y014261D02*
X015984Y014261D01*
X015984Y014315D02*
X015488Y014315D01*
X015488Y014369D02*
X015984Y014369D01*
X015984Y014423D02*
X015488Y014423D01*
X015488Y014477D02*
X015984Y014477D01*
X015984Y014531D02*
X015488Y014531D01*
X015488Y014585D02*
X015984Y014585D01*
X015984Y014639D02*
X015488Y014639D01*
X015488Y014693D02*
X015984Y014693D01*
X015984Y014747D02*
X015488Y014747D01*
X015488Y014801D02*
X015984Y014801D01*
X015984Y014855D02*
X015488Y014855D01*
X015488Y014909D02*
X015984Y014909D01*
X015984Y014963D02*
X015488Y014963D01*
X015488Y015017D02*
X015984Y015017D01*
X015984Y015071D02*
X015488Y015071D01*
X015488Y015125D02*
X015984Y015125D01*
X015984Y015179D02*
X015488Y015179D01*
X015488Y015233D02*
X015984Y015233D01*
X017716Y015253D02*
X017716Y014207D01*
X017716Y015253D02*
X018212Y015253D01*
X018212Y014207D01*
X017716Y014207D01*
X017716Y014261D02*
X018212Y014261D01*
X018212Y014315D02*
X017716Y014315D01*
X017716Y014369D02*
X018212Y014369D01*
X018212Y014423D02*
X017716Y014423D01*
X017716Y014477D02*
X018212Y014477D01*
X018212Y014531D02*
X017716Y014531D01*
X017716Y014585D02*
X018212Y014585D01*
X018212Y014639D02*
X017716Y014639D01*
X017716Y014693D02*
X018212Y014693D01*
X018212Y014747D02*
X017716Y014747D01*
X017716Y014801D02*
X018212Y014801D01*
X018212Y014855D02*
X017716Y014855D01*
X017716Y014909D02*
X018212Y014909D01*
X018212Y014963D02*
X017716Y014963D01*
X017716Y015017D02*
X018212Y015017D01*
X018212Y015071D02*
X017716Y015071D01*
X017716Y015125D02*
X018212Y015125D01*
X018212Y015179D02*
X017716Y015179D01*
X017716Y015233D02*
X018212Y015233D01*
X019488Y015253D02*
X019488Y014207D01*
X019488Y015253D02*
X019984Y015253D01*
X019984Y014207D01*
X019488Y014207D01*
X019488Y014261D02*
X019984Y014261D01*
X019984Y014315D02*
X019488Y014315D01*
X019488Y014369D02*
X019984Y014369D01*
X019984Y014423D02*
X019488Y014423D01*
X019488Y014477D02*
X019984Y014477D01*
X019984Y014531D02*
X019488Y014531D01*
X019488Y014585D02*
X019984Y014585D01*
X019984Y014639D02*
X019488Y014639D01*
X019488Y014693D02*
X019984Y014693D01*
X019984Y014747D02*
X019488Y014747D01*
X019488Y014801D02*
X019984Y014801D01*
X019984Y014855D02*
X019488Y014855D01*
X019488Y014909D02*
X019984Y014909D01*
X019984Y014963D02*
X019488Y014963D01*
X019488Y015017D02*
X019984Y015017D01*
X019984Y015071D02*
X019488Y015071D01*
X019488Y015125D02*
X019984Y015125D01*
X019984Y015179D02*
X019488Y015179D01*
X019488Y015233D02*
X019984Y015233D01*
X019488Y016107D02*
X019488Y017153D01*
X019984Y017153D01*
X019984Y016107D01*
X019488Y016107D01*
X019488Y016161D02*
X019984Y016161D01*
X019984Y016215D02*
X019488Y016215D01*
X019488Y016269D02*
X019984Y016269D01*
X019984Y016323D02*
X019488Y016323D01*
X019488Y016377D02*
X019984Y016377D01*
X019984Y016431D02*
X019488Y016431D01*
X019488Y016485D02*
X019984Y016485D01*
X019984Y016539D02*
X019488Y016539D01*
X019488Y016593D02*
X019984Y016593D01*
X019984Y016647D02*
X019488Y016647D01*
X019488Y016701D02*
X019984Y016701D01*
X019984Y016755D02*
X019488Y016755D01*
X019488Y016809D02*
X019984Y016809D01*
X019984Y016863D02*
X019488Y016863D01*
X019488Y016917D02*
X019984Y016917D01*
X019984Y016971D02*
X019488Y016971D01*
X019488Y017025D02*
X019984Y017025D01*
X019984Y017079D02*
X019488Y017079D01*
X019488Y017133D02*
X019984Y017133D01*
X017716Y017153D02*
X017716Y016107D01*
X017716Y017153D02*
X018212Y017153D01*
X018212Y016107D01*
X017716Y016107D01*
X017716Y016161D02*
X018212Y016161D01*
X018212Y016215D02*
X017716Y016215D01*
X017716Y016269D02*
X018212Y016269D01*
X018212Y016323D02*
X017716Y016323D01*
X017716Y016377D02*
X018212Y016377D01*
X018212Y016431D02*
X017716Y016431D01*
X017716Y016485D02*
X018212Y016485D01*
X018212Y016539D02*
X017716Y016539D01*
X017716Y016593D02*
X018212Y016593D01*
X018212Y016647D02*
X017716Y016647D01*
X017716Y016701D02*
X018212Y016701D01*
X018212Y016755D02*
X017716Y016755D01*
X017716Y016809D02*
X018212Y016809D01*
X018212Y016863D02*
X017716Y016863D01*
X017716Y016917D02*
X018212Y016917D01*
X018212Y016971D02*
X017716Y016971D01*
X017716Y017025D02*
X018212Y017025D01*
X018212Y017079D02*
X017716Y017079D01*
X017716Y017133D02*
X018212Y017133D01*
X015488Y017153D02*
X015488Y016107D01*
X015488Y017153D02*
X015984Y017153D01*
X015984Y016107D01*
X015488Y016107D01*
X015488Y016161D02*
X015984Y016161D01*
X015984Y016215D02*
X015488Y016215D01*
X015488Y016269D02*
X015984Y016269D01*
X015984Y016323D02*
X015488Y016323D01*
X015488Y016377D02*
X015984Y016377D01*
X015984Y016431D02*
X015488Y016431D01*
X015488Y016485D02*
X015984Y016485D01*
X015984Y016539D02*
X015488Y016539D01*
X015488Y016593D02*
X015984Y016593D01*
X015984Y016647D02*
X015488Y016647D01*
X015488Y016701D02*
X015984Y016701D01*
X015984Y016755D02*
X015488Y016755D01*
X015488Y016809D02*
X015984Y016809D01*
X015984Y016863D02*
X015488Y016863D01*
X015488Y016917D02*
X015984Y016917D01*
X015984Y016971D02*
X015488Y016971D01*
X015488Y017025D02*
X015984Y017025D01*
X015984Y017079D02*
X015488Y017079D01*
X015488Y017133D02*
X015984Y017133D01*
X013716Y017153D02*
X013716Y016107D01*
X013716Y017153D02*
X014212Y017153D01*
X014212Y016107D01*
X013716Y016107D01*
X013716Y016161D02*
X014212Y016161D01*
X014212Y016215D02*
X013716Y016215D01*
X013716Y016269D02*
X014212Y016269D01*
X014212Y016323D02*
X013716Y016323D01*
X013716Y016377D02*
X014212Y016377D01*
X014212Y016431D02*
X013716Y016431D01*
X013716Y016485D02*
X014212Y016485D01*
X014212Y016539D02*
X013716Y016539D01*
X013716Y016593D02*
X014212Y016593D01*
X014212Y016647D02*
X013716Y016647D01*
X013716Y016701D02*
X014212Y016701D01*
X014212Y016755D02*
X013716Y016755D01*
X013716Y016809D02*
X014212Y016809D01*
X014212Y016863D02*
X013716Y016863D01*
X013716Y016917D02*
X014212Y016917D01*
X014212Y016971D02*
X013716Y016971D01*
X013716Y017025D02*
X014212Y017025D01*
X014212Y017079D02*
X013716Y017079D01*
X013716Y017133D02*
X014212Y017133D01*
X011488Y017153D02*
X011488Y016107D01*
X011488Y017153D02*
X011984Y017153D01*
X011984Y016107D01*
X011488Y016107D01*
X011488Y016161D02*
X011984Y016161D01*
X011984Y016215D02*
X011488Y016215D01*
X011488Y016269D02*
X011984Y016269D01*
X011984Y016323D02*
X011488Y016323D01*
X011488Y016377D02*
X011984Y016377D01*
X011984Y016431D02*
X011488Y016431D01*
X011488Y016485D02*
X011984Y016485D01*
X011984Y016539D02*
X011488Y016539D01*
X011488Y016593D02*
X011984Y016593D01*
X011984Y016647D02*
X011488Y016647D01*
X011488Y016701D02*
X011984Y016701D01*
X011984Y016755D02*
X011488Y016755D01*
X011488Y016809D02*
X011984Y016809D01*
X011984Y016863D02*
X011488Y016863D01*
X011488Y016917D02*
X011984Y016917D01*
X011984Y016971D02*
X011488Y016971D01*
X011488Y017025D02*
X011984Y017025D01*
X011984Y017079D02*
X011488Y017079D01*
X011488Y017133D02*
X011984Y017133D01*
X009716Y017153D02*
X009716Y016107D01*
X009716Y017153D02*
X010212Y017153D01*
X010212Y016107D01*
X009716Y016107D01*
X009716Y016161D02*
X010212Y016161D01*
X010212Y016215D02*
X009716Y016215D01*
X009716Y016269D02*
X010212Y016269D01*
X010212Y016323D02*
X009716Y016323D01*
X009716Y016377D02*
X010212Y016377D01*
X010212Y016431D02*
X009716Y016431D01*
X009716Y016485D02*
X010212Y016485D01*
X010212Y016539D02*
X009716Y016539D01*
X009716Y016593D02*
X010212Y016593D01*
X010212Y016647D02*
X009716Y016647D01*
X009716Y016701D02*
X010212Y016701D01*
X010212Y016755D02*
X009716Y016755D01*
X009716Y016809D02*
X010212Y016809D01*
X010212Y016863D02*
X009716Y016863D01*
X009716Y016917D02*
X010212Y016917D01*
X010212Y016971D02*
X009716Y016971D01*
X009716Y017025D02*
X010212Y017025D01*
X010212Y017079D02*
X009716Y017079D01*
X009716Y017133D02*
X010212Y017133D01*
X007488Y017153D02*
X007488Y016107D01*
X007488Y017153D02*
X007984Y017153D01*
X007984Y016107D01*
X007488Y016107D01*
X007488Y016161D02*
X007984Y016161D01*
X007984Y016215D02*
X007488Y016215D01*
X007488Y016269D02*
X007984Y016269D01*
X007984Y016323D02*
X007488Y016323D01*
X007488Y016377D02*
X007984Y016377D01*
X007984Y016431D02*
X007488Y016431D01*
X007488Y016485D02*
X007984Y016485D01*
X007984Y016539D02*
X007488Y016539D01*
X007488Y016593D02*
X007984Y016593D01*
X007984Y016647D02*
X007488Y016647D01*
X007488Y016701D02*
X007984Y016701D01*
X007984Y016755D02*
X007488Y016755D01*
X007488Y016809D02*
X007984Y016809D01*
X007984Y016863D02*
X007488Y016863D01*
X007488Y016917D02*
X007984Y016917D01*
X007984Y016971D02*
X007488Y016971D01*
X007488Y017025D02*
X007984Y017025D01*
X007984Y017079D02*
X007488Y017079D01*
X007488Y017133D02*
X007984Y017133D01*
X005716Y017153D02*
X005716Y016107D01*
X005716Y017153D02*
X006212Y017153D01*
X006212Y016107D01*
X005716Y016107D01*
X005716Y016161D02*
X006212Y016161D01*
X006212Y016215D02*
X005716Y016215D01*
X005716Y016269D02*
X006212Y016269D01*
X006212Y016323D02*
X005716Y016323D01*
X005716Y016377D02*
X006212Y016377D01*
X006212Y016431D02*
X005716Y016431D01*
X005716Y016485D02*
X006212Y016485D01*
X006212Y016539D02*
X005716Y016539D01*
X005716Y016593D02*
X006212Y016593D01*
X006212Y016647D02*
X005716Y016647D01*
X005716Y016701D02*
X006212Y016701D01*
X006212Y016755D02*
X005716Y016755D01*
X005716Y016809D02*
X006212Y016809D01*
X006212Y016863D02*
X005716Y016863D01*
X005716Y016917D02*
X006212Y016917D01*
X006212Y016971D02*
X005716Y016971D01*
X005716Y017025D02*
X006212Y017025D01*
X006212Y017079D02*
X005716Y017079D01*
X005716Y017133D02*
X006212Y017133D01*
X022966Y017153D02*
X022966Y016107D01*
X022966Y017153D02*
X023462Y017153D01*
X023462Y016107D01*
X022966Y016107D01*
X022966Y016161D02*
X023462Y016161D01*
X023462Y016215D02*
X022966Y016215D01*
X022966Y016269D02*
X023462Y016269D01*
X023462Y016323D02*
X022966Y016323D01*
X022966Y016377D02*
X023462Y016377D01*
X023462Y016431D02*
X022966Y016431D01*
X022966Y016485D02*
X023462Y016485D01*
X023462Y016539D02*
X022966Y016539D01*
X022966Y016593D02*
X023462Y016593D01*
X023462Y016647D02*
X022966Y016647D01*
X022966Y016701D02*
X023462Y016701D01*
X023462Y016755D02*
X022966Y016755D01*
X022966Y016809D02*
X023462Y016809D01*
X023462Y016863D02*
X022966Y016863D01*
X022966Y016917D02*
X023462Y016917D01*
X023462Y016971D02*
X022966Y016971D01*
X022966Y017025D02*
X023462Y017025D01*
X023462Y017079D02*
X022966Y017079D01*
X022966Y017133D02*
X023462Y017133D01*
X024738Y017153D02*
X024738Y016107D01*
X024738Y017153D02*
X025234Y017153D01*
X025234Y016107D01*
X024738Y016107D01*
X024738Y016161D02*
X025234Y016161D01*
X025234Y016215D02*
X024738Y016215D01*
X024738Y016269D02*
X025234Y016269D01*
X025234Y016323D02*
X024738Y016323D01*
X024738Y016377D02*
X025234Y016377D01*
X025234Y016431D02*
X024738Y016431D01*
X024738Y016485D02*
X025234Y016485D01*
X025234Y016539D02*
X024738Y016539D01*
X024738Y016593D02*
X025234Y016593D01*
X025234Y016647D02*
X024738Y016647D01*
X024738Y016701D02*
X025234Y016701D01*
X025234Y016755D02*
X024738Y016755D01*
X024738Y016809D02*
X025234Y016809D01*
X025234Y016863D02*
X024738Y016863D01*
X024738Y016917D02*
X025234Y016917D01*
X025234Y016971D02*
X024738Y016971D01*
X024738Y017025D02*
X025234Y017025D01*
X025234Y017079D02*
X024738Y017079D01*
X024738Y017133D02*
X025234Y017133D01*
X024738Y015253D02*
X024738Y014207D01*
X024738Y015253D02*
X025234Y015253D01*
X025234Y014207D01*
X024738Y014207D01*
X024738Y014261D02*
X025234Y014261D01*
X025234Y014315D02*
X024738Y014315D01*
X024738Y014369D02*
X025234Y014369D01*
X025234Y014423D02*
X024738Y014423D01*
X024738Y014477D02*
X025234Y014477D01*
X025234Y014531D02*
X024738Y014531D01*
X024738Y014585D02*
X025234Y014585D01*
X025234Y014639D02*
X024738Y014639D01*
X024738Y014693D02*
X025234Y014693D01*
X025234Y014747D02*
X024738Y014747D01*
X024738Y014801D02*
X025234Y014801D01*
X025234Y014855D02*
X024738Y014855D01*
X024738Y014909D02*
X025234Y014909D01*
X025234Y014963D02*
X024738Y014963D01*
X024738Y015017D02*
X025234Y015017D01*
X025234Y015071D02*
X024738Y015071D01*
X024738Y015125D02*
X025234Y015125D01*
X025234Y015179D02*
X024738Y015179D01*
X024738Y015233D02*
X025234Y015233D01*
X022966Y015253D02*
X022966Y014207D01*
X022966Y015253D02*
X023462Y015253D01*
X023462Y014207D01*
X022966Y014207D01*
X022966Y014261D02*
X023462Y014261D01*
X023462Y014315D02*
X022966Y014315D01*
X022966Y014369D02*
X023462Y014369D01*
X023462Y014423D02*
X022966Y014423D01*
X022966Y014477D02*
X023462Y014477D01*
X023462Y014531D02*
X022966Y014531D01*
X022966Y014585D02*
X023462Y014585D01*
X023462Y014639D02*
X022966Y014639D01*
X022966Y014693D02*
X023462Y014693D01*
X023462Y014747D02*
X022966Y014747D01*
X022966Y014801D02*
X023462Y014801D01*
X023462Y014855D02*
X022966Y014855D01*
X022966Y014909D02*
X023462Y014909D01*
X023462Y014963D02*
X022966Y014963D01*
X022966Y015017D02*
X023462Y015017D01*
X023462Y015071D02*
X022966Y015071D01*
X022966Y015125D02*
X023462Y015125D01*
X023462Y015179D02*
X022966Y015179D01*
X022966Y015233D02*
X023462Y015233D01*
X022966Y009153D02*
X022966Y008107D01*
X022966Y009153D02*
X023462Y009153D01*
X023462Y008107D01*
X022966Y008107D01*
X022966Y008161D02*
X023462Y008161D01*
X023462Y008215D02*
X022966Y008215D01*
X022966Y008269D02*
X023462Y008269D01*
X023462Y008323D02*
X022966Y008323D01*
X022966Y008377D02*
X023462Y008377D01*
X023462Y008431D02*
X022966Y008431D01*
X022966Y008485D02*
X023462Y008485D01*
X023462Y008539D02*
X022966Y008539D01*
X022966Y008593D02*
X023462Y008593D01*
X023462Y008647D02*
X022966Y008647D01*
X022966Y008701D02*
X023462Y008701D01*
X023462Y008755D02*
X022966Y008755D01*
X022966Y008809D02*
X023462Y008809D01*
X023462Y008863D02*
X022966Y008863D01*
X022966Y008917D02*
X023462Y008917D01*
X023462Y008971D02*
X022966Y008971D01*
X022966Y009025D02*
X023462Y009025D01*
X023462Y009079D02*
X022966Y009079D01*
X022966Y009133D02*
X023462Y009133D01*
X024738Y009153D02*
X024738Y008107D01*
X024738Y009153D02*
X025234Y009153D01*
X025234Y008107D01*
X024738Y008107D01*
X024738Y008161D02*
X025234Y008161D01*
X025234Y008215D02*
X024738Y008215D01*
X024738Y008269D02*
X025234Y008269D01*
X025234Y008323D02*
X024738Y008323D01*
X024738Y008377D02*
X025234Y008377D01*
X025234Y008431D02*
X024738Y008431D01*
X024738Y008485D02*
X025234Y008485D01*
X025234Y008539D02*
X024738Y008539D01*
X024738Y008593D02*
X025234Y008593D01*
X025234Y008647D02*
X024738Y008647D01*
X024738Y008701D02*
X025234Y008701D01*
X025234Y008755D02*
X024738Y008755D01*
X024738Y008809D02*
X025234Y008809D01*
X025234Y008863D02*
X024738Y008863D01*
X024738Y008917D02*
X025234Y008917D01*
X025234Y008971D02*
X024738Y008971D01*
X024738Y009025D02*
X025234Y009025D01*
X025234Y009079D02*
X024738Y009079D01*
X024738Y009133D02*
X025234Y009133D01*
X024738Y007253D02*
X024738Y006207D01*
X024738Y007253D02*
X025234Y007253D01*
X025234Y006207D01*
X024738Y006207D01*
X024738Y006261D02*
X025234Y006261D01*
X025234Y006315D02*
X024738Y006315D01*
X024738Y006369D02*
X025234Y006369D01*
X025234Y006423D02*
X024738Y006423D01*
X024738Y006477D02*
X025234Y006477D01*
X025234Y006531D02*
X024738Y006531D01*
X024738Y006585D02*
X025234Y006585D01*
X025234Y006639D02*
X024738Y006639D01*
X024738Y006693D02*
X025234Y006693D01*
X025234Y006747D02*
X024738Y006747D01*
X024738Y006801D02*
X025234Y006801D01*
X025234Y006855D02*
X024738Y006855D01*
X024738Y006909D02*
X025234Y006909D01*
X025234Y006963D02*
X024738Y006963D01*
X024738Y007017D02*
X025234Y007017D01*
X025234Y007071D02*
X024738Y007071D01*
X024738Y007125D02*
X025234Y007125D01*
X025234Y007179D02*
X024738Y007179D01*
X024738Y007233D02*
X025234Y007233D01*
X022966Y007253D02*
X022966Y006207D01*
X022966Y007253D02*
X023462Y007253D01*
X023462Y006207D01*
X022966Y006207D01*
X022966Y006261D02*
X023462Y006261D01*
X023462Y006315D02*
X022966Y006315D01*
X022966Y006369D02*
X023462Y006369D01*
X023462Y006423D02*
X022966Y006423D01*
X022966Y006477D02*
X023462Y006477D01*
X023462Y006531D02*
X022966Y006531D01*
X022966Y006585D02*
X023462Y006585D01*
X023462Y006639D02*
X022966Y006639D01*
X022966Y006693D02*
X023462Y006693D01*
X023462Y006747D02*
X022966Y006747D01*
X022966Y006801D02*
X023462Y006801D01*
X023462Y006855D02*
X022966Y006855D01*
X022966Y006909D02*
X023462Y006909D01*
X023462Y006963D02*
X022966Y006963D01*
X022966Y007017D02*
X023462Y007017D01*
X023462Y007071D02*
X022966Y007071D01*
X022966Y007125D02*
X023462Y007125D01*
X023462Y007179D02*
X022966Y007179D01*
X022966Y007233D02*
X023462Y007233D01*
X046602Y005176D02*
X046602Y004680D01*
X046602Y005176D02*
X047098Y005176D01*
X047098Y004680D01*
X046602Y004680D01*
X046602Y004734D02*
X047098Y004734D01*
X047098Y004788D02*
X046602Y004788D01*
X046602Y004842D02*
X047098Y004842D01*
X047098Y004896D02*
X046602Y004896D01*
X046602Y004950D02*
X047098Y004950D01*
X047098Y005004D02*
X046602Y005004D01*
X046602Y005058D02*
X047098Y005058D01*
X047098Y005112D02*
X046602Y005112D01*
X046602Y005166D02*
X047098Y005166D01*
X046602Y003680D02*
X046602Y003184D01*
X046602Y003680D02*
X047098Y003680D01*
X047098Y003184D01*
X046602Y003184D01*
X046602Y003238D02*
X047098Y003238D01*
X047098Y003292D02*
X046602Y003292D01*
X046602Y003346D02*
X047098Y003346D01*
X047098Y003400D02*
X046602Y003400D01*
X046602Y003454D02*
X047098Y003454D01*
X047098Y003508D02*
X046602Y003508D01*
X046602Y003562D02*
X047098Y003562D01*
X047098Y003616D02*
X046602Y003616D01*
X046602Y003670D02*
X047098Y003670D01*
D16*
X044474Y008180D03*
X044474Y009180D03*
X044474Y010180D03*
X044474Y011180D03*
X044474Y012180D03*
X044474Y013180D03*
X044474Y014180D03*
X044474Y015180D03*
X028726Y015180D03*
X028726Y014180D03*
X028726Y013180D03*
X028726Y012180D03*
X028726Y011180D03*
X028726Y010180D03*
X028726Y009180D03*
X028726Y008180D03*
D17*
X047905Y005399D02*
X047905Y004929D01*
X047905Y005399D02*
X048295Y005399D01*
X048295Y004929D01*
X047905Y004929D01*
X047905Y004971D02*
X048295Y004971D01*
X048295Y005013D02*
X047905Y005013D01*
X047905Y005055D02*
X048295Y005055D01*
X048295Y005097D02*
X047905Y005097D01*
X047905Y005139D02*
X048295Y005139D01*
X048295Y005181D02*
X047905Y005181D01*
X047905Y005223D02*
X048295Y005223D01*
X048295Y005265D02*
X047905Y005265D01*
X047905Y005307D02*
X048295Y005307D01*
X048295Y005349D02*
X047905Y005349D01*
X047905Y005391D02*
X048295Y005391D01*
X049283Y005399D02*
X049283Y004929D01*
X049283Y005399D02*
X049673Y005399D01*
X049673Y004929D01*
X049283Y004929D01*
X049283Y004971D02*
X049673Y004971D01*
X049673Y005013D02*
X049283Y005013D01*
X049283Y005055D02*
X049673Y005055D01*
X049673Y005097D02*
X049283Y005097D01*
X049283Y005139D02*
X049673Y005139D01*
X049673Y005181D02*
X049283Y005181D01*
X049283Y005223D02*
X049673Y005223D01*
X049673Y005265D02*
X049283Y005265D01*
X049283Y005307D02*
X049673Y005307D01*
X049673Y005349D02*
X049283Y005349D01*
X049283Y005391D02*
X049673Y005391D01*
X047905Y003431D02*
X047905Y002961D01*
X047905Y003431D02*
X048295Y003431D01*
X048295Y002961D01*
X047905Y002961D01*
X047905Y003003D02*
X048295Y003003D01*
X048295Y003045D02*
X047905Y003045D01*
X047905Y003087D02*
X048295Y003087D01*
X048295Y003129D02*
X047905Y003129D01*
X047905Y003171D02*
X048295Y003171D01*
X048295Y003213D02*
X047905Y003213D01*
X047905Y003255D02*
X048295Y003255D01*
X048295Y003297D02*
X047905Y003297D01*
X047905Y003339D02*
X048295Y003339D01*
X048295Y003381D02*
X047905Y003381D01*
X047905Y003423D02*
X048295Y003423D01*
D18*
X050539Y002982D02*
X050539Y002626D01*
X050027Y002626D01*
X050027Y002982D01*
X050539Y002982D01*
X050539Y002664D02*
X050027Y002664D01*
X050027Y002702D02*
X050539Y002702D01*
X050539Y002740D02*
X050027Y002740D01*
X050027Y002778D02*
X050539Y002778D01*
X050539Y002816D02*
X050027Y002816D01*
X050027Y002854D02*
X050539Y002854D01*
X050539Y002892D02*
X050027Y002892D01*
X050027Y002930D02*
X050539Y002930D01*
X050539Y002968D02*
X050027Y002968D01*
X049673Y002608D02*
X049673Y002252D01*
X049161Y002252D01*
X049161Y002608D01*
X049673Y002608D01*
X049673Y002290D02*
X049161Y002290D01*
X049161Y002328D02*
X049673Y002328D01*
X049673Y002366D02*
X049161Y002366D01*
X049161Y002404D02*
X049673Y002404D01*
X049673Y002442D02*
X049161Y002442D01*
X049161Y002480D02*
X049673Y002480D01*
X049673Y002518D02*
X049161Y002518D01*
X049161Y002556D02*
X049673Y002556D01*
X049673Y002594D02*
X049161Y002594D01*
X050539Y002234D02*
X050539Y001878D01*
X050027Y001878D01*
X050027Y002234D01*
X050539Y002234D01*
X050539Y001916D02*
X050027Y001916D01*
X050027Y001954D02*
X050539Y001954D01*
X050539Y001992D02*
X050027Y001992D01*
X050027Y002030D02*
X050539Y002030D01*
X050539Y002068D02*
X050027Y002068D01*
X050027Y002106D02*
X050539Y002106D01*
X050539Y002144D02*
X050027Y002144D01*
X050027Y002182D02*
X050539Y002182D01*
X050539Y002220D02*
X050027Y002220D01*
X008451Y019523D02*
X008451Y020469D01*
X008609Y020469D01*
X008609Y019523D01*
X008451Y019523D01*
X008451Y019561D02*
X008609Y019561D01*
X008609Y019599D02*
X008451Y019599D01*
X008451Y019637D02*
X008609Y019637D01*
X008609Y019675D02*
X008451Y019675D01*
X008451Y019713D02*
X008609Y019713D01*
X008609Y019751D02*
X008451Y019751D01*
X008451Y019789D02*
X008609Y019789D01*
X008609Y019827D02*
X008451Y019827D01*
X008451Y019865D02*
X008609Y019865D01*
X008609Y019903D02*
X008451Y019903D01*
X008451Y019941D02*
X008609Y019941D01*
X008609Y019979D02*
X008451Y019979D01*
X008451Y020017D02*
X008609Y020017D01*
X008609Y020055D02*
X008451Y020055D01*
X008451Y020093D02*
X008609Y020093D01*
X008609Y020131D02*
X008451Y020131D01*
X008451Y020169D02*
X008609Y020169D01*
X008609Y020207D02*
X008451Y020207D01*
X008451Y020245D02*
X008609Y020245D01*
X008609Y020283D02*
X008451Y020283D01*
X008451Y020321D02*
X008609Y020321D01*
X008609Y020359D02*
X008451Y020359D01*
X008451Y020397D02*
X008609Y020397D01*
X008609Y020435D02*
X008451Y020435D01*
X008136Y020469D02*
X008136Y019523D01*
X008136Y020469D02*
X008294Y020469D01*
X008294Y019523D01*
X008136Y019523D01*
X008136Y019561D02*
X008294Y019561D01*
X008294Y019599D02*
X008136Y019599D01*
X008136Y019637D02*
X008294Y019637D01*
X008294Y019675D02*
X008136Y019675D01*
X008136Y019713D02*
X008294Y019713D01*
X008294Y019751D02*
X008136Y019751D01*
X008136Y019789D02*
X008294Y019789D01*
X008294Y019827D02*
X008136Y019827D01*
X008136Y019865D02*
X008294Y019865D01*
X008294Y019903D02*
X008136Y019903D01*
X008136Y019941D02*
X008294Y019941D01*
X008294Y019979D02*
X008136Y019979D01*
X008136Y020017D02*
X008294Y020017D01*
X008294Y020055D02*
X008136Y020055D01*
X008136Y020093D02*
X008294Y020093D01*
X008294Y020131D02*
X008136Y020131D01*
X008136Y020169D02*
X008294Y020169D01*
X008294Y020207D02*
X008136Y020207D01*
X008136Y020245D02*
X008294Y020245D01*
X008294Y020283D02*
X008136Y020283D01*
X008136Y020321D02*
X008294Y020321D01*
X008294Y020359D02*
X008136Y020359D01*
X008136Y020397D02*
X008294Y020397D01*
X008294Y020435D02*
X008136Y020435D01*
X007821Y020469D02*
X007821Y019523D01*
X007821Y020469D02*
X007979Y020469D01*
X007979Y019523D01*
X007821Y019523D01*
X007821Y019561D02*
X007979Y019561D01*
X007979Y019599D02*
X007821Y019599D01*
X007821Y019637D02*
X007979Y019637D01*
X007979Y019675D02*
X007821Y019675D01*
X007821Y019713D02*
X007979Y019713D01*
X007979Y019751D02*
X007821Y019751D01*
X007821Y019789D02*
X007979Y019789D01*
X007979Y019827D02*
X007821Y019827D01*
X007821Y019865D02*
X007979Y019865D01*
X007979Y019903D02*
X007821Y019903D01*
X007821Y019941D02*
X007979Y019941D01*
X007979Y019979D02*
X007821Y019979D01*
X007821Y020017D02*
X007979Y020017D01*
X007979Y020055D02*
X007821Y020055D01*
X007821Y020093D02*
X007979Y020093D01*
X007979Y020131D02*
X007821Y020131D01*
X007821Y020169D02*
X007979Y020169D01*
X007979Y020207D02*
X007821Y020207D01*
X007821Y020245D02*
X007979Y020245D01*
X007979Y020283D02*
X007821Y020283D01*
X007821Y020321D02*
X007979Y020321D01*
X007979Y020359D02*
X007821Y020359D01*
X007821Y020397D02*
X007979Y020397D01*
X007979Y020435D02*
X007821Y020435D01*
X007506Y020469D02*
X007506Y019523D01*
X007506Y020469D02*
X007664Y020469D01*
X007664Y019523D01*
X007506Y019523D01*
X007506Y019561D02*
X007664Y019561D01*
X007664Y019599D02*
X007506Y019599D01*
X007506Y019637D02*
X007664Y019637D01*
X007664Y019675D02*
X007506Y019675D01*
X007506Y019713D02*
X007664Y019713D01*
X007664Y019751D02*
X007506Y019751D01*
X007506Y019789D02*
X007664Y019789D01*
X007664Y019827D02*
X007506Y019827D01*
X007506Y019865D02*
X007664Y019865D01*
X007664Y019903D02*
X007506Y019903D01*
X007506Y019941D02*
X007664Y019941D01*
X007664Y019979D02*
X007506Y019979D01*
X007506Y020017D02*
X007664Y020017D01*
X007664Y020055D02*
X007506Y020055D01*
X007506Y020093D02*
X007664Y020093D01*
X007664Y020131D02*
X007506Y020131D01*
X007506Y020169D02*
X007664Y020169D01*
X007664Y020207D02*
X007506Y020207D01*
X007506Y020245D02*
X007664Y020245D01*
X007664Y020283D02*
X007506Y020283D01*
X007506Y020321D02*
X007664Y020321D01*
X007664Y020359D02*
X007506Y020359D01*
X007506Y020397D02*
X007664Y020397D01*
X007664Y020435D02*
X007506Y020435D01*
X007191Y020469D02*
X007191Y019523D01*
X007191Y020469D02*
X007349Y020469D01*
X007349Y019523D01*
X007191Y019523D01*
X007191Y019561D02*
X007349Y019561D01*
X007349Y019599D02*
X007191Y019599D01*
X007191Y019637D02*
X007349Y019637D01*
X007349Y019675D02*
X007191Y019675D01*
X007191Y019713D02*
X007349Y019713D01*
X007349Y019751D02*
X007191Y019751D01*
X007191Y019789D02*
X007349Y019789D01*
X007349Y019827D02*
X007191Y019827D01*
X007191Y019865D02*
X007349Y019865D01*
X007349Y019903D02*
X007191Y019903D01*
X007191Y019941D02*
X007349Y019941D01*
X007349Y019979D02*
X007191Y019979D01*
X007191Y020017D02*
X007349Y020017D01*
X007349Y020055D02*
X007191Y020055D01*
X007191Y020093D02*
X007349Y020093D01*
X007349Y020131D02*
X007191Y020131D01*
X007191Y020169D02*
X007349Y020169D01*
X007349Y020207D02*
X007191Y020207D01*
X007191Y020245D02*
X007349Y020245D01*
X007349Y020283D02*
X007191Y020283D01*
X007191Y020321D02*
X007349Y020321D01*
X007349Y020359D02*
X007191Y020359D01*
X007191Y020397D02*
X007349Y020397D01*
X007349Y020435D02*
X007191Y020435D01*
D19*
X012527Y020213D02*
X012527Y019645D01*
X012527Y020213D02*
X013173Y020213D01*
X013173Y019645D01*
X012527Y019645D01*
X012527Y019707D02*
X013173Y019707D01*
X013173Y019769D02*
X012527Y019769D01*
X012527Y019831D02*
X013173Y019831D01*
X013173Y019893D02*
X012527Y019893D01*
X012527Y019955D02*
X013173Y019955D01*
X013173Y020017D02*
X012527Y020017D01*
X012527Y020079D02*
X013173Y020079D01*
X013173Y020141D02*
X012527Y020141D01*
X012527Y020203D02*
X013173Y020203D01*
X013776Y019956D02*
X013776Y020524D01*
X014424Y020524D01*
X014424Y019956D01*
X013776Y019956D01*
X013776Y020018D02*
X014424Y020018D01*
X014424Y020080D02*
X013776Y020080D01*
X013776Y020142D02*
X014424Y020142D01*
X014424Y020204D02*
X013776Y020204D01*
X013776Y020266D02*
X014424Y020266D01*
X014424Y020328D02*
X013776Y020328D01*
X013776Y020390D02*
X014424Y020390D01*
X014424Y020452D02*
X013776Y020452D01*
X013776Y020514D02*
X014424Y020514D01*
X012527Y020747D02*
X012527Y021315D01*
X013173Y021315D01*
X013173Y020747D01*
X012527Y020747D01*
X012527Y020809D02*
X013173Y020809D01*
X013173Y020871D02*
X012527Y020871D01*
X012527Y020933D02*
X013173Y020933D01*
X013173Y020995D02*
X012527Y020995D01*
X012527Y021057D02*
X013173Y021057D01*
X013173Y021119D02*
X012527Y021119D01*
X012527Y021181D02*
X013173Y021181D01*
X013173Y021243D02*
X012527Y021243D01*
X012527Y021305D02*
X013173Y021305D01*
X017277Y021015D02*
X017277Y020447D01*
X017277Y021015D02*
X017923Y021015D01*
X017923Y020447D01*
X017277Y020447D01*
X017277Y020509D02*
X017923Y020509D01*
X017923Y020571D02*
X017277Y020571D01*
X017277Y020633D02*
X017923Y020633D01*
X017923Y020695D02*
X017277Y020695D01*
X017277Y020757D02*
X017923Y020757D01*
X017923Y020819D02*
X017277Y020819D01*
X017277Y020881D02*
X017923Y020881D01*
X017923Y020943D02*
X017277Y020943D01*
X017277Y021005D02*
X017923Y021005D01*
X017277Y019913D02*
X017277Y019345D01*
X017277Y019913D02*
X017923Y019913D01*
X017923Y019345D01*
X017277Y019345D01*
X017277Y019407D02*
X017923Y019407D01*
X017923Y019469D02*
X017277Y019469D01*
X017277Y019531D02*
X017923Y019531D01*
X017923Y019593D02*
X017277Y019593D01*
X017277Y019655D02*
X017923Y019655D01*
X017923Y019717D02*
X017277Y019717D01*
X017277Y019779D02*
X017923Y019779D01*
X017923Y019841D02*
X017277Y019841D01*
X017277Y019903D02*
X017923Y019903D01*
X013776Y019404D02*
X013776Y018836D01*
X013776Y019404D02*
X014424Y019404D01*
X014424Y018836D01*
X013776Y018836D01*
X013776Y018898D02*
X014424Y018898D01*
X014424Y018960D02*
X013776Y018960D01*
X013776Y019022D02*
X014424Y019022D01*
X014424Y019084D02*
X013776Y019084D01*
X013776Y019146D02*
X014424Y019146D01*
X014424Y019208D02*
X013776Y019208D01*
X013776Y019270D02*
X014424Y019270D01*
X014424Y019332D02*
X013776Y019332D01*
X013776Y019394D02*
X014424Y019394D01*
X005123Y014515D02*
X005123Y013947D01*
X004477Y013947D01*
X004477Y014515D01*
X005123Y014515D01*
X005123Y014009D02*
X004477Y014009D01*
X004477Y014071D02*
X005123Y014071D01*
X005123Y014133D02*
X004477Y014133D01*
X004477Y014195D02*
X005123Y014195D01*
X005123Y014257D02*
X004477Y014257D01*
X004477Y014319D02*
X005123Y014319D01*
X005123Y014381D02*
X004477Y014381D01*
X004477Y014443D02*
X005123Y014443D01*
X005123Y014505D02*
X004477Y014505D01*
X004223Y014515D02*
X004223Y013947D01*
X003577Y013947D01*
X003577Y014515D01*
X004223Y014515D01*
X004223Y014009D02*
X003577Y014009D01*
X003577Y014071D02*
X004223Y014071D01*
X004223Y014133D02*
X003577Y014133D01*
X003577Y014195D02*
X004223Y014195D01*
X004223Y014257D02*
X003577Y014257D01*
X003577Y014319D02*
X004223Y014319D01*
X004223Y014381D02*
X003577Y014381D01*
X003577Y014443D02*
X004223Y014443D01*
X004223Y014505D02*
X003577Y014505D01*
X004223Y013413D02*
X004223Y012845D01*
X003577Y012845D01*
X003577Y013413D01*
X004223Y013413D01*
X004223Y012907D02*
X003577Y012907D01*
X003577Y012969D02*
X004223Y012969D01*
X004223Y013031D02*
X003577Y013031D01*
X003577Y013093D02*
X004223Y013093D01*
X004223Y013155D02*
X003577Y013155D01*
X003577Y013217D02*
X004223Y013217D01*
X004223Y013279D02*
X003577Y013279D01*
X003577Y013341D02*
X004223Y013341D01*
X004223Y013403D02*
X003577Y013403D01*
X005123Y013413D02*
X005123Y012845D01*
X004477Y012845D01*
X004477Y013413D01*
X005123Y013413D01*
X005123Y012907D02*
X004477Y012907D01*
X004477Y012969D02*
X005123Y012969D01*
X005123Y013031D02*
X004477Y013031D01*
X004477Y013093D02*
X005123Y013093D01*
X005123Y013155D02*
X004477Y013155D01*
X004477Y013217D02*
X005123Y013217D01*
X005123Y013279D02*
X004477Y013279D01*
X004477Y013341D02*
X005123Y013341D01*
X005123Y013403D02*
X004477Y013403D01*
X005123Y012515D02*
X005123Y011947D01*
X004477Y011947D01*
X004477Y012515D01*
X005123Y012515D01*
X005123Y012009D02*
X004477Y012009D01*
X004477Y012071D02*
X005123Y012071D01*
X005123Y012133D02*
X004477Y012133D01*
X004477Y012195D02*
X005123Y012195D01*
X005123Y012257D02*
X004477Y012257D01*
X004477Y012319D02*
X005123Y012319D01*
X005123Y012381D02*
X004477Y012381D01*
X004477Y012443D02*
X005123Y012443D01*
X005123Y012505D02*
X004477Y012505D01*
X004223Y012515D02*
X004223Y011947D01*
X003577Y011947D01*
X003577Y012515D01*
X004223Y012515D01*
X004223Y012009D02*
X003577Y012009D01*
X003577Y012071D02*
X004223Y012071D01*
X004223Y012133D02*
X003577Y012133D01*
X003577Y012195D02*
X004223Y012195D01*
X004223Y012257D02*
X003577Y012257D01*
X003577Y012319D02*
X004223Y012319D01*
X004223Y012381D02*
X003577Y012381D01*
X003577Y012443D02*
X004223Y012443D01*
X004223Y012505D02*
X003577Y012505D01*
X004223Y011413D02*
X004223Y010845D01*
X003577Y010845D01*
X003577Y011413D01*
X004223Y011413D01*
X004223Y010907D02*
X003577Y010907D01*
X003577Y010969D02*
X004223Y010969D01*
X004223Y011031D02*
X003577Y011031D01*
X003577Y011093D02*
X004223Y011093D01*
X004223Y011155D02*
X003577Y011155D01*
X003577Y011217D02*
X004223Y011217D01*
X004223Y011279D02*
X003577Y011279D01*
X003577Y011341D02*
X004223Y011341D01*
X004223Y011403D02*
X003577Y011403D01*
X005123Y011413D02*
X005123Y010845D01*
X004477Y010845D01*
X004477Y011413D01*
X005123Y011413D01*
X005123Y010907D02*
X004477Y010907D01*
X004477Y010969D02*
X005123Y010969D01*
X005123Y011031D02*
X004477Y011031D01*
X004477Y011093D02*
X005123Y011093D01*
X005123Y011155D02*
X004477Y011155D01*
X004477Y011217D02*
X005123Y011217D01*
X005123Y011279D02*
X004477Y011279D01*
X004477Y011341D02*
X005123Y011341D01*
X005123Y011403D02*
X004477Y011403D01*
X005123Y010515D02*
X005123Y009947D01*
X004477Y009947D01*
X004477Y010515D01*
X005123Y010515D01*
X005123Y010009D02*
X004477Y010009D01*
X004477Y010071D02*
X005123Y010071D01*
X005123Y010133D02*
X004477Y010133D01*
X004477Y010195D02*
X005123Y010195D01*
X005123Y010257D02*
X004477Y010257D01*
X004477Y010319D02*
X005123Y010319D01*
X005123Y010381D02*
X004477Y010381D01*
X004477Y010443D02*
X005123Y010443D01*
X005123Y010505D02*
X004477Y010505D01*
X004223Y010515D02*
X004223Y009947D01*
X003577Y009947D01*
X003577Y010515D01*
X004223Y010515D01*
X004223Y010009D02*
X003577Y010009D01*
X003577Y010071D02*
X004223Y010071D01*
X004223Y010133D02*
X003577Y010133D01*
X003577Y010195D02*
X004223Y010195D01*
X004223Y010257D02*
X003577Y010257D01*
X003577Y010319D02*
X004223Y010319D01*
X004223Y010381D02*
X003577Y010381D01*
X003577Y010443D02*
X004223Y010443D01*
X004223Y010505D02*
X003577Y010505D01*
X004223Y009413D02*
X004223Y008845D01*
X003577Y008845D01*
X003577Y009413D01*
X004223Y009413D01*
X004223Y008907D02*
X003577Y008907D01*
X003577Y008969D02*
X004223Y008969D01*
X004223Y009031D02*
X003577Y009031D01*
X003577Y009093D02*
X004223Y009093D01*
X004223Y009155D02*
X003577Y009155D01*
X003577Y009217D02*
X004223Y009217D01*
X004223Y009279D02*
X003577Y009279D01*
X003577Y009341D02*
X004223Y009341D01*
X004223Y009403D02*
X003577Y009403D01*
X005123Y009413D02*
X005123Y008845D01*
X004477Y008845D01*
X004477Y009413D01*
X005123Y009413D01*
X005123Y008907D02*
X004477Y008907D01*
X004477Y008969D02*
X005123Y008969D01*
X005123Y009031D02*
X004477Y009031D01*
X004477Y009093D02*
X005123Y009093D01*
X005123Y009155D02*
X004477Y009155D01*
X004477Y009217D02*
X005123Y009217D01*
X005123Y009279D02*
X004477Y009279D01*
X004477Y009341D02*
X005123Y009341D01*
X005123Y009403D02*
X004477Y009403D01*
X050526Y005774D02*
X050526Y005206D01*
X050526Y005774D02*
X051174Y005774D01*
X051174Y005206D01*
X050526Y005206D01*
X050526Y005268D02*
X051174Y005268D01*
X051174Y005330D02*
X050526Y005330D01*
X050526Y005392D02*
X051174Y005392D01*
X051174Y005454D02*
X050526Y005454D01*
X050526Y005516D02*
X051174Y005516D01*
X051174Y005578D02*
X050526Y005578D01*
X050526Y005640D02*
X051174Y005640D01*
X051174Y005702D02*
X050526Y005702D01*
X050526Y005764D02*
X051174Y005764D01*
X050526Y004654D02*
X050526Y004086D01*
X050526Y004654D02*
X051174Y004654D01*
X051174Y004086D01*
X050526Y004086D01*
X050526Y004148D02*
X051174Y004148D01*
X051174Y004210D02*
X050526Y004210D01*
X050526Y004272D02*
X051174Y004272D01*
X051174Y004334D02*
X050526Y004334D01*
X050526Y004396D02*
X051174Y004396D01*
X051174Y004458D02*
X050526Y004458D01*
X050526Y004520D02*
X051174Y004520D01*
X051174Y004582D02*
X050526Y004582D01*
X050526Y004644D02*
X051174Y004644D01*
D20*
X050874Y008199D02*
X050619Y008454D01*
X051326Y009161D02*
X051581Y008906D01*
X046374Y014199D02*
X046119Y014454D01*
X046826Y015161D02*
X047081Y014906D01*
X049420Y015680D02*
X049780Y015680D01*
X049780Y016680D02*
X049420Y016680D01*
X049420Y017680D02*
X049780Y017680D01*
X049780Y018680D02*
X049420Y018680D01*
X049420Y019680D02*
X049780Y019680D01*
X049780Y020680D02*
X049420Y020680D01*
D21*
X016079Y020769D02*
X016079Y020591D01*
X015645Y020591D01*
X015645Y020769D01*
X016079Y020769D01*
X016079Y020629D02*
X015645Y020629D01*
X015645Y020667D02*
X016079Y020667D01*
X016079Y020705D02*
X015645Y020705D01*
X015645Y020743D02*
X016079Y020743D01*
X016079Y020965D02*
X016079Y021143D01*
X016079Y020965D02*
X015645Y020965D01*
X015645Y021143D01*
X016079Y021143D01*
X016079Y021003D02*
X015645Y021003D01*
X015645Y021041D02*
X016079Y021041D01*
X016079Y021079D02*
X015645Y021079D01*
X015645Y021117D02*
X016079Y021117D01*
X015055Y021143D02*
X015055Y020965D01*
X014621Y020965D01*
X014621Y021143D01*
X015055Y021143D01*
X015055Y021003D02*
X014621Y021003D01*
X014621Y021041D02*
X015055Y021041D01*
X015055Y021079D02*
X014621Y021079D01*
X014621Y021117D02*
X015055Y021117D01*
X015055Y020395D02*
X015055Y020217D01*
X014621Y020217D01*
X014621Y020395D01*
X015055Y020395D01*
X015055Y020255D02*
X014621Y020255D01*
X014621Y020293D02*
X015055Y020293D01*
X015055Y020331D02*
X014621Y020331D01*
X014621Y020369D02*
X015055Y020369D01*
X016079Y020395D02*
X016079Y020217D01*
X015645Y020217D01*
X015645Y020395D01*
X016079Y020395D01*
X016079Y020255D02*
X015645Y020255D01*
X015645Y020293D02*
X016079Y020293D01*
X016079Y020331D02*
X015645Y020331D01*
X015645Y020369D02*
X016079Y020369D01*
D22*
X009318Y020449D02*
X009318Y019543D01*
X009318Y020449D02*
X010026Y020449D01*
X010026Y019543D01*
X009318Y019543D01*
X009318Y019621D02*
X010026Y019621D01*
X010026Y019699D02*
X009318Y019699D01*
X009318Y019777D02*
X010026Y019777D01*
X010026Y019855D02*
X009318Y019855D01*
X009318Y019933D02*
X010026Y019933D01*
X010026Y020011D02*
X009318Y020011D01*
X009318Y020089D02*
X010026Y020089D01*
X010026Y020167D02*
X009318Y020167D01*
X009318Y020245D02*
X010026Y020245D01*
X010026Y020323D02*
X009318Y020323D01*
X009318Y020401D02*
X010026Y020401D01*
X009318Y021708D02*
X009318Y022614D01*
X010026Y022614D01*
X010026Y021708D01*
X009318Y021708D01*
X009318Y021786D02*
X010026Y021786D01*
X010026Y021864D02*
X009318Y021864D01*
X009318Y021942D02*
X010026Y021942D01*
X010026Y022020D02*
X009318Y022020D01*
X009318Y022098D02*
X010026Y022098D01*
X010026Y022176D02*
X009318Y022176D01*
X009318Y022254D02*
X010026Y022254D01*
X010026Y022332D02*
X009318Y022332D01*
X009318Y022410D02*
X010026Y022410D01*
X010026Y022488D02*
X009318Y022488D01*
X009318Y022566D02*
X010026Y022566D01*
X005774Y022614D02*
X005774Y021708D01*
X005774Y022614D02*
X006482Y022614D01*
X006482Y021708D01*
X005774Y021708D01*
X005774Y021786D02*
X006482Y021786D01*
X006482Y021864D02*
X005774Y021864D01*
X005774Y021942D02*
X006482Y021942D01*
X006482Y022020D02*
X005774Y022020D01*
X005774Y022098D02*
X006482Y022098D01*
X006482Y022176D02*
X005774Y022176D01*
X005774Y022254D02*
X006482Y022254D01*
X006482Y022332D02*
X005774Y022332D01*
X005774Y022410D02*
X006482Y022410D01*
X006482Y022488D02*
X005774Y022488D01*
X005774Y022566D02*
X006482Y022566D01*
X005774Y020449D02*
X005774Y019543D01*
X005774Y020449D02*
X006482Y020449D01*
X006482Y019543D01*
X005774Y019543D01*
X005774Y019621D02*
X006482Y019621D01*
X006482Y019699D02*
X005774Y019699D01*
X005774Y019777D02*
X006482Y019777D01*
X006482Y019855D02*
X005774Y019855D01*
X005774Y019933D02*
X006482Y019933D01*
X006482Y020011D02*
X005774Y020011D01*
X005774Y020089D02*
X006482Y020089D01*
X006482Y020167D02*
X005774Y020167D01*
X005774Y020245D02*
X006482Y020245D01*
X006482Y020323D02*
X005774Y020323D01*
X005774Y020401D02*
X006482Y020401D01*
D23*
X020650Y014780D03*
X022200Y014780D03*
X022200Y013680D03*
X020650Y013680D03*
X029600Y012680D03*
X029550Y011730D03*
X033350Y013430D03*
X035950Y013230D03*
X036100Y011930D03*
X036100Y011180D03*
X038850Y015180D03*
X037600Y016180D03*
X037000Y017180D03*
X039100Y017680D03*
X041100Y017930D03*
X043100Y017680D03*
X043100Y017130D03*
X042350Y016680D03*
X043350Y016180D03*
X041800Y015780D03*
X043100Y018930D03*
X040850Y019930D03*
X037800Y020980D03*
X037050Y020880D03*
X035950Y020480D03*
X036750Y020080D03*
X036300Y019630D03*
X037300Y021680D03*
X036250Y021880D03*
X035700Y022330D03*
X050850Y020180D03*
X050850Y018930D03*
X050850Y017430D03*
X050850Y016180D03*
X050100Y003680D03*
X031200Y002580D03*
X003100Y010180D03*
X001706Y011306D03*
X001706Y012054D03*
X002300Y013180D03*
D24*
X002750Y013180D01*
X003699Y012231D01*
X003900Y012231D01*
X004800Y012231D01*
X004800Y013129D01*
X003900Y013129D01*
X003900Y014231D02*
X004800Y014231D01*
X005400Y014231D01*
X005400Y009080D01*
X004800Y009080D01*
X004800Y009129D01*
X003900Y009129D01*
X005964Y008630D02*
X005964Y010730D01*
X004800Y011129D02*
X004800Y010231D01*
X003900Y010231D01*
X003100Y010180D01*
X003900Y011129D02*
X004800Y011129D01*
X005964Y012630D02*
X005964Y014730D01*
X007736Y016630D02*
X008686Y015680D01*
X011100Y015680D01*
X011736Y015044D01*
X011736Y014730D01*
X009964Y014730D02*
X009964Y012630D01*
X011736Y012630D02*
X012686Y011680D01*
X015100Y011680D01*
X015736Y011044D01*
X015736Y010730D01*
X016686Y011680D02*
X019100Y011680D01*
X019736Y011044D01*
X019736Y010730D01*
X017964Y010730D02*
X017964Y008630D01*
X019736Y008630D02*
X021400Y008630D01*
X022350Y007680D01*
X024036Y007680D01*
X024986Y006730D01*
X024986Y008630D02*
X028250Y010394D01*
X028250Y018930D01*
X035850Y018930D01*
X035850Y018330D01*
X037000Y017180D01*
X035850Y019180D02*
X036300Y019630D01*
X036150Y020080D02*
X035700Y019630D01*
X035700Y019530D01*
X035600Y019430D01*
X027700Y019430D01*
X027700Y014280D01*
X027100Y013680D01*
X025764Y013680D01*
X024714Y012630D01*
X024100Y011680D02*
X023486Y012294D01*
X023486Y012630D01*
X022750Y012630D02*
X021714Y012630D01*
X022750Y012630D02*
X022750Y014366D01*
X023214Y014730D01*
X022200Y014780D02*
X020650Y014780D01*
X019736Y014730D02*
X019736Y015044D01*
X019100Y015680D01*
X016686Y015680D01*
X015736Y016630D01*
X015100Y015680D02*
X015736Y015044D01*
X015736Y014730D01*
X015100Y015680D02*
X012686Y015680D01*
X011736Y016630D01*
X010600Y017430D02*
X009964Y016794D01*
X009964Y016630D01*
X010600Y017430D02*
X014014Y017430D01*
X014264Y017680D01*
X018100Y017680D01*
X018600Y018180D01*
X025100Y018180D01*
X025600Y018680D01*
X026500Y018680D01*
X026500Y020630D01*
X034400Y020630D01*
X035650Y021880D01*
X036250Y021880D01*
X037100Y021530D02*
X037300Y021680D01*
X037100Y021530D02*
X035650Y021530D01*
X034600Y020430D01*
X034600Y020330D01*
X026800Y020330D01*
X026800Y018230D01*
X025550Y018230D01*
X025250Y017930D01*
X018764Y017930D01*
X018264Y017430D01*
X014600Y017430D01*
X013964Y016794D01*
X013964Y016630D01*
X013850Y017680D02*
X007100Y017680D01*
X006050Y016630D01*
X005964Y016630D01*
X013850Y017680D02*
X014100Y017930D01*
X017764Y017930D01*
X018264Y018430D01*
X024850Y018430D01*
X025600Y019180D01*
X026100Y019180D01*
X026100Y020930D01*
X034300Y020930D01*
X035700Y022330D01*
X035750Y021280D02*
X037250Y021280D01*
X037550Y020980D01*
X037800Y020980D01*
X037050Y020880D02*
X035750Y020880D01*
X035100Y020230D01*
X035100Y019930D01*
X027250Y019930D01*
X027250Y017830D01*
X027050Y017630D01*
X025714Y017630D01*
X025714Y017544D01*
X025600Y017430D01*
X024100Y017430D01*
X023214Y016630D01*
X024286Y015680D02*
X021350Y015680D01*
X020400Y016630D01*
X019736Y016630D01*
X019014Y017680D02*
X017964Y016630D01*
X019014Y017680D02*
X025350Y017680D01*
X025600Y017930D01*
X027050Y017930D01*
X027050Y020130D01*
X034850Y020130D01*
X034850Y020380D01*
X035750Y021280D01*
X035950Y020480D02*
X035350Y019880D01*
X035350Y019680D01*
X027450Y019680D01*
X027450Y017594D01*
X027286Y017430D01*
X026100Y017430D01*
X024986Y016630D01*
X024286Y015680D02*
X024986Y014730D01*
X026486Y012630D02*
X028000Y014144D01*
X028000Y019180D01*
X035850Y019180D01*
X036150Y020080D02*
X036750Y020080D01*
X043100Y020930D02*
X043100Y018930D01*
X043100Y017680D02*
X048600Y017680D01*
X048600Y019930D01*
X048850Y020180D01*
X050850Y020180D01*
X051850Y021180D02*
X052600Y021180D01*
X052600Y014680D01*
X052600Y006680D01*
X048100Y006680D01*
X048100Y005164D01*
X047086Y005164D01*
X046850Y004928D01*
X050100Y003680D02*
X050300Y003487D01*
X050283Y002804D01*
X049417Y002430D02*
X048866Y002430D01*
X048100Y003196D01*
X047086Y003196D01*
X046850Y003432D01*
X050283Y002056D02*
X050850Y002056D01*
X050850Y004370D01*
X050850Y005480D02*
X051700Y005480D01*
X051700Y001480D01*
X031200Y001480D01*
X031200Y002580D01*
X039600Y007680D02*
X036100Y011180D01*
X036100Y011930D02*
X039350Y008680D01*
X045100Y008680D01*
X046246Y009826D01*
X046246Y014326D01*
X046954Y015034D02*
X046954Y009534D01*
X045100Y007680D01*
X039600Y007680D01*
X030250Y012430D02*
X029550Y011730D01*
X030250Y012430D02*
X037100Y012430D01*
X037100Y012730D01*
X038800Y014430D01*
X041100Y014430D01*
X042350Y015680D01*
X044100Y015680D01*
X044850Y016430D01*
X047600Y016430D01*
X049100Y014930D01*
X049850Y014930D01*
X050850Y015930D01*
X050850Y016180D01*
X050350Y016180D02*
X051350Y017180D01*
X051350Y018430D01*
X050850Y018930D01*
X050850Y017430D02*
X050550Y017130D01*
X043100Y017130D01*
X042350Y016680D02*
X042350Y015680D01*
X041800Y015780D02*
X041800Y015580D01*
X040900Y014680D01*
X038700Y014680D01*
X036750Y012730D01*
X029650Y012730D01*
X029600Y012680D01*
X026486Y010730D02*
X025536Y011680D01*
X024100Y011680D01*
X023486Y010730D02*
X022536Y011680D01*
X021100Y011680D01*
X020150Y012630D01*
X019736Y012630D01*
X017964Y012630D02*
X017964Y014730D01*
X020650Y013680D02*
X022200Y013680D01*
X016686Y011680D02*
X015736Y012630D01*
X013964Y012630D02*
X013964Y014730D01*
X008686Y011680D02*
X007736Y012630D01*
X008686Y011680D02*
X011100Y011680D01*
X011736Y011044D01*
X011736Y010730D01*
X009964Y010730D02*
X009964Y008630D01*
X011736Y008630D02*
X012686Y007680D01*
X015100Y007680D01*
X015736Y007044D01*
X015736Y006730D01*
X016786Y007580D02*
X019200Y007580D01*
X019736Y007044D01*
X019736Y006730D01*
X016786Y007580D02*
X015736Y008630D01*
X013964Y008630D02*
X013964Y010730D01*
X008686Y007680D02*
X007736Y008630D01*
X008686Y007680D02*
X011100Y007680D01*
X011736Y007044D01*
X011736Y006730D01*
X021714Y010566D02*
X022350Y009680D01*
X022414Y009680D01*
X023214Y008630D01*
X021714Y010566D02*
X021714Y010730D01*
X035950Y013230D02*
X036900Y013230D01*
X038850Y015180D01*
X043350Y016180D02*
X044100Y016180D01*
X044600Y016680D01*
X048850Y016680D01*
X048850Y016430D01*
X049100Y016180D01*
X050350Y016180D01*
X048300Y014680D02*
X046900Y016080D01*
X045374Y016080D01*
X044474Y015180D01*
X048300Y014680D02*
X052600Y014680D01*
X044543Y021774D02*
X043699Y020930D01*
X043100Y020930D01*
X044543Y021774D02*
X044543Y021873D01*
X045100Y022430D01*
X050600Y022430D01*
X051850Y021180D01*
X050850Y005490D02*
X050850Y005480D01*
D25*
X017600Y021054D02*
X015862Y021054D01*
D26*
X015040Y020306D02*
X014838Y020306D01*
X017600Y020731D02*
X017600Y021054D01*
X019100Y021221D02*
X019100Y022900D01*
X026416Y022900D01*
X026379Y022885D01*
X026145Y022651D01*
X026019Y022345D01*
X026019Y022015D01*
X026145Y021709D01*
X026379Y021475D01*
X026685Y021349D01*
X027015Y021349D01*
X027321Y021475D01*
X027555Y021709D01*
X027681Y022015D01*
X027681Y022345D01*
X027555Y022651D01*
X027321Y022885D01*
X027284Y022900D01*
X052166Y022900D01*
X052129Y022885D01*
X051895Y022651D01*
X051769Y022345D01*
X051769Y022015D01*
X051895Y021709D01*
X052129Y021475D01*
X052142Y021470D01*
X051970Y021470D01*
X050764Y022676D01*
X050658Y022720D01*
X045042Y022720D01*
X044936Y022676D01*
X044854Y022594D01*
X044644Y022384D01*
X044290Y022384D01*
X043933Y022026D01*
X043933Y021574D01*
X043579Y021220D01*
X043042Y021220D01*
X042936Y021176D01*
X042854Y021094D01*
X042810Y020988D01*
X042810Y019288D01*
X042712Y019189D01*
X042642Y019021D01*
X042642Y018839D01*
X042712Y018671D01*
X042841Y018542D01*
X043009Y018472D01*
X043191Y018472D01*
X043359Y018542D01*
X043488Y018671D01*
X043558Y018839D01*
X043558Y019021D01*
X043488Y019189D01*
X043390Y019288D01*
X043390Y020640D01*
X043757Y020640D01*
X043863Y020684D01*
X043933Y020754D01*
X043933Y020356D01*
X043969Y020268D01*
X044037Y020200D01*
X044125Y020164D01*
X044960Y020164D01*
X045048Y020200D01*
X045116Y020268D01*
X045136Y020317D01*
X045290Y020164D01*
X045795Y020164D01*
X046043Y020411D01*
X046290Y020164D01*
X046795Y020164D01*
X047153Y020521D01*
X047153Y021026D01*
X046863Y021316D01*
X047093Y021546D01*
X047093Y021754D01*
X046563Y021754D01*
X046563Y021794D01*
X047093Y021794D01*
X047093Y022002D01*
X046954Y022140D01*
X050480Y022140D01*
X051604Y021016D01*
X051686Y020934D01*
X051792Y020890D01*
X052310Y020890D01*
X052310Y014970D01*
X050300Y014970D01*
X051014Y015684D01*
X051096Y015766D01*
X051106Y015790D01*
X051109Y015792D01*
X051238Y015921D01*
X051308Y016089D01*
X051308Y016271D01*
X051238Y016439D01*
X051129Y016549D01*
X051514Y016934D01*
X051596Y017016D01*
X051640Y017122D01*
X051640Y018488D01*
X051596Y018594D01*
X051308Y018882D01*
X051308Y019021D01*
X051238Y019189D01*
X051109Y019318D01*
X050941Y019388D01*
X050759Y019388D01*
X050591Y019318D01*
X050462Y019189D01*
X050392Y019021D01*
X050392Y018839D01*
X050462Y018671D01*
X050591Y018542D01*
X050759Y018472D01*
X050898Y018472D01*
X051060Y018310D01*
X051060Y017839D01*
X050941Y017888D01*
X050759Y017888D01*
X050591Y017818D01*
X050462Y017689D01*
X050392Y017521D01*
X050392Y017420D01*
X050257Y017420D01*
X050320Y017573D01*
X050320Y017787D01*
X050238Y017986D01*
X050086Y018138D01*
X049984Y018180D01*
X050086Y018222D01*
X050238Y018374D01*
X050320Y018573D01*
X050320Y018787D01*
X050238Y018986D01*
X050086Y019138D01*
X049984Y019180D01*
X050086Y019222D01*
X050238Y019374D01*
X050320Y019573D01*
X050320Y019787D01*
X050278Y019890D01*
X050492Y019890D01*
X050591Y019792D01*
X050759Y019722D01*
X050941Y019722D01*
X051109Y019792D01*
X051238Y019921D01*
X051308Y020089D01*
X051308Y020271D01*
X051238Y020439D01*
X051109Y020568D01*
X050941Y020638D01*
X050759Y020638D01*
X050591Y020568D01*
X050492Y020470D01*
X050212Y020470D01*
X050225Y020496D01*
X050248Y020568D01*
X050260Y020642D01*
X050260Y020660D01*
X049620Y020660D01*
X049620Y020700D01*
X049580Y020700D01*
X049580Y021160D01*
X049382Y021160D01*
X049308Y021148D01*
X049236Y021125D01*
X049168Y021091D01*
X049107Y021046D01*
X049054Y020993D01*
X049009Y020932D01*
X048975Y020864D01*
X048952Y020792D01*
X048940Y020718D01*
X048940Y020700D01*
X049580Y020700D01*
X049580Y020660D01*
X048940Y020660D01*
X048940Y020642D01*
X048952Y020568D01*
X048975Y020496D01*
X048988Y020470D01*
X048792Y020470D01*
X048686Y020426D01*
X048604Y020344D01*
X048354Y020094D01*
X048310Y019988D01*
X048310Y017970D01*
X043458Y017970D01*
X043359Y018068D01*
X043191Y018138D01*
X043009Y018138D01*
X042841Y018068D01*
X042712Y017939D01*
X042642Y017771D01*
X042642Y017589D01*
X042712Y017421D01*
X042727Y017405D01*
X042712Y017389D01*
X042642Y017221D01*
X042642Y017039D01*
X042644Y017034D01*
X042609Y017068D01*
X042441Y017138D01*
X042259Y017138D01*
X042091Y017068D01*
X041962Y016939D01*
X041892Y016771D01*
X041892Y016589D01*
X041962Y016421D01*
X042060Y016322D01*
X042060Y016168D01*
X042059Y016168D01*
X041891Y016238D01*
X041709Y016238D01*
X041541Y016168D01*
X041412Y016039D01*
X041342Y015871D01*
X041342Y015689D01*
X041388Y015578D01*
X040780Y014970D01*
X039259Y014970D01*
X039308Y015089D01*
X039308Y015271D01*
X039238Y015439D01*
X039109Y015568D01*
X038941Y015638D01*
X038759Y015638D01*
X038591Y015568D01*
X038462Y015439D01*
X038392Y015271D01*
X038392Y015132D01*
X036780Y013520D01*
X036308Y013520D01*
X036209Y013618D01*
X036041Y013688D01*
X035859Y013688D01*
X035691Y013618D01*
X035562Y013489D01*
X035492Y013321D01*
X035492Y013139D01*
X035541Y013020D01*
X029908Y013020D01*
X029859Y013068D01*
X029691Y013138D01*
X029509Y013138D01*
X029341Y013068D01*
X029212Y012939D01*
X029142Y012771D01*
X029142Y012589D01*
X029212Y012421D01*
X029341Y012292D01*
X029509Y012222D01*
X029632Y012222D01*
X029598Y012188D01*
X029459Y012188D01*
X029291Y012118D01*
X029202Y012030D01*
X029223Y012081D01*
X029223Y012279D01*
X029148Y012462D01*
X029008Y012602D01*
X028825Y012677D01*
X028627Y012677D01*
X028540Y012641D01*
X028540Y012719D01*
X028627Y012683D01*
X028825Y012683D01*
X029008Y012758D01*
X029148Y012898D01*
X029223Y013081D01*
X029223Y013279D01*
X029148Y013462D01*
X029008Y013602D01*
X028825Y013677D01*
X028627Y013677D01*
X028540Y013641D01*
X028540Y013719D01*
X028627Y013683D01*
X028825Y013683D01*
X029008Y013758D01*
X029148Y013898D01*
X029223Y014081D01*
X029223Y014279D01*
X029148Y014462D01*
X029008Y014602D01*
X028825Y014677D01*
X028627Y014677D01*
X028540Y014641D01*
X028540Y014719D01*
X028627Y014683D01*
X028825Y014683D01*
X029008Y014758D01*
X029148Y014898D01*
X029223Y015081D01*
X029223Y015279D01*
X029148Y015462D01*
X029008Y015602D01*
X028825Y015677D01*
X028627Y015677D01*
X028540Y015641D01*
X028540Y018640D01*
X035560Y018640D01*
X035560Y018272D01*
X035604Y018166D01*
X036542Y017228D01*
X036542Y017089D01*
X036612Y016921D01*
X036741Y016792D01*
X036909Y016722D01*
X037091Y016722D01*
X037259Y016792D01*
X037388Y016921D01*
X037458Y017089D01*
X037458Y017271D01*
X037388Y017439D01*
X037259Y017568D01*
X037091Y017638D01*
X036952Y017638D01*
X036140Y018450D01*
X036140Y018988D01*
X036119Y019039D01*
X036252Y019172D01*
X036391Y019172D01*
X036559Y019242D01*
X036688Y019371D01*
X036758Y019539D01*
X036758Y019622D01*
X036841Y019622D01*
X037009Y019692D01*
X037138Y019821D01*
X037208Y019989D01*
X037208Y020171D01*
X037138Y020339D01*
X037056Y020422D01*
X037141Y020422D01*
X037309Y020492D01*
X037438Y020621D01*
X037460Y020672D01*
X037541Y020592D01*
X037709Y020522D01*
X037891Y020522D01*
X038059Y020592D01*
X038188Y020721D01*
X038258Y020889D01*
X038258Y021071D01*
X038188Y021239D01*
X038059Y021368D01*
X037891Y021438D01*
X037709Y021438D01*
X037693Y021431D01*
X037758Y021589D01*
X037758Y021771D01*
X037688Y021939D01*
X037559Y022068D01*
X037391Y022138D01*
X037209Y022138D01*
X037041Y022068D01*
X036912Y021939D01*
X036862Y021820D01*
X036708Y021820D01*
X036708Y021971D01*
X036638Y022139D01*
X036509Y022268D01*
X036341Y022338D01*
X036159Y022338D01*
X036158Y022338D01*
X036158Y022421D01*
X036088Y022589D01*
X035959Y022718D01*
X035791Y022788D01*
X035609Y022788D01*
X035441Y022718D01*
X035312Y022589D01*
X035242Y022421D01*
X035242Y022282D01*
X034180Y021220D01*
X026042Y021220D01*
X025936Y021176D01*
X025854Y021094D01*
X025810Y020988D01*
X025810Y019470D01*
X025542Y019470D01*
X025436Y019426D01*
X025354Y019344D01*
X024730Y018720D01*
X019100Y018720D01*
X019100Y020241D01*
X019629Y020241D01*
X019697Y020213D01*
X019903Y020213D01*
X020093Y020292D01*
X020238Y020437D01*
X020317Y020627D01*
X020317Y020833D01*
X020238Y021023D01*
X020093Y021168D01*
X019903Y021247D01*
X019697Y021247D01*
X019634Y021221D01*
X019100Y021221D01*
X019100Y021261D02*
X034220Y021261D01*
X034379Y021419D02*
X027185Y021419D01*
X027423Y021578D02*
X034537Y021578D01*
X034696Y021736D02*
X027566Y021736D01*
X027631Y021895D02*
X034854Y021895D01*
X035013Y022053D02*
X027681Y022053D01*
X027681Y022212D02*
X035171Y022212D01*
X035242Y022370D02*
X027671Y022370D01*
X027605Y022529D02*
X035286Y022529D01*
X035409Y022687D02*
X027518Y022687D01*
X027360Y022846D02*
X052090Y022846D01*
X051932Y022687D02*
X050737Y022687D01*
X050912Y022529D02*
X051845Y022529D01*
X051779Y022370D02*
X051070Y022370D01*
X051229Y022212D02*
X051769Y022212D01*
X051769Y022053D02*
X051387Y022053D01*
X051546Y021895D02*
X051819Y021895D01*
X051884Y021736D02*
X051704Y021736D01*
X051863Y021578D02*
X052027Y021578D01*
X052819Y021371D02*
X053071Y021475D01*
X053305Y021709D01*
X053320Y021746D01*
X053320Y001614D01*
X053305Y001651D01*
X053071Y001885D01*
X052765Y002011D01*
X052435Y002011D01*
X052129Y001885D01*
X051990Y001745D01*
X051990Y005538D01*
X051946Y005644D01*
X051864Y005726D01*
X051758Y005770D01*
X051445Y005770D01*
X051445Y005827D01*
X051404Y005927D01*
X051327Y006003D01*
X051227Y006045D01*
X050473Y006045D01*
X050373Y006003D01*
X050296Y005927D01*
X050255Y005827D01*
X050255Y005152D01*
X050296Y005053D01*
X050373Y004976D01*
X050473Y004935D01*
X051227Y004935D01*
X051327Y004976D01*
X051404Y005053D01*
X051410Y005068D01*
X051410Y004792D01*
X051404Y004807D01*
X051327Y004884D01*
X051227Y004925D01*
X050473Y004925D01*
X050373Y004884D01*
X050296Y004807D01*
X050255Y004708D01*
X050255Y004033D01*
X050296Y003933D01*
X050373Y003857D01*
X050473Y003815D01*
X050560Y003815D01*
X050560Y003181D01*
X050301Y003181D01*
X050301Y002822D01*
X050265Y002822D01*
X050265Y002786D01*
X049862Y002786D01*
X049820Y002827D01*
X049724Y002867D01*
X049109Y002867D01*
X049014Y002827D01*
X048946Y002760D01*
X048557Y003149D01*
X048557Y003482D01*
X048517Y003578D01*
X048443Y003652D01*
X048347Y003692D01*
X047853Y003692D01*
X047757Y003652D01*
X047683Y003578D01*
X047645Y003486D01*
X047366Y003486D01*
X047366Y003733D01*
X047325Y003832D01*
X047250Y003907D01*
X047151Y003948D01*
X046549Y003948D01*
X046450Y003907D01*
X046375Y003832D01*
X046334Y003733D01*
X046334Y003131D01*
X046375Y003032D01*
X046450Y002957D01*
X046549Y002916D01*
X047003Y002916D01*
X047029Y002906D01*
X047645Y002906D01*
X047683Y002813D01*
X047757Y002740D01*
X047853Y002700D01*
X048186Y002700D01*
X048620Y002266D01*
X048701Y002184D01*
X048808Y002140D01*
X048927Y002140D01*
X048941Y002106D01*
X049014Y002033D01*
X049109Y001993D01*
X049724Y001993D01*
X049767Y002011D01*
X049767Y001827D01*
X049791Y001770D01*
X031490Y001770D01*
X031490Y002222D01*
X031588Y002321D01*
X031658Y002489D01*
X031658Y002671D01*
X031588Y002839D01*
X031459Y002968D01*
X031291Y003038D01*
X031109Y003038D01*
X030941Y002968D01*
X030812Y002839D01*
X030742Y002671D01*
X030742Y002489D01*
X030812Y002321D01*
X030910Y002222D01*
X030910Y001422D01*
X030954Y001316D01*
X031036Y001234D01*
X031142Y001190D01*
X051758Y001190D01*
X051769Y001195D01*
X051769Y001015D01*
X051895Y000709D01*
X052129Y000475D01*
X052166Y000460D01*
X027284Y000460D01*
X027321Y000475D01*
X027555Y000709D01*
X027681Y001015D01*
X027681Y001345D01*
X027555Y001651D01*
X027321Y001885D01*
X027015Y002011D01*
X026685Y002011D01*
X026379Y001885D01*
X026145Y001651D01*
X026019Y001345D01*
X026019Y001015D01*
X026145Y000709D01*
X026379Y000475D01*
X026416Y000460D01*
X019100Y000460D01*
X019100Y003002D01*
X019204Y003002D01*
X019204Y003162D01*
X019824Y003162D01*
X019817Y003220D01*
X019793Y003310D01*
X019757Y003395D01*
X019711Y003475D01*
X019655Y003548D01*
X019589Y003614D01*
X019516Y003670D01*
X019436Y003716D01*
X019351Y003751D01*
X019261Y003775D01*
X019204Y003783D01*
X019204Y003162D01*
X019100Y003162D01*
X019100Y005010D01*
X019204Y005010D01*
X019204Y005170D01*
X019824Y005170D01*
X019817Y005228D01*
X019793Y005317D01*
X019757Y005403D01*
X019711Y005483D01*
X019655Y005556D01*
X019589Y005621D01*
X019516Y005678D01*
X019436Y005724D01*
X019351Y005759D01*
X019261Y005783D01*
X019204Y005791D01*
X019204Y005170D01*
X019100Y005170D01*
X019100Y007270D01*
X019220Y007150D01*
X019220Y006154D01*
X019261Y006056D01*
X019336Y005981D01*
X019435Y005940D01*
X020037Y005940D01*
X020135Y005981D01*
X020211Y006056D01*
X020251Y006154D01*
X020251Y007306D01*
X020211Y007404D01*
X020135Y007479D01*
X020037Y007520D01*
X019670Y007520D01*
X019364Y007826D01*
X019258Y007870D01*
X019100Y007870D01*
X019100Y011270D01*
X019220Y011150D01*
X019220Y010154D01*
X019261Y010056D01*
X019336Y009981D01*
X019435Y009940D01*
X020037Y009940D01*
X020135Y009981D01*
X020211Y010056D01*
X020251Y010154D01*
X020251Y011306D01*
X020211Y011404D01*
X020135Y011479D01*
X020037Y011520D01*
X019670Y011520D01*
X019264Y011926D01*
X019158Y011970D01*
X019100Y011970D01*
X019100Y015270D01*
X019220Y015150D01*
X019220Y014154D01*
X019261Y014056D01*
X019336Y013981D01*
X019435Y013940D01*
X020037Y013940D01*
X020135Y013981D01*
X020211Y014056D01*
X020251Y014154D01*
X020251Y014545D01*
X020262Y014521D01*
X020391Y014392D01*
X020559Y014322D01*
X020741Y014322D01*
X020909Y014392D01*
X021008Y014490D01*
X021842Y014490D01*
X021941Y014392D01*
X022109Y014322D01*
X022291Y014322D01*
X022459Y014392D01*
X022460Y014392D01*
X022460Y014383D01*
X022455Y014343D01*
X022460Y014326D01*
X022460Y014068D01*
X022459Y014068D01*
X022291Y014138D01*
X022109Y014138D01*
X021941Y014068D01*
X021842Y013970D01*
X021008Y013970D01*
X020909Y014068D01*
X020741Y014138D01*
X020559Y014138D01*
X020391Y014068D01*
X020262Y013939D01*
X020192Y013771D01*
X020192Y013589D01*
X020262Y013421D01*
X020391Y013292D01*
X020559Y013222D01*
X020741Y013222D01*
X020909Y013292D01*
X021008Y013390D01*
X021340Y013390D01*
X021315Y013379D01*
X021239Y013304D01*
X021199Y013206D01*
X021199Y012054D01*
X021234Y011970D01*
X021220Y011970D01*
X020314Y012876D01*
X020251Y012902D01*
X020251Y013206D01*
X020211Y013304D01*
X020135Y013379D01*
X020037Y013420D01*
X019435Y013420D01*
X019336Y013379D01*
X019261Y013304D01*
X019220Y013206D01*
X019220Y012054D01*
X019261Y011956D01*
X019336Y011881D01*
X019435Y011840D01*
X020037Y011840D01*
X020135Y011881D01*
X020211Y011956D01*
X020251Y012054D01*
X020251Y012118D01*
X020854Y011516D01*
X020936Y011434D01*
X021042Y011390D01*
X021234Y011390D01*
X021199Y011306D01*
X021199Y010154D01*
X021239Y010056D01*
X021315Y009981D01*
X021413Y009940D01*
X021806Y009940D01*
X022095Y009538D01*
X022104Y009516D01*
X022128Y009492D01*
X022148Y009464D01*
X022169Y009451D01*
X022186Y009434D01*
X022217Y009421D01*
X022246Y009403D01*
X022263Y009400D01*
X022699Y008828D01*
X022699Y008054D01*
X022734Y007970D01*
X022470Y007970D01*
X021564Y008876D01*
X021458Y008920D01*
X020251Y008920D01*
X020251Y009206D01*
X020211Y009304D01*
X020135Y009379D01*
X020037Y009420D01*
X019435Y009420D01*
X019336Y009379D01*
X019261Y009304D01*
X019220Y009206D01*
X019220Y008054D01*
X019261Y007956D01*
X019336Y007881D01*
X019435Y007840D01*
X020037Y007840D01*
X020135Y007881D01*
X020211Y007956D01*
X020251Y008054D01*
X020251Y008340D01*
X021280Y008340D01*
X022104Y007516D01*
X022186Y007434D01*
X022292Y007390D01*
X022734Y007390D01*
X022699Y007306D01*
X022699Y006154D01*
X022739Y006056D01*
X022815Y005981D01*
X022913Y005940D01*
X023515Y005940D01*
X023614Y005981D01*
X023689Y006056D01*
X023730Y006154D01*
X023730Y007306D01*
X023695Y007390D01*
X023916Y007390D01*
X024470Y006835D01*
X024470Y006154D01*
X024511Y006056D01*
X024586Y005981D01*
X024685Y005940D01*
X025287Y005940D01*
X025385Y005981D01*
X025461Y006056D01*
X025501Y006154D01*
X025501Y007306D01*
X025461Y007404D01*
X025385Y007479D01*
X025287Y007520D01*
X024685Y007520D01*
X024629Y007497D01*
X024200Y007926D01*
X024094Y007970D01*
X023695Y007970D01*
X023730Y008054D01*
X023730Y009206D01*
X023689Y009304D01*
X023614Y009379D01*
X023515Y009420D01*
X022977Y009420D01*
X022668Y009826D01*
X022660Y009844D01*
X022633Y009871D01*
X022610Y009902D01*
X022593Y009912D01*
X022578Y009926D01*
X022543Y009940D01*
X022510Y009960D01*
X022506Y009960D01*
X022230Y010345D01*
X022230Y011306D01*
X022195Y011390D01*
X022416Y011390D01*
X022970Y010835D01*
X022970Y010154D01*
X023011Y010056D01*
X023086Y009981D01*
X023185Y009940D01*
X023787Y009940D01*
X023885Y009981D01*
X023961Y010056D01*
X024001Y010154D01*
X024001Y011306D01*
X023961Y011404D01*
X023885Y011479D01*
X023787Y011520D01*
X023185Y011520D01*
X023129Y011497D01*
X022700Y011926D01*
X022594Y011970D01*
X022195Y011970D01*
X022230Y012054D01*
X022230Y012340D01*
X022808Y012340D01*
X022914Y012384D01*
X022970Y012440D01*
X022970Y012054D01*
X023011Y011956D01*
X023086Y011881D01*
X023185Y011840D01*
X023530Y011840D01*
X023854Y011516D01*
X023936Y011434D01*
X024042Y011390D01*
X024234Y011390D01*
X024199Y011306D01*
X024199Y010154D01*
X024239Y010056D01*
X024315Y009981D01*
X024413Y009940D01*
X025015Y009940D01*
X025114Y009981D01*
X025189Y010056D01*
X025230Y010154D01*
X025230Y011306D01*
X025195Y011390D01*
X025416Y011390D01*
X025970Y010835D01*
X025970Y010154D01*
X026011Y010056D01*
X026086Y009981D01*
X026185Y009940D01*
X026787Y009940D01*
X026841Y009962D01*
X025490Y009232D01*
X025461Y009304D01*
X025385Y009379D01*
X025287Y009420D01*
X024685Y009420D01*
X024586Y009379D01*
X024511Y009304D01*
X024470Y009206D01*
X024470Y008054D01*
X024511Y007956D01*
X024586Y007881D01*
X024685Y007840D01*
X025287Y007840D01*
X025385Y007881D01*
X025461Y007956D01*
X025501Y008054D01*
X025501Y008579D01*
X028238Y010058D01*
X028304Y009898D01*
X028444Y009758D01*
X028627Y009683D01*
X028825Y009683D01*
X029008Y009758D01*
X029148Y009898D01*
X029223Y010081D01*
X029223Y010279D01*
X029148Y010462D01*
X029008Y010602D01*
X028825Y010677D01*
X028627Y010677D01*
X028540Y010641D01*
X028540Y010719D01*
X028627Y010683D01*
X028825Y010683D01*
X029008Y010758D01*
X029148Y010898D01*
X029223Y011081D01*
X029223Y011279D01*
X029148Y011462D01*
X029008Y011602D01*
X028825Y011677D01*
X028627Y011677D01*
X028540Y011641D01*
X028540Y011719D01*
X028627Y011683D01*
X028825Y011683D01*
X029008Y011758D01*
X029107Y011857D01*
X029092Y011821D01*
X029092Y011639D01*
X029162Y011471D01*
X029291Y011342D01*
X029459Y011272D01*
X029641Y011272D01*
X029809Y011342D01*
X029938Y011471D01*
X030008Y011639D01*
X030008Y011778D01*
X030370Y012140D01*
X035691Y012140D01*
X035642Y012021D01*
X035642Y011839D01*
X035712Y011671D01*
X035827Y011555D01*
X035712Y011439D01*
X035642Y011271D01*
X035642Y011089D01*
X035712Y010921D01*
X035841Y010792D01*
X036009Y010722D01*
X036148Y010722D01*
X039436Y007434D01*
X039542Y007390D01*
X045158Y007390D01*
X045264Y007434D01*
X045346Y007516D01*
X047199Y009369D01*
X047244Y009476D01*
X047244Y014389D01*
X047387Y014448D01*
X047539Y014600D01*
X047621Y014799D01*
X047621Y014949D01*
X048136Y014434D01*
X048242Y014390D01*
X052310Y014390D01*
X052310Y006970D01*
X048042Y006970D01*
X047936Y006926D01*
X047854Y006844D01*
X047810Y006738D01*
X047810Y005642D01*
X047757Y005620D01*
X047683Y005547D01*
X047645Y005454D01*
X047029Y005454D01*
X047003Y005444D01*
X046549Y005444D01*
X046450Y005403D01*
X046375Y005328D01*
X046334Y005229D01*
X046334Y004627D01*
X046375Y004528D01*
X046450Y004453D01*
X046549Y004412D01*
X047151Y004412D01*
X047250Y004453D01*
X047325Y004528D01*
X047366Y004627D01*
X047366Y004874D01*
X047645Y004874D01*
X047683Y004782D01*
X047757Y004708D01*
X047853Y004668D01*
X048347Y004668D01*
X048443Y004708D01*
X048517Y004782D01*
X048557Y004878D01*
X048557Y005451D01*
X048517Y005547D01*
X048443Y005620D01*
X048390Y005642D01*
X048390Y006390D01*
X052658Y006390D01*
X052764Y006434D01*
X052846Y006516D01*
X052890Y006622D01*
X052890Y021238D01*
X052846Y021344D01*
X052819Y021371D01*
X052935Y021419D02*
X053320Y021419D01*
X053320Y021261D02*
X052881Y021261D01*
X052890Y021102D02*
X053320Y021102D01*
X053320Y020944D02*
X052890Y020944D01*
X052890Y020785D02*
X053320Y020785D01*
X053320Y020627D02*
X052890Y020627D01*
X052890Y020468D02*
X053320Y020468D01*
X053320Y020310D02*
X052890Y020310D01*
X052890Y020151D02*
X053320Y020151D01*
X053320Y019993D02*
X052890Y019993D01*
X052890Y019834D02*
X053320Y019834D01*
X053320Y019676D02*
X052890Y019676D01*
X052890Y019517D02*
X053320Y019517D01*
X053320Y019359D02*
X052890Y019359D01*
X052890Y019200D02*
X053320Y019200D01*
X053320Y019042D02*
X052890Y019042D01*
X052890Y018883D02*
X053320Y018883D01*
X053320Y018725D02*
X052890Y018725D01*
X052890Y018566D02*
X053320Y018566D01*
X053320Y018408D02*
X052890Y018408D01*
X052890Y018249D02*
X053320Y018249D01*
X053320Y018091D02*
X052890Y018091D01*
X052890Y017932D02*
X053320Y017932D01*
X053320Y017774D02*
X052890Y017774D01*
X052890Y017615D02*
X053320Y017615D01*
X053320Y017457D02*
X052890Y017457D01*
X052890Y017298D02*
X053320Y017298D01*
X053320Y017140D02*
X052890Y017140D01*
X052890Y016981D02*
X053320Y016981D01*
X053320Y016823D02*
X052890Y016823D01*
X052890Y016664D02*
X053320Y016664D01*
X053320Y016506D02*
X052890Y016506D01*
X052890Y016347D02*
X053320Y016347D01*
X053320Y016189D02*
X052890Y016189D01*
X052890Y016030D02*
X053320Y016030D01*
X053320Y015872D02*
X052890Y015872D01*
X052890Y015713D02*
X053320Y015713D01*
X053320Y015555D02*
X052890Y015555D01*
X052890Y015396D02*
X053320Y015396D01*
X053320Y015238D02*
X052890Y015238D01*
X052890Y015079D02*
X053320Y015079D01*
X053320Y014921D02*
X052890Y014921D01*
X052890Y014762D02*
X053320Y014762D01*
X053320Y014604D02*
X052890Y014604D01*
X052890Y014445D02*
X053320Y014445D01*
X053320Y014287D02*
X052890Y014287D01*
X052890Y014128D02*
X053320Y014128D01*
X053320Y013970D02*
X052890Y013970D01*
X052890Y013811D02*
X053320Y013811D01*
X053320Y013653D02*
X052890Y013653D01*
X052890Y013494D02*
X053320Y013494D01*
X053320Y013336D02*
X052890Y013336D01*
X052890Y013177D02*
X053320Y013177D01*
X053320Y013019D02*
X052890Y013019D01*
X052890Y012860D02*
X053320Y012860D01*
X053320Y012702D02*
X052890Y012702D01*
X052890Y012543D02*
X053320Y012543D01*
X053320Y012385D02*
X052890Y012385D01*
X052890Y012226D02*
X053320Y012226D01*
X053320Y012068D02*
X052890Y012068D01*
X052890Y011909D02*
X053320Y011909D01*
X053320Y011751D02*
X052890Y011751D01*
X052890Y011592D02*
X053320Y011592D01*
X053320Y011434D02*
X052890Y011434D01*
X052890Y011275D02*
X053320Y011275D01*
X053320Y011117D02*
X052890Y011117D01*
X052890Y010958D02*
X053320Y010958D01*
X053320Y010800D02*
X052890Y010800D01*
X052890Y010641D02*
X053320Y010641D01*
X053320Y010483D02*
X052890Y010483D01*
X052890Y010324D02*
X053320Y010324D01*
X053320Y010166D02*
X052890Y010166D01*
X052890Y010007D02*
X053320Y010007D01*
X053320Y009849D02*
X052890Y009849D01*
X052890Y009690D02*
X053320Y009690D01*
X053320Y009532D02*
X052890Y009532D01*
X052890Y009373D02*
X053320Y009373D01*
X053320Y009215D02*
X052890Y009215D01*
X052890Y009056D02*
X053320Y009056D01*
X053320Y008898D02*
X052890Y008898D01*
X052890Y008739D02*
X053320Y008739D01*
X053320Y008581D02*
X052890Y008581D01*
X052890Y008422D02*
X053320Y008422D01*
X053320Y008264D02*
X052890Y008264D01*
X052890Y008105D02*
X053320Y008105D01*
X053320Y007947D02*
X052890Y007947D01*
X052890Y007788D02*
X053320Y007788D01*
X053320Y007630D02*
X052890Y007630D01*
X052890Y007471D02*
X053320Y007471D01*
X053320Y007313D02*
X052890Y007313D01*
X052890Y007154D02*
X053320Y007154D01*
X053320Y006996D02*
X052890Y006996D01*
X052890Y006837D02*
X053320Y006837D01*
X053320Y006679D02*
X052890Y006679D01*
X052848Y006520D02*
X053320Y006520D01*
X053320Y006362D02*
X048390Y006362D01*
X048390Y006203D02*
X053320Y006203D01*
X053320Y006045D02*
X051228Y006045D01*
X051421Y005886D02*
X053320Y005886D01*
X053320Y005728D02*
X051860Y005728D01*
X051977Y005569D02*
X053320Y005569D01*
X053320Y005411D02*
X051990Y005411D01*
X051990Y005252D02*
X053320Y005252D01*
X053320Y005094D02*
X051990Y005094D01*
X051990Y004935D02*
X053320Y004935D01*
X053320Y004777D02*
X051990Y004777D01*
X051990Y004618D02*
X053320Y004618D01*
X053320Y004460D02*
X051990Y004460D01*
X051990Y004301D02*
X053320Y004301D01*
X053320Y004143D02*
X051990Y004143D01*
X051990Y003984D02*
X053320Y003984D01*
X053320Y003826D02*
X051990Y003826D01*
X051990Y003667D02*
X053320Y003667D01*
X053320Y003509D02*
X051990Y003509D01*
X051990Y003350D02*
X053320Y003350D01*
X053320Y003192D02*
X051990Y003192D01*
X051990Y003033D02*
X053320Y003033D01*
X053320Y002875D02*
X051990Y002875D01*
X051990Y002716D02*
X053320Y002716D01*
X053320Y002558D02*
X051990Y002558D01*
X051990Y002399D02*
X053320Y002399D01*
X053320Y002241D02*
X051990Y002241D01*
X051990Y002082D02*
X053320Y002082D01*
X053320Y001924D02*
X052977Y001924D01*
X053190Y001765D02*
X053320Y001765D01*
X052223Y001924D02*
X051990Y001924D01*
X051990Y001765D02*
X052010Y001765D01*
X051769Y001131D02*
X027681Y001131D01*
X027681Y001290D02*
X030980Y001290D01*
X030910Y001448D02*
X027639Y001448D01*
X027573Y001607D02*
X030910Y001607D01*
X030910Y001765D02*
X027440Y001765D01*
X027227Y001924D02*
X030910Y001924D01*
X030910Y002082D02*
X019100Y002082D01*
X019100Y001924D02*
X026473Y001924D01*
X026260Y001765D02*
X019100Y001765D01*
X019100Y001607D02*
X026127Y001607D01*
X026061Y001448D02*
X019100Y001448D01*
X019100Y001290D02*
X026019Y001290D01*
X026019Y001131D02*
X019100Y001131D01*
X019100Y000973D02*
X026036Y000973D01*
X026102Y000814D02*
X019100Y000814D01*
X019100Y000656D02*
X026199Y000656D01*
X026358Y000497D02*
X019100Y000497D01*
X019100Y002241D02*
X030892Y002241D01*
X030779Y002399D02*
X021305Y002399D01*
X021269Y002389D02*
X021358Y002413D01*
X021444Y002449D01*
X021524Y002495D01*
X021597Y002551D01*
X021663Y002617D01*
X021719Y002690D01*
X021765Y002770D01*
X021800Y002855D01*
X021824Y002945D01*
X021832Y003002D01*
X021211Y003002D01*
X021211Y002382D01*
X021269Y002389D01*
X021211Y002399D02*
X021051Y002399D01*
X021051Y002382D02*
X021051Y003002D01*
X021211Y003002D01*
X021211Y003162D01*
X021832Y003162D01*
X021824Y003220D01*
X021800Y003310D01*
X021765Y003395D01*
X021719Y003475D01*
X021663Y003548D01*
X021597Y003614D01*
X021524Y003670D01*
X021444Y003716D01*
X021358Y003751D01*
X021269Y003775D01*
X021211Y003783D01*
X021211Y003162D01*
X021051Y003162D01*
X021051Y003002D01*
X020431Y003002D01*
X020438Y002945D01*
X020462Y002855D01*
X020498Y002770D01*
X020544Y002690D01*
X020600Y002617D01*
X020666Y002551D01*
X020739Y002495D01*
X020819Y002449D01*
X020904Y002413D01*
X020994Y002389D01*
X021051Y002382D01*
X020958Y002399D02*
X019297Y002399D01*
X019261Y002389D02*
X019351Y002413D01*
X019436Y002449D01*
X019516Y002495D01*
X019589Y002551D01*
X019655Y002617D01*
X019711Y002690D01*
X019757Y002770D01*
X019793Y002855D01*
X019817Y002945D01*
X019824Y003002D01*
X019204Y003002D01*
X019204Y002382D01*
X019261Y002389D01*
X019204Y002399D02*
X019100Y002399D01*
X019100Y002558D02*
X019204Y002558D01*
X019204Y002716D02*
X019100Y002716D01*
X019100Y002875D02*
X019204Y002875D01*
X019204Y003033D02*
X021051Y003033D01*
X021051Y003162D02*
X020431Y003162D01*
X020438Y003220D01*
X020462Y003310D01*
X020498Y003395D01*
X020544Y003475D01*
X020600Y003548D01*
X020666Y003614D01*
X020739Y003670D01*
X020819Y003716D01*
X020904Y003751D01*
X020994Y003775D01*
X021051Y003783D01*
X021051Y003162D01*
X021051Y003192D02*
X021211Y003192D01*
X021211Y003350D02*
X021051Y003350D01*
X021051Y003509D02*
X021211Y003509D01*
X021211Y003667D02*
X021051Y003667D01*
X020735Y003667D02*
X020691Y003667D01*
X020717Y003693D02*
X020822Y003948D01*
X020822Y004225D01*
X020717Y004480D01*
X020521Y004675D01*
X020266Y004781D01*
X019989Y004781D01*
X019734Y004675D01*
X019538Y004480D01*
X019432Y004225D01*
X019432Y003948D01*
X019538Y003693D01*
X019734Y003497D01*
X019989Y003391D01*
X020266Y003391D01*
X020521Y003497D01*
X020717Y003693D01*
X020772Y003826D02*
X041479Y003826D01*
X041537Y003802D02*
X041750Y003802D01*
X041947Y003883D01*
X042098Y004034D01*
X042180Y004231D01*
X042180Y004444D01*
X042098Y004641D01*
X041947Y004792D01*
X041750Y004873D01*
X041537Y004873D01*
X041340Y004792D01*
X041189Y004641D01*
X041108Y004444D01*
X041108Y004231D01*
X041189Y004034D01*
X041340Y003883D01*
X041537Y003802D01*
X041808Y003826D02*
X046373Y003826D01*
X046334Y003667D02*
X021528Y003667D01*
X021693Y003509D02*
X046334Y003509D01*
X046334Y003350D02*
X021784Y003350D01*
X021828Y003192D02*
X046334Y003192D01*
X046375Y003033D02*
X031303Y003033D01*
X031097Y003033D02*
X021211Y003033D01*
X021211Y002875D02*
X021051Y002875D01*
X021051Y002716D02*
X021211Y002716D01*
X021211Y002558D02*
X021051Y002558D01*
X020659Y002558D02*
X019596Y002558D01*
X019726Y002716D02*
X020529Y002716D01*
X020457Y002875D02*
X019798Y002875D01*
X019820Y003192D02*
X020435Y003192D01*
X020479Y003350D02*
X019776Y003350D01*
X019722Y003509D02*
X019685Y003509D01*
X019564Y003667D02*
X019520Y003667D01*
X019483Y003826D02*
X019100Y003826D01*
X019100Y003984D02*
X019432Y003984D01*
X019432Y004143D02*
X019100Y004143D01*
X019100Y004301D02*
X019464Y004301D01*
X019436Y004457D02*
X019351Y004421D01*
X019261Y004397D01*
X019204Y004390D01*
X019204Y005010D01*
X019824Y005010D01*
X019817Y004952D01*
X019793Y004863D01*
X019757Y004778D01*
X019711Y004698D01*
X019655Y004624D01*
X019589Y004559D01*
X019516Y004503D01*
X019436Y004457D01*
X019441Y004460D02*
X019530Y004460D01*
X019648Y004618D02*
X019676Y004618D01*
X019757Y004777D02*
X019978Y004777D01*
X019812Y004935D02*
X020443Y004935D01*
X020438Y004952D02*
X020462Y004863D01*
X020498Y004778D01*
X020544Y004698D01*
X020600Y004624D01*
X020666Y004559D01*
X020739Y004503D01*
X020819Y004457D01*
X020904Y004421D01*
X020994Y004397D01*
X021051Y004390D01*
X021051Y005010D01*
X020431Y005010D01*
X020438Y004952D01*
X020498Y004777D02*
X020277Y004777D01*
X020579Y004618D02*
X020607Y004618D01*
X020725Y004460D02*
X020814Y004460D01*
X020791Y004301D02*
X041108Y004301D01*
X041114Y004460D02*
X021449Y004460D01*
X021444Y004457D02*
X021524Y004503D01*
X021597Y004559D01*
X021663Y004624D01*
X021719Y004698D01*
X021765Y004778D01*
X021800Y004863D01*
X021824Y004952D01*
X021832Y005010D01*
X021211Y005010D01*
X021211Y004390D01*
X021269Y004397D01*
X021358Y004421D01*
X021444Y004457D01*
X021211Y004460D02*
X021051Y004460D01*
X021051Y004618D02*
X021211Y004618D01*
X021211Y004777D02*
X021051Y004777D01*
X021051Y004935D02*
X021211Y004935D01*
X021211Y005010D02*
X021051Y005010D01*
X021051Y005170D01*
X020431Y005170D01*
X020438Y005228D01*
X020462Y005317D01*
X020498Y005403D01*
X020544Y005483D01*
X020600Y005556D01*
X020666Y005621D01*
X020739Y005678D01*
X020819Y005724D01*
X020904Y005759D01*
X020994Y005783D01*
X021051Y005791D01*
X021051Y005170D01*
X021211Y005170D01*
X021211Y005791D01*
X021269Y005783D01*
X021358Y005759D01*
X021444Y005724D01*
X021524Y005678D01*
X021597Y005621D01*
X021663Y005556D01*
X021719Y005483D01*
X021765Y005403D01*
X021800Y005317D01*
X021824Y005228D01*
X021832Y005170D01*
X021211Y005170D01*
X021211Y005010D01*
X021211Y005094D02*
X026316Y005094D01*
X026319Y005091D02*
X026343Y005067D01*
X026361Y005060D01*
X026420Y005016D01*
X026432Y005001D01*
X026462Y004984D01*
X026489Y004964D01*
X026507Y004959D01*
X026572Y004924D01*
X026587Y004911D01*
X026618Y004899D01*
X026648Y004883D01*
X026667Y004881D01*
X026736Y004855D01*
X026752Y004844D01*
X026785Y004837D01*
X026817Y004825D01*
X026836Y004826D01*
X026908Y004810D01*
X026926Y004801D01*
X026960Y004799D01*
X026993Y004792D01*
X027012Y004795D01*
X027085Y004790D01*
X027104Y004784D01*
X027137Y004786D01*
X027171Y004784D01*
X027190Y004790D01*
X027263Y004795D01*
X027282Y004792D01*
X027315Y004799D01*
X027349Y004801D01*
X027366Y004810D01*
X027439Y004826D01*
X027458Y004825D01*
X027490Y004837D01*
X027523Y004844D01*
X027538Y004855D01*
X027608Y004881D01*
X027627Y004883D01*
X027657Y004899D01*
X027688Y004911D01*
X027702Y004924D01*
X027767Y004959D01*
X027786Y004964D01*
X027813Y004984D01*
X027843Y005001D01*
X027855Y005016D01*
X027914Y005060D01*
X027932Y005067D01*
X027956Y005091D01*
X027983Y005112D01*
X027993Y005128D01*
X028045Y005180D01*
X028062Y005190D01*
X028082Y005217D01*
X028106Y005241D01*
X028113Y005259D01*
X028158Y005318D01*
X028173Y005331D01*
X028189Y005360D01*
X028209Y005387D01*
X028214Y005406D01*
X028249Y005471D01*
X028263Y005485D01*
X028274Y005517D01*
X028291Y005546D01*
X028293Y005566D01*
X028318Y005635D01*
X028330Y005651D01*
X028337Y005684D01*
X028348Y005715D01*
X028348Y005735D01*
X028364Y005807D01*
X028372Y005824D01*
X028375Y005858D01*
X028382Y005891D01*
X028378Y005910D01*
X028384Y005984D01*
X028390Y006002D01*
X028387Y006036D01*
X028390Y006070D01*
X028384Y006088D01*
X028378Y006162D01*
X028382Y006181D01*
X028375Y006214D01*
X028372Y006247D01*
X028364Y006265D01*
X028348Y006337D01*
X028348Y006356D01*
X028337Y006388D01*
X028330Y006421D01*
X028318Y006437D01*
X028293Y006506D01*
X028291Y006526D01*
X028274Y006555D01*
X028263Y006587D01*
X028249Y006601D01*
X028214Y006666D01*
X028209Y006685D01*
X028189Y006712D01*
X028173Y006741D01*
X028158Y006753D01*
X028113Y006813D01*
X028106Y006831D01*
X028082Y006854D01*
X028062Y006881D01*
X028045Y006891D01*
X027993Y006944D01*
X027983Y006960D01*
X027956Y006981D01*
X027932Y007004D01*
X027914Y007012D01*
X027855Y007056D01*
X027843Y007071D01*
X027813Y007087D01*
X027786Y007108D01*
X027767Y007112D01*
X027702Y007148D01*
X027688Y007161D01*
X027657Y007173D01*
X027627Y007189D01*
X027608Y007191D01*
X027538Y007217D01*
X027523Y007228D01*
X027490Y007235D01*
X027458Y007247D01*
X027439Y007246D01*
X027366Y007262D01*
X027349Y007271D01*
X027315Y007273D01*
X027282Y007280D01*
X027263Y007277D01*
X027190Y007282D01*
X027171Y007288D01*
X027137Y007286D01*
X027104Y007288D01*
X027085Y007282D01*
X027012Y007277D01*
X026993Y007280D01*
X026960Y007273D01*
X026926Y007271D01*
X026908Y007262D01*
X026836Y007246D01*
X026817Y007247D01*
X026785Y007235D01*
X026752Y007228D01*
X026736Y007217D01*
X026667Y007191D01*
X026648Y007189D01*
X026618Y007173D01*
X026587Y007161D01*
X026572Y007148D01*
X026507Y007112D01*
X026489Y007108D01*
X026462Y007087D01*
X026432Y007071D01*
X026420Y007056D01*
X026361Y007012D01*
X026343Y007004D01*
X026319Y006981D01*
X026292Y006960D01*
X026282Y006944D01*
X026230Y006891D01*
X026213Y006881D01*
X026193Y006854D01*
X026169Y006831D01*
X026161Y006813D01*
X026117Y006753D01*
X026102Y006741D01*
X026086Y006712D01*
X026066Y006685D01*
X026061Y006666D01*
X026025Y006601D01*
X026012Y006587D01*
X026000Y006555D01*
X025984Y006526D01*
X025982Y006506D01*
X025956Y006437D01*
X025945Y006421D01*
X025938Y006388D01*
X025926Y006356D01*
X025927Y006337D01*
X025911Y006265D01*
X025903Y006247D01*
X025900Y006214D01*
X025893Y006181D01*
X025896Y006162D01*
X025891Y006088D01*
X025885Y006070D01*
X025887Y006036D01*
X025885Y006002D01*
X025891Y005984D01*
X025896Y005910D01*
X025893Y005891D01*
X025900Y005858D01*
X025903Y005824D01*
X025911Y005807D01*
X025927Y005735D01*
X025926Y005715D01*
X025938Y005684D01*
X025945Y005651D01*
X025956Y005635D01*
X025982Y005566D01*
X025984Y005546D01*
X026000Y005517D01*
X026012Y005485D01*
X026025Y005471D01*
X026061Y005406D01*
X026066Y005387D01*
X026086Y005360D01*
X026102Y005331D01*
X026117Y005318D01*
X026161Y005259D01*
X026169Y005241D01*
X026193Y005217D01*
X026213Y005190D01*
X026230Y005180D01*
X026282Y005128D01*
X026292Y005112D01*
X026319Y005091D01*
X026164Y005252D02*
X021818Y005252D01*
X021761Y005411D02*
X026058Y005411D01*
X025981Y005569D02*
X021650Y005569D01*
X021435Y005728D02*
X025927Y005728D01*
X025894Y005886D02*
X019100Y005886D01*
X019100Y005728D02*
X019204Y005728D01*
X019204Y005569D02*
X019100Y005569D01*
X019100Y005411D02*
X019204Y005411D01*
X019204Y005252D02*
X019100Y005252D01*
X019204Y005094D02*
X021051Y005094D01*
X021051Y005252D02*
X021211Y005252D01*
X021211Y005411D02*
X021051Y005411D01*
X021051Y005569D02*
X021211Y005569D01*
X021211Y005728D02*
X021051Y005728D01*
X020828Y005728D02*
X019427Y005728D01*
X019642Y005569D02*
X020613Y005569D01*
X020502Y005411D02*
X019753Y005411D01*
X019810Y005252D02*
X020445Y005252D01*
X019204Y004935D02*
X019100Y004935D01*
X019100Y004777D02*
X019204Y004777D01*
X019204Y004618D02*
X019100Y004618D01*
X019100Y004460D02*
X019204Y004460D01*
X020822Y004143D02*
X041144Y004143D01*
X041239Y003984D02*
X020822Y003984D01*
X020570Y003509D02*
X020533Y003509D01*
X019204Y003509D02*
X019100Y003509D01*
X019100Y003667D02*
X019204Y003667D01*
X019204Y003350D02*
X019100Y003350D01*
X019100Y003192D02*
X019204Y003192D01*
X021604Y002558D02*
X030742Y002558D01*
X030760Y002716D02*
X021734Y002716D01*
X021806Y002875D02*
X030847Y002875D01*
X031553Y002875D02*
X047658Y002875D01*
X047814Y002716D02*
X031640Y002716D01*
X031658Y002558D02*
X048328Y002558D01*
X048487Y002399D02*
X031621Y002399D01*
X031508Y002241D02*
X048645Y002241D01*
X048965Y002082D02*
X031490Y002082D01*
X031490Y001924D02*
X049767Y001924D01*
X049827Y002822D02*
X050265Y002822D01*
X050265Y003181D01*
X050001Y003181D01*
X049950Y003167D01*
X049905Y003141D01*
X049867Y003104D01*
X049841Y003058D01*
X049827Y003007D01*
X049827Y002822D01*
X049827Y002875D02*
X048831Y002875D01*
X048673Y003033D02*
X049834Y003033D01*
X050265Y003033D02*
X050301Y003033D01*
X050301Y002875D02*
X050265Y002875D01*
X050560Y003192D02*
X048557Y003192D01*
X048557Y003350D02*
X050560Y003350D01*
X050560Y003509D02*
X048546Y003509D01*
X048406Y003667D02*
X050560Y003667D01*
X050448Y003826D02*
X047327Y003826D01*
X047366Y003667D02*
X047794Y003667D01*
X047654Y003509D02*
X047366Y003509D01*
X047256Y004460D02*
X050255Y004460D01*
X050255Y004618D02*
X047362Y004618D01*
X047366Y004777D02*
X047689Y004777D01*
X048511Y004777D02*
X049067Y004777D01*
X049061Y004782D02*
X049135Y004708D01*
X049231Y004668D01*
X049725Y004668D01*
X049821Y004708D01*
X049895Y004782D01*
X049934Y004878D01*
X049934Y005451D01*
X049895Y005547D01*
X049821Y005620D01*
X049725Y005660D01*
X049231Y005660D01*
X049135Y005620D01*
X049061Y005547D01*
X049021Y005451D01*
X049021Y004878D01*
X049061Y004782D01*
X049021Y004935D02*
X048557Y004935D01*
X048557Y005094D02*
X049021Y005094D01*
X049021Y005252D02*
X048557Y005252D01*
X048557Y005411D02*
X049021Y005411D01*
X049084Y005569D02*
X048494Y005569D01*
X048390Y005728D02*
X050255Y005728D01*
X050255Y005569D02*
X049872Y005569D01*
X049934Y005411D02*
X050255Y005411D01*
X050255Y005252D02*
X049934Y005252D01*
X049934Y005094D02*
X050279Y005094D01*
X050472Y004935D02*
X049934Y004935D01*
X049889Y004777D02*
X050284Y004777D01*
X050255Y004301D02*
X042180Y004301D01*
X042173Y004460D02*
X046444Y004460D01*
X046338Y004618D02*
X042108Y004618D01*
X041963Y004777D02*
X046334Y004777D01*
X046334Y004935D02*
X027723Y004935D01*
X027959Y005094D02*
X046334Y005094D01*
X046344Y005252D02*
X028110Y005252D01*
X028216Y005411D02*
X046469Y005411D01*
X047706Y005569D02*
X028294Y005569D01*
X028348Y005728D02*
X047810Y005728D01*
X047810Y005886D02*
X028381Y005886D01*
X028388Y006045D02*
X047810Y006045D01*
X047810Y006203D02*
X028377Y006203D01*
X028347Y006362D02*
X047810Y006362D01*
X047810Y006520D02*
X030470Y006520D01*
X030486Y006527D02*
X030553Y006594D01*
X030590Y006682D01*
X030590Y007478D01*
X030553Y007566D01*
X030486Y007633D01*
X030398Y007670D01*
X029552Y007670D01*
X029464Y007633D01*
X029397Y007566D01*
X029360Y007478D01*
X029360Y006682D01*
X029397Y006594D01*
X029464Y006527D01*
X029552Y006490D01*
X030398Y006490D01*
X030486Y006527D01*
X030588Y006679D02*
X047810Y006679D01*
X047851Y006837D02*
X030590Y006837D01*
X030590Y006996D02*
X052310Y006996D01*
X052310Y007154D02*
X030590Y007154D01*
X030590Y007313D02*
X052310Y007313D01*
X052310Y007471D02*
X045301Y007471D01*
X045460Y007630D02*
X052310Y007630D01*
X052310Y007788D02*
X051226Y007788D01*
X051180Y007741D02*
X051332Y007893D01*
X051414Y008092D01*
X051414Y008307D01*
X051372Y008408D01*
X051473Y008366D01*
X051688Y008366D01*
X051887Y008448D01*
X052039Y008600D01*
X052121Y008799D01*
X052121Y009014D01*
X052039Y009212D01*
X051632Y009619D01*
X051434Y009701D01*
X051219Y009701D01*
X051020Y009619D01*
X050868Y009467D01*
X050786Y009268D01*
X050786Y009053D01*
X050828Y008952D01*
X050727Y008994D01*
X050512Y008994D01*
X050313Y008912D01*
X050161Y008760D01*
X050079Y008561D01*
X050079Y008346D01*
X050161Y008148D01*
X050568Y007741D01*
X050766Y007659D01*
X050981Y007659D01*
X051180Y007741D01*
X051354Y007947D02*
X052310Y007947D01*
X052310Y008105D02*
X051414Y008105D01*
X051414Y008264D02*
X052310Y008264D01*
X052310Y008422D02*
X051823Y008422D01*
X052019Y008581D02*
X052310Y008581D01*
X052310Y008739D02*
X052096Y008739D01*
X052121Y008898D02*
X052310Y008898D01*
X052310Y009056D02*
X052103Y009056D01*
X052036Y009215D02*
X052310Y009215D01*
X052310Y009373D02*
X051878Y009373D01*
X051719Y009532D02*
X052310Y009532D01*
X052310Y009690D02*
X051460Y009690D01*
X051193Y009690D02*
X047244Y009690D01*
X047244Y009532D02*
X050933Y009532D01*
X050830Y009373D02*
X047201Y009373D01*
X047045Y009215D02*
X050786Y009215D01*
X050786Y009056D02*
X046886Y009056D01*
X046728Y008898D02*
X050299Y008898D01*
X050153Y008739D02*
X046569Y008739D01*
X046411Y008581D02*
X050087Y008581D01*
X050079Y008422D02*
X046252Y008422D01*
X046094Y008264D02*
X050113Y008264D01*
X050204Y008105D02*
X045935Y008105D01*
X045777Y007947D02*
X050363Y007947D01*
X050521Y007788D02*
X045618Y007788D01*
X044980Y008970D02*
X044925Y008970D01*
X044971Y009081D01*
X044971Y009279D01*
X044896Y009462D01*
X044756Y009602D01*
X044573Y009677D01*
X044375Y009677D01*
X044192Y009602D01*
X044052Y009462D01*
X043977Y009279D01*
X043977Y009081D01*
X044023Y008970D01*
X039470Y008970D01*
X036558Y011882D01*
X036558Y012021D01*
X036509Y012140D01*
X037145Y012140D01*
X037189Y012034D01*
X037340Y011883D01*
X037537Y011802D01*
X037750Y011802D01*
X037947Y011883D01*
X038098Y012034D01*
X038180Y012231D01*
X038180Y012444D01*
X038098Y012641D01*
X037947Y012792D01*
X037750Y012873D01*
X037654Y012873D01*
X038920Y014140D01*
X041042Y014140D01*
X041158Y014140D01*
X041264Y014184D01*
X042470Y015390D01*
X044023Y015390D01*
X043977Y015279D01*
X043977Y015081D01*
X044052Y014898D01*
X044192Y014758D01*
X044375Y014683D01*
X044573Y014683D01*
X044756Y014758D01*
X044896Y014898D01*
X044971Y015081D01*
X044971Y015267D01*
X045494Y015790D01*
X046780Y015790D01*
X046869Y015701D01*
X046719Y015701D01*
X046520Y015619D01*
X046368Y015467D01*
X046286Y015268D01*
X046286Y015053D01*
X046328Y014952D01*
X046227Y014994D01*
X046012Y014994D01*
X045813Y014912D01*
X045661Y014760D01*
X045579Y014561D01*
X045579Y014346D01*
X045661Y014148D01*
X045956Y013853D01*
X045956Y009947D01*
X044980Y008970D01*
X044961Y009056D02*
X045066Y009056D01*
X044971Y009215D02*
X045224Y009215D01*
X045383Y009373D02*
X044933Y009373D01*
X044826Y009532D02*
X045541Y009532D01*
X045700Y009690D02*
X044591Y009690D01*
X044573Y009683D02*
X044756Y009758D01*
X044896Y009898D01*
X044971Y010081D01*
X044971Y010279D01*
X044896Y010462D01*
X044756Y010602D01*
X044573Y010677D01*
X044375Y010677D01*
X044192Y010602D01*
X044052Y010462D01*
X043977Y010279D01*
X043977Y010081D01*
X044052Y009898D01*
X044192Y009758D01*
X044375Y009683D01*
X044573Y009683D01*
X044357Y009690D02*
X038750Y009690D01*
X038592Y009849D02*
X044102Y009849D01*
X044007Y010007D02*
X038433Y010007D01*
X038275Y010166D02*
X043977Y010166D01*
X043995Y010324D02*
X038116Y010324D01*
X037958Y010483D02*
X044073Y010483D01*
X044287Y010641D02*
X037799Y010641D01*
X037641Y010800D02*
X044151Y010800D01*
X044192Y010758D02*
X044052Y010898D01*
X043977Y011081D01*
X043977Y011279D01*
X044052Y011462D01*
X044192Y011602D01*
X044375Y011677D01*
X044573Y011677D01*
X044756Y011602D01*
X044896Y011462D01*
X044971Y011279D01*
X044971Y011081D01*
X044896Y010898D01*
X044756Y010758D01*
X044573Y010683D01*
X044375Y010683D01*
X044192Y010758D01*
X044027Y010958D02*
X037482Y010958D01*
X037324Y011117D02*
X043977Y011117D01*
X043977Y011275D02*
X037165Y011275D01*
X037007Y011434D02*
X044041Y011434D01*
X044182Y011592D02*
X036848Y011592D01*
X036690Y011751D02*
X044211Y011751D01*
X044192Y011758D02*
X044375Y011683D01*
X044573Y011683D01*
X044756Y011758D01*
X044896Y011898D01*
X044971Y012081D01*
X044971Y012279D01*
X044896Y012462D01*
X044756Y012602D01*
X044573Y012677D01*
X044375Y012677D01*
X044192Y012602D01*
X044052Y012462D01*
X043977Y012279D01*
X043977Y012081D01*
X044052Y011898D01*
X044192Y011758D01*
X044048Y011909D02*
X037973Y011909D01*
X038112Y012068D02*
X043982Y012068D01*
X043977Y012226D02*
X038178Y012226D01*
X038180Y012385D02*
X044020Y012385D01*
X044133Y012543D02*
X038139Y012543D01*
X038038Y012702D02*
X044329Y012702D01*
X044375Y012683D02*
X044192Y012758D01*
X044052Y012898D01*
X043977Y013081D01*
X043977Y013279D01*
X044052Y013462D01*
X044192Y013602D01*
X044375Y013677D01*
X044573Y013677D01*
X044756Y013602D01*
X044896Y013462D01*
X044971Y013279D01*
X044971Y013081D01*
X044896Y012898D01*
X044756Y012758D01*
X044573Y012683D01*
X044375Y012683D01*
X044619Y012702D02*
X045956Y012702D01*
X045956Y012860D02*
X044858Y012860D01*
X044946Y013019D02*
X045956Y013019D01*
X045956Y013177D02*
X044971Y013177D01*
X044948Y013336D02*
X045956Y013336D01*
X045956Y013494D02*
X044864Y013494D01*
X044633Y013653D02*
X045956Y013653D01*
X045956Y013811D02*
X044710Y013811D01*
X044703Y013806D02*
X044759Y013846D01*
X044808Y013895D01*
X044848Y013951D01*
X044879Y014012D01*
X044901Y014078D01*
X044911Y014146D01*
X044911Y014180D01*
X044911Y014214D01*
X044901Y014282D01*
X044879Y014348D01*
X044848Y014409D01*
X044808Y014465D01*
X044759Y014514D01*
X044703Y014554D01*
X044642Y014585D01*
X044576Y014607D01*
X044508Y014617D01*
X044474Y014617D01*
X044474Y014180D01*
X044474Y014180D01*
X044037Y014180D01*
X044037Y014146D01*
X044047Y014078D01*
X044069Y014012D01*
X044100Y013951D01*
X044140Y013895D01*
X044189Y013846D01*
X044245Y013806D01*
X044306Y013775D01*
X044372Y013753D01*
X044440Y013743D01*
X044474Y013743D01*
X044508Y013743D01*
X044576Y013753D01*
X044642Y013775D01*
X044703Y013806D01*
X044858Y013970D02*
X045840Y013970D01*
X045681Y014128D02*
X044909Y014128D01*
X044911Y014180D02*
X044474Y014180D01*
X044037Y014180D01*
X044037Y014214D01*
X044047Y014282D01*
X044069Y014348D01*
X044100Y014409D01*
X044140Y014465D01*
X044189Y014514D01*
X044245Y014554D01*
X044306Y014585D01*
X044372Y014607D01*
X044440Y014617D01*
X044474Y014617D01*
X044474Y014180D01*
X044474Y014180D01*
X044474Y014180D01*
X044474Y013743D01*
X044474Y014180D01*
X044911Y014180D01*
X044899Y014287D02*
X045604Y014287D01*
X045579Y014445D02*
X044822Y014445D01*
X044586Y014604D02*
X045597Y014604D01*
X045664Y014762D02*
X044760Y014762D01*
X044905Y014921D02*
X045835Y014921D01*
X046286Y015079D02*
X044971Y015079D01*
X044971Y015238D02*
X046286Y015238D01*
X046339Y015396D02*
X045100Y015396D01*
X045259Y015555D02*
X046456Y015555D01*
X046857Y015713D02*
X045417Y015713D01*
X043977Y015238D02*
X042318Y015238D01*
X042159Y015079D02*
X043977Y015079D01*
X044043Y014921D02*
X042001Y014921D01*
X041842Y014762D02*
X044188Y014762D01*
X044362Y014604D02*
X041684Y014604D01*
X041525Y014445D02*
X044126Y014445D01*
X044049Y014287D02*
X041367Y014287D01*
X040889Y015079D02*
X039304Y015079D01*
X039308Y015238D02*
X041047Y015238D01*
X041206Y015396D02*
X039256Y015396D01*
X039123Y015555D02*
X041364Y015555D01*
X041342Y015713D02*
X028540Y015713D01*
X028540Y015872D02*
X041342Y015872D01*
X041408Y016030D02*
X028540Y016030D01*
X028540Y016189D02*
X041589Y016189D01*
X042011Y016189D02*
X042060Y016189D01*
X042035Y016347D02*
X028540Y016347D01*
X028540Y016506D02*
X041926Y016506D01*
X041892Y016664D02*
X028540Y016664D01*
X028540Y016823D02*
X036710Y016823D01*
X036587Y016981D02*
X028540Y016981D01*
X028540Y017140D02*
X036542Y017140D01*
X036472Y017298D02*
X028540Y017298D01*
X028540Y017457D02*
X036313Y017457D01*
X036155Y017615D02*
X028540Y017615D01*
X028540Y017774D02*
X035996Y017774D01*
X035838Y017932D02*
X028540Y017932D01*
X028540Y018091D02*
X035679Y018091D01*
X035570Y018249D02*
X028540Y018249D01*
X028540Y018408D02*
X035560Y018408D01*
X035560Y018566D02*
X028540Y018566D01*
X025810Y019517D02*
X019100Y019517D01*
X019100Y019359D02*
X025368Y019359D01*
X025210Y019200D02*
X019100Y019200D01*
X019100Y019042D02*
X025051Y019042D01*
X024893Y018883D02*
X019100Y018883D01*
X019100Y018725D02*
X024734Y018725D01*
X025810Y019676D02*
X019100Y019676D01*
X019100Y019834D02*
X025810Y019834D01*
X025810Y019993D02*
X019100Y019993D01*
X019100Y020151D02*
X025810Y020151D01*
X025810Y020310D02*
X020111Y020310D01*
X020251Y020468D02*
X025810Y020468D01*
X025810Y020627D02*
X020317Y020627D01*
X020317Y020785D02*
X025810Y020785D01*
X025810Y020944D02*
X020271Y020944D01*
X020159Y021102D02*
X025862Y021102D01*
X026277Y021578D02*
X019100Y021578D01*
X019100Y021736D02*
X026134Y021736D01*
X026069Y021895D02*
X019100Y021895D01*
X019100Y022053D02*
X026019Y022053D01*
X026019Y022212D02*
X019100Y022212D01*
X019100Y022370D02*
X026029Y022370D01*
X026095Y022529D02*
X019100Y022529D01*
X019100Y022687D02*
X026182Y022687D01*
X026340Y022846D02*
X019100Y022846D01*
X019100Y021419D02*
X026515Y021419D01*
X035991Y022687D02*
X039511Y022687D01*
X039602Y022778D02*
X039252Y022428D01*
X039252Y021932D01*
X039602Y021582D01*
X040098Y021582D01*
X040448Y021932D01*
X040448Y022428D01*
X040098Y022778D01*
X039602Y022778D01*
X039352Y022529D02*
X036114Y022529D01*
X036158Y022370D02*
X039252Y022370D01*
X039252Y022212D02*
X036566Y022212D01*
X036674Y022053D02*
X037025Y022053D01*
X036893Y021895D02*
X036708Y021895D01*
X037575Y022053D02*
X039252Y022053D01*
X039289Y021895D02*
X037707Y021895D01*
X037758Y021736D02*
X039448Y021736D01*
X040252Y021736D02*
X040698Y021736D01*
X040852Y021582D02*
X041348Y021582D01*
X041698Y021932D01*
X041698Y022428D01*
X041348Y022778D01*
X040852Y022778D01*
X040502Y022428D01*
X040502Y021932D01*
X040852Y021582D01*
X040539Y021895D02*
X040411Y021895D01*
X040448Y022053D02*
X040502Y022053D01*
X040502Y022212D02*
X040448Y022212D01*
X040448Y022370D02*
X040502Y022370D01*
X040602Y022529D02*
X040348Y022529D01*
X040189Y022687D02*
X040761Y022687D01*
X041439Y022687D02*
X042511Y022687D01*
X042602Y022778D02*
X042252Y022428D01*
X042252Y021932D01*
X042602Y021582D01*
X043098Y021582D01*
X043448Y021932D01*
X043448Y022428D01*
X043098Y022778D01*
X042602Y022778D01*
X042352Y022529D02*
X041598Y022529D01*
X041698Y022370D02*
X042252Y022370D01*
X042252Y022212D02*
X041698Y022212D01*
X041698Y022053D02*
X042252Y022053D01*
X042289Y021895D02*
X041661Y021895D01*
X041502Y021736D02*
X042448Y021736D01*
X043252Y021736D02*
X043933Y021736D01*
X043933Y021578D02*
X037753Y021578D01*
X037937Y021419D02*
X043778Y021419D01*
X043619Y021261D02*
X038167Y021261D01*
X038245Y021102D02*
X042862Y021102D01*
X042810Y020944D02*
X038258Y020944D01*
X038215Y020785D02*
X042810Y020785D01*
X042810Y020627D02*
X038094Y020627D01*
X037506Y020627D02*
X037441Y020627D01*
X037253Y020468D02*
X042810Y020468D01*
X042810Y020310D02*
X037151Y020310D01*
X037208Y020151D02*
X042810Y020151D01*
X042810Y019993D02*
X037208Y019993D01*
X037144Y019834D02*
X042810Y019834D01*
X042810Y019676D02*
X036971Y019676D01*
X036749Y019517D02*
X042810Y019517D01*
X042810Y019359D02*
X036676Y019359D01*
X036459Y019200D02*
X042722Y019200D01*
X042650Y019042D02*
X036122Y019042D01*
X036140Y018883D02*
X042642Y018883D01*
X042689Y018725D02*
X036140Y018725D01*
X036140Y018566D02*
X042816Y018566D01*
X043384Y018566D02*
X048310Y018566D01*
X048310Y018408D02*
X036183Y018408D01*
X036341Y018249D02*
X048310Y018249D01*
X048310Y018091D02*
X043306Y018091D01*
X042894Y018091D02*
X036500Y018091D01*
X036658Y017932D02*
X042709Y017932D01*
X042643Y017774D02*
X036817Y017774D01*
X037147Y017615D02*
X042642Y017615D01*
X042697Y017457D02*
X037371Y017457D01*
X037447Y017298D02*
X042674Y017298D01*
X042642Y017140D02*
X037458Y017140D01*
X037413Y016981D02*
X042003Y016981D01*
X041913Y016823D02*
X037290Y016823D01*
X038577Y015555D02*
X029055Y015555D01*
X029175Y015396D02*
X038444Y015396D01*
X038392Y015238D02*
X029223Y015238D01*
X029223Y015079D02*
X038339Y015079D01*
X038180Y014921D02*
X029157Y014921D01*
X029012Y014762D02*
X038022Y014762D01*
X037863Y014604D02*
X029003Y014604D01*
X029155Y014445D02*
X037705Y014445D01*
X037546Y014287D02*
X029220Y014287D01*
X029223Y014128D02*
X037388Y014128D01*
X037229Y013970D02*
X029177Y013970D01*
X029061Y013811D02*
X037071Y013811D01*
X036912Y013653D02*
X036127Y013653D01*
X035773Y013653D02*
X028885Y013653D01*
X029116Y013494D02*
X035566Y013494D01*
X035498Y013336D02*
X029200Y013336D01*
X029223Y013177D02*
X035492Y013177D01*
X037799Y013019D02*
X044002Y013019D01*
X043977Y013177D02*
X037957Y013177D01*
X038116Y013336D02*
X044000Y013336D01*
X044084Y013494D02*
X038274Y013494D01*
X038433Y013653D02*
X044315Y013653D01*
X044238Y013811D02*
X038591Y013811D01*
X038750Y013970D02*
X044090Y013970D01*
X044039Y014128D02*
X038908Y014128D01*
X037783Y012860D02*
X044090Y012860D01*
X044815Y012543D02*
X045956Y012543D01*
X045956Y012385D02*
X044928Y012385D01*
X044971Y012226D02*
X045956Y012226D01*
X045956Y012068D02*
X044966Y012068D01*
X044900Y011909D02*
X045956Y011909D01*
X045956Y011751D02*
X044737Y011751D01*
X044766Y011592D02*
X045956Y011592D01*
X045956Y011434D02*
X044907Y011434D01*
X044971Y011275D02*
X045956Y011275D01*
X045956Y011117D02*
X044971Y011117D01*
X044921Y010958D02*
X045956Y010958D01*
X045956Y010800D02*
X044797Y010800D01*
X044661Y010641D02*
X045956Y010641D01*
X045956Y010483D02*
X044875Y010483D01*
X044953Y010324D02*
X045956Y010324D01*
X045956Y010166D02*
X044971Y010166D01*
X044941Y010007D02*
X045956Y010007D01*
X045858Y009849D02*
X044846Y009849D01*
X044122Y009532D02*
X038909Y009532D01*
X039067Y009373D02*
X044015Y009373D01*
X043977Y009215D02*
X039226Y009215D01*
X039384Y009056D02*
X043987Y009056D01*
X047244Y009849D02*
X052310Y009849D01*
X052310Y010007D02*
X047244Y010007D01*
X047244Y010166D02*
X052310Y010166D01*
X052310Y010324D02*
X047244Y010324D01*
X047244Y010483D02*
X052310Y010483D01*
X052310Y010641D02*
X048785Y010641D01*
X048770Y010626D02*
X048954Y010810D01*
X049053Y011050D01*
X049053Y011310D01*
X048954Y011550D01*
X048770Y011734D01*
X048530Y011833D01*
X048270Y011833D01*
X048030Y011734D01*
X047846Y011550D01*
X047747Y011310D01*
X047747Y011050D01*
X047846Y010810D01*
X048030Y010626D01*
X048270Y010527D01*
X048530Y010527D01*
X048770Y010626D01*
X048944Y010800D02*
X052310Y010800D01*
X052310Y010958D02*
X049015Y010958D01*
X049053Y011117D02*
X052310Y011117D01*
X052310Y011275D02*
X049053Y011275D01*
X049002Y011434D02*
X052310Y011434D01*
X052310Y011592D02*
X050088Y011592D01*
X050170Y011626D02*
X050354Y011810D01*
X050453Y012050D01*
X050453Y012310D01*
X050354Y012550D01*
X050170Y012734D01*
X049930Y012833D01*
X049670Y012833D01*
X049430Y012734D01*
X049246Y012550D01*
X049147Y012310D01*
X049147Y012050D01*
X049246Y011810D01*
X049430Y011626D01*
X049670Y011527D01*
X049930Y011527D01*
X050170Y011626D01*
X050295Y011751D02*
X052310Y011751D01*
X052310Y011909D02*
X050395Y011909D01*
X050453Y012068D02*
X052310Y012068D01*
X052310Y012226D02*
X050453Y012226D01*
X050423Y012385D02*
X052310Y012385D01*
X052310Y012543D02*
X050357Y012543D01*
X050203Y012702D02*
X052310Y012702D01*
X052310Y012860D02*
X047244Y012860D01*
X047244Y012702D02*
X049397Y012702D01*
X049243Y012543D02*
X047244Y012543D01*
X047244Y012385D02*
X049177Y012385D01*
X049147Y012226D02*
X047244Y012226D01*
X047244Y012068D02*
X049147Y012068D01*
X049205Y011909D02*
X047244Y011909D01*
X047244Y011751D02*
X048070Y011751D01*
X047888Y011592D02*
X047244Y011592D01*
X047244Y011434D02*
X047798Y011434D01*
X047747Y011275D02*
X047244Y011275D01*
X047244Y011117D02*
X047747Y011117D01*
X047785Y010958D02*
X047244Y010958D01*
X047244Y010800D02*
X047856Y010800D01*
X048015Y010641D02*
X047244Y010641D01*
X048912Y011592D02*
X049512Y011592D01*
X049305Y011751D02*
X048730Y011751D01*
X047244Y013019D02*
X052310Y013019D01*
X052310Y013177D02*
X047244Y013177D01*
X047244Y013336D02*
X052310Y013336D01*
X052310Y013494D02*
X047244Y013494D01*
X047244Y013653D02*
X052310Y013653D01*
X052310Y013811D02*
X047244Y013811D01*
X047244Y013970D02*
X052310Y013970D01*
X052310Y014128D02*
X047244Y014128D01*
X047244Y014287D02*
X052310Y014287D01*
X052310Y015079D02*
X050409Y015079D01*
X050568Y015238D02*
X052310Y015238D01*
X052310Y015396D02*
X050726Y015396D01*
X050885Y015555D02*
X052310Y015555D01*
X052310Y015713D02*
X051043Y015713D01*
X051189Y015872D02*
X052310Y015872D01*
X052310Y016030D02*
X051284Y016030D01*
X051308Y016189D02*
X052310Y016189D01*
X052310Y016347D02*
X051277Y016347D01*
X051172Y016506D02*
X052310Y016506D01*
X052310Y016664D02*
X051244Y016664D01*
X051403Y016823D02*
X052310Y016823D01*
X052310Y016981D02*
X051561Y016981D01*
X051640Y017140D02*
X052310Y017140D01*
X052310Y017298D02*
X051640Y017298D01*
X051640Y017457D02*
X052310Y017457D01*
X052310Y017615D02*
X051640Y017615D01*
X051640Y017774D02*
X052310Y017774D01*
X052310Y017932D02*
X051640Y017932D01*
X051640Y018091D02*
X052310Y018091D01*
X052310Y018249D02*
X051640Y018249D01*
X051640Y018408D02*
X052310Y018408D01*
X052310Y018566D02*
X051608Y018566D01*
X051466Y018725D02*
X052310Y018725D01*
X052310Y018883D02*
X051308Y018883D01*
X051300Y019042D02*
X052310Y019042D01*
X052310Y019200D02*
X051228Y019200D01*
X051013Y019359D02*
X052310Y019359D01*
X052310Y019517D02*
X050297Y019517D01*
X050320Y019676D02*
X052310Y019676D01*
X052310Y019834D02*
X051152Y019834D01*
X051268Y019993D02*
X052310Y019993D01*
X052310Y020151D02*
X051308Y020151D01*
X051292Y020310D02*
X052310Y020310D01*
X052310Y020468D02*
X051210Y020468D01*
X050969Y020627D02*
X052310Y020627D01*
X052310Y020785D02*
X050249Y020785D01*
X050248Y020792D02*
X050225Y020864D01*
X050191Y020932D01*
X050146Y020993D01*
X050093Y021046D01*
X050032Y021091D01*
X049964Y021125D01*
X049892Y021148D01*
X049818Y021160D01*
X049620Y021160D01*
X049620Y020700D01*
X050260Y020700D01*
X050260Y020718D01*
X050248Y020792D01*
X050182Y020944D02*
X051676Y020944D01*
X051518Y021102D02*
X050009Y021102D01*
X049620Y021102D02*
X049580Y021102D01*
X049580Y020944D02*
X049620Y020944D01*
X049620Y020785D02*
X049580Y020785D01*
X049018Y020944D02*
X047153Y020944D01*
X047153Y020785D02*
X048951Y020785D01*
X048942Y020627D02*
X047153Y020627D01*
X047100Y020468D02*
X048788Y020468D01*
X048569Y020310D02*
X046941Y020310D01*
X046144Y020310D02*
X045941Y020310D01*
X045144Y020310D02*
X045133Y020310D01*
X043952Y020310D02*
X043390Y020310D01*
X043390Y020468D02*
X043933Y020468D01*
X043933Y020627D02*
X043390Y020627D01*
X043390Y020151D02*
X048411Y020151D01*
X048312Y019993D02*
X043390Y019993D01*
X043390Y019834D02*
X048310Y019834D01*
X048310Y019676D02*
X043390Y019676D01*
X043390Y019517D02*
X048310Y019517D01*
X048310Y019359D02*
X043390Y019359D01*
X043478Y019200D02*
X048310Y019200D01*
X048310Y019042D02*
X043550Y019042D01*
X043558Y018883D02*
X048310Y018883D01*
X048310Y018725D02*
X043511Y018725D01*
X046918Y021261D02*
X051359Y021261D01*
X051201Y021419D02*
X046966Y021419D01*
X047093Y021578D02*
X051042Y021578D01*
X050884Y021736D02*
X047093Y021736D01*
X047093Y021895D02*
X050725Y021895D01*
X050567Y022053D02*
X047041Y022053D01*
X044963Y022687D02*
X043189Y022687D01*
X043348Y022529D02*
X044788Y022529D01*
X044276Y022370D02*
X043448Y022370D01*
X043448Y022212D02*
X044118Y022212D01*
X043959Y022053D02*
X043448Y022053D01*
X043411Y021895D02*
X043933Y021895D01*
X047077Y021102D02*
X049191Y021102D01*
X050258Y020627D02*
X050731Y020627D01*
X050548Y019834D02*
X050301Y019834D01*
X050222Y019359D02*
X050687Y019359D01*
X050472Y019200D02*
X050032Y019200D01*
X050182Y019042D02*
X050400Y019042D01*
X050392Y018883D02*
X050280Y018883D01*
X050320Y018725D02*
X050439Y018725D01*
X050317Y018566D02*
X050566Y018566D01*
X050252Y018408D02*
X050962Y018408D01*
X051060Y018249D02*
X050113Y018249D01*
X050133Y018091D02*
X051060Y018091D01*
X051060Y017932D02*
X050260Y017932D01*
X050320Y017774D02*
X050546Y017774D01*
X050431Y017615D02*
X050320Y017615D01*
X050272Y017457D02*
X050392Y017457D01*
X047649Y014921D02*
X047621Y014921D01*
X047606Y014762D02*
X047808Y014762D01*
X047966Y014604D02*
X047540Y014604D01*
X047378Y014445D02*
X048125Y014445D01*
X044474Y014445D02*
X044474Y014445D01*
X044474Y014287D02*
X044474Y014287D01*
X044474Y014180D02*
X044474Y014180D01*
X044474Y014128D02*
X044474Y014128D01*
X044474Y013970D02*
X044474Y013970D01*
X044474Y013811D02*
X044474Y013811D01*
X044474Y014604D02*
X044474Y014604D01*
X037314Y011909D02*
X036558Y011909D01*
X036539Y012068D02*
X037175Y012068D01*
X035790Y011592D02*
X029989Y011592D01*
X030008Y011751D02*
X035678Y011751D01*
X035642Y011909D02*
X030139Y011909D01*
X030298Y012068D02*
X035661Y012068D01*
X035709Y011434D02*
X029901Y011434D01*
X029649Y011275D02*
X035644Y011275D01*
X035642Y011117D02*
X029223Y011117D01*
X029223Y011275D02*
X029451Y011275D01*
X029199Y011434D02*
X029159Y011434D01*
X029111Y011592D02*
X029018Y011592D01*
X028989Y011751D02*
X029092Y011751D01*
X029218Y012068D02*
X029240Y012068D01*
X029223Y012226D02*
X029499Y012226D01*
X029248Y012385D02*
X029180Y012385D01*
X029161Y012543D02*
X029067Y012543D01*
X029142Y012702D02*
X028871Y012702D01*
X029110Y012860D02*
X029179Y012860D01*
X029198Y013019D02*
X029291Y013019D01*
X028581Y012702D02*
X028540Y012702D01*
X028540Y013653D02*
X028567Y013653D01*
X023778Y011592D02*
X023034Y011592D01*
X022875Y011751D02*
X023619Y011751D01*
X023058Y011909D02*
X022717Y011909D01*
X022970Y012068D02*
X022230Y012068D01*
X022230Y012226D02*
X022970Y012226D01*
X022970Y012385D02*
X022915Y012385D01*
X021199Y012385D02*
X020806Y012385D01*
X020647Y012543D02*
X021199Y012543D01*
X021199Y012702D02*
X020489Y012702D01*
X020330Y012860D02*
X021199Y012860D01*
X021199Y013019D02*
X020251Y013019D01*
X020251Y013177D02*
X021199Y013177D01*
X021271Y013336D02*
X020953Y013336D01*
X020347Y013336D02*
X020179Y013336D01*
X020231Y013494D02*
X019100Y013494D01*
X019100Y013336D02*
X019292Y013336D01*
X019220Y013177D02*
X019100Y013177D01*
X019100Y013019D02*
X019220Y013019D01*
X019220Y012860D02*
X019100Y012860D01*
X019100Y012702D02*
X019220Y012702D01*
X019220Y012543D02*
X019100Y012543D01*
X019100Y012385D02*
X019220Y012385D01*
X019220Y012226D02*
X019100Y012226D01*
X019100Y012068D02*
X019220Y012068D01*
X019281Y011909D02*
X019308Y011909D01*
X019440Y011751D02*
X020619Y011751D01*
X020461Y011909D02*
X020164Y011909D01*
X020251Y012068D02*
X020302Y012068D01*
X020964Y012226D02*
X021199Y012226D01*
X021199Y012068D02*
X021123Y012068D01*
X020778Y011592D02*
X019598Y011592D01*
X020181Y011434D02*
X020937Y011434D01*
X021199Y011275D02*
X020251Y011275D01*
X020251Y011117D02*
X021199Y011117D01*
X021199Y010958D02*
X020251Y010958D01*
X020251Y010800D02*
X021199Y010800D01*
X021199Y010641D02*
X020251Y010641D01*
X020251Y010483D02*
X021199Y010483D01*
X021199Y010324D02*
X020251Y010324D01*
X020251Y010166D02*
X021199Y010166D01*
X021288Y010007D02*
X020162Y010007D01*
X019310Y010007D02*
X019100Y010007D01*
X019100Y009849D02*
X021872Y009849D01*
X021986Y009690D02*
X019100Y009690D01*
X019100Y009532D02*
X022098Y009532D01*
X022283Y009373D02*
X020142Y009373D01*
X020248Y009215D02*
X022404Y009215D01*
X022525Y009056D02*
X020251Y009056D01*
X019330Y009373D02*
X019100Y009373D01*
X019100Y009215D02*
X019224Y009215D01*
X019220Y009056D02*
X019100Y009056D01*
X019100Y008898D02*
X019220Y008898D01*
X019220Y008739D02*
X019100Y008739D01*
X019100Y008581D02*
X019220Y008581D01*
X019220Y008422D02*
X019100Y008422D01*
X019100Y008264D02*
X019220Y008264D01*
X019220Y008105D02*
X019100Y008105D01*
X019100Y007947D02*
X019270Y007947D01*
X019402Y007788D02*
X021832Y007788D01*
X021990Y007630D02*
X019561Y007630D01*
X020144Y007471D02*
X022149Y007471D01*
X022701Y007313D02*
X020249Y007313D01*
X020251Y007154D02*
X022699Y007154D01*
X022699Y006996D02*
X020251Y006996D01*
X020251Y006837D02*
X022699Y006837D01*
X022699Y006679D02*
X020251Y006679D01*
X020251Y006520D02*
X022699Y006520D01*
X022699Y006362D02*
X020251Y006362D01*
X020251Y006203D02*
X022699Y006203D01*
X022751Y006045D02*
X020199Y006045D01*
X019272Y006045D02*
X019100Y006045D01*
X019100Y006203D02*
X019220Y006203D01*
X019220Y006362D02*
X019100Y006362D01*
X019100Y006520D02*
X019220Y006520D01*
X019220Y006679D02*
X019100Y006679D01*
X019100Y006837D02*
X019220Y006837D01*
X019220Y006996D02*
X019100Y006996D01*
X019100Y007154D02*
X019216Y007154D01*
X020201Y007947D02*
X021673Y007947D01*
X021515Y008105D02*
X020251Y008105D01*
X020251Y008264D02*
X021356Y008264D01*
X021860Y008581D02*
X022699Y008581D01*
X022699Y008739D02*
X021701Y008739D01*
X021512Y008898D02*
X022646Y008898D01*
X022699Y008422D02*
X022018Y008422D01*
X022177Y008264D02*
X022699Y008264D01*
X022699Y008105D02*
X022335Y008105D01*
X023730Y008105D02*
X024470Y008105D01*
X024470Y008264D02*
X023730Y008264D01*
X023730Y008422D02*
X024470Y008422D01*
X024470Y008581D02*
X023730Y008581D01*
X023730Y008739D02*
X024470Y008739D01*
X024470Y008898D02*
X023730Y008898D01*
X023730Y009056D02*
X024470Y009056D01*
X024474Y009215D02*
X023726Y009215D01*
X023620Y009373D02*
X024580Y009373D01*
X025392Y009373D02*
X025751Y009373D01*
X026044Y009532D02*
X022892Y009532D01*
X022771Y009690D02*
X026337Y009690D01*
X026630Y009849D02*
X022656Y009849D01*
X022472Y010007D02*
X023060Y010007D01*
X022970Y010166D02*
X022358Y010166D01*
X022245Y010324D02*
X022970Y010324D01*
X022970Y010483D02*
X022230Y010483D01*
X022230Y010641D02*
X022970Y010641D01*
X022970Y010800D02*
X022230Y010800D01*
X022230Y010958D02*
X022848Y010958D01*
X022689Y011117D02*
X022230Y011117D01*
X022230Y011275D02*
X022531Y011275D01*
X023931Y011434D02*
X023937Y011434D01*
X024001Y011275D02*
X024199Y011275D01*
X024199Y011117D02*
X024001Y011117D01*
X024001Y010958D02*
X024199Y010958D01*
X024199Y010800D02*
X024001Y010800D01*
X024001Y010641D02*
X024199Y010641D01*
X024199Y010483D02*
X024001Y010483D01*
X024001Y010324D02*
X024199Y010324D01*
X024199Y010166D02*
X024001Y010166D01*
X023912Y010007D02*
X024288Y010007D01*
X025140Y010007D02*
X026060Y010007D01*
X025970Y010166D02*
X025230Y010166D01*
X025230Y010324D02*
X025970Y010324D01*
X025970Y010483D02*
X025230Y010483D01*
X025230Y010641D02*
X025970Y010641D01*
X025970Y010800D02*
X025230Y010800D01*
X025230Y010958D02*
X025848Y010958D01*
X025689Y011117D02*
X025230Y011117D01*
X025230Y011275D02*
X025531Y011275D01*
X027850Y009849D02*
X028354Y009849D01*
X028259Y010007D02*
X028144Y010007D01*
X028444Y009602D02*
X028627Y009677D01*
X028825Y009677D01*
X029008Y009602D01*
X029148Y009462D01*
X029223Y009279D01*
X029223Y009081D01*
X029148Y008898D01*
X029008Y008758D01*
X028825Y008683D01*
X028627Y008683D01*
X028444Y008758D01*
X028304Y008898D01*
X028229Y009081D01*
X028229Y009279D01*
X028304Y009462D01*
X028444Y009602D01*
X028374Y009532D02*
X027264Y009532D01*
X027557Y009690D02*
X028609Y009690D01*
X028843Y009690D02*
X037180Y009690D01*
X037338Y009532D02*
X029078Y009532D01*
X029185Y009373D02*
X037497Y009373D01*
X037655Y009215D02*
X029223Y009215D01*
X029213Y009056D02*
X037814Y009056D01*
X037972Y008898D02*
X029147Y008898D01*
X028961Y008739D02*
X038131Y008739D01*
X038289Y008581D02*
X029029Y008581D01*
X029008Y008602D02*
X028825Y008677D01*
X028627Y008677D01*
X028444Y008602D01*
X028304Y008462D01*
X028229Y008279D01*
X028229Y008081D01*
X028304Y007898D01*
X028444Y007758D01*
X028627Y007683D01*
X028825Y007683D01*
X029008Y007758D01*
X029148Y007898D01*
X029223Y008081D01*
X029223Y008279D01*
X029148Y008462D01*
X029008Y008602D01*
X029164Y008422D02*
X038448Y008422D01*
X038606Y008264D02*
X029223Y008264D01*
X029223Y008105D02*
X038765Y008105D01*
X038923Y007947D02*
X029168Y007947D01*
X029038Y007788D02*
X039082Y007788D01*
X039240Y007630D02*
X030490Y007630D01*
X030590Y007471D02*
X039399Y007471D01*
X041325Y004777D02*
X021764Y004777D01*
X021820Y004935D02*
X026552Y004935D01*
X025887Y006045D02*
X025449Y006045D01*
X025501Y006203D02*
X025898Y006203D01*
X025928Y006362D02*
X025501Y006362D01*
X025501Y006520D02*
X025984Y006520D01*
X026064Y006679D02*
X025501Y006679D01*
X025501Y006837D02*
X026175Y006837D01*
X026334Y006996D02*
X025501Y006996D01*
X025501Y007154D02*
X026579Y007154D01*
X025499Y007313D02*
X029360Y007313D01*
X029360Y007471D02*
X025394Y007471D01*
X024496Y007630D02*
X029460Y007630D01*
X029360Y007154D02*
X027696Y007154D01*
X027941Y006996D02*
X029360Y006996D01*
X029360Y006837D02*
X028099Y006837D01*
X028211Y006679D02*
X029362Y006679D01*
X029480Y006520D02*
X028291Y006520D01*
X028414Y007788D02*
X024338Y007788D01*
X024520Y007947D02*
X024150Y007947D01*
X023993Y007313D02*
X023727Y007313D01*
X023730Y007154D02*
X024152Y007154D01*
X024310Y006996D02*
X023730Y006996D01*
X023730Y006837D02*
X024469Y006837D01*
X024470Y006679D02*
X023730Y006679D01*
X023730Y006520D02*
X024470Y006520D01*
X024470Y006362D02*
X023730Y006362D01*
X023730Y006203D02*
X024470Y006203D01*
X024522Y006045D02*
X023678Y006045D01*
X021656Y004618D02*
X041180Y004618D01*
X042143Y004143D02*
X050255Y004143D01*
X050275Y003984D02*
X042048Y003984D01*
X048390Y005886D02*
X050279Y005886D01*
X050472Y006045D02*
X048390Y006045D01*
X051228Y004935D02*
X051410Y004935D01*
X051786Y000973D02*
X027664Y000973D01*
X027598Y000814D02*
X051852Y000814D01*
X051949Y000656D02*
X027501Y000656D01*
X027342Y000497D02*
X052108Y000497D01*
X037021Y009849D02*
X029098Y009849D01*
X029193Y010007D02*
X036863Y010007D01*
X036704Y010166D02*
X029223Y010166D01*
X029205Y010324D02*
X036546Y010324D01*
X036387Y010483D02*
X029127Y010483D01*
X028913Y010641D02*
X036229Y010641D01*
X035833Y010800D02*
X029049Y010800D01*
X029173Y010958D02*
X035696Y010958D01*
X028491Y008739D02*
X025797Y008739D01*
X025504Y008581D02*
X028423Y008581D01*
X028288Y008422D02*
X025501Y008422D01*
X025501Y008264D02*
X028229Y008264D01*
X028229Y008105D02*
X025501Y008105D01*
X025451Y007947D02*
X028284Y007947D01*
X028305Y008898D02*
X026091Y008898D01*
X026384Y009056D02*
X028239Y009056D01*
X028229Y009215D02*
X026677Y009215D01*
X026971Y009373D02*
X028267Y009373D01*
X019220Y010166D02*
X019100Y010166D01*
X019100Y010324D02*
X019220Y010324D01*
X019220Y010483D02*
X019100Y010483D01*
X019100Y010641D02*
X019220Y010641D01*
X019220Y010800D02*
X019100Y010800D01*
X019100Y010958D02*
X019220Y010958D01*
X019220Y011117D02*
X019100Y011117D01*
X019100Y013653D02*
X020192Y013653D01*
X020208Y013811D02*
X019100Y013811D01*
X019100Y013970D02*
X019363Y013970D01*
X019231Y014128D02*
X019100Y014128D01*
X019100Y014287D02*
X019220Y014287D01*
X019220Y014445D02*
X019100Y014445D01*
X019100Y014604D02*
X019220Y014604D01*
X019220Y014762D02*
X019100Y014762D01*
X019100Y014921D02*
X019220Y014921D01*
X019220Y015079D02*
X019100Y015079D01*
X019100Y015238D02*
X019132Y015238D01*
X020251Y014445D02*
X020337Y014445D01*
X020251Y014287D02*
X022460Y014287D01*
X022460Y014128D02*
X022315Y014128D01*
X022085Y014128D02*
X020765Y014128D01*
X020535Y014128D02*
X020241Y014128D01*
X020292Y013970D02*
X020108Y013970D01*
X020963Y014445D02*
X021887Y014445D01*
X008600Y018930D02*
X008530Y019000D01*
X008530Y019996D01*
X007270Y018930D02*
X007270Y018680D01*
X005100Y018680D01*
X005100Y014231D01*
X005400Y014231D01*
X053173Y021578D02*
X053320Y021578D01*
X053316Y021736D02*
X053320Y021736D01*
D27*
X023600Y020680D02*
X022550Y019630D01*
X017100Y019630D01*
X017099Y019629D01*
X017600Y019629D01*
X017099Y019629D02*
X016600Y019130D01*
X014100Y019120D01*
X014100Y018930D01*
X012850Y018180D01*
X012850Y019929D01*
X014100Y020240D02*
X015040Y020306D01*
X014838Y021054D02*
X014712Y021180D01*
X013600Y021180D01*
X013451Y021031D01*
X012850Y021031D01*
X011530Y021031D01*
X011350Y020851D01*
X011350Y018930D01*
X008600Y018930D01*
X007270Y018930D02*
X007250Y018180D01*
X012850Y018180D01*
X016600Y019130D02*
X016600Y020430D01*
X017600Y020731D02*
X019799Y020731D01*
X019800Y020730D01*
D28*
X019800Y020730D03*
X023600Y020680D03*
D29*
X018957Y008036D03*
X020757Y007886D03*
X020607Y006636D03*
X022157Y004836D03*
X023057Y004836D03*
X023807Y004346D03*
X025107Y004986D03*
X026157Y004986D03*
X027757Y003586D03*
X026127Y003496D03*
X025107Y003496D03*
X024187Y003496D03*
X023157Y002126D03*
X022187Y002116D03*
X020857Y001636D03*
X024007Y001876D03*
X025117Y001876D03*
X026157Y001876D03*
X027357Y002286D03*
X029357Y002636D03*
X029357Y003936D03*
D30*
X007270Y018930D02*
X007270Y019996D01*
X015862Y020680D02*
X016350Y020680D01*
X016600Y020430D01*
D31*
X048400Y011180D03*
X049800Y012180D03*
D32*
X042850Y022180D03*
X041100Y022180D03*
X039850Y022180D03*
M02*
