G75*
G70*
%OFA0B0*%
%FSLAX24Y24*%
%IPPOS*%
%LPD*%
%AMOC8*
5,1,8,0,0,1.08239X$1,22.5*
%
%ADD10C,0.0030*%
%ADD11C,0.0050*%
%ADD12C,0.0080*%
%ADD13C,0.0040*%
%ADD14C,0.0100*%
%ADD15C,0.0010*%
%ADD16C,0.0060*%
D10*
X004947Y001622D02*
X004947Y001992D01*
X005194Y001992D02*
X004947Y001622D01*
X005194Y001622D02*
X005194Y001992D01*
X005316Y001930D02*
X005377Y001992D01*
X005501Y001992D01*
X005563Y001930D01*
X005563Y001683D01*
X005501Y001622D01*
X005377Y001622D01*
X005316Y001683D01*
X005316Y001930D01*
X005685Y001992D02*
X005808Y001992D01*
X005746Y001992D02*
X005746Y001622D01*
X005685Y001622D02*
X005808Y001622D01*
X005930Y001683D02*
X005991Y001622D01*
X006115Y001622D01*
X006176Y001683D01*
X006298Y001683D02*
X006298Y001992D01*
X006176Y001930D02*
X006176Y001869D01*
X006115Y001807D01*
X005991Y001807D01*
X005930Y001745D01*
X005930Y001683D01*
X005930Y001930D02*
X005991Y001992D01*
X006115Y001992D01*
X006176Y001930D01*
X006298Y001683D02*
X006360Y001622D01*
X006483Y001622D01*
X006545Y001683D01*
X006545Y001992D01*
X006913Y001992D02*
X006913Y001622D01*
X006666Y001622D01*
X007035Y001683D02*
X007096Y001622D01*
X007220Y001622D01*
X007281Y001683D01*
X007281Y001930D01*
X007220Y001992D01*
X007096Y001992D01*
X007035Y001930D01*
X007403Y001992D02*
X007650Y001622D01*
X007771Y001622D02*
X008018Y001622D01*
X008018Y001992D01*
X007771Y001992D01*
X007650Y001992D02*
X007403Y001622D01*
X007895Y001807D02*
X008018Y001807D01*
X008140Y001560D02*
X008386Y001560D01*
X008508Y001622D02*
X008508Y001992D01*
X008631Y001869D01*
X008755Y001992D01*
X008755Y001622D01*
X008876Y001622D02*
X008876Y001992D01*
X009000Y001869D01*
X009123Y001992D01*
X009123Y001622D01*
X009244Y001683D02*
X009306Y001622D01*
X009430Y001622D01*
X009491Y001683D01*
X009244Y001930D01*
X009244Y001683D01*
X009491Y001683D02*
X009491Y001930D01*
X009430Y001992D01*
X009306Y001992D01*
X009244Y001930D01*
X009613Y001930D02*
X009860Y001683D01*
X009798Y001622D01*
X009674Y001622D01*
X009613Y001683D01*
X009613Y001930D01*
X009674Y001992D01*
X009798Y001992D01*
X009860Y001930D01*
X009860Y001683D01*
X009981Y001807D02*
X010228Y001807D01*
X010043Y001992D01*
X010043Y001622D01*
X010349Y001683D02*
X010411Y001622D01*
X010535Y001622D01*
X010596Y001683D01*
X010718Y001683D02*
X010779Y001622D01*
X010903Y001622D01*
X010965Y001683D01*
X010718Y001930D01*
X010718Y001683D01*
X010965Y001683D02*
X010965Y001930D01*
X010903Y001992D01*
X010779Y001992D01*
X010718Y001930D01*
X010596Y001930D02*
X010535Y001992D01*
X010411Y001992D01*
X010349Y001930D01*
X010349Y001869D01*
X010411Y001807D01*
X010349Y001745D01*
X010349Y001683D01*
X010411Y001807D02*
X010473Y001807D01*
X011086Y001622D02*
X011333Y001622D01*
X011454Y001622D02*
X011454Y001869D01*
X011578Y001992D01*
X011701Y001869D01*
X011701Y001622D01*
X011823Y001560D02*
X012070Y001560D01*
X012191Y001683D02*
X012253Y001622D01*
X012438Y001622D01*
X012438Y001992D01*
X012253Y001992D01*
X012191Y001930D01*
X012191Y001683D01*
X012559Y001622D02*
X012559Y001992D01*
X012683Y001869D01*
X012806Y001992D01*
X012806Y001622D01*
X012928Y001683D02*
X012989Y001622D01*
X013113Y001622D01*
X013174Y001683D01*
X013113Y001807D02*
X012989Y001807D01*
X012928Y001745D01*
X012928Y001683D01*
X013113Y001807D02*
X013174Y001869D01*
X013174Y001930D01*
X013113Y001992D01*
X012989Y001992D01*
X012928Y001930D01*
X013296Y001560D02*
X013543Y001560D01*
X013664Y001683D02*
X013726Y001622D01*
X013911Y001622D01*
X013911Y001992D01*
X013726Y001992D01*
X013664Y001930D01*
X013664Y001683D01*
X014033Y001622D02*
X014033Y001992D01*
X014279Y001992D02*
X014033Y001622D01*
X014279Y001622D02*
X014279Y001992D01*
X014401Y001869D02*
X014524Y001992D01*
X014648Y001869D01*
X014648Y001622D01*
X014769Y001683D02*
X014831Y001622D01*
X015016Y001622D01*
X015016Y001992D01*
X014831Y001992D01*
X014769Y001930D01*
X014769Y001869D01*
X014831Y001807D01*
X015016Y001807D01*
X015137Y001807D02*
X015137Y001683D01*
X015199Y001622D01*
X015323Y001622D01*
X015384Y001683D01*
X015384Y001807D02*
X015261Y001869D01*
X015199Y001869D01*
X015137Y001807D01*
X015137Y001992D02*
X015384Y001992D01*
X015384Y001807D01*
X015506Y001560D02*
X015753Y001560D01*
X015874Y001683D02*
X015936Y001622D01*
X016059Y001622D01*
X016121Y001683D01*
X016242Y001683D02*
X016304Y001622D01*
X016428Y001622D01*
X016489Y001683D01*
X016489Y001992D01*
X016611Y001992D02*
X016611Y001745D01*
X016734Y001622D01*
X016858Y001745D01*
X016858Y001992D01*
X017226Y001992D02*
X017226Y001622D01*
X016979Y001622D01*
X017347Y001622D02*
X017347Y001869D01*
X017471Y001992D01*
X017594Y001869D01*
X017594Y001622D01*
X017716Y001683D02*
X017777Y001622D01*
X017901Y001622D01*
X017963Y001683D01*
X017963Y001930D01*
X017901Y001992D01*
X017777Y001992D01*
X017716Y001930D01*
X017594Y001807D02*
X017347Y001807D01*
X016242Y001683D02*
X016242Y001992D01*
X016121Y001930D02*
X016121Y001869D01*
X016059Y001807D01*
X015936Y001807D01*
X015874Y001745D01*
X015874Y001683D01*
X015874Y001930D02*
X015936Y001992D01*
X016059Y001992D01*
X016121Y001930D01*
X014831Y001807D02*
X014769Y001745D01*
X014769Y001683D01*
X014648Y001807D02*
X014401Y001807D01*
X014401Y001869D02*
X014401Y001622D01*
X011701Y001807D02*
X011454Y001807D01*
X011333Y001869D02*
X011209Y001992D01*
X011209Y001622D01*
X018537Y001975D02*
X018661Y001851D01*
X018784Y001975D01*
X018784Y002222D01*
X018906Y002036D02*
X019153Y002036D01*
X019274Y002036D02*
X019521Y002036D01*
X019521Y002098D02*
X019397Y002222D01*
X019274Y002098D01*
X019274Y001851D01*
X019521Y001851D02*
X019521Y002098D01*
X019642Y002222D02*
X019766Y002098D01*
X019889Y002222D01*
X019889Y001851D01*
X020011Y001913D02*
X020072Y001851D01*
X020196Y001851D01*
X020258Y001913D01*
X020196Y002036D02*
X020072Y002036D01*
X020011Y001975D01*
X020011Y001913D01*
X020196Y002036D02*
X020258Y002098D01*
X020258Y002160D01*
X020196Y002222D01*
X020072Y002222D01*
X020011Y002160D01*
X019642Y002222D02*
X019642Y001851D01*
X020379Y002036D02*
X020626Y002036D01*
X020747Y001913D02*
X020747Y002222D01*
X020807Y002222D02*
X020807Y002593D01*
X020992Y002408D01*
X020745Y002408D01*
X020994Y002222D02*
X020994Y001913D01*
X020932Y001851D01*
X020809Y001851D01*
X020747Y001913D01*
X021116Y001913D02*
X021177Y001851D01*
X021362Y001851D01*
X021362Y002222D01*
X021177Y002222D01*
X021116Y002160D01*
X021116Y002098D01*
X021177Y002036D01*
X021362Y002036D01*
X021177Y002036D02*
X021116Y001975D01*
X021116Y001913D01*
X021114Y002222D02*
X021360Y002222D01*
X021114Y002469D01*
X021114Y002531D01*
X021175Y002593D01*
X021299Y002593D01*
X021360Y002531D01*
X021482Y002222D02*
X021729Y002222D01*
X021729Y002593D01*
X023072Y002701D02*
X023072Y002948D01*
X023072Y003070D02*
X023319Y003316D01*
X023381Y003316D01*
X023443Y003255D01*
X023443Y003131D01*
X023381Y003070D01*
X023072Y003070D02*
X023072Y003316D01*
X023134Y003438D02*
X023072Y003500D01*
X023072Y003623D01*
X023134Y003685D01*
X023196Y003685D01*
X023258Y003623D01*
X023258Y003561D01*
X023258Y003623D02*
X023319Y003685D01*
X023381Y003685D01*
X023443Y003623D01*
X023443Y003500D01*
X023381Y003438D01*
X023443Y002701D02*
X023072Y002701D01*
X021879Y003728D02*
X021817Y003666D01*
X021570Y003666D01*
X021509Y003728D01*
X021509Y003851D01*
X021570Y003913D01*
X021570Y004034D02*
X021632Y004034D01*
X021694Y004096D01*
X021694Y004219D01*
X021632Y004281D01*
X021570Y004281D01*
X021509Y004219D01*
X021509Y004096D01*
X021570Y004034D01*
X021694Y004096D02*
X021756Y004034D01*
X021817Y004034D01*
X021879Y004096D01*
X021879Y004219D01*
X021817Y004281D01*
X021756Y004281D01*
X021694Y004219D01*
X021817Y003913D02*
X021879Y003851D01*
X021879Y003728D01*
X018537Y002222D02*
X018537Y001975D01*
X021396Y006695D02*
X021396Y007065D01*
X021149Y007065D01*
X021272Y006880D02*
X021396Y006880D01*
X021517Y006942D02*
X021517Y006695D01*
X021702Y006695D01*
X021764Y006757D01*
X021764Y006942D01*
X022009Y007065D02*
X022133Y006942D01*
X022009Y007065D02*
X022009Y006695D01*
X021886Y006695D02*
X022133Y006695D01*
X022255Y006695D02*
X022317Y006695D01*
X022317Y006757D01*
X022255Y006757D01*
X022255Y006695D01*
X022438Y006757D02*
X022500Y006695D01*
X022623Y006695D01*
X022685Y006757D01*
X022438Y007004D01*
X022438Y006757D01*
X022438Y007004D02*
X022500Y007065D01*
X022623Y007065D01*
X022685Y007004D01*
X022685Y006757D01*
X022208Y008652D02*
X021961Y008652D01*
X022084Y008652D02*
X022084Y009023D01*
X022208Y008899D01*
X021840Y008961D02*
X021778Y009023D01*
X021654Y009023D01*
X021593Y008961D01*
X021840Y008714D01*
X021778Y008652D01*
X021654Y008652D01*
X021593Y008714D01*
X021593Y008961D01*
X021471Y008961D02*
X021410Y009023D01*
X021286Y009023D01*
X021224Y008961D01*
X021471Y008714D01*
X021410Y008652D01*
X021286Y008652D01*
X021224Y008714D01*
X021224Y008961D01*
X021103Y008961D02*
X021041Y009023D01*
X020918Y009023D01*
X020856Y008961D01*
X021103Y008714D01*
X021041Y008652D01*
X020918Y008652D01*
X020856Y008714D01*
X020856Y008961D01*
X020735Y008899D02*
X020735Y008714D01*
X020673Y008652D01*
X020488Y008652D01*
X020488Y008899D01*
X020366Y008838D02*
X020243Y008838D01*
X020366Y008652D02*
X020366Y009023D01*
X020119Y009023D01*
X021103Y008961D02*
X021103Y008714D01*
X021471Y008714D02*
X021471Y008961D01*
X021840Y008961D02*
X021840Y008714D01*
X038779Y017004D02*
X038779Y017375D01*
X038964Y017190D01*
X038717Y017190D01*
X039086Y017251D02*
X039147Y017190D01*
X039271Y017190D01*
X039333Y017251D01*
X039333Y017313D01*
X039271Y017375D01*
X039147Y017375D01*
X039086Y017313D01*
X039086Y017251D01*
X039147Y017190D02*
X039086Y017128D01*
X039086Y017066D01*
X039147Y017004D01*
X039271Y017004D01*
X039333Y017066D01*
X039333Y017128D01*
X039271Y017190D01*
X039454Y017251D02*
X039454Y017313D01*
X039516Y017375D01*
X039639Y017375D01*
X039701Y017313D01*
X039946Y017375D02*
X039946Y017004D01*
X040069Y017004D02*
X039822Y017004D01*
X039701Y017004D02*
X039454Y017251D01*
X039454Y017004D02*
X039701Y017004D01*
X040069Y017251D02*
X039946Y017375D01*
X040191Y017251D02*
X040191Y017004D01*
X040191Y017190D02*
X040438Y017190D01*
X040438Y017251D02*
X040314Y017375D01*
X040191Y017251D01*
X040438Y017251D02*
X040438Y017004D01*
X040559Y017066D02*
X040559Y017190D01*
X040682Y017190D01*
X040559Y017313D02*
X040621Y017375D01*
X040744Y017375D01*
X040806Y017313D01*
X040806Y017066D01*
X040744Y017004D01*
X040621Y017004D01*
X040559Y017066D01*
X040927Y017004D02*
X041174Y017004D01*
X041174Y017375D01*
X040927Y017375D01*
X041051Y017190D02*
X041174Y017190D01*
X041296Y017375D02*
X041419Y017251D01*
X041542Y017375D01*
X041542Y017004D01*
X041296Y017004D02*
X041296Y017375D01*
X043933Y016715D02*
X043933Y016654D01*
X044180Y016407D01*
X044180Y016345D01*
X043933Y016345D01*
X044301Y016345D02*
X044301Y016715D01*
X044180Y016715D02*
X043933Y016715D01*
X044301Y016530D02*
X044548Y016530D01*
X044548Y016345D02*
X044548Y016715D01*
X044670Y016715D02*
X044670Y016345D01*
X044917Y016345D02*
X044917Y016715D01*
X044793Y016592D01*
X044670Y016715D01*
X045038Y016654D02*
X045038Y016592D01*
X045100Y016530D01*
X045223Y016530D01*
X045285Y016592D01*
X045285Y016654D01*
X045223Y016715D01*
X045100Y016715D01*
X045038Y016654D01*
X045100Y016530D02*
X045038Y016468D01*
X045038Y016407D01*
X045100Y016345D01*
X045223Y016345D01*
X045285Y016407D01*
X045285Y016468D01*
X045223Y016530D01*
X046257Y017030D02*
X046380Y017030D01*
X046501Y017030D02*
X046501Y016907D01*
X046563Y016845D01*
X046748Y016845D01*
X046748Y016722D02*
X046748Y017092D01*
X046563Y017092D01*
X046501Y017030D01*
X046380Y016845D02*
X046380Y017215D01*
X046133Y017215D01*
X046870Y017154D02*
X046870Y017092D01*
X046932Y017030D01*
X047055Y017030D01*
X047117Y017092D01*
X047117Y017154D01*
X047055Y017215D01*
X046932Y017215D01*
X046870Y017154D01*
X046932Y017030D02*
X046870Y016968D01*
X046870Y016907D01*
X046932Y016845D01*
X047055Y016845D01*
X047117Y016907D01*
X047117Y016968D01*
X047055Y017030D01*
X047238Y016845D02*
X047485Y016845D01*
X047362Y016845D02*
X047362Y017215D01*
X047485Y017092D01*
X047508Y017062D02*
X047754Y017062D01*
X047754Y017247D01*
X047693Y017309D01*
X047508Y017309D01*
X047508Y017430D02*
X047878Y017430D01*
X047878Y017677D01*
X047693Y017554D02*
X047693Y017430D01*
X047816Y016572D02*
X047569Y016572D01*
X047508Y016510D01*
X047508Y016387D01*
X047569Y016325D01*
X047816Y016572D01*
X047878Y016510D01*
X047878Y016387D01*
X047816Y016325D01*
X047569Y016325D01*
X047569Y016204D02*
X047508Y016142D01*
X047508Y016019D01*
X047569Y015957D01*
X047816Y016204D01*
X047569Y016204D01*
X047569Y015957D02*
X047816Y015957D01*
X047878Y016019D01*
X047878Y016142D01*
X047816Y016204D01*
X047508Y015836D02*
X047508Y015589D01*
X047508Y015712D02*
X047878Y015712D01*
X047754Y015589D01*
X052465Y015647D02*
X052527Y015586D01*
X052650Y015586D01*
X052712Y015647D01*
X052712Y015771D01*
X052650Y015832D01*
X052588Y015832D01*
X052588Y015586D01*
X052527Y015464D02*
X052465Y015402D01*
X052465Y015279D01*
X052527Y015217D01*
X052774Y015217D01*
X052835Y015279D01*
X052835Y015402D01*
X052774Y015464D01*
X052465Y015647D02*
X052465Y015771D01*
X052465Y015954D02*
X052465Y016077D01*
X052465Y016016D02*
X052835Y016016D01*
X052835Y015954D01*
X052835Y016199D02*
X052835Y016261D01*
X052465Y016261D01*
X052465Y016199D02*
X052465Y016323D01*
X052527Y016958D02*
X052465Y017020D01*
X052465Y017205D01*
X052712Y017205D01*
X052774Y017327D02*
X052527Y017327D01*
X052465Y017388D01*
X052465Y017512D01*
X052527Y017574D01*
X052774Y017574D02*
X052835Y017512D01*
X052835Y017388D01*
X052774Y017327D01*
X052712Y016958D02*
X052527Y016958D01*
X052527Y018217D02*
X052465Y018279D01*
X052465Y018402D01*
X052527Y018464D01*
X052527Y018586D02*
X052465Y018647D01*
X052465Y018771D01*
X052588Y018832D02*
X052588Y018586D01*
X052527Y018586D02*
X052650Y018586D01*
X052712Y018647D01*
X052712Y018771D01*
X052650Y018832D01*
X052588Y018832D01*
X052465Y018954D02*
X052465Y019077D01*
X052465Y019016D02*
X052835Y019016D01*
X052835Y018954D01*
X052835Y019199D02*
X052835Y019261D01*
X052465Y019261D01*
X052465Y019199D02*
X052465Y019323D01*
X052527Y019958D02*
X052465Y020020D01*
X052465Y020205D01*
X052712Y020205D01*
X052774Y020327D02*
X052527Y020327D01*
X052465Y020388D01*
X052465Y020512D01*
X052527Y020574D01*
X052774Y020574D02*
X052835Y020512D01*
X052835Y020388D01*
X052774Y020327D01*
X052712Y019958D02*
X052527Y019958D01*
X052774Y018464D02*
X052835Y018402D01*
X052835Y018279D01*
X052774Y018217D01*
X052527Y018217D01*
X048328Y018507D02*
X047958Y018507D01*
X047958Y018384D02*
X047958Y018631D01*
X048019Y018752D02*
X048266Y018999D01*
X048019Y018999D01*
X047958Y018937D01*
X047958Y018814D01*
X048019Y018752D01*
X048266Y018752D01*
X048328Y018814D01*
X048328Y018937D01*
X048266Y018999D01*
X048328Y019120D02*
X047958Y019120D01*
X048081Y019120D02*
X048328Y019367D01*
X048143Y019182D02*
X047958Y019367D01*
X046758Y019245D02*
X046511Y019245D01*
X046635Y019245D02*
X046635Y019615D01*
X046758Y019492D01*
X046390Y019492D02*
X046328Y019430D01*
X046205Y019430D01*
X046143Y019368D01*
X046143Y019307D01*
X046205Y019245D01*
X046328Y019245D01*
X046390Y019307D01*
X046390Y019368D01*
X046328Y019430D01*
X046390Y019492D02*
X046390Y019554D01*
X046328Y019615D01*
X046205Y019615D01*
X046143Y019554D01*
X046143Y019492D01*
X046205Y019430D01*
X046022Y019492D02*
X045836Y019492D01*
X045775Y019430D01*
X045775Y019307D01*
X045836Y019245D01*
X046022Y019245D01*
X046022Y019122D02*
X046022Y019492D01*
X045653Y019430D02*
X045530Y019430D01*
X045653Y019245D02*
X045653Y019615D01*
X045406Y019615D01*
X048204Y018384D02*
X048328Y018507D01*
X034485Y018604D02*
X034423Y018665D01*
X034300Y018665D01*
X034238Y018604D01*
X034238Y018542D01*
X034485Y018295D01*
X034238Y018295D01*
X034117Y018295D02*
X033870Y018542D01*
X033870Y018604D01*
X033932Y018665D01*
X034055Y018665D01*
X034117Y018604D01*
X034117Y018295D02*
X033870Y018295D01*
X033435Y018295D02*
X033188Y018542D01*
X033188Y018604D01*
X033250Y018665D01*
X033373Y018665D01*
X033435Y018604D01*
X033435Y018295D02*
X033188Y018295D01*
X033067Y018295D02*
X032820Y018542D01*
X032820Y018604D01*
X032882Y018665D01*
X033005Y018665D01*
X033067Y018604D01*
X033067Y018295D02*
X032820Y018295D01*
X032535Y018295D02*
X032288Y018542D01*
X032288Y018604D01*
X032350Y018665D01*
X032473Y018665D01*
X032535Y018604D01*
X032535Y018295D02*
X032288Y018295D01*
X032167Y018295D02*
X031920Y018542D01*
X031920Y018604D01*
X031982Y018665D01*
X032105Y018665D01*
X032167Y018604D01*
X032167Y018295D02*
X031920Y018295D01*
X032180Y020788D02*
X032180Y021158D01*
X031934Y021158D01*
X032057Y020973D02*
X032180Y020973D01*
X032302Y021034D02*
X032302Y020788D01*
X032487Y020788D01*
X032549Y020849D01*
X032549Y021034D01*
X032670Y021096D02*
X032917Y020849D01*
X032855Y020788D01*
X032732Y020788D01*
X032670Y020849D01*
X032670Y021096D01*
X032732Y021158D01*
X032855Y021158D01*
X032917Y021096D01*
X032917Y020849D01*
X033039Y020849D02*
X033039Y021096D01*
X033285Y020849D01*
X033224Y020788D01*
X033100Y020788D01*
X033039Y020849D01*
X033285Y020849D02*
X033285Y021096D01*
X033224Y021158D01*
X033100Y021158D01*
X033039Y021096D01*
X033407Y021096D02*
X033654Y020849D01*
X033592Y020788D01*
X033469Y020788D01*
X033407Y020849D01*
X033407Y021096D01*
X033469Y021158D01*
X033592Y021158D01*
X033654Y021096D01*
X033654Y020849D01*
X033775Y020788D02*
X034022Y020788D01*
X033899Y020788D02*
X033899Y021158D01*
X034022Y021034D01*
X046206Y004415D02*
X046453Y004168D01*
X046392Y004230D02*
X046206Y004045D01*
X046453Y004045D02*
X046453Y004415D01*
X046575Y004415D02*
X046575Y004354D01*
X046822Y004107D01*
X046822Y004045D01*
X046944Y004045D02*
X047006Y004045D01*
X047006Y004107D01*
X046944Y004107D01*
X046944Y004045D01*
X047189Y004045D02*
X047189Y004415D01*
X047374Y004230D01*
X047127Y004230D01*
X046822Y004415D02*
X046575Y004415D01*
D11*
X035007Y004422D02*
X035007Y004225D01*
X034811Y004225D01*
X026165Y006036D02*
X026167Y006098D01*
X026173Y006161D01*
X026183Y006222D01*
X026197Y006283D01*
X026214Y006343D01*
X026235Y006402D01*
X026261Y006459D01*
X026289Y006514D01*
X026321Y006568D01*
X026357Y006619D01*
X026395Y006669D01*
X026437Y006715D01*
X026481Y006759D01*
X026529Y006800D01*
X026578Y006838D01*
X026630Y006872D01*
X026684Y006903D01*
X026740Y006931D01*
X026798Y006955D01*
X026857Y006976D01*
X026917Y006992D01*
X026978Y007005D01*
X027040Y007014D01*
X027102Y007019D01*
X027165Y007020D01*
X027227Y007017D01*
X027289Y007010D01*
X027351Y006999D01*
X027411Y006984D01*
X027471Y006966D01*
X027529Y006944D01*
X027586Y006918D01*
X027641Y006888D01*
X027694Y006855D01*
X027745Y006819D01*
X027793Y006780D01*
X027839Y006737D01*
X027882Y006692D01*
X027922Y006644D01*
X027959Y006594D01*
X027993Y006541D01*
X028024Y006487D01*
X028050Y006431D01*
X028074Y006373D01*
X028093Y006313D01*
X028109Y006253D01*
X028121Y006191D01*
X028129Y006130D01*
X028133Y006067D01*
X028133Y006005D01*
X028129Y005942D01*
X028121Y005881D01*
X028109Y005819D01*
X028093Y005759D01*
X028074Y005699D01*
X028050Y005641D01*
X028024Y005585D01*
X027993Y005531D01*
X027959Y005478D01*
X027922Y005428D01*
X027882Y005380D01*
X027839Y005335D01*
X027793Y005292D01*
X027745Y005253D01*
X027694Y005217D01*
X027641Y005184D01*
X027586Y005154D01*
X027529Y005128D01*
X027471Y005106D01*
X027411Y005088D01*
X027351Y005073D01*
X027289Y005062D01*
X027227Y005055D01*
X027165Y005052D01*
X027102Y005053D01*
X027040Y005058D01*
X026978Y005067D01*
X026917Y005080D01*
X026857Y005096D01*
X026798Y005117D01*
X026740Y005141D01*
X026684Y005169D01*
X026630Y005200D01*
X026578Y005234D01*
X026529Y005272D01*
X026481Y005313D01*
X026437Y005357D01*
X026395Y005403D01*
X026357Y005453D01*
X026321Y005504D01*
X026289Y005558D01*
X026261Y005613D01*
X026235Y005670D01*
X026214Y005729D01*
X026197Y005789D01*
X026183Y005850D01*
X026173Y005911D01*
X026167Y005974D01*
X026165Y006036D01*
X023787Y004225D02*
X023590Y004225D01*
X023590Y004422D01*
X018457Y005243D02*
X018457Y005636D01*
X018064Y005636D01*
X018457Y002912D02*
X018457Y002518D01*
X018064Y002518D01*
X008221Y002518D02*
X007828Y002518D01*
X007828Y002912D01*
X007828Y005243D02*
X007828Y005636D01*
X008221Y005636D01*
X023590Y015445D02*
X023590Y015642D01*
X023787Y015642D01*
X023590Y015445D01*
X034811Y015642D02*
X035007Y015642D01*
X035007Y015445D01*
X035906Y015180D02*
X035908Y015234D01*
X035914Y015288D01*
X035924Y015341D01*
X035937Y015393D01*
X035954Y015445D01*
X035975Y015494D01*
X036000Y015543D01*
X036028Y015589D01*
X036059Y015633D01*
X036093Y015675D01*
X036130Y015714D01*
X036170Y015751D01*
X036213Y015784D01*
X036257Y015815D01*
X036304Y015842D01*
X036353Y015865D01*
X036403Y015885D01*
X036455Y015902D01*
X036507Y015914D01*
X036561Y015923D01*
X036614Y015928D01*
X036669Y015929D01*
X036723Y015926D01*
X036776Y015919D01*
X036829Y015908D01*
X036881Y015894D01*
X036932Y015876D01*
X036982Y015854D01*
X037029Y015829D01*
X037075Y015800D01*
X037119Y015768D01*
X037160Y015733D01*
X037199Y015695D01*
X037235Y015655D01*
X037267Y015611D01*
X037297Y015566D01*
X037323Y015519D01*
X037346Y015470D01*
X037365Y015419D01*
X037380Y015367D01*
X037392Y015314D01*
X037400Y015261D01*
X037404Y015207D01*
X037404Y015153D01*
X037400Y015099D01*
X037392Y015046D01*
X037380Y014993D01*
X037365Y014941D01*
X037346Y014890D01*
X037323Y014841D01*
X037297Y014794D01*
X037267Y014749D01*
X037235Y014705D01*
X037199Y014665D01*
X037160Y014627D01*
X037119Y014592D01*
X037075Y014560D01*
X037030Y014531D01*
X036982Y014506D01*
X036932Y014484D01*
X036881Y014466D01*
X036829Y014452D01*
X036776Y014441D01*
X036723Y014434D01*
X036669Y014431D01*
X036614Y014432D01*
X036561Y014437D01*
X036507Y014446D01*
X036455Y014458D01*
X036403Y014475D01*
X036353Y014495D01*
X036304Y014518D01*
X036257Y014545D01*
X036213Y014576D01*
X036170Y014609D01*
X036130Y014646D01*
X036093Y014685D01*
X036059Y014727D01*
X036028Y014771D01*
X036000Y014817D01*
X035975Y014866D01*
X035954Y014915D01*
X035937Y014967D01*
X035924Y015019D01*
X035914Y015072D01*
X035908Y015126D01*
X035906Y015180D01*
X043620Y017246D02*
X043738Y017246D01*
X043620Y017246D02*
X043620Y019214D01*
X043738Y019214D01*
X044762Y019214D02*
X044880Y019214D01*
X044880Y017246D01*
X044762Y017246D01*
X050925Y017295D02*
X051225Y017595D01*
X051300Y017595D01*
X051375Y017520D01*
X051375Y017370D01*
X051300Y017295D01*
X051375Y017134D02*
X051375Y016984D01*
X051375Y017059D02*
X051000Y017059D01*
X050925Y016984D01*
X050925Y016909D01*
X051000Y016834D01*
X051000Y016674D02*
X050925Y016599D01*
X050925Y016449D01*
X051000Y016374D01*
X051150Y016449D02*
X051225Y016374D01*
X051300Y016374D01*
X051375Y016449D01*
X051375Y016599D01*
X051300Y016674D01*
X051150Y016599D02*
X051075Y016674D01*
X051000Y016674D01*
X051150Y016599D02*
X051150Y016449D01*
X050925Y017295D02*
X050925Y017595D01*
X051000Y019224D02*
X050925Y019299D01*
X050925Y019449D01*
X051000Y019524D01*
X051075Y019524D01*
X051150Y019449D01*
X051150Y019299D01*
X051225Y019224D01*
X051300Y019224D01*
X051375Y019299D01*
X051375Y019449D01*
X051300Y019524D01*
X051375Y019834D02*
X051375Y019984D01*
X051375Y019909D02*
X051000Y019909D01*
X050925Y019834D01*
X050925Y019759D01*
X051000Y019684D01*
X050925Y020145D02*
X050925Y020445D01*
X050925Y020295D02*
X051375Y020295D01*
X051225Y020145D01*
D12*
X041947Y020419D02*
X041947Y016954D01*
X041790Y016797D01*
X038325Y016797D01*
X038168Y016954D01*
X038168Y020419D01*
X038325Y020576D01*
X041790Y020576D01*
X041947Y020419D01*
X029822Y020740D02*
X028837Y020740D01*
X028837Y020267D01*
X029822Y020740D02*
X029822Y021055D01*
X028444Y021055D01*
X026869Y020267D02*
X026869Y018693D01*
X028444Y017905D02*
X029822Y017905D01*
X029822Y018220D01*
X028837Y018220D01*
X028837Y018693D01*
X020561Y005346D02*
X019694Y005346D01*
X018868Y004519D02*
X018868Y003653D01*
X019694Y002826D02*
X020561Y002826D01*
X021387Y003653D02*
X021387Y004519D01*
X019458Y004086D02*
X019460Y004137D01*
X019466Y004188D01*
X019476Y004238D01*
X019489Y004288D01*
X019507Y004336D01*
X019527Y004383D01*
X019552Y004428D01*
X019580Y004471D01*
X019611Y004512D01*
X019645Y004550D01*
X019682Y004585D01*
X019721Y004618D01*
X019763Y004648D01*
X019807Y004674D01*
X019853Y004696D01*
X019901Y004716D01*
X019950Y004731D01*
X020000Y004743D01*
X020050Y004751D01*
X020101Y004755D01*
X020153Y004755D01*
X020204Y004751D01*
X020254Y004743D01*
X020304Y004731D01*
X020353Y004716D01*
X020401Y004696D01*
X020447Y004674D01*
X020491Y004648D01*
X020533Y004618D01*
X020572Y004585D01*
X020609Y004550D01*
X020643Y004512D01*
X020674Y004471D01*
X020702Y004428D01*
X020727Y004383D01*
X020747Y004336D01*
X020765Y004288D01*
X020778Y004238D01*
X020788Y004188D01*
X020794Y004137D01*
X020796Y004086D01*
X020794Y004035D01*
X020788Y003984D01*
X020778Y003934D01*
X020765Y003884D01*
X020747Y003836D01*
X020727Y003789D01*
X020702Y003744D01*
X020674Y003701D01*
X020643Y003660D01*
X020609Y003622D01*
X020572Y003587D01*
X020533Y003554D01*
X020491Y003524D01*
X020447Y003498D01*
X020401Y003476D01*
X020353Y003456D01*
X020304Y003441D01*
X020254Y003429D01*
X020204Y003421D01*
X020153Y003417D01*
X020101Y003417D01*
X020050Y003421D01*
X020000Y003429D01*
X019950Y003441D01*
X019901Y003456D01*
X019853Y003476D01*
X019807Y003498D01*
X019763Y003524D01*
X019721Y003554D01*
X019682Y003587D01*
X019645Y003622D01*
X019611Y003660D01*
X019580Y003701D01*
X019552Y003744D01*
X019527Y003789D01*
X019507Y003836D01*
X019489Y003884D01*
X019476Y003934D01*
X019466Y003984D01*
X019460Y004035D01*
X019458Y004086D01*
D13*
X036266Y003686D02*
X036266Y001768D01*
X037826Y001768D01*
X037826Y004058D01*
X041619Y004058D01*
X041619Y001768D01*
X043036Y001768D01*
X043036Y004716D01*
X042835Y004716D01*
X042835Y010427D01*
X043036Y010427D01*
X043036Y010842D01*
X042864Y012402D01*
X042907Y012746D01*
X042635Y012746D01*
X042635Y012731D02*
X042635Y010957D01*
X042634Y010957D02*
X042632Y010937D01*
X042627Y010918D01*
X042619Y010900D01*
X042607Y010884D01*
X042593Y010870D01*
X042577Y010858D01*
X042559Y010850D01*
X042540Y010845D01*
X042520Y010843D01*
X042520Y010842D02*
X036738Y010842D01*
X036652Y010928D01*
X036652Y012731D01*
X036667Y012746D02*
X036395Y012746D01*
X036423Y012402D01*
X036280Y010842D01*
X036280Y010427D01*
X036466Y010427D01*
X036466Y004716D01*
X036266Y004716D01*
X036266Y003686D01*
X036610Y003686D01*
X036610Y002970D01*
X037797Y001782D01*
X037812Y001926D02*
X036638Y003085D01*
X036638Y003099D01*
X036853Y003099D01*
X036853Y003700D01*
X037110Y003700D01*
X037110Y004716D01*
X037311Y005031D02*
X037468Y005189D01*
X037568Y005074D02*
X037425Y004931D01*
X037526Y004802D02*
X042206Y004802D01*
X042206Y004817D02*
X042621Y005232D01*
X042635Y005232D02*
X042635Y009296D01*
X042435Y009497D01*
X042435Y009497D01*
X042621Y009683D01*
X042621Y009740D02*
X042435Y009926D01*
X042621Y010112D01*
X042621Y010184D02*
X042435Y010370D01*
X042621Y010556D01*
X042635Y010570D02*
X042420Y010570D01*
X042420Y005260D01*
X042435Y005260D02*
X042621Y005446D01*
X042621Y005518D02*
X042621Y005518D01*
X042435Y005704D01*
X042621Y005890D01*
X042621Y005962D02*
X042435Y006148D01*
X042621Y006334D01*
X042621Y006405D02*
X042435Y006591D01*
X042621Y006777D01*
X042621Y006849D02*
X042435Y007035D01*
X042621Y007221D01*
X042621Y007278D02*
X042435Y007464D01*
X042621Y007651D01*
X042621Y007736D02*
X042435Y007922D01*
X042621Y008109D01*
X042621Y008180D02*
X042435Y008366D01*
X042621Y008552D01*
X042621Y008624D02*
X042435Y008810D01*
X042435Y008810D01*
X042621Y008996D01*
X042621Y009067D02*
X042435Y009253D01*
X042621Y009440D01*
X042621Y009525D02*
X042435Y009711D01*
X042621Y009898D01*
X042621Y009969D02*
X042435Y010155D01*
X042621Y010341D01*
X042621Y010413D02*
X042478Y010556D01*
X042635Y010570D02*
X042635Y009296D01*
X042621Y009225D02*
X042435Y009039D01*
X042621Y008853D01*
X042621Y008781D02*
X042621Y008781D01*
X042435Y008595D01*
X042621Y008409D01*
X042621Y008337D02*
X042435Y008151D01*
X042621Y007965D01*
X042621Y007894D02*
X042435Y007708D01*
X042621Y007522D01*
X042621Y007436D02*
X042435Y007250D01*
X042621Y007064D01*
X042621Y006992D02*
X042435Y006806D01*
X042621Y006620D01*
X042621Y006548D02*
X042435Y006362D01*
X042621Y006176D01*
X042621Y006105D02*
X042435Y005919D01*
X042435Y005919D01*
X042621Y005733D01*
X042621Y005675D02*
X042621Y005675D01*
X042435Y005489D01*
X042435Y005475D02*
X042621Y005289D01*
X042435Y005246D02*
X042592Y005089D01*
X042520Y004945D02*
X042363Y005103D01*
X042220Y005017D02*
X042377Y004860D01*
X042206Y004817D02*
X042206Y004817D01*
X042005Y005017D01*
X041962Y005017D02*
X041962Y005017D01*
X041762Y004817D01*
X041748Y004817D02*
X041748Y004817D01*
X041547Y005017D01*
X041519Y005017D02*
X041519Y005017D01*
X041333Y004831D01*
X041318Y004817D02*
X041118Y005017D01*
X041075Y005017D02*
X040875Y004817D01*
X040860Y004817D02*
X040660Y005017D01*
X040631Y005017D02*
X040631Y005017D01*
X040431Y004817D01*
X040417Y004817D02*
X040417Y004817D01*
X040216Y005017D01*
X040173Y005017D02*
X039987Y004831D01*
X039973Y004817D02*
X039773Y005017D01*
X039730Y005017D02*
X039544Y004831D01*
X039529Y004817D02*
X039529Y004817D01*
X039329Y005017D01*
X039286Y005017D02*
X039286Y005017D01*
X039086Y004817D01*
X039071Y004817D02*
X039071Y004817D01*
X038871Y005017D01*
X038842Y005017D02*
X038656Y004831D01*
X038642Y004817D02*
X038642Y004817D01*
X038441Y005017D01*
X038413Y005017D02*
X038212Y004817D01*
X038184Y004817D02*
X037984Y005017D01*
X037969Y005017D02*
X037769Y004817D01*
X037754Y004817D02*
X036667Y005904D01*
X036667Y005947D02*
X036867Y006148D01*
X036667Y006348D01*
X036681Y006405D02*
X036867Y006591D01*
X036681Y006792D01*
X036681Y006849D02*
X036867Y007035D01*
X036667Y007235D01*
X036667Y007278D02*
X036867Y007479D01*
X036667Y007665D01*
X036667Y007722D02*
X036867Y007922D01*
X036667Y008123D01*
X036681Y008180D02*
X036867Y008366D01*
X036667Y008566D01*
X036681Y008624D02*
X036867Y008824D01*
X036667Y009010D01*
X036667Y009067D02*
X036867Y009268D01*
X036681Y009468D01*
X036681Y009511D02*
X036867Y009711D01*
X036667Y009898D01*
X036667Y009955D02*
X036867Y010155D01*
X036667Y010341D01*
X036667Y010413D02*
X036824Y010570D01*
X036652Y010570D01*
X036652Y005675D01*
X037526Y004802D01*
X037554Y004817D02*
X037754Y005017D01*
X037769Y005017D02*
X037969Y004817D01*
X037998Y004817D02*
X038198Y005017D01*
X038212Y005017D02*
X038413Y004817D01*
X038427Y004817D02*
X038628Y005017D01*
X038656Y005017D02*
X038856Y004817D01*
X038857Y004817D01*
X038871Y004817D02*
X039071Y005017D01*
X039071Y005017D01*
X039114Y005017D02*
X039314Y004817D01*
X039315Y004817D01*
X039315Y004831D02*
X039501Y005017D01*
X039544Y005017D02*
X039744Y004817D01*
X039744Y004817D01*
X039773Y004831D02*
X039959Y005017D01*
X040001Y005017D02*
X040202Y004817D01*
X040202Y004817D01*
X040202Y004831D02*
X040388Y005017D01*
X040388Y005031D01*
X037640Y005031D01*
X036896Y005776D01*
X036896Y010570D01*
X036824Y010570D01*
X036681Y010556D02*
X036867Y010384D01*
X036667Y010184D01*
X036667Y010126D02*
X036867Y009940D01*
X036667Y009740D01*
X036667Y009683D02*
X036867Y009482D01*
X036853Y009482D02*
X036667Y009296D01*
X036667Y009239D02*
X036867Y009053D01*
X036681Y008867D01*
X036667Y008781D02*
X036867Y008595D01*
X036667Y008409D01*
X036681Y008352D02*
X036867Y008151D01*
X036681Y007965D01*
X036667Y007908D02*
X036867Y007708D01*
X036667Y007507D01*
X036667Y007464D02*
X036867Y007264D01*
X036667Y007064D01*
X036681Y007006D02*
X036867Y006820D01*
X036681Y006634D01*
X036681Y006591D02*
X036881Y006377D01*
X036667Y006162D01*
X036667Y006119D02*
X036867Y005919D01*
X036667Y005733D01*
X036753Y005590D02*
X036910Y005747D01*
X037010Y005632D02*
X036867Y005489D01*
X036996Y005375D02*
X037139Y005518D01*
X037239Y005418D02*
X037096Y005275D01*
X036996Y005375D02*
X036996Y005375D01*
X037211Y005160D02*
X037211Y005160D01*
X037354Y005303D01*
X037998Y005461D02*
X037998Y005876D01*
X038141Y005876D02*
X037998Y005461D01*
X038141Y005461D02*
X038141Y005876D01*
X038413Y005876D02*
X038556Y005876D01*
X038556Y005461D01*
X038413Y005461D01*
X038441Y005661D02*
X038542Y005661D01*
X038828Y005718D02*
X038828Y005804D01*
X038827Y005804D02*
X038829Y005820D01*
X038834Y005835D01*
X038843Y005849D01*
X038854Y005860D01*
X038868Y005869D01*
X038883Y005874D01*
X038899Y005876D01*
X038971Y005876D01*
X038971Y005461D01*
X038957Y005661D02*
X038885Y005661D01*
X038872Y005662D01*
X038860Y005667D01*
X038849Y005673D01*
X038840Y005682D01*
X038834Y005693D01*
X038829Y005705D01*
X038828Y005718D01*
X039257Y005819D02*
X039257Y005518D01*
X039258Y005518D02*
X039260Y005504D01*
X039264Y005490D01*
X039272Y005478D01*
X039282Y005468D01*
X039294Y005460D01*
X039308Y005456D01*
X039322Y005454D01*
X039336Y005456D01*
X039350Y005460D01*
X039362Y005468D01*
X039372Y005478D01*
X039380Y005490D01*
X039384Y005504D01*
X039386Y005518D01*
X039386Y005819D01*
X039384Y005833D01*
X039380Y005847D01*
X039372Y005859D01*
X039362Y005869D01*
X039350Y005877D01*
X039336Y005881D01*
X039322Y005883D01*
X039308Y005881D01*
X039294Y005877D01*
X039282Y005869D01*
X039272Y005859D01*
X039264Y005847D01*
X039260Y005833D01*
X039258Y005819D01*
X039644Y005489D02*
X039644Y005489D01*
X039916Y005217D01*
X039887Y005217D02*
X040359Y005690D01*
X040288Y005747D02*
X040288Y005747D01*
X040817Y005217D01*
X040774Y005217D02*
X040832Y005275D01*
X040832Y005275D01*
X040932Y005203D02*
X039286Y005203D01*
X040116Y005904D01*
X040946Y005203D01*
X040889Y005017D02*
X041089Y004817D01*
X041089Y004817D01*
X041104Y004817D02*
X041304Y005017D01*
X041333Y005017D02*
X041533Y004817D01*
X041547Y004817D02*
X041748Y005017D01*
X041748Y005017D01*
X041776Y005017D02*
X041977Y004817D01*
X042005Y004831D02*
X042191Y005017D01*
X042191Y005031D02*
X040388Y005031D01*
X040445Y005017D02*
X040646Y004817D01*
X040846Y005017D01*
X040846Y005017D01*
X040588Y005217D02*
X040016Y005790D01*
X040016Y005790D01*
X040102Y005876D01*
X040102Y005876D01*
X040016Y005790D02*
X039901Y005675D01*
X040359Y005217D01*
X040331Y005217D02*
X040588Y005475D01*
X040474Y005575D02*
X040116Y005217D01*
X040130Y005217D02*
X039758Y005590D01*
X039901Y005675D02*
X039443Y005217D01*
X039472Y005217D02*
X039400Y005289D01*
X039515Y005389D02*
X039687Y005217D01*
X039658Y005217D02*
X040231Y005790D01*
X040231Y005790D01*
X040860Y005876D02*
X040860Y005461D01*
X041003Y005876D01*
X041003Y005461D01*
X041275Y005461D02*
X041418Y005461D01*
X041418Y005876D01*
X041275Y005876D01*
X041304Y005661D02*
X041404Y005661D01*
X041690Y005718D02*
X041690Y005804D01*
X041692Y005820D01*
X041697Y005835D01*
X041706Y005849D01*
X041717Y005860D01*
X041731Y005869D01*
X041746Y005874D01*
X041762Y005876D01*
X041833Y005876D01*
X041833Y005461D01*
X041819Y005661D02*
X041748Y005661D01*
X041735Y005662D01*
X041723Y005667D01*
X041712Y005673D01*
X041703Y005682D01*
X041697Y005693D01*
X041692Y005705D01*
X041691Y005718D01*
X042120Y005819D02*
X042120Y005518D01*
X042122Y005504D01*
X042126Y005490D01*
X042134Y005478D01*
X042144Y005468D01*
X042156Y005460D01*
X042170Y005456D01*
X042184Y005454D01*
X042198Y005456D01*
X042212Y005460D01*
X042224Y005468D01*
X042234Y005478D01*
X042242Y005490D01*
X042246Y005504D01*
X042248Y005518D01*
X042249Y005518D02*
X042249Y005819D01*
X042248Y005819D02*
X042246Y005833D01*
X042242Y005847D01*
X042234Y005859D01*
X042224Y005869D01*
X042212Y005877D01*
X042198Y005881D01*
X042184Y005883D01*
X042170Y005881D01*
X042156Y005877D01*
X042144Y005869D01*
X042134Y005859D01*
X042126Y005847D01*
X042122Y005833D01*
X042120Y005819D01*
X042420Y005260D02*
X042418Y005232D01*
X042413Y005205D01*
X042405Y005179D01*
X042394Y005154D01*
X042379Y005130D01*
X042362Y005108D01*
X042343Y005089D01*
X042321Y005072D01*
X042297Y005057D01*
X042272Y005046D01*
X042246Y005038D01*
X042219Y005033D01*
X042191Y005031D01*
X042206Y004803D02*
X042246Y004805D01*
X042285Y004810D01*
X042323Y004819D01*
X042361Y004832D01*
X042397Y004848D01*
X042432Y004867D01*
X042465Y004890D01*
X042495Y004915D01*
X042523Y004943D01*
X042548Y004973D01*
X042571Y005006D01*
X042590Y005041D01*
X042606Y005077D01*
X042619Y005115D01*
X042628Y005153D01*
X042633Y005192D01*
X042635Y005232D01*
X042635Y004716D02*
X042635Y003886D01*
X042721Y003801D01*
X043021Y003801D01*
X043021Y003686D02*
X042678Y003686D01*
X042678Y002112D01*
X042492Y001926D01*
X041647Y001926D01*
X042492Y001911D02*
X042492Y001782D01*
X042463Y003099D02*
X042664Y003099D01*
X042664Y003242D02*
X042549Y003242D01*
X042549Y003972D01*
X042206Y004316D01*
X042449Y004058D02*
X042449Y003700D01*
X042449Y003114D01*
X042463Y003099D01*
X042449Y003700D02*
X042191Y003958D01*
X042191Y004702D01*
X042635Y004716D02*
X036667Y004716D01*
X036667Y003801D01*
X036280Y003801D01*
X036280Y003944D02*
X036652Y003944D01*
X036796Y003801D02*
X036796Y003300D01*
X036724Y003228D01*
X036624Y003228D01*
X036624Y003257D02*
X036738Y003257D01*
X036796Y003801D02*
X037096Y003801D01*
X036652Y004573D02*
X036280Y004573D01*
X038985Y006248D02*
X039057Y007307D01*
X039300Y007307D01*
X039386Y006219D01*
X039558Y006234D02*
X039558Y007507D01*
X039815Y007507D02*
X039815Y006234D01*
X039987Y006219D02*
X040059Y007307D01*
X040302Y007307D01*
X040388Y006219D01*
X040560Y006219D02*
X040560Y007507D01*
X040803Y007507D02*
X040803Y006219D01*
X040975Y006219D02*
X041061Y007307D01*
X041304Y007307D01*
X041390Y006248D01*
X041547Y006319D02*
X041547Y007364D01*
X041146Y007522D02*
X039229Y007522D01*
X038814Y007350D02*
X038814Y006334D01*
X039171Y006205D02*
X041204Y006205D01*
X041253Y006207D01*
X041303Y006213D01*
X041351Y006222D01*
X041399Y006236D01*
X041445Y006253D01*
X041490Y006274D01*
X041533Y006298D01*
X041574Y006325D01*
X041613Y006356D01*
X041649Y006390D01*
X041683Y006426D01*
X041714Y006465D01*
X041741Y006506D01*
X041765Y006549D01*
X041786Y006594D01*
X041803Y006640D01*
X041817Y006688D01*
X041826Y006736D01*
X041832Y006786D01*
X041834Y006835D01*
X041833Y006835D02*
X041831Y006886D01*
X041825Y006937D01*
X041816Y006988D01*
X041802Y007037D01*
X041786Y007086D01*
X041765Y007133D01*
X041741Y007179D01*
X041714Y007222D01*
X041683Y007263D01*
X041650Y007302D01*
X041613Y007339D01*
X041574Y007372D01*
X041533Y007403D01*
X041490Y007430D01*
X041444Y007454D01*
X041397Y007475D01*
X041348Y007491D01*
X041299Y007505D01*
X041248Y007514D01*
X041197Y007520D01*
X041146Y007522D01*
X039057Y008337D02*
X039059Y008385D01*
X039065Y008432D01*
X039075Y008479D01*
X039088Y008525D01*
X039105Y008570D01*
X039126Y008613D01*
X039150Y008654D01*
X039178Y008694D01*
X039208Y008730D01*
X039242Y008765D01*
X039278Y008796D01*
X039317Y008824D01*
X039357Y008849D01*
X039400Y008871D01*
X039444Y008889D01*
X039490Y008903D01*
X039537Y008914D01*
X039584Y008921D01*
X039632Y008924D01*
X039680Y008923D01*
X039728Y008918D01*
X039775Y008909D01*
X039821Y008897D01*
X039866Y008880D01*
X039909Y008861D01*
X039951Y008837D01*
X039991Y008810D01*
X040028Y008781D01*
X040063Y008748D01*
X040095Y008712D01*
X040124Y008674D01*
X040150Y008634D01*
X040173Y008592D01*
X040192Y008548D01*
X040207Y008502D01*
X040219Y008456D01*
X040227Y008409D01*
X040231Y008361D01*
X040231Y008313D01*
X040227Y008265D01*
X040219Y008218D01*
X040207Y008172D01*
X040192Y008126D01*
X040173Y008082D01*
X040150Y008040D01*
X040124Y008000D01*
X040095Y007962D01*
X040063Y007926D01*
X040028Y007893D01*
X039991Y007864D01*
X039951Y007837D01*
X039909Y007813D01*
X039866Y007794D01*
X039821Y007777D01*
X039775Y007765D01*
X039728Y007756D01*
X039680Y007751D01*
X039632Y007750D01*
X039584Y007753D01*
X039537Y007760D01*
X039490Y007771D01*
X039444Y007785D01*
X039400Y007803D01*
X039357Y007825D01*
X039317Y007850D01*
X039278Y007878D01*
X039242Y007909D01*
X039208Y007944D01*
X039178Y007980D01*
X039150Y008020D01*
X039126Y008061D01*
X039105Y008104D01*
X039088Y008149D01*
X039075Y008195D01*
X039065Y008242D01*
X039059Y008289D01*
X039057Y008337D01*
X038284Y008166D02*
X038141Y008166D01*
X037855Y008037D01*
X037855Y008166D02*
X038141Y008166D01*
X038026Y008109D02*
X038284Y008037D01*
X038212Y008409D02*
X038198Y008409D01*
X038212Y008409D02*
X038228Y008411D01*
X038243Y008416D01*
X038257Y008425D01*
X038268Y008436D01*
X038277Y008450D01*
X038282Y008465D01*
X038284Y008481D01*
X038282Y008497D01*
X038277Y008512D01*
X038268Y008526D01*
X038257Y008537D01*
X038243Y008546D01*
X038228Y008551D01*
X038212Y008553D01*
X038212Y008552D02*
X037926Y008552D01*
X037926Y008553D02*
X037910Y008551D01*
X037895Y008546D01*
X037881Y008537D01*
X037870Y008526D01*
X037861Y008512D01*
X037856Y008497D01*
X037854Y008481D01*
X037856Y008465D01*
X037861Y008450D01*
X037870Y008436D01*
X037881Y008425D01*
X037895Y008416D01*
X037910Y008411D01*
X037926Y008409D01*
X037941Y008409D01*
X037583Y008352D02*
X037153Y008352D01*
X037583Y008209D01*
X037153Y008209D01*
X037153Y008595D02*
X037153Y008738D01*
X037583Y008738D01*
X037583Y008595D01*
X037912Y008810D02*
X038212Y008810D01*
X038226Y008812D01*
X038240Y008816D01*
X038252Y008824D01*
X038262Y008834D01*
X038270Y008846D01*
X038274Y008860D01*
X038276Y008874D01*
X038274Y008888D01*
X038270Y008902D01*
X038262Y008914D01*
X038252Y008924D01*
X038240Y008932D01*
X038226Y008936D01*
X038212Y008938D01*
X038212Y008939D02*
X037912Y008939D01*
X037912Y008938D02*
X037898Y008936D01*
X037884Y008932D01*
X037872Y008924D01*
X037862Y008914D01*
X037854Y008902D01*
X037850Y008888D01*
X037848Y008874D01*
X037850Y008860D01*
X037854Y008846D01*
X037862Y008834D01*
X037872Y008824D01*
X037884Y008816D01*
X037898Y008812D01*
X037912Y008810D01*
X037583Y008996D02*
X037368Y008996D01*
X037368Y009125D01*
X037153Y009125D01*
X037153Y008996D02*
X037368Y008996D01*
X037368Y009125D02*
X037583Y009125D01*
X037855Y009325D02*
X038284Y009325D01*
X038284Y009182D01*
X038284Y009583D02*
X037855Y009583D01*
X038184Y009697D01*
X037855Y009826D01*
X038284Y009826D01*
X037583Y009783D02*
X037153Y009783D01*
X037468Y009898D01*
X037153Y010012D01*
X037583Y010012D01*
X037583Y010284D02*
X037153Y010370D01*
X037583Y010470D01*
X037411Y010413D02*
X037411Y010341D01*
X037912Y010341D02*
X037941Y010341D01*
X037912Y010342D02*
X037898Y010344D01*
X037884Y010348D01*
X037872Y010356D01*
X037862Y010366D01*
X037854Y010378D01*
X037850Y010392D01*
X037848Y010406D01*
X037850Y010420D01*
X037854Y010434D01*
X037862Y010446D01*
X037872Y010456D01*
X037884Y010464D01*
X037898Y010468D01*
X037912Y010470D01*
X038012Y010470D01*
X038025Y010469D01*
X038037Y010464D01*
X038048Y010458D01*
X038057Y010449D01*
X038063Y010438D01*
X038068Y010426D01*
X038069Y010413D01*
X038069Y010398D01*
X038070Y010398D02*
X038075Y010383D01*
X038084Y010369D01*
X038095Y010357D01*
X038109Y010348D01*
X038125Y010343D01*
X038141Y010341D01*
X038227Y010341D01*
X038227Y010342D02*
X038241Y010344D01*
X038255Y010348D01*
X038267Y010356D01*
X038277Y010366D01*
X038285Y010378D01*
X038289Y010392D01*
X038291Y010406D01*
X038289Y010420D01*
X038285Y010434D01*
X038277Y010446D01*
X038267Y010456D01*
X038255Y010464D01*
X038241Y010468D01*
X038227Y010470D01*
X038184Y010470D01*
X038284Y010084D02*
X037855Y010084D01*
X038814Y010341D02*
X038814Y009354D01*
X039071Y009368D02*
X039300Y009368D01*
X039386Y010484D01*
X039558Y010484D02*
X039558Y009239D01*
X039801Y009225D02*
X039801Y010470D01*
X039973Y010470D02*
X040059Y009382D01*
X040316Y009382D01*
X040388Y010484D01*
X040560Y010484D02*
X040560Y009239D01*
X040803Y009225D02*
X040803Y010499D01*
X041175Y010499D01*
X040975Y010484D02*
X041061Y009368D01*
X041304Y009368D01*
X041390Y010441D01*
X041547Y010356D02*
X041547Y009325D01*
X041204Y009211D02*
X039186Y009211D01*
X039071Y009368D02*
X038985Y010441D01*
X039214Y010499D02*
X040803Y010499D01*
X040817Y010856D02*
X040817Y010942D01*
X040819Y010959D01*
X040824Y010975D01*
X040831Y010990D01*
X040842Y011003D01*
X040855Y011014D01*
X040870Y011021D01*
X040886Y011026D01*
X040903Y011028D01*
X041476Y011028D01*
X041493Y011026D01*
X041509Y011021D01*
X041524Y011014D01*
X041537Y011003D01*
X041548Y010990D01*
X041555Y010975D01*
X041560Y010959D01*
X041562Y010942D01*
X041562Y010856D01*
X041390Y010856D02*
X041390Y011014D01*
X040960Y011014D02*
X040960Y010856D01*
X040560Y010856D02*
X040560Y010928D01*
X040558Y010945D01*
X040553Y010961D01*
X040546Y010976D01*
X040535Y010989D01*
X040522Y011000D01*
X040507Y011007D01*
X040491Y011012D01*
X040474Y011014D01*
X039887Y011014D01*
X039871Y011012D01*
X039856Y011007D01*
X039842Y010998D01*
X039831Y010987D01*
X039822Y010973D01*
X039817Y010958D01*
X039815Y010942D01*
X039815Y010856D01*
X039959Y010856D02*
X039959Y011000D01*
X039558Y010942D02*
X039558Y010856D01*
X039558Y010942D02*
X039556Y010958D01*
X039551Y010973D01*
X039542Y010987D01*
X039531Y010998D01*
X039517Y011007D01*
X039502Y011012D01*
X039486Y011014D01*
X038885Y011014D01*
X038869Y011012D01*
X038854Y011007D01*
X038840Y010998D01*
X038829Y010987D01*
X038820Y010973D01*
X038815Y010958D01*
X038813Y010942D01*
X038814Y010942D02*
X038814Y010856D01*
X038971Y010856D02*
X038971Y011000D01*
X039400Y011000D02*
X039400Y010871D01*
X040402Y010856D02*
X040402Y011000D01*
X042134Y010856D02*
X042134Y011830D01*
X041977Y011858D02*
X041977Y013547D01*
X041619Y013561D02*
X042606Y013561D01*
X042606Y011844D01*
X036681Y011844D01*
X036681Y013561D01*
X037812Y013561D01*
X037812Y012631D01*
X041619Y012631D01*
X041962Y012631D01*
X041991Y012488D02*
X042592Y012488D01*
X042592Y012531D02*
X042263Y012531D01*
X042263Y013304D01*
X042592Y013304D01*
X042592Y013204D02*
X042363Y013204D01*
X042277Y013289D01*
X042363Y013189D02*
X042363Y012645D01*
X042377Y012645D02*
X042277Y012545D01*
X042377Y012645D02*
X042592Y012645D01*
X042649Y012402D02*
X042850Y012402D01*
X043164Y012397D02*
X043471Y012704D01*
X043547Y012704D01*
X043624Y012627D01*
X043624Y012474D01*
X043547Y012397D01*
X043547Y012244D02*
X043240Y011937D01*
X043164Y012013D01*
X043164Y012167D01*
X043240Y012244D01*
X043547Y012244D01*
X043624Y012167D01*
X043624Y012013D01*
X043547Y011937D01*
X043240Y011937D01*
X043164Y011783D02*
X043164Y011476D01*
X043164Y011323D02*
X043317Y011169D01*
X043317Y011246D02*
X043317Y011016D01*
X043164Y011016D02*
X043624Y011016D01*
X043624Y011246D01*
X043547Y011323D01*
X043394Y011323D01*
X043317Y011246D01*
X043471Y011476D02*
X043624Y011630D01*
X043164Y011630D01*
X042950Y011415D02*
X042649Y011415D01*
X042649Y011243D02*
X042893Y011243D01*
X042978Y011300D01*
X042878Y011229D02*
X042921Y010842D01*
X042921Y010441D01*
X043164Y010402D02*
X043164Y010095D01*
X043471Y010402D01*
X043547Y010402D01*
X043624Y010325D01*
X043624Y010172D01*
X043547Y010095D01*
X043547Y009942D02*
X043240Y009942D01*
X043164Y009865D01*
X043164Y009711D01*
X043240Y009635D01*
X043547Y009942D01*
X043624Y009865D01*
X043624Y009711D01*
X043547Y009635D01*
X043240Y009635D01*
X043240Y009481D02*
X043164Y009405D01*
X043164Y009251D01*
X043240Y009174D01*
X043547Y009481D01*
X043240Y009481D01*
X043240Y009174D02*
X043547Y009174D01*
X043624Y009251D01*
X043624Y009405D01*
X043547Y009481D01*
X043547Y009021D02*
X043471Y009021D01*
X043394Y008944D01*
X043317Y009021D01*
X043240Y009021D01*
X043164Y008944D01*
X043164Y008791D01*
X043240Y008714D01*
X043394Y008867D02*
X043394Y008944D01*
X043547Y009021D02*
X043624Y008944D01*
X043624Y008791D01*
X043547Y008714D01*
X043394Y008560D02*
X043394Y008254D01*
X043471Y008100D02*
X043394Y008023D01*
X043317Y008100D01*
X043240Y008100D01*
X043164Y008023D01*
X043164Y007870D01*
X043240Y007793D01*
X043240Y007640D02*
X043164Y007563D01*
X043164Y007409D01*
X043240Y007333D01*
X043547Y007640D01*
X043240Y007640D01*
X043240Y007333D02*
X043547Y007333D01*
X043624Y007409D01*
X043624Y007563D01*
X043547Y007640D01*
X043547Y007793D02*
X043624Y007870D01*
X043624Y008023D01*
X043547Y008100D01*
X043471Y008100D01*
X043394Y008023D02*
X043394Y007947D01*
X043624Y007179D02*
X043164Y007179D01*
X043164Y006872D02*
X043624Y006872D01*
X043471Y007026D01*
X043624Y007179D01*
X043547Y006719D02*
X043624Y006642D01*
X043624Y006489D01*
X043547Y006412D01*
X043240Y006412D01*
X043164Y006489D01*
X043164Y006642D01*
X043240Y006719D01*
X043240Y006259D02*
X043164Y006182D01*
X043164Y006028D01*
X043240Y005952D01*
X043547Y005952D01*
X043624Y006028D01*
X043624Y006182D01*
X043547Y006259D01*
X045620Y007353D02*
X046080Y007353D01*
X046080Y007200D02*
X046080Y007507D01*
X046004Y007660D02*
X046080Y007737D01*
X046080Y007891D01*
X046004Y007967D01*
X045927Y007967D01*
X045620Y007660D01*
X045620Y007967D01*
X041834Y009840D02*
X041832Y009791D01*
X041826Y009741D01*
X041817Y009693D01*
X041803Y009645D01*
X041786Y009599D01*
X041765Y009554D01*
X041741Y009511D01*
X041714Y009470D01*
X041683Y009431D01*
X041649Y009395D01*
X041613Y009361D01*
X041574Y009330D01*
X041533Y009303D01*
X041490Y009279D01*
X041445Y009258D01*
X041399Y009241D01*
X041351Y009227D01*
X041303Y009218D01*
X041253Y009212D01*
X041204Y009210D01*
X041833Y009840D02*
X041831Y009889D01*
X041826Y009938D01*
X041817Y009986D01*
X041804Y010034D01*
X041788Y010080D01*
X041768Y010125D01*
X041745Y010169D01*
X041719Y010211D01*
X041689Y010250D01*
X041657Y010288D01*
X041623Y010322D01*
X041585Y010354D01*
X041546Y010384D01*
X041504Y010410D01*
X041460Y010433D01*
X041415Y010453D01*
X041369Y010469D01*
X041321Y010482D01*
X041273Y010491D01*
X041224Y010496D01*
X041175Y010498D01*
X042921Y010842D02*
X043021Y010842D01*
X043164Y012397D02*
X043164Y012704D01*
X041619Y012631D02*
X041619Y013561D01*
X037744Y013952D02*
X037744Y014259D01*
X037325Y013533D02*
X037325Y011858D01*
X037168Y011830D02*
X037168Y010856D01*
X036638Y011229D02*
X036409Y011229D01*
X036338Y011286D01*
X036423Y011214D02*
X036381Y010828D01*
X036381Y010441D01*
X036366Y010828D02*
X036295Y010828D01*
X036352Y011415D02*
X036638Y011415D01*
X036667Y012402D02*
X036438Y012402D01*
X036695Y012502D02*
X037311Y012502D01*
X037354Y012631D02*
X037797Y012631D01*
X037039Y012545D02*
X036695Y012545D01*
X036695Y012660D02*
X036924Y012660D01*
X037025Y012560D01*
X037039Y012545D02*
X037039Y013304D01*
X036695Y013304D01*
X036695Y013204D02*
X036924Y013204D01*
X036924Y012674D01*
X036924Y013204D02*
X036939Y013204D01*
X037025Y013289D01*
X035775Y013952D02*
X035775Y014259D01*
X035622Y014106D02*
X035929Y014106D01*
X035797Y017200D02*
X036104Y017507D01*
X035797Y017507D01*
X035720Y017430D01*
X035720Y017277D01*
X035797Y017200D01*
X036104Y017200D01*
X036180Y017277D01*
X036180Y017430D01*
X036104Y017507D01*
X035797Y017660D02*
X035797Y017737D01*
X035720Y017737D01*
X035720Y017660D01*
X035797Y017660D01*
X035720Y017891D02*
X035720Y018198D01*
X035720Y018044D02*
X036180Y018044D01*
X036027Y017891D01*
X036027Y018351D02*
X035797Y018351D01*
X035720Y018428D01*
X035720Y018658D01*
X036027Y018658D01*
X035950Y018811D02*
X035950Y018965D01*
X035720Y018811D02*
X036180Y018811D01*
X036180Y019118D01*
X037220Y019178D02*
X037220Y018871D01*
X037527Y019178D01*
X037604Y019178D01*
X037680Y019101D01*
X037680Y018948D01*
X037604Y018871D01*
X037680Y018564D02*
X037220Y018564D01*
X037220Y018717D02*
X037220Y018410D01*
X037297Y018257D02*
X037220Y018180D01*
X037220Y018027D01*
X037297Y017950D01*
X037604Y017950D01*
X037680Y018027D01*
X037680Y018180D01*
X037604Y018257D01*
X037527Y018410D02*
X037680Y018564D01*
X038556Y009840D02*
X038558Y009791D01*
X038564Y009741D01*
X038573Y009693D01*
X038587Y009645D01*
X038604Y009599D01*
X038625Y009554D01*
X038649Y009511D01*
X038676Y009470D01*
X038707Y009431D01*
X038741Y009395D01*
X038777Y009361D01*
X038816Y009330D01*
X038857Y009303D01*
X038900Y009279D01*
X038945Y009258D01*
X038991Y009241D01*
X039039Y009227D01*
X039087Y009218D01*
X039137Y009212D01*
X039186Y009210D01*
X038556Y009840D02*
X038558Y009889D01*
X038563Y009938D01*
X038572Y009986D01*
X038585Y010034D01*
X038601Y010080D01*
X038621Y010125D01*
X038644Y010169D01*
X038670Y010211D01*
X038700Y010250D01*
X038732Y010288D01*
X038766Y010322D01*
X038804Y010354D01*
X038843Y010384D01*
X038885Y010410D01*
X038929Y010433D01*
X038974Y010453D01*
X039020Y010469D01*
X039068Y010482D01*
X039116Y010491D01*
X039165Y010496D01*
X039214Y010498D01*
X037583Y009525D02*
X037153Y009525D01*
X037153Y009454D01*
X037155Y009438D01*
X037160Y009423D01*
X037168Y009409D01*
X037179Y009398D01*
X037193Y009389D01*
X037207Y009383D01*
X037223Y009381D01*
X037239Y009382D01*
X037296Y009382D01*
X037312Y009384D01*
X037327Y009389D01*
X037341Y009397D01*
X037352Y009408D01*
X037361Y009422D01*
X037367Y009436D01*
X037369Y009452D01*
X037368Y009468D01*
X037368Y009511D01*
X037511Y007951D02*
X037211Y007951D01*
X037197Y007949D01*
X037183Y007945D01*
X037171Y007937D01*
X037161Y007927D01*
X037153Y007915D01*
X037149Y007901D01*
X037147Y007887D01*
X037149Y007873D01*
X037153Y007859D01*
X037161Y007847D01*
X037171Y007837D01*
X037183Y007829D01*
X037197Y007825D01*
X037211Y007823D01*
X037211Y007822D02*
X037511Y007822D01*
X037511Y007823D02*
X037525Y007825D01*
X037539Y007829D01*
X037551Y007837D01*
X037561Y007847D01*
X037569Y007859D01*
X037573Y007873D01*
X037575Y007887D01*
X037573Y007901D01*
X037569Y007915D01*
X037561Y007927D01*
X037551Y007937D01*
X037539Y007945D01*
X037525Y007949D01*
X037511Y007951D01*
X037568Y007565D02*
X037153Y007565D01*
X037568Y007565D02*
X037568Y007421D01*
X037797Y007636D02*
X037797Y007679D01*
X038112Y007679D01*
X038112Y007579D02*
X037941Y007622D01*
X037941Y007665D01*
X037683Y007636D02*
X037685Y007669D01*
X037691Y007701D01*
X037701Y007732D01*
X037714Y007762D01*
X037731Y007791D01*
X037751Y007816D01*
X037775Y007840D01*
X037800Y007860D01*
X037829Y007877D01*
X037859Y007890D01*
X037890Y007900D01*
X037922Y007906D01*
X037955Y007908D01*
X037988Y007906D01*
X038020Y007900D01*
X038051Y007890D01*
X038081Y007877D01*
X038110Y007860D01*
X038135Y007840D01*
X038159Y007816D01*
X038179Y007791D01*
X038196Y007762D01*
X038209Y007732D01*
X038219Y007701D01*
X038225Y007669D01*
X038227Y007636D01*
X038225Y007603D01*
X038219Y007571D01*
X038209Y007540D01*
X038196Y007510D01*
X038179Y007481D01*
X038159Y007456D01*
X038135Y007432D01*
X038110Y007412D01*
X038081Y007395D01*
X038051Y007382D01*
X038020Y007372D01*
X037988Y007366D01*
X037955Y007364D01*
X037922Y007366D01*
X037890Y007372D01*
X037859Y007382D01*
X037829Y007395D01*
X037800Y007412D01*
X037775Y007432D01*
X037751Y007456D01*
X037731Y007481D01*
X037714Y007510D01*
X037701Y007540D01*
X037691Y007571D01*
X037685Y007603D01*
X037683Y007636D01*
X037798Y007636D02*
X037799Y007623D01*
X037804Y007611D01*
X037810Y007600D01*
X037819Y007591D01*
X037830Y007585D01*
X037842Y007580D01*
X037855Y007579D01*
X037883Y007579D01*
X037896Y007580D01*
X037908Y007584D01*
X037919Y007591D01*
X037928Y007600D01*
X037936Y007610D01*
X037941Y007622D01*
X038541Y006835D02*
X038543Y006786D01*
X038549Y006736D01*
X038558Y006688D01*
X038572Y006640D01*
X038589Y006594D01*
X038610Y006549D01*
X038634Y006506D01*
X038661Y006465D01*
X038692Y006426D01*
X038726Y006390D01*
X038762Y006356D01*
X038801Y006325D01*
X038842Y006298D01*
X038885Y006274D01*
X038930Y006253D01*
X038976Y006236D01*
X039024Y006222D01*
X039072Y006213D01*
X039122Y006207D01*
X039171Y006205D01*
X038542Y006835D02*
X038544Y006886D01*
X038550Y006937D01*
X038559Y006988D01*
X038573Y007037D01*
X038589Y007086D01*
X038610Y007133D01*
X038634Y007179D01*
X038661Y007222D01*
X038692Y007263D01*
X038725Y007302D01*
X038762Y007339D01*
X038801Y007372D01*
X038842Y007403D01*
X038885Y007430D01*
X038931Y007454D01*
X038978Y007475D01*
X039027Y007491D01*
X039076Y007505D01*
X039127Y007514D01*
X039178Y007520D01*
X039229Y007522D01*
X040703Y005375D02*
X040545Y005217D01*
D14*
X041521Y020261D02*
X041523Y020281D01*
X041528Y020301D01*
X041538Y020319D01*
X041550Y020336D01*
X041565Y020350D01*
X041583Y020360D01*
X041602Y020368D01*
X041622Y020372D01*
X041642Y020372D01*
X041662Y020368D01*
X041681Y020360D01*
X041699Y020350D01*
X041714Y020336D01*
X041726Y020319D01*
X041736Y020301D01*
X041741Y020281D01*
X041743Y020261D01*
X041741Y020241D01*
X041736Y020221D01*
X041726Y020203D01*
X041714Y020186D01*
X041699Y020172D01*
X041681Y020162D01*
X041662Y020154D01*
X041642Y020150D01*
X041622Y020150D01*
X041602Y020154D01*
X041583Y020162D01*
X041565Y020172D01*
X041550Y020186D01*
X041538Y020203D01*
X041528Y020221D01*
X041523Y020241D01*
X041521Y020261D01*
D15*
X027545Y019913D02*
X027520Y019938D01*
X027495Y019938D01*
X027470Y019913D01*
X027445Y019938D01*
X027420Y019938D01*
X027395Y019913D01*
X027395Y019863D01*
X027420Y019838D01*
X027470Y019790D02*
X027445Y019765D01*
X027445Y019690D01*
X027395Y019690D02*
X027545Y019690D01*
X027545Y019765D01*
X027520Y019790D01*
X027470Y019790D01*
X027520Y019838D02*
X027545Y019863D01*
X027545Y019913D01*
X027470Y019913D02*
X027470Y019888D01*
X027545Y019643D02*
X027545Y019593D01*
X027545Y019618D02*
X027420Y019618D01*
X027395Y019593D01*
X027395Y019568D01*
X027420Y019543D01*
D16*
X051500Y018780D02*
X051500Y020480D01*
X051502Y020497D01*
X051506Y020514D01*
X051513Y020530D01*
X051523Y020544D01*
X051536Y020557D01*
X051550Y020567D01*
X051566Y020574D01*
X051583Y020578D01*
X051600Y020580D01*
X052200Y020580D01*
X052217Y020578D01*
X052234Y020574D01*
X052250Y020567D01*
X052264Y020557D01*
X052277Y020544D01*
X052287Y020530D01*
X052294Y020514D01*
X052298Y020497D01*
X052300Y020480D01*
X052300Y018780D01*
X052298Y018763D01*
X052294Y018746D01*
X052287Y018730D01*
X052277Y018716D01*
X052264Y018703D01*
X052250Y018693D01*
X052234Y018686D01*
X052217Y018682D01*
X052200Y018680D01*
X051600Y018680D01*
X051583Y018682D01*
X051566Y018686D01*
X051550Y018693D01*
X051536Y018703D01*
X051523Y018716D01*
X051513Y018730D01*
X051506Y018746D01*
X051502Y018763D01*
X051500Y018780D01*
X051600Y017730D02*
X052200Y017730D01*
X052217Y017728D01*
X052234Y017724D01*
X052250Y017717D01*
X052264Y017707D01*
X052277Y017694D01*
X052287Y017680D01*
X052294Y017664D01*
X052298Y017647D01*
X052300Y017630D01*
X052300Y015930D01*
X052298Y015913D01*
X052294Y015896D01*
X052287Y015880D01*
X052277Y015866D01*
X052264Y015853D01*
X052250Y015843D01*
X052234Y015836D01*
X052217Y015832D01*
X052200Y015830D01*
X051600Y015830D01*
X051583Y015832D01*
X051566Y015836D01*
X051550Y015843D01*
X051536Y015853D01*
X051523Y015866D01*
X051513Y015880D01*
X051506Y015896D01*
X051502Y015913D01*
X051500Y015930D01*
X051500Y017630D01*
X051502Y017647D01*
X051506Y017664D01*
X051513Y017680D01*
X051523Y017694D01*
X051536Y017707D01*
X051550Y017717D01*
X051566Y017724D01*
X051583Y017728D01*
X051600Y017730D01*
M02*
