G75*
G70*
%OFA0B0*%
%FSLAX24Y24*%
%IPPOS*%
%LPD*%
%AMOC8*
5,1,8,0,0,1.08239X$1,22.5*
%
%ADD10C,0.0000*%
%ADD11C,0.0040*%
%ADD12C,0.0050*%
%ADD13C,0.0060*%
%ADD14C,0.0080*%
%ADD15C,0.0010*%
%ADD16C,0.0030*%
%ADD17C,0.0300*%
%ADD18R,0.0200X0.0300*%
%ADD19R,0.0400X0.0300*%
D10*
X000100Y000180D02*
X000100Y023180D01*
X053600Y023180D01*
X053600Y000180D01*
X000100Y000180D01*
X000549Y001180D02*
X000551Y001227D01*
X000557Y001273D01*
X000567Y001319D01*
X000580Y001364D01*
X000598Y001407D01*
X000619Y001449D01*
X000643Y001489D01*
X000671Y001526D01*
X000702Y001561D01*
X000736Y001594D01*
X000772Y001623D01*
X000811Y001649D01*
X000852Y001672D01*
X000895Y001691D01*
X000939Y001707D01*
X000984Y001719D01*
X001030Y001727D01*
X001077Y001731D01*
X001123Y001731D01*
X001170Y001727D01*
X001216Y001719D01*
X001261Y001707D01*
X001305Y001691D01*
X001348Y001672D01*
X001389Y001649D01*
X001428Y001623D01*
X001464Y001594D01*
X001498Y001561D01*
X001529Y001526D01*
X001557Y001489D01*
X001581Y001449D01*
X001602Y001407D01*
X001620Y001364D01*
X001633Y001319D01*
X001643Y001273D01*
X001649Y001227D01*
X001651Y001180D01*
X001649Y001133D01*
X001643Y001087D01*
X001633Y001041D01*
X001620Y000996D01*
X001602Y000953D01*
X001581Y000911D01*
X001557Y000871D01*
X001529Y000834D01*
X001498Y000799D01*
X001464Y000766D01*
X001428Y000737D01*
X001389Y000711D01*
X001348Y000688D01*
X001305Y000669D01*
X001261Y000653D01*
X001216Y000641D01*
X001170Y000633D01*
X001123Y000629D01*
X001077Y000629D01*
X001030Y000633D01*
X000984Y000641D01*
X000939Y000653D01*
X000895Y000669D01*
X000852Y000688D01*
X000811Y000711D01*
X000772Y000737D01*
X000736Y000766D01*
X000702Y000799D01*
X000671Y000834D01*
X000643Y000871D01*
X000619Y000911D01*
X000598Y000953D01*
X000580Y000996D01*
X000567Y001041D01*
X000557Y001087D01*
X000551Y001133D01*
X000549Y001180D01*
X026299Y001180D02*
X026301Y001227D01*
X026307Y001273D01*
X026317Y001319D01*
X026330Y001364D01*
X026348Y001407D01*
X026369Y001449D01*
X026393Y001489D01*
X026421Y001526D01*
X026452Y001561D01*
X026486Y001594D01*
X026522Y001623D01*
X026561Y001649D01*
X026602Y001672D01*
X026645Y001691D01*
X026689Y001707D01*
X026734Y001719D01*
X026780Y001727D01*
X026827Y001731D01*
X026873Y001731D01*
X026920Y001727D01*
X026966Y001719D01*
X027011Y001707D01*
X027055Y001691D01*
X027098Y001672D01*
X027139Y001649D01*
X027178Y001623D01*
X027214Y001594D01*
X027248Y001561D01*
X027279Y001526D01*
X027307Y001489D01*
X027331Y001449D01*
X027352Y001407D01*
X027370Y001364D01*
X027383Y001319D01*
X027393Y001273D01*
X027399Y001227D01*
X027401Y001180D01*
X027399Y001133D01*
X027393Y001087D01*
X027383Y001041D01*
X027370Y000996D01*
X027352Y000953D01*
X027331Y000911D01*
X027307Y000871D01*
X027279Y000834D01*
X027248Y000799D01*
X027214Y000766D01*
X027178Y000737D01*
X027139Y000711D01*
X027098Y000688D01*
X027055Y000669D01*
X027011Y000653D01*
X026966Y000641D01*
X026920Y000633D01*
X026873Y000629D01*
X026827Y000629D01*
X026780Y000633D01*
X026734Y000641D01*
X026689Y000653D01*
X026645Y000669D01*
X026602Y000688D01*
X026561Y000711D01*
X026522Y000737D01*
X026486Y000766D01*
X026452Y000799D01*
X026421Y000834D01*
X026393Y000871D01*
X026369Y000911D01*
X026348Y000953D01*
X026330Y000996D01*
X026317Y001041D01*
X026307Y001087D01*
X026301Y001133D01*
X026299Y001180D01*
X041388Y004337D02*
X041390Y004368D01*
X041396Y004399D01*
X041405Y004429D01*
X041418Y004458D01*
X041435Y004485D01*
X041455Y004509D01*
X041477Y004531D01*
X041503Y004550D01*
X041530Y004566D01*
X041559Y004578D01*
X041589Y004587D01*
X041620Y004592D01*
X041652Y004593D01*
X041683Y004590D01*
X041714Y004583D01*
X041744Y004573D01*
X041772Y004559D01*
X041798Y004541D01*
X041822Y004521D01*
X041843Y004497D01*
X041862Y004472D01*
X041877Y004444D01*
X041888Y004415D01*
X041896Y004384D01*
X041900Y004353D01*
X041900Y004321D01*
X041896Y004290D01*
X041888Y004259D01*
X041877Y004230D01*
X041862Y004202D01*
X041843Y004177D01*
X041822Y004153D01*
X041798Y004133D01*
X041772Y004115D01*
X041744Y004101D01*
X041714Y004091D01*
X041683Y004084D01*
X041652Y004081D01*
X041620Y004082D01*
X041589Y004087D01*
X041559Y004096D01*
X041530Y004108D01*
X041503Y004124D01*
X041477Y004143D01*
X041455Y004165D01*
X041435Y004189D01*
X041418Y004216D01*
X041405Y004245D01*
X041396Y004275D01*
X041390Y004306D01*
X041388Y004337D01*
X052049Y001180D02*
X052051Y001227D01*
X052057Y001273D01*
X052067Y001319D01*
X052080Y001364D01*
X052098Y001407D01*
X052119Y001449D01*
X052143Y001489D01*
X052171Y001526D01*
X052202Y001561D01*
X052236Y001594D01*
X052272Y001623D01*
X052311Y001649D01*
X052352Y001672D01*
X052395Y001691D01*
X052439Y001707D01*
X052484Y001719D01*
X052530Y001727D01*
X052577Y001731D01*
X052623Y001731D01*
X052670Y001727D01*
X052716Y001719D01*
X052761Y001707D01*
X052805Y001691D01*
X052848Y001672D01*
X052889Y001649D01*
X052928Y001623D01*
X052964Y001594D01*
X052998Y001561D01*
X053029Y001526D01*
X053057Y001489D01*
X053081Y001449D01*
X053102Y001407D01*
X053120Y001364D01*
X053133Y001319D01*
X053143Y001273D01*
X053149Y001227D01*
X053151Y001180D01*
X053149Y001133D01*
X053143Y001087D01*
X053133Y001041D01*
X053120Y000996D01*
X053102Y000953D01*
X053081Y000911D01*
X053057Y000871D01*
X053029Y000834D01*
X052998Y000799D01*
X052964Y000766D01*
X052928Y000737D01*
X052889Y000711D01*
X052848Y000688D01*
X052805Y000669D01*
X052761Y000653D01*
X052716Y000641D01*
X052670Y000633D01*
X052623Y000629D01*
X052577Y000629D01*
X052530Y000633D01*
X052484Y000641D01*
X052439Y000653D01*
X052395Y000669D01*
X052352Y000688D01*
X052311Y000711D01*
X052272Y000737D01*
X052236Y000766D01*
X052202Y000799D01*
X052171Y000834D01*
X052143Y000871D01*
X052119Y000911D01*
X052098Y000953D01*
X052080Y000996D01*
X052067Y001041D01*
X052057Y001087D01*
X052051Y001133D01*
X052049Y001180D01*
X037388Y012337D02*
X037390Y012368D01*
X037396Y012399D01*
X037405Y012429D01*
X037418Y012458D01*
X037435Y012485D01*
X037455Y012509D01*
X037477Y012531D01*
X037503Y012550D01*
X037530Y012566D01*
X037559Y012578D01*
X037589Y012587D01*
X037620Y012592D01*
X037652Y012593D01*
X037683Y012590D01*
X037714Y012583D01*
X037744Y012573D01*
X037772Y012559D01*
X037798Y012541D01*
X037822Y012521D01*
X037843Y012497D01*
X037862Y012472D01*
X037877Y012444D01*
X037888Y012415D01*
X037896Y012384D01*
X037900Y012353D01*
X037900Y012321D01*
X037896Y012290D01*
X037888Y012259D01*
X037877Y012230D01*
X037862Y012202D01*
X037843Y012177D01*
X037822Y012153D01*
X037798Y012133D01*
X037772Y012115D01*
X037744Y012101D01*
X037714Y012091D01*
X037683Y012084D01*
X037652Y012081D01*
X037620Y012082D01*
X037589Y012087D01*
X037559Y012096D01*
X037530Y012108D01*
X037503Y012124D01*
X037477Y012143D01*
X037455Y012165D01*
X037435Y012189D01*
X037418Y012216D01*
X037405Y012245D01*
X037396Y012275D01*
X037390Y012306D01*
X037388Y012337D01*
X026299Y022180D02*
X026301Y022227D01*
X026307Y022273D01*
X026317Y022319D01*
X026330Y022364D01*
X026348Y022407D01*
X026369Y022449D01*
X026393Y022489D01*
X026421Y022526D01*
X026452Y022561D01*
X026486Y022594D01*
X026522Y022623D01*
X026561Y022649D01*
X026602Y022672D01*
X026645Y022691D01*
X026689Y022707D01*
X026734Y022719D01*
X026780Y022727D01*
X026827Y022731D01*
X026873Y022731D01*
X026920Y022727D01*
X026966Y022719D01*
X027011Y022707D01*
X027055Y022691D01*
X027098Y022672D01*
X027139Y022649D01*
X027178Y022623D01*
X027214Y022594D01*
X027248Y022561D01*
X027279Y022526D01*
X027307Y022489D01*
X027331Y022449D01*
X027352Y022407D01*
X027370Y022364D01*
X027383Y022319D01*
X027393Y022273D01*
X027399Y022227D01*
X027401Y022180D01*
X027399Y022133D01*
X027393Y022087D01*
X027383Y022041D01*
X027370Y021996D01*
X027352Y021953D01*
X027331Y021911D01*
X027307Y021871D01*
X027279Y021834D01*
X027248Y021799D01*
X027214Y021766D01*
X027178Y021737D01*
X027139Y021711D01*
X027098Y021688D01*
X027055Y021669D01*
X027011Y021653D01*
X026966Y021641D01*
X026920Y021633D01*
X026873Y021629D01*
X026827Y021629D01*
X026780Y021633D01*
X026734Y021641D01*
X026689Y021653D01*
X026645Y021669D01*
X026602Y021688D01*
X026561Y021711D01*
X026522Y021737D01*
X026486Y021766D01*
X026452Y021799D01*
X026421Y021834D01*
X026393Y021871D01*
X026369Y021911D01*
X026348Y021953D01*
X026330Y021996D01*
X026317Y022041D01*
X026307Y022087D01*
X026301Y022133D01*
X026299Y022180D01*
X008589Y020980D02*
X008591Y021006D01*
X008597Y021032D01*
X008607Y021057D01*
X008620Y021080D01*
X008636Y021100D01*
X008656Y021118D01*
X008678Y021133D01*
X008701Y021145D01*
X008727Y021153D01*
X008753Y021157D01*
X008779Y021157D01*
X008805Y021153D01*
X008831Y021145D01*
X008855Y021133D01*
X008876Y021118D01*
X008896Y021100D01*
X008912Y021080D01*
X008925Y021057D01*
X008935Y021032D01*
X008941Y021006D01*
X008943Y020980D01*
X008941Y020954D01*
X008935Y020928D01*
X008925Y020903D01*
X008912Y020880D01*
X008896Y020860D01*
X008876Y020842D01*
X008854Y020827D01*
X008831Y020815D01*
X008805Y020807D01*
X008779Y020803D01*
X008753Y020803D01*
X008727Y020807D01*
X008701Y020815D01*
X008677Y020827D01*
X008656Y020842D01*
X008636Y020860D01*
X008620Y020880D01*
X008607Y020903D01*
X008597Y020928D01*
X008591Y020954D01*
X008589Y020980D01*
X006857Y020980D02*
X006859Y021006D01*
X006865Y021032D01*
X006875Y021057D01*
X006888Y021080D01*
X006904Y021100D01*
X006924Y021118D01*
X006946Y021133D01*
X006969Y021145D01*
X006995Y021153D01*
X007021Y021157D01*
X007047Y021157D01*
X007073Y021153D01*
X007099Y021145D01*
X007123Y021133D01*
X007144Y021118D01*
X007164Y021100D01*
X007180Y021080D01*
X007193Y021057D01*
X007203Y021032D01*
X007209Y021006D01*
X007211Y020980D01*
X007209Y020954D01*
X007203Y020928D01*
X007193Y020903D01*
X007180Y020880D01*
X007164Y020860D01*
X007144Y020842D01*
X007122Y020827D01*
X007099Y020815D01*
X007073Y020807D01*
X007047Y020803D01*
X007021Y020803D01*
X006995Y020807D01*
X006969Y020815D01*
X006945Y020827D01*
X006924Y020842D01*
X006904Y020860D01*
X006888Y020880D01*
X006875Y020903D01*
X006865Y020928D01*
X006859Y020954D01*
X006857Y020980D01*
X000549Y022180D02*
X000551Y022227D01*
X000557Y022273D01*
X000567Y022319D01*
X000580Y022364D01*
X000598Y022407D01*
X000619Y022449D01*
X000643Y022489D01*
X000671Y022526D01*
X000702Y022561D01*
X000736Y022594D01*
X000772Y022623D01*
X000811Y022649D01*
X000852Y022672D01*
X000895Y022691D01*
X000939Y022707D01*
X000984Y022719D01*
X001030Y022727D01*
X001077Y022731D01*
X001123Y022731D01*
X001170Y022727D01*
X001216Y022719D01*
X001261Y022707D01*
X001305Y022691D01*
X001348Y022672D01*
X001389Y022649D01*
X001428Y022623D01*
X001464Y022594D01*
X001498Y022561D01*
X001529Y022526D01*
X001557Y022489D01*
X001581Y022449D01*
X001602Y022407D01*
X001620Y022364D01*
X001633Y022319D01*
X001643Y022273D01*
X001649Y022227D01*
X001651Y022180D01*
X001649Y022133D01*
X001643Y022087D01*
X001633Y022041D01*
X001620Y021996D01*
X001602Y021953D01*
X001581Y021911D01*
X001557Y021871D01*
X001529Y021834D01*
X001498Y021799D01*
X001464Y021766D01*
X001428Y021737D01*
X001389Y021711D01*
X001348Y021688D01*
X001305Y021669D01*
X001261Y021653D01*
X001216Y021641D01*
X001170Y021633D01*
X001123Y021629D01*
X001077Y021629D01*
X001030Y021633D01*
X000984Y021641D01*
X000939Y021653D01*
X000895Y021669D01*
X000852Y021688D01*
X000811Y021711D01*
X000772Y021737D01*
X000736Y021766D01*
X000702Y021799D01*
X000671Y021834D01*
X000643Y021871D01*
X000619Y021911D01*
X000598Y021953D01*
X000580Y021996D01*
X000567Y022041D01*
X000557Y022087D01*
X000551Y022133D01*
X000549Y022180D01*
X052049Y022180D02*
X052051Y022227D01*
X052057Y022273D01*
X052067Y022319D01*
X052080Y022364D01*
X052098Y022407D01*
X052119Y022449D01*
X052143Y022489D01*
X052171Y022526D01*
X052202Y022561D01*
X052236Y022594D01*
X052272Y022623D01*
X052311Y022649D01*
X052352Y022672D01*
X052395Y022691D01*
X052439Y022707D01*
X052484Y022719D01*
X052530Y022727D01*
X052577Y022731D01*
X052623Y022731D01*
X052670Y022727D01*
X052716Y022719D01*
X052761Y022707D01*
X052805Y022691D01*
X052848Y022672D01*
X052889Y022649D01*
X052928Y022623D01*
X052964Y022594D01*
X052998Y022561D01*
X053029Y022526D01*
X053057Y022489D01*
X053081Y022449D01*
X053102Y022407D01*
X053120Y022364D01*
X053133Y022319D01*
X053143Y022273D01*
X053149Y022227D01*
X053151Y022180D01*
X053149Y022133D01*
X053143Y022087D01*
X053133Y022041D01*
X053120Y021996D01*
X053102Y021953D01*
X053081Y021911D01*
X053057Y021871D01*
X053029Y021834D01*
X052998Y021799D01*
X052964Y021766D01*
X052928Y021737D01*
X052889Y021711D01*
X052848Y021688D01*
X052805Y021669D01*
X052761Y021653D01*
X052716Y021641D01*
X052670Y021633D01*
X052623Y021629D01*
X052577Y021629D01*
X052530Y021633D01*
X052484Y021641D01*
X052439Y021653D01*
X052395Y021669D01*
X052352Y021688D01*
X052311Y021711D01*
X052272Y021737D01*
X052236Y021766D01*
X052202Y021799D01*
X052171Y021834D01*
X052143Y021871D01*
X052119Y021911D01*
X052098Y021953D01*
X052080Y021996D01*
X052067Y022041D01*
X052057Y022087D01*
X052051Y022133D01*
X052049Y022180D01*
D11*
X047137Y019927D02*
X047137Y019774D01*
X047060Y019697D01*
X046830Y019697D01*
X046830Y019544D02*
X046830Y020004D01*
X047060Y020004D01*
X047137Y019927D01*
X046676Y019927D02*
X046600Y020004D01*
X046446Y020004D01*
X046369Y019927D01*
X046369Y019851D01*
X046446Y019774D01*
X046600Y019774D01*
X046676Y019697D01*
X046676Y019620D01*
X046600Y019544D01*
X046446Y019544D01*
X046369Y019620D01*
X046216Y019544D02*
X046063Y019544D01*
X046139Y019544D02*
X046139Y020004D01*
X046063Y020004D02*
X046216Y020004D01*
X027330Y012490D02*
X026870Y012490D01*
X026870Y012720D01*
X026946Y012797D01*
X027100Y012797D01*
X027177Y012720D01*
X027177Y012490D01*
X027253Y012336D02*
X026870Y012336D01*
X026870Y012029D02*
X027253Y012029D01*
X027330Y012106D01*
X027330Y012259D01*
X027253Y012336D01*
X027253Y011876D02*
X027330Y011799D01*
X027330Y011646D01*
X027253Y011569D01*
X027100Y011646D02*
X027100Y011799D01*
X027177Y011876D01*
X027253Y011876D01*
X027100Y011646D02*
X027023Y011569D01*
X026946Y011569D01*
X026870Y011646D01*
X026870Y011799D01*
X026946Y011876D01*
X024330Y011799D02*
X024330Y011646D01*
X024253Y011569D01*
X023946Y011569D01*
X023870Y011646D01*
X023870Y011799D01*
X023946Y011876D01*
X024253Y011876D01*
X024330Y011799D01*
X024330Y012029D02*
X024177Y012183D01*
X024330Y012336D01*
X023870Y012336D01*
X023870Y012490D02*
X024330Y012797D01*
X023870Y012797D01*
X023870Y012490D02*
X024330Y012490D01*
X024330Y012029D02*
X023870Y012029D01*
X023946Y011415D02*
X023870Y011339D01*
X023870Y011108D01*
X024330Y011108D01*
X024330Y011339D01*
X024253Y011415D01*
X023946Y011415D01*
X023946Y010955D02*
X023870Y010878D01*
X023870Y010725D01*
X023946Y010648D01*
X024023Y010648D01*
X024100Y010725D01*
X024100Y010878D01*
X024177Y010955D01*
X024253Y010955D01*
X024330Y010878D01*
X024330Y010725D01*
X024253Y010648D01*
X020580Y012106D02*
X020503Y012029D01*
X020580Y012106D02*
X020580Y012259D01*
X020503Y012336D01*
X020427Y012336D01*
X020350Y012259D01*
X020350Y012106D01*
X020273Y012029D01*
X020196Y012029D01*
X020120Y012106D01*
X020120Y012259D01*
X020196Y012336D01*
X020196Y012490D02*
X020120Y012566D01*
X020120Y012720D01*
X020196Y012797D01*
X020273Y012797D01*
X020580Y012490D01*
X020580Y012797D01*
X016580Y012720D02*
X016580Y012566D01*
X016503Y012490D01*
X016350Y012490D02*
X016273Y012643D01*
X016273Y012720D01*
X016350Y012797D01*
X016503Y012797D01*
X016580Y012720D01*
X016350Y012490D02*
X016120Y012490D01*
X016120Y012797D01*
X016196Y012336D02*
X016120Y012259D01*
X016120Y012106D01*
X016196Y012029D01*
X016273Y012029D01*
X016350Y012106D01*
X016350Y012259D01*
X016427Y012336D01*
X016503Y012336D01*
X016580Y012259D01*
X016580Y012106D01*
X016503Y012029D01*
X012580Y012106D02*
X012503Y012029D01*
X012580Y012106D02*
X012580Y012259D01*
X012503Y012336D01*
X012427Y012336D01*
X012350Y012259D01*
X012350Y012106D01*
X012273Y012029D01*
X012196Y012029D01*
X012120Y012106D01*
X012120Y012259D01*
X012196Y012336D01*
X012196Y012490D02*
X012273Y012490D01*
X012350Y012566D01*
X012350Y012720D01*
X012427Y012797D01*
X012503Y012797D01*
X012580Y012720D01*
X012580Y012566D01*
X012503Y012490D01*
X012427Y012490D01*
X012350Y012566D01*
X012350Y012720D02*
X012273Y012797D01*
X012196Y012797D01*
X012120Y012720D01*
X012120Y012566D01*
X012196Y012490D01*
X008580Y012566D02*
X008503Y012490D01*
X008196Y012797D01*
X008503Y012797D01*
X008580Y012720D01*
X008580Y012566D01*
X008503Y012490D02*
X008196Y012490D01*
X008120Y012566D01*
X008120Y012720D01*
X008196Y012797D01*
X008196Y012336D02*
X008120Y012259D01*
X008120Y012106D01*
X008196Y012029D01*
X008273Y012029D01*
X008350Y012106D01*
X008350Y012259D01*
X008427Y012336D01*
X008503Y012336D01*
X008580Y012259D01*
X008580Y012106D01*
X008503Y012029D01*
X002530Y011944D02*
X002530Y012098D01*
X002453Y012174D01*
X002530Y011944D02*
X002453Y011867D01*
X002146Y011867D01*
X002070Y011944D01*
X002070Y012098D01*
X002146Y012174D01*
X002070Y011714D02*
X002070Y011560D01*
X002070Y011637D02*
X002530Y011637D01*
X002530Y011560D02*
X002530Y011714D01*
X002530Y011407D02*
X002070Y011407D01*
X002223Y011253D01*
X002070Y011100D01*
X002530Y011100D01*
X008120Y008720D02*
X008580Y008720D01*
X008580Y008566D02*
X008120Y008566D01*
X008273Y008490D02*
X008273Y008720D01*
X008273Y008797D01*
X008427Y008797D02*
X008427Y008490D01*
X008427Y008336D02*
X008503Y008336D01*
X008580Y008259D01*
X008580Y008106D01*
X008503Y008029D01*
X008350Y008106D02*
X008350Y008259D01*
X008427Y008336D01*
X008196Y008336D02*
X008120Y008259D01*
X008120Y008106D01*
X008196Y008029D01*
X008273Y008029D01*
X008350Y008106D01*
X012120Y008106D02*
X012196Y008029D01*
X012273Y008029D01*
X012350Y008106D01*
X012350Y008259D01*
X012427Y008336D01*
X012503Y008336D01*
X012580Y008259D01*
X012580Y008106D01*
X012503Y008029D01*
X012120Y008106D02*
X012120Y008259D01*
X012196Y008336D01*
X012196Y008490D02*
X012273Y008490D01*
X012350Y008566D01*
X012350Y008797D01*
X012503Y008797D02*
X012196Y008797D01*
X012120Y008720D01*
X012120Y008566D01*
X012196Y008490D01*
X012503Y008490D02*
X012580Y008566D01*
X012580Y008720D01*
X012503Y008797D01*
X016120Y008797D02*
X016196Y008643D01*
X016350Y008490D01*
X016350Y008720D01*
X016427Y008797D01*
X016503Y008797D01*
X016580Y008720D01*
X016580Y008566D01*
X016503Y008490D01*
X016350Y008490D01*
X016427Y008336D02*
X016503Y008336D01*
X016580Y008259D01*
X016580Y008106D01*
X016503Y008029D01*
X016350Y008106D02*
X016350Y008259D01*
X016427Y008336D01*
X016196Y008336D02*
X016120Y008259D01*
X016120Y008106D01*
X016196Y008029D01*
X016273Y008029D01*
X016350Y008106D01*
X020120Y008106D02*
X020196Y008029D01*
X020273Y008029D01*
X020350Y008106D01*
X020350Y008259D01*
X020427Y008336D01*
X020503Y008336D01*
X020580Y008259D01*
X020580Y008106D01*
X020503Y008029D01*
X020120Y008106D02*
X020120Y008259D01*
X020196Y008336D01*
X020196Y008490D02*
X020120Y008566D01*
X020120Y008720D01*
X020196Y008797D01*
X020273Y008797D01*
X020350Y008720D01*
X020427Y008797D01*
X020503Y008797D01*
X020580Y008720D01*
X020580Y008566D01*
X020503Y008490D01*
X020350Y008643D02*
X020350Y008720D01*
X025370Y008797D02*
X025370Y008490D01*
X025370Y008643D02*
X025830Y008643D01*
X025830Y008336D02*
X025370Y008336D01*
X025600Y008336D02*
X025600Y008029D01*
X025600Y007876D02*
X025600Y007722D01*
X025600Y007876D02*
X025753Y007876D01*
X025830Y007799D01*
X025830Y007646D01*
X025753Y007569D01*
X025446Y007569D01*
X025370Y007646D01*
X025370Y007799D01*
X025446Y007876D01*
X025370Y008029D02*
X025830Y008029D01*
X025830Y007415D02*
X025830Y007262D01*
X025830Y007339D02*
X025370Y007339D01*
X025370Y007415D02*
X025370Y007262D01*
X025446Y007108D02*
X025370Y007032D01*
X025370Y006801D01*
X025830Y006801D01*
X025677Y006801D02*
X025677Y007032D01*
X025600Y007108D01*
X025446Y007108D01*
X025677Y006955D02*
X025830Y007108D01*
X025753Y006648D02*
X025830Y006571D01*
X025830Y006418D01*
X025753Y006341D01*
X025600Y006418D02*
X025600Y006571D01*
X025677Y006648D01*
X025753Y006648D01*
X025600Y006418D02*
X025523Y006341D01*
X025446Y006341D01*
X025370Y006418D01*
X025370Y006571D01*
X025446Y006648D01*
X018116Y003797D02*
X018116Y003450D01*
X017856Y003450D01*
X017769Y003537D01*
X017769Y003797D01*
X017600Y003797D02*
X017340Y003797D01*
X017253Y003710D01*
X017253Y003537D01*
X017340Y003450D01*
X017600Y003450D01*
X017600Y003970D01*
X017085Y003710D02*
X017085Y003623D01*
X016738Y003623D01*
X016738Y003537D02*
X016738Y003710D01*
X016824Y003797D01*
X016998Y003797D01*
X017085Y003710D01*
X016998Y003450D02*
X016824Y003450D01*
X016738Y003537D01*
X016567Y003537D02*
X016567Y003450D01*
X016480Y003450D01*
X016480Y003537D01*
X016567Y003537D01*
X016310Y003450D02*
X016223Y003537D01*
X016223Y003884D01*
X016136Y003797D02*
X016310Y003797D01*
X015879Y003797D02*
X015879Y003450D01*
X015792Y003450D02*
X015966Y003450D01*
X015624Y003450D02*
X015624Y003710D01*
X015537Y003797D01*
X015450Y003710D01*
X015450Y003450D01*
X015277Y003450D02*
X015277Y003797D01*
X015363Y003797D01*
X015450Y003710D01*
X015792Y003797D02*
X015879Y003797D01*
X015879Y003970D02*
X015879Y004057D01*
X015106Y003537D02*
X015106Y003450D01*
X015019Y003450D01*
X015019Y003537D01*
X015106Y003537D01*
X014850Y003623D02*
X014590Y003623D01*
X014503Y003537D01*
X014590Y003450D01*
X014850Y003450D01*
X014850Y003710D01*
X014763Y003797D01*
X014590Y003797D01*
X014246Y003797D02*
X014246Y003450D01*
X014159Y003450D02*
X014333Y003450D01*
X013991Y003450D02*
X013731Y003450D01*
X013644Y003537D01*
X013644Y003710D01*
X013731Y003797D01*
X013991Y003797D01*
X014159Y003797D02*
X014246Y003797D01*
X014246Y003970D02*
X014246Y004057D01*
X013991Y003970D02*
X013991Y003450D01*
X013475Y003623D02*
X013128Y003623D01*
X013128Y003537D02*
X013128Y003710D01*
X013215Y003797D01*
X013388Y003797D01*
X013475Y003710D01*
X013475Y003623D01*
X013388Y003450D02*
X013215Y003450D01*
X013128Y003537D01*
X012959Y003450D02*
X012959Y003710D01*
X012873Y003797D01*
X012786Y003710D01*
X012786Y003450D01*
X012612Y003450D02*
X012612Y003797D01*
X012699Y003797D01*
X012786Y003710D01*
X012444Y003710D02*
X012357Y003623D01*
X012357Y003797D01*
X012184Y003797D01*
X012184Y003623D01*
X012357Y003623D01*
X012444Y003537D02*
X012357Y003450D01*
X012184Y003450D01*
X012097Y003537D01*
X012097Y003884D01*
X012184Y003970D01*
X012357Y003970D01*
X012444Y003884D01*
X012444Y003710D01*
X011928Y003797D02*
X011668Y003797D01*
X011581Y003710D01*
X011668Y003623D01*
X011841Y003623D01*
X011928Y003537D01*
X011841Y003450D01*
X011581Y003450D01*
X011411Y003450D02*
X011237Y003450D01*
X011324Y003450D02*
X011324Y003797D01*
X011237Y003797D01*
X011324Y003970D02*
X011324Y004057D01*
X010980Y003970D02*
X010980Y003450D01*
X010894Y003450D02*
X011067Y003450D01*
X010723Y003450D02*
X010550Y003450D01*
X010637Y003450D02*
X010637Y003970D01*
X010550Y003970D01*
X010295Y003797D02*
X010381Y003710D01*
X010381Y003623D01*
X010034Y003623D01*
X010034Y003537D02*
X010034Y003710D01*
X010121Y003797D01*
X010295Y003797D01*
X010034Y003537D02*
X010121Y003450D01*
X010295Y003450D01*
X009866Y003450D02*
X009866Y003710D01*
X009779Y003797D01*
X009692Y003710D01*
X009692Y003450D01*
X009519Y003450D02*
X009519Y003797D01*
X009605Y003797D01*
X009692Y003710D01*
X008833Y003537D02*
X008833Y003450D01*
X008746Y003450D01*
X008746Y003537D01*
X008833Y003537D01*
X008833Y003450D02*
X008659Y003277D01*
X008404Y003450D02*
X008491Y003537D01*
X008404Y003623D01*
X008230Y003623D01*
X008144Y003710D01*
X008230Y003797D01*
X008491Y003797D01*
X007887Y003797D02*
X007887Y003450D01*
X007973Y003450D02*
X007800Y003450D01*
X007630Y003450D02*
X007456Y003450D01*
X007543Y003450D02*
X007543Y003970D01*
X007456Y003970D01*
X007199Y003970D02*
X007199Y003450D01*
X007112Y003450D02*
X007286Y003450D01*
X006944Y003623D02*
X006597Y003623D01*
X006597Y003537D02*
X006597Y003710D01*
X006683Y003797D01*
X006857Y003797D01*
X006944Y003710D01*
X006944Y003623D01*
X006857Y003450D02*
X006683Y003450D01*
X006597Y003537D01*
X006428Y003450D02*
X006428Y003970D01*
X006255Y003797D01*
X006081Y003970D01*
X006081Y003450D01*
X006339Y002970D02*
X006686Y002970D01*
X006512Y002970D02*
X006512Y002450D01*
X006855Y002537D02*
X006855Y002710D01*
X006941Y002797D01*
X007115Y002797D01*
X007201Y002710D01*
X007201Y002623D01*
X006855Y002623D01*
X006855Y002537D02*
X006941Y002450D01*
X007115Y002450D01*
X007370Y002537D02*
X007457Y002450D01*
X007717Y002450D01*
X007886Y002450D02*
X007886Y002970D01*
X007973Y002797D02*
X008146Y002797D01*
X008233Y002710D01*
X008233Y002450D01*
X008401Y002277D02*
X008575Y002450D01*
X008488Y002450D01*
X008488Y002537D01*
X008575Y002537D01*
X008575Y002450D01*
X007973Y002797D02*
X007886Y002710D01*
X007717Y002797D02*
X007457Y002797D01*
X007370Y002710D01*
X007370Y002537D01*
X005655Y002537D02*
X005655Y002797D01*
X005655Y002537D02*
X005568Y002450D01*
X005481Y002537D01*
X005394Y002450D01*
X005308Y002537D01*
X005308Y002797D01*
X005139Y002710D02*
X005052Y002797D01*
X004879Y002797D01*
X004792Y002710D01*
X004792Y002537D01*
X004879Y002450D01*
X005052Y002450D01*
X005139Y002537D01*
X005139Y002710D01*
X004623Y002450D02*
X004276Y002450D01*
X004276Y002970D01*
X004108Y002710D02*
X003761Y002710D01*
X003592Y002710D02*
X003592Y002450D01*
X003592Y002710D02*
X003505Y002797D01*
X003332Y002797D01*
X003245Y002710D01*
X003076Y002797D02*
X002816Y002797D01*
X002729Y002710D01*
X002729Y002537D01*
X002816Y002450D01*
X003076Y002450D01*
X003076Y002363D02*
X003076Y002797D01*
X003245Y002970D02*
X003245Y002450D01*
X003076Y002363D02*
X002990Y002277D01*
X002903Y002277D01*
X002559Y002450D02*
X002386Y002450D01*
X002472Y002450D02*
X002472Y002797D01*
X002386Y002797D01*
X002217Y002710D02*
X001870Y002710D01*
X001870Y002450D02*
X001870Y002970D01*
X002217Y002970D02*
X002217Y002450D01*
X002472Y002970D02*
X002472Y003057D01*
X002472Y003450D02*
X002386Y003537D01*
X002472Y003623D01*
X002733Y003623D01*
X002733Y003710D02*
X002733Y003450D01*
X002472Y003450D01*
X002217Y003537D02*
X002217Y003884D01*
X002130Y003970D01*
X001870Y003970D01*
X001870Y003450D01*
X002130Y003450D01*
X002217Y003537D01*
X002472Y003797D02*
X002646Y003797D01*
X002733Y003710D01*
X002901Y003797D02*
X003075Y003450D01*
X003248Y003797D01*
X003417Y003797D02*
X003504Y003797D01*
X003504Y003450D01*
X003590Y003450D02*
X003417Y003450D01*
X003761Y003537D02*
X003761Y003710D01*
X003847Y003797D01*
X004108Y003797D01*
X004108Y003970D02*
X004108Y003450D01*
X003847Y003450D01*
X003761Y003537D01*
X003504Y003970D02*
X003504Y004057D01*
X003847Y004450D02*
X004021Y004450D01*
X004108Y004537D01*
X004276Y004537D02*
X004276Y004710D01*
X004363Y004797D01*
X004537Y004797D01*
X004623Y004710D01*
X004623Y004623D01*
X004276Y004623D01*
X004276Y004537D02*
X004363Y004450D01*
X004537Y004450D01*
X004792Y004450D02*
X004965Y004450D01*
X004879Y004450D02*
X004879Y004970D01*
X004792Y004970D01*
X005136Y004970D02*
X005222Y004970D01*
X005222Y004450D01*
X005136Y004450D02*
X005309Y004450D01*
X005479Y004450D02*
X005740Y004450D01*
X005826Y004537D01*
X005826Y004710D01*
X005740Y004797D01*
X005479Y004797D01*
X005479Y004277D01*
X005995Y004450D02*
X005995Y004970D01*
X006082Y004797D02*
X006255Y004797D01*
X006342Y004710D01*
X006342Y004450D01*
X006511Y004537D02*
X006597Y004450D01*
X006771Y004450D01*
X006858Y004537D01*
X006858Y004710D01*
X006771Y004797D01*
X006597Y004797D01*
X006511Y004710D01*
X006511Y004537D01*
X006082Y004797D02*
X005995Y004710D01*
X007026Y004797D02*
X007287Y004797D01*
X007373Y004710D01*
X007373Y004450D01*
X007542Y004537D02*
X007542Y004710D01*
X007629Y004797D01*
X007802Y004797D01*
X007889Y004710D01*
X007889Y004623D01*
X007542Y004623D01*
X007542Y004537D02*
X007629Y004450D01*
X007802Y004450D01*
X007887Y004057D02*
X007887Y003970D01*
X007887Y003797D02*
X007800Y003797D01*
X007199Y003970D02*
X007112Y003970D01*
X007026Y004450D02*
X007026Y004797D01*
X008573Y004797D02*
X008573Y004623D01*
X008747Y004450D01*
X008917Y004450D02*
X009264Y004450D01*
X009091Y004450D02*
X009091Y004970D01*
X008917Y004797D01*
X008747Y004970D02*
X008573Y004797D01*
X009433Y004884D02*
X009433Y004537D01*
X009780Y004884D01*
X009780Y004537D01*
X009693Y004450D01*
X009519Y004450D01*
X009433Y004537D01*
X009433Y004884D02*
X009519Y004970D01*
X009693Y004970D01*
X009780Y004884D01*
X009948Y004450D02*
X010295Y004970D01*
X010464Y004797D02*
X010637Y004970D01*
X010637Y004450D01*
X010464Y004450D02*
X010811Y004450D01*
X010980Y004450D02*
X011327Y004970D01*
X011495Y004884D02*
X011582Y004970D01*
X011755Y004970D01*
X011842Y004884D01*
X011842Y004797D01*
X011495Y004450D01*
X011842Y004450D01*
X012011Y004537D02*
X012358Y004884D01*
X012358Y004537D01*
X012271Y004450D01*
X012098Y004450D01*
X012011Y004537D01*
X012011Y004884D01*
X012098Y004970D01*
X012271Y004970D01*
X012358Y004884D01*
X012527Y004797D02*
X012700Y004970D01*
X012700Y004450D01*
X012527Y004450D02*
X012874Y004450D01*
X013042Y004450D02*
X013389Y004797D01*
X013389Y004884D01*
X013302Y004970D01*
X013129Y004970D01*
X013042Y004884D01*
X013558Y004970D02*
X013731Y004797D01*
X013731Y004623D01*
X013558Y004450D01*
X013389Y004450D02*
X013042Y004450D01*
X010980Y003970D02*
X010894Y003970D01*
X012785Y003057D02*
X012785Y002970D01*
X012785Y002797D02*
X012785Y002450D01*
X012698Y002450D02*
X012872Y002450D01*
X013042Y002537D02*
X013129Y002623D01*
X013389Y002623D01*
X013389Y002710D02*
X013389Y002450D01*
X013129Y002450D01*
X013042Y002537D01*
X013129Y002797D02*
X013302Y002797D01*
X013389Y002710D01*
X012785Y002797D02*
X012698Y002797D01*
X012530Y002797D02*
X012270Y002797D01*
X012183Y002710D01*
X012183Y002537D01*
X012270Y002450D01*
X012530Y002450D01*
X012530Y002970D01*
X012014Y002710D02*
X012014Y002623D01*
X011667Y002623D01*
X011667Y002537D02*
X011667Y002710D01*
X011754Y002797D01*
X011927Y002797D01*
X012014Y002710D01*
X011927Y002450D02*
X011754Y002450D01*
X011667Y002537D01*
X011498Y002450D02*
X011498Y002970D01*
X011325Y002797D01*
X011152Y002970D01*
X011152Y002450D01*
X010294Y002450D02*
X010294Y002970D01*
X010467Y002970D02*
X010120Y002970D01*
X009950Y002970D02*
X009776Y002970D01*
X009863Y002970D02*
X009863Y002450D01*
X009776Y002450D02*
X009950Y002450D01*
X009608Y002450D02*
X009608Y002970D01*
X009434Y002797D01*
X009261Y002970D01*
X009261Y002450D01*
X008404Y003450D02*
X008144Y003450D01*
X005394Y003450D02*
X005308Y003450D01*
X005308Y003537D01*
X005394Y003537D01*
X005394Y003450D01*
X005139Y003450D02*
X005139Y003797D01*
X004965Y003970D01*
X004792Y003797D01*
X004792Y003450D01*
X004792Y003710D02*
X005139Y003710D01*
X003847Y004450D02*
X003761Y004537D01*
X003761Y004884D01*
X003847Y004970D01*
X004021Y004970D01*
X004108Y004884D01*
X003076Y004884D02*
X003076Y004970D01*
X003076Y004884D02*
X002903Y004710D01*
X002903Y004450D01*
X002559Y004450D02*
X002386Y004450D01*
X002472Y004450D02*
X002472Y004970D01*
X002386Y004970D02*
X002559Y004970D01*
X002729Y004970D02*
X002729Y004884D01*
X002903Y004710D01*
X002217Y004537D02*
X002217Y004884D01*
X002130Y004970D01*
X001870Y004970D01*
X001870Y004450D01*
X002130Y004450D01*
X002217Y004537D01*
X014073Y002970D02*
X014073Y002450D01*
X014420Y002450D01*
X014589Y002537D02*
X014676Y002623D01*
X014936Y002623D01*
X014936Y002710D02*
X014936Y002450D01*
X014676Y002450D01*
X014589Y002537D01*
X014676Y002797D02*
X014849Y002797D01*
X014936Y002710D01*
X015105Y002797D02*
X015365Y002797D01*
X015452Y002710D01*
X015452Y002537D01*
X015365Y002450D01*
X015105Y002450D01*
X015105Y002970D01*
X025446Y014648D02*
X025370Y014725D01*
X025370Y014878D01*
X025446Y014955D01*
X025370Y015108D02*
X025830Y015108D01*
X025830Y015415D01*
X025830Y015569D02*
X025370Y015569D01*
X025370Y015876D01*
X025370Y016029D02*
X025370Y016336D01*
X025370Y016490D02*
X025370Y016797D01*
X025370Y016643D02*
X025830Y016643D01*
X025600Y016183D02*
X025600Y016029D01*
X025830Y016029D02*
X025370Y016029D01*
X025600Y015722D02*
X025600Y015569D01*
X025830Y015569D02*
X025830Y015876D01*
X025753Y014955D02*
X025830Y014878D01*
X025830Y014725D01*
X025753Y014648D01*
X025600Y014725D02*
X025600Y014878D01*
X025677Y014955D01*
X025753Y014955D01*
X025600Y014725D02*
X025523Y014648D01*
X025446Y014648D01*
X020580Y016106D02*
X020503Y016029D01*
X020580Y016106D02*
X020580Y016259D01*
X020503Y016336D01*
X020427Y016336D01*
X020350Y016259D01*
X020350Y016106D01*
X020273Y016029D01*
X020196Y016029D01*
X020120Y016106D01*
X020120Y016259D01*
X020196Y016336D01*
X020273Y016490D02*
X020120Y016643D01*
X020580Y016643D01*
X020580Y016490D02*
X020580Y016797D01*
X016580Y016720D02*
X016120Y016720D01*
X016350Y016490D01*
X016350Y016797D01*
X016427Y016336D02*
X016503Y016336D01*
X016580Y016259D01*
X016580Y016106D01*
X016503Y016029D01*
X016350Y016106D02*
X016350Y016259D01*
X016427Y016336D01*
X016196Y016336D02*
X016120Y016259D01*
X016120Y016106D01*
X016196Y016029D01*
X016273Y016029D01*
X016350Y016106D01*
X012580Y016106D02*
X012503Y016029D01*
X012580Y016106D02*
X012580Y016259D01*
X012503Y016336D01*
X012427Y016336D01*
X012350Y016259D01*
X012350Y016106D01*
X012273Y016029D01*
X012196Y016029D01*
X012120Y016106D01*
X012120Y016259D01*
X012196Y016336D01*
X012120Y016490D02*
X012120Y016797D01*
X012196Y016797D01*
X012503Y016490D01*
X012580Y016490D01*
X008580Y016259D02*
X008580Y016106D01*
X008503Y016029D01*
X008350Y016106D02*
X008350Y016259D01*
X008427Y016336D01*
X008503Y016336D01*
X008580Y016259D01*
X008503Y016490D02*
X008196Y016797D01*
X008350Y016797D02*
X008350Y016490D01*
X008196Y016490D02*
X008503Y016797D01*
X008503Y016643D02*
X008196Y016643D01*
X008196Y016336D02*
X008120Y016259D01*
X008120Y016106D01*
X008196Y016029D01*
X008273Y016029D01*
X008350Y016106D01*
X045763Y004326D02*
X045917Y004173D01*
X045840Y004019D02*
X045763Y003942D01*
X045763Y003712D01*
X046224Y003712D01*
X046224Y003942D01*
X046147Y004019D01*
X045840Y004019D01*
X045763Y004326D02*
X046224Y004326D01*
X046224Y004173D02*
X046224Y004480D01*
X051370Y004319D02*
X051600Y004089D01*
X051600Y004396D01*
X051753Y004549D02*
X051753Y004626D01*
X051830Y004626D01*
X051830Y004549D01*
X051753Y004549D01*
X051753Y004779D02*
X051830Y004779D01*
X051753Y004779D02*
X051446Y005086D01*
X051370Y005086D01*
X051370Y004779D01*
X051370Y004319D02*
X051830Y004319D01*
X051830Y005240D02*
X051370Y005240D01*
X051600Y005316D02*
X051830Y005547D01*
X051677Y005240D02*
X051370Y005547D01*
X049330Y001967D02*
X049330Y001660D01*
X049330Y001814D02*
X048870Y001814D01*
X049023Y001660D01*
X048870Y001507D02*
X048870Y001200D01*
X048870Y001353D02*
X049330Y001353D01*
D12*
X045600Y002680D02*
X027600Y002680D01*
X027600Y020680D01*
X045600Y020680D01*
X045600Y002680D01*
X047805Y003196D02*
X047805Y005164D01*
X049773Y005164D01*
X049773Y003196D01*
X047805Y003196D01*
X043293Y003806D02*
X029907Y003806D01*
X029907Y019554D01*
X043293Y019554D01*
X043293Y003806D01*
X040537Y004593D02*
X040537Y018767D01*
X030694Y018767D01*
X030694Y004593D01*
X040537Y004593D01*
X051286Y007707D02*
X051339Y007654D01*
X051445Y007654D01*
X051552Y007760D01*
X051658Y007760D01*
X051711Y007707D01*
X051711Y007601D01*
X051605Y007495D01*
X051498Y007495D01*
X051286Y007707D02*
X051286Y007813D01*
X051392Y007919D01*
X051498Y007919D01*
X051559Y008086D02*
X051877Y007767D01*
X051771Y007873D02*
X051930Y008033D01*
X051930Y008139D01*
X051824Y008245D01*
X051718Y008245D01*
X051559Y008086D01*
X051884Y008411D02*
X052203Y008093D01*
X052097Y008199D02*
X052097Y008623D01*
X052316Y008631D02*
X052316Y008737D01*
X052210Y008843D01*
X052097Y008305D02*
X052415Y008305D01*
X047267Y013657D02*
X047161Y013657D01*
X047267Y013657D02*
X047374Y013764D01*
X047374Y013870D01*
X047321Y013923D01*
X047214Y013923D01*
X047108Y013817D01*
X047002Y013817D01*
X046949Y013870D01*
X046949Y013976D01*
X047055Y014082D01*
X047161Y014082D01*
X047221Y014248D02*
X047381Y014408D01*
X047487Y014408D01*
X047593Y014301D01*
X047593Y014195D01*
X047434Y014036D01*
X047540Y013930D02*
X047221Y014248D01*
X047547Y014574D02*
X047865Y014255D01*
X047759Y014362D02*
X047759Y014786D01*
X047759Y014468D02*
X048078Y014468D01*
X026781Y012074D02*
X026781Y011286D01*
X024911Y011680D02*
X024913Y011732D01*
X024919Y011784D01*
X024929Y011835D01*
X024942Y011885D01*
X024960Y011935D01*
X024981Y011982D01*
X025005Y012028D01*
X025034Y012072D01*
X025065Y012114D01*
X025099Y012153D01*
X025136Y012190D01*
X025176Y012223D01*
X025219Y012254D01*
X025263Y012281D01*
X025309Y012305D01*
X025358Y012325D01*
X025407Y012341D01*
X025458Y012354D01*
X025509Y012363D01*
X025561Y012368D01*
X025613Y012369D01*
X025665Y012366D01*
X025717Y012359D01*
X025768Y012348D01*
X025818Y012334D01*
X025867Y012315D01*
X025914Y012293D01*
X025959Y012268D01*
X026003Y012239D01*
X026044Y012207D01*
X026083Y012172D01*
X026118Y012134D01*
X026151Y012093D01*
X026181Y012051D01*
X026207Y012006D01*
X026230Y011959D01*
X026249Y011910D01*
X026265Y011860D01*
X026277Y011810D01*
X026285Y011758D01*
X026289Y011706D01*
X026289Y011654D01*
X026285Y011602D01*
X026277Y011550D01*
X026265Y011500D01*
X026249Y011450D01*
X026230Y011401D01*
X026207Y011354D01*
X026181Y011309D01*
X026151Y011267D01*
X026118Y011226D01*
X026083Y011188D01*
X026044Y011153D01*
X026003Y011121D01*
X025959Y011092D01*
X025914Y011067D01*
X025867Y011045D01*
X025818Y011026D01*
X025768Y011012D01*
X025717Y011001D01*
X025665Y010994D01*
X025613Y010991D01*
X025561Y010992D01*
X025509Y010997D01*
X025458Y011006D01*
X025407Y011019D01*
X025358Y011035D01*
X025309Y011055D01*
X025263Y011079D01*
X025219Y011106D01*
X025176Y011137D01*
X025136Y011170D01*
X025099Y011207D01*
X025065Y011246D01*
X025034Y011288D01*
X025005Y011332D01*
X024981Y011378D01*
X024960Y011425D01*
X024942Y011475D01*
X024929Y011525D01*
X024919Y011576D01*
X024913Y011628D01*
X024911Y011680D01*
X024419Y012074D02*
X024419Y011286D01*
X023781Y011286D02*
X023781Y012074D01*
X021911Y011680D02*
X021913Y011732D01*
X021919Y011784D01*
X021929Y011835D01*
X021942Y011885D01*
X021960Y011935D01*
X021981Y011982D01*
X022005Y012028D01*
X022034Y012072D01*
X022065Y012114D01*
X022099Y012153D01*
X022136Y012190D01*
X022176Y012223D01*
X022219Y012254D01*
X022263Y012281D01*
X022309Y012305D01*
X022358Y012325D01*
X022407Y012341D01*
X022458Y012354D01*
X022509Y012363D01*
X022561Y012368D01*
X022613Y012369D01*
X022665Y012366D01*
X022717Y012359D01*
X022768Y012348D01*
X022818Y012334D01*
X022867Y012315D01*
X022914Y012293D01*
X022959Y012268D01*
X023003Y012239D01*
X023044Y012207D01*
X023083Y012172D01*
X023118Y012134D01*
X023151Y012093D01*
X023181Y012051D01*
X023207Y012006D01*
X023230Y011959D01*
X023249Y011910D01*
X023265Y011860D01*
X023277Y011810D01*
X023285Y011758D01*
X023289Y011706D01*
X023289Y011654D01*
X023285Y011602D01*
X023277Y011550D01*
X023265Y011500D01*
X023249Y011450D01*
X023230Y011401D01*
X023207Y011354D01*
X023181Y011309D01*
X023151Y011267D01*
X023118Y011226D01*
X023083Y011188D01*
X023044Y011153D01*
X023003Y011121D01*
X022959Y011092D01*
X022914Y011067D01*
X022867Y011045D01*
X022818Y011026D01*
X022768Y011012D01*
X022717Y011001D01*
X022665Y010994D01*
X022613Y010991D01*
X022561Y010992D01*
X022509Y010997D01*
X022458Y011006D01*
X022407Y011019D01*
X022358Y011035D01*
X022309Y011055D01*
X022263Y011079D01*
X022219Y011106D01*
X022176Y011137D01*
X022136Y011170D01*
X022099Y011207D01*
X022065Y011246D01*
X022034Y011288D01*
X022005Y011332D01*
X021981Y011378D01*
X021960Y011425D01*
X021942Y011475D01*
X021929Y011525D01*
X021919Y011576D01*
X021913Y011628D01*
X021911Y011680D01*
X021419Y012074D02*
X021419Y011286D01*
X020031Y011286D02*
X020031Y012074D01*
X019401Y012861D02*
X018299Y012861D01*
X017669Y012074D02*
X017669Y011286D01*
X018161Y011680D02*
X018163Y011732D01*
X018169Y011784D01*
X018179Y011835D01*
X018192Y011885D01*
X018210Y011935D01*
X018231Y011982D01*
X018255Y012028D01*
X018284Y012072D01*
X018315Y012114D01*
X018349Y012153D01*
X018386Y012190D01*
X018426Y012223D01*
X018469Y012254D01*
X018513Y012281D01*
X018559Y012305D01*
X018608Y012325D01*
X018657Y012341D01*
X018708Y012354D01*
X018759Y012363D01*
X018811Y012368D01*
X018863Y012369D01*
X018915Y012366D01*
X018967Y012359D01*
X019018Y012348D01*
X019068Y012334D01*
X019117Y012315D01*
X019164Y012293D01*
X019209Y012268D01*
X019253Y012239D01*
X019294Y012207D01*
X019333Y012172D01*
X019368Y012134D01*
X019401Y012093D01*
X019431Y012051D01*
X019457Y012006D01*
X019480Y011959D01*
X019499Y011910D01*
X019515Y011860D01*
X019527Y011810D01*
X019535Y011758D01*
X019539Y011706D01*
X019539Y011654D01*
X019535Y011602D01*
X019527Y011550D01*
X019515Y011500D01*
X019499Y011450D01*
X019480Y011401D01*
X019457Y011354D01*
X019431Y011309D01*
X019401Y011267D01*
X019368Y011226D01*
X019333Y011188D01*
X019294Y011153D01*
X019253Y011121D01*
X019209Y011092D01*
X019164Y011067D01*
X019117Y011045D01*
X019068Y011026D01*
X019018Y011012D01*
X018967Y011001D01*
X018915Y010994D01*
X018863Y010991D01*
X018811Y010992D01*
X018759Y010997D01*
X018708Y011006D01*
X018657Y011019D01*
X018608Y011035D01*
X018559Y011055D01*
X018513Y011079D01*
X018469Y011106D01*
X018426Y011137D01*
X018386Y011170D01*
X018349Y011207D01*
X018315Y011246D01*
X018284Y011288D01*
X018255Y011332D01*
X018231Y011378D01*
X018210Y011425D01*
X018192Y011475D01*
X018179Y011525D01*
X018169Y011576D01*
X018163Y011628D01*
X018161Y011680D01*
X016031Y012074D02*
X016031Y011286D01*
X014161Y011680D02*
X014163Y011732D01*
X014169Y011784D01*
X014179Y011835D01*
X014192Y011885D01*
X014210Y011935D01*
X014231Y011982D01*
X014255Y012028D01*
X014284Y012072D01*
X014315Y012114D01*
X014349Y012153D01*
X014386Y012190D01*
X014426Y012223D01*
X014469Y012254D01*
X014513Y012281D01*
X014559Y012305D01*
X014608Y012325D01*
X014657Y012341D01*
X014708Y012354D01*
X014759Y012363D01*
X014811Y012368D01*
X014863Y012369D01*
X014915Y012366D01*
X014967Y012359D01*
X015018Y012348D01*
X015068Y012334D01*
X015117Y012315D01*
X015164Y012293D01*
X015209Y012268D01*
X015253Y012239D01*
X015294Y012207D01*
X015333Y012172D01*
X015368Y012134D01*
X015401Y012093D01*
X015431Y012051D01*
X015457Y012006D01*
X015480Y011959D01*
X015499Y011910D01*
X015515Y011860D01*
X015527Y011810D01*
X015535Y011758D01*
X015539Y011706D01*
X015539Y011654D01*
X015535Y011602D01*
X015527Y011550D01*
X015515Y011500D01*
X015499Y011450D01*
X015480Y011401D01*
X015457Y011354D01*
X015431Y011309D01*
X015401Y011267D01*
X015368Y011226D01*
X015333Y011188D01*
X015294Y011153D01*
X015253Y011121D01*
X015209Y011092D01*
X015164Y011067D01*
X015117Y011045D01*
X015068Y011026D01*
X015018Y011012D01*
X014967Y011001D01*
X014915Y010994D01*
X014863Y010991D01*
X014811Y010992D01*
X014759Y010997D01*
X014708Y011006D01*
X014657Y011019D01*
X014608Y011035D01*
X014559Y011055D01*
X014513Y011079D01*
X014469Y011106D01*
X014426Y011137D01*
X014386Y011170D01*
X014349Y011207D01*
X014315Y011246D01*
X014284Y011288D01*
X014255Y011332D01*
X014231Y011378D01*
X014210Y011425D01*
X014192Y011475D01*
X014179Y011525D01*
X014169Y011576D01*
X014163Y011628D01*
X014161Y011680D01*
X013669Y012074D02*
X013669Y011286D01*
X012031Y011286D02*
X012031Y012074D01*
X010161Y011680D02*
X010163Y011732D01*
X010169Y011784D01*
X010179Y011835D01*
X010192Y011885D01*
X010210Y011935D01*
X010231Y011982D01*
X010255Y012028D01*
X010284Y012072D01*
X010315Y012114D01*
X010349Y012153D01*
X010386Y012190D01*
X010426Y012223D01*
X010469Y012254D01*
X010513Y012281D01*
X010559Y012305D01*
X010608Y012325D01*
X010657Y012341D01*
X010708Y012354D01*
X010759Y012363D01*
X010811Y012368D01*
X010863Y012369D01*
X010915Y012366D01*
X010967Y012359D01*
X011018Y012348D01*
X011068Y012334D01*
X011117Y012315D01*
X011164Y012293D01*
X011209Y012268D01*
X011253Y012239D01*
X011294Y012207D01*
X011333Y012172D01*
X011368Y012134D01*
X011401Y012093D01*
X011431Y012051D01*
X011457Y012006D01*
X011480Y011959D01*
X011499Y011910D01*
X011515Y011860D01*
X011527Y011810D01*
X011535Y011758D01*
X011539Y011706D01*
X011539Y011654D01*
X011535Y011602D01*
X011527Y011550D01*
X011515Y011500D01*
X011499Y011450D01*
X011480Y011401D01*
X011457Y011354D01*
X011431Y011309D01*
X011401Y011267D01*
X011368Y011226D01*
X011333Y011188D01*
X011294Y011153D01*
X011253Y011121D01*
X011209Y011092D01*
X011164Y011067D01*
X011117Y011045D01*
X011068Y011026D01*
X011018Y011012D01*
X010967Y011001D01*
X010915Y010994D01*
X010863Y010991D01*
X010811Y010992D01*
X010759Y010997D01*
X010708Y011006D01*
X010657Y011019D01*
X010608Y011035D01*
X010559Y011055D01*
X010513Y011079D01*
X010469Y011106D01*
X010426Y011137D01*
X010386Y011170D01*
X010349Y011207D01*
X010315Y011246D01*
X010284Y011288D01*
X010255Y011332D01*
X010231Y011378D01*
X010210Y011425D01*
X010192Y011475D01*
X010179Y011525D01*
X010169Y011576D01*
X010163Y011628D01*
X010161Y011680D01*
X009669Y012074D02*
X009669Y011286D01*
X008031Y011286D02*
X008031Y012074D01*
X006161Y011680D02*
X006163Y011732D01*
X006169Y011784D01*
X006179Y011835D01*
X006192Y011885D01*
X006210Y011935D01*
X006231Y011982D01*
X006255Y012028D01*
X006284Y012072D01*
X006315Y012114D01*
X006349Y012153D01*
X006386Y012190D01*
X006426Y012223D01*
X006469Y012254D01*
X006513Y012281D01*
X006559Y012305D01*
X006608Y012325D01*
X006657Y012341D01*
X006708Y012354D01*
X006759Y012363D01*
X006811Y012368D01*
X006863Y012369D01*
X006915Y012366D01*
X006967Y012359D01*
X007018Y012348D01*
X007068Y012334D01*
X007117Y012315D01*
X007164Y012293D01*
X007209Y012268D01*
X007253Y012239D01*
X007294Y012207D01*
X007333Y012172D01*
X007368Y012134D01*
X007401Y012093D01*
X007431Y012051D01*
X007457Y012006D01*
X007480Y011959D01*
X007499Y011910D01*
X007515Y011860D01*
X007527Y011810D01*
X007535Y011758D01*
X007539Y011706D01*
X007539Y011654D01*
X007535Y011602D01*
X007527Y011550D01*
X007515Y011500D01*
X007499Y011450D01*
X007480Y011401D01*
X007457Y011354D01*
X007431Y011309D01*
X007401Y011267D01*
X007368Y011226D01*
X007333Y011188D01*
X007294Y011153D01*
X007253Y011121D01*
X007209Y011092D01*
X007164Y011067D01*
X007117Y011045D01*
X007068Y011026D01*
X007018Y011012D01*
X006967Y011001D01*
X006915Y010994D01*
X006863Y010991D01*
X006811Y010992D01*
X006759Y010997D01*
X006708Y011006D01*
X006657Y011019D01*
X006608Y011035D01*
X006559Y011055D01*
X006513Y011079D01*
X006469Y011106D01*
X006426Y011137D01*
X006386Y011170D01*
X006349Y011207D01*
X006315Y011246D01*
X006284Y011288D01*
X006255Y011332D01*
X006231Y011378D01*
X006210Y011425D01*
X006192Y011475D01*
X006179Y011525D01*
X006169Y011576D01*
X006163Y011628D01*
X006161Y011680D01*
X005669Y012074D02*
X005669Y011286D01*
X006299Y010499D02*
X007401Y010499D01*
X010299Y010499D02*
X011401Y010499D01*
X014299Y010499D02*
X015401Y010499D01*
X018299Y010499D02*
X019401Y010499D01*
X022049Y010499D02*
X023151Y010499D01*
X025049Y010499D02*
X026151Y010499D01*
X024651Y008861D02*
X023549Y008861D01*
X022919Y008074D02*
X022919Y007286D01*
X023411Y007680D02*
X023413Y007732D01*
X023419Y007784D01*
X023429Y007835D01*
X023442Y007885D01*
X023460Y007935D01*
X023481Y007982D01*
X023505Y008028D01*
X023534Y008072D01*
X023565Y008114D01*
X023599Y008153D01*
X023636Y008190D01*
X023676Y008223D01*
X023719Y008254D01*
X023763Y008281D01*
X023809Y008305D01*
X023858Y008325D01*
X023907Y008341D01*
X023958Y008354D01*
X024009Y008363D01*
X024061Y008368D01*
X024113Y008369D01*
X024165Y008366D01*
X024217Y008359D01*
X024268Y008348D01*
X024318Y008334D01*
X024367Y008315D01*
X024414Y008293D01*
X024459Y008268D01*
X024503Y008239D01*
X024544Y008207D01*
X024583Y008172D01*
X024618Y008134D01*
X024651Y008093D01*
X024681Y008051D01*
X024707Y008006D01*
X024730Y007959D01*
X024749Y007910D01*
X024765Y007860D01*
X024777Y007810D01*
X024785Y007758D01*
X024789Y007706D01*
X024789Y007654D01*
X024785Y007602D01*
X024777Y007550D01*
X024765Y007500D01*
X024749Y007450D01*
X024730Y007401D01*
X024707Y007354D01*
X024681Y007309D01*
X024651Y007267D01*
X024618Y007226D01*
X024583Y007188D01*
X024544Y007153D01*
X024503Y007121D01*
X024459Y007092D01*
X024414Y007067D01*
X024367Y007045D01*
X024318Y007026D01*
X024268Y007012D01*
X024217Y007001D01*
X024165Y006994D01*
X024113Y006991D01*
X024061Y006992D01*
X024009Y006997D01*
X023958Y007006D01*
X023907Y007019D01*
X023858Y007035D01*
X023809Y007055D01*
X023763Y007079D01*
X023719Y007106D01*
X023676Y007137D01*
X023636Y007170D01*
X023599Y007207D01*
X023565Y007246D01*
X023534Y007288D01*
X023505Y007332D01*
X023481Y007378D01*
X023460Y007425D01*
X023442Y007475D01*
X023429Y007525D01*
X023419Y007576D01*
X023413Y007628D01*
X023411Y007680D01*
X025281Y008074D02*
X025281Y007286D01*
X024651Y006499D02*
X023549Y006499D01*
X020031Y007286D02*
X020031Y008074D01*
X019401Y008861D02*
X018299Y008861D01*
X017669Y008074D02*
X017669Y007286D01*
X018161Y007680D02*
X018163Y007732D01*
X018169Y007784D01*
X018179Y007835D01*
X018192Y007885D01*
X018210Y007935D01*
X018231Y007982D01*
X018255Y008028D01*
X018284Y008072D01*
X018315Y008114D01*
X018349Y008153D01*
X018386Y008190D01*
X018426Y008223D01*
X018469Y008254D01*
X018513Y008281D01*
X018559Y008305D01*
X018608Y008325D01*
X018657Y008341D01*
X018708Y008354D01*
X018759Y008363D01*
X018811Y008368D01*
X018863Y008369D01*
X018915Y008366D01*
X018967Y008359D01*
X019018Y008348D01*
X019068Y008334D01*
X019117Y008315D01*
X019164Y008293D01*
X019209Y008268D01*
X019253Y008239D01*
X019294Y008207D01*
X019333Y008172D01*
X019368Y008134D01*
X019401Y008093D01*
X019431Y008051D01*
X019457Y008006D01*
X019480Y007959D01*
X019499Y007910D01*
X019515Y007860D01*
X019527Y007810D01*
X019535Y007758D01*
X019539Y007706D01*
X019539Y007654D01*
X019535Y007602D01*
X019527Y007550D01*
X019515Y007500D01*
X019499Y007450D01*
X019480Y007401D01*
X019457Y007354D01*
X019431Y007309D01*
X019401Y007267D01*
X019368Y007226D01*
X019333Y007188D01*
X019294Y007153D01*
X019253Y007121D01*
X019209Y007092D01*
X019164Y007067D01*
X019117Y007045D01*
X019068Y007026D01*
X019018Y007012D01*
X018967Y007001D01*
X018915Y006994D01*
X018863Y006991D01*
X018811Y006992D01*
X018759Y006997D01*
X018708Y007006D01*
X018657Y007019D01*
X018608Y007035D01*
X018559Y007055D01*
X018513Y007079D01*
X018469Y007106D01*
X018426Y007137D01*
X018386Y007170D01*
X018349Y007207D01*
X018315Y007246D01*
X018284Y007288D01*
X018255Y007332D01*
X018231Y007378D01*
X018210Y007425D01*
X018192Y007475D01*
X018179Y007525D01*
X018169Y007576D01*
X018163Y007628D01*
X018161Y007680D01*
X016031Y008074D02*
X016031Y007286D01*
X014161Y007680D02*
X014163Y007732D01*
X014169Y007784D01*
X014179Y007835D01*
X014192Y007885D01*
X014210Y007935D01*
X014231Y007982D01*
X014255Y008028D01*
X014284Y008072D01*
X014315Y008114D01*
X014349Y008153D01*
X014386Y008190D01*
X014426Y008223D01*
X014469Y008254D01*
X014513Y008281D01*
X014559Y008305D01*
X014608Y008325D01*
X014657Y008341D01*
X014708Y008354D01*
X014759Y008363D01*
X014811Y008368D01*
X014863Y008369D01*
X014915Y008366D01*
X014967Y008359D01*
X015018Y008348D01*
X015068Y008334D01*
X015117Y008315D01*
X015164Y008293D01*
X015209Y008268D01*
X015253Y008239D01*
X015294Y008207D01*
X015333Y008172D01*
X015368Y008134D01*
X015401Y008093D01*
X015431Y008051D01*
X015457Y008006D01*
X015480Y007959D01*
X015499Y007910D01*
X015515Y007860D01*
X015527Y007810D01*
X015535Y007758D01*
X015539Y007706D01*
X015539Y007654D01*
X015535Y007602D01*
X015527Y007550D01*
X015515Y007500D01*
X015499Y007450D01*
X015480Y007401D01*
X015457Y007354D01*
X015431Y007309D01*
X015401Y007267D01*
X015368Y007226D01*
X015333Y007188D01*
X015294Y007153D01*
X015253Y007121D01*
X015209Y007092D01*
X015164Y007067D01*
X015117Y007045D01*
X015068Y007026D01*
X015018Y007012D01*
X014967Y007001D01*
X014915Y006994D01*
X014863Y006991D01*
X014811Y006992D01*
X014759Y006997D01*
X014708Y007006D01*
X014657Y007019D01*
X014608Y007035D01*
X014559Y007055D01*
X014513Y007079D01*
X014469Y007106D01*
X014426Y007137D01*
X014386Y007170D01*
X014349Y007207D01*
X014315Y007246D01*
X014284Y007288D01*
X014255Y007332D01*
X014231Y007378D01*
X014210Y007425D01*
X014192Y007475D01*
X014179Y007525D01*
X014169Y007576D01*
X014163Y007628D01*
X014161Y007680D01*
X013669Y008074D02*
X013669Y007286D01*
X012031Y007286D02*
X012031Y008074D01*
X010161Y007680D02*
X010163Y007732D01*
X010169Y007784D01*
X010179Y007835D01*
X010192Y007885D01*
X010210Y007935D01*
X010231Y007982D01*
X010255Y008028D01*
X010284Y008072D01*
X010315Y008114D01*
X010349Y008153D01*
X010386Y008190D01*
X010426Y008223D01*
X010469Y008254D01*
X010513Y008281D01*
X010559Y008305D01*
X010608Y008325D01*
X010657Y008341D01*
X010708Y008354D01*
X010759Y008363D01*
X010811Y008368D01*
X010863Y008369D01*
X010915Y008366D01*
X010967Y008359D01*
X011018Y008348D01*
X011068Y008334D01*
X011117Y008315D01*
X011164Y008293D01*
X011209Y008268D01*
X011253Y008239D01*
X011294Y008207D01*
X011333Y008172D01*
X011368Y008134D01*
X011401Y008093D01*
X011431Y008051D01*
X011457Y008006D01*
X011480Y007959D01*
X011499Y007910D01*
X011515Y007860D01*
X011527Y007810D01*
X011535Y007758D01*
X011539Y007706D01*
X011539Y007654D01*
X011535Y007602D01*
X011527Y007550D01*
X011515Y007500D01*
X011499Y007450D01*
X011480Y007401D01*
X011457Y007354D01*
X011431Y007309D01*
X011401Y007267D01*
X011368Y007226D01*
X011333Y007188D01*
X011294Y007153D01*
X011253Y007121D01*
X011209Y007092D01*
X011164Y007067D01*
X011117Y007045D01*
X011068Y007026D01*
X011018Y007012D01*
X010967Y007001D01*
X010915Y006994D01*
X010863Y006991D01*
X010811Y006992D01*
X010759Y006997D01*
X010708Y007006D01*
X010657Y007019D01*
X010608Y007035D01*
X010559Y007055D01*
X010513Y007079D01*
X010469Y007106D01*
X010426Y007137D01*
X010386Y007170D01*
X010349Y007207D01*
X010315Y007246D01*
X010284Y007288D01*
X010255Y007332D01*
X010231Y007378D01*
X010210Y007425D01*
X010192Y007475D01*
X010179Y007525D01*
X010169Y007576D01*
X010163Y007628D01*
X010161Y007680D01*
X009669Y008074D02*
X009669Y007286D01*
X008031Y007286D02*
X008031Y008074D01*
X006161Y007680D02*
X006163Y007732D01*
X006169Y007784D01*
X006179Y007835D01*
X006192Y007885D01*
X006210Y007935D01*
X006231Y007982D01*
X006255Y008028D01*
X006284Y008072D01*
X006315Y008114D01*
X006349Y008153D01*
X006386Y008190D01*
X006426Y008223D01*
X006469Y008254D01*
X006513Y008281D01*
X006559Y008305D01*
X006608Y008325D01*
X006657Y008341D01*
X006708Y008354D01*
X006759Y008363D01*
X006811Y008368D01*
X006863Y008369D01*
X006915Y008366D01*
X006967Y008359D01*
X007018Y008348D01*
X007068Y008334D01*
X007117Y008315D01*
X007164Y008293D01*
X007209Y008268D01*
X007253Y008239D01*
X007294Y008207D01*
X007333Y008172D01*
X007368Y008134D01*
X007401Y008093D01*
X007431Y008051D01*
X007457Y008006D01*
X007480Y007959D01*
X007499Y007910D01*
X007515Y007860D01*
X007527Y007810D01*
X007535Y007758D01*
X007539Y007706D01*
X007539Y007654D01*
X007535Y007602D01*
X007527Y007550D01*
X007515Y007500D01*
X007499Y007450D01*
X007480Y007401D01*
X007457Y007354D01*
X007431Y007309D01*
X007401Y007267D01*
X007368Y007226D01*
X007333Y007188D01*
X007294Y007153D01*
X007253Y007121D01*
X007209Y007092D01*
X007164Y007067D01*
X007117Y007045D01*
X007068Y007026D01*
X007018Y007012D01*
X006967Y007001D01*
X006915Y006994D01*
X006863Y006991D01*
X006811Y006992D01*
X006759Y006997D01*
X006708Y007006D01*
X006657Y007019D01*
X006608Y007035D01*
X006559Y007055D01*
X006513Y007079D01*
X006469Y007106D01*
X006426Y007137D01*
X006386Y007170D01*
X006349Y007207D01*
X006315Y007246D01*
X006284Y007288D01*
X006255Y007332D01*
X006231Y007378D01*
X006210Y007425D01*
X006192Y007475D01*
X006179Y007525D01*
X006169Y007576D01*
X006163Y007628D01*
X006161Y007680D01*
X005669Y008074D02*
X005669Y007286D01*
X006299Y006499D02*
X007401Y006499D01*
X010299Y006499D02*
X011401Y006499D01*
X014299Y006499D02*
X015401Y006499D01*
X018299Y006499D02*
X019401Y006499D01*
X015401Y008861D02*
X014299Y008861D01*
X011401Y008861D02*
X010299Y008861D01*
X007401Y008861D02*
X006299Y008861D01*
X006299Y012861D02*
X007401Y012861D01*
X010299Y012861D02*
X011401Y012861D01*
X014299Y012861D02*
X015401Y012861D01*
X015401Y014499D02*
X014299Y014499D01*
X013669Y015286D02*
X013669Y016074D01*
X014161Y015680D02*
X014163Y015732D01*
X014169Y015784D01*
X014179Y015835D01*
X014192Y015885D01*
X014210Y015935D01*
X014231Y015982D01*
X014255Y016028D01*
X014284Y016072D01*
X014315Y016114D01*
X014349Y016153D01*
X014386Y016190D01*
X014426Y016223D01*
X014469Y016254D01*
X014513Y016281D01*
X014559Y016305D01*
X014608Y016325D01*
X014657Y016341D01*
X014708Y016354D01*
X014759Y016363D01*
X014811Y016368D01*
X014863Y016369D01*
X014915Y016366D01*
X014967Y016359D01*
X015018Y016348D01*
X015068Y016334D01*
X015117Y016315D01*
X015164Y016293D01*
X015209Y016268D01*
X015253Y016239D01*
X015294Y016207D01*
X015333Y016172D01*
X015368Y016134D01*
X015401Y016093D01*
X015431Y016051D01*
X015457Y016006D01*
X015480Y015959D01*
X015499Y015910D01*
X015515Y015860D01*
X015527Y015810D01*
X015535Y015758D01*
X015539Y015706D01*
X015539Y015654D01*
X015535Y015602D01*
X015527Y015550D01*
X015515Y015500D01*
X015499Y015450D01*
X015480Y015401D01*
X015457Y015354D01*
X015431Y015309D01*
X015401Y015267D01*
X015368Y015226D01*
X015333Y015188D01*
X015294Y015153D01*
X015253Y015121D01*
X015209Y015092D01*
X015164Y015067D01*
X015117Y015045D01*
X015068Y015026D01*
X015018Y015012D01*
X014967Y015001D01*
X014915Y014994D01*
X014863Y014991D01*
X014811Y014992D01*
X014759Y014997D01*
X014708Y015006D01*
X014657Y015019D01*
X014608Y015035D01*
X014559Y015055D01*
X014513Y015079D01*
X014469Y015106D01*
X014426Y015137D01*
X014386Y015170D01*
X014349Y015207D01*
X014315Y015246D01*
X014284Y015288D01*
X014255Y015332D01*
X014231Y015378D01*
X014210Y015425D01*
X014192Y015475D01*
X014179Y015525D01*
X014169Y015576D01*
X014163Y015628D01*
X014161Y015680D01*
X016031Y016074D02*
X016031Y015286D01*
X017669Y015286D02*
X017669Y016074D01*
X018161Y015680D02*
X018163Y015732D01*
X018169Y015784D01*
X018179Y015835D01*
X018192Y015885D01*
X018210Y015935D01*
X018231Y015982D01*
X018255Y016028D01*
X018284Y016072D01*
X018315Y016114D01*
X018349Y016153D01*
X018386Y016190D01*
X018426Y016223D01*
X018469Y016254D01*
X018513Y016281D01*
X018559Y016305D01*
X018608Y016325D01*
X018657Y016341D01*
X018708Y016354D01*
X018759Y016363D01*
X018811Y016368D01*
X018863Y016369D01*
X018915Y016366D01*
X018967Y016359D01*
X019018Y016348D01*
X019068Y016334D01*
X019117Y016315D01*
X019164Y016293D01*
X019209Y016268D01*
X019253Y016239D01*
X019294Y016207D01*
X019333Y016172D01*
X019368Y016134D01*
X019401Y016093D01*
X019431Y016051D01*
X019457Y016006D01*
X019480Y015959D01*
X019499Y015910D01*
X019515Y015860D01*
X019527Y015810D01*
X019535Y015758D01*
X019539Y015706D01*
X019539Y015654D01*
X019535Y015602D01*
X019527Y015550D01*
X019515Y015500D01*
X019499Y015450D01*
X019480Y015401D01*
X019457Y015354D01*
X019431Y015309D01*
X019401Y015267D01*
X019368Y015226D01*
X019333Y015188D01*
X019294Y015153D01*
X019253Y015121D01*
X019209Y015092D01*
X019164Y015067D01*
X019117Y015045D01*
X019068Y015026D01*
X019018Y015012D01*
X018967Y015001D01*
X018915Y014994D01*
X018863Y014991D01*
X018811Y014992D01*
X018759Y014997D01*
X018708Y015006D01*
X018657Y015019D01*
X018608Y015035D01*
X018559Y015055D01*
X018513Y015079D01*
X018469Y015106D01*
X018426Y015137D01*
X018386Y015170D01*
X018349Y015207D01*
X018315Y015246D01*
X018284Y015288D01*
X018255Y015332D01*
X018231Y015378D01*
X018210Y015425D01*
X018192Y015475D01*
X018179Y015525D01*
X018169Y015576D01*
X018163Y015628D01*
X018161Y015680D01*
X020031Y016074D02*
X020031Y015286D01*
X019401Y014499D02*
X018299Y014499D01*
X022049Y012861D02*
X023151Y012861D01*
X025049Y012861D02*
X026151Y012861D01*
X024651Y014499D02*
X023549Y014499D01*
X022919Y015286D02*
X022919Y016074D01*
X023411Y015680D02*
X023413Y015732D01*
X023419Y015784D01*
X023429Y015835D01*
X023442Y015885D01*
X023460Y015935D01*
X023481Y015982D01*
X023505Y016028D01*
X023534Y016072D01*
X023565Y016114D01*
X023599Y016153D01*
X023636Y016190D01*
X023676Y016223D01*
X023719Y016254D01*
X023763Y016281D01*
X023809Y016305D01*
X023858Y016325D01*
X023907Y016341D01*
X023958Y016354D01*
X024009Y016363D01*
X024061Y016368D01*
X024113Y016369D01*
X024165Y016366D01*
X024217Y016359D01*
X024268Y016348D01*
X024318Y016334D01*
X024367Y016315D01*
X024414Y016293D01*
X024459Y016268D01*
X024503Y016239D01*
X024544Y016207D01*
X024583Y016172D01*
X024618Y016134D01*
X024651Y016093D01*
X024681Y016051D01*
X024707Y016006D01*
X024730Y015959D01*
X024749Y015910D01*
X024765Y015860D01*
X024777Y015810D01*
X024785Y015758D01*
X024789Y015706D01*
X024789Y015654D01*
X024785Y015602D01*
X024777Y015550D01*
X024765Y015500D01*
X024749Y015450D01*
X024730Y015401D01*
X024707Y015354D01*
X024681Y015309D01*
X024651Y015267D01*
X024618Y015226D01*
X024583Y015188D01*
X024544Y015153D01*
X024503Y015121D01*
X024459Y015092D01*
X024414Y015067D01*
X024367Y015045D01*
X024318Y015026D01*
X024268Y015012D01*
X024217Y015001D01*
X024165Y014994D01*
X024113Y014991D01*
X024061Y014992D01*
X024009Y014997D01*
X023958Y015006D01*
X023907Y015019D01*
X023858Y015035D01*
X023809Y015055D01*
X023763Y015079D01*
X023719Y015106D01*
X023676Y015137D01*
X023636Y015170D01*
X023599Y015207D01*
X023565Y015246D01*
X023534Y015288D01*
X023505Y015332D01*
X023481Y015378D01*
X023460Y015425D01*
X023442Y015475D01*
X023429Y015525D01*
X023419Y015576D01*
X023413Y015628D01*
X023411Y015680D01*
X025281Y016074D02*
X025281Y015286D01*
X024651Y016861D02*
X023549Y016861D01*
X019401Y016861D02*
X018299Y016861D01*
X015401Y016861D02*
X014299Y016861D01*
X012031Y016074D02*
X012031Y015286D01*
X010161Y015680D02*
X010163Y015732D01*
X010169Y015784D01*
X010179Y015835D01*
X010192Y015885D01*
X010210Y015935D01*
X010231Y015982D01*
X010255Y016028D01*
X010284Y016072D01*
X010315Y016114D01*
X010349Y016153D01*
X010386Y016190D01*
X010426Y016223D01*
X010469Y016254D01*
X010513Y016281D01*
X010559Y016305D01*
X010608Y016325D01*
X010657Y016341D01*
X010708Y016354D01*
X010759Y016363D01*
X010811Y016368D01*
X010863Y016369D01*
X010915Y016366D01*
X010967Y016359D01*
X011018Y016348D01*
X011068Y016334D01*
X011117Y016315D01*
X011164Y016293D01*
X011209Y016268D01*
X011253Y016239D01*
X011294Y016207D01*
X011333Y016172D01*
X011368Y016134D01*
X011401Y016093D01*
X011431Y016051D01*
X011457Y016006D01*
X011480Y015959D01*
X011499Y015910D01*
X011515Y015860D01*
X011527Y015810D01*
X011535Y015758D01*
X011539Y015706D01*
X011539Y015654D01*
X011535Y015602D01*
X011527Y015550D01*
X011515Y015500D01*
X011499Y015450D01*
X011480Y015401D01*
X011457Y015354D01*
X011431Y015309D01*
X011401Y015267D01*
X011368Y015226D01*
X011333Y015188D01*
X011294Y015153D01*
X011253Y015121D01*
X011209Y015092D01*
X011164Y015067D01*
X011117Y015045D01*
X011068Y015026D01*
X011018Y015012D01*
X010967Y015001D01*
X010915Y014994D01*
X010863Y014991D01*
X010811Y014992D01*
X010759Y014997D01*
X010708Y015006D01*
X010657Y015019D01*
X010608Y015035D01*
X010559Y015055D01*
X010513Y015079D01*
X010469Y015106D01*
X010426Y015137D01*
X010386Y015170D01*
X010349Y015207D01*
X010315Y015246D01*
X010284Y015288D01*
X010255Y015332D01*
X010231Y015378D01*
X010210Y015425D01*
X010192Y015475D01*
X010179Y015525D01*
X010169Y015576D01*
X010163Y015628D01*
X010161Y015680D01*
X009669Y016074D02*
X009669Y015286D01*
X008031Y015286D02*
X008031Y016074D01*
X006161Y015680D02*
X006163Y015732D01*
X006169Y015784D01*
X006179Y015835D01*
X006192Y015885D01*
X006210Y015935D01*
X006231Y015982D01*
X006255Y016028D01*
X006284Y016072D01*
X006315Y016114D01*
X006349Y016153D01*
X006386Y016190D01*
X006426Y016223D01*
X006469Y016254D01*
X006513Y016281D01*
X006559Y016305D01*
X006608Y016325D01*
X006657Y016341D01*
X006708Y016354D01*
X006759Y016363D01*
X006811Y016368D01*
X006863Y016369D01*
X006915Y016366D01*
X006967Y016359D01*
X007018Y016348D01*
X007068Y016334D01*
X007117Y016315D01*
X007164Y016293D01*
X007209Y016268D01*
X007253Y016239D01*
X007294Y016207D01*
X007333Y016172D01*
X007368Y016134D01*
X007401Y016093D01*
X007431Y016051D01*
X007457Y016006D01*
X007480Y015959D01*
X007499Y015910D01*
X007515Y015860D01*
X007527Y015810D01*
X007535Y015758D01*
X007539Y015706D01*
X007539Y015654D01*
X007535Y015602D01*
X007527Y015550D01*
X007515Y015500D01*
X007499Y015450D01*
X007480Y015401D01*
X007457Y015354D01*
X007431Y015309D01*
X007401Y015267D01*
X007368Y015226D01*
X007333Y015188D01*
X007294Y015153D01*
X007253Y015121D01*
X007209Y015092D01*
X007164Y015067D01*
X007117Y015045D01*
X007068Y015026D01*
X007018Y015012D01*
X006967Y015001D01*
X006915Y014994D01*
X006863Y014991D01*
X006811Y014992D01*
X006759Y014997D01*
X006708Y015006D01*
X006657Y015019D01*
X006608Y015035D01*
X006559Y015055D01*
X006513Y015079D01*
X006469Y015106D01*
X006426Y015137D01*
X006386Y015170D01*
X006349Y015207D01*
X006315Y015246D01*
X006284Y015288D01*
X006255Y015332D01*
X006231Y015378D01*
X006210Y015425D01*
X006192Y015475D01*
X006179Y015525D01*
X006169Y015576D01*
X006163Y015628D01*
X006161Y015680D01*
X005669Y016074D02*
X005669Y015286D01*
X006299Y014499D02*
X007401Y014499D01*
X010299Y014499D02*
X011401Y014499D01*
X011401Y016861D02*
X010299Y016861D01*
X007401Y016861D02*
X006299Y016861D01*
D13*
X045716Y014503D02*
X045716Y014150D01*
X046070Y013796D01*
X046423Y013796D01*
X046777Y014150D01*
X046777Y014503D01*
X046423Y014857D01*
X046070Y014857D01*
X045716Y014503D01*
X046423Y014857D02*
X046423Y015210D01*
X046777Y015564D01*
X047130Y015564D01*
X047484Y015210D01*
X047484Y014857D01*
X047130Y014503D01*
X046777Y014503D01*
X050350Y015180D02*
X051350Y015180D01*
X051350Y016180D01*
X051350Y017180D01*
X051350Y018180D01*
X051350Y019180D01*
X051350Y020180D01*
X051350Y021180D01*
X050350Y021180D01*
X050350Y020180D01*
X050350Y019180D01*
X050350Y018180D01*
X050350Y017180D01*
X050350Y016180D01*
X050350Y015180D01*
X050350Y016180D02*
X051350Y016180D01*
X051350Y017180D02*
X050350Y017180D01*
X050350Y018180D02*
X051350Y018180D01*
X051350Y019180D02*
X050350Y019180D01*
X050350Y020180D02*
X051350Y020180D01*
X051277Y009564D02*
X050923Y009210D01*
X050923Y008857D01*
X050570Y008857D01*
X050216Y008503D01*
X050216Y008150D01*
X050570Y007796D01*
X050923Y007796D01*
X051277Y008150D01*
X051277Y008503D01*
X050923Y008857D01*
X051277Y008503D02*
X051630Y008503D01*
X051984Y008857D01*
X051984Y009210D01*
X051630Y009564D01*
X051277Y009564D01*
D14*
X015519Y020120D02*
X015181Y020120D01*
X015031Y020574D02*
X015031Y020786D01*
X015181Y021240D02*
X015519Y021240D01*
X009396Y021492D02*
X009396Y020665D01*
X009120Y019681D02*
X008766Y019681D01*
X007034Y019681D02*
X006680Y019681D01*
X006404Y020665D02*
X006404Y021492D01*
X000958Y011680D02*
X000960Y011747D01*
X000966Y011814D01*
X000976Y011880D01*
X000989Y011946D01*
X001007Y012011D01*
X001028Y012074D01*
X001053Y012136D01*
X001082Y012197D01*
X001114Y012256D01*
X001149Y012313D01*
X001188Y012367D01*
X001230Y012420D01*
X001275Y012470D01*
X001323Y012517D01*
X001373Y012561D01*
X001426Y012602D01*
X001481Y012640D01*
X001539Y012675D01*
X001598Y012706D01*
X001659Y012733D01*
X001722Y012758D01*
X001786Y012778D01*
X001851Y012794D01*
X001916Y012807D01*
X001983Y012816D01*
X002050Y012821D01*
X002117Y012822D01*
X002184Y012819D01*
X002250Y012812D01*
X002317Y012801D01*
X002382Y012787D01*
X002447Y012768D01*
X002510Y012746D01*
X002572Y012720D01*
X002632Y012691D01*
X002690Y012658D01*
X002747Y012621D01*
X002801Y012582D01*
X002852Y012539D01*
X002902Y012493D01*
X002948Y012445D01*
X002991Y012394D01*
X003032Y012340D01*
X003069Y012285D01*
X003103Y012227D01*
X003133Y012167D01*
X003160Y012105D01*
X003183Y012042D01*
X003202Y011978D01*
X003218Y011913D01*
X003230Y011847D01*
X003238Y011780D01*
X003242Y011714D01*
X003242Y011646D01*
X003238Y011580D01*
X003230Y011513D01*
X003218Y011447D01*
X003202Y011382D01*
X003183Y011318D01*
X003160Y011255D01*
X003133Y011193D01*
X003103Y011133D01*
X003069Y011075D01*
X003032Y011020D01*
X002991Y010966D01*
X002948Y010915D01*
X002902Y010867D01*
X002852Y010821D01*
X002801Y010778D01*
X002747Y010739D01*
X002690Y010702D01*
X002632Y010669D01*
X002572Y010640D01*
X002510Y010614D01*
X002447Y010592D01*
X002382Y010573D01*
X002317Y010559D01*
X002250Y010548D01*
X002184Y010541D01*
X002117Y010538D01*
X002050Y010539D01*
X001983Y010544D01*
X001916Y010553D01*
X001851Y010566D01*
X001786Y010582D01*
X001722Y010602D01*
X001659Y010627D01*
X001598Y010654D01*
X001539Y010685D01*
X001481Y010720D01*
X001426Y010758D01*
X001373Y010799D01*
X001323Y010843D01*
X001275Y010890D01*
X001230Y010940D01*
X001188Y010993D01*
X001149Y011047D01*
X001114Y011104D01*
X001082Y011163D01*
X001053Y011224D01*
X001028Y011286D01*
X001007Y011349D01*
X000989Y011414D01*
X000976Y011480D01*
X000966Y011546D01*
X000960Y011613D01*
X000958Y011680D01*
D15*
X007905Y020570D02*
X008030Y020570D01*
X008055Y020595D01*
X008055Y020645D01*
X008030Y020670D01*
X007905Y020670D01*
X007930Y020717D02*
X007955Y020717D01*
X007980Y020742D01*
X007980Y020792D01*
X008005Y020817D01*
X008030Y020817D01*
X008055Y020792D01*
X008055Y020742D01*
X008030Y020717D01*
X007930Y020717D02*
X007905Y020742D01*
X007905Y020792D01*
X007930Y020817D01*
X007905Y020864D02*
X007905Y020939D01*
X007930Y020964D01*
X007955Y020964D01*
X007980Y020939D01*
X007980Y020864D01*
X008055Y020864D02*
X008055Y020939D01*
X008030Y020964D01*
X008005Y020964D01*
X007980Y020939D01*
X007980Y021012D02*
X007980Y021112D01*
X008055Y021159D02*
X007905Y021159D01*
X007955Y021209D01*
X007905Y021259D01*
X008055Y021259D01*
X008055Y021306D02*
X008055Y021356D01*
X008055Y021331D02*
X007905Y021331D01*
X007905Y021306D02*
X007905Y021356D01*
X007905Y021405D02*
X008055Y021505D01*
X007905Y021505D01*
X007905Y021552D02*
X007905Y021602D01*
X007905Y021577D02*
X008055Y021577D01*
X008055Y021552D02*
X008055Y021602D01*
X008055Y021650D02*
X008055Y021725D01*
X008030Y021750D01*
X008005Y021750D01*
X007980Y021725D01*
X007980Y021650D01*
X008055Y021650D02*
X007905Y021650D01*
X007905Y021725D01*
X007930Y021750D01*
X007955Y021750D01*
X007980Y021725D01*
X007980Y021797D02*
X007980Y021898D01*
X007980Y021945D02*
X007955Y021995D01*
X007955Y022020D01*
X007980Y022045D01*
X008030Y022045D01*
X008055Y022020D01*
X008055Y021970D01*
X008030Y021945D01*
X007980Y021945D02*
X007905Y021945D01*
X007905Y022045D01*
X007905Y022092D02*
X007905Y022167D01*
X007930Y022192D01*
X007980Y022192D01*
X008005Y022167D01*
X008005Y022092D01*
X008055Y022092D02*
X007905Y022092D01*
X007905Y022239D02*
X007905Y022289D01*
X007905Y022264D02*
X008055Y022264D01*
X008055Y022239D02*
X008055Y022289D01*
X008055Y022338D02*
X007905Y022338D01*
X008055Y022438D01*
X007905Y022438D01*
X007905Y021405D02*
X008055Y021405D01*
X008055Y020864D02*
X007905Y020864D01*
X014801Y021350D02*
X014801Y021500D01*
X014851Y021450D01*
X014901Y021500D01*
X014901Y021350D01*
X014949Y021375D02*
X014974Y021350D01*
X015024Y021350D01*
X015049Y021375D01*
X015096Y021350D02*
X015096Y021500D01*
X015171Y021500D01*
X015196Y021475D01*
X015196Y021425D01*
X015171Y021400D01*
X015096Y021400D01*
X015049Y021475D02*
X015024Y021500D01*
X014974Y021500D01*
X014949Y021475D01*
X014949Y021375D01*
X015243Y021375D02*
X015243Y021350D01*
X015243Y021375D02*
X015343Y021475D01*
X015343Y021500D01*
X015243Y021500D01*
X015391Y021475D02*
X015416Y021500D01*
X015466Y021500D01*
X015491Y021475D01*
X015491Y021450D01*
X015466Y021425D01*
X015491Y021400D01*
X015491Y021375D01*
X015466Y021350D01*
X015416Y021350D01*
X015391Y021375D01*
X015441Y021425D02*
X015466Y021425D01*
X015538Y021400D02*
X015563Y021425D01*
X015613Y021425D01*
X015638Y021400D01*
X015638Y021375D01*
X015613Y021350D01*
X015563Y021350D01*
X015538Y021375D01*
X015538Y021400D01*
X015563Y021425D02*
X015538Y021450D01*
X015538Y021475D01*
X015563Y021500D01*
X015613Y021500D01*
X015638Y021475D01*
X015638Y021450D01*
X015613Y021425D01*
X015685Y021375D02*
X015710Y021350D01*
X015760Y021350D01*
X015785Y021375D01*
X015785Y021400D01*
X015760Y021425D01*
X015735Y021425D01*
X015760Y021425D02*
X015785Y021450D01*
X015785Y021475D01*
X015760Y021500D01*
X015710Y021500D01*
X015685Y021475D01*
X015833Y021450D02*
X015883Y021500D01*
X015883Y021350D01*
X015833Y021350D02*
X015933Y021350D01*
D16*
X016865Y020594D02*
X016865Y020400D01*
X017155Y020400D01*
X017155Y020299D02*
X016962Y020299D01*
X017010Y020400D02*
X017010Y020497D01*
X017155Y020299D02*
X017155Y020154D01*
X017107Y020106D01*
X016962Y020106D01*
X016913Y020005D02*
X017107Y019811D01*
X017155Y019811D01*
X017155Y019712D02*
X017155Y019664D01*
X017107Y019664D01*
X017107Y019712D01*
X017155Y019712D01*
X017155Y019514D02*
X016865Y019514D01*
X017010Y019369D01*
X017010Y019563D01*
X016865Y019811D02*
X016865Y020005D01*
X016913Y020005D01*
X014905Y019844D02*
X014760Y019699D01*
X014808Y019650D02*
X014615Y019844D01*
X014615Y019650D02*
X014905Y019650D01*
X014905Y019549D02*
X014905Y019356D01*
X014712Y019549D01*
X014663Y019549D01*
X014615Y019501D01*
X014615Y019404D01*
X014663Y019356D01*
X012405Y019814D02*
X012115Y019814D01*
X012260Y019669D01*
X012260Y019863D01*
X012357Y019964D02*
X012357Y020012D01*
X012405Y020012D01*
X012405Y019964D01*
X012357Y019964D01*
X012357Y020111D02*
X012405Y020111D01*
X012357Y020111D02*
X012163Y020305D01*
X012115Y020305D01*
X012115Y020111D01*
X012212Y020406D02*
X012357Y020406D01*
X012405Y020454D01*
X012405Y020599D01*
X012212Y020599D01*
X012260Y020700D02*
X012260Y020797D01*
X012405Y020700D02*
X012115Y020700D01*
X012115Y020894D01*
X005165Y014547D02*
X005165Y014300D01*
X005535Y014300D01*
X005473Y014179D02*
X005535Y014117D01*
X005535Y013932D01*
X005658Y013932D02*
X005288Y013932D01*
X005288Y014117D01*
X005350Y014179D01*
X005473Y014179D01*
X005350Y014300D02*
X005350Y014423D01*
X005226Y013810D02*
X005473Y013810D01*
X005535Y013748D01*
X005535Y013625D01*
X005473Y013563D01*
X005226Y013810D01*
X005165Y013748D01*
X005165Y013625D01*
X005226Y013563D01*
X005473Y013563D01*
X005535Y013442D02*
X005535Y013195D01*
X005535Y013318D02*
X005165Y013318D01*
X005288Y013195D01*
X005165Y012547D02*
X005165Y012300D01*
X005535Y012300D01*
X005473Y012179D02*
X005350Y012179D01*
X005288Y012117D01*
X005288Y011932D01*
X005658Y011932D01*
X005535Y011932D02*
X005535Y012117D01*
X005473Y012179D01*
X005350Y012300D02*
X005350Y012423D01*
X005226Y011810D02*
X005473Y011810D01*
X005535Y011748D01*
X005535Y011625D01*
X005473Y011563D01*
X005226Y011810D01*
X005165Y011748D01*
X005165Y011625D01*
X005226Y011563D01*
X005473Y011563D01*
X005535Y011442D02*
X005535Y011195D01*
X005535Y011318D02*
X005165Y011318D01*
X005288Y011195D01*
X005165Y010547D02*
X005165Y010300D01*
X005535Y010300D01*
X005473Y010179D02*
X005535Y010117D01*
X005535Y009932D01*
X005658Y009932D02*
X005288Y009932D01*
X005288Y010117D01*
X005350Y010179D01*
X005473Y010179D01*
X005350Y010300D02*
X005350Y010423D01*
X005226Y009810D02*
X005473Y009810D01*
X005535Y009748D01*
X005535Y009625D01*
X005473Y009563D01*
X005226Y009810D01*
X005165Y009748D01*
X005165Y009625D01*
X005226Y009563D01*
X005473Y009563D01*
X005535Y009442D02*
X005535Y009195D01*
X005535Y009318D02*
X005165Y009318D01*
X005288Y009195D01*
X003508Y009432D02*
X003138Y009432D01*
X003138Y009617D01*
X003200Y009679D01*
X003323Y009679D01*
X003385Y009617D01*
X003385Y009432D01*
X003323Y009310D02*
X003385Y009248D01*
X003385Y009125D01*
X003323Y009063D01*
X003323Y008942D02*
X003385Y008880D01*
X003385Y008757D01*
X003323Y008695D01*
X003200Y008818D02*
X003200Y008880D01*
X003262Y008942D01*
X003323Y008942D01*
X003200Y008880D02*
X003138Y008942D01*
X003076Y008942D01*
X003015Y008880D01*
X003015Y008757D01*
X003076Y008695D01*
X003076Y009063D02*
X003015Y009125D01*
X003015Y009248D01*
X003076Y009310D01*
X003138Y009310D01*
X003200Y009248D01*
X003262Y009310D01*
X003323Y009310D01*
X003200Y009248D02*
X003200Y009187D01*
X003200Y009800D02*
X003200Y009923D01*
X003385Y009800D02*
X003015Y009800D01*
X003015Y010047D01*
X003076Y010945D02*
X003015Y011007D01*
X003015Y011130D01*
X003076Y011192D01*
X003138Y011192D01*
X003200Y011130D01*
X003262Y011192D01*
X003323Y011192D01*
X003385Y011130D01*
X003385Y011007D01*
X003323Y010945D01*
X003200Y011068D02*
X003200Y011130D01*
X003323Y011313D02*
X003385Y011375D01*
X003385Y011498D01*
X003323Y011560D01*
X003262Y011560D01*
X003200Y011498D01*
X003200Y011437D01*
X003200Y011498D02*
X003138Y011560D01*
X003076Y011560D01*
X003015Y011498D01*
X003015Y011375D01*
X003076Y011313D01*
X003138Y011682D02*
X003138Y011867D01*
X003200Y011929D01*
X003323Y011929D01*
X003385Y011867D01*
X003385Y011682D01*
X003508Y011682D02*
X003138Y011682D01*
X003200Y012050D02*
X003200Y012173D01*
X003385Y012050D02*
X003015Y012050D01*
X003015Y012297D01*
X003076Y012945D02*
X003015Y013007D01*
X003015Y013130D01*
X003076Y013192D01*
X003138Y013192D01*
X003200Y013130D01*
X003262Y013192D01*
X003323Y013192D01*
X003385Y013130D01*
X003385Y013007D01*
X003323Y012945D01*
X003200Y013068D02*
X003200Y013130D01*
X003323Y013313D02*
X003385Y013375D01*
X003385Y013498D01*
X003323Y013560D01*
X003262Y013560D01*
X003200Y013498D01*
X003200Y013437D01*
X003200Y013498D02*
X003138Y013560D01*
X003076Y013560D01*
X003015Y013498D01*
X003015Y013375D01*
X003076Y013313D01*
X003138Y013682D02*
X003138Y013867D01*
X003200Y013929D01*
X003323Y013929D01*
X003385Y013867D01*
X003385Y013682D01*
X003508Y013682D02*
X003138Y013682D01*
X003200Y014050D02*
X003200Y014173D01*
X003385Y014050D02*
X003015Y014050D01*
X003015Y014297D01*
D17*
X051600Y015680D02*
X053850Y015680D01*
X053850Y016680D02*
X051600Y016680D01*
X051600Y017680D02*
X053850Y017680D01*
X053850Y018680D02*
X051600Y018680D01*
X051600Y019680D02*
X053850Y019680D01*
X053850Y020680D02*
X051600Y020680D01*
D18*
X051450Y020680D03*
X051450Y019680D03*
X051450Y018680D03*
X051450Y017680D03*
X051450Y016680D03*
X051450Y015680D03*
D19*
X050150Y015680D03*
X050150Y016680D03*
X050150Y017680D03*
X050150Y018680D03*
X050150Y019680D03*
X050150Y020680D03*
M02*
