%
M48
M72
T01C0.0236
T02C0.0240
T03C0.0315
T04C0.0354
T05C0.0400
T06C0.0500
T07C0.0512
T08C0.0591
T09C0.0700
T10C0.1102
%
T01
X3100Y10180
X1706Y11306
X1706Y12054
X2300Y13180
X20650Y13680
X22200Y13680
X22200Y14780
X20650Y14780
X29600Y12680
X29550Y11730
X33350Y13430
X35950Y13230
X36100Y11930
X36100Y11180
X38850Y15180
X37600Y16180
X37000Y17180
X39100Y17680
X41100Y17930
X43100Y17680
X43100Y17130
X42350Y16680
X43350Y16180
X41800Y15780
X43100Y18930
X40850Y19930
X37800Y20980
X37050Y20880
X35950Y20480
X36750Y20080
X36300Y19630
X37300Y21680
X36250Y21880
X35700Y22330
X50850Y20180
X50850Y18930
X50850Y17430
X50850Y16180
X50100Y3680
X31200Y2580
T02
X29357Y2636
X27757Y3586
X26127Y3496
X25107Y3496
X24187Y3496
X23807Y4346
X23057Y4836
X22157Y4836
X25107Y4986
X26157Y4986
X29357Y3936
X27357Y2286
X26157Y1876
X25117Y1876
X24007Y1876
X23157Y2126
X22187Y2116
X20857Y1636
X20607Y6636
X20757Y7886
X18957Y8036
T03
X28726Y8180
X28726Y9180
X28726Y10180
X28726Y11180
X28726Y12180
X28726Y13180
X28726Y14180
X28726Y15180
X44474Y15180
X44474Y14180
X44474Y13180
X44474Y12180
X44474Y11180
X44474Y10180
X44474Y9180
X44474Y8180
T04
X23600Y20680
X19800Y20730
X8766Y20980
X7034Y20980
T05
X44543Y20774
X45543Y20774
X46543Y20774
X46543Y21774
X45543Y21774
X44543Y21774
X49600Y20680
X49600Y19680
X49600Y18680
X49600Y17680
X49600Y16680
X49600Y15680
X46954Y15034
X46246Y14326
X51454Y9034
X50746Y8326
T06
X20127Y4086
T07
X37644Y12337
X41644Y4337
X41100Y22180
X39850Y22180
X42850Y22180
T08
X49800Y12180
X48400Y11180
T09
X21131Y5090
X19124Y5090
X19124Y3082
X21131Y3082
T10
X1100Y1180
X26850Y1180
X52600Y1180
X52600Y22180
X26850Y22180
X1100Y22180
M30
