G75*
G70*
%OFA0B0*%
%FSLAX24Y24*%
%IPPOS*%
%LPD*%
%AMOC8*
5,1,8,0,0,1.08239X$1,22.5*
%
%ADD10C,0.1142*%
%ADD11C,0.0390*%
%ADD12C,0.0063*%
%ADD13C,0.0790*%
%ADD14C,0.1090*%
%ADD15C,0.0311*%
%ADD16C,0.0055*%
%ADD17C,0.0552*%
%ADD18C,0.0067*%
%ADD19C,0.0043*%
%ADD20R,0.0780X0.0780*%
%ADD21OC8,0.0780*%
%ADD22C,0.0555*%
%ADD23C,0.0640*%
%ADD24C,0.0043*%
%ADD25C,0.0390*%
%ADD26C,0.0476*%
%ADD27C,0.0104*%
%ADD28C,0.0051*%
%ADD29C,0.0075*%
%ADD30C,0.0083*%
%ADD31C,0.0050*%
%ADD32C,0.0594*%
%ADD33C,0.0867*%
%ADD34OC8,0.0757*%
D10*
X001100Y001180D03*
X026850Y001180D03*
X052600Y001180D03*
X052600Y022180D03*
X026850Y022180D03*
X001100Y022180D03*
D11*
X023334Y013772D02*
X023846Y013772D01*
X023846Y013260D02*
X023334Y013260D01*
X023334Y012749D02*
X023846Y012749D01*
X023846Y012237D02*
X023334Y012237D01*
X023334Y011725D02*
X023846Y011725D01*
X023846Y011213D02*
X023334Y011213D01*
X023334Y010701D02*
X023846Y010701D01*
X023846Y010189D02*
X023334Y010189D01*
X023334Y009678D02*
X023846Y009678D01*
X023846Y009166D02*
X023334Y009166D01*
X023334Y008654D02*
X023846Y008654D01*
X023846Y008142D02*
X023334Y008142D01*
X023334Y007630D02*
X023846Y007630D01*
X023846Y007119D02*
X023334Y007119D01*
X023334Y006607D02*
X023846Y006607D01*
X023846Y006095D02*
X023334Y006095D01*
X024338Y004481D02*
X024338Y003969D01*
X024850Y003969D02*
X024850Y004481D01*
X025362Y004481D02*
X025362Y003969D01*
X025874Y003969D02*
X025874Y004481D01*
X026385Y004481D02*
X026385Y003969D01*
X026897Y003969D02*
X026897Y004481D01*
X027409Y004481D02*
X027409Y003969D01*
X030165Y003969D02*
X030165Y004481D01*
X030677Y004481D02*
X030677Y003969D01*
X031189Y003969D02*
X031189Y004481D01*
X031700Y004481D02*
X031700Y003969D01*
X032212Y003969D02*
X032212Y004481D01*
X032724Y004481D02*
X032724Y003969D01*
X033236Y003969D02*
X033236Y004481D01*
X033748Y004481D02*
X033748Y003969D01*
X034259Y003969D02*
X034259Y004481D01*
X034751Y006095D02*
X035263Y006095D01*
X035263Y006607D02*
X034751Y006607D01*
X034751Y007119D02*
X035263Y007119D01*
X035263Y007630D02*
X034751Y007630D01*
X034751Y008142D02*
X035263Y008142D01*
X035263Y008654D02*
X034751Y008654D01*
X034751Y009166D02*
X035263Y009166D01*
X035263Y009678D02*
X034751Y009678D01*
X034751Y010189D02*
X035263Y010189D01*
X035263Y010701D02*
X034751Y010701D01*
X034751Y011213D02*
X035263Y011213D01*
X035263Y011725D02*
X034751Y011725D01*
X034751Y012237D02*
X035263Y012237D01*
X035263Y012749D02*
X034751Y012749D01*
X034751Y013260D02*
X035263Y013260D01*
X035263Y013772D02*
X034751Y013772D01*
X034259Y015386D02*
X034259Y015898D01*
X033748Y015898D02*
X033748Y015386D01*
X033236Y015386D02*
X033236Y015898D01*
X032724Y015898D02*
X032724Y015386D01*
X032212Y015386D02*
X032212Y015898D01*
X031700Y015898D02*
X031700Y015386D01*
X031189Y015386D02*
X031189Y015898D01*
X030677Y015898D02*
X030677Y015386D01*
X030165Y015386D02*
X030165Y015898D01*
X027409Y015898D02*
X027409Y015386D01*
X026897Y015386D02*
X026897Y015898D01*
X026385Y015898D02*
X026385Y015386D01*
X025874Y015386D02*
X025874Y015898D01*
X025362Y015898D02*
X025362Y015386D01*
X024850Y015386D02*
X024850Y015898D01*
X024338Y015898D02*
X024338Y015386D01*
D12*
X012862Y005694D02*
X012862Y005028D01*
X012862Y005694D02*
X013430Y005694D01*
X013430Y005028D01*
X012862Y005028D01*
X012862Y005090D02*
X013430Y005090D01*
X013430Y005152D02*
X012862Y005152D01*
X012862Y005214D02*
X013430Y005214D01*
X013430Y005276D02*
X012862Y005276D01*
X012862Y005338D02*
X013430Y005338D01*
X013430Y005400D02*
X012862Y005400D01*
X012862Y005462D02*
X013430Y005462D01*
X013430Y005524D02*
X012862Y005524D01*
X012862Y005586D02*
X013430Y005586D01*
X013430Y005648D02*
X012862Y005648D01*
X007918Y005694D02*
X007918Y005028D01*
X007918Y005694D02*
X008486Y005694D01*
X008486Y005028D01*
X007918Y005028D01*
X007918Y005090D02*
X008486Y005090D01*
X008486Y005152D02*
X007918Y005152D01*
X007918Y005214D02*
X008486Y005214D01*
X008486Y005276D02*
X007918Y005276D01*
X007918Y005338D02*
X008486Y005338D01*
X008486Y005400D02*
X007918Y005400D01*
X007918Y005462D02*
X008486Y005462D01*
X008486Y005524D02*
X007918Y005524D01*
X007918Y005586D02*
X008486Y005586D01*
X008486Y005648D02*
X007918Y005648D01*
X007918Y003127D02*
X007918Y002461D01*
X007918Y003127D02*
X008486Y003127D01*
X008486Y002461D01*
X007918Y002461D01*
X007918Y002523D02*
X008486Y002523D01*
X008486Y002585D02*
X007918Y002585D01*
X007918Y002647D02*
X008486Y002647D01*
X008486Y002709D02*
X007918Y002709D01*
X007918Y002771D02*
X008486Y002771D01*
X008486Y002833D02*
X007918Y002833D01*
X007918Y002895D02*
X008486Y002895D01*
X008486Y002957D02*
X007918Y002957D01*
X007918Y003019D02*
X008486Y003019D01*
X008486Y003081D02*
X007918Y003081D01*
X012862Y003127D02*
X012862Y002461D01*
X012862Y003127D02*
X013430Y003127D01*
X013430Y002461D01*
X012862Y002461D01*
X012862Y002523D02*
X013430Y002523D01*
X013430Y002585D02*
X012862Y002585D01*
X012862Y002647D02*
X013430Y002647D01*
X013430Y002709D02*
X012862Y002709D01*
X012862Y002771D02*
X013430Y002771D01*
X013430Y002833D02*
X012862Y002833D01*
X012862Y002895D02*
X013430Y002895D01*
X013430Y002957D02*
X012862Y002957D01*
X012862Y003019D02*
X013430Y003019D01*
X013430Y003081D02*
X012862Y003081D01*
X017977Y003600D02*
X017977Y004562D01*
X018545Y004562D01*
X018545Y003600D01*
X017977Y003600D01*
X017977Y003662D02*
X018545Y003662D01*
X018545Y003724D02*
X017977Y003724D01*
X017977Y003786D02*
X018545Y003786D01*
X018545Y003848D02*
X017977Y003848D01*
X017977Y003910D02*
X018545Y003910D01*
X018545Y003972D02*
X017977Y003972D01*
X017977Y004034D02*
X018545Y004034D01*
X018545Y004096D02*
X017977Y004096D01*
X017977Y004158D02*
X018545Y004158D01*
X018545Y004220D02*
X017977Y004220D01*
X017977Y004282D02*
X018545Y004282D01*
X018545Y004344D02*
X017977Y004344D01*
X017977Y004406D02*
X018545Y004406D01*
X018545Y004468D02*
X017977Y004468D01*
X017977Y004530D02*
X018545Y004530D01*
D13*
X020127Y004086D03*
D14*
X019124Y003082D03*
X021131Y003082D03*
X021131Y005090D03*
X019124Y005090D03*
D15*
X022096Y004165D02*
X022096Y004007D01*
X022018Y004007D01*
X022018Y004165D01*
X022096Y004165D01*
X022796Y004165D02*
X022796Y004007D01*
X022718Y004007D01*
X022718Y004165D01*
X022796Y004165D01*
X022836Y003425D02*
X022836Y003347D01*
X022678Y003347D01*
X022678Y003425D01*
X022836Y003425D01*
X022156Y003425D02*
X022156Y003347D01*
X021998Y003347D01*
X021998Y003425D01*
X022156Y003425D01*
X022156Y002725D02*
X022156Y002647D01*
X021998Y002647D01*
X021998Y002725D01*
X022156Y002725D01*
X022836Y002725D02*
X022836Y002647D01*
X022678Y002647D01*
X022678Y002725D01*
X022836Y002725D01*
D16*
X039434Y002951D02*
X039434Y003605D01*
X039434Y002951D02*
X038936Y002951D01*
X038936Y003605D01*
X039434Y003605D01*
X039434Y003005D02*
X038936Y003005D01*
X038936Y003059D02*
X039434Y003059D01*
X039434Y003113D02*
X038936Y003113D01*
X038936Y003167D02*
X039434Y003167D01*
X039434Y003221D02*
X038936Y003221D01*
X038936Y003275D02*
X039434Y003275D01*
X039434Y003329D02*
X038936Y003329D01*
X038936Y003383D02*
X039434Y003383D01*
X039434Y003437D02*
X038936Y003437D01*
X038936Y003491D02*
X039434Y003491D01*
X039434Y003545D02*
X038936Y003545D01*
X038936Y003599D02*
X039434Y003599D01*
X040434Y003605D02*
X040434Y002951D01*
X039936Y002951D01*
X039936Y003605D01*
X040434Y003605D01*
X040434Y003005D02*
X039936Y003005D01*
X039936Y003059D02*
X040434Y003059D01*
X040434Y003113D02*
X039936Y003113D01*
X039936Y003167D02*
X040434Y003167D01*
X040434Y003221D02*
X039936Y003221D01*
X039936Y003275D02*
X040434Y003275D01*
X040434Y003329D02*
X039936Y003329D01*
X039936Y003383D02*
X040434Y003383D01*
X040434Y003437D02*
X039936Y003437D01*
X039936Y003491D02*
X040434Y003491D01*
X040434Y003545D02*
X039936Y003545D01*
X039936Y003599D02*
X040434Y003599D01*
X041434Y003605D02*
X041434Y002951D01*
X040936Y002951D01*
X040936Y003605D01*
X041434Y003605D01*
X041434Y003005D02*
X040936Y003005D01*
X040936Y003059D02*
X041434Y003059D01*
X041434Y003113D02*
X040936Y003113D01*
X040936Y003167D02*
X041434Y003167D01*
X041434Y003221D02*
X040936Y003221D01*
X040936Y003275D02*
X041434Y003275D01*
X041434Y003329D02*
X040936Y003329D01*
X040936Y003383D02*
X041434Y003383D01*
X041434Y003437D02*
X040936Y003437D01*
X040936Y003491D02*
X041434Y003491D01*
X041434Y003545D02*
X040936Y003545D01*
X040936Y003599D02*
X041434Y003599D01*
X040936Y013070D02*
X040936Y013724D01*
X041434Y013724D01*
X041434Y013070D01*
X040936Y013070D01*
X040936Y013124D02*
X041434Y013124D01*
X041434Y013178D02*
X040936Y013178D01*
X040936Y013232D02*
X041434Y013232D01*
X041434Y013286D02*
X040936Y013286D01*
X040936Y013340D02*
X041434Y013340D01*
X041434Y013394D02*
X040936Y013394D01*
X040936Y013448D02*
X041434Y013448D01*
X041434Y013502D02*
X040936Y013502D01*
X040936Y013556D02*
X041434Y013556D01*
X041434Y013610D02*
X040936Y013610D01*
X040936Y013664D02*
X041434Y013664D01*
X041434Y013718D02*
X040936Y013718D01*
X039936Y013724D02*
X039936Y013070D01*
X039936Y013724D02*
X040434Y013724D01*
X040434Y013070D01*
X039936Y013070D01*
X039936Y013124D02*
X040434Y013124D01*
X040434Y013178D02*
X039936Y013178D01*
X039936Y013232D02*
X040434Y013232D01*
X040434Y013286D02*
X039936Y013286D01*
X039936Y013340D02*
X040434Y013340D01*
X040434Y013394D02*
X039936Y013394D01*
X039936Y013448D02*
X040434Y013448D01*
X040434Y013502D02*
X039936Y013502D01*
X039936Y013556D02*
X040434Y013556D01*
X040434Y013610D02*
X039936Y013610D01*
X039936Y013664D02*
X040434Y013664D01*
X040434Y013718D02*
X039936Y013718D01*
X038936Y013724D02*
X038936Y013070D01*
X038936Y013724D02*
X039434Y013724D01*
X039434Y013070D01*
X038936Y013070D01*
X038936Y013124D02*
X039434Y013124D01*
X039434Y013178D02*
X038936Y013178D01*
X038936Y013232D02*
X039434Y013232D01*
X039434Y013286D02*
X038936Y013286D01*
X038936Y013340D02*
X039434Y013340D01*
X039434Y013394D02*
X038936Y013394D01*
X038936Y013448D02*
X039434Y013448D01*
X039434Y013502D02*
X038936Y013502D01*
X038936Y013556D02*
X039434Y013556D01*
X039434Y013610D02*
X038936Y013610D01*
X038936Y013664D02*
X039434Y013664D01*
X039434Y013718D02*
X038936Y013718D01*
D17*
X037644Y012337D03*
X041644Y004337D03*
D18*
X045738Y004838D02*
X046342Y004838D01*
X045738Y004838D02*
X045738Y005522D01*
X046342Y005522D01*
X046342Y004838D01*
X046342Y004904D02*
X045738Y004904D01*
X045738Y004970D02*
X046342Y004970D01*
X046342Y005036D02*
X045738Y005036D01*
X045738Y005102D02*
X046342Y005102D01*
X046342Y005168D02*
X045738Y005168D01*
X045738Y005234D02*
X046342Y005234D01*
X046342Y005300D02*
X045738Y005300D01*
X045738Y005366D02*
X046342Y005366D01*
X046342Y005432D02*
X045738Y005432D01*
X045738Y005498D02*
X046342Y005498D01*
X046858Y004838D02*
X047462Y004838D01*
X046858Y004838D02*
X046858Y005522D01*
X047462Y005522D01*
X047462Y004838D01*
X047462Y004904D02*
X046858Y004904D01*
X046858Y004970D02*
X047462Y004970D01*
X047462Y005036D02*
X046858Y005036D01*
X046858Y005102D02*
X047462Y005102D01*
X047462Y005168D02*
X046858Y005168D01*
X046858Y005234D02*
X047462Y005234D01*
X047462Y005300D02*
X046858Y005300D01*
X046858Y005366D02*
X047462Y005366D01*
X047462Y005432D02*
X046858Y005432D01*
X046858Y005498D02*
X047462Y005498D01*
X047442Y006318D02*
X047442Y006922D01*
X047442Y006318D02*
X046758Y006318D01*
X046758Y006922D01*
X047442Y006922D01*
X047442Y006384D02*
X046758Y006384D01*
X046758Y006450D02*
X047442Y006450D01*
X047442Y006516D02*
X046758Y006516D01*
X046758Y006582D02*
X047442Y006582D01*
X047442Y006648D02*
X046758Y006648D01*
X046758Y006714D02*
X047442Y006714D01*
X047442Y006780D02*
X046758Y006780D01*
X046758Y006846D02*
X047442Y006846D01*
X047442Y006912D02*
X046758Y006912D01*
X047442Y007438D02*
X047442Y008042D01*
X047442Y007438D02*
X046758Y007438D01*
X046758Y008042D01*
X047442Y008042D01*
X047442Y007504D02*
X046758Y007504D01*
X046758Y007570D02*
X047442Y007570D01*
X047442Y007636D02*
X046758Y007636D01*
X046758Y007702D02*
X047442Y007702D01*
X047442Y007768D02*
X046758Y007768D01*
X046758Y007834D02*
X047442Y007834D01*
X047442Y007900D02*
X046758Y007900D01*
X046758Y007966D02*
X047442Y007966D01*
X047442Y008032D02*
X046758Y008032D01*
X048634Y015371D02*
X048634Y015975D01*
X048634Y015371D02*
X047952Y015371D01*
X047952Y015975D01*
X048634Y015975D01*
X048634Y015437D02*
X047952Y015437D01*
X047952Y015503D02*
X048634Y015503D01*
X048634Y015569D02*
X047952Y015569D01*
X047952Y015635D02*
X048634Y015635D01*
X048634Y015701D02*
X047952Y015701D01*
X047952Y015767D02*
X048634Y015767D01*
X048634Y015833D02*
X047952Y015833D01*
X047952Y015899D02*
X048634Y015899D01*
X048634Y015965D02*
X047952Y015965D01*
X048634Y016473D02*
X048634Y017077D01*
X048634Y016473D02*
X047952Y016473D01*
X047952Y017077D01*
X048634Y017077D01*
X048634Y016539D02*
X047952Y016539D01*
X047952Y016605D02*
X048634Y016605D01*
X048634Y016671D02*
X047952Y016671D01*
X047952Y016737D02*
X048634Y016737D01*
X048634Y016803D02*
X047952Y016803D01*
X047952Y016869D02*
X048634Y016869D01*
X048634Y016935D02*
X047952Y016935D01*
X047952Y017001D02*
X048634Y017001D01*
X048634Y017067D02*
X047952Y017067D01*
X046803Y017339D02*
X046199Y017339D01*
X046199Y018021D01*
X046803Y018021D01*
X046803Y017339D01*
X046803Y017405D02*
X046199Y017405D01*
X046199Y017471D02*
X046803Y017471D01*
X046803Y017537D02*
X046199Y017537D01*
X046199Y017603D02*
X046803Y017603D01*
X046803Y017669D02*
X046199Y017669D01*
X046199Y017735D02*
X046803Y017735D01*
X046803Y017801D02*
X046199Y017801D01*
X046199Y017867D02*
X046803Y017867D01*
X046803Y017933D02*
X046199Y017933D01*
X046199Y017999D02*
X046803Y017999D01*
X047101Y018062D02*
X047101Y018666D01*
X047785Y018666D01*
X047785Y018062D01*
X047101Y018062D01*
X047101Y018128D02*
X047785Y018128D01*
X047785Y018194D02*
X047101Y018194D01*
X047101Y018260D02*
X047785Y018260D01*
X047785Y018326D02*
X047101Y018326D01*
X047101Y018392D02*
X047785Y018392D01*
X047785Y018458D02*
X047101Y018458D01*
X047101Y018524D02*
X047785Y018524D01*
X047785Y018590D02*
X047101Y018590D01*
X047101Y018656D02*
X047785Y018656D01*
X046803Y018389D02*
X046199Y018389D01*
X046199Y019071D01*
X046803Y019071D01*
X046803Y018389D01*
X046803Y018455D02*
X046199Y018455D01*
X046199Y018521D02*
X046803Y018521D01*
X046803Y018587D02*
X046199Y018587D01*
X046199Y018653D02*
X046803Y018653D01*
X046803Y018719D02*
X046199Y018719D01*
X046199Y018785D02*
X046803Y018785D01*
X046803Y018851D02*
X046199Y018851D01*
X046199Y018917D02*
X046803Y018917D01*
X046803Y018983D02*
X046199Y018983D01*
X046199Y019049D02*
X046803Y019049D01*
X047101Y019182D02*
X047101Y019786D01*
X047785Y019786D01*
X047785Y019182D01*
X047101Y019182D01*
X047101Y019248D02*
X047785Y019248D01*
X047785Y019314D02*
X047101Y019314D01*
X047101Y019380D02*
X047785Y019380D01*
X047785Y019446D02*
X047101Y019446D01*
X047101Y019512D02*
X047785Y019512D01*
X047785Y019578D02*
X047101Y019578D01*
X047101Y019644D02*
X047785Y019644D01*
X047785Y019710D02*
X047101Y019710D01*
X047101Y019776D02*
X047785Y019776D01*
X045701Y018389D02*
X045097Y018389D01*
X045097Y019071D01*
X045701Y019071D01*
X045701Y018389D01*
X045701Y018455D02*
X045097Y018455D01*
X045097Y018521D02*
X045701Y018521D01*
X045701Y018587D02*
X045097Y018587D01*
X045097Y018653D02*
X045701Y018653D01*
X045701Y018719D02*
X045097Y018719D01*
X045097Y018785D02*
X045701Y018785D01*
X045701Y018851D02*
X045097Y018851D01*
X045097Y018917D02*
X045701Y018917D01*
X045701Y018983D02*
X045097Y018983D01*
X045097Y019049D02*
X045701Y019049D01*
X045701Y017339D02*
X045097Y017339D01*
X045097Y018021D01*
X045701Y018021D01*
X045701Y017339D01*
X045701Y017405D02*
X045097Y017405D01*
X045097Y017471D02*
X045701Y017471D01*
X045701Y017537D02*
X045097Y017537D01*
X045097Y017603D02*
X045701Y017603D01*
X045701Y017669D02*
X045097Y017669D01*
X045097Y017735D02*
X045701Y017735D01*
X045701Y017801D02*
X045097Y017801D01*
X045097Y017867D02*
X045701Y017867D01*
X045701Y017933D02*
X045097Y017933D01*
X045097Y017999D02*
X045701Y017999D01*
X037041Y018181D02*
X037041Y017577D01*
X036359Y017577D01*
X036359Y018181D01*
X037041Y018181D01*
X037041Y017643D02*
X036359Y017643D01*
X036359Y017709D02*
X037041Y017709D01*
X037041Y017775D02*
X036359Y017775D01*
X036359Y017841D02*
X037041Y017841D01*
X037041Y017907D02*
X036359Y017907D01*
X036359Y017973D02*
X037041Y017973D01*
X037041Y018039D02*
X036359Y018039D01*
X036359Y018105D02*
X037041Y018105D01*
X037041Y018171D02*
X036359Y018171D01*
X037041Y018679D02*
X037041Y019283D01*
X037041Y018679D02*
X036359Y018679D01*
X036359Y019283D01*
X037041Y019283D01*
X037041Y018745D02*
X036359Y018745D01*
X036359Y018811D02*
X037041Y018811D01*
X037041Y018877D02*
X036359Y018877D01*
X036359Y018943D02*
X037041Y018943D01*
X037041Y019009D02*
X036359Y019009D01*
X036359Y019075D02*
X037041Y019075D01*
X037041Y019141D02*
X036359Y019141D01*
X036359Y019207D02*
X037041Y019207D01*
X037041Y019273D02*
X036359Y019273D01*
X034442Y018192D02*
X034442Y017588D01*
X033758Y017588D01*
X033758Y018192D01*
X034442Y018192D01*
X034442Y017654D02*
X033758Y017654D01*
X033758Y017720D02*
X034442Y017720D01*
X034442Y017786D02*
X033758Y017786D01*
X033758Y017852D02*
X034442Y017852D01*
X034442Y017918D02*
X033758Y017918D01*
X033758Y017984D02*
X034442Y017984D01*
X034442Y018050D02*
X033758Y018050D01*
X033758Y018116D02*
X034442Y018116D01*
X034442Y018182D02*
X033758Y018182D01*
X033542Y018192D02*
X033542Y017588D01*
X032858Y017588D01*
X032858Y018192D01*
X033542Y018192D01*
X033542Y017654D02*
X032858Y017654D01*
X032858Y017720D02*
X033542Y017720D01*
X033542Y017786D02*
X032858Y017786D01*
X032858Y017852D02*
X033542Y017852D01*
X033542Y017918D02*
X032858Y017918D01*
X032858Y017984D02*
X033542Y017984D01*
X033542Y018050D02*
X032858Y018050D01*
X032858Y018116D02*
X033542Y018116D01*
X033542Y018182D02*
X032858Y018182D01*
X032642Y018192D02*
X032642Y017588D01*
X031958Y017588D01*
X031958Y018192D01*
X032642Y018192D01*
X032642Y017654D02*
X031958Y017654D01*
X031958Y017720D02*
X032642Y017720D01*
X032642Y017786D02*
X031958Y017786D01*
X031958Y017852D02*
X032642Y017852D01*
X032642Y017918D02*
X031958Y017918D01*
X031958Y017984D02*
X032642Y017984D01*
X032642Y018050D02*
X031958Y018050D01*
X031958Y018116D02*
X032642Y018116D01*
X032642Y018182D02*
X031958Y018182D01*
X032642Y017072D02*
X032642Y016468D01*
X031958Y016468D01*
X031958Y017072D01*
X032642Y017072D01*
X032642Y016534D02*
X031958Y016534D01*
X031958Y016600D02*
X032642Y016600D01*
X032642Y016666D02*
X031958Y016666D01*
X031958Y016732D02*
X032642Y016732D01*
X032642Y016798D02*
X031958Y016798D01*
X031958Y016864D02*
X032642Y016864D01*
X032642Y016930D02*
X031958Y016930D01*
X031958Y016996D02*
X032642Y016996D01*
X032642Y017062D02*
X031958Y017062D01*
X033542Y017072D02*
X033542Y016468D01*
X032858Y016468D01*
X032858Y017072D01*
X033542Y017072D01*
X033542Y016534D02*
X032858Y016534D01*
X032858Y016600D02*
X033542Y016600D01*
X033542Y016666D02*
X032858Y016666D01*
X032858Y016732D02*
X033542Y016732D01*
X033542Y016798D02*
X032858Y016798D01*
X032858Y016864D02*
X033542Y016864D01*
X033542Y016930D02*
X032858Y016930D01*
X032858Y016996D02*
X033542Y016996D01*
X033542Y017062D02*
X032858Y017062D01*
X034442Y017072D02*
X034442Y016468D01*
X033758Y016468D01*
X033758Y017072D01*
X034442Y017072D01*
X034442Y016534D02*
X033758Y016534D01*
X033758Y016600D02*
X034442Y016600D01*
X034442Y016666D02*
X033758Y016666D01*
X033758Y016732D02*
X034442Y016732D01*
X034442Y016798D02*
X033758Y016798D01*
X033758Y016864D02*
X034442Y016864D01*
X034442Y016930D02*
X033758Y016930D01*
X033758Y016996D02*
X034442Y016996D01*
X034442Y017062D02*
X033758Y017062D01*
X028115Y018443D02*
X026803Y018443D01*
X028115Y018443D02*
X028115Y017839D01*
X026803Y017839D01*
X026803Y018443D01*
X026803Y017905D02*
X028115Y017905D01*
X028115Y017971D02*
X026803Y017971D01*
X026803Y018037D02*
X028115Y018037D01*
X028115Y018103D02*
X026803Y018103D01*
X026803Y018169D02*
X028115Y018169D01*
X028115Y018235D02*
X026803Y018235D01*
X026803Y018301D02*
X028115Y018301D01*
X028115Y018367D02*
X026803Y018367D01*
X026803Y018433D02*
X028115Y018433D01*
X028115Y021121D02*
X026803Y021121D01*
X028115Y021121D02*
X028115Y020517D01*
X026803Y020517D01*
X026803Y021121D01*
X026803Y020583D02*
X028115Y020583D01*
X028115Y020649D02*
X026803Y020649D01*
X026803Y020715D02*
X028115Y020715D01*
X028115Y020781D02*
X026803Y020781D01*
X026803Y020847D02*
X028115Y020847D01*
X028115Y020913D02*
X026803Y020913D01*
X026803Y020979D02*
X028115Y020979D01*
X028115Y021045D02*
X026803Y021045D01*
X026803Y021111D02*
X028115Y021111D01*
X022703Y006621D02*
X022099Y006621D01*
X022703Y006621D02*
X022703Y005939D01*
X022099Y005939D01*
X022099Y006621D01*
X022099Y006005D02*
X022703Y006005D01*
X022703Y006071D02*
X022099Y006071D01*
X022099Y006137D02*
X022703Y006137D01*
X022703Y006203D02*
X022099Y006203D01*
X022099Y006269D02*
X022703Y006269D01*
X022703Y006335D02*
X022099Y006335D01*
X022099Y006401D02*
X022703Y006401D01*
X022703Y006467D02*
X022099Y006467D01*
X022099Y006533D02*
X022703Y006533D01*
X022703Y006599D02*
X022099Y006599D01*
X021601Y006621D02*
X020997Y006621D01*
X021601Y006621D02*
X021601Y005939D01*
X020997Y005939D01*
X020997Y006621D01*
X020997Y006005D02*
X021601Y006005D01*
X021601Y006071D02*
X020997Y006071D01*
X020997Y006137D02*
X021601Y006137D01*
X021601Y006203D02*
X020997Y006203D01*
X020997Y006269D02*
X021601Y006269D01*
X021601Y006335D02*
X020997Y006335D01*
X020997Y006401D02*
X021601Y006401D01*
X021601Y006467D02*
X020997Y006467D01*
X020997Y006533D02*
X021601Y006533D01*
X021601Y006599D02*
X020997Y006599D01*
D19*
X038396Y016687D02*
X038570Y016687D01*
X038570Y016119D01*
X038396Y016119D01*
X038396Y016687D01*
X038396Y016161D02*
X038570Y016161D01*
X038570Y016203D02*
X038396Y016203D01*
X038396Y016245D02*
X038570Y016245D01*
X038570Y016287D02*
X038396Y016287D01*
X038396Y016329D02*
X038570Y016329D01*
X038570Y016371D02*
X038396Y016371D01*
X038396Y016413D02*
X038570Y016413D01*
X038570Y016455D02*
X038396Y016455D01*
X038396Y016497D02*
X038570Y016497D01*
X038570Y016539D02*
X038396Y016539D01*
X038396Y016581D02*
X038570Y016581D01*
X038570Y016623D02*
X038396Y016623D01*
X038396Y016665D02*
X038570Y016665D01*
X038711Y016687D02*
X038885Y016687D01*
X038885Y016119D01*
X038711Y016119D01*
X038711Y016687D01*
X038711Y016161D02*
X038885Y016161D01*
X038885Y016203D02*
X038711Y016203D01*
X038711Y016245D02*
X038885Y016245D01*
X038885Y016287D02*
X038711Y016287D01*
X038711Y016329D02*
X038885Y016329D01*
X038885Y016371D02*
X038711Y016371D01*
X038711Y016413D02*
X038885Y016413D01*
X038885Y016455D02*
X038711Y016455D01*
X038711Y016497D02*
X038885Y016497D01*
X038885Y016539D02*
X038711Y016539D01*
X038711Y016581D02*
X038885Y016581D01*
X038885Y016623D02*
X038711Y016623D01*
X038711Y016665D02*
X038885Y016665D01*
X039026Y016687D02*
X039200Y016687D01*
X039200Y016119D01*
X039026Y016119D01*
X039026Y016687D01*
X039026Y016161D02*
X039200Y016161D01*
X039200Y016203D02*
X039026Y016203D01*
X039026Y016245D02*
X039200Y016245D01*
X039200Y016287D02*
X039026Y016287D01*
X039026Y016329D02*
X039200Y016329D01*
X039200Y016371D02*
X039026Y016371D01*
X039026Y016413D02*
X039200Y016413D01*
X039200Y016455D02*
X039026Y016455D01*
X039026Y016497D02*
X039200Y016497D01*
X039200Y016539D02*
X039026Y016539D01*
X039026Y016581D02*
X039200Y016581D01*
X039200Y016623D02*
X039026Y016623D01*
X039026Y016665D02*
X039200Y016665D01*
X039341Y016687D02*
X039515Y016687D01*
X039515Y016119D01*
X039341Y016119D01*
X039341Y016687D01*
X039341Y016161D02*
X039515Y016161D01*
X039515Y016203D02*
X039341Y016203D01*
X039341Y016245D02*
X039515Y016245D01*
X039515Y016287D02*
X039341Y016287D01*
X039341Y016329D02*
X039515Y016329D01*
X039515Y016371D02*
X039341Y016371D01*
X039341Y016413D02*
X039515Y016413D01*
X039515Y016455D02*
X039341Y016455D01*
X039341Y016497D02*
X039515Y016497D01*
X039515Y016539D02*
X039341Y016539D01*
X039341Y016581D02*
X039515Y016581D01*
X039515Y016623D02*
X039341Y016623D01*
X039341Y016665D02*
X039515Y016665D01*
X039656Y016687D02*
X039830Y016687D01*
X039830Y016119D01*
X039656Y016119D01*
X039656Y016687D01*
X039656Y016161D02*
X039830Y016161D01*
X039830Y016203D02*
X039656Y016203D01*
X039656Y016245D02*
X039830Y016245D01*
X039830Y016287D02*
X039656Y016287D01*
X039656Y016329D02*
X039830Y016329D01*
X039830Y016371D02*
X039656Y016371D01*
X039656Y016413D02*
X039830Y016413D01*
X039830Y016455D02*
X039656Y016455D01*
X039656Y016497D02*
X039830Y016497D01*
X039830Y016539D02*
X039656Y016539D01*
X039656Y016581D02*
X039830Y016581D01*
X039830Y016623D02*
X039656Y016623D01*
X039656Y016665D02*
X039830Y016665D01*
X039970Y016687D02*
X040144Y016687D01*
X040144Y016119D01*
X039970Y016119D01*
X039970Y016687D01*
X039970Y016161D02*
X040144Y016161D01*
X040144Y016203D02*
X039970Y016203D01*
X039970Y016245D02*
X040144Y016245D01*
X040144Y016287D02*
X039970Y016287D01*
X039970Y016329D02*
X040144Y016329D01*
X040144Y016371D02*
X039970Y016371D01*
X039970Y016413D02*
X040144Y016413D01*
X040144Y016455D02*
X039970Y016455D01*
X039970Y016497D02*
X040144Y016497D01*
X040144Y016539D02*
X039970Y016539D01*
X039970Y016581D02*
X040144Y016581D01*
X040144Y016623D02*
X039970Y016623D01*
X039970Y016665D02*
X040144Y016665D01*
X040285Y016687D02*
X040459Y016687D01*
X040459Y016119D01*
X040285Y016119D01*
X040285Y016687D01*
X040285Y016161D02*
X040459Y016161D01*
X040459Y016203D02*
X040285Y016203D01*
X040285Y016245D02*
X040459Y016245D01*
X040459Y016287D02*
X040285Y016287D01*
X040285Y016329D02*
X040459Y016329D01*
X040459Y016371D02*
X040285Y016371D01*
X040285Y016413D02*
X040459Y016413D01*
X040459Y016455D02*
X040285Y016455D01*
X040285Y016497D02*
X040459Y016497D01*
X040459Y016539D02*
X040285Y016539D01*
X040285Y016581D02*
X040459Y016581D01*
X040459Y016623D02*
X040285Y016623D01*
X040285Y016665D02*
X040459Y016665D01*
X040600Y016687D02*
X040774Y016687D01*
X040774Y016119D01*
X040600Y016119D01*
X040600Y016687D01*
X040600Y016161D02*
X040774Y016161D01*
X040774Y016203D02*
X040600Y016203D01*
X040600Y016245D02*
X040774Y016245D01*
X040774Y016287D02*
X040600Y016287D01*
X040600Y016329D02*
X040774Y016329D01*
X040774Y016371D02*
X040600Y016371D01*
X040600Y016413D02*
X040774Y016413D01*
X040774Y016455D02*
X040600Y016455D01*
X040600Y016497D02*
X040774Y016497D01*
X040774Y016539D02*
X040600Y016539D01*
X040600Y016581D02*
X040774Y016581D01*
X040774Y016623D02*
X040600Y016623D01*
X040600Y016665D02*
X040774Y016665D01*
X040915Y016687D02*
X041089Y016687D01*
X041089Y016119D01*
X040915Y016119D01*
X040915Y016687D01*
X040915Y016161D02*
X041089Y016161D01*
X041089Y016203D02*
X040915Y016203D01*
X040915Y016245D02*
X041089Y016245D01*
X041089Y016287D02*
X040915Y016287D01*
X040915Y016329D02*
X041089Y016329D01*
X041089Y016371D02*
X040915Y016371D01*
X040915Y016413D02*
X041089Y016413D01*
X041089Y016455D02*
X040915Y016455D01*
X040915Y016497D02*
X041089Y016497D01*
X041089Y016539D02*
X040915Y016539D01*
X040915Y016581D02*
X041089Y016581D01*
X041089Y016623D02*
X040915Y016623D01*
X040915Y016665D02*
X041089Y016665D01*
X041230Y016687D02*
X041404Y016687D01*
X041404Y016119D01*
X041230Y016119D01*
X041230Y016687D01*
X041230Y016161D02*
X041404Y016161D01*
X041404Y016203D02*
X041230Y016203D01*
X041230Y016245D02*
X041404Y016245D01*
X041404Y016287D02*
X041230Y016287D01*
X041230Y016329D02*
X041404Y016329D01*
X041404Y016371D02*
X041230Y016371D01*
X041230Y016413D02*
X041404Y016413D01*
X041404Y016455D02*
X041230Y016455D01*
X041230Y016497D02*
X041404Y016497D01*
X041404Y016539D02*
X041230Y016539D01*
X041230Y016581D02*
X041404Y016581D01*
X041404Y016623D02*
X041230Y016623D01*
X041230Y016665D02*
X041404Y016665D01*
X041545Y016687D02*
X041719Y016687D01*
X041719Y016119D01*
X041545Y016119D01*
X041545Y016687D01*
X041545Y016161D02*
X041719Y016161D01*
X041719Y016203D02*
X041545Y016203D01*
X041545Y016245D02*
X041719Y016245D01*
X041719Y016287D02*
X041545Y016287D01*
X041545Y016329D02*
X041719Y016329D01*
X041719Y016371D02*
X041545Y016371D01*
X041545Y016413D02*
X041719Y016413D01*
X041719Y016455D02*
X041545Y016455D01*
X041545Y016497D02*
X041719Y016497D01*
X041719Y016539D02*
X041545Y016539D01*
X041545Y016581D02*
X041719Y016581D01*
X041719Y016623D02*
X041545Y016623D01*
X041545Y016665D02*
X041719Y016665D01*
X042057Y017198D02*
X042625Y017198D01*
X042625Y017024D01*
X042057Y017024D01*
X042057Y017198D01*
X042057Y017066D02*
X042625Y017066D01*
X042625Y017108D02*
X042057Y017108D01*
X042057Y017150D02*
X042625Y017150D01*
X042625Y017192D02*
X042057Y017192D01*
X042057Y017513D02*
X042625Y017513D01*
X042625Y017339D01*
X042057Y017339D01*
X042057Y017513D01*
X042057Y017381D02*
X042625Y017381D01*
X042625Y017423D02*
X042057Y017423D01*
X042057Y017465D02*
X042625Y017465D01*
X042625Y017507D02*
X042057Y017507D01*
X042057Y017828D02*
X042625Y017828D01*
X042625Y017654D01*
X042057Y017654D01*
X042057Y017828D01*
X042057Y017696D02*
X042625Y017696D01*
X042625Y017738D02*
X042057Y017738D01*
X042057Y017780D02*
X042625Y017780D01*
X042625Y017822D02*
X042057Y017822D01*
X042057Y018143D02*
X042625Y018143D01*
X042625Y017969D01*
X042057Y017969D01*
X042057Y018143D01*
X042057Y018011D02*
X042625Y018011D01*
X042625Y018053D02*
X042057Y018053D01*
X042057Y018095D02*
X042625Y018095D01*
X042625Y018137D02*
X042057Y018137D01*
X042057Y018458D02*
X042625Y018458D01*
X042625Y018284D01*
X042057Y018284D01*
X042057Y018458D01*
X042057Y018326D02*
X042625Y018326D01*
X042625Y018368D02*
X042057Y018368D01*
X042057Y018410D02*
X042625Y018410D01*
X042625Y018452D02*
X042057Y018452D01*
X042057Y018773D02*
X042625Y018773D01*
X042625Y018599D01*
X042057Y018599D01*
X042057Y018773D01*
X042057Y018641D02*
X042625Y018641D01*
X042625Y018683D02*
X042057Y018683D01*
X042057Y018725D02*
X042625Y018725D01*
X042625Y018767D02*
X042057Y018767D01*
X042057Y019088D02*
X042625Y019088D01*
X042625Y018914D01*
X042057Y018914D01*
X042057Y019088D01*
X042057Y018956D02*
X042625Y018956D01*
X042625Y018998D02*
X042057Y018998D01*
X042057Y019040D02*
X042625Y019040D01*
X042625Y019082D02*
X042057Y019082D01*
X042057Y019403D02*
X042625Y019403D01*
X042625Y019229D01*
X042057Y019229D01*
X042057Y019403D01*
X042057Y019271D02*
X042625Y019271D01*
X042625Y019313D02*
X042057Y019313D01*
X042057Y019355D02*
X042625Y019355D01*
X042625Y019397D02*
X042057Y019397D01*
X042057Y019718D02*
X042625Y019718D01*
X042625Y019544D01*
X042057Y019544D01*
X042057Y019718D01*
X042057Y019586D02*
X042625Y019586D01*
X042625Y019628D02*
X042057Y019628D01*
X042057Y019670D02*
X042625Y019670D01*
X042625Y019712D02*
X042057Y019712D01*
X042057Y020033D02*
X042625Y020033D01*
X042625Y019859D01*
X042057Y019859D01*
X042057Y020033D01*
X042057Y019901D02*
X042625Y019901D01*
X042625Y019943D02*
X042057Y019943D01*
X042057Y019985D02*
X042625Y019985D01*
X042625Y020027D02*
X042057Y020027D01*
X042057Y020348D02*
X042625Y020348D01*
X042625Y020174D01*
X042057Y020174D01*
X042057Y020348D01*
X042057Y020216D02*
X042625Y020216D01*
X042625Y020258D02*
X042057Y020258D01*
X042057Y020300D02*
X042625Y020300D01*
X042625Y020342D02*
X042057Y020342D01*
X041719Y021254D02*
X041545Y021254D01*
X041719Y021254D02*
X041719Y020686D01*
X041545Y020686D01*
X041545Y021254D01*
X041545Y020728D02*
X041719Y020728D01*
X041719Y020770D02*
X041545Y020770D01*
X041545Y020812D02*
X041719Y020812D01*
X041719Y020854D02*
X041545Y020854D01*
X041545Y020896D02*
X041719Y020896D01*
X041719Y020938D02*
X041545Y020938D01*
X041545Y020980D02*
X041719Y020980D01*
X041719Y021022D02*
X041545Y021022D01*
X041545Y021064D02*
X041719Y021064D01*
X041719Y021106D02*
X041545Y021106D01*
X041545Y021148D02*
X041719Y021148D01*
X041719Y021190D02*
X041545Y021190D01*
X041545Y021232D02*
X041719Y021232D01*
X041404Y021254D02*
X041230Y021254D01*
X041404Y021254D02*
X041404Y020686D01*
X041230Y020686D01*
X041230Y021254D01*
X041230Y020728D02*
X041404Y020728D01*
X041404Y020770D02*
X041230Y020770D01*
X041230Y020812D02*
X041404Y020812D01*
X041404Y020854D02*
X041230Y020854D01*
X041230Y020896D02*
X041404Y020896D01*
X041404Y020938D02*
X041230Y020938D01*
X041230Y020980D02*
X041404Y020980D01*
X041404Y021022D02*
X041230Y021022D01*
X041230Y021064D02*
X041404Y021064D01*
X041404Y021106D02*
X041230Y021106D01*
X041230Y021148D02*
X041404Y021148D01*
X041404Y021190D02*
X041230Y021190D01*
X041230Y021232D02*
X041404Y021232D01*
X041089Y021254D02*
X040915Y021254D01*
X041089Y021254D02*
X041089Y020686D01*
X040915Y020686D01*
X040915Y021254D01*
X040915Y020728D02*
X041089Y020728D01*
X041089Y020770D02*
X040915Y020770D01*
X040915Y020812D02*
X041089Y020812D01*
X041089Y020854D02*
X040915Y020854D01*
X040915Y020896D02*
X041089Y020896D01*
X041089Y020938D02*
X040915Y020938D01*
X040915Y020980D02*
X041089Y020980D01*
X041089Y021022D02*
X040915Y021022D01*
X040915Y021064D02*
X041089Y021064D01*
X041089Y021106D02*
X040915Y021106D01*
X040915Y021148D02*
X041089Y021148D01*
X041089Y021190D02*
X040915Y021190D01*
X040915Y021232D02*
X041089Y021232D01*
X040774Y021254D02*
X040600Y021254D01*
X040774Y021254D02*
X040774Y020686D01*
X040600Y020686D01*
X040600Y021254D01*
X040600Y020728D02*
X040774Y020728D01*
X040774Y020770D02*
X040600Y020770D01*
X040600Y020812D02*
X040774Y020812D01*
X040774Y020854D02*
X040600Y020854D01*
X040600Y020896D02*
X040774Y020896D01*
X040774Y020938D02*
X040600Y020938D01*
X040600Y020980D02*
X040774Y020980D01*
X040774Y021022D02*
X040600Y021022D01*
X040600Y021064D02*
X040774Y021064D01*
X040774Y021106D02*
X040600Y021106D01*
X040600Y021148D02*
X040774Y021148D01*
X040774Y021190D02*
X040600Y021190D01*
X040600Y021232D02*
X040774Y021232D01*
X040459Y021254D02*
X040285Y021254D01*
X040459Y021254D02*
X040459Y020686D01*
X040285Y020686D01*
X040285Y021254D01*
X040285Y020728D02*
X040459Y020728D01*
X040459Y020770D02*
X040285Y020770D01*
X040285Y020812D02*
X040459Y020812D01*
X040459Y020854D02*
X040285Y020854D01*
X040285Y020896D02*
X040459Y020896D01*
X040459Y020938D02*
X040285Y020938D01*
X040285Y020980D02*
X040459Y020980D01*
X040459Y021022D02*
X040285Y021022D01*
X040285Y021064D02*
X040459Y021064D01*
X040459Y021106D02*
X040285Y021106D01*
X040285Y021148D02*
X040459Y021148D01*
X040459Y021190D02*
X040285Y021190D01*
X040285Y021232D02*
X040459Y021232D01*
X040144Y021254D02*
X039970Y021254D01*
X040144Y021254D02*
X040144Y020686D01*
X039970Y020686D01*
X039970Y021254D01*
X039970Y020728D02*
X040144Y020728D01*
X040144Y020770D02*
X039970Y020770D01*
X039970Y020812D02*
X040144Y020812D01*
X040144Y020854D02*
X039970Y020854D01*
X039970Y020896D02*
X040144Y020896D01*
X040144Y020938D02*
X039970Y020938D01*
X039970Y020980D02*
X040144Y020980D01*
X040144Y021022D02*
X039970Y021022D01*
X039970Y021064D02*
X040144Y021064D01*
X040144Y021106D02*
X039970Y021106D01*
X039970Y021148D02*
X040144Y021148D01*
X040144Y021190D02*
X039970Y021190D01*
X039970Y021232D02*
X040144Y021232D01*
X039830Y021254D02*
X039656Y021254D01*
X039830Y021254D02*
X039830Y020686D01*
X039656Y020686D01*
X039656Y021254D01*
X039656Y020728D02*
X039830Y020728D01*
X039830Y020770D02*
X039656Y020770D01*
X039656Y020812D02*
X039830Y020812D01*
X039830Y020854D02*
X039656Y020854D01*
X039656Y020896D02*
X039830Y020896D01*
X039830Y020938D02*
X039656Y020938D01*
X039656Y020980D02*
X039830Y020980D01*
X039830Y021022D02*
X039656Y021022D01*
X039656Y021064D02*
X039830Y021064D01*
X039830Y021106D02*
X039656Y021106D01*
X039656Y021148D02*
X039830Y021148D01*
X039830Y021190D02*
X039656Y021190D01*
X039656Y021232D02*
X039830Y021232D01*
X039515Y021254D02*
X039341Y021254D01*
X039515Y021254D02*
X039515Y020686D01*
X039341Y020686D01*
X039341Y021254D01*
X039341Y020728D02*
X039515Y020728D01*
X039515Y020770D02*
X039341Y020770D01*
X039341Y020812D02*
X039515Y020812D01*
X039515Y020854D02*
X039341Y020854D01*
X039341Y020896D02*
X039515Y020896D01*
X039515Y020938D02*
X039341Y020938D01*
X039341Y020980D02*
X039515Y020980D01*
X039515Y021022D02*
X039341Y021022D01*
X039341Y021064D02*
X039515Y021064D01*
X039515Y021106D02*
X039341Y021106D01*
X039341Y021148D02*
X039515Y021148D01*
X039515Y021190D02*
X039341Y021190D01*
X039341Y021232D02*
X039515Y021232D01*
X039200Y021254D02*
X039026Y021254D01*
X039200Y021254D02*
X039200Y020686D01*
X039026Y020686D01*
X039026Y021254D01*
X039026Y020728D02*
X039200Y020728D01*
X039200Y020770D02*
X039026Y020770D01*
X039026Y020812D02*
X039200Y020812D01*
X039200Y020854D02*
X039026Y020854D01*
X039026Y020896D02*
X039200Y020896D01*
X039200Y020938D02*
X039026Y020938D01*
X039026Y020980D02*
X039200Y020980D01*
X039200Y021022D02*
X039026Y021022D01*
X039026Y021064D02*
X039200Y021064D01*
X039200Y021106D02*
X039026Y021106D01*
X039026Y021148D02*
X039200Y021148D01*
X039200Y021190D02*
X039026Y021190D01*
X039026Y021232D02*
X039200Y021232D01*
X038885Y021254D02*
X038711Y021254D01*
X038885Y021254D02*
X038885Y020686D01*
X038711Y020686D01*
X038711Y021254D01*
X038711Y020728D02*
X038885Y020728D01*
X038885Y020770D02*
X038711Y020770D01*
X038711Y020812D02*
X038885Y020812D01*
X038885Y020854D02*
X038711Y020854D01*
X038711Y020896D02*
X038885Y020896D01*
X038885Y020938D02*
X038711Y020938D01*
X038711Y020980D02*
X038885Y020980D01*
X038885Y021022D02*
X038711Y021022D01*
X038711Y021064D02*
X038885Y021064D01*
X038885Y021106D02*
X038711Y021106D01*
X038711Y021148D02*
X038885Y021148D01*
X038885Y021190D02*
X038711Y021190D01*
X038711Y021232D02*
X038885Y021232D01*
X038570Y021254D02*
X038396Y021254D01*
X038570Y021254D02*
X038570Y020686D01*
X038396Y020686D01*
X038396Y021254D01*
X038396Y020728D02*
X038570Y020728D01*
X038570Y020770D02*
X038396Y020770D01*
X038396Y020812D02*
X038570Y020812D01*
X038570Y020854D02*
X038396Y020854D01*
X038396Y020896D02*
X038570Y020896D01*
X038570Y020938D02*
X038396Y020938D01*
X038396Y020980D02*
X038570Y020980D01*
X038570Y021022D02*
X038396Y021022D01*
X038396Y021064D02*
X038570Y021064D01*
X038570Y021106D02*
X038396Y021106D01*
X038396Y021148D02*
X038570Y021148D01*
X038570Y021190D02*
X038396Y021190D01*
X038396Y021232D02*
X038570Y021232D01*
X038058Y020348D02*
X037490Y020348D01*
X038058Y020348D02*
X038058Y020174D01*
X037490Y020174D01*
X037490Y020348D01*
X037490Y020216D02*
X038058Y020216D01*
X038058Y020258D02*
X037490Y020258D01*
X037490Y020300D02*
X038058Y020300D01*
X038058Y020342D02*
X037490Y020342D01*
X037490Y020033D02*
X038058Y020033D01*
X038058Y019859D01*
X037490Y019859D01*
X037490Y020033D01*
X037490Y019901D02*
X038058Y019901D01*
X038058Y019943D02*
X037490Y019943D01*
X037490Y019985D02*
X038058Y019985D01*
X038058Y020027D02*
X037490Y020027D01*
X037490Y019718D02*
X038058Y019718D01*
X038058Y019544D01*
X037490Y019544D01*
X037490Y019718D01*
X037490Y019586D02*
X038058Y019586D01*
X038058Y019628D02*
X037490Y019628D01*
X037490Y019670D02*
X038058Y019670D01*
X038058Y019712D02*
X037490Y019712D01*
X037490Y019403D02*
X038058Y019403D01*
X038058Y019229D01*
X037490Y019229D01*
X037490Y019403D01*
X037490Y019271D02*
X038058Y019271D01*
X038058Y019313D02*
X037490Y019313D01*
X037490Y019355D02*
X038058Y019355D01*
X038058Y019397D02*
X037490Y019397D01*
X037490Y019088D02*
X038058Y019088D01*
X038058Y018914D01*
X037490Y018914D01*
X037490Y019088D01*
X037490Y018956D02*
X038058Y018956D01*
X038058Y018998D02*
X037490Y018998D01*
X037490Y019040D02*
X038058Y019040D01*
X038058Y019082D02*
X037490Y019082D01*
X037490Y018773D02*
X038058Y018773D01*
X038058Y018599D01*
X037490Y018599D01*
X037490Y018773D01*
X037490Y018641D02*
X038058Y018641D01*
X038058Y018683D02*
X037490Y018683D01*
X037490Y018725D02*
X038058Y018725D01*
X038058Y018767D02*
X037490Y018767D01*
X037490Y018458D02*
X038058Y018458D01*
X038058Y018284D01*
X037490Y018284D01*
X037490Y018458D01*
X037490Y018326D02*
X038058Y018326D01*
X038058Y018368D02*
X037490Y018368D01*
X037490Y018410D02*
X038058Y018410D01*
X038058Y018452D02*
X037490Y018452D01*
X037490Y018143D02*
X038058Y018143D01*
X038058Y017969D01*
X037490Y017969D01*
X037490Y018143D01*
X037490Y018011D02*
X038058Y018011D01*
X038058Y018053D02*
X037490Y018053D01*
X037490Y018095D02*
X038058Y018095D01*
X038058Y018137D02*
X037490Y018137D01*
X037490Y017828D02*
X038058Y017828D01*
X038058Y017654D01*
X037490Y017654D01*
X037490Y017828D01*
X037490Y017696D02*
X038058Y017696D01*
X038058Y017738D02*
X037490Y017738D01*
X037490Y017780D02*
X038058Y017780D01*
X038058Y017822D02*
X037490Y017822D01*
X037490Y017513D02*
X038058Y017513D01*
X038058Y017339D01*
X037490Y017339D01*
X037490Y017513D01*
X037490Y017381D02*
X038058Y017381D01*
X038058Y017423D02*
X037490Y017423D01*
X037490Y017465D02*
X038058Y017465D01*
X038058Y017507D02*
X037490Y017507D01*
X037490Y017198D02*
X038058Y017198D01*
X038058Y017024D01*
X037490Y017024D01*
X037490Y017198D01*
X037490Y017066D02*
X038058Y017066D01*
X038058Y017108D02*
X037490Y017108D01*
X037490Y017150D02*
X038058Y017150D01*
X038058Y017192D02*
X037490Y017192D01*
D20*
X044543Y020774D03*
D21*
X045543Y020774D03*
X046543Y020774D03*
X046543Y021774D03*
X045543Y021774D03*
X044543Y021774D03*
D22*
X044474Y015180D03*
X044474Y014180D03*
X044474Y013180D03*
X044474Y012180D03*
X044474Y011180D03*
X044474Y010180D03*
X044474Y009180D03*
X044474Y008180D03*
X028726Y008180D03*
X028726Y009180D03*
X028726Y010180D03*
X028726Y011180D03*
X028726Y012180D03*
X028726Y013180D03*
X028726Y014180D03*
X028726Y015180D03*
D23*
X046119Y014454D02*
X046374Y014199D01*
X047081Y014906D02*
X046826Y015161D01*
X049420Y015680D02*
X049780Y015680D01*
X049780Y016680D02*
X049420Y016680D01*
X049420Y017680D02*
X049780Y017680D01*
X049780Y018680D02*
X049420Y018680D01*
X049420Y019680D02*
X049780Y019680D01*
X049780Y020680D02*
X049420Y020680D01*
X051326Y009161D02*
X051581Y008906D01*
X050874Y008199D02*
X050619Y008454D01*
D24*
X045807Y006875D02*
X045807Y006485D01*
X045259Y006485D01*
X045259Y006875D01*
X045807Y006875D01*
X045807Y006527D02*
X045259Y006527D01*
X045259Y006569D02*
X045807Y006569D01*
X045807Y006611D02*
X045259Y006611D01*
X045259Y006653D02*
X045807Y006653D01*
X045807Y006695D02*
X045259Y006695D01*
X045259Y006737D02*
X045807Y006737D01*
X045807Y006779D02*
X045259Y006779D01*
X045259Y006821D02*
X045807Y006821D01*
X045807Y006863D02*
X045259Y006863D01*
X044941Y006859D02*
X044941Y007249D01*
X044941Y006859D02*
X044393Y006859D01*
X044393Y007249D01*
X044941Y007249D01*
X044941Y006901D02*
X044393Y006901D01*
X044393Y006943D02*
X044941Y006943D01*
X044941Y006985D02*
X044393Y006985D01*
X044393Y007027D02*
X044941Y007027D01*
X044941Y007069D02*
X044393Y007069D01*
X044393Y007111D02*
X044941Y007111D01*
X044941Y007153D02*
X044393Y007153D01*
X044393Y007195D02*
X044941Y007195D01*
X044941Y007237D02*
X044393Y007237D01*
X044941Y006501D02*
X044941Y006111D01*
X044393Y006111D01*
X044393Y006501D01*
X044941Y006501D01*
X044941Y006153D02*
X044393Y006153D01*
X044393Y006195D02*
X044941Y006195D01*
X044941Y006237D02*
X044393Y006237D01*
X044393Y006279D02*
X044941Y006279D01*
X044941Y006321D02*
X044393Y006321D01*
X044393Y006363D02*
X044941Y006363D01*
X044941Y006405D02*
X044393Y006405D01*
X044393Y006447D02*
X044941Y006447D01*
X044941Y006489D02*
X044393Y006489D01*
X028603Y018891D02*
X028603Y019281D01*
X030411Y019281D01*
X030411Y018891D01*
X028603Y018891D01*
X028603Y018933D02*
X030411Y018933D01*
X030411Y018975D02*
X028603Y018975D01*
X028603Y019017D02*
X030411Y019017D01*
X030411Y019059D02*
X028603Y019059D01*
X028603Y019101D02*
X030411Y019101D01*
X030411Y019143D02*
X028603Y019143D01*
X028603Y019185D02*
X030411Y019185D01*
X030411Y019227D02*
X028603Y019227D01*
X028603Y019269D02*
X030411Y019269D01*
X028603Y019679D02*
X028603Y020069D01*
X030411Y020069D01*
X030411Y019679D01*
X028603Y019679D01*
X028603Y019721D02*
X030411Y019721D01*
X030411Y019763D02*
X028603Y019763D01*
X028603Y019805D02*
X030411Y019805D01*
X030411Y019847D02*
X028603Y019847D01*
X028603Y019889D02*
X030411Y019889D01*
X030411Y019931D02*
X028603Y019931D01*
X028603Y019973D02*
X030411Y019973D01*
X030411Y020015D02*
X028603Y020015D01*
X028603Y020057D02*
X030411Y020057D01*
D25*
X008766Y020980D03*
X007034Y020980D03*
D26*
X001706Y012054D03*
X001706Y011306D03*
D27*
X019480Y007231D02*
X020420Y007231D01*
X019480Y007231D02*
X019480Y008229D01*
X020420Y008229D01*
X020420Y007231D01*
X020420Y007334D02*
X019480Y007334D01*
X019480Y007437D02*
X020420Y007437D01*
X020420Y007540D02*
X019480Y007540D01*
X019480Y007643D02*
X020420Y007643D01*
X020420Y007746D02*
X019480Y007746D01*
X019480Y007849D02*
X020420Y007849D01*
X020420Y007952D02*
X019480Y007952D01*
X019480Y008055D02*
X020420Y008055D01*
X020420Y008158D02*
X019480Y008158D01*
X021980Y007231D02*
X022920Y007231D01*
X021980Y007231D02*
X021980Y008229D01*
X022920Y008229D01*
X022920Y007231D01*
X022920Y007334D02*
X021980Y007334D01*
X021980Y007437D02*
X022920Y007437D01*
X022920Y007540D02*
X021980Y007540D01*
X021980Y007643D02*
X022920Y007643D01*
X022920Y007746D02*
X021980Y007746D01*
X021980Y007849D02*
X022920Y007849D01*
X022920Y007952D02*
X021980Y007952D01*
X021980Y008055D02*
X022920Y008055D01*
X022920Y008158D02*
X021980Y008158D01*
X031130Y020179D02*
X032070Y020179D01*
X032070Y019181D01*
X031130Y019181D01*
X031130Y020179D01*
X031130Y019284D02*
X032070Y019284D01*
X032070Y019387D02*
X031130Y019387D01*
X031130Y019490D02*
X032070Y019490D01*
X032070Y019593D02*
X031130Y019593D01*
X031130Y019696D02*
X032070Y019696D01*
X032070Y019799D02*
X031130Y019799D01*
X031130Y019902D02*
X032070Y019902D01*
X032070Y020005D02*
X031130Y020005D01*
X031130Y020108D02*
X032070Y020108D01*
X033630Y020179D02*
X034570Y020179D01*
X034570Y019181D01*
X033630Y019181D01*
X033630Y020179D01*
X033630Y019284D02*
X034570Y019284D01*
X034570Y019387D02*
X033630Y019387D01*
X033630Y019490D02*
X034570Y019490D01*
X034570Y019593D02*
X033630Y019593D01*
X033630Y019696D02*
X034570Y019696D01*
X034570Y019799D02*
X033630Y019799D01*
X033630Y019902D02*
X034570Y019902D01*
X034570Y020005D02*
X033630Y020005D01*
X033630Y020108D02*
X034570Y020108D01*
D28*
X037605Y015568D02*
X037605Y014792D01*
X037605Y015568D02*
X038067Y015568D01*
X038067Y014792D01*
X037605Y014792D01*
X037605Y014842D02*
X038067Y014842D01*
X038067Y014892D02*
X037605Y014892D01*
X037605Y014942D02*
X038067Y014942D01*
X038067Y014992D02*
X037605Y014992D01*
X037605Y015042D02*
X038067Y015042D01*
X038067Y015092D02*
X037605Y015092D01*
X037605Y015142D02*
X038067Y015142D01*
X038067Y015192D02*
X037605Y015192D01*
X037605Y015242D02*
X038067Y015242D01*
X038067Y015292D02*
X037605Y015292D01*
X037605Y015342D02*
X038067Y015342D01*
X038067Y015392D02*
X037605Y015392D01*
X037605Y015442D02*
X038067Y015442D01*
X038067Y015492D02*
X037605Y015492D01*
X037605Y015542D02*
X038067Y015542D01*
D29*
X035609Y015655D02*
X035609Y014705D01*
X035609Y015655D02*
X036283Y015655D01*
X036283Y014705D01*
X035609Y014705D01*
X035609Y014779D02*
X036283Y014779D01*
X036283Y014853D02*
X035609Y014853D01*
X035609Y014927D02*
X036283Y014927D01*
X036283Y015001D02*
X035609Y015001D01*
X035609Y015075D02*
X036283Y015075D01*
X036283Y015149D02*
X035609Y015149D01*
X035609Y015223D02*
X036283Y015223D01*
X036283Y015297D02*
X035609Y015297D01*
X035609Y015371D02*
X036283Y015371D01*
X036283Y015445D02*
X035609Y015445D01*
X035609Y015519D02*
X036283Y015519D01*
X036283Y015593D02*
X035609Y015593D01*
D30*
X044701Y017071D02*
X044701Y017815D01*
X044701Y017071D02*
X043799Y017071D01*
X043799Y017815D01*
X044701Y017815D01*
X044701Y017153D02*
X043799Y017153D01*
X043799Y017235D02*
X044701Y017235D01*
X044701Y017317D02*
X043799Y017317D01*
X043799Y017399D02*
X044701Y017399D01*
X044701Y017481D02*
X043799Y017481D01*
X043799Y017563D02*
X044701Y017563D01*
X044701Y017645D02*
X043799Y017645D01*
X043799Y017727D02*
X044701Y017727D01*
X044701Y017809D02*
X043799Y017809D01*
X044701Y018645D02*
X044701Y019389D01*
X044701Y018645D02*
X043799Y018645D01*
X043799Y019389D01*
X044701Y019389D01*
X044701Y018727D02*
X043799Y018727D01*
X043799Y018809D02*
X044701Y018809D01*
X044701Y018891D02*
X043799Y018891D01*
X043799Y018973D02*
X044701Y018973D01*
X044701Y019055D02*
X043799Y019055D01*
X043799Y019137D02*
X044701Y019137D01*
X044701Y019219D02*
X043799Y019219D01*
X043799Y019301D02*
X044701Y019301D01*
X044701Y019383D02*
X043799Y019383D01*
D31*
X051590Y019405D02*
X051590Y019855D01*
X052210Y019855D01*
X052210Y019405D01*
X051590Y019405D01*
X051590Y019454D02*
X052210Y019454D01*
X052210Y019503D02*
X051590Y019503D01*
X051590Y019552D02*
X052210Y019552D01*
X052210Y019601D02*
X051590Y019601D01*
X051590Y019650D02*
X052210Y019650D01*
X052210Y019699D02*
X051590Y019699D01*
X051590Y019748D02*
X052210Y019748D01*
X052210Y019797D02*
X051590Y019797D01*
X051590Y019846D02*
X052210Y019846D01*
X051590Y020005D02*
X051590Y020455D01*
X052210Y020455D01*
X052210Y020005D01*
X051590Y020005D01*
X051590Y020054D02*
X052210Y020054D01*
X052210Y020103D02*
X051590Y020103D01*
X051590Y020152D02*
X052210Y020152D01*
X052210Y020201D02*
X051590Y020201D01*
X051590Y020250D02*
X052210Y020250D01*
X052210Y020299D02*
X051590Y020299D01*
X051590Y020348D02*
X052210Y020348D01*
X052210Y020397D02*
X051590Y020397D01*
X051590Y020446D02*
X052210Y020446D01*
X051590Y019255D02*
X051590Y018805D01*
X051590Y019255D02*
X052210Y019255D01*
X052210Y018805D01*
X051590Y018805D01*
X051590Y018854D02*
X052210Y018854D01*
X052210Y018903D02*
X051590Y018903D01*
X051590Y018952D02*
X052210Y018952D01*
X052210Y019001D02*
X051590Y019001D01*
X051590Y019050D02*
X052210Y019050D01*
X052210Y019099D02*
X051590Y019099D01*
X051590Y019148D02*
X052210Y019148D01*
X052210Y019197D02*
X051590Y019197D01*
X051590Y019246D02*
X052210Y019246D01*
X051590Y017605D02*
X051590Y017155D01*
X051590Y017605D02*
X052210Y017605D01*
X052210Y017155D01*
X051590Y017155D01*
X051590Y017204D02*
X052210Y017204D01*
X052210Y017253D02*
X051590Y017253D01*
X051590Y017302D02*
X052210Y017302D01*
X052210Y017351D02*
X051590Y017351D01*
X051590Y017400D02*
X052210Y017400D01*
X052210Y017449D02*
X051590Y017449D01*
X051590Y017498D02*
X052210Y017498D01*
X052210Y017547D02*
X051590Y017547D01*
X051590Y017596D02*
X052210Y017596D01*
X051590Y017005D02*
X051590Y016555D01*
X051590Y017005D02*
X052210Y017005D01*
X052210Y016555D01*
X051590Y016555D01*
X051590Y016604D02*
X052210Y016604D01*
X052210Y016653D02*
X051590Y016653D01*
X051590Y016702D02*
X052210Y016702D01*
X052210Y016751D02*
X051590Y016751D01*
X051590Y016800D02*
X052210Y016800D01*
X052210Y016849D02*
X051590Y016849D01*
X051590Y016898D02*
X052210Y016898D01*
X052210Y016947D02*
X051590Y016947D01*
X051590Y016996D02*
X052210Y016996D01*
X051590Y016405D02*
X051590Y015955D01*
X051590Y016405D02*
X052210Y016405D01*
X052210Y015955D01*
X051590Y015955D01*
X051590Y016004D02*
X052210Y016004D01*
X052210Y016053D02*
X051590Y016053D01*
X051590Y016102D02*
X052210Y016102D01*
X052210Y016151D02*
X051590Y016151D01*
X051590Y016200D02*
X052210Y016200D01*
X052210Y016249D02*
X051590Y016249D01*
X051590Y016298D02*
X052210Y016298D01*
X052210Y016347D02*
X051590Y016347D01*
X051590Y016396D02*
X052210Y016396D01*
D32*
X023600Y020680D03*
X019800Y020730D03*
D33*
X048400Y011180D03*
X049800Y012180D03*
D34*
X042850Y022180D03*
X041100Y022180D03*
X039850Y022180D03*
M02*
