G75*
%MOIN*%
%OFA0B0*%
%FSLAX24Y24*%
%IPPOS*%
%LPD*%
%AMOC8*
5,1,8,0,0,1.08239X$1,22.5*
%
%ADD10C,0.0790*%
%ADD11C,0.1090*%
%ADD12C,0.0552*%
%ADD13C,0.0043*%
%ADD14R,0.0780X0.0780*%
%ADD15OC8,0.0780*%
%ADD16C,0.0067*%
%ADD17C,0.0043*%
%ADD18C,0.0390*%
%ADD19C,0.0104*%
%ADD20C,0.0047*%
%ADD21C,0.0083*%
%ADD22C,0.0555*%
%ADD23C,0.0640*%
D10*
X013090Y003256D03*
D11*
X012086Y002252D03*
X014094Y002252D03*
X014094Y004260D03*
X012086Y004260D03*
D12*
X002405Y007306D03*
X010405Y011306D03*
D13*
X019788Y011334D02*
X020356Y011334D01*
X019788Y011334D02*
X019788Y011508D01*
X020356Y011508D01*
X020356Y011334D01*
X020356Y011376D02*
X019788Y011376D01*
X019788Y011418D02*
X020356Y011418D01*
X020356Y011460D02*
X019788Y011460D01*
X019788Y011502D02*
X020356Y011502D01*
X020356Y011649D02*
X019788Y011649D01*
X019788Y011823D01*
X020356Y011823D01*
X020356Y011649D01*
X020356Y011691D02*
X019788Y011691D01*
X019788Y011733D02*
X020356Y011733D01*
X020356Y011775D02*
X019788Y011775D01*
X019788Y011817D02*
X020356Y011817D01*
X020356Y011964D02*
X019788Y011964D01*
X019788Y012138D01*
X020356Y012138D01*
X020356Y011964D01*
X020356Y012006D02*
X019788Y012006D01*
X019788Y012048D02*
X020356Y012048D01*
X020356Y012090D02*
X019788Y012090D01*
X019788Y012132D02*
X020356Y012132D01*
X020356Y012279D02*
X019788Y012279D01*
X019788Y012453D01*
X020356Y012453D01*
X020356Y012279D01*
X020356Y012321D02*
X019788Y012321D01*
X019788Y012363D02*
X020356Y012363D01*
X020356Y012405D02*
X019788Y012405D01*
X019788Y012447D02*
X020356Y012447D01*
X020356Y012594D02*
X019788Y012594D01*
X019788Y012768D01*
X020356Y012768D01*
X020356Y012594D01*
X020356Y012636D02*
X019788Y012636D01*
X019788Y012678D02*
X020356Y012678D01*
X020356Y012720D02*
X019788Y012720D01*
X019788Y012762D02*
X020356Y012762D01*
X020694Y013106D02*
X020868Y013106D01*
X020694Y013106D02*
X020694Y013674D01*
X020868Y013674D01*
X020868Y013106D01*
X020868Y013148D02*
X020694Y013148D01*
X020694Y013190D02*
X020868Y013190D01*
X020868Y013232D02*
X020694Y013232D01*
X020694Y013274D02*
X020868Y013274D01*
X020868Y013316D02*
X020694Y013316D01*
X020694Y013358D02*
X020868Y013358D01*
X020868Y013400D02*
X020694Y013400D01*
X020694Y013442D02*
X020868Y013442D01*
X020868Y013484D02*
X020694Y013484D01*
X020694Y013526D02*
X020868Y013526D01*
X020868Y013568D02*
X020694Y013568D01*
X020694Y013610D02*
X020868Y013610D01*
X020868Y013652D02*
X020694Y013652D01*
X021009Y013106D02*
X021183Y013106D01*
X021009Y013106D02*
X021009Y013674D01*
X021183Y013674D01*
X021183Y013106D01*
X021183Y013148D02*
X021009Y013148D01*
X021009Y013190D02*
X021183Y013190D01*
X021183Y013232D02*
X021009Y013232D01*
X021009Y013274D02*
X021183Y013274D01*
X021183Y013316D02*
X021009Y013316D01*
X021009Y013358D02*
X021183Y013358D01*
X021183Y013400D02*
X021009Y013400D01*
X021009Y013442D02*
X021183Y013442D01*
X021183Y013484D02*
X021009Y013484D01*
X021009Y013526D02*
X021183Y013526D01*
X021183Y013568D02*
X021009Y013568D01*
X021009Y013610D02*
X021183Y013610D01*
X021183Y013652D02*
X021009Y013652D01*
X021323Y013106D02*
X021497Y013106D01*
X021323Y013106D02*
X021323Y013674D01*
X021497Y013674D01*
X021497Y013106D01*
X021497Y013148D02*
X021323Y013148D01*
X021323Y013190D02*
X021497Y013190D01*
X021497Y013232D02*
X021323Y013232D01*
X021323Y013274D02*
X021497Y013274D01*
X021497Y013316D02*
X021323Y013316D01*
X021323Y013358D02*
X021497Y013358D01*
X021497Y013400D02*
X021323Y013400D01*
X021323Y013442D02*
X021497Y013442D01*
X021497Y013484D02*
X021323Y013484D01*
X021323Y013526D02*
X021497Y013526D01*
X021497Y013568D02*
X021323Y013568D01*
X021323Y013610D02*
X021497Y013610D01*
X021497Y013652D02*
X021323Y013652D01*
X021638Y013106D02*
X021812Y013106D01*
X021638Y013106D02*
X021638Y013674D01*
X021812Y013674D01*
X021812Y013106D01*
X021812Y013148D02*
X021638Y013148D01*
X021638Y013190D02*
X021812Y013190D01*
X021812Y013232D02*
X021638Y013232D01*
X021638Y013274D02*
X021812Y013274D01*
X021812Y013316D02*
X021638Y013316D01*
X021638Y013358D02*
X021812Y013358D01*
X021812Y013400D02*
X021638Y013400D01*
X021638Y013442D02*
X021812Y013442D01*
X021812Y013484D02*
X021638Y013484D01*
X021638Y013526D02*
X021812Y013526D01*
X021812Y013568D02*
X021638Y013568D01*
X021638Y013610D02*
X021812Y013610D01*
X021812Y013652D02*
X021638Y013652D01*
X021953Y013106D02*
X022127Y013106D01*
X021953Y013106D02*
X021953Y013674D01*
X022127Y013674D01*
X022127Y013106D01*
X022127Y013148D02*
X021953Y013148D01*
X021953Y013190D02*
X022127Y013190D01*
X022127Y013232D02*
X021953Y013232D01*
X021953Y013274D02*
X022127Y013274D01*
X022127Y013316D02*
X021953Y013316D01*
X021953Y013358D02*
X022127Y013358D01*
X022127Y013400D02*
X021953Y013400D01*
X021953Y013442D02*
X022127Y013442D01*
X022127Y013484D02*
X021953Y013484D01*
X021953Y013526D02*
X022127Y013526D01*
X022127Y013568D02*
X021953Y013568D01*
X021953Y013610D02*
X022127Y013610D01*
X022127Y013652D02*
X021953Y013652D01*
X022268Y013106D02*
X022442Y013106D01*
X022268Y013106D02*
X022268Y013674D01*
X022442Y013674D01*
X022442Y013106D01*
X022442Y013148D02*
X022268Y013148D01*
X022268Y013190D02*
X022442Y013190D01*
X022442Y013232D02*
X022268Y013232D01*
X022268Y013274D02*
X022442Y013274D01*
X022442Y013316D02*
X022268Y013316D01*
X022268Y013358D02*
X022442Y013358D01*
X022442Y013400D02*
X022268Y013400D01*
X022268Y013442D02*
X022442Y013442D01*
X022442Y013484D02*
X022268Y013484D01*
X022268Y013526D02*
X022442Y013526D01*
X022442Y013568D02*
X022268Y013568D01*
X022268Y013610D02*
X022442Y013610D01*
X022442Y013652D02*
X022268Y013652D01*
X022583Y013106D02*
X022757Y013106D01*
X022583Y013106D02*
X022583Y013674D01*
X022757Y013674D01*
X022757Y013106D01*
X022757Y013148D02*
X022583Y013148D01*
X022583Y013190D02*
X022757Y013190D01*
X022757Y013232D02*
X022583Y013232D01*
X022583Y013274D02*
X022757Y013274D01*
X022757Y013316D02*
X022583Y013316D01*
X022583Y013358D02*
X022757Y013358D01*
X022757Y013400D02*
X022583Y013400D01*
X022583Y013442D02*
X022757Y013442D01*
X022757Y013484D02*
X022583Y013484D01*
X022583Y013526D02*
X022757Y013526D01*
X022757Y013568D02*
X022583Y013568D01*
X022583Y013610D02*
X022757Y013610D01*
X022757Y013652D02*
X022583Y013652D01*
X022898Y013106D02*
X023072Y013106D01*
X022898Y013106D02*
X022898Y013674D01*
X023072Y013674D01*
X023072Y013106D01*
X023072Y013148D02*
X022898Y013148D01*
X022898Y013190D02*
X023072Y013190D01*
X023072Y013232D02*
X022898Y013232D01*
X022898Y013274D02*
X023072Y013274D01*
X023072Y013316D02*
X022898Y013316D01*
X022898Y013358D02*
X023072Y013358D01*
X023072Y013400D02*
X022898Y013400D01*
X022898Y013442D02*
X023072Y013442D01*
X023072Y013484D02*
X022898Y013484D01*
X022898Y013526D02*
X023072Y013526D01*
X023072Y013568D02*
X022898Y013568D01*
X022898Y013610D02*
X023072Y013610D01*
X023072Y013652D02*
X022898Y013652D01*
X023213Y013106D02*
X023387Y013106D01*
X023213Y013106D02*
X023213Y013674D01*
X023387Y013674D01*
X023387Y013106D01*
X023387Y013148D02*
X023213Y013148D01*
X023213Y013190D02*
X023387Y013190D01*
X023387Y013232D02*
X023213Y013232D01*
X023213Y013274D02*
X023387Y013274D01*
X023387Y013316D02*
X023213Y013316D01*
X023213Y013358D02*
X023387Y013358D01*
X023387Y013400D02*
X023213Y013400D01*
X023213Y013442D02*
X023387Y013442D01*
X023387Y013484D02*
X023213Y013484D01*
X023213Y013526D02*
X023387Y013526D01*
X023387Y013568D02*
X023213Y013568D01*
X023213Y013610D02*
X023387Y013610D01*
X023387Y013652D02*
X023213Y013652D01*
X023528Y013106D02*
X023702Y013106D01*
X023528Y013106D02*
X023528Y013674D01*
X023702Y013674D01*
X023702Y013106D01*
X023702Y013148D02*
X023528Y013148D01*
X023528Y013190D02*
X023702Y013190D01*
X023702Y013232D02*
X023528Y013232D01*
X023528Y013274D02*
X023702Y013274D01*
X023702Y013316D02*
X023528Y013316D01*
X023528Y013358D02*
X023702Y013358D01*
X023702Y013400D02*
X023528Y013400D01*
X023528Y013442D02*
X023702Y013442D01*
X023702Y013484D02*
X023528Y013484D01*
X023528Y013526D02*
X023702Y013526D01*
X023702Y013568D02*
X023528Y013568D01*
X023528Y013610D02*
X023702Y013610D01*
X023702Y013652D02*
X023528Y013652D01*
X023843Y013106D02*
X024017Y013106D01*
X023843Y013106D02*
X023843Y013674D01*
X024017Y013674D01*
X024017Y013106D01*
X024017Y013148D02*
X023843Y013148D01*
X023843Y013190D02*
X024017Y013190D01*
X024017Y013232D02*
X023843Y013232D01*
X023843Y013274D02*
X024017Y013274D01*
X024017Y013316D02*
X023843Y013316D01*
X023843Y013358D02*
X024017Y013358D01*
X024017Y013400D02*
X023843Y013400D01*
X023843Y013442D02*
X024017Y013442D01*
X024017Y013484D02*
X023843Y013484D01*
X023843Y013526D02*
X024017Y013526D01*
X024017Y013568D02*
X023843Y013568D01*
X023843Y013610D02*
X024017Y013610D01*
X024017Y013652D02*
X023843Y013652D01*
X024355Y012594D02*
X024923Y012594D01*
X024355Y012594D02*
X024355Y012768D01*
X024923Y012768D01*
X024923Y012594D01*
X024923Y012636D02*
X024355Y012636D01*
X024355Y012678D02*
X024923Y012678D01*
X024923Y012720D02*
X024355Y012720D01*
X024355Y012762D02*
X024923Y012762D01*
X024923Y012279D02*
X024355Y012279D01*
X024355Y012453D01*
X024923Y012453D01*
X024923Y012279D01*
X024923Y012321D02*
X024355Y012321D01*
X024355Y012363D02*
X024923Y012363D01*
X024923Y012405D02*
X024355Y012405D01*
X024355Y012447D02*
X024923Y012447D01*
X024923Y011964D02*
X024355Y011964D01*
X024355Y012138D01*
X024923Y012138D01*
X024923Y011964D01*
X024923Y012006D02*
X024355Y012006D01*
X024355Y012048D02*
X024923Y012048D01*
X024923Y012090D02*
X024355Y012090D01*
X024355Y012132D02*
X024923Y012132D01*
X024923Y011649D02*
X024355Y011649D01*
X024355Y011823D01*
X024923Y011823D01*
X024923Y011649D01*
X024923Y011691D02*
X024355Y011691D01*
X024355Y011733D02*
X024923Y011733D01*
X024923Y011775D02*
X024355Y011775D01*
X024355Y011817D02*
X024923Y011817D01*
X024923Y011334D02*
X024355Y011334D01*
X024355Y011508D01*
X024923Y011508D01*
X024923Y011334D01*
X024923Y011376D02*
X024355Y011376D01*
X024355Y011418D02*
X024923Y011418D01*
X024923Y011460D02*
X024355Y011460D01*
X024355Y011502D02*
X024923Y011502D01*
X024923Y011019D02*
X024355Y011019D01*
X024355Y011193D01*
X024923Y011193D01*
X024923Y011019D01*
X024923Y011061D02*
X024355Y011061D01*
X024355Y011103D02*
X024923Y011103D01*
X024923Y011145D02*
X024355Y011145D01*
X024355Y011187D02*
X024923Y011187D01*
X024923Y010704D02*
X024355Y010704D01*
X024355Y010878D01*
X024923Y010878D01*
X024923Y010704D01*
X024923Y010746D02*
X024355Y010746D01*
X024355Y010788D02*
X024923Y010788D01*
X024923Y010830D02*
X024355Y010830D01*
X024355Y010872D02*
X024923Y010872D01*
X024923Y010389D02*
X024355Y010389D01*
X024355Y010563D01*
X024923Y010563D01*
X024923Y010389D01*
X024923Y010431D02*
X024355Y010431D01*
X024355Y010473D02*
X024923Y010473D01*
X024923Y010515D02*
X024355Y010515D01*
X024355Y010557D02*
X024923Y010557D01*
X024923Y010074D02*
X024355Y010074D01*
X024355Y010248D01*
X024923Y010248D01*
X024923Y010074D01*
X024923Y010116D02*
X024355Y010116D01*
X024355Y010158D02*
X024923Y010158D01*
X024923Y010200D02*
X024355Y010200D01*
X024355Y010242D02*
X024923Y010242D01*
X024923Y009759D02*
X024355Y009759D01*
X024355Y009933D01*
X024923Y009933D01*
X024923Y009759D01*
X024923Y009801D02*
X024355Y009801D01*
X024355Y009843D02*
X024923Y009843D01*
X024923Y009885D02*
X024355Y009885D01*
X024355Y009927D02*
X024923Y009927D01*
X024923Y009444D02*
X024355Y009444D01*
X024355Y009618D01*
X024923Y009618D01*
X024923Y009444D01*
X024923Y009486D02*
X024355Y009486D01*
X024355Y009528D02*
X024923Y009528D01*
X024923Y009570D02*
X024355Y009570D01*
X024355Y009612D02*
X024923Y009612D01*
X024017Y008539D02*
X023843Y008539D01*
X023843Y009107D01*
X024017Y009107D01*
X024017Y008539D01*
X024017Y008581D02*
X023843Y008581D01*
X023843Y008623D02*
X024017Y008623D01*
X024017Y008665D02*
X023843Y008665D01*
X023843Y008707D02*
X024017Y008707D01*
X024017Y008749D02*
X023843Y008749D01*
X023843Y008791D02*
X024017Y008791D01*
X024017Y008833D02*
X023843Y008833D01*
X023843Y008875D02*
X024017Y008875D01*
X024017Y008917D02*
X023843Y008917D01*
X023843Y008959D02*
X024017Y008959D01*
X024017Y009001D02*
X023843Y009001D01*
X023843Y009043D02*
X024017Y009043D01*
X024017Y009085D02*
X023843Y009085D01*
X023702Y008539D02*
X023528Y008539D01*
X023528Y009107D01*
X023702Y009107D01*
X023702Y008539D01*
X023702Y008581D02*
X023528Y008581D01*
X023528Y008623D02*
X023702Y008623D01*
X023702Y008665D02*
X023528Y008665D01*
X023528Y008707D02*
X023702Y008707D01*
X023702Y008749D02*
X023528Y008749D01*
X023528Y008791D02*
X023702Y008791D01*
X023702Y008833D02*
X023528Y008833D01*
X023528Y008875D02*
X023702Y008875D01*
X023702Y008917D02*
X023528Y008917D01*
X023528Y008959D02*
X023702Y008959D01*
X023702Y009001D02*
X023528Y009001D01*
X023528Y009043D02*
X023702Y009043D01*
X023702Y009085D02*
X023528Y009085D01*
X023387Y008539D02*
X023213Y008539D01*
X023213Y009107D01*
X023387Y009107D01*
X023387Y008539D01*
X023387Y008581D02*
X023213Y008581D01*
X023213Y008623D02*
X023387Y008623D01*
X023387Y008665D02*
X023213Y008665D01*
X023213Y008707D02*
X023387Y008707D01*
X023387Y008749D02*
X023213Y008749D01*
X023213Y008791D02*
X023387Y008791D01*
X023387Y008833D02*
X023213Y008833D01*
X023213Y008875D02*
X023387Y008875D01*
X023387Y008917D02*
X023213Y008917D01*
X023213Y008959D02*
X023387Y008959D01*
X023387Y009001D02*
X023213Y009001D01*
X023213Y009043D02*
X023387Y009043D01*
X023387Y009085D02*
X023213Y009085D01*
X023072Y008539D02*
X022898Y008539D01*
X022898Y009107D01*
X023072Y009107D01*
X023072Y008539D01*
X023072Y008581D02*
X022898Y008581D01*
X022898Y008623D02*
X023072Y008623D01*
X023072Y008665D02*
X022898Y008665D01*
X022898Y008707D02*
X023072Y008707D01*
X023072Y008749D02*
X022898Y008749D01*
X022898Y008791D02*
X023072Y008791D01*
X023072Y008833D02*
X022898Y008833D01*
X022898Y008875D02*
X023072Y008875D01*
X023072Y008917D02*
X022898Y008917D01*
X022898Y008959D02*
X023072Y008959D01*
X023072Y009001D02*
X022898Y009001D01*
X022898Y009043D02*
X023072Y009043D01*
X023072Y009085D02*
X022898Y009085D01*
X022757Y008539D02*
X022583Y008539D01*
X022583Y009107D01*
X022757Y009107D01*
X022757Y008539D01*
X022757Y008581D02*
X022583Y008581D01*
X022583Y008623D02*
X022757Y008623D01*
X022757Y008665D02*
X022583Y008665D01*
X022583Y008707D02*
X022757Y008707D01*
X022757Y008749D02*
X022583Y008749D01*
X022583Y008791D02*
X022757Y008791D01*
X022757Y008833D02*
X022583Y008833D01*
X022583Y008875D02*
X022757Y008875D01*
X022757Y008917D02*
X022583Y008917D01*
X022583Y008959D02*
X022757Y008959D01*
X022757Y009001D02*
X022583Y009001D01*
X022583Y009043D02*
X022757Y009043D01*
X022757Y009085D02*
X022583Y009085D01*
X022442Y008539D02*
X022268Y008539D01*
X022268Y009107D01*
X022442Y009107D01*
X022442Y008539D01*
X022442Y008581D02*
X022268Y008581D01*
X022268Y008623D02*
X022442Y008623D01*
X022442Y008665D02*
X022268Y008665D01*
X022268Y008707D02*
X022442Y008707D01*
X022442Y008749D02*
X022268Y008749D01*
X022268Y008791D02*
X022442Y008791D01*
X022442Y008833D02*
X022268Y008833D01*
X022268Y008875D02*
X022442Y008875D01*
X022442Y008917D02*
X022268Y008917D01*
X022268Y008959D02*
X022442Y008959D01*
X022442Y009001D02*
X022268Y009001D01*
X022268Y009043D02*
X022442Y009043D01*
X022442Y009085D02*
X022268Y009085D01*
X022127Y008539D02*
X021953Y008539D01*
X021953Y009107D01*
X022127Y009107D01*
X022127Y008539D01*
X022127Y008581D02*
X021953Y008581D01*
X021953Y008623D02*
X022127Y008623D01*
X022127Y008665D02*
X021953Y008665D01*
X021953Y008707D02*
X022127Y008707D01*
X022127Y008749D02*
X021953Y008749D01*
X021953Y008791D02*
X022127Y008791D01*
X022127Y008833D02*
X021953Y008833D01*
X021953Y008875D02*
X022127Y008875D01*
X022127Y008917D02*
X021953Y008917D01*
X021953Y008959D02*
X022127Y008959D01*
X022127Y009001D02*
X021953Y009001D01*
X021953Y009043D02*
X022127Y009043D01*
X022127Y009085D02*
X021953Y009085D01*
X021812Y008539D02*
X021638Y008539D01*
X021638Y009107D01*
X021812Y009107D01*
X021812Y008539D01*
X021812Y008581D02*
X021638Y008581D01*
X021638Y008623D02*
X021812Y008623D01*
X021812Y008665D02*
X021638Y008665D01*
X021638Y008707D02*
X021812Y008707D01*
X021812Y008749D02*
X021638Y008749D01*
X021638Y008791D02*
X021812Y008791D01*
X021812Y008833D02*
X021638Y008833D01*
X021638Y008875D02*
X021812Y008875D01*
X021812Y008917D02*
X021638Y008917D01*
X021638Y008959D02*
X021812Y008959D01*
X021812Y009001D02*
X021638Y009001D01*
X021638Y009043D02*
X021812Y009043D01*
X021812Y009085D02*
X021638Y009085D01*
X021497Y008539D02*
X021323Y008539D01*
X021323Y009107D01*
X021497Y009107D01*
X021497Y008539D01*
X021497Y008581D02*
X021323Y008581D01*
X021323Y008623D02*
X021497Y008623D01*
X021497Y008665D02*
X021323Y008665D01*
X021323Y008707D02*
X021497Y008707D01*
X021497Y008749D02*
X021323Y008749D01*
X021323Y008791D02*
X021497Y008791D01*
X021497Y008833D02*
X021323Y008833D01*
X021323Y008875D02*
X021497Y008875D01*
X021497Y008917D02*
X021323Y008917D01*
X021323Y008959D02*
X021497Y008959D01*
X021497Y009001D02*
X021323Y009001D01*
X021323Y009043D02*
X021497Y009043D01*
X021497Y009085D02*
X021323Y009085D01*
X021183Y008539D02*
X021009Y008539D01*
X021009Y009107D01*
X021183Y009107D01*
X021183Y008539D01*
X021183Y008581D02*
X021009Y008581D01*
X021009Y008623D02*
X021183Y008623D01*
X021183Y008665D02*
X021009Y008665D01*
X021009Y008707D02*
X021183Y008707D01*
X021183Y008749D02*
X021009Y008749D01*
X021009Y008791D02*
X021183Y008791D01*
X021183Y008833D02*
X021009Y008833D01*
X021009Y008875D02*
X021183Y008875D01*
X021183Y008917D02*
X021009Y008917D01*
X021009Y008959D02*
X021183Y008959D01*
X021183Y009001D02*
X021009Y009001D01*
X021009Y009043D02*
X021183Y009043D01*
X021183Y009085D02*
X021009Y009085D01*
X020868Y008539D02*
X020694Y008539D01*
X020694Y009107D01*
X020868Y009107D01*
X020868Y008539D01*
X020868Y008581D02*
X020694Y008581D01*
X020694Y008623D02*
X020868Y008623D01*
X020868Y008665D02*
X020694Y008665D01*
X020694Y008707D02*
X020868Y008707D01*
X020868Y008749D02*
X020694Y008749D01*
X020694Y008791D02*
X020868Y008791D01*
X020868Y008833D02*
X020694Y008833D01*
X020694Y008875D02*
X020868Y008875D01*
X020868Y008917D02*
X020694Y008917D01*
X020694Y008959D02*
X020868Y008959D01*
X020868Y009001D02*
X020694Y009001D01*
X020694Y009043D02*
X020868Y009043D01*
X020868Y009085D02*
X020694Y009085D01*
X020356Y009444D02*
X019788Y009444D01*
X019788Y009618D01*
X020356Y009618D01*
X020356Y009444D01*
X020356Y009486D02*
X019788Y009486D01*
X019788Y009528D02*
X020356Y009528D01*
X020356Y009570D02*
X019788Y009570D01*
X019788Y009612D02*
X020356Y009612D01*
X020356Y009759D02*
X019788Y009759D01*
X019788Y009933D01*
X020356Y009933D01*
X020356Y009759D01*
X020356Y009801D02*
X019788Y009801D01*
X019788Y009843D02*
X020356Y009843D01*
X020356Y009885D02*
X019788Y009885D01*
X019788Y009927D02*
X020356Y009927D01*
X020356Y010074D02*
X019788Y010074D01*
X019788Y010248D01*
X020356Y010248D01*
X020356Y010074D01*
X020356Y010116D02*
X019788Y010116D01*
X019788Y010158D02*
X020356Y010158D01*
X020356Y010200D02*
X019788Y010200D01*
X019788Y010242D02*
X020356Y010242D01*
X020356Y010389D02*
X019788Y010389D01*
X019788Y010563D01*
X020356Y010563D01*
X020356Y010389D01*
X020356Y010431D02*
X019788Y010431D01*
X019788Y010473D02*
X020356Y010473D01*
X020356Y010515D02*
X019788Y010515D01*
X019788Y010557D02*
X020356Y010557D01*
X020356Y010704D02*
X019788Y010704D01*
X019788Y010878D01*
X020356Y010878D01*
X020356Y010704D01*
X020356Y010746D02*
X019788Y010746D01*
X019788Y010788D02*
X020356Y010788D01*
X020356Y010830D02*
X019788Y010830D01*
X019788Y010872D02*
X020356Y010872D01*
X020356Y011019D02*
X019788Y011019D01*
X019788Y011193D01*
X020356Y011193D01*
X020356Y011019D01*
X020356Y011061D02*
X019788Y011061D01*
X019788Y011103D02*
X020356Y011103D01*
X020356Y011145D02*
X019788Y011145D01*
X019788Y011187D02*
X020356Y011187D01*
D14*
X015255Y015444D03*
D15*
X014255Y015444D03*
X014255Y014444D03*
X015255Y014444D03*
X015255Y013444D03*
X014255Y013444D03*
D16*
X017053Y013002D02*
X017657Y013002D01*
X017053Y013002D02*
X017053Y013684D01*
X017657Y013684D01*
X017657Y013002D01*
X017657Y013068D02*
X017053Y013068D01*
X017053Y013134D02*
X017657Y013134D01*
X017657Y013200D02*
X017053Y013200D01*
X017053Y013266D02*
X017657Y013266D01*
X017657Y013332D02*
X017053Y013332D01*
X017053Y013398D02*
X017657Y013398D01*
X017657Y013464D02*
X017053Y013464D01*
X017053Y013530D02*
X017657Y013530D01*
X017657Y013596D02*
X017053Y013596D01*
X017053Y013662D02*
X017657Y013662D01*
X018156Y013002D02*
X018760Y013002D01*
X018156Y013002D02*
X018156Y013684D01*
X018760Y013684D01*
X018760Y013002D01*
X018760Y013068D02*
X018156Y013068D01*
X018156Y013134D02*
X018760Y013134D01*
X018760Y013200D02*
X018156Y013200D01*
X018156Y013266D02*
X018760Y013266D01*
X018760Y013332D02*
X018156Y013332D01*
X018156Y013398D02*
X018760Y013398D01*
X018760Y013464D02*
X018156Y013464D01*
X018156Y013530D02*
X018760Y013530D01*
X018760Y013596D02*
X018156Y013596D01*
X018156Y013662D02*
X018760Y013662D01*
X018766Y012691D02*
X018162Y012691D01*
X018766Y012691D02*
X018766Y012009D01*
X018162Y012009D01*
X018162Y012691D01*
X018162Y012075D02*
X018766Y012075D01*
X018766Y012141D02*
X018162Y012141D01*
X018162Y012207D02*
X018766Y012207D01*
X018766Y012273D02*
X018162Y012273D01*
X018162Y012339D02*
X018766Y012339D01*
X018766Y012405D02*
X018162Y012405D01*
X018162Y012471D02*
X018766Y012471D01*
X018766Y012537D02*
X018162Y012537D01*
X018162Y012603D02*
X018766Y012603D01*
X018766Y012669D02*
X018162Y012669D01*
X017664Y012691D02*
X017060Y012691D01*
X017664Y012691D02*
X017664Y012009D01*
X017060Y012009D01*
X017060Y012691D01*
X017060Y012075D02*
X017664Y012075D01*
X017664Y012141D02*
X017060Y012141D01*
X017060Y012207D02*
X017664Y012207D01*
X017664Y012273D02*
X017060Y012273D01*
X017060Y012339D02*
X017664Y012339D01*
X017664Y012405D02*
X017060Y012405D01*
X017060Y012471D02*
X017664Y012471D01*
X017664Y012537D02*
X017060Y012537D01*
X017060Y012603D02*
X017664Y012603D01*
X017664Y012669D02*
X017060Y012669D01*
X017060Y009191D02*
X017664Y009191D01*
X017664Y008509D01*
X017060Y008509D01*
X017060Y009191D01*
X017060Y008575D02*
X017664Y008575D01*
X017664Y008641D02*
X017060Y008641D01*
X017060Y008707D02*
X017664Y008707D01*
X017664Y008773D02*
X017060Y008773D01*
X017060Y008839D02*
X017664Y008839D01*
X017664Y008905D02*
X017060Y008905D01*
X017060Y008971D02*
X017664Y008971D01*
X017664Y009037D02*
X017060Y009037D01*
X017060Y009103D02*
X017664Y009103D01*
X017664Y009169D02*
X017060Y009169D01*
X018162Y009191D02*
X018766Y009191D01*
X018766Y008509D01*
X018162Y008509D01*
X018162Y009191D01*
X018162Y008575D02*
X018766Y008575D01*
X018766Y008641D02*
X018162Y008641D01*
X018162Y008707D02*
X018766Y008707D01*
X018766Y008773D02*
X018162Y008773D01*
X018162Y008839D02*
X018766Y008839D01*
X018766Y008905D02*
X018162Y008905D01*
X018162Y008971D02*
X018766Y008971D01*
X018766Y009037D02*
X018162Y009037D01*
X018162Y009103D02*
X018766Y009103D01*
X018766Y009169D02*
X018162Y009169D01*
X022460Y007109D02*
X023064Y007109D01*
X022460Y007109D02*
X022460Y007791D01*
X023064Y007791D01*
X023064Y007109D01*
X023064Y007175D02*
X022460Y007175D01*
X022460Y007241D02*
X023064Y007241D01*
X023064Y007307D02*
X022460Y007307D01*
X022460Y007373D02*
X023064Y007373D01*
X023064Y007439D02*
X022460Y007439D01*
X022460Y007505D02*
X023064Y007505D01*
X023064Y007571D02*
X022460Y007571D01*
X022460Y007637D02*
X023064Y007637D01*
X023064Y007703D02*
X022460Y007703D01*
X022460Y007769D02*
X023064Y007769D01*
X023562Y007109D02*
X024166Y007109D01*
X023562Y007109D02*
X023562Y007791D01*
X024166Y007791D01*
X024166Y007109D01*
X024166Y007175D02*
X023562Y007175D01*
X023562Y007241D02*
X024166Y007241D01*
X024166Y007307D02*
X023562Y007307D01*
X023562Y007373D02*
X024166Y007373D01*
X024166Y007439D02*
X023562Y007439D01*
X023562Y007505D02*
X024166Y007505D01*
X024166Y007571D02*
X023562Y007571D01*
X023562Y007637D02*
X024166Y007637D01*
X024166Y007703D02*
X023562Y007703D01*
X023562Y007769D02*
X024166Y007769D01*
X006259Y013509D02*
X004947Y013509D01*
X004947Y014113D01*
X006259Y014113D01*
X006259Y013509D01*
X006259Y013575D02*
X004947Y013575D01*
X004947Y013641D02*
X006259Y013641D01*
X006259Y013707D02*
X004947Y013707D01*
X004947Y013773D02*
X006259Y013773D01*
X006259Y013839D02*
X004947Y013839D01*
X004947Y013905D02*
X006259Y013905D01*
X006259Y013971D02*
X004947Y013971D01*
X004947Y014037D02*
X006259Y014037D01*
X006259Y014103D02*
X004947Y014103D01*
X004947Y016187D02*
X006259Y016187D01*
X004947Y016187D02*
X004947Y016791D01*
X006259Y016791D01*
X006259Y016187D01*
X006259Y016253D02*
X004947Y016253D01*
X004947Y016319D02*
X006259Y016319D01*
X006259Y016385D02*
X004947Y016385D01*
X004947Y016451D02*
X006259Y016451D01*
X006259Y016517D02*
X004947Y016517D01*
X004947Y016583D02*
X006259Y016583D01*
X006259Y016649D02*
X004947Y016649D01*
X004947Y016715D02*
X006259Y016715D01*
X006259Y016781D02*
X004947Y016781D01*
D17*
X002652Y015739D02*
X002652Y015349D01*
X002652Y015739D02*
X004460Y015739D01*
X004460Y015349D01*
X002652Y015349D01*
X002652Y015391D02*
X004460Y015391D01*
X004460Y015433D02*
X002652Y015433D01*
X002652Y015475D02*
X004460Y015475D01*
X004460Y015517D02*
X002652Y015517D01*
X002652Y015559D02*
X004460Y015559D01*
X004460Y015601D02*
X002652Y015601D01*
X002652Y015643D02*
X004460Y015643D01*
X004460Y015685D02*
X002652Y015685D01*
X002652Y015727D02*
X004460Y015727D01*
X002652Y014951D02*
X002652Y014561D01*
X002652Y014951D02*
X004460Y014951D01*
X004460Y014561D01*
X002652Y014561D01*
X002652Y014603D02*
X004460Y014603D01*
X004460Y014645D02*
X002652Y014645D01*
X002652Y014687D02*
X004460Y014687D01*
X004460Y014729D02*
X002652Y014729D01*
X002652Y014771D02*
X004460Y014771D01*
X004460Y014813D02*
X002652Y014813D01*
X002652Y014855D02*
X004460Y014855D01*
X004460Y014897D02*
X002652Y014897D01*
X002652Y014939D02*
X004460Y014939D01*
X026171Y014014D02*
X026171Y013624D01*
X026171Y014014D02*
X026955Y014014D01*
X026955Y013624D01*
X026171Y013624D01*
X026171Y013666D02*
X026955Y013666D01*
X026955Y013708D02*
X026171Y013708D01*
X026171Y013750D02*
X026955Y013750D01*
X026955Y013792D02*
X026171Y013792D01*
X026171Y013834D02*
X026955Y013834D01*
X026955Y013876D02*
X026171Y013876D01*
X026171Y013918D02*
X026955Y013918D01*
X026955Y013960D02*
X026171Y013960D01*
X026171Y014002D02*
X026955Y014002D01*
X030755Y011545D02*
X031933Y011545D01*
X031933Y011155D01*
X030755Y011155D01*
X030755Y011545D01*
X030755Y011197D02*
X031933Y011197D01*
X031933Y011239D02*
X030755Y011239D01*
X030755Y011281D02*
X031933Y011281D01*
X031933Y011323D02*
X030755Y011323D01*
X030755Y011365D02*
X031933Y011365D01*
X031933Y011407D02*
X030755Y011407D01*
X030755Y011449D02*
X031933Y011449D01*
X031933Y011491D02*
X030755Y011491D01*
X030755Y011533D02*
X031933Y011533D01*
X031933Y010545D02*
X030755Y010545D01*
X031933Y010545D02*
X031933Y010155D01*
X030755Y010155D01*
X030755Y010545D01*
X030755Y010197D02*
X031933Y010197D01*
X031933Y010239D02*
X030755Y010239D01*
X030755Y010281D02*
X031933Y010281D01*
X031933Y010323D02*
X030755Y010323D01*
X030755Y010365D02*
X031933Y010365D01*
X031933Y010407D02*
X030755Y010407D01*
X030755Y010449D02*
X031933Y010449D01*
X031933Y010491D02*
X030755Y010491D01*
X030755Y010533D02*
X031933Y010533D01*
X031933Y009545D02*
X030755Y009545D01*
X031933Y009545D02*
X031933Y009155D01*
X030755Y009155D01*
X030755Y009545D01*
X030755Y009197D02*
X031933Y009197D01*
X031933Y009239D02*
X030755Y009239D01*
X030755Y009281D02*
X031933Y009281D01*
X031933Y009323D02*
X030755Y009323D01*
X030755Y009365D02*
X031933Y009365D01*
X031933Y009407D02*
X030755Y009407D01*
X030755Y009449D02*
X031933Y009449D01*
X031933Y009491D02*
X030755Y009491D01*
X030755Y009533D02*
X031933Y009533D01*
X031933Y008545D02*
X030755Y008545D01*
X031933Y008545D02*
X031933Y008155D01*
X030755Y008155D01*
X030755Y008545D01*
X030755Y008197D02*
X031933Y008197D01*
X031933Y008239D02*
X030755Y008239D01*
X030755Y008281D02*
X031933Y008281D01*
X031933Y008323D02*
X030755Y008323D01*
X030755Y008365D02*
X031933Y008365D01*
X031933Y008407D02*
X030755Y008407D01*
X030755Y008449D02*
X031933Y008449D01*
X031933Y008491D02*
X030755Y008491D01*
X030755Y008533D02*
X031933Y008533D01*
X031933Y007545D02*
X030755Y007545D01*
X031933Y007545D02*
X031933Y007155D01*
X030755Y007155D01*
X030755Y007545D01*
X030755Y007197D02*
X031933Y007197D01*
X031933Y007239D02*
X030755Y007239D01*
X030755Y007281D02*
X031933Y007281D01*
X031933Y007323D02*
X030755Y007323D01*
X030755Y007365D02*
X031933Y007365D01*
X031933Y007407D02*
X030755Y007407D01*
X030755Y007449D02*
X031933Y007449D01*
X031933Y007491D02*
X030755Y007491D01*
X030755Y007533D02*
X031933Y007533D01*
X031933Y006545D02*
X030755Y006545D01*
X031933Y006545D02*
X031933Y006155D01*
X030755Y006155D01*
X030755Y006545D01*
X030755Y006197D02*
X031933Y006197D01*
X031933Y006239D02*
X030755Y006239D01*
X030755Y006281D02*
X031933Y006281D01*
X031933Y006323D02*
X030755Y006323D01*
X030755Y006365D02*
X031933Y006365D01*
X031933Y006407D02*
X030755Y006407D01*
X030755Y006449D02*
X031933Y006449D01*
X031933Y006491D02*
X030755Y006491D01*
X030755Y006533D02*
X031933Y006533D01*
D18*
X002463Y014284D03*
X002463Y016016D03*
D19*
X001064Y015930D02*
X001064Y016870D01*
X002062Y016870D01*
X002062Y015930D01*
X001064Y015930D01*
X001064Y016033D02*
X002062Y016033D01*
X002062Y016136D02*
X001064Y016136D01*
X001064Y016239D02*
X002062Y016239D01*
X002062Y016342D02*
X001064Y016342D01*
X001064Y016445D02*
X002062Y016445D01*
X002062Y016548D02*
X001064Y016548D01*
X001064Y016651D02*
X002062Y016651D01*
X002062Y016754D02*
X001064Y016754D01*
X001064Y016857D02*
X002062Y016857D01*
X001064Y014370D02*
X001064Y013430D01*
X001064Y014370D02*
X002062Y014370D01*
X002062Y013430D01*
X001064Y013430D01*
X001064Y013533D02*
X002062Y013533D01*
X002062Y013636D02*
X001064Y013636D01*
X001064Y013739D02*
X002062Y013739D01*
X002062Y013842D02*
X001064Y013842D01*
X001064Y013945D02*
X002062Y013945D01*
X002062Y014048D02*
X001064Y014048D01*
X001064Y014151D02*
X002062Y014151D01*
X002062Y014254D02*
X001064Y014254D01*
X001064Y014357D02*
X002062Y014357D01*
D20*
X025976Y011394D02*
X025976Y010968D01*
X025976Y011394D02*
X027150Y011394D01*
X027150Y010968D01*
X025976Y010968D01*
X025976Y011014D02*
X027150Y011014D01*
X027150Y011060D02*
X025976Y011060D01*
X025976Y011106D02*
X027150Y011106D01*
X027150Y011152D02*
X025976Y011152D01*
X025976Y011198D02*
X027150Y011198D01*
X027150Y011244D02*
X025976Y011244D01*
X025976Y011290D02*
X027150Y011290D01*
X027150Y011336D02*
X025976Y011336D01*
X025976Y011382D02*
X027150Y011382D01*
D21*
X018764Y011759D02*
X018764Y011015D01*
X017862Y011015D01*
X017862Y011759D01*
X018764Y011759D01*
X018764Y011097D02*
X017862Y011097D01*
X017862Y011179D02*
X018764Y011179D01*
X018764Y011261D02*
X017862Y011261D01*
X017862Y011343D02*
X018764Y011343D01*
X018764Y011425D02*
X017862Y011425D01*
X017862Y011507D02*
X018764Y011507D01*
X018764Y011589D02*
X017862Y011589D01*
X017862Y011671D02*
X018764Y011671D01*
X018764Y011753D02*
X017862Y011753D01*
X018764Y010185D02*
X018764Y009441D01*
X017862Y009441D01*
X017862Y010185D01*
X018764Y010185D01*
X018764Y009523D02*
X017862Y009523D01*
X017862Y009605D02*
X018764Y009605D01*
X018764Y009687D02*
X017862Y009687D01*
X017862Y009769D02*
X018764Y009769D01*
X018764Y009851D02*
X017862Y009851D01*
X017862Y009933D02*
X018764Y009933D01*
X018764Y010015D02*
X017862Y010015D01*
X017862Y010097D02*
X018764Y010097D01*
X018764Y010179D02*
X017862Y010179D01*
D22*
X034158Y013100D02*
X034467Y013100D01*
X034467Y014100D02*
X034158Y014100D01*
D23*
X034563Y016170D02*
X034563Y016530D01*
X033563Y016530D02*
X033563Y016170D01*
X032563Y016170D02*
X032563Y016530D01*
X031563Y016530D02*
X031563Y016170D01*
X030563Y016170D02*
X030563Y016530D01*
X029563Y016530D02*
X029563Y016170D01*
X028563Y016170D02*
X028563Y016530D01*
X027563Y016530D02*
X027563Y016170D01*
X026563Y016170D02*
X026563Y016530D01*
X025563Y016530D02*
X025563Y016170D01*
X024563Y016170D02*
X024563Y016530D01*
X023563Y016530D02*
X023563Y016170D01*
X022563Y016170D02*
X022563Y016530D01*
X021563Y016530D02*
X021563Y016170D01*
X035563Y016170D02*
X035563Y016530D01*
X034993Y004600D02*
X034633Y004600D01*
X034633Y003600D02*
X034993Y003600D01*
X034563Y001530D02*
X034563Y001170D01*
X033563Y001170D02*
X033563Y001530D01*
X032563Y001530D02*
X032563Y001170D01*
X031563Y001170D02*
X031563Y001530D01*
X030563Y001530D02*
X030563Y001170D01*
X029563Y001170D02*
X029563Y001530D01*
X028563Y001530D02*
X028563Y001170D01*
X027563Y001170D02*
X027563Y001530D01*
X026563Y001530D02*
X026563Y001170D01*
X025563Y001170D02*
X025563Y001530D01*
X024563Y001530D02*
X024563Y001170D01*
X023563Y001170D02*
X023563Y001530D01*
X022563Y001530D02*
X022563Y001170D01*
X021563Y001170D02*
X021563Y001530D01*
X035563Y001530D02*
X035563Y001170D01*
M02*
