G75*
%MOIN*%
%OFA0B0*%
%FSLAX24Y24*%
%IPPOS*%
%LPD*%
%AMOC8*
5,1,8,0,0,1.08239X$1,22.5*
%
%ADD10C,0.0750*%
%ADD11C,0.1050*%
%ADD12C,0.0039*%
%ADD13R,0.0740X0.0740*%
%ADD14OC8,0.0740*%
%ADD15C,0.0063*%
%ADD16C,0.0100*%
%ADD17C,0.0043*%
%ADD18C,0.0079*%
%ADD19C,0.0515*%
%ADD20C,0.0600*%
%ADD21C,0.0100*%
%ADD22C,0.0436*%
%ADD23C,0.0760*%
%ADD24C,0.0400*%
%ADD25OC8,0.0440*%
%ADD26C,0.0160*%
D10*
X013090Y003256D03*
D11*
X012086Y002252D03*
X014094Y002252D03*
X014094Y004260D03*
X012086Y004260D03*
D12*
X020702Y008547D02*
X020860Y008547D01*
X020702Y008547D02*
X020702Y009099D01*
X020860Y009099D01*
X020860Y008547D01*
X020860Y008585D02*
X020702Y008585D01*
X020702Y008623D02*
X020860Y008623D01*
X020860Y008661D02*
X020702Y008661D01*
X020702Y008699D02*
X020860Y008699D01*
X020860Y008737D02*
X020702Y008737D01*
X020702Y008775D02*
X020860Y008775D01*
X020860Y008813D02*
X020702Y008813D01*
X020702Y008851D02*
X020860Y008851D01*
X020860Y008889D02*
X020702Y008889D01*
X020702Y008927D02*
X020860Y008927D01*
X020860Y008965D02*
X020702Y008965D01*
X020702Y009003D02*
X020860Y009003D01*
X020860Y009041D02*
X020702Y009041D01*
X020702Y009079D02*
X020860Y009079D01*
X021017Y008547D02*
X021175Y008547D01*
X021017Y008547D02*
X021017Y009099D01*
X021175Y009099D01*
X021175Y008547D01*
X021175Y008585D02*
X021017Y008585D01*
X021017Y008623D02*
X021175Y008623D01*
X021175Y008661D02*
X021017Y008661D01*
X021017Y008699D02*
X021175Y008699D01*
X021175Y008737D02*
X021017Y008737D01*
X021017Y008775D02*
X021175Y008775D01*
X021175Y008813D02*
X021017Y008813D01*
X021017Y008851D02*
X021175Y008851D01*
X021175Y008889D02*
X021017Y008889D01*
X021017Y008927D02*
X021175Y008927D01*
X021175Y008965D02*
X021017Y008965D01*
X021017Y009003D02*
X021175Y009003D01*
X021175Y009041D02*
X021017Y009041D01*
X021017Y009079D02*
X021175Y009079D01*
X021331Y008547D02*
X021489Y008547D01*
X021331Y008547D02*
X021331Y009099D01*
X021489Y009099D01*
X021489Y008547D01*
X021489Y008585D02*
X021331Y008585D01*
X021331Y008623D02*
X021489Y008623D01*
X021489Y008661D02*
X021331Y008661D01*
X021331Y008699D02*
X021489Y008699D01*
X021489Y008737D02*
X021331Y008737D01*
X021331Y008775D02*
X021489Y008775D01*
X021489Y008813D02*
X021331Y008813D01*
X021331Y008851D02*
X021489Y008851D01*
X021489Y008889D02*
X021331Y008889D01*
X021331Y008927D02*
X021489Y008927D01*
X021489Y008965D02*
X021331Y008965D01*
X021331Y009003D02*
X021489Y009003D01*
X021489Y009041D02*
X021331Y009041D01*
X021331Y009079D02*
X021489Y009079D01*
X021646Y008547D02*
X021804Y008547D01*
X021646Y008547D02*
X021646Y009099D01*
X021804Y009099D01*
X021804Y008547D01*
X021804Y008585D02*
X021646Y008585D01*
X021646Y008623D02*
X021804Y008623D01*
X021804Y008661D02*
X021646Y008661D01*
X021646Y008699D02*
X021804Y008699D01*
X021804Y008737D02*
X021646Y008737D01*
X021646Y008775D02*
X021804Y008775D01*
X021804Y008813D02*
X021646Y008813D01*
X021646Y008851D02*
X021804Y008851D01*
X021804Y008889D02*
X021646Y008889D01*
X021646Y008927D02*
X021804Y008927D01*
X021804Y008965D02*
X021646Y008965D01*
X021646Y009003D02*
X021804Y009003D01*
X021804Y009041D02*
X021646Y009041D01*
X021646Y009079D02*
X021804Y009079D01*
X021961Y008547D02*
X022119Y008547D01*
X021961Y008547D02*
X021961Y009099D01*
X022119Y009099D01*
X022119Y008547D01*
X022119Y008585D02*
X021961Y008585D01*
X021961Y008623D02*
X022119Y008623D01*
X022119Y008661D02*
X021961Y008661D01*
X021961Y008699D02*
X022119Y008699D01*
X022119Y008737D02*
X021961Y008737D01*
X021961Y008775D02*
X022119Y008775D01*
X022119Y008813D02*
X021961Y008813D01*
X021961Y008851D02*
X022119Y008851D01*
X022119Y008889D02*
X021961Y008889D01*
X021961Y008927D02*
X022119Y008927D01*
X022119Y008965D02*
X021961Y008965D01*
X021961Y009003D02*
X022119Y009003D01*
X022119Y009041D02*
X021961Y009041D01*
X021961Y009079D02*
X022119Y009079D01*
X022276Y008547D02*
X022434Y008547D01*
X022276Y008547D02*
X022276Y009099D01*
X022434Y009099D01*
X022434Y008547D01*
X022434Y008585D02*
X022276Y008585D01*
X022276Y008623D02*
X022434Y008623D01*
X022434Y008661D02*
X022276Y008661D01*
X022276Y008699D02*
X022434Y008699D01*
X022434Y008737D02*
X022276Y008737D01*
X022276Y008775D02*
X022434Y008775D01*
X022434Y008813D02*
X022276Y008813D01*
X022276Y008851D02*
X022434Y008851D01*
X022434Y008889D02*
X022276Y008889D01*
X022276Y008927D02*
X022434Y008927D01*
X022434Y008965D02*
X022276Y008965D01*
X022276Y009003D02*
X022434Y009003D01*
X022434Y009041D02*
X022276Y009041D01*
X022276Y009079D02*
X022434Y009079D01*
X022591Y008547D02*
X022749Y008547D01*
X022591Y008547D02*
X022591Y009099D01*
X022749Y009099D01*
X022749Y008547D01*
X022749Y008585D02*
X022591Y008585D01*
X022591Y008623D02*
X022749Y008623D01*
X022749Y008661D02*
X022591Y008661D01*
X022591Y008699D02*
X022749Y008699D01*
X022749Y008737D02*
X022591Y008737D01*
X022591Y008775D02*
X022749Y008775D01*
X022749Y008813D02*
X022591Y008813D01*
X022591Y008851D02*
X022749Y008851D01*
X022749Y008889D02*
X022591Y008889D01*
X022591Y008927D02*
X022749Y008927D01*
X022749Y008965D02*
X022591Y008965D01*
X022591Y009003D02*
X022749Y009003D01*
X022749Y009041D02*
X022591Y009041D01*
X022591Y009079D02*
X022749Y009079D01*
X022906Y008547D02*
X023064Y008547D01*
X022906Y008547D02*
X022906Y009099D01*
X023064Y009099D01*
X023064Y008547D01*
X023064Y008585D02*
X022906Y008585D01*
X022906Y008623D02*
X023064Y008623D01*
X023064Y008661D02*
X022906Y008661D01*
X022906Y008699D02*
X023064Y008699D01*
X023064Y008737D02*
X022906Y008737D01*
X022906Y008775D02*
X023064Y008775D01*
X023064Y008813D02*
X022906Y008813D01*
X022906Y008851D02*
X023064Y008851D01*
X023064Y008889D02*
X022906Y008889D01*
X022906Y008927D02*
X023064Y008927D01*
X023064Y008965D02*
X022906Y008965D01*
X022906Y009003D02*
X023064Y009003D01*
X023064Y009041D02*
X022906Y009041D01*
X022906Y009079D02*
X023064Y009079D01*
X023221Y008547D02*
X023379Y008547D01*
X023221Y008547D02*
X023221Y009099D01*
X023379Y009099D01*
X023379Y008547D01*
X023379Y008585D02*
X023221Y008585D01*
X023221Y008623D02*
X023379Y008623D01*
X023379Y008661D02*
X023221Y008661D01*
X023221Y008699D02*
X023379Y008699D01*
X023379Y008737D02*
X023221Y008737D01*
X023221Y008775D02*
X023379Y008775D01*
X023379Y008813D02*
X023221Y008813D01*
X023221Y008851D02*
X023379Y008851D01*
X023379Y008889D02*
X023221Y008889D01*
X023221Y008927D02*
X023379Y008927D01*
X023379Y008965D02*
X023221Y008965D01*
X023221Y009003D02*
X023379Y009003D01*
X023379Y009041D02*
X023221Y009041D01*
X023221Y009079D02*
X023379Y009079D01*
X023536Y008547D02*
X023694Y008547D01*
X023536Y008547D02*
X023536Y009099D01*
X023694Y009099D01*
X023694Y008547D01*
X023694Y008585D02*
X023536Y008585D01*
X023536Y008623D02*
X023694Y008623D01*
X023694Y008661D02*
X023536Y008661D01*
X023536Y008699D02*
X023694Y008699D01*
X023694Y008737D02*
X023536Y008737D01*
X023536Y008775D02*
X023694Y008775D01*
X023694Y008813D02*
X023536Y008813D01*
X023536Y008851D02*
X023694Y008851D01*
X023694Y008889D02*
X023536Y008889D01*
X023536Y008927D02*
X023694Y008927D01*
X023694Y008965D02*
X023536Y008965D01*
X023536Y009003D02*
X023694Y009003D01*
X023694Y009041D02*
X023536Y009041D01*
X023536Y009079D02*
X023694Y009079D01*
X023851Y008547D02*
X024009Y008547D01*
X023851Y008547D02*
X023851Y009099D01*
X024009Y009099D01*
X024009Y008547D01*
X024009Y008585D02*
X023851Y008585D01*
X023851Y008623D02*
X024009Y008623D01*
X024009Y008661D02*
X023851Y008661D01*
X023851Y008699D02*
X024009Y008699D01*
X024009Y008737D02*
X023851Y008737D01*
X023851Y008775D02*
X024009Y008775D01*
X024009Y008813D02*
X023851Y008813D01*
X023851Y008851D02*
X024009Y008851D01*
X024009Y008889D02*
X023851Y008889D01*
X023851Y008927D02*
X024009Y008927D01*
X024009Y008965D02*
X023851Y008965D01*
X023851Y009003D02*
X024009Y009003D01*
X024009Y009041D02*
X023851Y009041D01*
X023851Y009079D02*
X024009Y009079D01*
X024363Y009452D02*
X024915Y009452D01*
X024363Y009452D02*
X024363Y009610D01*
X024915Y009610D01*
X024915Y009452D01*
X024915Y009490D02*
X024363Y009490D01*
X024363Y009528D02*
X024915Y009528D01*
X024915Y009566D02*
X024363Y009566D01*
X024363Y009604D02*
X024915Y009604D01*
X024915Y009767D02*
X024363Y009767D01*
X024363Y009925D01*
X024915Y009925D01*
X024915Y009767D01*
X024915Y009805D02*
X024363Y009805D01*
X024363Y009843D02*
X024915Y009843D01*
X024915Y009881D02*
X024363Y009881D01*
X024363Y009919D02*
X024915Y009919D01*
X024915Y010082D02*
X024363Y010082D01*
X024363Y010240D01*
X024915Y010240D01*
X024915Y010082D01*
X024915Y010120D02*
X024363Y010120D01*
X024363Y010158D02*
X024915Y010158D01*
X024915Y010196D02*
X024363Y010196D01*
X024363Y010234D02*
X024915Y010234D01*
X024915Y010397D02*
X024363Y010397D01*
X024363Y010555D01*
X024915Y010555D01*
X024915Y010397D01*
X024915Y010435D02*
X024363Y010435D01*
X024363Y010473D02*
X024915Y010473D01*
X024915Y010511D02*
X024363Y010511D01*
X024363Y010549D02*
X024915Y010549D01*
X024915Y010712D02*
X024363Y010712D01*
X024363Y010870D01*
X024915Y010870D01*
X024915Y010712D01*
X024915Y010750D02*
X024363Y010750D01*
X024363Y010788D02*
X024915Y010788D01*
X024915Y010826D02*
X024363Y010826D01*
X024363Y010864D02*
X024915Y010864D01*
X024915Y011027D02*
X024363Y011027D01*
X024363Y011185D01*
X024915Y011185D01*
X024915Y011027D01*
X024915Y011065D02*
X024363Y011065D01*
X024363Y011103D02*
X024915Y011103D01*
X024915Y011141D02*
X024363Y011141D01*
X024363Y011179D02*
X024915Y011179D01*
X024915Y011342D02*
X024363Y011342D01*
X024363Y011500D01*
X024915Y011500D01*
X024915Y011342D01*
X024915Y011380D02*
X024363Y011380D01*
X024363Y011418D02*
X024915Y011418D01*
X024915Y011456D02*
X024363Y011456D01*
X024363Y011494D02*
X024915Y011494D01*
X024915Y011657D02*
X024363Y011657D01*
X024363Y011815D01*
X024915Y011815D01*
X024915Y011657D01*
X024915Y011695D02*
X024363Y011695D01*
X024363Y011733D02*
X024915Y011733D01*
X024915Y011771D02*
X024363Y011771D01*
X024363Y011809D02*
X024915Y011809D01*
X024915Y011972D02*
X024363Y011972D01*
X024363Y012130D01*
X024915Y012130D01*
X024915Y011972D01*
X024915Y012010D02*
X024363Y012010D01*
X024363Y012048D02*
X024915Y012048D01*
X024915Y012086D02*
X024363Y012086D01*
X024363Y012124D02*
X024915Y012124D01*
X024915Y012287D02*
X024363Y012287D01*
X024363Y012445D01*
X024915Y012445D01*
X024915Y012287D01*
X024915Y012325D02*
X024363Y012325D01*
X024363Y012363D02*
X024915Y012363D01*
X024915Y012401D02*
X024363Y012401D01*
X024363Y012439D02*
X024915Y012439D01*
X024915Y012602D02*
X024363Y012602D01*
X024363Y012760D01*
X024915Y012760D01*
X024915Y012602D01*
X024915Y012640D02*
X024363Y012640D01*
X024363Y012678D02*
X024915Y012678D01*
X024915Y012716D02*
X024363Y012716D01*
X024363Y012754D02*
X024915Y012754D01*
X024009Y013114D02*
X023851Y013114D01*
X023851Y013666D01*
X024009Y013666D01*
X024009Y013114D01*
X024009Y013152D02*
X023851Y013152D01*
X023851Y013190D02*
X024009Y013190D01*
X024009Y013228D02*
X023851Y013228D01*
X023851Y013266D02*
X024009Y013266D01*
X024009Y013304D02*
X023851Y013304D01*
X023851Y013342D02*
X024009Y013342D01*
X024009Y013380D02*
X023851Y013380D01*
X023851Y013418D02*
X024009Y013418D01*
X024009Y013456D02*
X023851Y013456D01*
X023851Y013494D02*
X024009Y013494D01*
X024009Y013532D02*
X023851Y013532D01*
X023851Y013570D02*
X024009Y013570D01*
X024009Y013608D02*
X023851Y013608D01*
X023851Y013646D02*
X024009Y013646D01*
X023694Y013114D02*
X023536Y013114D01*
X023536Y013666D01*
X023694Y013666D01*
X023694Y013114D01*
X023694Y013152D02*
X023536Y013152D01*
X023536Y013190D02*
X023694Y013190D01*
X023694Y013228D02*
X023536Y013228D01*
X023536Y013266D02*
X023694Y013266D01*
X023694Y013304D02*
X023536Y013304D01*
X023536Y013342D02*
X023694Y013342D01*
X023694Y013380D02*
X023536Y013380D01*
X023536Y013418D02*
X023694Y013418D01*
X023694Y013456D02*
X023536Y013456D01*
X023536Y013494D02*
X023694Y013494D01*
X023694Y013532D02*
X023536Y013532D01*
X023536Y013570D02*
X023694Y013570D01*
X023694Y013608D02*
X023536Y013608D01*
X023536Y013646D02*
X023694Y013646D01*
X023379Y013114D02*
X023221Y013114D01*
X023221Y013666D01*
X023379Y013666D01*
X023379Y013114D01*
X023379Y013152D02*
X023221Y013152D01*
X023221Y013190D02*
X023379Y013190D01*
X023379Y013228D02*
X023221Y013228D01*
X023221Y013266D02*
X023379Y013266D01*
X023379Y013304D02*
X023221Y013304D01*
X023221Y013342D02*
X023379Y013342D01*
X023379Y013380D02*
X023221Y013380D01*
X023221Y013418D02*
X023379Y013418D01*
X023379Y013456D02*
X023221Y013456D01*
X023221Y013494D02*
X023379Y013494D01*
X023379Y013532D02*
X023221Y013532D01*
X023221Y013570D02*
X023379Y013570D01*
X023379Y013608D02*
X023221Y013608D01*
X023221Y013646D02*
X023379Y013646D01*
X023064Y013114D02*
X022906Y013114D01*
X022906Y013666D01*
X023064Y013666D01*
X023064Y013114D01*
X023064Y013152D02*
X022906Y013152D01*
X022906Y013190D02*
X023064Y013190D01*
X023064Y013228D02*
X022906Y013228D01*
X022906Y013266D02*
X023064Y013266D01*
X023064Y013304D02*
X022906Y013304D01*
X022906Y013342D02*
X023064Y013342D01*
X023064Y013380D02*
X022906Y013380D01*
X022906Y013418D02*
X023064Y013418D01*
X023064Y013456D02*
X022906Y013456D01*
X022906Y013494D02*
X023064Y013494D01*
X023064Y013532D02*
X022906Y013532D01*
X022906Y013570D02*
X023064Y013570D01*
X023064Y013608D02*
X022906Y013608D01*
X022906Y013646D02*
X023064Y013646D01*
X022749Y013114D02*
X022591Y013114D01*
X022591Y013666D01*
X022749Y013666D01*
X022749Y013114D01*
X022749Y013152D02*
X022591Y013152D01*
X022591Y013190D02*
X022749Y013190D01*
X022749Y013228D02*
X022591Y013228D01*
X022591Y013266D02*
X022749Y013266D01*
X022749Y013304D02*
X022591Y013304D01*
X022591Y013342D02*
X022749Y013342D01*
X022749Y013380D02*
X022591Y013380D01*
X022591Y013418D02*
X022749Y013418D01*
X022749Y013456D02*
X022591Y013456D01*
X022591Y013494D02*
X022749Y013494D01*
X022749Y013532D02*
X022591Y013532D01*
X022591Y013570D02*
X022749Y013570D01*
X022749Y013608D02*
X022591Y013608D01*
X022591Y013646D02*
X022749Y013646D01*
X022434Y013114D02*
X022276Y013114D01*
X022276Y013666D01*
X022434Y013666D01*
X022434Y013114D01*
X022434Y013152D02*
X022276Y013152D01*
X022276Y013190D02*
X022434Y013190D01*
X022434Y013228D02*
X022276Y013228D01*
X022276Y013266D02*
X022434Y013266D01*
X022434Y013304D02*
X022276Y013304D01*
X022276Y013342D02*
X022434Y013342D01*
X022434Y013380D02*
X022276Y013380D01*
X022276Y013418D02*
X022434Y013418D01*
X022434Y013456D02*
X022276Y013456D01*
X022276Y013494D02*
X022434Y013494D01*
X022434Y013532D02*
X022276Y013532D01*
X022276Y013570D02*
X022434Y013570D01*
X022434Y013608D02*
X022276Y013608D01*
X022276Y013646D02*
X022434Y013646D01*
X022119Y013114D02*
X021961Y013114D01*
X021961Y013666D01*
X022119Y013666D01*
X022119Y013114D01*
X022119Y013152D02*
X021961Y013152D01*
X021961Y013190D02*
X022119Y013190D01*
X022119Y013228D02*
X021961Y013228D01*
X021961Y013266D02*
X022119Y013266D01*
X022119Y013304D02*
X021961Y013304D01*
X021961Y013342D02*
X022119Y013342D01*
X022119Y013380D02*
X021961Y013380D01*
X021961Y013418D02*
X022119Y013418D01*
X022119Y013456D02*
X021961Y013456D01*
X021961Y013494D02*
X022119Y013494D01*
X022119Y013532D02*
X021961Y013532D01*
X021961Y013570D02*
X022119Y013570D01*
X022119Y013608D02*
X021961Y013608D01*
X021961Y013646D02*
X022119Y013646D01*
X021804Y013114D02*
X021646Y013114D01*
X021646Y013666D01*
X021804Y013666D01*
X021804Y013114D01*
X021804Y013152D02*
X021646Y013152D01*
X021646Y013190D02*
X021804Y013190D01*
X021804Y013228D02*
X021646Y013228D01*
X021646Y013266D02*
X021804Y013266D01*
X021804Y013304D02*
X021646Y013304D01*
X021646Y013342D02*
X021804Y013342D01*
X021804Y013380D02*
X021646Y013380D01*
X021646Y013418D02*
X021804Y013418D01*
X021804Y013456D02*
X021646Y013456D01*
X021646Y013494D02*
X021804Y013494D01*
X021804Y013532D02*
X021646Y013532D01*
X021646Y013570D02*
X021804Y013570D01*
X021804Y013608D02*
X021646Y013608D01*
X021646Y013646D02*
X021804Y013646D01*
X021489Y013114D02*
X021331Y013114D01*
X021331Y013666D01*
X021489Y013666D01*
X021489Y013114D01*
X021489Y013152D02*
X021331Y013152D01*
X021331Y013190D02*
X021489Y013190D01*
X021489Y013228D02*
X021331Y013228D01*
X021331Y013266D02*
X021489Y013266D01*
X021489Y013304D02*
X021331Y013304D01*
X021331Y013342D02*
X021489Y013342D01*
X021489Y013380D02*
X021331Y013380D01*
X021331Y013418D02*
X021489Y013418D01*
X021489Y013456D02*
X021331Y013456D01*
X021331Y013494D02*
X021489Y013494D01*
X021489Y013532D02*
X021331Y013532D01*
X021331Y013570D02*
X021489Y013570D01*
X021489Y013608D02*
X021331Y013608D01*
X021331Y013646D02*
X021489Y013646D01*
X021175Y013114D02*
X021017Y013114D01*
X021017Y013666D01*
X021175Y013666D01*
X021175Y013114D01*
X021175Y013152D02*
X021017Y013152D01*
X021017Y013190D02*
X021175Y013190D01*
X021175Y013228D02*
X021017Y013228D01*
X021017Y013266D02*
X021175Y013266D01*
X021175Y013304D02*
X021017Y013304D01*
X021017Y013342D02*
X021175Y013342D01*
X021175Y013380D02*
X021017Y013380D01*
X021017Y013418D02*
X021175Y013418D01*
X021175Y013456D02*
X021017Y013456D01*
X021017Y013494D02*
X021175Y013494D01*
X021175Y013532D02*
X021017Y013532D01*
X021017Y013570D02*
X021175Y013570D01*
X021175Y013608D02*
X021017Y013608D01*
X021017Y013646D02*
X021175Y013646D01*
X020860Y013114D02*
X020702Y013114D01*
X020702Y013666D01*
X020860Y013666D01*
X020860Y013114D01*
X020860Y013152D02*
X020702Y013152D01*
X020702Y013190D02*
X020860Y013190D01*
X020860Y013228D02*
X020702Y013228D01*
X020702Y013266D02*
X020860Y013266D01*
X020860Y013304D02*
X020702Y013304D01*
X020702Y013342D02*
X020860Y013342D01*
X020860Y013380D02*
X020702Y013380D01*
X020702Y013418D02*
X020860Y013418D01*
X020860Y013456D02*
X020702Y013456D01*
X020702Y013494D02*
X020860Y013494D01*
X020860Y013532D02*
X020702Y013532D01*
X020702Y013570D02*
X020860Y013570D01*
X020860Y013608D02*
X020702Y013608D01*
X020702Y013646D02*
X020860Y013646D01*
X020348Y012602D02*
X019796Y012602D01*
X019796Y012760D01*
X020348Y012760D01*
X020348Y012602D01*
X020348Y012640D02*
X019796Y012640D01*
X019796Y012678D02*
X020348Y012678D01*
X020348Y012716D02*
X019796Y012716D01*
X019796Y012754D02*
X020348Y012754D01*
X020348Y012287D02*
X019796Y012287D01*
X019796Y012445D01*
X020348Y012445D01*
X020348Y012287D01*
X020348Y012325D02*
X019796Y012325D01*
X019796Y012363D02*
X020348Y012363D01*
X020348Y012401D02*
X019796Y012401D01*
X019796Y012439D02*
X020348Y012439D01*
X020348Y011972D02*
X019796Y011972D01*
X019796Y012130D01*
X020348Y012130D01*
X020348Y011972D01*
X020348Y012010D02*
X019796Y012010D01*
X019796Y012048D02*
X020348Y012048D01*
X020348Y012086D02*
X019796Y012086D01*
X019796Y012124D02*
X020348Y012124D01*
X020348Y011657D02*
X019796Y011657D01*
X019796Y011815D01*
X020348Y011815D01*
X020348Y011657D01*
X020348Y011695D02*
X019796Y011695D01*
X019796Y011733D02*
X020348Y011733D01*
X020348Y011771D02*
X019796Y011771D01*
X019796Y011809D02*
X020348Y011809D01*
X020348Y011342D02*
X019796Y011342D01*
X019796Y011500D01*
X020348Y011500D01*
X020348Y011342D01*
X020348Y011380D02*
X019796Y011380D01*
X019796Y011418D02*
X020348Y011418D01*
X020348Y011456D02*
X019796Y011456D01*
X019796Y011494D02*
X020348Y011494D01*
X020348Y011027D02*
X019796Y011027D01*
X019796Y011185D01*
X020348Y011185D01*
X020348Y011027D01*
X020348Y011065D02*
X019796Y011065D01*
X019796Y011103D02*
X020348Y011103D01*
X020348Y011141D02*
X019796Y011141D01*
X019796Y011179D02*
X020348Y011179D01*
X020348Y010712D02*
X019796Y010712D01*
X019796Y010870D01*
X020348Y010870D01*
X020348Y010712D01*
X020348Y010750D02*
X019796Y010750D01*
X019796Y010788D02*
X020348Y010788D01*
X020348Y010826D02*
X019796Y010826D01*
X019796Y010864D02*
X020348Y010864D01*
X020348Y010397D02*
X019796Y010397D01*
X019796Y010555D01*
X020348Y010555D01*
X020348Y010397D01*
X020348Y010435D02*
X019796Y010435D01*
X019796Y010473D02*
X020348Y010473D01*
X020348Y010511D02*
X019796Y010511D01*
X019796Y010549D02*
X020348Y010549D01*
X020348Y010082D02*
X019796Y010082D01*
X019796Y010240D01*
X020348Y010240D01*
X020348Y010082D01*
X020348Y010120D02*
X019796Y010120D01*
X019796Y010158D02*
X020348Y010158D01*
X020348Y010196D02*
X019796Y010196D01*
X019796Y010234D02*
X020348Y010234D01*
X020348Y009767D02*
X019796Y009767D01*
X019796Y009925D01*
X020348Y009925D01*
X020348Y009767D01*
X020348Y009805D02*
X019796Y009805D01*
X019796Y009843D02*
X020348Y009843D01*
X020348Y009881D02*
X019796Y009881D01*
X019796Y009919D02*
X020348Y009919D01*
X020348Y009452D02*
X019796Y009452D01*
X019796Y009610D01*
X020348Y009610D01*
X020348Y009452D01*
X020348Y009490D02*
X019796Y009490D01*
X019796Y009528D02*
X020348Y009528D01*
X020348Y009566D02*
X019796Y009566D01*
X019796Y009604D02*
X020348Y009604D01*
X026189Y013641D02*
X026189Y013997D01*
X026937Y013997D01*
X026937Y013641D01*
X026189Y013641D01*
X026189Y013679D02*
X026937Y013679D01*
X026937Y013717D02*
X026189Y013717D01*
X026189Y013755D02*
X026937Y013755D01*
X026937Y013793D02*
X026189Y013793D01*
X026189Y013831D02*
X026937Y013831D01*
X026937Y013869D02*
X026189Y013869D01*
X026189Y013907D02*
X026937Y013907D01*
X026937Y013945D02*
X026189Y013945D01*
X026189Y013983D02*
X026937Y013983D01*
X030773Y011528D02*
X031915Y011528D01*
X031915Y011172D01*
X030773Y011172D01*
X030773Y011528D01*
X030773Y011210D02*
X031915Y011210D01*
X031915Y011248D02*
X030773Y011248D01*
X030773Y011286D02*
X031915Y011286D01*
X031915Y011324D02*
X030773Y011324D01*
X030773Y011362D02*
X031915Y011362D01*
X031915Y011400D02*
X030773Y011400D01*
X030773Y011438D02*
X031915Y011438D01*
X031915Y011476D02*
X030773Y011476D01*
X030773Y011514D02*
X031915Y011514D01*
X031915Y010528D02*
X030773Y010528D01*
X031915Y010528D02*
X031915Y010172D01*
X030773Y010172D01*
X030773Y010528D01*
X030773Y010210D02*
X031915Y010210D01*
X031915Y010248D02*
X030773Y010248D01*
X030773Y010286D02*
X031915Y010286D01*
X031915Y010324D02*
X030773Y010324D01*
X030773Y010362D02*
X031915Y010362D01*
X031915Y010400D02*
X030773Y010400D01*
X030773Y010438D02*
X031915Y010438D01*
X031915Y010476D02*
X030773Y010476D01*
X030773Y010514D02*
X031915Y010514D01*
X031915Y009528D02*
X030773Y009528D01*
X031915Y009528D02*
X031915Y009172D01*
X030773Y009172D01*
X030773Y009528D01*
X030773Y009210D02*
X031915Y009210D01*
X031915Y009248D02*
X030773Y009248D01*
X030773Y009286D02*
X031915Y009286D01*
X031915Y009324D02*
X030773Y009324D01*
X030773Y009362D02*
X031915Y009362D01*
X031915Y009400D02*
X030773Y009400D01*
X030773Y009438D02*
X031915Y009438D01*
X031915Y009476D02*
X030773Y009476D01*
X030773Y009514D02*
X031915Y009514D01*
X031915Y008528D02*
X030773Y008528D01*
X031915Y008528D02*
X031915Y008172D01*
X030773Y008172D01*
X030773Y008528D01*
X030773Y008210D02*
X031915Y008210D01*
X031915Y008248D02*
X030773Y008248D01*
X030773Y008286D02*
X031915Y008286D01*
X031915Y008324D02*
X030773Y008324D01*
X030773Y008362D02*
X031915Y008362D01*
X031915Y008400D02*
X030773Y008400D01*
X030773Y008438D02*
X031915Y008438D01*
X031915Y008476D02*
X030773Y008476D01*
X030773Y008514D02*
X031915Y008514D01*
X031915Y007528D02*
X030773Y007528D01*
X031915Y007528D02*
X031915Y007172D01*
X030773Y007172D01*
X030773Y007528D01*
X030773Y007210D02*
X031915Y007210D01*
X031915Y007248D02*
X030773Y007248D01*
X030773Y007286D02*
X031915Y007286D01*
X031915Y007324D02*
X030773Y007324D01*
X030773Y007362D02*
X031915Y007362D01*
X031915Y007400D02*
X030773Y007400D01*
X030773Y007438D02*
X031915Y007438D01*
X031915Y007476D02*
X030773Y007476D01*
X030773Y007514D02*
X031915Y007514D01*
X031915Y006528D02*
X030773Y006528D01*
X031915Y006528D02*
X031915Y006172D01*
X030773Y006172D01*
X030773Y006528D01*
X030773Y006210D02*
X031915Y006210D01*
X031915Y006248D02*
X030773Y006248D01*
X030773Y006286D02*
X031915Y006286D01*
X031915Y006324D02*
X030773Y006324D01*
X030773Y006362D02*
X031915Y006362D01*
X031915Y006400D02*
X030773Y006400D01*
X030773Y006438D02*
X031915Y006438D01*
X031915Y006476D02*
X030773Y006476D01*
X030773Y006514D02*
X031915Y006514D01*
X002670Y014578D02*
X002670Y014934D01*
X004442Y014934D01*
X004442Y014578D01*
X002670Y014578D01*
X002670Y014616D02*
X004442Y014616D01*
X004442Y014654D02*
X002670Y014654D01*
X002670Y014692D02*
X004442Y014692D01*
X004442Y014730D02*
X002670Y014730D01*
X002670Y014768D02*
X004442Y014768D01*
X004442Y014806D02*
X002670Y014806D01*
X002670Y014844D02*
X004442Y014844D01*
X004442Y014882D02*
X002670Y014882D01*
X002670Y014920D02*
X004442Y014920D01*
X002670Y015366D02*
X002670Y015722D01*
X004442Y015722D01*
X004442Y015366D01*
X002670Y015366D01*
X002670Y015404D02*
X004442Y015404D01*
X004442Y015442D02*
X002670Y015442D01*
X002670Y015480D02*
X004442Y015480D01*
X004442Y015518D02*
X002670Y015518D01*
X002670Y015556D02*
X004442Y015556D01*
X004442Y015594D02*
X002670Y015594D01*
X002670Y015632D02*
X004442Y015632D01*
X004442Y015670D02*
X002670Y015670D01*
X002670Y015708D02*
X004442Y015708D01*
D13*
X015255Y015444D03*
D14*
X014255Y015444D03*
X014255Y014444D03*
X015255Y014444D03*
X015255Y013444D03*
X014255Y013444D03*
D15*
X017071Y013020D02*
X017639Y013020D01*
X017071Y013020D02*
X017071Y013666D01*
X017639Y013666D01*
X017639Y013020D01*
X017639Y013082D02*
X017071Y013082D01*
X017071Y013144D02*
X017639Y013144D01*
X017639Y013206D02*
X017071Y013206D01*
X017071Y013268D02*
X017639Y013268D01*
X017639Y013330D02*
X017071Y013330D01*
X017071Y013392D02*
X017639Y013392D01*
X017639Y013454D02*
X017071Y013454D01*
X017071Y013516D02*
X017639Y013516D01*
X017639Y013578D02*
X017071Y013578D01*
X017071Y013640D02*
X017639Y013640D01*
X018174Y013020D02*
X018742Y013020D01*
X018174Y013020D02*
X018174Y013666D01*
X018742Y013666D01*
X018742Y013020D01*
X018742Y013082D02*
X018174Y013082D01*
X018174Y013144D02*
X018742Y013144D01*
X018742Y013206D02*
X018174Y013206D01*
X018174Y013268D02*
X018742Y013268D01*
X018742Y013330D02*
X018174Y013330D01*
X018174Y013392D02*
X018742Y013392D01*
X018742Y013454D02*
X018174Y013454D01*
X018174Y013516D02*
X018742Y013516D01*
X018742Y013578D02*
X018174Y013578D01*
X018174Y013640D02*
X018742Y013640D01*
X018748Y012673D02*
X018180Y012673D01*
X018748Y012673D02*
X018748Y012027D01*
X018180Y012027D01*
X018180Y012673D01*
X018180Y012089D02*
X018748Y012089D01*
X018748Y012151D02*
X018180Y012151D01*
X018180Y012213D02*
X018748Y012213D01*
X018748Y012275D02*
X018180Y012275D01*
X018180Y012337D02*
X018748Y012337D01*
X018748Y012399D02*
X018180Y012399D01*
X018180Y012461D02*
X018748Y012461D01*
X018748Y012523D02*
X018180Y012523D01*
X018180Y012585D02*
X018748Y012585D01*
X018748Y012647D02*
X018180Y012647D01*
X017646Y012673D02*
X017078Y012673D01*
X017646Y012673D02*
X017646Y012027D01*
X017078Y012027D01*
X017078Y012673D01*
X017078Y012089D02*
X017646Y012089D01*
X017646Y012151D02*
X017078Y012151D01*
X017078Y012213D02*
X017646Y012213D01*
X017646Y012275D02*
X017078Y012275D01*
X017078Y012337D02*
X017646Y012337D01*
X017646Y012399D02*
X017078Y012399D01*
X017078Y012461D02*
X017646Y012461D01*
X017646Y012523D02*
X017078Y012523D01*
X017078Y012585D02*
X017646Y012585D01*
X017646Y012647D02*
X017078Y012647D01*
X017078Y009173D02*
X017646Y009173D01*
X017646Y008527D01*
X017078Y008527D01*
X017078Y009173D01*
X017078Y008589D02*
X017646Y008589D01*
X017646Y008651D02*
X017078Y008651D01*
X017078Y008713D02*
X017646Y008713D01*
X017646Y008775D02*
X017078Y008775D01*
X017078Y008837D02*
X017646Y008837D01*
X017646Y008899D02*
X017078Y008899D01*
X017078Y008961D02*
X017646Y008961D01*
X017646Y009023D02*
X017078Y009023D01*
X017078Y009085D02*
X017646Y009085D01*
X017646Y009147D02*
X017078Y009147D01*
X018180Y009173D02*
X018748Y009173D01*
X018748Y008527D01*
X018180Y008527D01*
X018180Y009173D01*
X018180Y008589D02*
X018748Y008589D01*
X018748Y008651D02*
X018180Y008651D01*
X018180Y008713D02*
X018748Y008713D01*
X018748Y008775D02*
X018180Y008775D01*
X018180Y008837D02*
X018748Y008837D01*
X018748Y008899D02*
X018180Y008899D01*
X018180Y008961D02*
X018748Y008961D01*
X018748Y009023D02*
X018180Y009023D01*
X018180Y009085D02*
X018748Y009085D01*
X018748Y009147D02*
X018180Y009147D01*
X022478Y007127D02*
X023046Y007127D01*
X022478Y007127D02*
X022478Y007773D01*
X023046Y007773D01*
X023046Y007127D01*
X023046Y007189D02*
X022478Y007189D01*
X022478Y007251D02*
X023046Y007251D01*
X023046Y007313D02*
X022478Y007313D01*
X022478Y007375D02*
X023046Y007375D01*
X023046Y007437D02*
X022478Y007437D01*
X022478Y007499D02*
X023046Y007499D01*
X023046Y007561D02*
X022478Y007561D01*
X022478Y007623D02*
X023046Y007623D01*
X023046Y007685D02*
X022478Y007685D01*
X022478Y007747D02*
X023046Y007747D01*
X023580Y007127D02*
X024148Y007127D01*
X023580Y007127D02*
X023580Y007773D01*
X024148Y007773D01*
X024148Y007127D01*
X024148Y007189D02*
X023580Y007189D01*
X023580Y007251D02*
X024148Y007251D01*
X024148Y007313D02*
X023580Y007313D01*
X023580Y007375D02*
X024148Y007375D01*
X024148Y007437D02*
X023580Y007437D01*
X023580Y007499D02*
X024148Y007499D01*
X024148Y007561D02*
X023580Y007561D01*
X023580Y007623D02*
X024148Y007623D01*
X024148Y007685D02*
X023580Y007685D01*
X023580Y007747D02*
X024148Y007747D01*
X006241Y013527D02*
X004965Y013527D01*
X004965Y014095D01*
X006241Y014095D01*
X006241Y013527D01*
X006241Y013589D02*
X004965Y013589D01*
X004965Y013651D02*
X006241Y013651D01*
X006241Y013713D02*
X004965Y013713D01*
X004965Y013775D02*
X006241Y013775D01*
X006241Y013837D02*
X004965Y013837D01*
X004965Y013899D02*
X006241Y013899D01*
X006241Y013961D02*
X004965Y013961D01*
X004965Y014023D02*
X006241Y014023D01*
X006241Y014085D02*
X004965Y014085D01*
X004965Y016205D02*
X006241Y016205D01*
X004965Y016205D02*
X004965Y016773D01*
X006241Y016773D01*
X006241Y016205D01*
X006241Y016267D02*
X004965Y016267D01*
X004965Y016329D02*
X006241Y016329D01*
X006241Y016391D02*
X004965Y016391D01*
X004965Y016453D02*
X006241Y016453D01*
X006241Y016515D02*
X004965Y016515D01*
X004965Y016577D02*
X006241Y016577D01*
X006241Y016639D02*
X004965Y016639D01*
X004965Y016701D02*
X006241Y016701D01*
X006241Y016763D02*
X004965Y016763D01*
D16*
X001082Y016852D02*
X001082Y015948D01*
X001082Y016852D02*
X002044Y016852D01*
X002044Y015948D01*
X001082Y015948D01*
X001082Y016047D02*
X002044Y016047D01*
X002044Y016146D02*
X001082Y016146D01*
X001082Y016245D02*
X002044Y016245D01*
X002044Y016344D02*
X001082Y016344D01*
X001082Y016443D02*
X002044Y016443D01*
X002044Y016542D02*
X001082Y016542D01*
X001082Y016641D02*
X002044Y016641D01*
X002044Y016740D02*
X001082Y016740D01*
X001082Y016839D02*
X002044Y016839D01*
X001082Y014352D02*
X001082Y013448D01*
X001082Y014352D02*
X002044Y014352D01*
X002044Y013448D01*
X001082Y013448D01*
X001082Y013547D02*
X002044Y013547D01*
X002044Y013646D02*
X001082Y013646D01*
X001082Y013745D02*
X002044Y013745D01*
X002044Y013844D02*
X001082Y013844D01*
X001082Y013943D02*
X002044Y013943D01*
X002044Y014042D02*
X001082Y014042D01*
X001082Y014141D02*
X002044Y014141D01*
X002044Y014240D02*
X001082Y014240D01*
X001082Y014339D02*
X002044Y014339D01*
D17*
X025994Y011376D02*
X025994Y010986D01*
X025994Y011376D02*
X027132Y011376D01*
X027132Y010986D01*
X025994Y010986D01*
X025994Y011028D02*
X027132Y011028D01*
X027132Y011070D02*
X025994Y011070D01*
X025994Y011112D02*
X027132Y011112D01*
X027132Y011154D02*
X025994Y011154D01*
X025994Y011196D02*
X027132Y011196D01*
X027132Y011238D02*
X025994Y011238D01*
X025994Y011280D02*
X027132Y011280D01*
X027132Y011322D02*
X025994Y011322D01*
X025994Y011364D02*
X027132Y011364D01*
D18*
X018746Y011033D02*
X018746Y011741D01*
X018746Y011033D02*
X017880Y011033D01*
X017880Y011741D01*
X018746Y011741D01*
X018746Y011111D02*
X017880Y011111D01*
X017880Y011189D02*
X018746Y011189D01*
X018746Y011267D02*
X017880Y011267D01*
X017880Y011345D02*
X018746Y011345D01*
X018746Y011423D02*
X017880Y011423D01*
X017880Y011501D02*
X018746Y011501D01*
X018746Y011579D02*
X017880Y011579D01*
X017880Y011657D02*
X018746Y011657D01*
X018746Y011735D02*
X017880Y011735D01*
X018746Y010167D02*
X018746Y009459D01*
X017880Y009459D01*
X017880Y010167D01*
X018746Y010167D01*
X018746Y009537D02*
X017880Y009537D01*
X017880Y009615D02*
X018746Y009615D01*
X018746Y009693D02*
X017880Y009693D01*
X017880Y009771D02*
X018746Y009771D01*
X018746Y009849D02*
X017880Y009849D01*
X017880Y009927D02*
X018746Y009927D01*
X018746Y010005D02*
X017880Y010005D01*
X017880Y010083D02*
X018746Y010083D01*
X018746Y010161D02*
X017880Y010161D01*
D19*
X034158Y013100D02*
X034467Y013100D01*
X034467Y014100D02*
X034158Y014100D01*
D20*
X034563Y016170D02*
X034563Y016530D01*
X033563Y016530D02*
X033563Y016170D01*
X032563Y016170D02*
X032563Y016530D01*
X031563Y016530D02*
X031563Y016170D01*
X030563Y016170D02*
X030563Y016530D01*
X029563Y016530D02*
X029563Y016170D01*
X028563Y016170D02*
X028563Y016530D01*
X027563Y016530D02*
X027563Y016170D01*
X026563Y016170D02*
X026563Y016530D01*
X025563Y016530D02*
X025563Y016170D01*
X024563Y016170D02*
X024563Y016530D01*
X023563Y016530D02*
X023563Y016170D01*
X022563Y016170D02*
X022563Y016530D01*
X021563Y016530D02*
X021563Y016170D01*
X035563Y016170D02*
X035563Y016530D01*
X034993Y004600D02*
X034633Y004600D01*
X034633Y003600D02*
X034993Y003600D01*
X034563Y001530D02*
X034563Y001170D01*
X033563Y001170D02*
X033563Y001530D01*
X032563Y001530D02*
X032563Y001170D01*
X031563Y001170D02*
X031563Y001530D01*
X030563Y001530D02*
X030563Y001170D01*
X029563Y001170D02*
X029563Y001530D01*
X028563Y001530D02*
X028563Y001170D01*
X027563Y001170D02*
X027563Y001530D01*
X026563Y001530D02*
X026563Y001170D01*
X025563Y001170D02*
X025563Y001530D01*
X024563Y001530D02*
X024563Y001170D01*
X023563Y001170D02*
X023563Y001530D01*
X022563Y001530D02*
X022563Y001170D01*
X021563Y001170D02*
X021563Y001530D01*
X035563Y001530D02*
X035563Y001170D01*
D21*
X036039Y000987D02*
X036063Y000987D01*
X036063Y001044D02*
X036063Y000350D01*
X013313Y000350D01*
X013313Y002629D01*
X013467Y002693D01*
X013654Y002880D01*
X013755Y003124D01*
X013755Y003389D01*
X013654Y003633D01*
X013467Y003820D01*
X013313Y003884D01*
X013313Y011232D01*
X013771Y011690D01*
X015449Y011690D01*
X015385Y011535D01*
X015385Y011440D01*
X015192Y011247D01*
X015153Y011152D01*
X015153Y007448D01*
X015192Y007353D01*
X015266Y007280D01*
X015361Y007240D01*
X020665Y007240D01*
X020760Y007280D01*
X020833Y007353D01*
X020836Y007355D01*
X020836Y006266D01*
X020875Y006170D01*
X021303Y005742D01*
X021303Y005447D01*
X021302Y005460D01*
X021295Y005466D01*
X021299Y005474D01*
X021271Y005550D01*
X021254Y005628D01*
X021246Y005633D01*
X021248Y005642D01*
X021210Y005713D01*
X021182Y005788D01*
X021173Y005792D01*
X021175Y005801D01*
X021126Y005865D01*
X021088Y005936D01*
X021079Y005939D01*
X021079Y005948D01*
X021022Y006005D01*
X020974Y006069D01*
X020965Y006071D01*
X020964Y006080D01*
X020899Y006128D01*
X020842Y006185D01*
X020833Y006185D01*
X020830Y006194D01*
X020760Y006232D01*
X020695Y006280D01*
X020686Y006279D01*
X020682Y006287D01*
X020607Y006316D01*
X020536Y006354D01*
X020528Y006352D01*
X020523Y006359D01*
X020444Y006376D01*
X020368Y006404D01*
X020367Y006404D02*
X020357Y006404D01*
X020360Y006401D02*
X020354Y006408D01*
X020274Y006413D01*
X020195Y006430D01*
X020187Y006426D01*
X020181Y006432D01*
X020100Y006426D01*
X020020Y006432D01*
X020013Y006426D01*
X020005Y006430D01*
X019927Y006413D01*
X019846Y006408D01*
X019840Y006401D01*
X019832Y006404D01*
X019757Y006376D01*
X019678Y006359D01*
X019673Y006352D01*
X019664Y006354D01*
X019593Y006316D01*
X019518Y006287D01*
X019514Y006279D01*
X019505Y006280D01*
X019441Y006232D01*
X019370Y006194D01*
X019367Y006185D01*
X019358Y006185D01*
X019301Y006128D01*
X019237Y006080D01*
X019236Y006071D01*
X019227Y006069D01*
X019178Y006005D01*
X019121Y005948D01*
X019121Y005939D01*
X019113Y005936D01*
X019074Y005865D01*
X019026Y005801D01*
X019027Y005792D01*
X019019Y005788D01*
X018991Y005713D01*
X018952Y005642D01*
X018955Y005633D01*
X018947Y005628D01*
X018930Y005550D01*
X018902Y005474D01*
X018905Y005466D01*
X018899Y005460D01*
X018893Y005380D01*
X018876Y005301D01*
X018881Y005293D01*
X018875Y005286D01*
X018880Y005206D01*
X018875Y005126D01*
X018881Y005119D01*
X018876Y005111D01*
X018893Y005032D01*
X018899Y004952D01*
X018905Y004946D01*
X018902Y004938D01*
X018930Y004862D01*
X018947Y004784D01*
X018955Y004779D01*
X018952Y004770D01*
X018991Y004699D01*
X019019Y004624D01*
X019027Y004620D01*
X019026Y004611D01*
X019074Y004546D01*
X019113Y004476D01*
X019121Y004473D01*
X019121Y004464D01*
X019178Y004407D01*
X019227Y004343D01*
X019236Y004341D01*
X019237Y004332D01*
X019301Y004284D01*
X019358Y004227D01*
X019367Y004227D01*
X019370Y004218D01*
X019441Y004180D01*
X019505Y004131D01*
X019514Y004133D01*
X019518Y004124D01*
X019593Y004096D01*
X019664Y004058D01*
X019673Y004060D01*
X019678Y004053D01*
X019757Y004035D01*
X019832Y004007D01*
X019840Y004011D01*
X019846Y004004D01*
X019927Y003998D01*
X020005Y003981D01*
X020013Y003986D01*
X020020Y003980D01*
X020100Y003986D01*
X020181Y003980D01*
X020187Y003986D01*
X020195Y003981D01*
X020274Y003998D01*
X020354Y004004D01*
X020360Y004011D01*
X020368Y004007D01*
X020444Y004035D01*
X020523Y004053D01*
X020528Y004060D01*
X020536Y004058D01*
X020607Y004096D01*
X020682Y004124D01*
X020686Y004133D01*
X020695Y004131D01*
X020760Y004180D01*
X020830Y004218D01*
X020833Y004227D01*
X020842Y004227D01*
X020899Y004284D01*
X020964Y004332D01*
X020965Y004341D01*
X020974Y004343D01*
X021022Y004407D01*
X021079Y004464D01*
X021079Y004473D01*
X021088Y004476D01*
X021126Y004546D01*
X021175Y004611D01*
X021173Y004620D01*
X021182Y004624D01*
X021210Y004699D01*
X021248Y004770D01*
X021246Y004779D01*
X021254Y004784D01*
X021271Y004862D01*
X021299Y004938D01*
X021295Y004946D01*
X021302Y004952D01*
X021303Y004965D01*
X021303Y001974D01*
X021274Y001962D01*
X021130Y001819D01*
X021053Y001631D01*
X021053Y001069D01*
X021130Y000881D01*
X021274Y000738D01*
X021461Y000660D01*
X021664Y000660D01*
X021852Y000738D01*
X021995Y000881D01*
X022063Y001044D01*
X022130Y000881D01*
X022274Y000738D01*
X022461Y000660D01*
X022664Y000660D01*
X022852Y000738D01*
X022995Y000881D01*
X023063Y001044D01*
X023130Y000881D01*
X023274Y000738D01*
X023461Y000660D01*
X023664Y000660D01*
X023852Y000738D01*
X023995Y000881D01*
X024063Y001044D01*
X024130Y000881D01*
X024274Y000738D01*
X024461Y000660D01*
X024664Y000660D01*
X024852Y000738D01*
X024995Y000881D01*
X025063Y001044D01*
X025130Y000881D01*
X025274Y000738D01*
X025461Y000660D01*
X025664Y000660D01*
X025852Y000738D01*
X025995Y000881D01*
X026063Y001044D01*
X026130Y000881D01*
X026274Y000738D01*
X026461Y000660D01*
X026664Y000660D01*
X026852Y000738D01*
X026995Y000881D01*
X027063Y001044D01*
X027130Y000881D01*
X027274Y000738D01*
X027461Y000660D01*
X027664Y000660D01*
X027852Y000738D01*
X027995Y000881D01*
X028063Y001044D01*
X028130Y000881D01*
X028274Y000738D01*
X028461Y000660D01*
X028664Y000660D01*
X028852Y000738D01*
X028995Y000881D01*
X029063Y001044D01*
X029130Y000881D01*
X029274Y000738D01*
X029461Y000660D01*
X029664Y000660D01*
X029852Y000738D01*
X029995Y000881D01*
X030063Y001044D01*
X030130Y000881D01*
X030274Y000738D01*
X030461Y000660D01*
X030664Y000660D01*
X030852Y000738D01*
X030995Y000881D01*
X031063Y001044D01*
X031130Y000881D01*
X031274Y000738D01*
X031461Y000660D01*
X031664Y000660D01*
X031852Y000738D01*
X031995Y000881D01*
X032063Y001044D01*
X032130Y000881D01*
X032274Y000738D01*
X032461Y000660D01*
X032664Y000660D01*
X032852Y000738D01*
X032995Y000881D01*
X033073Y001069D01*
X033073Y001631D01*
X032995Y001819D01*
X032852Y001962D01*
X032823Y001974D01*
X032823Y010840D01*
X035365Y010840D01*
X035460Y010880D01*
X035533Y010953D01*
X035573Y011048D01*
X035573Y011255D01*
X035676Y011357D01*
X035741Y011515D01*
X035741Y011685D01*
X035676Y011843D01*
X035555Y011963D01*
X035398Y012028D01*
X035228Y012028D01*
X035070Y011963D01*
X034950Y011843D01*
X034885Y011685D01*
X034885Y011515D01*
X034949Y011360D01*
X032823Y011360D01*
X032823Y015726D01*
X032852Y015738D01*
X032995Y015881D01*
X033073Y016069D01*
X033073Y016631D01*
X032995Y016819D01*
X032852Y016962D01*
X032664Y017040D01*
X032461Y017040D01*
X032274Y016962D01*
X032130Y016819D01*
X032063Y016656D01*
X031995Y016819D01*
X031852Y016962D01*
X031664Y017040D01*
X031461Y017040D01*
X031274Y016962D01*
X031130Y016819D01*
X031063Y016656D01*
X030995Y016819D01*
X030852Y016962D01*
X030664Y017040D01*
X030461Y017040D01*
X030274Y016962D01*
X030130Y016819D01*
X030063Y016656D01*
X029995Y016819D01*
X029852Y016962D01*
X029664Y017040D01*
X029461Y017040D01*
X029274Y016962D01*
X029130Y016819D01*
X029063Y016656D01*
X028995Y016819D01*
X028852Y016962D01*
X028664Y017040D01*
X028461Y017040D01*
X028274Y016962D01*
X028130Y016819D01*
X028063Y016656D01*
X027995Y016819D01*
X027852Y016962D01*
X027664Y017040D01*
X027461Y017040D01*
X027274Y016962D01*
X027130Y016819D01*
X027063Y016656D01*
X026995Y016819D01*
X026852Y016962D01*
X026664Y017040D01*
X026461Y017040D01*
X026274Y016962D01*
X026130Y016819D01*
X026063Y016656D01*
X025995Y016819D01*
X025852Y016962D01*
X025664Y017040D01*
X025461Y017040D01*
X025274Y016962D01*
X025130Y016819D01*
X025063Y016656D01*
X024995Y016819D01*
X024852Y016962D01*
X024664Y017040D01*
X024461Y017040D01*
X024274Y016962D01*
X024130Y016819D01*
X024063Y016656D01*
X023995Y016819D01*
X023852Y016962D01*
X023664Y017040D01*
X023461Y017040D01*
X023274Y016962D01*
X023130Y016819D01*
X023063Y016656D01*
X022995Y016819D01*
X022852Y016962D01*
X022664Y017040D01*
X022461Y017040D01*
X022274Y016962D01*
X022130Y016819D01*
X022063Y016656D01*
X021995Y016819D01*
X021852Y016962D01*
X021664Y017040D01*
X021461Y017040D01*
X021274Y016962D01*
X021130Y016819D01*
X021053Y016631D01*
X021053Y016260D01*
X013661Y016260D01*
X013566Y016220D01*
X013557Y016212D01*
X013455Y016313D01*
X013313Y016372D01*
X013313Y017350D01*
X036063Y017350D01*
X036063Y016656D01*
X035995Y016819D01*
X035852Y016962D01*
X035664Y017040D01*
X035461Y017040D01*
X035274Y016962D01*
X035130Y016819D01*
X035063Y016656D01*
X034995Y016819D01*
X034852Y016962D01*
X034664Y017040D01*
X034461Y017040D01*
X034274Y016962D01*
X034130Y016819D01*
X034053Y016631D01*
X034053Y016069D01*
X034130Y015881D01*
X034274Y015738D01*
X034461Y015660D01*
X034664Y015660D01*
X034852Y015738D01*
X034995Y015881D01*
X035063Y016044D01*
X035130Y015881D01*
X035274Y015738D01*
X035461Y015660D01*
X035664Y015660D01*
X035852Y015738D01*
X035995Y015881D01*
X036063Y016044D01*
X036063Y001656D01*
X035995Y001819D01*
X035852Y001962D01*
X035664Y002040D01*
X035461Y002040D01*
X035274Y001962D01*
X035130Y001819D01*
X035063Y001656D01*
X034995Y001819D01*
X034852Y001962D01*
X034664Y002040D01*
X034461Y002040D01*
X034274Y001962D01*
X034130Y001819D01*
X034053Y001631D01*
X034053Y001069D01*
X034130Y000881D01*
X034274Y000738D01*
X034461Y000660D01*
X034664Y000660D01*
X034852Y000738D01*
X034995Y000881D01*
X035063Y001044D01*
X035130Y000881D01*
X035274Y000738D01*
X035461Y000660D01*
X035664Y000660D01*
X035852Y000738D01*
X035995Y000881D01*
X036063Y001044D01*
X036063Y000888D02*
X035998Y000888D01*
X036063Y000790D02*
X035904Y000790D01*
X036063Y000691D02*
X035739Y000691D01*
X036063Y000593D02*
X013313Y000593D01*
X013313Y000691D02*
X021387Y000691D01*
X021222Y000790D02*
X013313Y000790D01*
X013313Y000888D02*
X021128Y000888D01*
X021087Y000987D02*
X013313Y000987D01*
X013313Y001085D02*
X021053Y001085D01*
X021053Y001184D02*
X013313Y001184D01*
X013313Y001282D02*
X021053Y001282D01*
X021053Y001381D02*
X013313Y001381D01*
X013313Y001479D02*
X021053Y001479D01*
X021053Y001578D02*
X013313Y001578D01*
X013313Y001676D02*
X013743Y001676D01*
X013718Y001690D02*
X013795Y001646D01*
X013877Y001612D01*
X013962Y001589D01*
X014044Y001578D01*
X014044Y002202D01*
X014144Y002202D01*
X014144Y001578D01*
X014226Y001589D01*
X014312Y001612D01*
X014393Y001646D01*
X014470Y001690D01*
X014540Y001744D01*
X014603Y001806D01*
X014657Y001877D01*
X014701Y001953D01*
X014735Y002035D01*
X014758Y002120D01*
X014768Y002202D01*
X014144Y002202D01*
X014144Y002302D01*
X014768Y002302D01*
X014758Y002384D01*
X014735Y002470D01*
X014701Y002552D01*
X014657Y002628D01*
X014603Y002698D01*
X014540Y002761D01*
X014470Y002815D01*
X014393Y002859D01*
X014312Y002893D01*
X014226Y002916D01*
X014144Y002927D01*
X014144Y002302D01*
X014044Y002302D01*
X014044Y002202D01*
X013420Y002202D01*
X013431Y002120D01*
X013454Y002035D01*
X013488Y001953D01*
X013532Y001877D01*
X013586Y001806D01*
X013648Y001744D01*
X013718Y001690D01*
X013618Y001775D02*
X013313Y001775D01*
X013313Y001873D02*
X013535Y001873D01*
X013480Y001972D02*
X013313Y001972D01*
X013313Y002070D02*
X013444Y002070D01*
X013424Y002169D02*
X013313Y002169D01*
X013313Y002267D02*
X014044Y002267D01*
X014044Y002302D02*
X013420Y002302D01*
X013431Y002384D01*
X013454Y002470D01*
X013488Y002552D01*
X013532Y002628D01*
X013586Y002698D01*
X013648Y002761D01*
X013718Y002815D01*
X013795Y002859D01*
X013877Y002893D01*
X013962Y002916D01*
X014044Y002927D01*
X014044Y002302D01*
X014044Y002366D02*
X014144Y002366D01*
X014144Y002464D02*
X014044Y002464D01*
X014044Y002563D02*
X014144Y002563D01*
X014144Y002661D02*
X014044Y002661D01*
X014044Y002760D02*
X014144Y002760D01*
X014144Y002858D02*
X014044Y002858D01*
X013793Y002858D02*
X013632Y002858D01*
X013647Y002760D02*
X013534Y002760D01*
X013557Y002661D02*
X013391Y002661D01*
X013313Y002563D02*
X013494Y002563D01*
X013452Y002464D02*
X013313Y002464D01*
X013313Y002366D02*
X013428Y002366D01*
X014044Y002169D02*
X014144Y002169D01*
X014144Y002267D02*
X021303Y002267D01*
X021303Y002169D02*
X014764Y002169D01*
X014744Y002070D02*
X021303Y002070D01*
X021296Y001972D02*
X014708Y001972D01*
X014654Y001873D02*
X021185Y001873D01*
X021112Y001775D02*
X014571Y001775D01*
X014446Y001676D02*
X021071Y001676D01*
X021563Y001350D02*
X021563Y005850D01*
X021096Y006317D01*
X021096Y008823D01*
X021410Y008823D02*
X021410Y006502D01*
X022563Y005350D01*
X022563Y001350D01*
X023039Y000987D02*
X023087Y000987D01*
X023128Y000888D02*
X022998Y000888D01*
X022904Y000790D02*
X023222Y000790D01*
X023387Y000691D02*
X022739Y000691D01*
X022387Y000691D02*
X021739Y000691D01*
X021904Y000790D02*
X022222Y000790D01*
X022128Y000888D02*
X021998Y000888D01*
X022039Y000987D02*
X022087Y000987D01*
X023563Y001350D02*
X023563Y004850D01*
X021725Y006687D01*
X021725Y008823D01*
X022040Y008823D02*
X022040Y007122D01*
X024563Y004600D01*
X024563Y001350D01*
X025039Y000987D02*
X025087Y000987D01*
X025128Y000888D02*
X024998Y000888D01*
X024904Y000790D02*
X025222Y000790D01*
X025387Y000691D02*
X024739Y000691D01*
X024387Y000691D02*
X023739Y000691D01*
X023904Y000790D02*
X024222Y000790D01*
X024128Y000888D02*
X023998Y000888D01*
X024039Y000987D02*
X024087Y000987D01*
X025063Y001850D02*
X025563Y001350D01*
X026039Y000987D02*
X026087Y000987D01*
X026128Y000888D02*
X025998Y000888D01*
X025904Y000790D02*
X026222Y000790D01*
X026387Y000691D02*
X025739Y000691D01*
X026739Y000691D02*
X027387Y000691D01*
X027222Y000790D02*
X026904Y000790D01*
X026998Y000888D02*
X027128Y000888D01*
X027087Y000987D02*
X027039Y000987D01*
X026563Y001350D02*
X025313Y002600D01*
X025313Y004650D01*
X024613Y005350D01*
X024613Y008350D01*
X023300Y008350D01*
X023300Y008823D01*
X022985Y008823D02*
X022985Y008150D01*
X024413Y008150D01*
X024413Y005250D01*
X025063Y004600D01*
X025063Y001850D01*
X027563Y001350D02*
X027563Y002850D01*
X025013Y005400D01*
X025013Y009250D01*
X023615Y009250D01*
X023615Y008823D01*
X023930Y008823D02*
X023963Y008823D01*
X024613Y008850D01*
X023379Y009359D02*
X022615Y009359D01*
X022615Y009268D02*
X022615Y010531D01*
X024134Y010531D01*
X024134Y009510D01*
X023563Y009510D01*
X023468Y009470D01*
X023395Y009397D01*
X023366Y009328D01*
X023126Y009328D01*
X022811Y009328D01*
X022751Y009268D01*
X022670Y009268D01*
X022615Y009268D01*
X022670Y009268D02*
X022670Y008823D01*
X022670Y008823D01*
X022670Y009268D01*
X022670Y009261D02*
X022670Y009261D01*
X022670Y009162D02*
X022670Y009162D01*
X022670Y009064D02*
X022670Y009064D01*
X022670Y008965D02*
X022670Y008965D01*
X022670Y008867D02*
X022670Y008867D01*
X022670Y008823D02*
X022670Y007950D01*
X023364Y007950D01*
X023864Y007450D01*
X023814Y007488D02*
X023287Y007488D01*
X023287Y007586D02*
X023399Y007586D01*
X023399Y007500D02*
X023814Y007500D01*
X023814Y007400D01*
X023399Y007400D01*
X023399Y007103D01*
X023411Y007057D01*
X023435Y007016D01*
X023469Y006982D01*
X023510Y006958D01*
X023557Y006946D01*
X023814Y006946D01*
X023814Y007400D01*
X023914Y007400D01*
X023914Y006946D01*
X024153Y006946D01*
X024153Y005378D01*
X022645Y006886D01*
X023093Y006886D01*
X023182Y006922D01*
X023250Y006990D01*
X023287Y007079D01*
X023287Y007821D01*
X023258Y007890D01*
X023441Y007890D01*
X023435Y007884D01*
X023411Y007843D01*
X023399Y007797D01*
X023399Y007500D01*
X023399Y007389D02*
X023287Y007389D01*
X023287Y007291D02*
X023399Y007291D01*
X023399Y007192D02*
X023287Y007192D01*
X023287Y007094D02*
X023402Y007094D01*
X023456Y006995D02*
X023252Y006995D01*
X023119Y006897D02*
X024153Y006897D01*
X024153Y006798D02*
X022733Y006798D01*
X022831Y006700D02*
X024153Y006700D01*
X024153Y006601D02*
X022930Y006601D01*
X023028Y006503D02*
X024153Y006503D01*
X024153Y006404D02*
X023127Y006404D01*
X023225Y006306D02*
X024153Y006306D01*
X024153Y006207D02*
X023324Y006207D01*
X023422Y006109D02*
X024153Y006109D01*
X024153Y006010D02*
X023521Y006010D01*
X023619Y005912D02*
X024153Y005912D01*
X024153Y005813D02*
X023718Y005813D01*
X023816Y005715D02*
X024153Y005715D01*
X024153Y005616D02*
X023915Y005616D01*
X024013Y005518D02*
X024153Y005518D01*
X024153Y005419D02*
X024112Y005419D01*
X025263Y005900D02*
X027613Y003550D01*
X027813Y003350D01*
X028563Y002600D01*
X028563Y001350D01*
X029039Y000987D02*
X029087Y000987D01*
X029128Y000888D02*
X028998Y000888D01*
X028904Y000790D02*
X029222Y000790D01*
X029387Y000691D02*
X028739Y000691D01*
X028387Y000691D02*
X027739Y000691D01*
X027904Y000790D02*
X028222Y000790D01*
X028128Y000888D02*
X027998Y000888D01*
X028039Y000987D02*
X028087Y000987D01*
X029563Y001350D02*
X029563Y002100D01*
X025463Y006200D01*
X025463Y009846D01*
X024639Y009846D01*
X024134Y009852D02*
X022615Y009852D01*
X022615Y009950D02*
X024134Y009950D01*
X024134Y010049D02*
X022615Y010049D01*
X022615Y010147D02*
X024134Y010147D01*
X024134Y010246D02*
X022615Y010246D01*
X022615Y010344D02*
X024134Y010344D01*
X024134Y010443D02*
X022615Y010443D01*
X022563Y010791D02*
X022355Y010791D01*
X022355Y008823D01*
X022355Y007700D01*
X022762Y007450D01*
X023287Y007685D02*
X023399Y007685D01*
X023399Y007783D02*
X023287Y007783D01*
X023261Y007882D02*
X023434Y007882D01*
X022760Y008014D02*
X022615Y008014D01*
X022615Y008378D01*
X022670Y008378D01*
X022670Y008823D01*
X022670Y008823D01*
X022670Y008378D01*
X022725Y008378D01*
X022725Y008098D01*
X022760Y008014D01*
X022733Y008079D02*
X022615Y008079D01*
X022615Y008177D02*
X022725Y008177D01*
X022725Y008276D02*
X022615Y008276D01*
X022615Y008374D02*
X022725Y008374D01*
X022670Y008473D02*
X022670Y008473D01*
X022670Y008571D02*
X022670Y008571D01*
X022670Y008670D02*
X022670Y008670D01*
X022670Y008768D02*
X022670Y008768D01*
X022095Y009328D02*
X020607Y009328D01*
X020472Y009194D01*
X020472Y008452D01*
X020521Y008404D01*
X020521Y007775D01*
X020505Y007760D01*
X020091Y007760D01*
X020219Y007889D01*
X020292Y007962D01*
X020332Y008057D01*
X020332Y009223D01*
X020443Y009223D01*
X020577Y009358D01*
X020577Y009590D01*
X020717Y009590D01*
X020820Y009487D01*
X020978Y009422D01*
X021148Y009422D01*
X021305Y009487D01*
X021426Y009607D01*
X021491Y009765D01*
X021491Y009922D01*
X021548Y009922D01*
X021705Y009987D01*
X021826Y010107D01*
X021891Y010265D01*
X021891Y010435D01*
X021826Y010593D01*
X021705Y010713D01*
X021548Y010778D01*
X021378Y010778D01*
X021220Y010713D01*
X021117Y010610D01*
X020861Y010610D01*
X020766Y010570D01*
X020655Y010460D01*
X020577Y010460D01*
X020577Y010965D01*
X020517Y011025D01*
X020517Y011106D01*
X020072Y011106D01*
X020072Y011106D01*
X019627Y011106D01*
X019627Y011051D01*
X019017Y011051D01*
X018995Y011073D01*
X018995Y011161D01*
X019627Y011161D01*
X019627Y011106D01*
X020072Y011106D01*
X020072Y011106D01*
X020517Y011106D01*
X020517Y011161D01*
X022303Y011161D01*
X022303Y011051D01*
X022208Y011012D01*
X022135Y010939D01*
X022095Y010843D01*
X022095Y009328D01*
X022095Y009359D02*
X020577Y009359D01*
X020577Y009458D02*
X020892Y009458D01*
X020751Y009556D02*
X020577Y009556D01*
X020539Y009261D02*
X020480Y009261D01*
X020472Y009162D02*
X020332Y009162D01*
X020332Y009064D02*
X020472Y009064D01*
X020472Y008965D02*
X020332Y008965D01*
X020332Y008867D02*
X020472Y008867D01*
X020472Y008768D02*
X020332Y008768D01*
X020332Y008670D02*
X020472Y008670D01*
X020472Y008571D02*
X020332Y008571D01*
X020332Y008473D02*
X020472Y008473D01*
X020521Y008374D02*
X020332Y008374D01*
X020332Y008276D02*
X020521Y008276D01*
X020521Y008177D02*
X020332Y008177D01*
X020332Y008079D02*
X020521Y008079D01*
X020521Y007980D02*
X020300Y007980D01*
X020212Y007882D02*
X020521Y007882D01*
X020521Y007783D02*
X020114Y007783D01*
X019813Y007850D02*
X020072Y008109D01*
X020072Y009531D01*
X020072Y009846D02*
X020075Y009850D01*
X021063Y009850D01*
X021445Y009655D02*
X022095Y009655D01*
X022095Y009753D02*
X021486Y009753D01*
X021491Y009852D02*
X022095Y009852D01*
X022095Y009950D02*
X021616Y009950D01*
X021767Y010049D02*
X022095Y010049D01*
X022095Y010147D02*
X021842Y010147D01*
X021883Y010246D02*
X022095Y010246D01*
X022095Y010344D02*
X021891Y010344D01*
X021888Y010443D02*
X022095Y010443D01*
X022095Y010541D02*
X021847Y010541D01*
X021779Y010640D02*
X022095Y010640D01*
X022095Y010738D02*
X021645Y010738D01*
X021281Y010738D02*
X020577Y010738D01*
X020577Y010640D02*
X021147Y010640D01*
X020913Y010350D02*
X020763Y010200D01*
X020110Y010200D01*
X020072Y010161D01*
X020072Y010476D02*
X018977Y010476D01*
X018313Y009813D01*
X018464Y009813D01*
X018464Y008850D01*
X017939Y008867D02*
X017412Y008867D01*
X017412Y008900D02*
X017827Y008900D01*
X017827Y009197D01*
X017823Y009212D01*
X017830Y009209D01*
X017939Y009209D01*
X017939Y008510D01*
X017827Y008510D01*
X017827Y008800D01*
X017412Y008800D01*
X017412Y008900D01*
X017312Y008900D01*
X017312Y009354D01*
X017073Y009354D01*
X017073Y011846D01*
X017312Y011846D01*
X017312Y012300D01*
X017412Y012300D01*
X017412Y012400D01*
X017827Y012400D01*
X017827Y012604D01*
X017861Y012590D01*
X017939Y012590D01*
X017939Y011991D01*
X017830Y011991D01*
X017823Y011988D01*
X017827Y012003D01*
X017827Y012300D01*
X017412Y012300D01*
X017412Y011846D01*
X017653Y011846D01*
X017630Y011791D01*
X017630Y010983D01*
X017668Y010892D01*
X017739Y010822D01*
X017830Y010784D01*
X018549Y010784D01*
X018733Y010600D01*
X018549Y010416D01*
X017830Y010416D01*
X017739Y010378D01*
X017668Y010308D01*
X017630Y010217D01*
X017630Y009409D01*
X017653Y009354D01*
X017412Y009354D01*
X017412Y008900D01*
X017412Y008965D02*
X017312Y008965D01*
X017312Y008900D02*
X017073Y008900D01*
X017073Y008800D01*
X017312Y008800D01*
X017312Y008900D01*
X017312Y008867D02*
X017073Y008867D01*
X017113Y008850D02*
X017362Y008850D01*
X017113Y008850D02*
X017113Y012350D01*
X017362Y012350D01*
X017412Y012314D02*
X017939Y012314D01*
X017939Y012216D02*
X017827Y012216D01*
X017827Y012117D02*
X017939Y012117D01*
X017939Y012019D02*
X017827Y012019D01*
X017643Y011822D02*
X017073Y011822D01*
X017073Y011723D02*
X017630Y011723D01*
X017630Y011625D02*
X017073Y011625D01*
X017073Y011526D02*
X017630Y011526D01*
X017630Y011428D02*
X017073Y011428D01*
X017073Y011329D02*
X017630Y011329D01*
X017630Y011231D02*
X017073Y011231D01*
X017073Y011132D02*
X017630Y011132D01*
X017630Y011034D02*
X017073Y011034D01*
X017073Y010935D02*
X017650Y010935D01*
X017724Y010837D02*
X017073Y010837D01*
X017073Y010738D02*
X018595Y010738D01*
X018693Y010640D02*
X017073Y010640D01*
X017073Y010541D02*
X018674Y010541D01*
X018575Y010443D02*
X017073Y010443D01*
X017073Y010344D02*
X017704Y010344D01*
X017642Y010246D02*
X017073Y010246D01*
X017073Y010147D02*
X017630Y010147D01*
X017630Y010049D02*
X017073Y010049D01*
X017073Y009950D02*
X017630Y009950D01*
X017630Y009852D02*
X017073Y009852D01*
X017073Y009753D02*
X017630Y009753D01*
X017630Y009655D02*
X017073Y009655D01*
X017073Y009556D02*
X017630Y009556D01*
X017630Y009458D02*
X017073Y009458D01*
X017073Y009359D02*
X017651Y009359D01*
X017412Y009261D02*
X017312Y009261D01*
X017312Y009162D02*
X017412Y009162D01*
X017412Y009064D02*
X017312Y009064D01*
X017827Y009064D02*
X017939Y009064D01*
X017939Y009162D02*
X017827Y009162D01*
X017827Y008965D02*
X017939Y008965D01*
X017939Y008768D02*
X017827Y008768D01*
X017827Y008670D02*
X017939Y008670D01*
X017939Y008571D02*
X017827Y008571D01*
X016813Y008250D02*
X016813Y013250D01*
X017305Y013250D01*
X017355Y013343D01*
X016713Y013600D02*
X016613Y013500D01*
X016613Y012950D01*
X015613Y011950D01*
X013663Y011950D01*
X013013Y011300D01*
X011213Y011300D01*
X008763Y008850D01*
X002063Y008850D01*
X000913Y009350D02*
X000763Y009500D01*
X000763Y010350D01*
X000913Y009350D02*
X007613Y009350D01*
X010213Y011950D01*
X010813Y011950D01*
X011513Y012650D01*
X013313Y012650D01*
X013313Y015350D01*
X012763Y015368D02*
X006563Y015368D01*
X006563Y015466D02*
X012763Y015466D01*
X012763Y015565D02*
X006563Y015565D01*
X006563Y015663D02*
X012763Y015663D01*
X012763Y015762D02*
X006563Y015762D01*
X006563Y015860D02*
X012813Y015860D01*
X012813Y015833D02*
X012763Y015783D01*
X012763Y014500D01*
X006563Y014500D01*
X006563Y017350D01*
X013813Y017350D01*
X013813Y016450D01*
X012813Y016450D01*
X012813Y015833D01*
X012813Y015959D02*
X006563Y015959D01*
X006563Y016057D02*
X012813Y016057D01*
X012813Y016156D02*
X006563Y016156D01*
X006563Y016254D02*
X012813Y016254D01*
X012813Y016353D02*
X006563Y016353D01*
X006563Y016451D02*
X013813Y016451D01*
X013813Y016550D02*
X006563Y016550D01*
X006563Y016648D02*
X013813Y016648D01*
X013813Y016747D02*
X006563Y016747D01*
X006563Y016845D02*
X013813Y016845D01*
X013813Y016944D02*
X006563Y016944D01*
X006563Y017042D02*
X013813Y017042D01*
X013813Y017141D02*
X006563Y017141D01*
X006563Y017239D02*
X013813Y017239D01*
X013813Y017338D02*
X006563Y017338D01*
X006563Y015269D02*
X012763Y015269D01*
X012763Y015171D02*
X006563Y015171D01*
X006563Y015072D02*
X012763Y015072D01*
X012763Y014974D02*
X006563Y014974D01*
X006563Y014875D02*
X012763Y014875D01*
X012763Y014777D02*
X006563Y014777D01*
X006563Y014678D02*
X012763Y014678D01*
X012763Y014580D02*
X006563Y014580D01*
X006563Y014300D02*
X009013Y014300D01*
X009013Y013150D01*
X006563Y013150D01*
X006563Y014300D01*
X006563Y014284D02*
X009013Y014284D01*
X009013Y014186D02*
X006563Y014186D01*
X006563Y014087D02*
X009013Y014087D01*
X009013Y013989D02*
X006563Y013989D01*
X006563Y013890D02*
X009013Y013890D01*
X009013Y013792D02*
X006563Y013792D01*
X006563Y013693D02*
X009013Y013693D01*
X009013Y013595D02*
X006563Y013595D01*
X006563Y013496D02*
X009013Y013496D01*
X009013Y013398D02*
X006563Y013398D01*
X006563Y013299D02*
X009013Y013299D01*
X009013Y013201D02*
X006563Y013201D01*
X009563Y013201D02*
X012763Y013201D01*
X012763Y013299D02*
X009563Y013299D01*
X009563Y013398D02*
X012763Y013398D01*
X012763Y013496D02*
X009563Y013496D01*
X009563Y013595D02*
X012763Y013595D01*
X012763Y013693D02*
X009563Y013693D01*
X009563Y013792D02*
X012763Y013792D01*
X012763Y013890D02*
X009563Y013890D01*
X009563Y013989D02*
X012763Y013989D01*
X012763Y014087D02*
X009563Y014087D01*
X009563Y014186D02*
X012763Y014186D01*
X012763Y014284D02*
X009563Y014284D01*
X009563Y014300D02*
X012763Y014300D01*
X012763Y013100D01*
X009563Y013100D01*
X009563Y014300D01*
X009563Y013102D02*
X012763Y013102D01*
X012963Y012900D02*
X011063Y012900D01*
X010513Y012350D01*
X011463Y012000D02*
X011913Y012450D01*
X015763Y012450D01*
X016013Y012700D01*
X016013Y013300D01*
X016163Y013450D01*
X015813Y013700D02*
X015813Y013100D01*
X015513Y012800D01*
X014663Y012800D01*
X013663Y012800D01*
X013663Y014000D01*
X013713Y014444D02*
X013713Y016000D01*
X019963Y016000D01*
X019963Y014000D01*
X020313Y014100D02*
X020313Y013600D01*
X019563Y013600D01*
X019563Y015400D01*
X015255Y015400D01*
X015255Y015444D01*
X013647Y016254D02*
X013514Y016254D01*
X013360Y016353D02*
X021053Y016353D01*
X021053Y016451D02*
X013313Y016451D01*
X013313Y016550D02*
X021053Y016550D01*
X021060Y016648D02*
X013313Y016648D01*
X013313Y016747D02*
X021101Y016747D01*
X021157Y016845D02*
X013313Y016845D01*
X013313Y016944D02*
X021255Y016944D01*
X021871Y016944D02*
X022255Y016944D01*
X022157Y016845D02*
X021969Y016845D01*
X022025Y016747D02*
X022101Y016747D01*
X022563Y016350D02*
X020313Y014100D01*
X020513Y013850D02*
X020513Y012051D01*
X020072Y012051D01*
X019363Y012051D01*
X019363Y014400D01*
X015255Y014400D01*
X015255Y014444D01*
X015955Y014144D02*
X015255Y013444D01*
X015813Y013700D02*
X016063Y013950D01*
X017913Y013950D01*
X017913Y012850D01*
X018963Y012850D01*
X018963Y011421D01*
X020072Y011421D01*
X022563Y011421D01*
X022563Y010791D01*
X024639Y010791D01*
X032563Y010791D01*
X032563Y011100D01*
X035313Y011100D01*
X035313Y011600D01*
X034921Y011428D02*
X032823Y011428D01*
X032823Y011526D02*
X034885Y011526D01*
X034885Y011625D02*
X032823Y011625D01*
X032823Y011723D02*
X034900Y011723D01*
X034941Y011822D02*
X032823Y011822D01*
X032823Y011920D02*
X035027Y011920D01*
X035205Y012019D02*
X032823Y012019D01*
X032823Y012117D02*
X036063Y012117D01*
X036063Y012019D02*
X035421Y012019D01*
X035598Y011920D02*
X036063Y011920D01*
X036063Y011822D02*
X035684Y011822D01*
X035725Y011723D02*
X036063Y011723D01*
X036063Y011625D02*
X035741Y011625D01*
X035741Y011526D02*
X036063Y011526D01*
X036063Y011428D02*
X035705Y011428D01*
X035647Y011329D02*
X036063Y011329D01*
X036063Y011231D02*
X035573Y011231D01*
X035573Y011132D02*
X036063Y011132D01*
X036063Y011034D02*
X035567Y011034D01*
X035516Y010935D02*
X036063Y010935D01*
X036063Y010837D02*
X032823Y010837D01*
X032823Y010738D02*
X036063Y010738D01*
X036063Y010640D02*
X032823Y010640D01*
X032823Y010541D02*
X036063Y010541D01*
X036063Y010443D02*
X032823Y010443D01*
X032823Y010344D02*
X036063Y010344D01*
X036063Y010246D02*
X032823Y010246D01*
X032823Y010147D02*
X036063Y010147D01*
X036063Y010049D02*
X032823Y010049D01*
X032823Y009950D02*
X036063Y009950D01*
X036063Y009852D02*
X032823Y009852D01*
X032823Y009753D02*
X036063Y009753D01*
X036063Y009655D02*
X032823Y009655D01*
X032823Y009556D02*
X036063Y009556D01*
X036063Y009458D02*
X032823Y009458D01*
X032823Y009359D02*
X036063Y009359D01*
X036063Y009261D02*
X032823Y009261D01*
X032823Y009162D02*
X036063Y009162D01*
X036063Y009064D02*
X032823Y009064D01*
X032823Y008965D02*
X036063Y008965D01*
X036063Y008867D02*
X032823Y008867D01*
X032823Y008768D02*
X036063Y008768D01*
X036063Y008670D02*
X032823Y008670D01*
X032823Y008571D02*
X036063Y008571D01*
X036063Y008473D02*
X032823Y008473D01*
X032823Y008374D02*
X036063Y008374D01*
X036063Y008276D02*
X032823Y008276D01*
X032823Y008177D02*
X036063Y008177D01*
X036063Y008079D02*
X032823Y008079D01*
X032823Y007980D02*
X036063Y007980D01*
X036063Y007882D02*
X032823Y007882D01*
X032823Y007783D02*
X036063Y007783D01*
X036063Y007685D02*
X032823Y007685D01*
X032823Y007586D02*
X036063Y007586D01*
X036063Y007488D02*
X032823Y007488D01*
X032823Y007389D02*
X036063Y007389D01*
X036063Y007291D02*
X032823Y007291D01*
X032823Y007192D02*
X036063Y007192D01*
X036063Y007094D02*
X032823Y007094D01*
X032823Y006995D02*
X036063Y006995D01*
X036063Y006897D02*
X032823Y006897D01*
X032823Y006798D02*
X036063Y006798D01*
X036063Y006700D02*
X032823Y006700D01*
X032823Y006601D02*
X036063Y006601D01*
X036063Y006503D02*
X032823Y006503D01*
X032823Y006404D02*
X036063Y006404D01*
X036063Y006306D02*
X032823Y006306D01*
X032823Y006207D02*
X036063Y006207D01*
X036063Y006109D02*
X032823Y006109D01*
X032823Y006010D02*
X036063Y006010D01*
X036063Y005912D02*
X032823Y005912D01*
X032823Y005813D02*
X036063Y005813D01*
X036063Y005715D02*
X032823Y005715D01*
X032823Y005616D02*
X036063Y005616D01*
X036063Y005518D02*
X032823Y005518D01*
X032823Y005419D02*
X036063Y005419D01*
X036063Y005321D02*
X032823Y005321D01*
X032823Y005222D02*
X036063Y005222D01*
X036063Y005124D02*
X032823Y005124D01*
X032823Y005025D02*
X034337Y005025D01*
X034344Y005032D02*
X034200Y004889D01*
X034123Y004701D01*
X034123Y004499D01*
X034200Y004311D01*
X034344Y004168D01*
X034507Y004100D01*
X034344Y004032D01*
X034200Y003889D01*
X034123Y003701D01*
X034123Y003499D01*
X034200Y003311D01*
X034344Y003168D01*
X034531Y003090D01*
X035094Y003090D01*
X035282Y003168D01*
X035425Y003311D01*
X035503Y003499D01*
X035503Y003701D01*
X035425Y003889D01*
X035282Y004032D01*
X035118Y004100D01*
X035282Y004168D01*
X035425Y004311D01*
X035503Y004499D01*
X035503Y004701D01*
X035425Y004889D01*
X035282Y005032D01*
X035094Y005110D01*
X034531Y005110D01*
X034344Y005032D01*
X034238Y004927D02*
X032823Y004927D01*
X032823Y004828D02*
X034175Y004828D01*
X034134Y004730D02*
X032823Y004730D01*
X032823Y004631D02*
X034123Y004631D01*
X034123Y004533D02*
X032823Y004533D01*
X032823Y004434D02*
X034150Y004434D01*
X034190Y004336D02*
X032823Y004336D01*
X032823Y004237D02*
X034275Y004237D01*
X034414Y004139D02*
X032823Y004139D01*
X032823Y004040D02*
X034362Y004040D01*
X034253Y003942D02*
X032823Y003942D01*
X032823Y003843D02*
X034181Y003843D01*
X034141Y003745D02*
X032823Y003745D01*
X032823Y003646D02*
X034123Y003646D01*
X034123Y003548D02*
X032823Y003548D01*
X032823Y003449D02*
X034143Y003449D01*
X034184Y003351D02*
X032823Y003351D01*
X032823Y003252D02*
X034260Y003252D01*
X034378Y003154D02*
X032823Y003154D01*
X032823Y003055D02*
X036063Y003055D01*
X036063Y002957D02*
X032823Y002957D01*
X032823Y002858D02*
X036063Y002858D01*
X036063Y002760D02*
X032823Y002760D01*
X032823Y002661D02*
X036063Y002661D01*
X036063Y002563D02*
X032823Y002563D01*
X032823Y002464D02*
X036063Y002464D01*
X036063Y002366D02*
X032823Y002366D01*
X032823Y002267D02*
X036063Y002267D01*
X036063Y002169D02*
X032823Y002169D01*
X032823Y002070D02*
X036063Y002070D01*
X036063Y001972D02*
X035830Y001972D01*
X035941Y001873D02*
X036063Y001873D01*
X036063Y001775D02*
X036014Y001775D01*
X036054Y001676D02*
X036063Y001676D01*
X035296Y001972D02*
X034830Y001972D01*
X034941Y001873D02*
X035185Y001873D01*
X035112Y001775D02*
X035014Y001775D01*
X035054Y001676D02*
X035071Y001676D01*
X034296Y001972D02*
X033652Y001972D01*
X033668Y001969D02*
X033736Y001947D01*
X033799Y001915D01*
X033856Y001873D01*
X034185Y001873D01*
X034112Y001775D02*
X033941Y001775D01*
X033948Y001766D02*
X033906Y001823D01*
X033856Y001873D01*
X033948Y001766D02*
X033980Y001703D01*
X034002Y001635D01*
X034013Y001565D01*
X034013Y001400D01*
X033613Y001400D01*
X033613Y001300D01*
X034013Y001300D01*
X034013Y001135D01*
X034002Y001065D01*
X033980Y000997D01*
X033948Y000934D01*
X033906Y000877D01*
X033856Y000827D01*
X033799Y000785D01*
X033736Y000753D01*
X033668Y000731D01*
X033613Y000722D01*
X033613Y001300D01*
X033513Y001300D01*
X033513Y000722D01*
X033457Y000731D01*
X033390Y000753D01*
X033327Y000785D01*
X033270Y000827D01*
X033220Y000877D01*
X033178Y000934D01*
X033146Y000997D01*
X033124Y001065D01*
X033113Y001135D01*
X033113Y001300D01*
X033513Y001300D01*
X033513Y001400D01*
X033513Y001978D01*
X033457Y001969D01*
X033390Y001947D01*
X033327Y001915D01*
X033270Y001873D01*
X033220Y001823D01*
X033178Y001766D01*
X033146Y001703D01*
X033124Y001635D01*
X033113Y001565D01*
X033113Y001400D01*
X033513Y001400D01*
X033613Y001400D01*
X033613Y001978D01*
X033668Y001969D01*
X033613Y001972D02*
X033513Y001972D01*
X033474Y001972D02*
X032830Y001972D01*
X032941Y001873D02*
X033269Y001873D01*
X033184Y001775D02*
X033014Y001775D01*
X033054Y001676D02*
X033137Y001676D01*
X033115Y001578D02*
X033073Y001578D01*
X033073Y001479D02*
X033113Y001479D01*
X033073Y001381D02*
X033513Y001381D01*
X033513Y001479D02*
X033613Y001479D01*
X033613Y001381D02*
X034053Y001381D01*
X034053Y001479D02*
X034013Y001479D01*
X034011Y001578D02*
X034053Y001578D01*
X034071Y001676D02*
X033989Y001676D01*
X033613Y001676D02*
X033513Y001676D01*
X033513Y001578D02*
X033613Y001578D01*
X033613Y001282D02*
X033513Y001282D01*
X033513Y001184D02*
X033613Y001184D01*
X033613Y001085D02*
X033513Y001085D01*
X033513Y000987D02*
X033613Y000987D01*
X033613Y000888D02*
X033513Y000888D01*
X033513Y000790D02*
X033613Y000790D01*
X033805Y000790D02*
X034222Y000790D01*
X034128Y000888D02*
X033914Y000888D01*
X033974Y000987D02*
X034087Y000987D01*
X034053Y001085D02*
X034005Y001085D01*
X034013Y001184D02*
X034053Y001184D01*
X034053Y001282D02*
X034013Y001282D01*
X033211Y000888D02*
X032998Y000888D01*
X033039Y000987D02*
X033151Y000987D01*
X033121Y001085D02*
X033073Y001085D01*
X033073Y001184D02*
X033113Y001184D01*
X033113Y001282D02*
X033073Y001282D01*
X032563Y001350D02*
X032563Y010791D01*
X032563Y011100D02*
X032563Y016350D01*
X033073Y016353D02*
X033513Y016353D01*
X033513Y016400D02*
X033513Y016300D01*
X033613Y016300D01*
X033613Y016400D01*
X034013Y016400D01*
X034013Y016565D01*
X034002Y016635D01*
X033980Y016703D01*
X033948Y016766D01*
X033906Y016823D01*
X033856Y016873D01*
X033799Y016915D01*
X033736Y016947D01*
X033668Y016969D01*
X033613Y016978D01*
X033613Y016400D01*
X033513Y016400D01*
X033513Y016978D01*
X033457Y016969D01*
X033390Y016947D01*
X033327Y016915D01*
X033270Y016873D01*
X033220Y016823D01*
X033178Y016766D01*
X033146Y016703D01*
X033124Y016635D01*
X033113Y016565D01*
X033113Y016400D01*
X033513Y016400D01*
X033513Y016451D02*
X033613Y016451D01*
X033613Y016353D02*
X034053Y016353D01*
X034013Y016300D02*
X033613Y016300D01*
X033613Y015722D01*
X033668Y015731D01*
X033736Y015753D01*
X033799Y015785D01*
X033856Y015827D01*
X033906Y015877D01*
X033948Y015934D01*
X033980Y015997D01*
X034002Y016065D01*
X034013Y016135D01*
X034013Y016300D01*
X034013Y016254D02*
X034053Y016254D01*
X034053Y016156D02*
X034013Y016156D01*
X033999Y016057D02*
X034058Y016057D01*
X034098Y015959D02*
X033960Y015959D01*
X033889Y015860D02*
X034152Y015860D01*
X034250Y015762D02*
X033752Y015762D01*
X033613Y015762D02*
X033513Y015762D01*
X033513Y015722D02*
X033513Y016300D01*
X033113Y016300D01*
X033113Y016135D01*
X033124Y016065D01*
X033146Y015997D01*
X033178Y015934D01*
X033220Y015877D01*
X033270Y015827D01*
X033327Y015785D01*
X033390Y015753D01*
X033457Y015731D01*
X033513Y015722D01*
X033513Y015860D02*
X033613Y015860D01*
X033613Y015959D02*
X033513Y015959D01*
X033513Y016057D02*
X033613Y016057D01*
X033613Y016156D02*
X033513Y016156D01*
X033513Y016254D02*
X033613Y016254D01*
X034013Y016451D02*
X034053Y016451D01*
X034053Y016550D02*
X034013Y016550D01*
X033998Y016648D02*
X034060Y016648D01*
X034101Y016747D02*
X033958Y016747D01*
X033884Y016845D02*
X034157Y016845D01*
X034255Y016944D02*
X033742Y016944D01*
X033613Y016944D02*
X033513Y016944D01*
X033513Y016845D02*
X033613Y016845D01*
X033613Y016747D02*
X033513Y016747D01*
X033513Y016648D02*
X033613Y016648D01*
X033613Y016550D02*
X033513Y016550D01*
X033168Y016747D02*
X033025Y016747D01*
X033066Y016648D02*
X033128Y016648D01*
X033113Y016550D02*
X033073Y016550D01*
X033073Y016451D02*
X033113Y016451D01*
X033113Y016254D02*
X033073Y016254D01*
X033073Y016156D02*
X033113Y016156D01*
X033126Y016057D02*
X033068Y016057D01*
X033027Y015959D02*
X033166Y015959D01*
X033236Y015860D02*
X032974Y015860D01*
X032876Y015762D02*
X033373Y015762D01*
X032823Y015663D02*
X034454Y015663D01*
X034672Y015663D02*
X035454Y015663D01*
X035672Y015663D02*
X036063Y015663D01*
X036063Y015565D02*
X032823Y015565D01*
X032823Y015466D02*
X036063Y015466D01*
X036063Y015368D02*
X032823Y015368D01*
X032823Y015269D02*
X036063Y015269D01*
X036063Y015171D02*
X032823Y015171D01*
X032823Y015072D02*
X036063Y015072D01*
X036063Y014974D02*
X032823Y014974D01*
X032823Y014875D02*
X036063Y014875D01*
X036063Y014777D02*
X032823Y014777D01*
X032823Y014678D02*
X036063Y014678D01*
X036063Y014580D02*
X032823Y014580D01*
X032823Y014481D02*
X033878Y014481D01*
X033894Y014496D02*
X033762Y014365D01*
X033691Y014193D01*
X033691Y014007D01*
X033762Y013835D01*
X033894Y013704D01*
X034065Y013633D01*
X034560Y013633D01*
X034732Y013704D01*
X034864Y013835D01*
X034935Y014007D01*
X034935Y014193D01*
X034864Y014365D01*
X034732Y014496D01*
X034560Y014567D01*
X034065Y014567D01*
X033894Y014496D01*
X033780Y014383D02*
X032823Y014383D01*
X032823Y014284D02*
X033729Y014284D01*
X033691Y014186D02*
X032823Y014186D01*
X032823Y014087D02*
X033691Y014087D01*
X033699Y013989D02*
X032823Y013989D01*
X032823Y013890D02*
X033739Y013890D01*
X033806Y013792D02*
X032823Y013792D01*
X032823Y013693D02*
X033919Y013693D01*
X034065Y013567D02*
X033894Y013496D01*
X033762Y013365D01*
X033691Y013193D01*
X033691Y013007D01*
X033762Y012835D01*
X033894Y012704D01*
X034065Y012633D01*
X034560Y012633D01*
X034732Y012704D01*
X034864Y012835D01*
X034935Y013007D01*
X034935Y013193D01*
X034864Y013365D01*
X034732Y013496D01*
X034560Y013567D01*
X034065Y013567D01*
X033893Y013496D02*
X032823Y013496D01*
X032823Y013398D02*
X033795Y013398D01*
X033735Y013299D02*
X032823Y013299D01*
X032823Y013201D02*
X033694Y013201D01*
X033691Y013102D02*
X032823Y013102D01*
X032823Y013004D02*
X033692Y013004D01*
X033733Y012905D02*
X032823Y012905D01*
X032823Y012807D02*
X033791Y012807D01*
X033889Y012708D02*
X032823Y012708D01*
X032823Y012610D02*
X036063Y012610D01*
X036063Y012708D02*
X034736Y012708D01*
X034835Y012807D02*
X036063Y012807D01*
X036063Y012905D02*
X034893Y012905D01*
X034933Y013004D02*
X036063Y013004D01*
X036063Y013102D02*
X034935Y013102D01*
X034932Y013201D02*
X036063Y013201D01*
X036063Y013299D02*
X034891Y013299D01*
X034831Y013398D02*
X036063Y013398D01*
X036063Y013496D02*
X034732Y013496D01*
X034706Y013693D02*
X036063Y013693D01*
X036063Y013595D02*
X032823Y013595D01*
X032303Y013595D02*
X028573Y013595D01*
X028573Y013693D02*
X032303Y013693D01*
X032303Y013792D02*
X028573Y013792D01*
X028573Y013890D02*
X032303Y013890D01*
X032303Y013989D02*
X028573Y013989D01*
X028573Y014087D02*
X032303Y014087D01*
X032303Y014186D02*
X028573Y014186D01*
X028573Y014242D02*
X029171Y014840D01*
X030365Y014840D01*
X030460Y014880D01*
X031305Y015725D01*
X031461Y015660D01*
X031664Y015660D01*
X031852Y015738D01*
X031995Y015881D01*
X032063Y016044D01*
X032130Y015881D01*
X032274Y015738D01*
X032303Y015726D01*
X032303Y011051D01*
X032034Y011051D01*
X032051Y011069D01*
X032073Y011107D01*
X032085Y011150D01*
X032085Y011302D01*
X031393Y011302D01*
X031393Y011398D01*
X032085Y011398D01*
X032085Y011550D01*
X032073Y011593D01*
X032051Y011631D01*
X032019Y011663D01*
X031981Y011685D01*
X031938Y011697D01*
X031393Y011697D01*
X031393Y011398D01*
X031296Y011398D01*
X031296Y011302D01*
X030604Y011302D01*
X030604Y011150D01*
X030615Y011107D01*
X030638Y011069D01*
X030655Y011051D01*
X027303Y011051D01*
X027303Y011131D01*
X026613Y011131D01*
X026613Y011231D01*
X027303Y011231D01*
X027303Y011399D01*
X027292Y011442D01*
X027272Y011476D01*
X028365Y011476D01*
X028460Y011516D01*
X028533Y011589D01*
X028573Y011685D01*
X028573Y014242D01*
X028615Y014284D02*
X032303Y014284D01*
X032303Y014383D02*
X028713Y014383D01*
X028812Y014481D02*
X032303Y014481D01*
X032303Y014580D02*
X028910Y014580D01*
X029009Y014678D02*
X032303Y014678D01*
X032303Y014777D02*
X029107Y014777D01*
X029063Y015100D02*
X030313Y015100D01*
X031563Y016350D01*
X032027Y015959D02*
X032098Y015959D01*
X032152Y015860D02*
X031974Y015860D01*
X031876Y015762D02*
X032250Y015762D01*
X032303Y015663D02*
X031672Y015663D01*
X031454Y015663D02*
X031244Y015663D01*
X031145Y015565D02*
X032303Y015565D01*
X032303Y015466D02*
X031047Y015466D01*
X030948Y015368D02*
X032303Y015368D01*
X032303Y015269D02*
X030850Y015269D01*
X030751Y015171D02*
X032303Y015171D01*
X032303Y015072D02*
X030653Y015072D01*
X030554Y014974D02*
X032303Y014974D01*
X032303Y014875D02*
X030449Y014875D01*
X029563Y015350D02*
X030563Y016350D01*
X031025Y016747D02*
X031101Y016747D01*
X031157Y016845D02*
X030969Y016845D01*
X030871Y016944D02*
X031255Y016944D01*
X031871Y016944D02*
X032255Y016944D01*
X032157Y016845D02*
X031969Y016845D01*
X032025Y016747D02*
X032101Y016747D01*
X032871Y016944D02*
X033383Y016944D01*
X033241Y016845D02*
X032969Y016845D01*
X034871Y016944D02*
X035255Y016944D01*
X035157Y016845D02*
X034969Y016845D01*
X035025Y016747D02*
X035101Y016747D01*
X035871Y016944D02*
X036063Y016944D01*
X036063Y017042D02*
X013313Y017042D01*
X013313Y017141D02*
X036063Y017141D01*
X036063Y017239D02*
X013313Y017239D01*
X013313Y017338D02*
X036063Y017338D01*
X036063Y016845D02*
X035969Y016845D01*
X036025Y016747D02*
X036063Y016747D01*
X036027Y015959D02*
X036063Y015959D01*
X036063Y015860D02*
X035974Y015860D01*
X036063Y015762D02*
X035876Y015762D01*
X035250Y015762D02*
X034876Y015762D01*
X034974Y015860D02*
X035152Y015860D01*
X035098Y015959D02*
X035027Y015959D01*
X034747Y014481D02*
X036063Y014481D01*
X036063Y014383D02*
X034846Y014383D01*
X034897Y014284D02*
X036063Y014284D01*
X036063Y014186D02*
X034935Y014186D01*
X034935Y014087D02*
X036063Y014087D01*
X036063Y013989D02*
X034927Y013989D01*
X034886Y013890D02*
X036063Y013890D01*
X036063Y013792D02*
X034820Y013792D01*
X036063Y012511D02*
X032823Y012511D01*
X032823Y012413D02*
X036063Y012413D01*
X036063Y012314D02*
X032823Y012314D01*
X032823Y012216D02*
X036063Y012216D01*
X032303Y012216D02*
X028573Y012216D01*
X028573Y012314D02*
X032303Y012314D01*
X032303Y012413D02*
X028573Y012413D01*
X028573Y012511D02*
X032303Y012511D01*
X032303Y012610D02*
X028573Y012610D01*
X028573Y012708D02*
X032303Y012708D01*
X032303Y012807D02*
X028573Y012807D01*
X028573Y012905D02*
X032303Y012905D01*
X032303Y013004D02*
X028573Y013004D01*
X028573Y013102D02*
X032303Y013102D01*
X032303Y013201D02*
X028573Y013201D01*
X028573Y013299D02*
X032303Y013299D01*
X032303Y013398D02*
X028573Y013398D01*
X028573Y013496D02*
X032303Y013496D01*
X032303Y012117D02*
X028573Y012117D01*
X028573Y012019D02*
X032303Y012019D01*
X032303Y011920D02*
X028573Y011920D01*
X028573Y011822D02*
X032303Y011822D01*
X032303Y011723D02*
X028573Y011723D01*
X028548Y011625D02*
X030634Y011625D01*
X030638Y011631D02*
X030615Y011593D01*
X030604Y011550D01*
X030604Y011398D01*
X031296Y011398D01*
X031296Y011697D01*
X030751Y011697D01*
X030708Y011685D01*
X030669Y011663D01*
X030638Y011631D01*
X030604Y011526D02*
X028470Y011526D01*
X028313Y011736D02*
X028313Y014350D01*
X029063Y015100D01*
X028813Y015350D02*
X029563Y015350D01*
X028813Y015350D02*
X028063Y014600D01*
X028063Y012051D01*
X024639Y012051D01*
X024639Y011736D02*
X028313Y011736D01*
X027813Y012366D02*
X027813Y014850D01*
X028563Y015600D01*
X028813Y015600D01*
X029563Y016350D01*
X030025Y016747D02*
X030101Y016747D01*
X030157Y016845D02*
X029969Y016845D01*
X029871Y016944D02*
X030255Y016944D01*
X029255Y016944D02*
X028871Y016944D01*
X028969Y016845D02*
X029157Y016845D01*
X029101Y016747D02*
X029025Y016747D01*
X028563Y016350D02*
X026563Y014350D01*
X026063Y014350D01*
X025813Y014100D01*
X025813Y013855D01*
X024639Y012681D01*
X024268Y012990D02*
X024134Y012855D01*
X024134Y011247D01*
X024194Y011187D01*
X024194Y011106D01*
X024194Y011051D01*
X022823Y011051D01*
X022823Y011206D01*
X022891Y011274D01*
X022930Y011370D01*
X022930Y012884D01*
X024104Y012884D01*
X024239Y013019D01*
X024239Y013330D01*
X025248Y014340D01*
X025685Y014340D01*
X025592Y014247D01*
X025553Y014152D01*
X025553Y013963D01*
X024580Y012990D01*
X024268Y012990D01*
X024223Y013004D02*
X024594Y013004D01*
X024692Y013102D02*
X024239Y013102D01*
X024239Y013201D02*
X024791Y013201D01*
X024889Y013299D02*
X024239Y013299D01*
X024306Y013398D02*
X024988Y013398D01*
X025086Y013496D02*
X024404Y013496D01*
X024503Y013595D02*
X025185Y013595D01*
X025283Y013693D02*
X024601Y013693D01*
X024700Y013792D02*
X025382Y013792D01*
X025480Y013890D02*
X024798Y013890D01*
X024897Y013989D02*
X025553Y013989D01*
X025553Y014087D02*
X024995Y014087D01*
X025094Y014186D02*
X025567Y014186D01*
X025629Y014284D02*
X025192Y014284D01*
X025140Y014600D02*
X026313Y014600D01*
X027563Y015850D01*
X027563Y016350D01*
X028025Y016747D02*
X028101Y016747D01*
X028157Y016845D02*
X027969Y016845D01*
X027871Y016944D02*
X028255Y016944D01*
X027255Y016944D02*
X026871Y016944D01*
X026969Y016845D02*
X027157Y016845D01*
X027101Y016747D02*
X027025Y016747D01*
X026563Y016350D02*
X025063Y014850D01*
X024563Y014850D01*
X023615Y013902D01*
X023615Y013390D01*
X023300Y013390D02*
X023300Y014087D01*
X025563Y016350D01*
X026025Y016747D02*
X026101Y016747D01*
X026157Y016845D02*
X025969Y016845D01*
X025871Y016944D02*
X026255Y016944D01*
X025255Y016944D02*
X024871Y016944D01*
X024969Y016845D02*
X025157Y016845D01*
X025101Y016747D02*
X025025Y016747D01*
X024563Y016350D02*
X022985Y014772D01*
X022985Y013390D01*
X022670Y013390D02*
X022670Y011421D01*
X022563Y011421D01*
X022410Y011681D02*
X020577Y011681D01*
X020577Y011796D01*
X020660Y011831D01*
X020733Y011904D01*
X020773Y011999D01*
X020773Y012884D01*
X020954Y012884D01*
X022214Y012884D01*
X022274Y012944D01*
X022355Y012944D01*
X022355Y013390D01*
X022355Y013835D01*
X022274Y013835D01*
X022214Y013895D01*
X020926Y013895D01*
X022121Y015090D01*
X022865Y015090D01*
X022960Y015130D01*
X023033Y015203D01*
X023491Y015660D01*
X023505Y015660D01*
X022765Y014920D01*
X022725Y014824D01*
X022725Y014721D01*
X022725Y013895D01*
X022496Y013895D01*
X022436Y013835D01*
X022355Y013835D01*
X022355Y013390D01*
X022355Y013390D01*
X022355Y013390D01*
X022355Y012944D01*
X022410Y012944D01*
X022410Y011681D01*
X022410Y011723D02*
X020577Y011723D01*
X020638Y011822D02*
X022410Y011822D01*
X022410Y011920D02*
X020740Y011920D01*
X020773Y012019D02*
X022410Y012019D01*
X022410Y012117D02*
X020773Y012117D01*
X020773Y012216D02*
X022410Y012216D01*
X022410Y012314D02*
X020773Y012314D01*
X020773Y012413D02*
X022410Y012413D01*
X022410Y012511D02*
X020773Y012511D01*
X020773Y012610D02*
X022410Y012610D01*
X022410Y012708D02*
X020773Y012708D01*
X020773Y012807D02*
X022410Y012807D01*
X022410Y012905D02*
X022235Y012905D01*
X022355Y013004D02*
X022355Y013004D01*
X022355Y013102D02*
X022355Y013102D01*
X022355Y013201D02*
X022355Y013201D01*
X022355Y013299D02*
X022355Y013299D01*
X022355Y013398D02*
X022355Y013398D01*
X022355Y013496D02*
X022355Y013496D01*
X022355Y013595D02*
X022355Y013595D01*
X022355Y013693D02*
X022355Y013693D01*
X022355Y013792D02*
X022355Y013792D01*
X022219Y013890D02*
X022491Y013890D01*
X022725Y013989D02*
X021019Y013989D01*
X021118Y014087D02*
X022725Y014087D01*
X022725Y014186D02*
X021216Y014186D01*
X021315Y014284D02*
X022725Y014284D01*
X022725Y014383D02*
X021413Y014383D01*
X021512Y014481D02*
X022725Y014481D01*
X022725Y014580D02*
X021610Y014580D01*
X021709Y014678D02*
X022725Y014678D01*
X022725Y014777D02*
X021807Y014777D01*
X021906Y014875D02*
X022746Y014875D01*
X022819Y014974D02*
X022004Y014974D01*
X022103Y015072D02*
X022917Y015072D01*
X023001Y015171D02*
X023016Y015171D01*
X023100Y015269D02*
X023114Y015269D01*
X023198Y015368D02*
X023213Y015368D01*
X023297Y015466D02*
X023311Y015466D01*
X023395Y015565D02*
X023410Y015565D01*
X023563Y016100D02*
X022813Y015350D01*
X022013Y015350D01*
X020513Y013850D01*
X019563Y013600D02*
X019563Y012366D01*
X020072Y012366D01*
X020072Y012681D02*
X019963Y012690D01*
X019963Y013200D01*
X019163Y013350D02*
X019155Y013343D01*
X018458Y013343D01*
X019163Y013350D02*
X019163Y011750D01*
X020072Y011750D01*
X020072Y011736D01*
X020517Y011132D02*
X022303Y011132D01*
X022261Y011034D02*
X020517Y011034D01*
X020577Y010935D02*
X022133Y010935D01*
X022095Y010837D02*
X020577Y010837D01*
X020072Y010791D02*
X018909Y010791D01*
X018313Y011387D01*
X018464Y011387D01*
X018464Y012350D01*
X017939Y012413D02*
X017827Y012413D01*
X017827Y012511D02*
X017939Y012511D01*
X017412Y012216D02*
X017312Y012216D01*
X017312Y012300D02*
X017073Y012300D01*
X017073Y012400D01*
X017312Y012400D01*
X017312Y012300D01*
X017312Y012314D02*
X017073Y012314D01*
X017312Y012117D02*
X017412Y012117D01*
X017412Y012019D02*
X017312Y012019D01*
X017312Y011920D02*
X017412Y011920D01*
X015813Y011450D02*
X015763Y011450D01*
X015413Y011100D01*
X015413Y007500D01*
X020613Y007500D01*
X020781Y007668D01*
X020781Y008823D01*
X021234Y009458D02*
X022095Y009458D01*
X022095Y009556D02*
X021374Y009556D01*
X022615Y009556D02*
X024134Y009556D01*
X024134Y009655D02*
X022615Y009655D01*
X022615Y009753D02*
X024134Y009753D01*
X024639Y009531D02*
X025263Y009531D01*
X025263Y005900D01*
X026063Y006350D02*
X030563Y001850D01*
X030563Y001350D01*
X031039Y000987D02*
X031087Y000987D01*
X031128Y000888D02*
X030998Y000888D01*
X030904Y000790D02*
X031222Y000790D01*
X031387Y000691D02*
X030739Y000691D01*
X030387Y000691D02*
X029739Y000691D01*
X029904Y000790D02*
X030222Y000790D01*
X030128Y000888D02*
X029998Y000888D01*
X030039Y000987D02*
X030087Y000987D01*
X031563Y001350D02*
X027063Y005850D01*
X027063Y009350D01*
X025936Y010476D01*
X024639Y010476D01*
X024639Y010161D02*
X025501Y010161D01*
X026063Y009600D01*
X026063Y006350D01*
X023914Y006995D02*
X023814Y006995D01*
X023814Y007094D02*
X023914Y007094D01*
X023914Y007192D02*
X023814Y007192D01*
X023814Y007291D02*
X023914Y007291D01*
X023914Y007389D02*
X023814Y007389D01*
X020836Y007291D02*
X020771Y007291D01*
X020836Y007192D02*
X013313Y007192D01*
X013313Y007094D02*
X020836Y007094D01*
X020836Y006995D02*
X013313Y006995D01*
X013313Y006897D02*
X020836Y006897D01*
X020836Y006798D02*
X013313Y006798D01*
X013313Y006700D02*
X020836Y006700D01*
X020836Y006601D02*
X013313Y006601D01*
X013313Y006503D02*
X020836Y006503D01*
X020836Y006404D02*
X020370Y006404D01*
X020368Y006404D02*
X020360Y006401D01*
X020634Y006306D02*
X020836Y006306D01*
X020860Y006207D02*
X020806Y006207D01*
X020925Y006109D02*
X020937Y006109D01*
X021018Y006010D02*
X021035Y006010D01*
X021101Y005912D02*
X021134Y005912D01*
X021166Y005813D02*
X021232Y005813D01*
X021209Y005715D02*
X021303Y005715D01*
X021303Y005616D02*
X021256Y005616D01*
X021283Y005518D02*
X021303Y005518D01*
X021295Y004927D02*
X021303Y004927D01*
X021303Y004828D02*
X021263Y004828D01*
X021226Y004730D02*
X021303Y004730D01*
X021303Y004631D02*
X021184Y004631D01*
X021119Y004533D02*
X021303Y004533D01*
X021303Y004434D02*
X021049Y004434D01*
X020964Y004336D02*
X021303Y004336D01*
X021303Y004237D02*
X020852Y004237D01*
X020705Y004139D02*
X021303Y004139D01*
X021303Y004040D02*
X020465Y004040D01*
X019736Y004040D02*
X014734Y004040D01*
X014735Y004043D02*
X014758Y004128D01*
X014768Y004210D01*
X014144Y004210D01*
X014144Y003586D01*
X014226Y003597D01*
X014312Y003620D01*
X014393Y003654D01*
X014470Y003698D01*
X014540Y003752D01*
X014603Y003814D01*
X014657Y003884D01*
X014701Y003961D01*
X014735Y004043D01*
X014759Y004139D02*
X019496Y004139D01*
X019348Y004237D02*
X014144Y004237D01*
X014144Y004210D02*
X014144Y004310D01*
X014044Y004310D01*
X014044Y004210D01*
X014144Y004210D01*
X014144Y004139D02*
X014044Y004139D01*
X014044Y004210D02*
X014044Y003586D01*
X013962Y003597D01*
X013877Y003620D01*
X013795Y003654D01*
X013718Y003698D01*
X013648Y003752D01*
X013586Y003814D01*
X013532Y003884D01*
X013488Y003961D01*
X013454Y004043D01*
X013431Y004128D01*
X013420Y004210D01*
X014044Y004210D01*
X014044Y004237D02*
X013313Y004237D01*
X013313Y004139D02*
X013429Y004139D01*
X013455Y004040D02*
X013313Y004040D01*
X013313Y003942D02*
X013499Y003942D01*
X013564Y003843D02*
X013412Y003843D01*
X013543Y003745D02*
X013657Y003745D01*
X013641Y003646D02*
X013813Y003646D01*
X013689Y003548D02*
X021303Y003548D01*
X021303Y003646D02*
X014375Y003646D01*
X014531Y003745D02*
X021303Y003745D01*
X021303Y003843D02*
X014625Y003843D01*
X014690Y003942D02*
X021303Y003942D01*
X021303Y003449D02*
X013730Y003449D01*
X013755Y003351D02*
X021303Y003351D01*
X021303Y003252D02*
X013755Y003252D01*
X013755Y003154D02*
X021303Y003154D01*
X021303Y003055D02*
X013727Y003055D01*
X013686Y002957D02*
X021303Y002957D01*
X021303Y002858D02*
X014395Y002858D01*
X014542Y002760D02*
X021303Y002760D01*
X021303Y002661D02*
X014631Y002661D01*
X014695Y002563D02*
X021303Y002563D01*
X021303Y002464D02*
X014736Y002464D01*
X014760Y002366D02*
X021303Y002366D01*
X019236Y004336D02*
X014765Y004336D01*
X014768Y004310D02*
X014758Y004392D01*
X014735Y004478D01*
X014701Y004559D01*
X014657Y004636D01*
X014603Y004706D01*
X014540Y004769D01*
X014470Y004823D01*
X014393Y004867D01*
X014312Y004901D01*
X014226Y004924D01*
X014144Y004934D01*
X014144Y004310D01*
X014768Y004310D01*
X014746Y004434D02*
X019151Y004434D01*
X019082Y004533D02*
X014712Y004533D01*
X014660Y004631D02*
X019016Y004631D01*
X018974Y004730D02*
X014579Y004730D01*
X014461Y004828D02*
X018937Y004828D01*
X018906Y004927D02*
X014204Y004927D01*
X014144Y004927D02*
X014044Y004927D01*
X014044Y004934D02*
X013962Y004924D01*
X013877Y004901D01*
X013795Y004867D01*
X013718Y004823D01*
X013648Y004769D01*
X013586Y004706D01*
X013532Y004636D01*
X013488Y004559D01*
X013454Y004478D01*
X013431Y004392D01*
X013420Y004310D01*
X014044Y004310D01*
X014044Y004934D01*
X013984Y004927D02*
X013313Y004927D01*
X013313Y005025D02*
X018893Y005025D01*
X018876Y005124D02*
X013313Y005124D01*
X013313Y005222D02*
X018879Y005222D01*
X018880Y005321D02*
X013313Y005321D01*
X013313Y005419D02*
X018896Y005419D01*
X018918Y005518D02*
X013313Y005518D01*
X013313Y005616D02*
X018944Y005616D01*
X018991Y005715D02*
X013313Y005715D01*
X013313Y005813D02*
X019035Y005813D01*
X019099Y005912D02*
X013313Y005912D01*
X013313Y006010D02*
X019182Y006010D01*
X019276Y006109D02*
X013313Y006109D01*
X013313Y006207D02*
X019395Y006207D01*
X019567Y006306D02*
X013313Y006306D01*
X013313Y006404D02*
X019831Y006404D01*
X019833Y006404D02*
X019843Y006404D01*
X019813Y007850D02*
X015813Y007850D01*
X015813Y010850D01*
X015153Y010837D02*
X013313Y010837D01*
X013313Y010935D02*
X015153Y010935D01*
X015153Y011034D02*
X013313Y011034D01*
X013313Y011132D02*
X015153Y011132D01*
X015185Y011231D02*
X013313Y011231D01*
X013410Y011329D02*
X015274Y011329D01*
X015373Y011428D02*
X013508Y011428D01*
X013607Y011526D02*
X015385Y011526D01*
X015422Y011625D02*
X013705Y011625D01*
X013313Y010738D02*
X015153Y010738D01*
X015153Y010640D02*
X013313Y010640D01*
X013313Y010541D02*
X015153Y010541D01*
X015153Y010443D02*
X013313Y010443D01*
X013313Y010344D02*
X015153Y010344D01*
X015153Y010246D02*
X013313Y010246D01*
X013313Y010147D02*
X015153Y010147D01*
X015153Y010049D02*
X013313Y010049D01*
X013313Y009950D02*
X015153Y009950D01*
X015153Y009852D02*
X013313Y009852D01*
X013313Y009753D02*
X015153Y009753D01*
X015153Y009655D02*
X013313Y009655D01*
X013313Y009556D02*
X015153Y009556D01*
X015153Y009458D02*
X013313Y009458D01*
X013313Y009359D02*
X015153Y009359D01*
X015153Y009261D02*
X013313Y009261D01*
X013313Y009162D02*
X015153Y009162D01*
X015153Y009064D02*
X013313Y009064D01*
X013313Y008965D02*
X015153Y008965D01*
X015153Y008867D02*
X013313Y008867D01*
X013313Y008768D02*
X015153Y008768D01*
X015153Y008670D02*
X013313Y008670D01*
X013313Y008571D02*
X015153Y008571D01*
X015153Y008473D02*
X013313Y008473D01*
X013313Y008374D02*
X015153Y008374D01*
X015153Y008276D02*
X013313Y008276D01*
X013313Y008177D02*
X015153Y008177D01*
X015153Y008079D02*
X013313Y008079D01*
X013313Y007980D02*
X015153Y007980D01*
X015153Y007882D02*
X013313Y007882D01*
X013313Y007783D02*
X015153Y007783D01*
X015153Y007685D02*
X013313Y007685D01*
X013313Y007586D02*
X015153Y007586D01*
X015153Y007488D02*
X013313Y007488D01*
X013313Y007389D02*
X015177Y007389D01*
X015255Y007291D02*
X013313Y007291D01*
X016813Y008250D02*
X019513Y008250D01*
X022615Y009458D02*
X023455Y009458D01*
X021463Y010350D02*
X020913Y010350D01*
X020736Y010541D02*
X020577Y010541D01*
X019627Y011132D02*
X018995Y011132D01*
X022823Y011132D02*
X024194Y011132D01*
X024194Y011106D02*
X024639Y011106D01*
X024639Y011106D01*
X025084Y011106D01*
X025084Y011051D01*
X025822Y011051D01*
X025822Y011131D01*
X026513Y011131D01*
X026513Y011231D01*
X025822Y011231D01*
X025822Y011399D01*
X025834Y011442D01*
X025854Y011476D01*
X025144Y011476D01*
X025144Y011247D01*
X025084Y011187D01*
X025084Y011106D01*
X024639Y011106D01*
X024194Y011106D01*
X024150Y011231D02*
X022847Y011231D01*
X022914Y011329D02*
X024134Y011329D01*
X024134Y011428D02*
X022930Y011428D01*
X022930Y011526D02*
X024134Y011526D01*
X024134Y011625D02*
X022930Y011625D01*
X022930Y011723D02*
X024134Y011723D01*
X024134Y011822D02*
X022930Y011822D01*
X022930Y011920D02*
X024134Y011920D01*
X024134Y012019D02*
X022930Y012019D01*
X022930Y012117D02*
X024134Y012117D01*
X024134Y012216D02*
X022930Y012216D01*
X022930Y012314D02*
X024134Y012314D01*
X024134Y012413D02*
X022930Y012413D01*
X022930Y012511D02*
X024134Y012511D01*
X024134Y012610D02*
X022930Y012610D01*
X022930Y012708D02*
X024134Y012708D01*
X024134Y012807D02*
X022930Y012807D01*
X023930Y013390D02*
X025140Y014600D01*
X026563Y013819D02*
X027313Y013819D01*
X027313Y013850D01*
X027813Y012366D02*
X024639Y012366D01*
X024184Y012905D02*
X024125Y012905D01*
X025144Y011428D02*
X025830Y011428D01*
X025822Y011329D02*
X025144Y011329D01*
X025127Y011231D02*
X026513Y011231D01*
X026513Y011132D02*
X025084Y011132D01*
X024639Y011106D02*
X024639Y011106D01*
X026613Y011132D02*
X030609Y011132D01*
X030604Y011231D02*
X026613Y011231D01*
X027303Y011329D02*
X031296Y011329D01*
X031393Y011329D02*
X032303Y011329D01*
X032303Y011231D02*
X032085Y011231D01*
X032080Y011132D02*
X032303Y011132D01*
X032303Y011428D02*
X032085Y011428D01*
X032085Y011526D02*
X032303Y011526D01*
X032303Y011625D02*
X032055Y011625D01*
X031393Y011625D02*
X031296Y011625D01*
X031296Y011526D02*
X031393Y011526D01*
X031393Y011428D02*
X031296Y011428D01*
X030604Y011428D02*
X027296Y011428D01*
X030063Y008350D02*
X031344Y008350D01*
X031344Y007350D02*
X029813Y007350D01*
X030313Y006350D02*
X031344Y006350D01*
X035289Y005025D02*
X036063Y005025D01*
X036063Y004927D02*
X035388Y004927D01*
X035450Y004828D02*
X036063Y004828D01*
X036063Y004730D02*
X035491Y004730D01*
X035503Y004631D02*
X036063Y004631D01*
X036063Y004533D02*
X035503Y004533D01*
X035476Y004434D02*
X036063Y004434D01*
X036063Y004336D02*
X035435Y004336D01*
X035351Y004237D02*
X036063Y004237D01*
X036063Y004139D02*
X035211Y004139D01*
X035263Y004040D02*
X036063Y004040D01*
X036063Y003942D02*
X035373Y003942D01*
X035444Y003843D02*
X036063Y003843D01*
X036063Y003745D02*
X035485Y003745D01*
X035503Y003646D02*
X036063Y003646D01*
X036063Y003548D02*
X035503Y003548D01*
X035482Y003449D02*
X036063Y003449D01*
X036063Y003351D02*
X035442Y003351D01*
X035366Y003252D02*
X036063Y003252D01*
X036063Y003154D02*
X035248Y003154D01*
X033613Y001873D02*
X033513Y001873D01*
X033513Y001775D02*
X033613Y001775D01*
X035039Y000987D02*
X035087Y000987D01*
X035128Y000888D02*
X034998Y000888D01*
X034904Y000790D02*
X035222Y000790D01*
X035387Y000691D02*
X034739Y000691D01*
X034387Y000691D02*
X032739Y000691D01*
X032904Y000790D02*
X033321Y000790D01*
X032387Y000691D02*
X031739Y000691D01*
X031904Y000790D02*
X032222Y000790D01*
X032128Y000888D02*
X031998Y000888D01*
X032039Y000987D02*
X032087Y000987D01*
X036063Y000494D02*
X013313Y000494D01*
X013313Y000396D02*
X036063Y000396D01*
X014144Y001676D02*
X014044Y001676D01*
X014044Y001775D02*
X014144Y001775D01*
X014144Y001873D02*
X014044Y001873D01*
X014044Y001972D02*
X014144Y001972D01*
X014144Y002070D02*
X014044Y002070D01*
X014044Y003646D02*
X014144Y003646D01*
X014144Y003745D02*
X014044Y003745D01*
X014044Y003843D02*
X014144Y003843D01*
X014144Y003942D02*
X014044Y003942D01*
X014044Y004040D02*
X014144Y004040D01*
X014144Y004336D02*
X014044Y004336D01*
X014044Y004434D02*
X014144Y004434D01*
X014144Y004533D02*
X014044Y004533D01*
X014044Y004631D02*
X014144Y004631D01*
X014144Y004730D02*
X014044Y004730D01*
X014044Y004828D02*
X014144Y004828D01*
X013728Y004828D02*
X013313Y004828D01*
X013313Y004730D02*
X013609Y004730D01*
X013529Y004631D02*
X013313Y004631D01*
X013313Y004533D02*
X013476Y004533D01*
X013442Y004434D02*
X013313Y004434D01*
X013313Y004336D02*
X013423Y004336D01*
X012963Y012900D02*
X012963Y015700D01*
X013213Y015950D01*
X013713Y014444D02*
X014255Y014444D01*
X015955Y014144D02*
X019163Y014144D01*
X019163Y013350D01*
X019963Y016000D02*
X021563Y016000D01*
X021563Y016350D01*
X022871Y016944D02*
X023255Y016944D01*
X023157Y016845D02*
X022969Y016845D01*
X023025Y016747D02*
X023101Y016747D01*
X023563Y016350D02*
X023563Y016100D01*
X024025Y016747D02*
X024101Y016747D01*
X024157Y016845D02*
X023969Y016845D01*
X023871Y016944D02*
X024255Y016944D01*
D22*
X022363Y014900D03*
X019963Y014000D03*
X019963Y013200D03*
X021563Y012100D03*
X023313Y011850D03*
X020963Y010900D03*
X021463Y010350D03*
X021063Y009850D03*
X023313Y010100D03*
X024613Y008850D03*
X019513Y008250D03*
X017463Y010600D03*
X015813Y010850D03*
X015813Y011450D03*
X014413Y011150D03*
X011463Y012000D03*
X010513Y012350D03*
X010563Y013450D03*
X009963Y013750D03*
X010563Y014000D03*
X012313Y013850D03*
X013663Y014000D03*
X012313Y014850D03*
X013313Y015350D03*
X013213Y015950D03*
X012313Y015600D03*
X012313Y016350D03*
X011563Y016350D03*
X010813Y016350D03*
X010813Y015600D03*
X010813Y014850D03*
X008163Y014000D03*
X007613Y014000D03*
X007613Y013450D03*
X008163Y013450D03*
X008713Y013450D03*
X008013Y014750D03*
X007613Y015050D03*
X006913Y015900D03*
X006913Y016600D03*
X004513Y016050D03*
X014663Y012800D03*
X016163Y013450D03*
X016713Y013600D03*
X027313Y013850D03*
X035313Y011600D03*
X035563Y012200D03*
X030063Y008350D03*
X029813Y007350D03*
X030313Y006350D03*
X002063Y008850D03*
X000763Y010350D03*
D23*
X004313Y012500D02*
X009563Y012500D01*
X010563Y013450D01*
X004313Y013500D02*
X004313Y012500D01*
X004313Y013500D02*
X002063Y013506D01*
X001563Y013900D01*
X004313Y013500D02*
X004313Y014506D01*
D24*
X004313Y014756D01*
X003556Y014756D01*
X002913Y015550D02*
X002713Y015350D01*
X002063Y015350D01*
X001869Y015544D01*
X001563Y015544D01*
X001563Y016400D01*
X002913Y015550D02*
X003556Y015544D01*
X004513Y015544D01*
X004513Y016050D01*
X004513Y015544D02*
X006913Y015544D01*
X006913Y015900D01*
D25*
X013720Y007056D03*
X013570Y005806D03*
X015120Y004006D03*
X016020Y004006D03*
X016770Y003516D03*
X017150Y002666D03*
X018070Y002666D03*
X019090Y002666D03*
X020720Y002756D03*
X020820Y004006D03*
X019120Y004156D03*
X018070Y004156D03*
X020320Y001456D03*
X019120Y001046D03*
X018080Y001046D03*
X016970Y001046D03*
X016120Y001296D03*
X015150Y001286D03*
X013820Y000806D03*
D26*
X022355Y013390D02*
X022363Y013390D01*
X022363Y014900D01*
M02*
