G75*
G70*
%OFA0B0*%
%FSLAX24Y24*%
%IPPOS*%
%LPD*%
%AMOC8*
5,1,8,0,0,1.08239X$1,22.5*
%
%ADD10C,0.0000*%
%ADD11C,0.0060*%
%ADD12C,0.0030*%
%ADD13C,0.0080*%
%ADD14C,0.0100*%
%ADD15C,0.0050*%
%ADD16C,0.0010*%
%ADD17C,0.0040*%
%ADD18R,0.1673X0.0187*%
%ADD19C,0.0020*%
D10*
X000313Y000100D02*
X000313Y017600D01*
X030813Y017600D01*
X030813Y000100D01*
X000313Y000100D01*
X002149Y007306D02*
X002151Y007337D01*
X002157Y007368D01*
X002166Y007398D01*
X002179Y007427D01*
X002196Y007454D01*
X002216Y007478D01*
X002238Y007500D01*
X002264Y007519D01*
X002291Y007535D01*
X002320Y007547D01*
X002350Y007556D01*
X002381Y007561D01*
X002413Y007562D01*
X002444Y007559D01*
X002475Y007552D01*
X002505Y007542D01*
X002533Y007528D01*
X002559Y007510D01*
X002583Y007490D01*
X002604Y007466D01*
X002623Y007441D01*
X002638Y007413D01*
X002649Y007384D01*
X002657Y007353D01*
X002661Y007322D01*
X002661Y007290D01*
X002657Y007259D01*
X002649Y007228D01*
X002638Y007199D01*
X002623Y007171D01*
X002604Y007146D01*
X002583Y007122D01*
X002559Y007102D01*
X002533Y007084D01*
X002505Y007070D01*
X002475Y007060D01*
X002444Y007053D01*
X002413Y007050D01*
X002381Y007051D01*
X002350Y007056D01*
X002320Y007065D01*
X002291Y007077D01*
X002264Y007093D01*
X002238Y007112D01*
X002216Y007134D01*
X002196Y007158D01*
X002179Y007185D01*
X002166Y007214D01*
X002157Y007244D01*
X002151Y007275D01*
X002149Y007306D01*
X010149Y011306D02*
X010151Y011337D01*
X010157Y011368D01*
X010166Y011398D01*
X010179Y011427D01*
X010196Y011454D01*
X010216Y011478D01*
X010238Y011500D01*
X010264Y011519D01*
X010291Y011535D01*
X010320Y011547D01*
X010350Y011556D01*
X010381Y011561D01*
X010413Y011562D01*
X010444Y011559D01*
X010475Y011552D01*
X010505Y011542D01*
X010533Y011528D01*
X010559Y011510D01*
X010583Y011490D01*
X010604Y011466D01*
X010623Y011441D01*
X010638Y011413D01*
X010649Y011384D01*
X010657Y011353D01*
X010661Y011322D01*
X010661Y011290D01*
X010657Y011259D01*
X010649Y011228D01*
X010638Y011199D01*
X010623Y011171D01*
X010604Y011146D01*
X010583Y011122D01*
X010559Y011102D01*
X010533Y011084D01*
X010505Y011070D01*
X010475Y011060D01*
X010444Y011053D01*
X010413Y011050D01*
X010381Y011051D01*
X010350Y011056D01*
X010320Y011065D01*
X010291Y011077D01*
X010264Y011093D01*
X010238Y011112D01*
X010216Y011134D01*
X010196Y011158D01*
X010179Y011185D01*
X010166Y011214D01*
X010157Y011244D01*
X010151Y011275D01*
X010149Y011306D01*
X002286Y014284D02*
X002288Y014310D01*
X002294Y014336D01*
X002304Y014361D01*
X002317Y014384D01*
X002333Y014404D01*
X002353Y014422D01*
X002375Y014437D01*
X002398Y014449D01*
X002424Y014457D01*
X002450Y014461D01*
X002476Y014461D01*
X002502Y014457D01*
X002528Y014449D01*
X002552Y014437D01*
X002573Y014422D01*
X002593Y014404D01*
X002609Y014384D01*
X002622Y014361D01*
X002632Y014336D01*
X002638Y014310D01*
X002640Y014284D01*
X002638Y014258D01*
X002632Y014232D01*
X002622Y014207D01*
X002609Y014184D01*
X002593Y014164D01*
X002573Y014146D01*
X002551Y014131D01*
X002528Y014119D01*
X002502Y014111D01*
X002476Y014107D01*
X002450Y014107D01*
X002424Y014111D01*
X002398Y014119D01*
X002374Y014131D01*
X002353Y014146D01*
X002333Y014164D01*
X002317Y014184D01*
X002304Y014207D01*
X002294Y014232D01*
X002288Y014258D01*
X002286Y014284D01*
X002286Y016016D02*
X002288Y016042D01*
X002294Y016068D01*
X002304Y016093D01*
X002317Y016116D01*
X002333Y016136D01*
X002353Y016154D01*
X002375Y016169D01*
X002398Y016181D01*
X002424Y016189D01*
X002450Y016193D01*
X002476Y016193D01*
X002502Y016189D01*
X002528Y016181D01*
X002552Y016169D01*
X002573Y016154D01*
X002593Y016136D01*
X002609Y016116D01*
X002622Y016093D01*
X002632Y016068D01*
X002638Y016042D01*
X002640Y016016D01*
X002638Y015990D01*
X002632Y015964D01*
X002622Y015939D01*
X002609Y015916D01*
X002593Y015896D01*
X002573Y015878D01*
X002551Y015863D01*
X002528Y015851D01*
X002502Y015843D01*
X002476Y015839D01*
X002450Y015839D01*
X002424Y015843D01*
X002398Y015851D01*
X002374Y015863D01*
X002353Y015878D01*
X002333Y015896D01*
X002317Y015916D01*
X002304Y015939D01*
X002294Y015964D01*
X002288Y015990D01*
X002286Y016016D01*
D11*
X021063Y016100D02*
X021313Y015850D01*
X021813Y015850D01*
X022063Y016100D01*
X022313Y015850D01*
X022813Y015850D01*
X023063Y016100D01*
X023063Y016600D01*
X022813Y016850D01*
X022313Y016850D01*
X022063Y016600D01*
X022063Y016100D01*
X022063Y016600D02*
X021813Y016850D01*
X021313Y016850D01*
X021063Y016600D01*
X021063Y016100D01*
X023063Y016100D02*
X023313Y015850D01*
X023813Y015850D01*
X024063Y016100D01*
X024313Y015850D01*
X024813Y015850D01*
X025063Y016100D01*
X025313Y015850D01*
X025813Y015850D01*
X026063Y016100D01*
X026063Y016600D01*
X025813Y016850D01*
X025313Y016850D01*
X025063Y016600D01*
X025063Y016100D01*
X025063Y016600D02*
X024813Y016850D01*
X024313Y016850D01*
X024063Y016600D01*
X024063Y016100D01*
X024063Y016600D02*
X023813Y016850D01*
X023313Y016850D01*
X023063Y016600D01*
X026063Y016600D02*
X026313Y016850D01*
X026813Y016850D01*
X027063Y016600D01*
X027313Y016850D01*
X027813Y016850D01*
X028063Y016600D01*
X028313Y016850D01*
X028813Y016850D01*
X029063Y016600D01*
X029063Y016100D01*
X028813Y015850D01*
X028313Y015850D01*
X028063Y016100D01*
X027813Y015850D01*
X027313Y015850D01*
X027063Y016100D01*
X026813Y015850D01*
X026313Y015850D01*
X026063Y016100D01*
X027063Y016100D02*
X027063Y016600D01*
X028063Y016600D02*
X028063Y016100D01*
X029313Y012850D02*
X029813Y012850D01*
X030063Y012600D01*
X030063Y012100D01*
X029813Y011850D01*
X030063Y011600D01*
X030063Y011100D01*
X029813Y010850D01*
X029313Y010850D01*
X029063Y011100D01*
X029063Y011600D01*
X029313Y011850D01*
X029063Y012100D01*
X029063Y012600D01*
X029313Y012850D01*
X029313Y011850D02*
X029813Y011850D01*
X028813Y001850D02*
X028313Y001850D01*
X028063Y001600D01*
X028063Y001100D01*
X028313Y000850D01*
X028813Y000850D01*
X029063Y001100D01*
X029063Y001600D01*
X028813Y001850D01*
X028063Y001600D02*
X027813Y001850D01*
X027313Y001850D01*
X027063Y001600D01*
X027063Y001100D01*
X026813Y000850D01*
X026313Y000850D01*
X026063Y001100D01*
X025813Y000850D01*
X025313Y000850D01*
X025063Y001100D01*
X025063Y001600D01*
X025313Y001850D01*
X025813Y001850D01*
X026063Y001600D01*
X026313Y001850D01*
X026813Y001850D01*
X027063Y001600D01*
X027063Y001100D02*
X027313Y000850D01*
X027813Y000850D01*
X028063Y001100D01*
X026063Y001100D02*
X026063Y001600D01*
X025063Y001600D02*
X025063Y001100D01*
X024813Y000850D01*
X024313Y000850D01*
X024063Y001100D01*
X023813Y000850D01*
X023313Y000850D01*
X023063Y001100D01*
X022813Y000850D01*
X022313Y000850D01*
X022063Y001100D01*
X021813Y000850D01*
X021313Y000850D01*
X021063Y001100D01*
X021063Y001600D01*
X021313Y001850D01*
X021813Y001850D01*
X022063Y001600D01*
X022313Y001850D01*
X022813Y001850D01*
X023063Y001600D01*
X023063Y001100D01*
X023063Y001600D02*
X023313Y001850D01*
X023813Y001850D01*
X024063Y001600D01*
X024313Y001850D01*
X024813Y001850D01*
X025063Y001600D01*
X024063Y001600D02*
X024063Y001100D01*
X022063Y001100D02*
X022063Y001600D01*
X010544Y003194D02*
X010117Y003194D01*
X010117Y003300D02*
X010223Y003407D01*
X010437Y003407D01*
X010544Y003300D01*
X010544Y003194D01*
X010223Y002980D02*
X010117Y003087D01*
X010117Y003300D01*
X010223Y002980D02*
X010437Y002980D01*
X009900Y002980D02*
X009687Y002980D01*
X009794Y002980D02*
X009794Y003621D01*
X009687Y003621D01*
X009469Y003407D02*
X009469Y002980D01*
X009149Y002980D01*
X009042Y003087D01*
X009042Y003407D01*
X008825Y003407D02*
X008504Y003407D01*
X008398Y003300D01*
X008398Y003087D01*
X008504Y002980D01*
X008825Y002980D01*
X008825Y003621D01*
X008180Y003300D02*
X008073Y003407D01*
X007860Y003407D01*
X007753Y003300D01*
X007753Y003087D01*
X007860Y002980D01*
X008073Y002980D01*
X008180Y003087D01*
X008180Y003300D01*
X007536Y003621D02*
X007536Y002980D01*
X007646Y002571D02*
X007753Y002571D01*
X007753Y001930D01*
X007859Y001930D02*
X007646Y001930D01*
X007321Y001930D02*
X007108Y001930D01*
X007001Y002037D01*
X007001Y002250D01*
X007108Y002357D01*
X007321Y002357D01*
X007428Y002250D01*
X007428Y002144D01*
X007001Y002144D01*
X006784Y001930D02*
X006784Y002571D01*
X006570Y002357D01*
X006357Y002571D01*
X006357Y001930D01*
X006462Y001521D02*
X006249Y001521D01*
X006142Y001414D01*
X006462Y001521D02*
X006569Y001414D01*
X006569Y001307D01*
X006142Y000880D01*
X006569Y000880D01*
X006786Y000987D02*
X007213Y001414D01*
X007213Y000987D01*
X007107Y000880D01*
X006893Y000880D01*
X006786Y000987D01*
X006786Y001414D01*
X006893Y001521D01*
X007107Y001521D01*
X007213Y001414D01*
X007431Y001307D02*
X007644Y001521D01*
X007644Y000880D01*
X007431Y000880D02*
X007858Y000880D01*
X008075Y000987D02*
X008182Y000880D01*
X008396Y000880D01*
X008502Y000987D01*
X008502Y001094D01*
X008396Y001200D01*
X008289Y001200D01*
X008396Y001200D02*
X008502Y001307D01*
X008502Y001414D01*
X008396Y001521D01*
X008182Y001521D01*
X008075Y001414D01*
X008075Y001930D02*
X008289Y001930D01*
X008182Y001930D02*
X008182Y002571D01*
X008075Y002571D01*
X008505Y002357D02*
X008612Y002357D01*
X008612Y001930D01*
X008505Y001930D02*
X008719Y001930D01*
X008935Y001930D02*
X009255Y001930D01*
X009362Y002037D01*
X009255Y002144D01*
X009042Y002144D01*
X008935Y002250D01*
X009042Y002357D01*
X009362Y002357D01*
X008612Y002571D02*
X008612Y002677D01*
X007536Y003621D02*
X007322Y003407D01*
X007109Y003621D01*
X007109Y002980D01*
X006247Y003194D02*
X005820Y003194D01*
X005820Y003300D02*
X005926Y003407D01*
X006140Y003407D01*
X006247Y003300D01*
X006247Y003194D01*
X005926Y002980D02*
X005820Y003087D01*
X005820Y003300D01*
X005602Y003300D02*
X005495Y003407D01*
X005175Y003407D01*
X005175Y002980D01*
X004957Y003087D02*
X004957Y003300D01*
X004851Y003407D01*
X004637Y003407D01*
X004530Y003300D01*
X004530Y003087D01*
X004637Y002980D01*
X004851Y002980D01*
X004957Y003087D01*
X004313Y002980D02*
X004313Y003300D01*
X004206Y003407D01*
X003993Y003407D01*
X003886Y003300D01*
X003668Y003300D02*
X003668Y003087D01*
X003562Y002980D01*
X003241Y002980D01*
X003241Y002766D02*
X003241Y003407D01*
X003562Y003407D01*
X003668Y003300D01*
X003886Y002980D02*
X003886Y003621D01*
X002918Y003621D02*
X002918Y002980D01*
X002812Y002980D02*
X003025Y002980D01*
X003133Y002677D02*
X003133Y002571D01*
X003133Y002357D02*
X003026Y002357D01*
X003133Y002357D02*
X003133Y001930D01*
X003026Y001930D02*
X003240Y001930D01*
X003456Y002037D02*
X003456Y002250D01*
X003563Y002357D01*
X003883Y002357D01*
X003883Y002571D02*
X003883Y001930D01*
X003563Y001930D01*
X003456Y002037D01*
X002809Y002357D02*
X002595Y001930D01*
X002382Y002357D01*
X002164Y002250D02*
X002164Y001930D01*
X001844Y001930D01*
X001737Y002037D01*
X001844Y002144D01*
X002164Y002144D01*
X002164Y002250D02*
X002058Y002357D01*
X001844Y002357D01*
X001520Y002464D02*
X001413Y002571D01*
X001093Y002571D01*
X001093Y001930D01*
X001413Y001930D01*
X001520Y002037D01*
X001520Y002464D01*
X001413Y002980D02*
X001200Y002980D01*
X001093Y003087D01*
X001093Y003514D01*
X001200Y003621D01*
X001413Y003621D01*
X001520Y003514D01*
X001737Y003300D02*
X001844Y003407D01*
X002058Y003407D01*
X002164Y003300D01*
X002164Y003194D01*
X001737Y003194D01*
X001737Y003300D02*
X001737Y003087D01*
X001844Y002980D01*
X002058Y002980D01*
X002382Y002980D02*
X002595Y002980D01*
X002489Y002980D02*
X002489Y003621D01*
X002382Y003621D01*
X002812Y003621D02*
X002918Y003621D01*
X001520Y003087D02*
X001413Y002980D01*
X001413Y001521D02*
X001200Y001521D01*
X001093Y001414D01*
X001093Y000987D01*
X001200Y000880D01*
X001413Y000880D01*
X001520Y000987D01*
X001520Y001414D01*
X001413Y001521D01*
X001737Y001200D02*
X001844Y001307D01*
X002164Y001307D01*
X002382Y001307D02*
X002595Y001307D01*
X002489Y001414D02*
X002489Y000987D01*
X002595Y000880D01*
X002812Y000880D02*
X002918Y000880D01*
X002918Y000987D01*
X002812Y000987D01*
X002812Y000880D01*
X002164Y000880D02*
X001844Y000880D01*
X001737Y000987D01*
X001737Y001200D01*
X003778Y001307D02*
X003992Y001521D01*
X003992Y000880D01*
X004205Y000880D02*
X003778Y000880D01*
X004423Y000987D02*
X004530Y000880D01*
X004743Y000880D01*
X004850Y000987D01*
X004850Y001414D01*
X004423Y000987D01*
X004423Y001414D01*
X004530Y001521D01*
X004743Y001521D01*
X004850Y001414D01*
X005174Y000987D02*
X005174Y000880D01*
X005281Y000880D01*
X005281Y000987D01*
X005174Y000987D01*
X005281Y000880D02*
X005068Y000666D01*
X005172Y001930D02*
X005172Y002357D01*
X004959Y002571D01*
X004745Y002357D01*
X004745Y001930D01*
X004745Y002250D02*
X005172Y002250D01*
X005390Y002037D02*
X005497Y002037D01*
X005497Y001930D01*
X005390Y001930D01*
X005390Y002037D01*
X005602Y002980D02*
X005602Y003300D01*
X005926Y002980D02*
X006140Y002980D01*
D12*
X016658Y008612D02*
X016948Y008612D01*
X016948Y008708D02*
X016948Y008515D01*
X016754Y008515D02*
X016658Y008612D01*
X016706Y008810D02*
X016754Y008810D01*
X016803Y008858D01*
X016803Y008955D01*
X016851Y009003D01*
X016899Y009003D01*
X016948Y008955D01*
X016948Y008858D01*
X016899Y008810D01*
X016851Y008810D01*
X016803Y008858D01*
X016803Y008955D02*
X016754Y009003D01*
X016706Y009003D01*
X016658Y008955D01*
X016658Y008858D01*
X016706Y008810D01*
X016754Y009104D02*
X016754Y009249D01*
X016803Y009298D01*
X016899Y009298D01*
X016948Y009249D01*
X016948Y009104D01*
X017045Y009104D02*
X016754Y009104D01*
X016803Y009399D02*
X016803Y009496D01*
X016948Y009399D02*
X016658Y009399D01*
X016658Y009592D01*
X019028Y010135D02*
X019076Y010086D01*
X019124Y010086D01*
X019173Y010135D01*
X019173Y010232D01*
X019221Y010280D01*
X019269Y010280D01*
X019318Y010232D01*
X019318Y010135D01*
X019269Y010086D01*
X019221Y010086D01*
X019173Y010135D01*
X019173Y010232D02*
X019124Y010280D01*
X019076Y010280D01*
X019028Y010232D01*
X019028Y010135D01*
X019028Y010381D02*
X019124Y010478D01*
X019028Y010575D01*
X019318Y010575D01*
X019318Y010676D02*
X019028Y010676D01*
X019173Y010676D02*
X019173Y010869D01*
X019269Y010970D02*
X019318Y010970D01*
X019318Y011164D01*
X019269Y010970D02*
X019076Y011164D01*
X019028Y011164D01*
X019028Y010970D01*
X019028Y010869D02*
X019318Y010869D01*
X019318Y010381D02*
X019028Y010381D01*
X016968Y011436D02*
X016968Y011630D01*
X016968Y011533D02*
X016678Y011533D01*
X016774Y011436D01*
X016774Y011731D02*
X016726Y011731D01*
X016678Y011779D01*
X016678Y011876D01*
X016726Y011925D01*
X016774Y011925D01*
X016823Y011876D01*
X016823Y011779D01*
X016774Y011731D01*
X016823Y011779D02*
X016871Y011731D01*
X016919Y011731D01*
X016968Y011779D01*
X016968Y011876D01*
X016919Y011925D01*
X016871Y011925D01*
X016823Y011876D01*
X016774Y012026D02*
X016774Y012171D01*
X016823Y012219D01*
X016919Y012219D01*
X016968Y012171D01*
X016968Y012026D01*
X017065Y012026D02*
X016774Y012026D01*
X016823Y012320D02*
X016823Y012417D01*
X016968Y012320D02*
X016678Y012320D01*
X016678Y012514D01*
X017320Y013808D02*
X017272Y013856D01*
X017465Y014049D01*
X017465Y013856D01*
X017417Y013808D01*
X017320Y013808D01*
X017272Y013856D02*
X017272Y014049D01*
X017320Y014098D01*
X017417Y014098D01*
X017465Y014049D01*
X017566Y013856D02*
X017615Y013856D01*
X017615Y013808D01*
X017566Y013808D01*
X017566Y013856D01*
X017714Y013808D02*
X017907Y013808D01*
X017810Y013808D02*
X017810Y014098D01*
X017714Y014001D01*
X018303Y014001D02*
X018303Y013856D01*
X018351Y013808D01*
X018496Y013808D01*
X018496Y014001D01*
X018597Y013953D02*
X018694Y013953D01*
X018597Y013808D02*
X018597Y014098D01*
X018791Y014098D01*
X021376Y017115D02*
X021328Y017163D01*
X021376Y017115D02*
X021473Y017115D01*
X021521Y017163D01*
X021521Y017212D01*
X021473Y017260D01*
X021425Y017260D01*
X021473Y017260D02*
X021521Y017308D01*
X021521Y017357D01*
X021473Y017405D01*
X021376Y017405D01*
X021328Y017357D01*
X021622Y017308D02*
X021719Y017405D01*
X021719Y017115D01*
X021622Y017115D02*
X021816Y017115D01*
X022328Y017163D02*
X022376Y017115D01*
X022473Y017115D01*
X022521Y017163D01*
X022521Y017212D01*
X022473Y017260D01*
X022425Y017260D01*
X022473Y017260D02*
X022521Y017308D01*
X022521Y017357D01*
X022473Y017405D01*
X022376Y017405D01*
X022328Y017357D01*
X022622Y017357D02*
X022622Y017163D01*
X022816Y017357D01*
X022816Y017163D01*
X022768Y017115D01*
X022671Y017115D01*
X022622Y017163D01*
X022622Y017357D02*
X022671Y017405D01*
X022768Y017405D01*
X022816Y017357D01*
X023328Y017357D02*
X023376Y017405D01*
X023473Y017405D01*
X023521Y017357D01*
X023521Y017308D01*
X023328Y017115D01*
X023521Y017115D01*
X023622Y017163D02*
X023671Y017115D01*
X023768Y017115D01*
X023816Y017163D01*
X023816Y017357D01*
X023768Y017405D01*
X023671Y017405D01*
X023622Y017357D01*
X023622Y017308D01*
X023671Y017260D01*
X023816Y017260D01*
X024328Y017357D02*
X024376Y017405D01*
X024473Y017405D01*
X024521Y017357D01*
X024521Y017308D01*
X024328Y017115D01*
X024521Y017115D01*
X024622Y017163D02*
X024622Y017212D01*
X024671Y017260D01*
X024768Y017260D01*
X024816Y017212D01*
X024816Y017163D01*
X024768Y017115D01*
X024671Y017115D01*
X024622Y017163D01*
X024671Y017260D02*
X024622Y017308D01*
X024622Y017357D01*
X024671Y017405D01*
X024768Y017405D01*
X024816Y017357D01*
X024816Y017308D01*
X024768Y017260D01*
X025328Y017357D02*
X025376Y017405D01*
X025473Y017405D01*
X025521Y017357D01*
X025521Y017308D01*
X025328Y017115D01*
X025521Y017115D01*
X025622Y017115D02*
X025622Y017163D01*
X025816Y017357D01*
X025816Y017405D01*
X025622Y017405D01*
X026328Y017357D02*
X026376Y017405D01*
X026473Y017405D01*
X026521Y017357D01*
X026521Y017308D01*
X026328Y017115D01*
X026521Y017115D01*
X026622Y017163D02*
X026622Y017260D01*
X026768Y017260D01*
X026816Y017212D01*
X026816Y017163D01*
X026768Y017115D01*
X026671Y017115D01*
X026622Y017163D01*
X026622Y017260D02*
X026719Y017357D01*
X026816Y017405D01*
X027328Y017357D02*
X027376Y017405D01*
X027473Y017405D01*
X027521Y017357D01*
X027521Y017308D01*
X027328Y017115D01*
X027521Y017115D01*
X027622Y017163D02*
X027671Y017115D01*
X027768Y017115D01*
X027816Y017163D01*
X027816Y017260D01*
X027768Y017308D01*
X027719Y017308D01*
X027622Y017260D01*
X027622Y017405D01*
X027816Y017405D01*
X028328Y017357D02*
X028376Y017405D01*
X028473Y017405D01*
X028521Y017357D01*
X028521Y017308D01*
X028328Y017115D01*
X028521Y017115D01*
X028622Y017260D02*
X028816Y017260D01*
X028768Y017115D02*
X028768Y017405D01*
X028622Y017260D01*
X030336Y012020D02*
X030288Y011971D01*
X030288Y011874D01*
X030336Y011826D01*
X030529Y011826D01*
X030578Y011874D01*
X030578Y011971D01*
X030529Y012020D01*
X030578Y011726D02*
X030578Y011630D01*
X030578Y011678D02*
X030288Y011678D01*
X030288Y011630D02*
X030288Y011726D01*
X030288Y011528D02*
X030578Y011528D01*
X030384Y011432D02*
X030288Y011528D01*
X030384Y011432D02*
X030288Y011335D01*
X030578Y011335D01*
X023626Y009570D02*
X023433Y009570D01*
X023578Y009715D01*
X023578Y009424D01*
X023332Y009473D02*
X023283Y009424D01*
X023187Y009424D01*
X023138Y009473D01*
X023138Y009521D01*
X023187Y009570D01*
X023283Y009570D01*
X023332Y009521D01*
X023332Y009473D01*
X023283Y009570D02*
X023332Y009618D01*
X023332Y009666D01*
X023283Y009715D01*
X023187Y009715D01*
X023138Y009666D01*
X023138Y009618D01*
X023187Y009570D01*
X023037Y009618D02*
X023037Y009666D01*
X022989Y009715D01*
X022892Y009715D01*
X022844Y009666D01*
X023037Y009618D02*
X022844Y009424D01*
X023037Y009424D01*
X022742Y009424D02*
X022549Y009424D01*
X022646Y009424D02*
X022646Y009715D01*
X022549Y009618D01*
X022448Y009618D02*
X022448Y009424D01*
X022448Y009570D02*
X022254Y009570D01*
X022254Y009618D02*
X022254Y009424D01*
X022153Y009473D02*
X022153Y009570D01*
X022056Y009570D01*
X021960Y009666D02*
X021960Y009473D01*
X022008Y009424D01*
X022105Y009424D01*
X022153Y009473D01*
X022254Y009618D02*
X022351Y009715D01*
X022448Y009618D01*
X022153Y009666D02*
X022105Y009715D01*
X022008Y009715D01*
X021960Y009666D01*
X021859Y009715D02*
X021665Y009715D01*
X021665Y009424D01*
X021859Y009424D01*
X021762Y009570D02*
X021665Y009570D01*
X021564Y009715D02*
X021564Y009424D01*
X021370Y009424D02*
X021370Y009715D01*
X021467Y009618D01*
X021564Y009715D01*
X022800Y006985D02*
X022897Y006985D01*
X022945Y006937D01*
X022752Y006743D01*
X022800Y006695D01*
X022897Y006695D01*
X022945Y006743D01*
X022945Y006937D01*
X022800Y006985D02*
X022752Y006937D01*
X022752Y006743D01*
X023047Y006743D02*
X023047Y006695D01*
X023095Y006695D01*
X023095Y006743D01*
X023047Y006743D01*
X023194Y006695D02*
X023387Y006695D01*
X023291Y006695D02*
X023291Y006985D01*
X023194Y006888D01*
X023489Y006888D02*
X023489Y006743D01*
X023537Y006695D01*
X023682Y006695D01*
X023682Y006888D01*
X023783Y006840D02*
X023880Y006840D01*
X023783Y006695D02*
X023783Y006985D01*
X023977Y006985D01*
X023768Y000585D02*
X023622Y000440D01*
X023816Y000440D01*
X023768Y000295D02*
X023768Y000585D01*
X023425Y000585D02*
X023328Y000488D01*
X023425Y000585D02*
X023425Y000295D01*
X023521Y000295D02*
X023328Y000295D01*
X022816Y000343D02*
X022768Y000295D01*
X022671Y000295D01*
X022622Y000343D01*
X022521Y000295D02*
X022328Y000295D01*
X022425Y000295D02*
X022425Y000585D01*
X022328Y000488D01*
X022622Y000537D02*
X022671Y000585D01*
X022768Y000585D01*
X022816Y000537D01*
X022816Y000488D01*
X022768Y000440D01*
X022816Y000392D01*
X022816Y000343D01*
X022768Y000440D02*
X022719Y000440D01*
X021816Y000488D02*
X021622Y000295D01*
X021816Y000295D01*
X021816Y000488D02*
X021816Y000537D01*
X021768Y000585D01*
X021671Y000585D01*
X021622Y000537D01*
X021425Y000585D02*
X021328Y000488D01*
X021425Y000585D02*
X021425Y000295D01*
X021521Y000295D02*
X021328Y000295D01*
X024328Y000295D02*
X024521Y000295D01*
X024425Y000295D02*
X024425Y000585D01*
X024328Y000488D01*
X024622Y000440D02*
X024622Y000585D01*
X024816Y000585D01*
X024768Y000488D02*
X024719Y000488D01*
X024622Y000440D01*
X024622Y000343D02*
X024671Y000295D01*
X024768Y000295D01*
X024816Y000343D01*
X024816Y000440D01*
X024768Y000488D01*
X025328Y000537D02*
X025376Y000585D01*
X025473Y000585D01*
X025521Y000537D01*
X025521Y000488D01*
X025328Y000295D01*
X025521Y000295D01*
X025622Y000343D02*
X025816Y000537D01*
X025816Y000343D01*
X025768Y000295D01*
X025671Y000295D01*
X025622Y000343D01*
X025622Y000537D01*
X025671Y000585D01*
X025768Y000585D01*
X025816Y000537D01*
X026328Y000537D02*
X026376Y000585D01*
X026473Y000585D01*
X026521Y000537D01*
X026521Y000488D01*
X026328Y000295D01*
X026521Y000295D01*
X026622Y000295D02*
X026816Y000295D01*
X026719Y000295D02*
X026719Y000585D01*
X026622Y000488D01*
X027328Y000537D02*
X027376Y000585D01*
X027473Y000585D01*
X027521Y000537D01*
X027521Y000488D01*
X027328Y000295D01*
X027521Y000295D01*
X027622Y000295D02*
X027816Y000488D01*
X027816Y000537D01*
X027768Y000585D01*
X027671Y000585D01*
X027622Y000537D01*
X027622Y000295D02*
X027816Y000295D01*
X028328Y000295D02*
X028521Y000488D01*
X028521Y000537D01*
X028473Y000585D01*
X028376Y000585D01*
X028328Y000537D01*
X028622Y000537D02*
X028671Y000585D01*
X028768Y000585D01*
X028816Y000537D01*
X028816Y000488D01*
X028768Y000440D01*
X028816Y000392D01*
X028816Y000343D01*
X028768Y000295D01*
X028671Y000295D01*
X028622Y000343D01*
X028521Y000295D02*
X028328Y000295D01*
X028719Y000440D02*
X028768Y000440D01*
D13*
X024088Y009217D02*
X020623Y009217D01*
X020466Y009374D01*
X020466Y012839D01*
X020623Y012996D01*
X024088Y012996D01*
X024245Y012839D01*
X024245Y009374D01*
X024088Y009217D01*
X006194Y014363D02*
X006194Y015937D01*
X004619Y016725D02*
X003241Y016725D01*
X003241Y016410D01*
X004225Y016410D01*
X004225Y015937D01*
X004225Y014363D02*
X004225Y013890D01*
X003241Y013890D01*
X003241Y013575D01*
X004619Y013575D01*
D14*
X020670Y012681D02*
X020672Y012701D01*
X020677Y012721D01*
X020687Y012739D01*
X020699Y012756D01*
X020714Y012770D01*
X020732Y012780D01*
X020751Y012788D01*
X020771Y012792D01*
X020791Y012792D01*
X020811Y012788D01*
X020830Y012780D01*
X020848Y012770D01*
X020863Y012756D01*
X020875Y012739D01*
X020885Y012721D01*
X020890Y012701D01*
X020892Y012681D01*
X020890Y012661D01*
X020885Y012641D01*
X020875Y012623D01*
X020863Y012606D01*
X020848Y012592D01*
X020830Y012582D01*
X020811Y012574D01*
X020791Y012570D01*
X020771Y012570D01*
X020751Y012574D01*
X020732Y012582D01*
X020714Y012592D01*
X020699Y012606D01*
X020687Y012623D01*
X020677Y012641D01*
X020672Y012661D01*
X020670Y012681D01*
D15*
X018943Y011584D02*
X018943Y009616D01*
X018825Y009616D01*
X018113Y009150D02*
X017713Y009150D01*
X017683Y009616D02*
X017683Y011584D01*
X017801Y011584D01*
X017713Y012050D02*
X018113Y012050D01*
X018825Y011584D02*
X018943Y011584D01*
X018113Y012650D02*
X017713Y012650D01*
X017707Y013043D02*
X018107Y013043D01*
X018107Y013643D02*
X017707Y013643D01*
X017683Y009616D02*
X017801Y009616D01*
X017713Y008550D02*
X018113Y008550D01*
X023113Y007750D02*
X023513Y007750D01*
X023513Y007150D02*
X023113Y007150D01*
X025972Y011476D02*
X025972Y011752D01*
X025618Y012500D02*
X025620Y012561D01*
X025626Y012622D01*
X025636Y012682D01*
X025650Y012742D01*
X025667Y012801D01*
X025688Y012858D01*
X025713Y012914D01*
X025742Y012968D01*
X025774Y013020D01*
X025809Y013070D01*
X025848Y013118D01*
X025889Y013163D01*
X025934Y013205D01*
X025981Y013244D01*
X026030Y013280D01*
X026082Y013313D01*
X026135Y013343D01*
X026191Y013369D01*
X026248Y013391D01*
X026306Y013409D01*
X026366Y013424D01*
X026426Y013435D01*
X026487Y013442D01*
X026548Y013445D01*
X026609Y013444D01*
X026670Y013439D01*
X026730Y013430D01*
X026790Y013417D01*
X026849Y013401D01*
X026907Y013380D01*
X026963Y013356D01*
X027018Y013328D01*
X027070Y013297D01*
X027121Y013263D01*
X027169Y013225D01*
X027215Y013184D01*
X027258Y013141D01*
X027298Y013094D01*
X027335Y013046D01*
X027368Y012994D01*
X027399Y012941D01*
X027425Y012886D01*
X027449Y012830D01*
X027468Y012772D01*
X027484Y012712D01*
X027496Y012652D01*
X027504Y012592D01*
X027508Y012531D01*
X027508Y012469D01*
X027504Y012408D01*
X027496Y012348D01*
X027484Y012288D01*
X027468Y012228D01*
X027449Y012170D01*
X027425Y012114D01*
X027399Y012059D01*
X027368Y012006D01*
X027335Y011954D01*
X027298Y011906D01*
X027258Y011859D01*
X027215Y011816D01*
X027169Y011775D01*
X027121Y011737D01*
X027070Y011703D01*
X027018Y011672D01*
X026963Y011644D01*
X026907Y011620D01*
X026849Y011599D01*
X026790Y011583D01*
X026730Y011570D01*
X026670Y011561D01*
X026609Y011556D01*
X026548Y011555D01*
X026487Y011558D01*
X026426Y011565D01*
X026366Y011576D01*
X026306Y011591D01*
X026248Y011609D01*
X026191Y011631D01*
X026135Y011657D01*
X026082Y011687D01*
X026030Y011720D01*
X025981Y011756D01*
X025934Y011795D01*
X025889Y011837D01*
X025848Y011882D01*
X025809Y011930D01*
X025774Y011980D01*
X025742Y012032D01*
X025713Y012086D01*
X025688Y012142D01*
X025667Y012199D01*
X025650Y012258D01*
X025636Y012318D01*
X025626Y012378D01*
X025620Y012439D01*
X025618Y012500D01*
X026169Y013366D02*
X026169Y013524D01*
X026957Y013524D02*
X026957Y013366D01*
X028303Y014100D02*
X028305Y014171D01*
X028311Y014241D01*
X028321Y014311D01*
X028335Y014380D01*
X028352Y014449D01*
X028374Y014516D01*
X028399Y014582D01*
X028428Y014647D01*
X028460Y014709D01*
X028496Y014770D01*
X028535Y014829D01*
X028578Y014886D01*
X028623Y014940D01*
X028672Y014991D01*
X028723Y015040D01*
X028777Y015085D01*
X028834Y015128D01*
X028893Y015167D01*
X028954Y015203D01*
X029016Y015235D01*
X029081Y015264D01*
X029147Y015289D01*
X029214Y015311D01*
X029283Y015328D01*
X029352Y015342D01*
X029422Y015352D01*
X029492Y015358D01*
X029563Y015360D01*
X029634Y015358D01*
X029704Y015352D01*
X029774Y015342D01*
X029843Y015328D01*
X029912Y015311D01*
X029979Y015289D01*
X030045Y015264D01*
X030110Y015235D01*
X030172Y015203D01*
X030233Y015167D01*
X030292Y015128D01*
X030349Y015085D01*
X030403Y015040D01*
X030454Y014991D01*
X030503Y014940D01*
X030548Y014886D01*
X030591Y014829D01*
X030630Y014770D01*
X030666Y014709D01*
X030698Y014647D01*
X030727Y014582D01*
X030752Y014516D01*
X030774Y014449D01*
X030791Y014380D01*
X030805Y014311D01*
X030815Y014241D01*
X030821Y014171D01*
X030823Y014100D01*
X030821Y014029D01*
X030815Y013959D01*
X030805Y013889D01*
X030791Y013820D01*
X030774Y013751D01*
X030752Y013684D01*
X030727Y013618D01*
X030698Y013553D01*
X030666Y013491D01*
X030630Y013430D01*
X030591Y013371D01*
X030548Y013314D01*
X030503Y013260D01*
X030454Y013209D01*
X030403Y013160D01*
X030349Y013115D01*
X030292Y013072D01*
X030233Y013033D01*
X030172Y012997D01*
X030110Y012965D01*
X030045Y012936D01*
X029979Y012911D01*
X029912Y012889D01*
X029843Y012872D01*
X029774Y012858D01*
X029704Y012848D01*
X029634Y012842D01*
X029563Y012840D01*
X029492Y012842D01*
X029422Y012848D01*
X029352Y012858D01*
X029283Y012872D01*
X029214Y012889D01*
X029147Y012911D01*
X029081Y012936D01*
X029016Y012965D01*
X028954Y012997D01*
X028893Y013033D01*
X028834Y013072D01*
X028777Y013115D01*
X028723Y013160D01*
X028672Y013209D01*
X028623Y013260D01*
X028578Y013314D01*
X028535Y013371D01*
X028496Y013430D01*
X028460Y013491D01*
X028428Y013553D01*
X028399Y013618D01*
X028374Y013684D01*
X028352Y013751D01*
X028335Y013820D01*
X028321Y013889D01*
X028311Y013959D01*
X028305Y014029D01*
X028303Y014100D01*
X027153Y011752D02*
X027153Y011476D01*
D16*
X005668Y015238D02*
X005668Y015263D01*
X005643Y015288D01*
X005518Y015288D01*
X005518Y015263D02*
X005518Y015313D01*
X005518Y015360D02*
X005518Y015435D01*
X005543Y015460D01*
X005593Y015460D01*
X005618Y015435D01*
X005618Y015360D01*
X005668Y015360D02*
X005518Y015360D01*
X005543Y015508D02*
X005518Y015533D01*
X005518Y015583D01*
X005543Y015608D01*
X005568Y015608D01*
X005593Y015583D01*
X005618Y015608D01*
X005643Y015608D01*
X005668Y015583D01*
X005668Y015533D01*
X005643Y015508D01*
X005593Y015558D02*
X005593Y015583D01*
X005668Y015238D02*
X005643Y015213D01*
D17*
X002390Y016508D02*
X002390Y013792D01*
X000736Y013792D02*
X000736Y016508D01*
D18*
X001563Y014553D03*
D19*
X028520Y014100D02*
X028522Y014164D01*
X028528Y014228D01*
X028538Y014292D01*
X028552Y014354D01*
X028569Y014416D01*
X028590Y014477D01*
X028615Y014536D01*
X028644Y014593D01*
X028676Y014649D01*
X028712Y014703D01*
X028750Y014754D01*
X028792Y014803D01*
X028837Y014849D01*
X028884Y014892D01*
X028934Y014932D01*
X028987Y014969D01*
X029041Y015003D01*
X029098Y015034D01*
X029156Y015061D01*
X029216Y015084D01*
X029278Y015103D01*
X029340Y015119D01*
X029403Y015131D01*
X029467Y015139D01*
X029531Y015143D01*
X029595Y015143D01*
X029659Y015139D01*
X029723Y015131D01*
X029786Y015119D01*
X029848Y015103D01*
X029910Y015084D01*
X029970Y015061D01*
X030028Y015034D01*
X030084Y015003D01*
X030139Y014969D01*
X030192Y014932D01*
X030242Y014892D01*
X030289Y014849D01*
X030334Y014803D01*
X030376Y014754D01*
X030414Y014703D01*
X030450Y014649D01*
X030482Y014593D01*
X030511Y014536D01*
X030536Y014477D01*
X030557Y014416D01*
X030574Y014354D01*
X030588Y014292D01*
X030598Y014228D01*
X030604Y014164D01*
X030606Y014100D01*
X030604Y014036D01*
X030598Y013972D01*
X030588Y013908D01*
X030574Y013846D01*
X030557Y013784D01*
X030536Y013723D01*
X030511Y013664D01*
X030482Y013607D01*
X030450Y013551D01*
X030414Y013497D01*
X030376Y013446D01*
X030334Y013397D01*
X030289Y013351D01*
X030242Y013308D01*
X030192Y013268D01*
X030139Y013231D01*
X030085Y013197D01*
X030028Y013166D01*
X029970Y013139D01*
X029910Y013116D01*
X029848Y013097D01*
X029786Y013081D01*
X029723Y013069D01*
X029659Y013061D01*
X029595Y013057D01*
X029531Y013057D01*
X029467Y013061D01*
X029403Y013069D01*
X029340Y013081D01*
X029278Y013097D01*
X029216Y013116D01*
X029156Y013139D01*
X029098Y013166D01*
X029041Y013197D01*
X028987Y013231D01*
X028934Y013268D01*
X028884Y013308D01*
X028837Y013351D01*
X028792Y013397D01*
X028750Y013446D01*
X028712Y013497D01*
X028676Y013551D01*
X028644Y013607D01*
X028615Y013664D01*
X028590Y013723D01*
X028569Y013784D01*
X028552Y013846D01*
X028538Y013908D01*
X028528Y013972D01*
X028522Y014036D01*
X028520Y014100D01*
M02*
