G75*
G70*
%OFA0B0*%
%FSLAX24Y24*%
%IPPOS*%
%LPD*%
%AMOC8*
5,1,8,0,0,1.08239X$1,22.5*
%
%ADD10C,0.0750*%
%ADD11C,0.1050*%
%ADD12C,0.0039*%
%ADD13R,0.0740X0.0740*%
%ADD14OC8,0.0740*%
%ADD15C,0.0063*%
%ADD16C,0.0100*%
%ADD17C,0.0043*%
%ADD18C,0.0079*%
%ADD19C,0.0515*%
%ADD20C,0.0600*%
%ADD21C,0.0100*%
%ADD22C,0.0436*%
%ADD23C,0.0760*%
%ADD24C,0.0400*%
%ADD25OC8,0.0440*%
%ADD26C,0.0160*%
D10*
X013090Y003256D03*
D11*
X012086Y002252D03*
X014094Y002252D03*
X014094Y004260D03*
X012086Y004260D03*
D12*
X020702Y008547D02*
X020860Y008547D01*
X020702Y008547D02*
X020702Y009099D01*
X020860Y009099D01*
X020860Y008547D01*
X020860Y008585D02*
X020702Y008585D01*
X020702Y008623D02*
X020860Y008623D01*
X020860Y008661D02*
X020702Y008661D01*
X020702Y008699D02*
X020860Y008699D01*
X020860Y008737D02*
X020702Y008737D01*
X020702Y008775D02*
X020860Y008775D01*
X020860Y008813D02*
X020702Y008813D01*
X020702Y008851D02*
X020860Y008851D01*
X020860Y008889D02*
X020702Y008889D01*
X020702Y008927D02*
X020860Y008927D01*
X020860Y008965D02*
X020702Y008965D01*
X020702Y009003D02*
X020860Y009003D01*
X020860Y009041D02*
X020702Y009041D01*
X020702Y009079D02*
X020860Y009079D01*
X021017Y008547D02*
X021175Y008547D01*
X021017Y008547D02*
X021017Y009099D01*
X021175Y009099D01*
X021175Y008547D01*
X021175Y008585D02*
X021017Y008585D01*
X021017Y008623D02*
X021175Y008623D01*
X021175Y008661D02*
X021017Y008661D01*
X021017Y008699D02*
X021175Y008699D01*
X021175Y008737D02*
X021017Y008737D01*
X021017Y008775D02*
X021175Y008775D01*
X021175Y008813D02*
X021017Y008813D01*
X021017Y008851D02*
X021175Y008851D01*
X021175Y008889D02*
X021017Y008889D01*
X021017Y008927D02*
X021175Y008927D01*
X021175Y008965D02*
X021017Y008965D01*
X021017Y009003D02*
X021175Y009003D01*
X021175Y009041D02*
X021017Y009041D01*
X021017Y009079D02*
X021175Y009079D01*
X021331Y008547D02*
X021489Y008547D01*
X021331Y008547D02*
X021331Y009099D01*
X021489Y009099D01*
X021489Y008547D01*
X021489Y008585D02*
X021331Y008585D01*
X021331Y008623D02*
X021489Y008623D01*
X021489Y008661D02*
X021331Y008661D01*
X021331Y008699D02*
X021489Y008699D01*
X021489Y008737D02*
X021331Y008737D01*
X021331Y008775D02*
X021489Y008775D01*
X021489Y008813D02*
X021331Y008813D01*
X021331Y008851D02*
X021489Y008851D01*
X021489Y008889D02*
X021331Y008889D01*
X021331Y008927D02*
X021489Y008927D01*
X021489Y008965D02*
X021331Y008965D01*
X021331Y009003D02*
X021489Y009003D01*
X021489Y009041D02*
X021331Y009041D01*
X021331Y009079D02*
X021489Y009079D01*
X021646Y008547D02*
X021804Y008547D01*
X021646Y008547D02*
X021646Y009099D01*
X021804Y009099D01*
X021804Y008547D01*
X021804Y008585D02*
X021646Y008585D01*
X021646Y008623D02*
X021804Y008623D01*
X021804Y008661D02*
X021646Y008661D01*
X021646Y008699D02*
X021804Y008699D01*
X021804Y008737D02*
X021646Y008737D01*
X021646Y008775D02*
X021804Y008775D01*
X021804Y008813D02*
X021646Y008813D01*
X021646Y008851D02*
X021804Y008851D01*
X021804Y008889D02*
X021646Y008889D01*
X021646Y008927D02*
X021804Y008927D01*
X021804Y008965D02*
X021646Y008965D01*
X021646Y009003D02*
X021804Y009003D01*
X021804Y009041D02*
X021646Y009041D01*
X021646Y009079D02*
X021804Y009079D01*
X021961Y008547D02*
X022119Y008547D01*
X021961Y008547D02*
X021961Y009099D01*
X022119Y009099D01*
X022119Y008547D01*
X022119Y008585D02*
X021961Y008585D01*
X021961Y008623D02*
X022119Y008623D01*
X022119Y008661D02*
X021961Y008661D01*
X021961Y008699D02*
X022119Y008699D01*
X022119Y008737D02*
X021961Y008737D01*
X021961Y008775D02*
X022119Y008775D01*
X022119Y008813D02*
X021961Y008813D01*
X021961Y008851D02*
X022119Y008851D01*
X022119Y008889D02*
X021961Y008889D01*
X021961Y008927D02*
X022119Y008927D01*
X022119Y008965D02*
X021961Y008965D01*
X021961Y009003D02*
X022119Y009003D01*
X022119Y009041D02*
X021961Y009041D01*
X021961Y009079D02*
X022119Y009079D01*
X022276Y008547D02*
X022434Y008547D01*
X022276Y008547D02*
X022276Y009099D01*
X022434Y009099D01*
X022434Y008547D01*
X022434Y008585D02*
X022276Y008585D01*
X022276Y008623D02*
X022434Y008623D01*
X022434Y008661D02*
X022276Y008661D01*
X022276Y008699D02*
X022434Y008699D01*
X022434Y008737D02*
X022276Y008737D01*
X022276Y008775D02*
X022434Y008775D01*
X022434Y008813D02*
X022276Y008813D01*
X022276Y008851D02*
X022434Y008851D01*
X022434Y008889D02*
X022276Y008889D01*
X022276Y008927D02*
X022434Y008927D01*
X022434Y008965D02*
X022276Y008965D01*
X022276Y009003D02*
X022434Y009003D01*
X022434Y009041D02*
X022276Y009041D01*
X022276Y009079D02*
X022434Y009079D01*
X022591Y008547D02*
X022749Y008547D01*
X022591Y008547D02*
X022591Y009099D01*
X022749Y009099D01*
X022749Y008547D01*
X022749Y008585D02*
X022591Y008585D01*
X022591Y008623D02*
X022749Y008623D01*
X022749Y008661D02*
X022591Y008661D01*
X022591Y008699D02*
X022749Y008699D01*
X022749Y008737D02*
X022591Y008737D01*
X022591Y008775D02*
X022749Y008775D01*
X022749Y008813D02*
X022591Y008813D01*
X022591Y008851D02*
X022749Y008851D01*
X022749Y008889D02*
X022591Y008889D01*
X022591Y008927D02*
X022749Y008927D01*
X022749Y008965D02*
X022591Y008965D01*
X022591Y009003D02*
X022749Y009003D01*
X022749Y009041D02*
X022591Y009041D01*
X022591Y009079D02*
X022749Y009079D01*
X022906Y008547D02*
X023064Y008547D01*
X022906Y008547D02*
X022906Y009099D01*
X023064Y009099D01*
X023064Y008547D01*
X023064Y008585D02*
X022906Y008585D01*
X022906Y008623D02*
X023064Y008623D01*
X023064Y008661D02*
X022906Y008661D01*
X022906Y008699D02*
X023064Y008699D01*
X023064Y008737D02*
X022906Y008737D01*
X022906Y008775D02*
X023064Y008775D01*
X023064Y008813D02*
X022906Y008813D01*
X022906Y008851D02*
X023064Y008851D01*
X023064Y008889D02*
X022906Y008889D01*
X022906Y008927D02*
X023064Y008927D01*
X023064Y008965D02*
X022906Y008965D01*
X022906Y009003D02*
X023064Y009003D01*
X023064Y009041D02*
X022906Y009041D01*
X022906Y009079D02*
X023064Y009079D01*
X023221Y008547D02*
X023379Y008547D01*
X023221Y008547D02*
X023221Y009099D01*
X023379Y009099D01*
X023379Y008547D01*
X023379Y008585D02*
X023221Y008585D01*
X023221Y008623D02*
X023379Y008623D01*
X023379Y008661D02*
X023221Y008661D01*
X023221Y008699D02*
X023379Y008699D01*
X023379Y008737D02*
X023221Y008737D01*
X023221Y008775D02*
X023379Y008775D01*
X023379Y008813D02*
X023221Y008813D01*
X023221Y008851D02*
X023379Y008851D01*
X023379Y008889D02*
X023221Y008889D01*
X023221Y008927D02*
X023379Y008927D01*
X023379Y008965D02*
X023221Y008965D01*
X023221Y009003D02*
X023379Y009003D01*
X023379Y009041D02*
X023221Y009041D01*
X023221Y009079D02*
X023379Y009079D01*
X023536Y008547D02*
X023694Y008547D01*
X023536Y008547D02*
X023536Y009099D01*
X023694Y009099D01*
X023694Y008547D01*
X023694Y008585D02*
X023536Y008585D01*
X023536Y008623D02*
X023694Y008623D01*
X023694Y008661D02*
X023536Y008661D01*
X023536Y008699D02*
X023694Y008699D01*
X023694Y008737D02*
X023536Y008737D01*
X023536Y008775D02*
X023694Y008775D01*
X023694Y008813D02*
X023536Y008813D01*
X023536Y008851D02*
X023694Y008851D01*
X023694Y008889D02*
X023536Y008889D01*
X023536Y008927D02*
X023694Y008927D01*
X023694Y008965D02*
X023536Y008965D01*
X023536Y009003D02*
X023694Y009003D01*
X023694Y009041D02*
X023536Y009041D01*
X023536Y009079D02*
X023694Y009079D01*
X023851Y008547D02*
X024009Y008547D01*
X023851Y008547D02*
X023851Y009099D01*
X024009Y009099D01*
X024009Y008547D01*
X024009Y008585D02*
X023851Y008585D01*
X023851Y008623D02*
X024009Y008623D01*
X024009Y008661D02*
X023851Y008661D01*
X023851Y008699D02*
X024009Y008699D01*
X024009Y008737D02*
X023851Y008737D01*
X023851Y008775D02*
X024009Y008775D01*
X024009Y008813D02*
X023851Y008813D01*
X023851Y008851D02*
X024009Y008851D01*
X024009Y008889D02*
X023851Y008889D01*
X023851Y008927D02*
X024009Y008927D01*
X024009Y008965D02*
X023851Y008965D01*
X023851Y009003D02*
X024009Y009003D01*
X024009Y009041D02*
X023851Y009041D01*
X023851Y009079D02*
X024009Y009079D01*
X024363Y009452D02*
X024915Y009452D01*
X024363Y009452D02*
X024363Y009610D01*
X024915Y009610D01*
X024915Y009452D01*
X024915Y009490D02*
X024363Y009490D01*
X024363Y009528D02*
X024915Y009528D01*
X024915Y009566D02*
X024363Y009566D01*
X024363Y009604D02*
X024915Y009604D01*
X024915Y009767D02*
X024363Y009767D01*
X024363Y009925D01*
X024915Y009925D01*
X024915Y009767D01*
X024915Y009805D02*
X024363Y009805D01*
X024363Y009843D02*
X024915Y009843D01*
X024915Y009881D02*
X024363Y009881D01*
X024363Y009919D02*
X024915Y009919D01*
X024915Y010082D02*
X024363Y010082D01*
X024363Y010240D01*
X024915Y010240D01*
X024915Y010082D01*
X024915Y010120D02*
X024363Y010120D01*
X024363Y010158D02*
X024915Y010158D01*
X024915Y010196D02*
X024363Y010196D01*
X024363Y010234D02*
X024915Y010234D01*
X024915Y010397D02*
X024363Y010397D01*
X024363Y010555D01*
X024915Y010555D01*
X024915Y010397D01*
X024915Y010435D02*
X024363Y010435D01*
X024363Y010473D02*
X024915Y010473D01*
X024915Y010511D02*
X024363Y010511D01*
X024363Y010549D02*
X024915Y010549D01*
X024915Y010712D02*
X024363Y010712D01*
X024363Y010870D01*
X024915Y010870D01*
X024915Y010712D01*
X024915Y010750D02*
X024363Y010750D01*
X024363Y010788D02*
X024915Y010788D01*
X024915Y010826D02*
X024363Y010826D01*
X024363Y010864D02*
X024915Y010864D01*
X024915Y011027D02*
X024363Y011027D01*
X024363Y011185D01*
X024915Y011185D01*
X024915Y011027D01*
X024915Y011065D02*
X024363Y011065D01*
X024363Y011103D02*
X024915Y011103D01*
X024915Y011141D02*
X024363Y011141D01*
X024363Y011179D02*
X024915Y011179D01*
X024915Y011342D02*
X024363Y011342D01*
X024363Y011500D01*
X024915Y011500D01*
X024915Y011342D01*
X024915Y011380D02*
X024363Y011380D01*
X024363Y011418D02*
X024915Y011418D01*
X024915Y011456D02*
X024363Y011456D01*
X024363Y011494D02*
X024915Y011494D01*
X024915Y011657D02*
X024363Y011657D01*
X024363Y011815D01*
X024915Y011815D01*
X024915Y011657D01*
X024915Y011695D02*
X024363Y011695D01*
X024363Y011733D02*
X024915Y011733D01*
X024915Y011771D02*
X024363Y011771D01*
X024363Y011809D02*
X024915Y011809D01*
X024915Y011972D02*
X024363Y011972D01*
X024363Y012130D01*
X024915Y012130D01*
X024915Y011972D01*
X024915Y012010D02*
X024363Y012010D01*
X024363Y012048D02*
X024915Y012048D01*
X024915Y012086D02*
X024363Y012086D01*
X024363Y012124D02*
X024915Y012124D01*
X024915Y012287D02*
X024363Y012287D01*
X024363Y012445D01*
X024915Y012445D01*
X024915Y012287D01*
X024915Y012325D02*
X024363Y012325D01*
X024363Y012363D02*
X024915Y012363D01*
X024915Y012401D02*
X024363Y012401D01*
X024363Y012439D02*
X024915Y012439D01*
X024915Y012602D02*
X024363Y012602D01*
X024363Y012760D01*
X024915Y012760D01*
X024915Y012602D01*
X024915Y012640D02*
X024363Y012640D01*
X024363Y012678D02*
X024915Y012678D01*
X024915Y012716D02*
X024363Y012716D01*
X024363Y012754D02*
X024915Y012754D01*
X024009Y013114D02*
X023851Y013114D01*
X023851Y013666D01*
X024009Y013666D01*
X024009Y013114D01*
X024009Y013152D02*
X023851Y013152D01*
X023851Y013190D02*
X024009Y013190D01*
X024009Y013228D02*
X023851Y013228D01*
X023851Y013266D02*
X024009Y013266D01*
X024009Y013304D02*
X023851Y013304D01*
X023851Y013342D02*
X024009Y013342D01*
X024009Y013380D02*
X023851Y013380D01*
X023851Y013418D02*
X024009Y013418D01*
X024009Y013456D02*
X023851Y013456D01*
X023851Y013494D02*
X024009Y013494D01*
X024009Y013532D02*
X023851Y013532D01*
X023851Y013570D02*
X024009Y013570D01*
X024009Y013608D02*
X023851Y013608D01*
X023851Y013646D02*
X024009Y013646D01*
X023694Y013114D02*
X023536Y013114D01*
X023536Y013666D01*
X023694Y013666D01*
X023694Y013114D01*
X023694Y013152D02*
X023536Y013152D01*
X023536Y013190D02*
X023694Y013190D01*
X023694Y013228D02*
X023536Y013228D01*
X023536Y013266D02*
X023694Y013266D01*
X023694Y013304D02*
X023536Y013304D01*
X023536Y013342D02*
X023694Y013342D01*
X023694Y013380D02*
X023536Y013380D01*
X023536Y013418D02*
X023694Y013418D01*
X023694Y013456D02*
X023536Y013456D01*
X023536Y013494D02*
X023694Y013494D01*
X023694Y013532D02*
X023536Y013532D01*
X023536Y013570D02*
X023694Y013570D01*
X023694Y013608D02*
X023536Y013608D01*
X023536Y013646D02*
X023694Y013646D01*
X023379Y013114D02*
X023221Y013114D01*
X023221Y013666D01*
X023379Y013666D01*
X023379Y013114D01*
X023379Y013152D02*
X023221Y013152D01*
X023221Y013190D02*
X023379Y013190D01*
X023379Y013228D02*
X023221Y013228D01*
X023221Y013266D02*
X023379Y013266D01*
X023379Y013304D02*
X023221Y013304D01*
X023221Y013342D02*
X023379Y013342D01*
X023379Y013380D02*
X023221Y013380D01*
X023221Y013418D02*
X023379Y013418D01*
X023379Y013456D02*
X023221Y013456D01*
X023221Y013494D02*
X023379Y013494D01*
X023379Y013532D02*
X023221Y013532D01*
X023221Y013570D02*
X023379Y013570D01*
X023379Y013608D02*
X023221Y013608D01*
X023221Y013646D02*
X023379Y013646D01*
X023064Y013114D02*
X022906Y013114D01*
X022906Y013666D01*
X023064Y013666D01*
X023064Y013114D01*
X023064Y013152D02*
X022906Y013152D01*
X022906Y013190D02*
X023064Y013190D01*
X023064Y013228D02*
X022906Y013228D01*
X022906Y013266D02*
X023064Y013266D01*
X023064Y013304D02*
X022906Y013304D01*
X022906Y013342D02*
X023064Y013342D01*
X023064Y013380D02*
X022906Y013380D01*
X022906Y013418D02*
X023064Y013418D01*
X023064Y013456D02*
X022906Y013456D01*
X022906Y013494D02*
X023064Y013494D01*
X023064Y013532D02*
X022906Y013532D01*
X022906Y013570D02*
X023064Y013570D01*
X023064Y013608D02*
X022906Y013608D01*
X022906Y013646D02*
X023064Y013646D01*
X022749Y013114D02*
X022591Y013114D01*
X022591Y013666D01*
X022749Y013666D01*
X022749Y013114D01*
X022749Y013152D02*
X022591Y013152D01*
X022591Y013190D02*
X022749Y013190D01*
X022749Y013228D02*
X022591Y013228D01*
X022591Y013266D02*
X022749Y013266D01*
X022749Y013304D02*
X022591Y013304D01*
X022591Y013342D02*
X022749Y013342D01*
X022749Y013380D02*
X022591Y013380D01*
X022591Y013418D02*
X022749Y013418D01*
X022749Y013456D02*
X022591Y013456D01*
X022591Y013494D02*
X022749Y013494D01*
X022749Y013532D02*
X022591Y013532D01*
X022591Y013570D02*
X022749Y013570D01*
X022749Y013608D02*
X022591Y013608D01*
X022591Y013646D02*
X022749Y013646D01*
X022434Y013114D02*
X022276Y013114D01*
X022276Y013666D01*
X022434Y013666D01*
X022434Y013114D01*
X022434Y013152D02*
X022276Y013152D01*
X022276Y013190D02*
X022434Y013190D01*
X022434Y013228D02*
X022276Y013228D01*
X022276Y013266D02*
X022434Y013266D01*
X022434Y013304D02*
X022276Y013304D01*
X022276Y013342D02*
X022434Y013342D01*
X022434Y013380D02*
X022276Y013380D01*
X022276Y013418D02*
X022434Y013418D01*
X022434Y013456D02*
X022276Y013456D01*
X022276Y013494D02*
X022434Y013494D01*
X022434Y013532D02*
X022276Y013532D01*
X022276Y013570D02*
X022434Y013570D01*
X022434Y013608D02*
X022276Y013608D01*
X022276Y013646D02*
X022434Y013646D01*
X022119Y013114D02*
X021961Y013114D01*
X021961Y013666D01*
X022119Y013666D01*
X022119Y013114D01*
X022119Y013152D02*
X021961Y013152D01*
X021961Y013190D02*
X022119Y013190D01*
X022119Y013228D02*
X021961Y013228D01*
X021961Y013266D02*
X022119Y013266D01*
X022119Y013304D02*
X021961Y013304D01*
X021961Y013342D02*
X022119Y013342D01*
X022119Y013380D02*
X021961Y013380D01*
X021961Y013418D02*
X022119Y013418D01*
X022119Y013456D02*
X021961Y013456D01*
X021961Y013494D02*
X022119Y013494D01*
X022119Y013532D02*
X021961Y013532D01*
X021961Y013570D02*
X022119Y013570D01*
X022119Y013608D02*
X021961Y013608D01*
X021961Y013646D02*
X022119Y013646D01*
X021804Y013114D02*
X021646Y013114D01*
X021646Y013666D01*
X021804Y013666D01*
X021804Y013114D01*
X021804Y013152D02*
X021646Y013152D01*
X021646Y013190D02*
X021804Y013190D01*
X021804Y013228D02*
X021646Y013228D01*
X021646Y013266D02*
X021804Y013266D01*
X021804Y013304D02*
X021646Y013304D01*
X021646Y013342D02*
X021804Y013342D01*
X021804Y013380D02*
X021646Y013380D01*
X021646Y013418D02*
X021804Y013418D01*
X021804Y013456D02*
X021646Y013456D01*
X021646Y013494D02*
X021804Y013494D01*
X021804Y013532D02*
X021646Y013532D01*
X021646Y013570D02*
X021804Y013570D01*
X021804Y013608D02*
X021646Y013608D01*
X021646Y013646D02*
X021804Y013646D01*
X021489Y013114D02*
X021331Y013114D01*
X021331Y013666D01*
X021489Y013666D01*
X021489Y013114D01*
X021489Y013152D02*
X021331Y013152D01*
X021331Y013190D02*
X021489Y013190D01*
X021489Y013228D02*
X021331Y013228D01*
X021331Y013266D02*
X021489Y013266D01*
X021489Y013304D02*
X021331Y013304D01*
X021331Y013342D02*
X021489Y013342D01*
X021489Y013380D02*
X021331Y013380D01*
X021331Y013418D02*
X021489Y013418D01*
X021489Y013456D02*
X021331Y013456D01*
X021331Y013494D02*
X021489Y013494D01*
X021489Y013532D02*
X021331Y013532D01*
X021331Y013570D02*
X021489Y013570D01*
X021489Y013608D02*
X021331Y013608D01*
X021331Y013646D02*
X021489Y013646D01*
X021175Y013114D02*
X021017Y013114D01*
X021017Y013666D01*
X021175Y013666D01*
X021175Y013114D01*
X021175Y013152D02*
X021017Y013152D01*
X021017Y013190D02*
X021175Y013190D01*
X021175Y013228D02*
X021017Y013228D01*
X021017Y013266D02*
X021175Y013266D01*
X021175Y013304D02*
X021017Y013304D01*
X021017Y013342D02*
X021175Y013342D01*
X021175Y013380D02*
X021017Y013380D01*
X021017Y013418D02*
X021175Y013418D01*
X021175Y013456D02*
X021017Y013456D01*
X021017Y013494D02*
X021175Y013494D01*
X021175Y013532D02*
X021017Y013532D01*
X021017Y013570D02*
X021175Y013570D01*
X021175Y013608D02*
X021017Y013608D01*
X021017Y013646D02*
X021175Y013646D01*
X020860Y013114D02*
X020702Y013114D01*
X020702Y013666D01*
X020860Y013666D01*
X020860Y013114D01*
X020860Y013152D02*
X020702Y013152D01*
X020702Y013190D02*
X020860Y013190D01*
X020860Y013228D02*
X020702Y013228D01*
X020702Y013266D02*
X020860Y013266D01*
X020860Y013304D02*
X020702Y013304D01*
X020702Y013342D02*
X020860Y013342D01*
X020860Y013380D02*
X020702Y013380D01*
X020702Y013418D02*
X020860Y013418D01*
X020860Y013456D02*
X020702Y013456D01*
X020702Y013494D02*
X020860Y013494D01*
X020860Y013532D02*
X020702Y013532D01*
X020702Y013570D02*
X020860Y013570D01*
X020860Y013608D02*
X020702Y013608D01*
X020702Y013646D02*
X020860Y013646D01*
X020348Y012602D02*
X019796Y012602D01*
X019796Y012760D01*
X020348Y012760D01*
X020348Y012602D01*
X020348Y012640D02*
X019796Y012640D01*
X019796Y012678D02*
X020348Y012678D01*
X020348Y012716D02*
X019796Y012716D01*
X019796Y012754D02*
X020348Y012754D01*
X020348Y012287D02*
X019796Y012287D01*
X019796Y012445D01*
X020348Y012445D01*
X020348Y012287D01*
X020348Y012325D02*
X019796Y012325D01*
X019796Y012363D02*
X020348Y012363D01*
X020348Y012401D02*
X019796Y012401D01*
X019796Y012439D02*
X020348Y012439D01*
X020348Y011972D02*
X019796Y011972D01*
X019796Y012130D01*
X020348Y012130D01*
X020348Y011972D01*
X020348Y012010D02*
X019796Y012010D01*
X019796Y012048D02*
X020348Y012048D01*
X020348Y012086D02*
X019796Y012086D01*
X019796Y012124D02*
X020348Y012124D01*
X020348Y011657D02*
X019796Y011657D01*
X019796Y011815D01*
X020348Y011815D01*
X020348Y011657D01*
X020348Y011695D02*
X019796Y011695D01*
X019796Y011733D02*
X020348Y011733D01*
X020348Y011771D02*
X019796Y011771D01*
X019796Y011809D02*
X020348Y011809D01*
X020348Y011342D02*
X019796Y011342D01*
X019796Y011500D01*
X020348Y011500D01*
X020348Y011342D01*
X020348Y011380D02*
X019796Y011380D01*
X019796Y011418D02*
X020348Y011418D01*
X020348Y011456D02*
X019796Y011456D01*
X019796Y011494D02*
X020348Y011494D01*
X020348Y011027D02*
X019796Y011027D01*
X019796Y011185D01*
X020348Y011185D01*
X020348Y011027D01*
X020348Y011065D02*
X019796Y011065D01*
X019796Y011103D02*
X020348Y011103D01*
X020348Y011141D02*
X019796Y011141D01*
X019796Y011179D02*
X020348Y011179D01*
X020348Y010712D02*
X019796Y010712D01*
X019796Y010870D01*
X020348Y010870D01*
X020348Y010712D01*
X020348Y010750D02*
X019796Y010750D01*
X019796Y010788D02*
X020348Y010788D01*
X020348Y010826D02*
X019796Y010826D01*
X019796Y010864D02*
X020348Y010864D01*
X020348Y010397D02*
X019796Y010397D01*
X019796Y010555D01*
X020348Y010555D01*
X020348Y010397D01*
X020348Y010435D02*
X019796Y010435D01*
X019796Y010473D02*
X020348Y010473D01*
X020348Y010511D02*
X019796Y010511D01*
X019796Y010549D02*
X020348Y010549D01*
X020348Y010082D02*
X019796Y010082D01*
X019796Y010240D01*
X020348Y010240D01*
X020348Y010082D01*
X020348Y010120D02*
X019796Y010120D01*
X019796Y010158D02*
X020348Y010158D01*
X020348Y010196D02*
X019796Y010196D01*
X019796Y010234D02*
X020348Y010234D01*
X020348Y009767D02*
X019796Y009767D01*
X019796Y009925D01*
X020348Y009925D01*
X020348Y009767D01*
X020348Y009805D02*
X019796Y009805D01*
X019796Y009843D02*
X020348Y009843D01*
X020348Y009881D02*
X019796Y009881D01*
X019796Y009919D02*
X020348Y009919D01*
X020348Y009452D02*
X019796Y009452D01*
X019796Y009610D01*
X020348Y009610D01*
X020348Y009452D01*
X020348Y009490D02*
X019796Y009490D01*
X019796Y009528D02*
X020348Y009528D01*
X020348Y009566D02*
X019796Y009566D01*
X019796Y009604D02*
X020348Y009604D01*
X025773Y009778D02*
X026915Y009778D01*
X026915Y009422D01*
X025773Y009422D01*
X025773Y009778D01*
X025773Y009460D02*
X026915Y009460D01*
X026915Y009498D02*
X025773Y009498D01*
X025773Y009536D02*
X026915Y009536D01*
X026915Y009574D02*
X025773Y009574D01*
X025773Y009612D02*
X026915Y009612D01*
X026915Y009650D02*
X025773Y009650D01*
X025773Y009688D02*
X026915Y009688D01*
X026915Y009726D02*
X025773Y009726D01*
X025773Y009764D02*
X026915Y009764D01*
X026915Y008778D02*
X025773Y008778D01*
X026915Y008778D02*
X026915Y008422D01*
X025773Y008422D01*
X025773Y008778D01*
X025773Y008460D02*
X026915Y008460D01*
X026915Y008498D02*
X025773Y008498D01*
X025773Y008536D02*
X026915Y008536D01*
X026915Y008574D02*
X025773Y008574D01*
X025773Y008612D02*
X026915Y008612D01*
X026915Y008650D02*
X025773Y008650D01*
X025773Y008688D02*
X026915Y008688D01*
X026915Y008726D02*
X025773Y008726D01*
X025773Y008764D02*
X026915Y008764D01*
X026915Y007778D02*
X025773Y007778D01*
X026915Y007778D02*
X026915Y007422D01*
X025773Y007422D01*
X025773Y007778D01*
X025773Y007460D02*
X026915Y007460D01*
X026915Y007498D02*
X025773Y007498D01*
X025773Y007536D02*
X026915Y007536D01*
X026915Y007574D02*
X025773Y007574D01*
X025773Y007612D02*
X026915Y007612D01*
X026915Y007650D02*
X025773Y007650D01*
X025773Y007688D02*
X026915Y007688D01*
X026915Y007726D02*
X025773Y007726D01*
X025773Y007764D02*
X026915Y007764D01*
X026915Y006778D02*
X025773Y006778D01*
X026915Y006778D02*
X026915Y006422D01*
X025773Y006422D01*
X025773Y006778D01*
X025773Y006460D02*
X026915Y006460D01*
X026915Y006498D02*
X025773Y006498D01*
X025773Y006536D02*
X026915Y006536D01*
X026915Y006574D02*
X025773Y006574D01*
X025773Y006612D02*
X026915Y006612D01*
X026915Y006650D02*
X025773Y006650D01*
X025773Y006688D02*
X026915Y006688D01*
X026915Y006726D02*
X025773Y006726D01*
X025773Y006764D02*
X026915Y006764D01*
X026915Y005778D02*
X025773Y005778D01*
X026915Y005778D02*
X026915Y005422D01*
X025773Y005422D01*
X025773Y005778D01*
X025773Y005460D02*
X026915Y005460D01*
X026915Y005498D02*
X025773Y005498D01*
X025773Y005536D02*
X026915Y005536D01*
X026915Y005574D02*
X025773Y005574D01*
X025773Y005612D02*
X026915Y005612D01*
X026915Y005650D02*
X025773Y005650D01*
X025773Y005688D02*
X026915Y005688D01*
X026915Y005726D02*
X025773Y005726D01*
X025773Y005764D02*
X026915Y005764D01*
X026915Y004778D02*
X025773Y004778D01*
X026915Y004778D02*
X026915Y004422D01*
X025773Y004422D01*
X025773Y004778D01*
X025773Y004460D02*
X026915Y004460D01*
X026915Y004498D02*
X025773Y004498D01*
X025773Y004536D02*
X026915Y004536D01*
X026915Y004574D02*
X025773Y004574D01*
X025773Y004612D02*
X026915Y004612D01*
X026915Y004650D02*
X025773Y004650D01*
X025773Y004688D02*
X026915Y004688D01*
X026915Y004726D02*
X025773Y004726D01*
X025773Y004764D02*
X026915Y004764D01*
X026189Y013641D02*
X026189Y013997D01*
X026937Y013997D01*
X026937Y013641D01*
X026189Y013641D01*
X026189Y013679D02*
X026937Y013679D01*
X026937Y013717D02*
X026189Y013717D01*
X026189Y013755D02*
X026937Y013755D01*
X026937Y013793D02*
X026189Y013793D01*
X026189Y013831D02*
X026937Y013831D01*
X026937Y013869D02*
X026189Y013869D01*
X026189Y013907D02*
X026937Y013907D01*
X026937Y013945D02*
X026189Y013945D01*
X026189Y013983D02*
X026937Y013983D01*
X002670Y014578D02*
X002670Y014934D01*
X004442Y014934D01*
X004442Y014578D01*
X002670Y014578D01*
X002670Y014616D02*
X004442Y014616D01*
X004442Y014654D02*
X002670Y014654D01*
X002670Y014692D02*
X004442Y014692D01*
X004442Y014730D02*
X002670Y014730D01*
X002670Y014768D02*
X004442Y014768D01*
X004442Y014806D02*
X002670Y014806D01*
X002670Y014844D02*
X004442Y014844D01*
X004442Y014882D02*
X002670Y014882D01*
X002670Y014920D02*
X004442Y014920D01*
X002670Y015366D02*
X002670Y015722D01*
X004442Y015722D01*
X004442Y015366D01*
X002670Y015366D01*
X002670Y015404D02*
X004442Y015404D01*
X004442Y015442D02*
X002670Y015442D01*
X002670Y015480D02*
X004442Y015480D01*
X004442Y015518D02*
X002670Y015518D01*
X002670Y015556D02*
X004442Y015556D01*
X004442Y015594D02*
X002670Y015594D01*
X002670Y015632D02*
X004442Y015632D01*
X004442Y015670D02*
X002670Y015670D01*
X002670Y015708D02*
X004442Y015708D01*
D13*
X015255Y015444D03*
D14*
X014255Y015444D03*
X014255Y014444D03*
X015255Y014444D03*
X015255Y013444D03*
X014255Y013444D03*
D15*
X017071Y013020D02*
X017639Y013020D01*
X017071Y013020D02*
X017071Y013666D01*
X017639Y013666D01*
X017639Y013020D01*
X017639Y013082D02*
X017071Y013082D01*
X017071Y013144D02*
X017639Y013144D01*
X017639Y013206D02*
X017071Y013206D01*
X017071Y013268D02*
X017639Y013268D01*
X017639Y013330D02*
X017071Y013330D01*
X017071Y013392D02*
X017639Y013392D01*
X017639Y013454D02*
X017071Y013454D01*
X017071Y013516D02*
X017639Y013516D01*
X017639Y013578D02*
X017071Y013578D01*
X017071Y013640D02*
X017639Y013640D01*
X018174Y013020D02*
X018742Y013020D01*
X018174Y013020D02*
X018174Y013666D01*
X018742Y013666D01*
X018742Y013020D01*
X018742Y013082D02*
X018174Y013082D01*
X018174Y013144D02*
X018742Y013144D01*
X018742Y013206D02*
X018174Y013206D01*
X018174Y013268D02*
X018742Y013268D01*
X018742Y013330D02*
X018174Y013330D01*
X018174Y013392D02*
X018742Y013392D01*
X018742Y013454D02*
X018174Y013454D01*
X018174Y013516D02*
X018742Y013516D01*
X018742Y013578D02*
X018174Y013578D01*
X018174Y013640D02*
X018742Y013640D01*
X018748Y012673D02*
X018180Y012673D01*
X018748Y012673D02*
X018748Y012027D01*
X018180Y012027D01*
X018180Y012673D01*
X018180Y012089D02*
X018748Y012089D01*
X018748Y012151D02*
X018180Y012151D01*
X018180Y012213D02*
X018748Y012213D01*
X018748Y012275D02*
X018180Y012275D01*
X018180Y012337D02*
X018748Y012337D01*
X018748Y012399D02*
X018180Y012399D01*
X018180Y012461D02*
X018748Y012461D01*
X018748Y012523D02*
X018180Y012523D01*
X018180Y012585D02*
X018748Y012585D01*
X018748Y012647D02*
X018180Y012647D01*
X017646Y012673D02*
X017078Y012673D01*
X017646Y012673D02*
X017646Y012027D01*
X017078Y012027D01*
X017078Y012673D01*
X017078Y012089D02*
X017646Y012089D01*
X017646Y012151D02*
X017078Y012151D01*
X017078Y012213D02*
X017646Y012213D01*
X017646Y012275D02*
X017078Y012275D01*
X017078Y012337D02*
X017646Y012337D01*
X017646Y012399D02*
X017078Y012399D01*
X017078Y012461D02*
X017646Y012461D01*
X017646Y012523D02*
X017078Y012523D01*
X017078Y012585D02*
X017646Y012585D01*
X017646Y012647D02*
X017078Y012647D01*
X017078Y009173D02*
X017646Y009173D01*
X017646Y008527D01*
X017078Y008527D01*
X017078Y009173D01*
X017078Y008589D02*
X017646Y008589D01*
X017646Y008651D02*
X017078Y008651D01*
X017078Y008713D02*
X017646Y008713D01*
X017646Y008775D02*
X017078Y008775D01*
X017078Y008837D02*
X017646Y008837D01*
X017646Y008899D02*
X017078Y008899D01*
X017078Y008961D02*
X017646Y008961D01*
X017646Y009023D02*
X017078Y009023D01*
X017078Y009085D02*
X017646Y009085D01*
X017646Y009147D02*
X017078Y009147D01*
X018180Y009173D02*
X018748Y009173D01*
X018748Y008527D01*
X018180Y008527D01*
X018180Y009173D01*
X018180Y008589D02*
X018748Y008589D01*
X018748Y008651D02*
X018180Y008651D01*
X018180Y008713D02*
X018748Y008713D01*
X018748Y008775D02*
X018180Y008775D01*
X018180Y008837D02*
X018748Y008837D01*
X018748Y008899D02*
X018180Y008899D01*
X018180Y008961D02*
X018748Y008961D01*
X018748Y009023D02*
X018180Y009023D01*
X018180Y009085D02*
X018748Y009085D01*
X018748Y009147D02*
X018180Y009147D01*
X022478Y007127D02*
X023046Y007127D01*
X022478Y007127D02*
X022478Y007773D01*
X023046Y007773D01*
X023046Y007127D01*
X023046Y007189D02*
X022478Y007189D01*
X022478Y007251D02*
X023046Y007251D01*
X023046Y007313D02*
X022478Y007313D01*
X022478Y007375D02*
X023046Y007375D01*
X023046Y007437D02*
X022478Y007437D01*
X022478Y007499D02*
X023046Y007499D01*
X023046Y007561D02*
X022478Y007561D01*
X022478Y007623D02*
X023046Y007623D01*
X023046Y007685D02*
X022478Y007685D01*
X022478Y007747D02*
X023046Y007747D01*
X023580Y007127D02*
X024148Y007127D01*
X023580Y007127D02*
X023580Y007773D01*
X024148Y007773D01*
X024148Y007127D01*
X024148Y007189D02*
X023580Y007189D01*
X023580Y007251D02*
X024148Y007251D01*
X024148Y007313D02*
X023580Y007313D01*
X023580Y007375D02*
X024148Y007375D01*
X024148Y007437D02*
X023580Y007437D01*
X023580Y007499D02*
X024148Y007499D01*
X024148Y007561D02*
X023580Y007561D01*
X023580Y007623D02*
X024148Y007623D01*
X024148Y007685D02*
X023580Y007685D01*
X023580Y007747D02*
X024148Y007747D01*
X006241Y013527D02*
X004965Y013527D01*
X004965Y014095D01*
X006241Y014095D01*
X006241Y013527D01*
X006241Y013589D02*
X004965Y013589D01*
X004965Y013651D02*
X006241Y013651D01*
X006241Y013713D02*
X004965Y013713D01*
X004965Y013775D02*
X006241Y013775D01*
X006241Y013837D02*
X004965Y013837D01*
X004965Y013899D02*
X006241Y013899D01*
X006241Y013961D02*
X004965Y013961D01*
X004965Y014023D02*
X006241Y014023D01*
X006241Y014085D02*
X004965Y014085D01*
X004965Y016205D02*
X006241Y016205D01*
X004965Y016205D02*
X004965Y016773D01*
X006241Y016773D01*
X006241Y016205D01*
X006241Y016267D02*
X004965Y016267D01*
X004965Y016329D02*
X006241Y016329D01*
X006241Y016391D02*
X004965Y016391D01*
X004965Y016453D02*
X006241Y016453D01*
X006241Y016515D02*
X004965Y016515D01*
X004965Y016577D02*
X006241Y016577D01*
X006241Y016639D02*
X004965Y016639D01*
X004965Y016701D02*
X006241Y016701D01*
X006241Y016763D02*
X004965Y016763D01*
D16*
X001082Y016852D02*
X001082Y015948D01*
X001082Y016852D02*
X002044Y016852D01*
X002044Y015948D01*
X001082Y015948D01*
X001082Y016047D02*
X002044Y016047D01*
X002044Y016146D02*
X001082Y016146D01*
X001082Y016245D02*
X002044Y016245D01*
X002044Y016344D02*
X001082Y016344D01*
X001082Y016443D02*
X002044Y016443D01*
X002044Y016542D02*
X001082Y016542D01*
X001082Y016641D02*
X002044Y016641D01*
X002044Y016740D02*
X001082Y016740D01*
X001082Y016839D02*
X002044Y016839D01*
X001082Y014352D02*
X001082Y013448D01*
X001082Y014352D02*
X002044Y014352D01*
X002044Y013448D01*
X001082Y013448D01*
X001082Y013547D02*
X002044Y013547D01*
X002044Y013646D02*
X001082Y013646D01*
X001082Y013745D02*
X002044Y013745D01*
X002044Y013844D02*
X001082Y013844D01*
X001082Y013943D02*
X002044Y013943D01*
X002044Y014042D02*
X001082Y014042D01*
X001082Y014141D02*
X002044Y014141D01*
X002044Y014240D02*
X001082Y014240D01*
X001082Y014339D02*
X002044Y014339D01*
D17*
X025994Y011376D02*
X025994Y010986D01*
X025994Y011376D02*
X027132Y011376D01*
X027132Y010986D01*
X025994Y010986D01*
X025994Y011028D02*
X027132Y011028D01*
X027132Y011070D02*
X025994Y011070D01*
X025994Y011112D02*
X027132Y011112D01*
X027132Y011154D02*
X025994Y011154D01*
X025994Y011196D02*
X027132Y011196D01*
X027132Y011238D02*
X025994Y011238D01*
X025994Y011280D02*
X027132Y011280D01*
X027132Y011322D02*
X025994Y011322D01*
X025994Y011364D02*
X027132Y011364D01*
D18*
X018746Y011033D02*
X018746Y011741D01*
X018746Y011033D02*
X017880Y011033D01*
X017880Y011741D01*
X018746Y011741D01*
X018746Y011111D02*
X017880Y011111D01*
X017880Y011189D02*
X018746Y011189D01*
X018746Y011267D02*
X017880Y011267D01*
X017880Y011345D02*
X018746Y011345D01*
X018746Y011423D02*
X017880Y011423D01*
X017880Y011501D02*
X018746Y011501D01*
X018746Y011579D02*
X017880Y011579D01*
X017880Y011657D02*
X018746Y011657D01*
X018746Y011735D02*
X017880Y011735D01*
X018746Y010167D02*
X018746Y009459D01*
X017880Y009459D01*
X017880Y010167D01*
X018746Y010167D01*
X018746Y009537D02*
X017880Y009537D01*
X017880Y009615D02*
X018746Y009615D01*
X018746Y009693D02*
X017880Y009693D01*
X017880Y009771D02*
X018746Y009771D01*
X018746Y009849D02*
X017880Y009849D01*
X017880Y009927D02*
X018746Y009927D01*
X018746Y010005D02*
X017880Y010005D01*
X017880Y010083D02*
X018746Y010083D01*
X018746Y010161D02*
X017880Y010161D01*
D19*
X029408Y013600D02*
X029717Y013600D01*
X029717Y014600D02*
X029408Y014600D01*
D20*
X028563Y016170D02*
X028563Y016530D01*
X027563Y016530D02*
X027563Y016170D01*
X026563Y016170D02*
X026563Y016530D01*
X025563Y016530D02*
X025563Y016170D01*
X024563Y016170D02*
X024563Y016530D01*
X023563Y016530D02*
X023563Y016170D01*
X022563Y016170D02*
X022563Y016530D01*
X021563Y016530D02*
X021563Y016170D01*
X029383Y012350D02*
X029743Y012350D01*
X029743Y011350D02*
X029383Y011350D01*
X028563Y001530D02*
X028563Y001170D01*
X027563Y001170D02*
X027563Y001530D01*
X026563Y001530D02*
X026563Y001170D01*
X025563Y001170D02*
X025563Y001530D01*
X024563Y001530D02*
X024563Y001170D01*
X023563Y001170D02*
X023563Y001530D01*
X022563Y001530D02*
X022563Y001170D01*
X021563Y001170D02*
X021563Y001530D01*
D21*
X021563Y001350D02*
X021563Y005850D01*
X021096Y006317D01*
X021096Y008823D01*
X021410Y008823D02*
X021410Y006502D01*
X022563Y005350D01*
X022563Y001350D01*
X023013Y001381D02*
X023113Y001381D01*
X023113Y001479D02*
X023013Y001479D01*
X023013Y001578D02*
X023113Y001578D01*
X023113Y001620D02*
X023113Y001080D01*
X023181Y000915D01*
X023308Y000789D01*
X023473Y000720D01*
X023652Y000720D01*
X023818Y000789D01*
X023944Y000915D01*
X024013Y001080D01*
X024013Y001620D01*
X023944Y001785D01*
X023818Y001911D01*
X023763Y001934D01*
X023763Y004933D01*
X023646Y005050D01*
X021925Y006770D01*
X021925Y006955D01*
X024363Y004517D01*
X024363Y001934D01*
X024308Y001911D01*
X024181Y001785D01*
X024113Y001620D01*
X024113Y001080D01*
X024181Y000915D01*
X024308Y000789D01*
X024473Y000720D01*
X024652Y000720D01*
X024818Y000789D01*
X024944Y000915D01*
X025013Y001080D01*
X025013Y001620D01*
X024944Y001785D01*
X024818Y001911D01*
X024763Y001934D01*
X024763Y002867D01*
X025363Y002267D01*
X024763Y002267D01*
X024763Y002169D02*
X025363Y002169D01*
X025363Y002267D02*
X025363Y001934D01*
X025308Y001911D01*
X025181Y001785D01*
X025113Y001620D01*
X025113Y001080D01*
X025181Y000915D01*
X025308Y000789D01*
X025473Y000720D01*
X025652Y000720D01*
X025818Y000789D01*
X025944Y000915D01*
X026013Y001080D01*
X026013Y001620D01*
X025944Y001785D01*
X025818Y001911D01*
X025763Y001934D01*
X025763Y002433D01*
X025646Y002550D01*
X025013Y003183D01*
X025013Y003416D01*
X026363Y002019D01*
X026363Y001934D01*
X026308Y001911D01*
X026181Y001785D01*
X026113Y001620D01*
X026113Y001080D01*
X026181Y000915D01*
X026308Y000789D01*
X026473Y000720D01*
X026652Y000720D01*
X026818Y000789D01*
X026944Y000915D01*
X027013Y001080D01*
X027013Y001620D01*
X026944Y001785D01*
X026818Y001911D01*
X026763Y001934D01*
X026763Y002098D01*
X026764Y002179D01*
X026763Y002181D01*
X026763Y002183D01*
X026705Y002240D01*
X025313Y003681D01*
X025313Y004832D01*
X025359Y004832D01*
X025604Y004538D01*
X025604Y004353D01*
X025703Y004253D01*
X026985Y004253D01*
X027085Y004353D01*
X027085Y004847D01*
X026985Y004947D01*
X025784Y004947D01*
X025665Y005089D01*
X025681Y005127D01*
X025681Y005273D01*
X025679Y005277D01*
X025703Y005253D01*
X026985Y005253D01*
X027085Y005353D01*
X027085Y005847D01*
X026985Y005947D01*
X025703Y005947D01*
X025681Y005924D01*
X025625Y006059D01*
X025521Y006162D01*
X025386Y006218D01*
X025240Y006218D01*
X025104Y006162D01*
X025063Y006121D01*
X025063Y006579D01*
X025104Y006538D01*
X025240Y006482D01*
X025386Y006482D01*
X025504Y006531D01*
X025604Y006481D01*
X025604Y006353D01*
X025703Y006253D01*
X026985Y006253D01*
X027085Y006353D01*
X027085Y006847D01*
X026985Y006947D01*
X025703Y006947D01*
X025681Y006924D01*
X025625Y007059D01*
X025521Y007162D01*
X025386Y007218D01*
X025240Y007218D01*
X025104Y007162D01*
X025063Y007121D01*
X025063Y008767D01*
X025613Y009317D01*
X025613Y009929D01*
X025581Y009961D01*
X027419Y009961D01*
X027863Y009517D01*
X027863Y001933D01*
X027830Y001900D01*
X027818Y001911D01*
X027652Y001980D01*
X027473Y001980D01*
X027308Y001911D01*
X027181Y001785D01*
X027113Y001620D01*
X027113Y001080D01*
X027181Y000915D01*
X027308Y000789D01*
X027473Y000720D01*
X027652Y000720D01*
X027818Y000789D01*
X027944Y000915D01*
X028013Y001080D01*
X028013Y001517D01*
X028113Y001617D01*
X028113Y001080D01*
X028181Y000915D01*
X028308Y000789D01*
X028473Y000720D01*
X028652Y000720D01*
X028818Y000789D01*
X028944Y000915D01*
X029013Y001080D01*
X029013Y009433D01*
X027769Y010676D01*
X025084Y010676D01*
X025084Y010940D01*
X024985Y011040D01*
X024293Y011040D01*
X024245Y010991D01*
X022763Y010991D01*
X022763Y011231D01*
X022870Y011338D01*
X022870Y012944D01*
X023134Y012944D01*
X023143Y012953D01*
X023151Y012944D01*
X023449Y012944D01*
X023458Y012953D01*
X023466Y012944D01*
X023764Y012944D01*
X023773Y012953D01*
X023781Y012944D01*
X024079Y012944D01*
X024179Y013044D01*
X024179Y013736D01*
X024130Y013784D01*
X024130Y015634D01*
X024296Y015800D01*
X024308Y015789D01*
X024473Y015720D01*
X024650Y015720D01*
X024439Y015509D01*
X024439Y012930D01*
X024293Y012930D01*
X024194Y012830D01*
X024194Y012532D01*
X024202Y012524D01*
X024194Y012515D01*
X024194Y012217D01*
X024202Y012209D01*
X024194Y012200D01*
X024194Y011902D01*
X024202Y011894D01*
X024194Y011885D01*
X024194Y011587D01*
X024202Y011579D01*
X024194Y011570D01*
X024194Y011272D01*
X024293Y011173D01*
X024985Y011173D01*
X025084Y011272D01*
X025084Y011536D01*
X025896Y011536D01*
X026013Y011653D01*
X026013Y014017D01*
X026019Y014023D01*
X026019Y013571D01*
X026119Y013472D01*
X027007Y013472D01*
X027089Y013554D01*
X027104Y013538D01*
X027240Y013482D01*
X027386Y013482D01*
X027521Y013538D01*
X027625Y013641D01*
X027681Y013777D01*
X027681Y013923D01*
X027625Y014059D01*
X027521Y014162D01*
X027386Y014218D01*
X027240Y014218D01*
X027104Y014162D01*
X027058Y014115D01*
X027007Y014166D01*
X026161Y014166D01*
X027396Y015400D01*
X028146Y015400D01*
X028468Y015722D01*
X028473Y015720D01*
X028652Y015720D01*
X028818Y015789D01*
X028944Y015915D01*
X029013Y016080D01*
X029013Y016620D01*
X028944Y016785D01*
X028818Y016911D01*
X028652Y016980D01*
X028473Y016980D01*
X028308Y016911D01*
X028181Y016785D01*
X028113Y016620D01*
X028113Y016080D01*
X028156Y015976D01*
X027980Y015800D01*
X027829Y015800D01*
X027944Y015915D01*
X028013Y016080D01*
X028013Y016620D01*
X027944Y016785D01*
X027818Y016911D01*
X027652Y016980D01*
X027473Y016980D01*
X027308Y016911D01*
X027181Y016785D01*
X027113Y016620D01*
X027113Y016183D01*
X027013Y016083D01*
X027013Y016620D01*
X026944Y016785D01*
X026818Y016911D01*
X026652Y016980D01*
X026473Y016980D01*
X026308Y016911D01*
X026181Y016785D01*
X026113Y016620D01*
X026113Y016183D01*
X026013Y016083D01*
X026013Y016620D01*
X025944Y016785D01*
X025818Y016911D01*
X025652Y016980D01*
X025473Y016980D01*
X025308Y016911D01*
X025181Y016785D01*
X025113Y016620D01*
X025113Y016183D01*
X025013Y016083D01*
X025013Y016620D01*
X024944Y016785D01*
X024818Y016911D01*
X024652Y016980D01*
X024473Y016980D01*
X024308Y016911D01*
X024181Y016785D01*
X024113Y016620D01*
X024113Y016183D01*
X024013Y016083D01*
X024013Y016620D01*
X023944Y016785D01*
X023818Y016911D01*
X023652Y016980D01*
X023473Y016980D01*
X023308Y016911D01*
X023181Y016785D01*
X023113Y016620D01*
X023113Y016083D01*
X023013Y016183D01*
X023013Y016620D01*
X022944Y016785D01*
X022818Y016911D01*
X022652Y016980D01*
X022473Y016980D01*
X022308Y016911D01*
X022181Y016785D01*
X022113Y016620D01*
X022113Y016083D01*
X022013Y016183D01*
X022013Y016620D01*
X021944Y016785D01*
X021818Y016911D01*
X021652Y016980D01*
X021473Y016980D01*
X021308Y016911D01*
X021181Y016785D01*
X021113Y016620D01*
X021113Y016080D01*
X021181Y015915D01*
X021308Y015789D01*
X021473Y015720D01*
X021652Y015720D01*
X021818Y015789D01*
X021830Y015800D01*
X022785Y014845D01*
X022785Y013835D01*
X022521Y013835D01*
X022422Y013736D01*
X022422Y013044D01*
X022470Y012995D01*
X022470Y011621D01*
X020517Y011621D01*
X020517Y011885D01*
X020509Y011894D01*
X020517Y011902D01*
X020517Y012200D01*
X020509Y012209D01*
X020517Y012217D01*
X020517Y012515D01*
X020509Y012524D01*
X020517Y012532D01*
X020517Y012830D01*
X020418Y012930D01*
X020272Y012930D01*
X020272Y016083D01*
X020155Y016200D01*
X013630Y016200D01*
X013544Y016114D01*
X013525Y016159D01*
X013421Y016262D01*
X013313Y016307D01*
X013313Y017350D01*
X030563Y017350D01*
X030563Y000350D01*
X013313Y000350D01*
X013313Y002629D01*
X013467Y002693D01*
X013654Y002880D01*
X013755Y003124D01*
X013755Y003389D01*
X013654Y003633D01*
X013467Y003820D01*
X013313Y003884D01*
X013313Y011317D01*
X013746Y011750D01*
X015592Y011750D01*
X015501Y011659D01*
X015445Y011523D01*
X015445Y011415D01*
X015213Y011183D01*
X015213Y007417D01*
X015330Y007300D01*
X020696Y007300D01*
X020813Y007417D01*
X020896Y007500D01*
X020896Y006234D01*
X021363Y005767D01*
X021363Y001934D01*
X021308Y001911D01*
X021181Y001785D01*
X021113Y001620D01*
X021113Y001080D01*
X021181Y000915D01*
X021308Y000789D01*
X021473Y000720D01*
X021652Y000720D01*
X021818Y000789D01*
X021944Y000915D01*
X022013Y001080D01*
X022013Y001620D01*
X021944Y001785D01*
X021818Y001911D01*
X021763Y001934D01*
X021763Y005867D01*
X022363Y005267D01*
X022363Y001934D01*
X022308Y001911D01*
X022181Y001785D01*
X022113Y001620D01*
X022113Y001080D01*
X022181Y000915D01*
X022308Y000789D01*
X022473Y000720D01*
X022652Y000720D01*
X022818Y000789D01*
X022944Y000915D01*
X023013Y001080D01*
X023013Y001620D01*
X022944Y001785D01*
X022818Y001911D01*
X022763Y001934D01*
X022763Y005367D01*
X023363Y004767D01*
X023363Y001934D01*
X023308Y001911D01*
X023181Y001785D01*
X023113Y001620D01*
X023136Y001676D02*
X022989Y001676D01*
X022949Y001775D02*
X023177Y001775D01*
X023269Y001873D02*
X022856Y001873D01*
X022763Y001972D02*
X023363Y001972D01*
X023363Y002070D02*
X022763Y002070D01*
X022763Y002169D02*
X023363Y002169D01*
X023363Y002267D02*
X022763Y002267D01*
X022763Y002366D02*
X023363Y002366D01*
X023363Y002464D02*
X022763Y002464D01*
X022763Y002563D02*
X023363Y002563D01*
X023363Y002661D02*
X022763Y002661D01*
X022763Y002760D02*
X023363Y002760D01*
X023363Y002858D02*
X022763Y002858D01*
X022763Y002957D02*
X023363Y002957D01*
X023363Y003055D02*
X022763Y003055D01*
X022763Y003154D02*
X023363Y003154D01*
X023363Y003252D02*
X022763Y003252D01*
X022763Y003351D02*
X023363Y003351D01*
X023363Y003449D02*
X022763Y003449D01*
X022763Y003548D02*
X023363Y003548D01*
X023363Y003646D02*
X022763Y003646D01*
X022763Y003745D02*
X023363Y003745D01*
X023363Y003843D02*
X022763Y003843D01*
X022763Y003942D02*
X023363Y003942D01*
X023363Y004040D02*
X022763Y004040D01*
X022763Y004139D02*
X023363Y004139D01*
X023363Y004237D02*
X022763Y004237D01*
X022763Y004336D02*
X023363Y004336D01*
X023363Y004434D02*
X022763Y004434D01*
X022763Y004533D02*
X023363Y004533D01*
X023363Y004631D02*
X022763Y004631D01*
X022763Y004730D02*
X023363Y004730D01*
X023302Y004828D02*
X022763Y004828D01*
X022763Y004927D02*
X023203Y004927D01*
X023105Y005025D02*
X022763Y005025D01*
X022763Y005124D02*
X023006Y005124D01*
X022908Y005222D02*
X022763Y005222D01*
X022763Y005321D02*
X022809Y005321D01*
X023080Y005616D02*
X023264Y005616D01*
X023178Y005518D02*
X023362Y005518D01*
X023277Y005419D02*
X023461Y005419D01*
X023375Y005321D02*
X023559Y005321D01*
X023474Y005222D02*
X023658Y005222D01*
X023572Y005124D02*
X023756Y005124D01*
X023671Y005025D02*
X023855Y005025D01*
X023763Y004927D02*
X023953Y004927D01*
X024052Y004828D02*
X023763Y004828D01*
X023763Y004730D02*
X024150Y004730D01*
X024249Y004631D02*
X023763Y004631D01*
X023763Y004533D02*
X024347Y004533D01*
X024363Y004434D02*
X023763Y004434D01*
X023763Y004336D02*
X024363Y004336D01*
X024363Y004237D02*
X023763Y004237D01*
X023763Y004139D02*
X024363Y004139D01*
X024363Y004040D02*
X023763Y004040D01*
X023763Y003942D02*
X024363Y003942D01*
X024363Y003843D02*
X023763Y003843D01*
X023763Y003745D02*
X024363Y003745D01*
X024363Y003646D02*
X023763Y003646D01*
X023763Y003548D02*
X024363Y003548D01*
X024363Y003449D02*
X023763Y003449D01*
X023763Y003351D02*
X024363Y003351D01*
X024363Y003252D02*
X023763Y003252D01*
X023763Y003154D02*
X024363Y003154D01*
X024363Y003055D02*
X023763Y003055D01*
X023763Y002957D02*
X024363Y002957D01*
X024363Y002858D02*
X023763Y002858D01*
X023763Y002760D02*
X024363Y002760D01*
X024363Y002661D02*
X023763Y002661D01*
X023763Y002563D02*
X024363Y002563D01*
X024363Y002464D02*
X023763Y002464D01*
X023763Y002366D02*
X024363Y002366D01*
X024363Y002267D02*
X023763Y002267D01*
X023763Y002169D02*
X024363Y002169D01*
X024363Y002070D02*
X023763Y002070D01*
X023763Y001972D02*
X024363Y001972D01*
X024269Y001873D02*
X023856Y001873D01*
X023949Y001775D02*
X024177Y001775D01*
X024136Y001676D02*
X023989Y001676D01*
X024013Y001578D02*
X024113Y001578D01*
X024113Y001479D02*
X024013Y001479D01*
X024013Y001381D02*
X024113Y001381D01*
X024113Y001282D02*
X024013Y001282D01*
X024013Y001184D02*
X024113Y001184D01*
X024113Y001085D02*
X024013Y001085D01*
X023974Y000987D02*
X024152Y000987D01*
X024208Y000888D02*
X023917Y000888D01*
X023819Y000790D02*
X024307Y000790D01*
X024819Y000790D02*
X025307Y000790D01*
X025208Y000888D02*
X024917Y000888D01*
X024974Y000987D02*
X025152Y000987D01*
X025113Y001085D02*
X025013Y001085D01*
X025013Y001184D02*
X025113Y001184D01*
X025113Y001282D02*
X025013Y001282D01*
X025013Y001381D02*
X025113Y001381D01*
X025113Y001479D02*
X025013Y001479D01*
X025013Y001578D02*
X025113Y001578D01*
X025136Y001676D02*
X024989Y001676D01*
X024949Y001775D02*
X025177Y001775D01*
X025269Y001873D02*
X024856Y001873D01*
X024763Y001972D02*
X025363Y001972D01*
X025363Y002070D02*
X024763Y002070D01*
X024763Y002366D02*
X025264Y002366D01*
X025166Y002464D02*
X024763Y002464D01*
X024763Y002563D02*
X025067Y002563D01*
X024969Y002661D02*
X024763Y002661D01*
X024763Y002760D02*
X024870Y002760D01*
X024772Y002858D02*
X024763Y002858D01*
X024813Y003100D02*
X025563Y002350D01*
X025563Y001350D01*
X026013Y001381D02*
X026113Y001381D01*
X026113Y001479D02*
X026013Y001479D01*
X026013Y001578D02*
X026113Y001578D01*
X026136Y001676D02*
X025989Y001676D01*
X025949Y001775D02*
X026177Y001775D01*
X026269Y001873D02*
X025856Y001873D01*
X025763Y001972D02*
X026363Y001972D01*
X026314Y002070D02*
X025763Y002070D01*
X025763Y002169D02*
X026218Y002169D01*
X026123Y002267D02*
X025763Y002267D01*
X025763Y002366D02*
X026028Y002366D01*
X025933Y002464D02*
X025732Y002464D01*
X025633Y002563D02*
X025838Y002563D01*
X025742Y002661D02*
X025535Y002661D01*
X025436Y002760D02*
X025647Y002760D01*
X025552Y002858D02*
X025338Y002858D01*
X025239Y002957D02*
X025457Y002957D01*
X025361Y003055D02*
X025141Y003055D01*
X025042Y003154D02*
X025266Y003154D01*
X025171Y003252D02*
X025013Y003252D01*
X025013Y003351D02*
X025076Y003351D01*
X024813Y003100D02*
X024813Y004700D01*
X024639Y004874D01*
X024639Y009531D01*
X024439Y009283D02*
X024293Y009283D01*
X024194Y009382D01*
X024194Y009681D01*
X024202Y009689D01*
X024194Y009697D01*
X024194Y009995D01*
X024202Y010004D01*
X024194Y010012D01*
X024194Y010310D01*
X024202Y010319D01*
X024194Y010327D01*
X024194Y010591D01*
X022555Y010591D01*
X022555Y009217D01*
X022604Y009169D01*
X022604Y008477D01*
X022555Y008429D01*
X022555Y007954D01*
X023120Y007954D01*
X023227Y007848D01*
X023227Y007052D01*
X023120Y006946D01*
X022500Y006946D01*
X024439Y005007D01*
X024439Y007955D01*
X024421Y007938D01*
X024286Y007882D01*
X024140Y007882D01*
X024004Y007938D01*
X023901Y008041D01*
X023845Y008177D01*
X022555Y008177D01*
X022555Y008079D02*
X023885Y008079D01*
X023845Y008177D02*
X023845Y008323D01*
X023867Y008378D01*
X023781Y008378D01*
X023773Y008386D01*
X023764Y008378D01*
X023466Y008378D01*
X023458Y008386D01*
X023449Y008378D01*
X023151Y008378D01*
X023143Y008386D01*
X023134Y008378D01*
X022836Y008378D01*
X022737Y008477D01*
X022737Y009169D01*
X022836Y009268D01*
X023134Y009268D01*
X023143Y009260D01*
X023151Y009268D01*
X023449Y009268D01*
X023458Y009260D01*
X023466Y009268D01*
X023764Y009268D01*
X023773Y009260D01*
X023781Y009268D01*
X024079Y009268D01*
X024179Y009169D01*
X024179Y009023D01*
X024296Y009023D01*
X024413Y008906D01*
X024413Y008566D01*
X024421Y008562D01*
X024439Y008545D01*
X024439Y009283D01*
X024439Y009261D02*
X024087Y009261D01*
X024179Y009162D02*
X024439Y009162D01*
X024439Y009064D02*
X024179Y009064D01*
X024353Y008965D02*
X024439Y008965D01*
X024439Y008867D02*
X024413Y008867D01*
X024413Y008768D02*
X024439Y008768D01*
X024439Y008670D02*
X024413Y008670D01*
X024413Y008571D02*
X024439Y008571D01*
X024213Y008823D02*
X024213Y008250D01*
X023962Y007980D02*
X022555Y007980D01*
X022555Y008276D02*
X023845Y008276D01*
X023866Y008374D02*
X022555Y008374D01*
X022599Y008473D02*
X022741Y008473D01*
X022737Y008571D02*
X022604Y008571D01*
X022604Y008670D02*
X022737Y008670D01*
X022737Y008768D02*
X022604Y008768D01*
X022670Y008823D02*
X022670Y008300D01*
X023014Y008300D01*
X023864Y007450D01*
X024439Y007488D02*
X023227Y007488D01*
X023227Y007586D02*
X024439Y007586D01*
X024439Y007685D02*
X023227Y007685D01*
X023227Y007783D02*
X024439Y007783D01*
X024439Y007882D02*
X023193Y007882D01*
X022762Y007450D02*
X022355Y007700D01*
X022355Y008823D01*
X022355Y010791D01*
X022563Y010791D01*
X022563Y011421D01*
X022670Y011421D01*
X022670Y013390D01*
X022422Y013398D02*
X022289Y013398D01*
X022289Y013496D02*
X022422Y013496D01*
X022422Y013595D02*
X022289Y013595D01*
X022289Y013693D02*
X022422Y013693D01*
X022478Y013792D02*
X022233Y013792D01*
X022189Y013835D02*
X022289Y013736D01*
X022289Y013044D01*
X022189Y012944D01*
X021891Y012944D01*
X021883Y012953D01*
X021874Y012944D01*
X021576Y012944D01*
X021568Y012953D01*
X021559Y012944D01*
X021261Y012944D01*
X021253Y012953D01*
X021245Y012944D01*
X020946Y012944D01*
X020938Y012953D01*
X020930Y012944D01*
X020632Y012944D01*
X020532Y013044D01*
X020532Y013736D01*
X020632Y013835D01*
X020930Y013835D01*
X020938Y013827D01*
X020946Y013835D01*
X021245Y013835D01*
X021253Y013827D01*
X021261Y013835D01*
X021559Y013835D01*
X021568Y013827D01*
X021576Y013835D01*
X021874Y013835D01*
X021883Y013827D01*
X021891Y013835D01*
X022189Y013835D01*
X022785Y013890D02*
X020272Y013890D01*
X020272Y013792D02*
X020588Y013792D01*
X020532Y013693D02*
X020272Y013693D01*
X020272Y013595D02*
X020532Y013595D01*
X020532Y013496D02*
X020272Y013496D01*
X020272Y013398D02*
X020532Y013398D01*
X020532Y013299D02*
X020272Y013299D01*
X020272Y013201D02*
X020532Y013201D01*
X020532Y013102D02*
X020272Y013102D01*
X020272Y013004D02*
X020572Y013004D01*
X020442Y012905D02*
X022470Y012905D01*
X022470Y012807D02*
X020517Y012807D01*
X020517Y012708D02*
X022470Y012708D01*
X022470Y012610D02*
X020517Y012610D01*
X020517Y012511D02*
X022470Y012511D01*
X022470Y012413D02*
X020517Y012413D01*
X020517Y012314D02*
X022470Y012314D01*
X022470Y012216D02*
X020516Y012216D01*
X020517Y012117D02*
X022470Y012117D01*
X022470Y012019D02*
X020517Y012019D01*
X020517Y011920D02*
X022470Y011920D01*
X022470Y011822D02*
X020517Y011822D01*
X020517Y011723D02*
X022470Y011723D01*
X022470Y011625D02*
X020517Y011625D01*
X020072Y011736D02*
X020072Y011750D01*
X019163Y011750D01*
X019163Y013350D01*
X019155Y013343D01*
X018458Y013343D01*
X019163Y013350D02*
X019163Y014144D01*
X015955Y014144D01*
X015255Y013444D01*
X014735Y013398D02*
X013863Y013398D01*
X013863Y013496D02*
X014735Y013496D01*
X014735Y013595D02*
X013863Y013595D01*
X013863Y013684D02*
X013863Y013000D01*
X014347Y013000D01*
X014351Y013009D01*
X014454Y013112D01*
X014590Y013168D01*
X014736Y013168D01*
X014838Y013126D01*
X014735Y013228D01*
X014735Y013659D01*
X015020Y013944D01*
X014755Y014208D01*
X014471Y013924D01*
X014040Y013924D01*
X014031Y013933D01*
X014031Y013927D01*
X013975Y013791D01*
X013871Y013688D01*
X013863Y013684D01*
X013876Y013693D02*
X014769Y013693D01*
X014868Y013792D02*
X013975Y013792D01*
X014016Y013890D02*
X014966Y013890D01*
X014975Y013989D02*
X014536Y013989D01*
X014634Y014087D02*
X014877Y014087D01*
X014778Y014186D02*
X014733Y014186D01*
X015255Y014400D02*
X015255Y014444D01*
X015255Y014400D02*
X019363Y014400D01*
X019363Y012051D01*
X020072Y012051D01*
X020072Y012366D02*
X019563Y012366D01*
X019563Y015400D01*
X015255Y015400D01*
X015255Y015444D01*
X013713Y016000D02*
X020072Y016000D01*
X020072Y012681D01*
X018963Y012850D02*
X017913Y012850D01*
X017913Y013950D01*
X016063Y013950D01*
X015813Y013700D01*
X015813Y013100D01*
X015513Y012800D01*
X014663Y012800D01*
X013663Y012800D01*
X013663Y014000D01*
X013713Y014444D02*
X013713Y016000D01*
X013586Y016156D02*
X013526Y016156D01*
X013429Y016254D02*
X021113Y016254D01*
X021113Y016156D02*
X020199Y016156D01*
X020272Y016057D02*
X021123Y016057D01*
X021163Y015959D02*
X020272Y015959D01*
X020272Y015860D02*
X021236Y015860D01*
X021373Y015762D02*
X020272Y015762D01*
X020272Y015663D02*
X021967Y015663D01*
X022065Y015565D02*
X020272Y015565D01*
X020272Y015466D02*
X022164Y015466D01*
X022262Y015368D02*
X020272Y015368D01*
X020272Y015269D02*
X022361Y015269D01*
X022459Y015171D02*
X020272Y015171D01*
X020272Y015072D02*
X022558Y015072D01*
X022656Y014974D02*
X020272Y014974D01*
X020272Y014875D02*
X022755Y014875D01*
X022785Y014777D02*
X020272Y014777D01*
X020272Y014678D02*
X022785Y014678D01*
X022785Y014580D02*
X020272Y014580D01*
X020272Y014481D02*
X022785Y014481D01*
X022785Y014383D02*
X020272Y014383D01*
X020272Y014284D02*
X022785Y014284D01*
X022785Y014186D02*
X020272Y014186D01*
X020272Y014087D02*
X022785Y014087D01*
X022785Y013989D02*
X020272Y013989D01*
X018963Y012850D02*
X018963Y011421D01*
X020072Y011421D01*
X022563Y011421D01*
X022763Y011231D02*
X024235Y011231D01*
X024194Y011329D02*
X022861Y011329D01*
X022870Y011428D02*
X024194Y011428D01*
X024194Y011526D02*
X022870Y011526D01*
X022870Y011625D02*
X024194Y011625D01*
X024194Y011723D02*
X022870Y011723D01*
X022870Y011822D02*
X024194Y011822D01*
X024194Y011920D02*
X022870Y011920D01*
X022870Y012019D02*
X024194Y012019D01*
X024194Y012117D02*
X022870Y012117D01*
X022870Y012216D02*
X024195Y012216D01*
X024194Y012314D02*
X022870Y012314D01*
X022870Y012413D02*
X024194Y012413D01*
X024194Y012511D02*
X022870Y012511D01*
X022870Y012610D02*
X024194Y012610D01*
X024194Y012708D02*
X022870Y012708D01*
X022870Y012807D02*
X024194Y012807D01*
X024268Y012905D02*
X022870Y012905D01*
X022462Y013004D02*
X022248Y013004D01*
X022289Y013102D02*
X022422Y013102D01*
X022422Y013201D02*
X022289Y013201D01*
X022289Y013299D02*
X022422Y013299D01*
X022985Y013390D02*
X022985Y014928D01*
X021563Y016350D01*
X021113Y016353D02*
X013313Y016353D01*
X013313Y016451D02*
X021113Y016451D01*
X021113Y016550D02*
X013313Y016550D01*
X013313Y016648D02*
X021125Y016648D01*
X021165Y016747D02*
X013313Y016747D01*
X013313Y016845D02*
X021241Y016845D01*
X021385Y016944D02*
X013313Y016944D01*
X013313Y017042D02*
X030563Y017042D01*
X030563Y016944D02*
X028740Y016944D01*
X028884Y016845D02*
X030563Y016845D01*
X030563Y016747D02*
X028960Y016747D01*
X029001Y016648D02*
X030563Y016648D01*
X030563Y016550D02*
X029013Y016550D01*
X029013Y016451D02*
X030563Y016451D01*
X030563Y016353D02*
X029013Y016353D01*
X029013Y016254D02*
X030563Y016254D01*
X030563Y016156D02*
X029013Y016156D01*
X029003Y016057D02*
X030563Y016057D01*
X030563Y015959D02*
X028962Y015959D01*
X028889Y015860D02*
X030563Y015860D01*
X030563Y015762D02*
X028753Y015762D01*
X028409Y015663D02*
X030563Y015663D01*
X030563Y015565D02*
X028310Y015565D01*
X028212Y015466D02*
X030563Y015466D01*
X030563Y015368D02*
X027363Y015368D01*
X027265Y015269D02*
X030563Y015269D01*
X030563Y015171D02*
X027166Y015171D01*
X027068Y015072D02*
X030563Y015072D01*
X030563Y014974D02*
X029880Y014974D01*
X029948Y014945D02*
X029798Y015007D01*
X029327Y015007D01*
X029178Y014945D01*
X029063Y014831D01*
X029001Y014681D01*
X029001Y014519D01*
X029063Y014369D01*
X029178Y014255D01*
X029327Y014193D01*
X029798Y014193D01*
X029948Y014255D01*
X030063Y014369D01*
X030125Y014519D01*
X030125Y014681D01*
X030063Y014831D01*
X029948Y014945D01*
X030019Y014875D02*
X030563Y014875D01*
X030563Y014777D02*
X030085Y014777D01*
X030125Y014678D02*
X030563Y014678D01*
X030563Y014580D02*
X030125Y014580D01*
X030109Y014481D02*
X030563Y014481D01*
X030563Y014383D02*
X030068Y014383D01*
X029978Y014284D02*
X030563Y014284D01*
X030563Y014186D02*
X027465Y014186D01*
X027596Y014087D02*
X030563Y014087D01*
X030563Y013989D02*
X029844Y013989D01*
X029798Y014007D02*
X029948Y013945D01*
X030063Y013831D01*
X030125Y013681D01*
X030125Y013519D01*
X030063Y013369D01*
X029948Y013255D01*
X029798Y013193D01*
X029327Y013193D01*
X029178Y013255D01*
X029063Y013369D01*
X029001Y013519D01*
X029001Y013681D01*
X029063Y013831D01*
X029178Y013945D01*
X029327Y014007D01*
X029798Y014007D01*
X030004Y013890D02*
X030563Y013890D01*
X030563Y013792D02*
X030079Y013792D01*
X030120Y013693D02*
X030563Y013693D01*
X030563Y013595D02*
X030125Y013595D01*
X030115Y013496D02*
X030563Y013496D01*
X030563Y013398D02*
X030075Y013398D01*
X029993Y013299D02*
X030563Y013299D01*
X030563Y013201D02*
X029818Y013201D01*
X029832Y012800D02*
X029293Y012800D01*
X029128Y012731D01*
X029001Y012605D01*
X028933Y012440D01*
X028933Y012260D01*
X029001Y012095D01*
X029128Y011969D01*
X029293Y011900D01*
X029832Y011900D01*
X029998Y011969D01*
X030124Y012095D01*
X030193Y012260D01*
X030193Y012440D01*
X030124Y012605D01*
X029998Y012731D01*
X029832Y012800D01*
X030021Y012708D02*
X030563Y012708D01*
X030563Y012610D02*
X030120Y012610D01*
X030163Y012511D02*
X030563Y012511D01*
X030563Y012413D02*
X030193Y012413D01*
X030193Y012314D02*
X030563Y012314D01*
X030563Y012216D02*
X030174Y012216D01*
X030133Y012117D02*
X030563Y012117D01*
X030563Y012019D02*
X030048Y012019D01*
X029881Y011920D02*
X030563Y011920D01*
X030563Y011822D02*
X026013Y011822D01*
X026013Y011920D02*
X029245Y011920D01*
X029293Y011800D02*
X029128Y011731D01*
X029001Y011605D01*
X028933Y011440D01*
X028933Y011260D01*
X029001Y011095D01*
X029128Y010969D01*
X029293Y010900D01*
X029832Y010900D01*
X029998Y010969D01*
X030124Y011095D01*
X030193Y011260D01*
X030193Y011440D01*
X030124Y011605D01*
X029998Y011731D01*
X029832Y011800D01*
X029293Y011800D01*
X029119Y011723D02*
X026013Y011723D01*
X025984Y011625D02*
X029021Y011625D01*
X028969Y011526D02*
X025084Y011526D01*
X025084Y011428D02*
X028933Y011428D01*
X028933Y011329D02*
X025084Y011329D01*
X025042Y011231D02*
X028945Y011231D01*
X028986Y011132D02*
X022763Y011132D01*
X022763Y011034D02*
X024287Y011034D01*
X024639Y010791D02*
X022563Y010791D01*
X022555Y010541D02*
X024194Y010541D01*
X024194Y010443D02*
X022555Y010443D01*
X022555Y010344D02*
X024194Y010344D01*
X024194Y010246D02*
X022555Y010246D01*
X022555Y010147D02*
X024194Y010147D01*
X024194Y010049D02*
X022555Y010049D01*
X022555Y009950D02*
X024194Y009950D01*
X024194Y009852D02*
X022555Y009852D01*
X022555Y009753D02*
X024194Y009753D01*
X024194Y009655D02*
X022555Y009655D01*
X022555Y009556D02*
X024194Y009556D01*
X024194Y009458D02*
X022555Y009458D01*
X022555Y009359D02*
X024217Y009359D01*
X023774Y009261D02*
X023772Y009261D01*
X023459Y009261D02*
X023457Y009261D01*
X023144Y009261D02*
X023142Y009261D01*
X022829Y009261D02*
X022555Y009261D01*
X022604Y009162D02*
X022737Y009162D01*
X022737Y009064D02*
X022604Y009064D01*
X022604Y008965D02*
X022737Y008965D01*
X022737Y008867D02*
X022604Y008867D01*
X022040Y008823D02*
X022040Y007122D01*
X024563Y004600D01*
X024563Y001350D01*
X023563Y001350D02*
X023563Y004850D01*
X021725Y006687D01*
X021725Y008823D01*
X021568Y009260D02*
X021559Y009268D01*
X021261Y009268D01*
X021253Y009260D01*
X021245Y009268D01*
X020946Y009268D01*
X020938Y009260D01*
X020930Y009268D01*
X020632Y009268D01*
X020532Y009169D01*
X020532Y008477D01*
X020581Y008429D01*
X020581Y007751D01*
X020530Y007700D01*
X019946Y007700D01*
X020155Y007909D01*
X020272Y008026D01*
X020272Y009283D01*
X020418Y009283D01*
X020517Y009382D01*
X020517Y009650D01*
X020747Y009650D01*
X020751Y009641D01*
X020854Y009538D01*
X020990Y009482D01*
X021136Y009482D01*
X021271Y009538D01*
X021375Y009641D01*
X021431Y009777D01*
X021431Y009923D01*
X021407Y009982D01*
X021536Y009982D01*
X021671Y010038D01*
X021775Y010141D01*
X021831Y010277D01*
X021831Y010423D01*
X021775Y010559D01*
X021671Y010662D01*
X021536Y010718D01*
X021390Y010718D01*
X021254Y010662D01*
X021151Y010559D01*
X021147Y010550D01*
X020830Y010550D01*
X020680Y010400D01*
X020517Y010400D01*
X020517Y010625D01*
X020509Y010634D01*
X020517Y010642D01*
X020517Y010940D01*
X020418Y011040D01*
X019726Y011040D01*
X019678Y010991D01*
X018992Y010991D01*
X018935Y011048D01*
X018935Y011221D01*
X019678Y011221D01*
X019726Y011173D01*
X020418Y011173D01*
X020466Y011221D01*
X022363Y011221D01*
X022363Y010991D01*
X022273Y010991D01*
X022155Y010874D01*
X022155Y009268D01*
X021891Y009268D01*
X021883Y009260D01*
X021874Y009268D01*
X021576Y009268D01*
X021568Y009260D01*
X021567Y009261D02*
X021569Y009261D01*
X021882Y009261D02*
X021884Y009261D01*
X022155Y009359D02*
X020494Y009359D01*
X020517Y009458D02*
X022155Y009458D01*
X022155Y009556D02*
X021289Y009556D01*
X021380Y009655D02*
X022155Y009655D01*
X022155Y009753D02*
X021421Y009753D01*
X021431Y009852D02*
X022155Y009852D01*
X022155Y009950D02*
X021420Y009950D01*
X021682Y010049D02*
X022155Y010049D01*
X022155Y010147D02*
X021777Y010147D01*
X021818Y010246D02*
X022155Y010246D01*
X022155Y010344D02*
X021831Y010344D01*
X021823Y010443D02*
X022155Y010443D01*
X022155Y010541D02*
X021782Y010541D01*
X021694Y010640D02*
X022155Y010640D01*
X022155Y010738D02*
X020517Y010738D01*
X020514Y010640D02*
X021232Y010640D01*
X020821Y010541D02*
X020517Y010541D01*
X020517Y010443D02*
X020723Y010443D01*
X020913Y010350D02*
X020763Y010200D01*
X020110Y010200D01*
X020072Y010161D01*
X020075Y009850D02*
X020072Y009846D01*
X020075Y009850D02*
X021063Y009850D01*
X020836Y009556D02*
X020517Y009556D01*
X020624Y009261D02*
X020272Y009261D01*
X020272Y009162D02*
X020532Y009162D01*
X020532Y009064D02*
X020272Y009064D01*
X020272Y008965D02*
X020532Y008965D01*
X020532Y008867D02*
X020272Y008867D01*
X020272Y008768D02*
X020532Y008768D01*
X020532Y008670D02*
X020272Y008670D01*
X020272Y008571D02*
X020532Y008571D01*
X020537Y008473D02*
X020272Y008473D01*
X020272Y008374D02*
X020581Y008374D01*
X020581Y008276D02*
X020272Y008276D01*
X020272Y008177D02*
X020581Y008177D01*
X020581Y008079D02*
X020272Y008079D01*
X020226Y007980D02*
X020581Y007980D01*
X020581Y007882D02*
X020127Y007882D01*
X020029Y007783D02*
X020581Y007783D01*
X020781Y007668D02*
X020613Y007500D01*
X015413Y007500D01*
X015413Y011100D01*
X015763Y011450D01*
X015813Y011450D01*
X015445Y011428D02*
X013423Y011428D01*
X013522Y011526D02*
X015446Y011526D01*
X015487Y011625D02*
X013620Y011625D01*
X013719Y011723D02*
X015565Y011723D01*
X015613Y011950D02*
X013663Y011950D01*
X013013Y011300D01*
X011213Y011300D01*
X008763Y008850D01*
X002063Y008850D01*
X000913Y009350D02*
X000763Y009500D01*
X000763Y010350D01*
X000913Y009350D02*
X007613Y009350D01*
X010213Y011950D01*
X010813Y011950D01*
X011513Y012650D01*
X013313Y012650D01*
X013313Y015350D01*
X012963Y015700D02*
X012963Y012900D01*
X011063Y012900D01*
X010513Y012350D01*
X011463Y012000D02*
X011913Y012450D01*
X015763Y012450D01*
X016013Y012700D01*
X016013Y013300D01*
X016163Y013450D01*
X016613Y013500D02*
X016613Y012950D01*
X015613Y011950D01*
X015359Y011329D02*
X013325Y011329D01*
X013313Y011231D02*
X015261Y011231D01*
X015213Y011132D02*
X013313Y011132D01*
X013313Y011034D02*
X015213Y011034D01*
X015213Y010935D02*
X013313Y010935D01*
X013313Y010837D02*
X015213Y010837D01*
X015213Y010738D02*
X013313Y010738D01*
X013313Y010640D02*
X015213Y010640D01*
X015213Y010541D02*
X013313Y010541D01*
X013313Y010443D02*
X015213Y010443D01*
X015213Y010344D02*
X013313Y010344D01*
X013313Y010246D02*
X015213Y010246D01*
X015213Y010147D02*
X013313Y010147D01*
X013313Y010049D02*
X015213Y010049D01*
X015213Y009950D02*
X013313Y009950D01*
X013313Y009852D02*
X015213Y009852D01*
X015213Y009753D02*
X013313Y009753D01*
X013313Y009655D02*
X015213Y009655D01*
X015213Y009556D02*
X013313Y009556D01*
X013313Y009458D02*
X015213Y009458D01*
X015213Y009359D02*
X013313Y009359D01*
X013313Y009261D02*
X015213Y009261D01*
X015213Y009162D02*
X013313Y009162D01*
X013313Y009064D02*
X015213Y009064D01*
X015213Y008965D02*
X013313Y008965D01*
X013313Y008867D02*
X015213Y008867D01*
X015213Y008768D02*
X013313Y008768D01*
X013313Y008670D02*
X015213Y008670D01*
X015213Y008571D02*
X013313Y008571D01*
X013313Y008473D02*
X015213Y008473D01*
X015213Y008374D02*
X013313Y008374D01*
X013313Y008276D02*
X015213Y008276D01*
X015213Y008177D02*
X013313Y008177D01*
X013313Y008079D02*
X015213Y008079D01*
X015213Y007980D02*
X013313Y007980D01*
X013313Y007882D02*
X015213Y007882D01*
X015213Y007783D02*
X013313Y007783D01*
X013313Y007685D02*
X015213Y007685D01*
X015213Y007586D02*
X013313Y007586D01*
X013313Y007488D02*
X015213Y007488D01*
X015241Y007389D02*
X013313Y007389D01*
X013313Y007291D02*
X020896Y007291D01*
X020896Y007389D02*
X020785Y007389D01*
X020883Y007488D02*
X020896Y007488D01*
X020781Y007668D02*
X020781Y008823D01*
X020937Y009261D02*
X020939Y009261D01*
X021252Y009261D02*
X021254Y009261D01*
X020072Y009531D02*
X020072Y008109D01*
X019813Y007850D01*
X015813Y007850D01*
X015813Y010850D01*
X017013Y010837D02*
X018581Y010837D01*
X018574Y010844D02*
X018817Y010600D01*
X018574Y010356D01*
X017801Y010356D01*
X017690Y010245D01*
X017690Y009380D01*
X017801Y009269D01*
X018020Y009269D01*
X017999Y009248D01*
X017999Y008452D01*
X018001Y008450D01*
X017013Y008450D01*
X017013Y012838D01*
X017713Y012838D01*
X017713Y012767D01*
X017830Y012650D01*
X017999Y012650D01*
X017999Y011952D01*
X018020Y011931D01*
X017801Y011931D01*
X017690Y011820D01*
X017690Y010955D01*
X017801Y010844D01*
X018574Y010844D01*
X018679Y010738D02*
X017013Y010738D01*
X017013Y010640D02*
X018778Y010640D01*
X018758Y010541D02*
X017013Y010541D01*
X017013Y010443D02*
X018660Y010443D01*
X018977Y010476D02*
X018313Y009813D01*
X018464Y009813D01*
X018464Y008850D01*
X017999Y008867D02*
X017013Y008867D01*
X017013Y008965D02*
X017999Y008965D01*
X017999Y009064D02*
X017013Y009064D01*
X017013Y009162D02*
X017999Y009162D01*
X018012Y009261D02*
X017013Y009261D01*
X017013Y009359D02*
X017711Y009359D01*
X017690Y009458D02*
X017013Y009458D01*
X017013Y009556D02*
X017690Y009556D01*
X017690Y009655D02*
X017013Y009655D01*
X017013Y009753D02*
X017690Y009753D01*
X017690Y009852D02*
X017013Y009852D01*
X017013Y009950D02*
X017690Y009950D01*
X017690Y010049D02*
X017013Y010049D01*
X017013Y010147D02*
X017690Y010147D01*
X017691Y010246D02*
X017013Y010246D01*
X017013Y010344D02*
X017789Y010344D01*
X017710Y010935D02*
X017013Y010935D01*
X017013Y011034D02*
X017690Y011034D01*
X017690Y011132D02*
X017013Y011132D01*
X017013Y011231D02*
X017690Y011231D01*
X017690Y011329D02*
X017013Y011329D01*
X017013Y011428D02*
X017690Y011428D01*
X017690Y011526D02*
X017013Y011526D01*
X017013Y011625D02*
X017690Y011625D01*
X017690Y011723D02*
X017013Y011723D01*
X017013Y011822D02*
X017692Y011822D01*
X017790Y011920D02*
X017013Y011920D01*
X017013Y012019D02*
X017999Y012019D01*
X017999Y012117D02*
X017013Y012117D01*
X017013Y012216D02*
X017999Y012216D01*
X017999Y012314D02*
X017013Y012314D01*
X017013Y012413D02*
X017999Y012413D01*
X017999Y012511D02*
X017013Y012511D01*
X017013Y012610D02*
X017999Y012610D01*
X017772Y012708D02*
X017013Y012708D01*
X017013Y012807D02*
X017713Y012807D01*
X017305Y013250D02*
X017355Y013343D01*
X017305Y013250D02*
X016813Y013250D01*
X016813Y008250D01*
X019513Y008250D01*
X017999Y008473D02*
X017013Y008473D01*
X017013Y008571D02*
X017999Y008571D01*
X017999Y008670D02*
X017013Y008670D01*
X017013Y008768D02*
X017999Y008768D01*
X017362Y008850D02*
X017113Y008850D01*
X017113Y012350D01*
X017362Y012350D01*
X018464Y012350D02*
X018464Y011387D01*
X018313Y011387D01*
X018909Y010791D01*
X020072Y010791D01*
X020072Y010476D02*
X018977Y010476D01*
X018950Y011034D02*
X019720Y011034D01*
X020424Y011034D02*
X022363Y011034D01*
X022363Y011132D02*
X018935Y011132D01*
X020517Y010935D02*
X022216Y010935D01*
X022155Y010837D02*
X020517Y010837D01*
X020913Y010350D02*
X021463Y010350D01*
X023930Y008823D02*
X024213Y008823D01*
X024863Y008850D02*
X024863Y005000D01*
X025113Y004750D01*
X025113Y003600D01*
X026563Y002100D01*
X026563Y001350D01*
X026113Y001282D02*
X026013Y001282D01*
X026013Y001184D02*
X026113Y001184D01*
X026113Y001085D02*
X026013Y001085D01*
X025974Y000987D02*
X026152Y000987D01*
X026208Y000888D02*
X025917Y000888D01*
X025819Y000790D02*
X026307Y000790D01*
X026819Y000790D02*
X027307Y000790D01*
X027208Y000888D02*
X026917Y000888D01*
X026974Y000987D02*
X027152Y000987D01*
X027113Y001085D02*
X027013Y001085D01*
X027013Y001184D02*
X027113Y001184D01*
X027113Y001282D02*
X027013Y001282D01*
X027013Y001381D02*
X027113Y001381D01*
X027113Y001479D02*
X027013Y001479D01*
X027013Y001578D02*
X027113Y001578D01*
X027136Y001676D02*
X026989Y001676D01*
X026949Y001775D02*
X027177Y001775D01*
X027269Y001873D02*
X026856Y001873D01*
X026763Y001972D02*
X027453Y001972D01*
X027673Y001972D02*
X027863Y001972D01*
X027863Y002070D02*
X026763Y002070D01*
X026764Y002169D02*
X027863Y002169D01*
X027863Y002267D02*
X026680Y002267D01*
X026584Y002366D02*
X027863Y002366D01*
X027863Y002464D02*
X026489Y002464D01*
X026394Y002563D02*
X027863Y002563D01*
X027863Y002661D02*
X026299Y002661D01*
X026203Y002760D02*
X027863Y002760D01*
X027863Y002858D02*
X026108Y002858D01*
X026013Y002957D02*
X027863Y002957D01*
X027863Y003055D02*
X025918Y003055D01*
X025823Y003154D02*
X027863Y003154D01*
X027863Y003252D02*
X025727Y003252D01*
X025632Y003351D02*
X027863Y003351D01*
X027863Y003449D02*
X025537Y003449D01*
X025442Y003548D02*
X027863Y003548D01*
X027863Y003646D02*
X025347Y003646D01*
X025313Y003745D02*
X027863Y003745D01*
X027863Y003843D02*
X025313Y003843D01*
X025313Y003942D02*
X027863Y003942D01*
X027863Y004040D02*
X025313Y004040D01*
X025313Y004139D02*
X027863Y004139D01*
X027863Y004237D02*
X025313Y004237D01*
X025313Y004336D02*
X025621Y004336D01*
X025604Y004434D02*
X025313Y004434D01*
X025313Y004533D02*
X025604Y004533D01*
X025527Y004631D02*
X025313Y004631D01*
X025313Y004730D02*
X025445Y004730D01*
X025362Y004828D02*
X025313Y004828D01*
X025313Y005200D02*
X025813Y004600D01*
X026344Y004600D01*
X027006Y004927D02*
X027863Y004927D01*
X027863Y005025D02*
X025719Y005025D01*
X025680Y005124D02*
X027863Y005124D01*
X027863Y005222D02*
X025681Y005222D01*
X025563Y005600D02*
X025313Y005850D01*
X025575Y006109D02*
X027863Y006109D01*
X027863Y006207D02*
X025413Y006207D01*
X025213Y006207D02*
X025063Y006207D01*
X025063Y006306D02*
X025651Y006306D01*
X025604Y006404D02*
X025063Y006404D01*
X025063Y006503D02*
X025190Y006503D01*
X025436Y006503D02*
X025561Y006503D01*
X025813Y006600D02*
X025313Y006850D01*
X025651Y006995D02*
X027863Y006995D01*
X027863Y006897D02*
X027036Y006897D01*
X027085Y006798D02*
X027863Y006798D01*
X027863Y006700D02*
X027085Y006700D01*
X027085Y006601D02*
X027863Y006601D01*
X027863Y006503D02*
X027085Y006503D01*
X027085Y006404D02*
X027863Y006404D01*
X027863Y006306D02*
X027038Y006306D01*
X027021Y005912D02*
X027863Y005912D01*
X027863Y006010D02*
X025645Y006010D01*
X025563Y005600D02*
X026344Y005600D01*
X027085Y005616D02*
X027863Y005616D01*
X027863Y005518D02*
X027085Y005518D01*
X027085Y005419D02*
X027863Y005419D01*
X027863Y005321D02*
X027053Y005321D01*
X027085Y005715D02*
X027863Y005715D01*
X027863Y005813D02*
X027085Y005813D01*
X027085Y004828D02*
X027863Y004828D01*
X027863Y004730D02*
X027085Y004730D01*
X027085Y004631D02*
X027863Y004631D01*
X027863Y004533D02*
X027085Y004533D01*
X027085Y004434D02*
X027863Y004434D01*
X027863Y004336D02*
X027068Y004336D01*
X029013Y004336D02*
X030563Y004336D01*
X030563Y004434D02*
X029013Y004434D01*
X029013Y004533D02*
X030563Y004533D01*
X030563Y004631D02*
X029013Y004631D01*
X029013Y004730D02*
X030563Y004730D01*
X030563Y004828D02*
X029013Y004828D01*
X029013Y004927D02*
X030563Y004927D01*
X030563Y005025D02*
X029013Y005025D01*
X029013Y005124D02*
X030563Y005124D01*
X030563Y005222D02*
X029013Y005222D01*
X029013Y005321D02*
X030563Y005321D01*
X030563Y005419D02*
X029013Y005419D01*
X029013Y005518D02*
X030563Y005518D01*
X030563Y005616D02*
X029013Y005616D01*
X029013Y005715D02*
X030563Y005715D01*
X030563Y005813D02*
X029013Y005813D01*
X029013Y005912D02*
X030563Y005912D01*
X030563Y006010D02*
X029013Y006010D01*
X029013Y006109D02*
X030563Y006109D01*
X030563Y006207D02*
X029013Y006207D01*
X029013Y006306D02*
X030563Y006306D01*
X030563Y006404D02*
X029013Y006404D01*
X029013Y006503D02*
X030563Y006503D01*
X030563Y006601D02*
X029013Y006601D01*
X029013Y006700D02*
X030563Y006700D01*
X030563Y006798D02*
X029013Y006798D01*
X029013Y006897D02*
X030563Y006897D01*
X030563Y006995D02*
X029013Y006995D01*
X029013Y007094D02*
X030563Y007094D01*
X030563Y007192D02*
X029013Y007192D01*
X029013Y007291D02*
X030563Y007291D01*
X030563Y007389D02*
X029013Y007389D01*
X029013Y007488D02*
X030563Y007488D01*
X030563Y007586D02*
X029013Y007586D01*
X029013Y007685D02*
X030563Y007685D01*
X030563Y007783D02*
X029013Y007783D01*
X029013Y007882D02*
X030563Y007882D01*
X030563Y007980D02*
X029013Y007980D01*
X029013Y008079D02*
X030563Y008079D01*
X030563Y008177D02*
X029013Y008177D01*
X029013Y008276D02*
X030563Y008276D01*
X030563Y008374D02*
X029013Y008374D01*
X029013Y008473D02*
X030563Y008473D01*
X030563Y008571D02*
X029013Y008571D01*
X029013Y008670D02*
X030563Y008670D01*
X030563Y008768D02*
X029013Y008768D01*
X029013Y008867D02*
X030563Y008867D01*
X030563Y008965D02*
X029013Y008965D01*
X029013Y009064D02*
X030563Y009064D01*
X030563Y009162D02*
X029013Y009162D01*
X029013Y009261D02*
X030563Y009261D01*
X030563Y009359D02*
X029013Y009359D01*
X028988Y009458D02*
X030563Y009458D01*
X030563Y009556D02*
X028890Y009556D01*
X028791Y009655D02*
X030563Y009655D01*
X030563Y009753D02*
X028693Y009753D01*
X028594Y009852D02*
X030563Y009852D01*
X030563Y009950D02*
X028496Y009950D01*
X028397Y010049D02*
X030563Y010049D01*
X030563Y010147D02*
X028299Y010147D01*
X028200Y010246D02*
X030563Y010246D01*
X030563Y010344D02*
X028102Y010344D01*
X028003Y010443D02*
X030563Y010443D01*
X030563Y010541D02*
X027905Y010541D01*
X027806Y010640D02*
X030563Y010640D01*
X030563Y010738D02*
X025084Y010738D01*
X025084Y010837D02*
X030563Y010837D01*
X030563Y010935D02*
X029917Y010935D01*
X030063Y011034D02*
X030563Y011034D01*
X030563Y011132D02*
X030140Y011132D01*
X030180Y011231D02*
X030563Y011231D01*
X030563Y011329D02*
X030193Y011329D01*
X030193Y011428D02*
X030563Y011428D01*
X030563Y011526D02*
X030157Y011526D01*
X030105Y011625D02*
X030563Y011625D01*
X030563Y011723D02*
X030006Y011723D01*
X029078Y012019D02*
X026013Y012019D01*
X026013Y012117D02*
X028992Y012117D01*
X028951Y012216D02*
X026013Y012216D01*
X026013Y012314D02*
X028933Y012314D01*
X028933Y012413D02*
X026013Y012413D01*
X026013Y012511D02*
X028962Y012511D01*
X029006Y012610D02*
X026013Y012610D01*
X026013Y012708D02*
X029104Y012708D01*
X029308Y013201D02*
X026013Y013201D01*
X026013Y013299D02*
X029133Y013299D01*
X029051Y013398D02*
X026013Y013398D01*
X026013Y013496D02*
X026095Y013496D01*
X026019Y013595D02*
X026013Y013595D01*
X026013Y013693D02*
X026019Y013693D01*
X026013Y013792D02*
X026019Y013792D01*
X026013Y013890D02*
X026019Y013890D01*
X026013Y013989D02*
X026019Y013989D01*
X025813Y014100D02*
X027313Y015600D01*
X028063Y015600D01*
X028563Y016100D01*
X028563Y016350D01*
X028113Y016353D02*
X028013Y016353D01*
X028013Y016451D02*
X028113Y016451D01*
X028113Y016550D02*
X028013Y016550D01*
X028001Y016648D02*
X028125Y016648D01*
X028165Y016747D02*
X027960Y016747D01*
X027884Y016845D02*
X028241Y016845D01*
X028385Y016944D02*
X027740Y016944D01*
X027385Y016944D02*
X026740Y016944D01*
X026884Y016845D02*
X027241Y016845D01*
X027165Y016747D02*
X026960Y016747D01*
X027001Y016648D02*
X027125Y016648D01*
X027113Y016550D02*
X027013Y016550D01*
X027013Y016451D02*
X027113Y016451D01*
X027113Y016353D02*
X027013Y016353D01*
X027013Y016254D02*
X027113Y016254D01*
X027086Y016156D02*
X027013Y016156D01*
X026563Y016350D02*
X025213Y015000D01*
X025213Y012366D01*
X024639Y012366D01*
X024639Y012051D02*
X025513Y012051D01*
X025513Y014300D01*
X027563Y016350D01*
X028013Y016254D02*
X028113Y016254D01*
X028113Y016156D02*
X028013Y016156D01*
X028003Y016057D02*
X028123Y016057D01*
X028139Y015959D02*
X027962Y015959D01*
X027889Y015860D02*
X028040Y015860D01*
X026969Y014974D02*
X029245Y014974D01*
X029107Y014875D02*
X026871Y014875D01*
X026772Y014777D02*
X029040Y014777D01*
X029001Y014678D02*
X026674Y014678D01*
X026575Y014580D02*
X029001Y014580D01*
X029017Y014481D02*
X026477Y014481D01*
X026378Y014383D02*
X029057Y014383D01*
X029148Y014284D02*
X026280Y014284D01*
X026181Y014186D02*
X027161Y014186D01*
X027313Y013850D02*
X027313Y013819D01*
X026563Y013819D01*
X027031Y013496D02*
X027205Y013496D01*
X027420Y013496D02*
X029010Y013496D01*
X029001Y013595D02*
X027578Y013595D01*
X027646Y013693D02*
X029006Y013693D01*
X029047Y013792D02*
X027681Y013792D01*
X027681Y013890D02*
X029122Y013890D01*
X029282Y013989D02*
X027654Y013989D01*
X026013Y013102D02*
X030563Y013102D01*
X030563Y013004D02*
X026013Y013004D01*
X026013Y012905D02*
X030563Y012905D01*
X030563Y012807D02*
X026013Y012807D01*
X024639Y012681D02*
X024639Y015426D01*
X025563Y016350D01*
X025113Y016353D02*
X025013Y016353D01*
X025013Y016451D02*
X025113Y016451D01*
X025113Y016550D02*
X025013Y016550D01*
X025001Y016648D02*
X025125Y016648D01*
X025165Y016747D02*
X024960Y016747D01*
X024884Y016845D02*
X025241Y016845D01*
X025385Y016944D02*
X024740Y016944D01*
X024385Y016944D02*
X023740Y016944D01*
X023884Y016845D02*
X024241Y016845D01*
X024165Y016747D02*
X023960Y016747D01*
X024001Y016648D02*
X024125Y016648D01*
X024113Y016550D02*
X024013Y016550D01*
X024013Y016451D02*
X024113Y016451D01*
X024113Y016353D02*
X024013Y016353D01*
X024013Y016254D02*
X024113Y016254D01*
X024086Y016156D02*
X024013Y016156D01*
X023615Y016298D02*
X023563Y016350D01*
X023615Y016298D02*
X023615Y013390D01*
X023300Y013390D02*
X023300Y015613D01*
X022563Y016350D01*
X023013Y016353D02*
X023113Y016353D01*
X023113Y016451D02*
X023013Y016451D01*
X023013Y016550D02*
X023113Y016550D01*
X023125Y016648D02*
X023001Y016648D01*
X022960Y016747D02*
X023165Y016747D01*
X023241Y016845D02*
X022884Y016845D01*
X022740Y016944D02*
X023385Y016944D01*
X022385Y016944D02*
X021740Y016944D01*
X021884Y016845D02*
X022241Y016845D01*
X022165Y016747D02*
X021960Y016747D01*
X022001Y016648D02*
X022125Y016648D01*
X022113Y016550D02*
X022013Y016550D01*
X022013Y016451D02*
X022113Y016451D01*
X022113Y016353D02*
X022013Y016353D01*
X022013Y016254D02*
X022113Y016254D01*
X022113Y016156D02*
X022040Y016156D01*
X021868Y015762D02*
X021753Y015762D01*
X023040Y016156D02*
X023113Y016156D01*
X023113Y016254D02*
X023013Y016254D01*
X023930Y015717D02*
X024563Y016350D01*
X025013Y016254D02*
X025113Y016254D01*
X025086Y016156D02*
X025013Y016156D01*
X024593Y015663D02*
X024159Y015663D01*
X024130Y015565D02*
X024495Y015565D01*
X024439Y015466D02*
X024130Y015466D01*
X024130Y015368D02*
X024439Y015368D01*
X024439Y015269D02*
X024130Y015269D01*
X024130Y015171D02*
X024439Y015171D01*
X024439Y015072D02*
X024130Y015072D01*
X024130Y014974D02*
X024439Y014974D01*
X024439Y014875D02*
X024130Y014875D01*
X024130Y014777D02*
X024439Y014777D01*
X024439Y014678D02*
X024130Y014678D01*
X024130Y014580D02*
X024439Y014580D01*
X024439Y014481D02*
X024130Y014481D01*
X024130Y014383D02*
X024439Y014383D01*
X024439Y014284D02*
X024130Y014284D01*
X024130Y014186D02*
X024439Y014186D01*
X024439Y014087D02*
X024130Y014087D01*
X024130Y013989D02*
X024439Y013989D01*
X024439Y013890D02*
X024130Y013890D01*
X024130Y013792D02*
X024439Y013792D01*
X024439Y013693D02*
X024179Y013693D01*
X024179Y013595D02*
X024439Y013595D01*
X024439Y013496D02*
X024179Y013496D01*
X024179Y013398D02*
X024439Y013398D01*
X024439Y013299D02*
X024179Y013299D01*
X024179Y013201D02*
X024439Y013201D01*
X024439Y013102D02*
X024179Y013102D01*
X024138Y013004D02*
X024439Y013004D01*
X023930Y013390D02*
X023930Y015717D01*
X024257Y015762D02*
X024373Y015762D01*
X026013Y016156D02*
X026086Y016156D01*
X026113Y016254D02*
X026013Y016254D01*
X026013Y016353D02*
X026113Y016353D01*
X026113Y016451D02*
X026013Y016451D01*
X026013Y016550D02*
X026113Y016550D01*
X026125Y016648D02*
X026001Y016648D01*
X025960Y016747D02*
X026165Y016747D01*
X026241Y016845D02*
X025884Y016845D01*
X025740Y016944D02*
X026385Y016944D01*
X030563Y017141D02*
X013313Y017141D01*
X013313Y017239D02*
X030563Y017239D01*
X030563Y017338D02*
X013313Y017338D01*
X013813Y017338D02*
X006563Y017338D01*
X006563Y017350D02*
X013813Y017350D01*
X013813Y016450D01*
X012813Y016450D01*
X012813Y015833D01*
X012763Y015783D01*
X012763Y014500D01*
X006563Y014500D01*
X006563Y017350D01*
X006563Y017239D02*
X013813Y017239D01*
X013813Y017141D02*
X006563Y017141D01*
X006563Y017042D02*
X013813Y017042D01*
X013813Y016944D02*
X006563Y016944D01*
X006563Y016845D02*
X013813Y016845D01*
X013813Y016747D02*
X006563Y016747D01*
X006563Y016648D02*
X013813Y016648D01*
X013813Y016550D02*
X006563Y016550D01*
X006563Y016451D02*
X013813Y016451D01*
X013213Y015950D02*
X012963Y015700D01*
X012763Y015663D02*
X006563Y015663D01*
X006563Y015565D02*
X012763Y015565D01*
X012763Y015466D02*
X006563Y015466D01*
X006563Y015368D02*
X012763Y015368D01*
X012763Y015269D02*
X006563Y015269D01*
X006563Y015171D02*
X012763Y015171D01*
X012763Y015072D02*
X006563Y015072D01*
X006563Y014974D02*
X012763Y014974D01*
X012763Y014875D02*
X006563Y014875D01*
X006563Y014777D02*
X012763Y014777D01*
X012763Y014678D02*
X006563Y014678D01*
X006563Y014580D02*
X012763Y014580D01*
X012763Y014300D02*
X012763Y013100D01*
X009563Y013100D01*
X009563Y014300D01*
X012763Y014300D01*
X012763Y014284D02*
X009563Y014284D01*
X009563Y014186D02*
X012763Y014186D01*
X012763Y014087D02*
X009563Y014087D01*
X009563Y013989D02*
X012763Y013989D01*
X012763Y013890D02*
X009563Y013890D01*
X009563Y013792D02*
X012763Y013792D01*
X012763Y013693D02*
X009563Y013693D01*
X009563Y013595D02*
X012763Y013595D01*
X012763Y013496D02*
X009563Y013496D01*
X009563Y013398D02*
X012763Y013398D01*
X012763Y013299D02*
X009563Y013299D01*
X009563Y013201D02*
X012763Y013201D01*
X012763Y013102D02*
X009563Y013102D01*
X009013Y013150D02*
X009013Y014300D01*
X006563Y014300D01*
X006563Y013150D01*
X009013Y013150D01*
X009013Y013201D02*
X006563Y013201D01*
X006563Y013299D02*
X009013Y013299D01*
X009013Y013398D02*
X006563Y013398D01*
X006563Y013496D02*
X009013Y013496D01*
X009013Y013595D02*
X006563Y013595D01*
X006563Y013693D02*
X009013Y013693D01*
X009013Y013792D02*
X006563Y013792D01*
X006563Y013890D02*
X009013Y013890D01*
X009013Y013989D02*
X006563Y013989D01*
X006563Y014087D02*
X009013Y014087D01*
X009013Y014186D02*
X006563Y014186D01*
X006563Y014284D02*
X009013Y014284D01*
X006563Y015762D02*
X012763Y015762D01*
X012813Y015860D02*
X006563Y015860D01*
X006563Y015959D02*
X012813Y015959D01*
X012813Y016057D02*
X006563Y016057D01*
X006563Y016156D02*
X012813Y016156D01*
X012813Y016254D02*
X006563Y016254D01*
X006563Y016353D02*
X012813Y016353D01*
X013713Y014444D02*
X014255Y014444D01*
X013863Y013299D02*
X014735Y013299D01*
X014763Y013201D02*
X013863Y013201D01*
X013863Y013102D02*
X014444Y013102D01*
X014349Y013004D02*
X013863Y013004D01*
X016613Y013500D02*
X016713Y013600D01*
X024639Y011736D02*
X025813Y011736D01*
X025813Y014100D01*
X024991Y011034D02*
X029063Y011034D01*
X029209Y010935D02*
X025084Y010935D01*
X024639Y010476D02*
X027686Y010476D01*
X028813Y009350D01*
X028813Y001600D01*
X028563Y001350D01*
X029013Y001381D02*
X030563Y001381D01*
X030563Y001479D02*
X029013Y001479D01*
X029013Y001578D02*
X030563Y001578D01*
X030563Y001676D02*
X029013Y001676D01*
X029013Y001775D02*
X030563Y001775D01*
X030563Y001873D02*
X029013Y001873D01*
X029013Y001972D02*
X030563Y001972D01*
X030563Y002070D02*
X029013Y002070D01*
X029013Y002169D02*
X030563Y002169D01*
X030563Y002267D02*
X029013Y002267D01*
X029013Y002366D02*
X030563Y002366D01*
X030563Y002464D02*
X029013Y002464D01*
X029013Y002563D02*
X030563Y002563D01*
X030563Y002661D02*
X029013Y002661D01*
X029013Y002760D02*
X030563Y002760D01*
X030563Y002858D02*
X029013Y002858D01*
X029013Y002957D02*
X030563Y002957D01*
X030563Y003055D02*
X029013Y003055D01*
X029013Y003154D02*
X030563Y003154D01*
X030563Y003252D02*
X029013Y003252D01*
X029013Y003351D02*
X030563Y003351D01*
X030563Y003449D02*
X029013Y003449D01*
X029013Y003548D02*
X030563Y003548D01*
X030563Y003646D02*
X029013Y003646D01*
X029013Y003745D02*
X030563Y003745D01*
X030563Y003843D02*
X029013Y003843D01*
X029013Y003942D02*
X030563Y003942D01*
X030563Y004040D02*
X029013Y004040D01*
X029013Y004139D02*
X030563Y004139D01*
X030563Y004237D02*
X029013Y004237D01*
X028063Y001850D02*
X027563Y001350D01*
X028013Y001381D02*
X028113Y001381D01*
X028113Y001479D02*
X028013Y001479D01*
X028073Y001578D02*
X028113Y001578D01*
X028113Y001282D02*
X028013Y001282D01*
X028013Y001184D02*
X028113Y001184D01*
X028113Y001085D02*
X028013Y001085D01*
X027974Y000987D02*
X028152Y000987D01*
X028208Y000888D02*
X027917Y000888D01*
X027819Y000790D02*
X028307Y000790D01*
X028819Y000790D02*
X030563Y000790D01*
X030563Y000888D02*
X028917Y000888D01*
X028974Y000987D02*
X030563Y000987D01*
X030563Y001085D02*
X029013Y001085D01*
X029013Y001184D02*
X030563Y001184D01*
X030563Y001282D02*
X029013Y001282D01*
X028063Y001850D02*
X028063Y009600D01*
X027501Y010161D01*
X024639Y010161D01*
X024639Y009846D02*
X025413Y009846D01*
X025413Y009400D01*
X024863Y008850D01*
X025064Y008768D02*
X025604Y008768D01*
X025604Y008847D02*
X025703Y008947D01*
X026985Y008947D01*
X027085Y008847D01*
X027085Y008353D01*
X026985Y008253D01*
X025703Y008253D01*
X025604Y008353D01*
X025604Y008847D01*
X025623Y008867D02*
X025162Y008867D01*
X025261Y008965D02*
X027863Y008965D01*
X027863Y008867D02*
X027066Y008867D01*
X027085Y008768D02*
X027863Y008768D01*
X027863Y008670D02*
X027085Y008670D01*
X027085Y008571D02*
X027863Y008571D01*
X027863Y008473D02*
X027085Y008473D01*
X027085Y008374D02*
X027863Y008374D01*
X027863Y008276D02*
X027008Y008276D01*
X026985Y007947D02*
X025703Y007947D01*
X025604Y007847D01*
X025604Y007353D01*
X025703Y007253D01*
X026985Y007253D01*
X027085Y007353D01*
X027085Y007847D01*
X026985Y007947D01*
X027051Y007882D02*
X027863Y007882D01*
X027863Y007980D02*
X025063Y007980D01*
X025063Y007882D02*
X025638Y007882D01*
X025604Y007783D02*
X025063Y007783D01*
X025063Y007685D02*
X025604Y007685D01*
X025604Y007586D02*
X025063Y007586D01*
X025063Y007488D02*
X025604Y007488D01*
X025604Y007389D02*
X025063Y007389D01*
X025063Y007291D02*
X025666Y007291D01*
X025590Y007094D02*
X027863Y007094D01*
X027863Y007192D02*
X025449Y007192D01*
X025177Y007192D02*
X025063Y007192D01*
X024439Y007192D02*
X023227Y007192D01*
X023227Y007094D02*
X024439Y007094D01*
X024439Y006995D02*
X023170Y006995D01*
X023227Y007291D02*
X024439Y007291D01*
X024439Y007389D02*
X023227Y007389D01*
X022648Y006798D02*
X024439Y006798D01*
X024439Y006700D02*
X022746Y006700D01*
X022845Y006601D02*
X024439Y006601D01*
X024439Y006503D02*
X022943Y006503D01*
X023042Y006404D02*
X024439Y006404D01*
X024439Y006306D02*
X023140Y006306D01*
X023239Y006207D02*
X024439Y006207D01*
X024439Y006109D02*
X023337Y006109D01*
X023436Y006010D02*
X024439Y006010D01*
X024439Y005912D02*
X023534Y005912D01*
X023633Y005813D02*
X024439Y005813D01*
X024439Y005715D02*
X023731Y005715D01*
X023830Y005616D02*
X024439Y005616D01*
X024439Y005518D02*
X023928Y005518D01*
X024027Y005419D02*
X024439Y005419D01*
X024439Y005321D02*
X024125Y005321D01*
X024224Y005222D02*
X024439Y005222D01*
X024439Y005124D02*
X024322Y005124D01*
X024421Y005025D02*
X024439Y005025D01*
X023165Y005715D02*
X022981Y005715D01*
X023067Y005813D02*
X022883Y005813D01*
X022968Y005912D02*
X022784Y005912D01*
X022870Y006010D02*
X022686Y006010D01*
X022771Y006109D02*
X022587Y006109D01*
X022673Y006207D02*
X022489Y006207D01*
X022574Y006306D02*
X022390Y006306D01*
X022476Y006404D02*
X022292Y006404D01*
X022377Y006503D02*
X022193Y006503D01*
X022279Y006601D02*
X022095Y006601D01*
X022180Y006700D02*
X021996Y006700D01*
X021925Y006798D02*
X022082Y006798D01*
X021983Y006897D02*
X021925Y006897D01*
X022549Y006897D02*
X024439Y006897D01*
X025813Y006600D02*
X026344Y006600D01*
X027023Y007291D02*
X027863Y007291D01*
X027863Y007389D02*
X027085Y007389D01*
X027085Y007488D02*
X027863Y007488D01*
X027863Y007586D02*
X027085Y007586D01*
X027085Y007685D02*
X027863Y007685D01*
X027863Y007783D02*
X027085Y007783D01*
X027863Y008079D02*
X025063Y008079D01*
X025063Y008177D02*
X027863Y008177D01*
X027863Y009064D02*
X025359Y009064D01*
X025458Y009162D02*
X027863Y009162D01*
X027863Y009261D02*
X025556Y009261D01*
X025613Y009359D02*
X027863Y009359D01*
X027863Y009458D02*
X025613Y009458D01*
X025613Y009556D02*
X027824Y009556D01*
X027725Y009655D02*
X025613Y009655D01*
X025613Y009753D02*
X027627Y009753D01*
X027528Y009852D02*
X025613Y009852D01*
X025592Y009950D02*
X027430Y009950D01*
X025604Y008670D02*
X025063Y008670D01*
X025063Y008571D02*
X025604Y008571D01*
X025604Y008473D02*
X025063Y008473D01*
X025063Y008374D02*
X025604Y008374D01*
X025681Y008276D02*
X025063Y008276D01*
X021218Y005912D02*
X021019Y005912D01*
X021019Y005909D02*
X021019Y005923D01*
X020977Y005965D01*
X020941Y006013D01*
X020927Y006015D01*
X020910Y006032D01*
X020908Y006046D01*
X020860Y006082D01*
X020817Y006125D01*
X020803Y006125D01*
X020784Y006139D01*
X020780Y006153D01*
X020727Y006182D01*
X020679Y006217D01*
X020665Y006215D01*
X020644Y006227D01*
X020638Y006240D01*
X020582Y006261D01*
X020529Y006290D01*
X020516Y006286D01*
X020493Y006294D01*
X020486Y006306D01*
X020427Y006319D01*
X020371Y006340D01*
X020358Y006334D01*
X020334Y006339D01*
X020325Y006350D01*
X020265Y006354D01*
X020207Y006367D01*
X020195Y006359D01*
X020171Y006361D01*
X020160Y006370D01*
X020100Y006366D01*
X020040Y006370D01*
X020030Y006361D01*
X020006Y006359D01*
X019994Y006367D01*
X019935Y006354D01*
X019875Y006350D01*
X019866Y006339D01*
X019843Y006334D01*
X019830Y006340D01*
X019774Y006319D01*
X019715Y006306D01*
X019707Y006294D01*
X019685Y006286D01*
X019671Y006290D01*
X019618Y006261D01*
X019562Y006240D01*
X019556Y006227D01*
X019535Y006215D01*
X019521Y006217D01*
X019473Y006182D01*
X019421Y006153D01*
X019417Y006139D01*
X019397Y006125D01*
X019383Y006125D01*
X019341Y006082D01*
X019293Y006046D01*
X019291Y006032D01*
X019274Y006015D01*
X019260Y006013D01*
X019224Y005965D01*
X019181Y005923D01*
X019181Y005909D01*
X019167Y005890D01*
X019153Y005886D01*
X019125Y005833D01*
X019089Y005785D01*
X019091Y005771D01*
X019079Y005750D01*
X019066Y005744D01*
X019045Y005688D01*
X019017Y005635D01*
X019021Y005621D01*
X019012Y005599D01*
X019000Y005591D01*
X018988Y005533D01*
X018967Y005476D01*
X018972Y005463D01*
X018967Y005440D01*
X018957Y005431D01*
X018952Y005371D01*
X018940Y005312D01*
X018947Y005300D01*
X018946Y005276D01*
X018936Y005266D01*
X018941Y005206D01*
X018936Y005146D01*
X018946Y005135D01*
X018947Y005111D01*
X018940Y005099D01*
X018952Y005041D01*
X018957Y004981D01*
X018967Y004972D01*
X018972Y004948D01*
X018967Y004935D01*
X018988Y004879D01*
X019000Y004821D01*
X019012Y004813D01*
X019021Y004790D01*
X019017Y004777D01*
X019045Y004724D01*
X019066Y004668D01*
X019079Y004662D01*
X019091Y004641D01*
X019089Y004627D01*
X019125Y004579D01*
X019153Y004526D01*
X019167Y004522D01*
X019181Y004503D01*
X019181Y004489D01*
X019224Y004446D01*
X019260Y004398D01*
X019274Y004396D01*
X019291Y004379D01*
X019293Y004365D01*
X019341Y004329D01*
X019383Y004287D01*
X019397Y004287D01*
X019417Y004273D01*
X019421Y004259D01*
X019473Y004230D01*
X019521Y004194D01*
X019535Y004196D01*
X019556Y004185D01*
X019562Y004172D01*
X019618Y004151D01*
X019671Y004122D01*
X019685Y004126D01*
X019707Y004118D01*
X019715Y004106D01*
X019774Y004093D01*
X019830Y004072D01*
X019843Y004078D01*
X019866Y004073D01*
X019875Y004062D01*
X019935Y004058D01*
X019994Y004045D01*
X020006Y004053D01*
X020030Y004051D01*
X020040Y004042D01*
X020100Y004046D01*
X020160Y004042D01*
X020171Y004051D01*
X020195Y004053D01*
X020207Y004045D01*
X020265Y004058D01*
X020325Y004062D01*
X020334Y004073D01*
X020358Y004078D01*
X020371Y004072D01*
X020427Y004093D01*
X020486Y004106D01*
X020493Y004118D01*
X020516Y004126D01*
X020529Y004122D01*
X020582Y004151D01*
X020638Y004172D01*
X020644Y004185D01*
X020665Y004196D01*
X020679Y004194D01*
X020727Y004230D01*
X020780Y004259D01*
X020784Y004273D01*
X020803Y004287D01*
X020817Y004287D01*
X020860Y004329D01*
X020908Y004365D01*
X020910Y004379D01*
X020927Y004396D01*
X020941Y004398D01*
X020977Y004446D01*
X021019Y004489D01*
X021019Y004503D01*
X021033Y004522D01*
X021047Y004526D01*
X021076Y004579D01*
X021112Y004627D01*
X021110Y004641D01*
X021121Y004662D01*
X021134Y004668D01*
X021155Y004724D01*
X021184Y004777D01*
X021180Y004790D01*
X021188Y004813D01*
X021200Y004821D01*
X021213Y004879D01*
X021234Y004935D01*
X021228Y004948D01*
X021233Y004972D01*
X021244Y004981D01*
X021248Y005041D01*
X021261Y005099D01*
X021253Y005111D01*
X021255Y005135D01*
X021264Y005146D01*
X021260Y005206D01*
X021264Y005266D01*
X021255Y005276D01*
X021253Y005300D01*
X021261Y005312D01*
X021248Y005371D01*
X021244Y005431D01*
X021233Y005440D01*
X021228Y005463D01*
X021234Y005476D01*
X021213Y005533D01*
X021200Y005591D01*
X021188Y005599D01*
X021180Y005621D01*
X021184Y005635D01*
X021155Y005688D01*
X021134Y005744D01*
X021121Y005750D01*
X021110Y005771D01*
X021112Y005785D01*
X021076Y005833D01*
X021047Y005886D01*
X021033Y005890D01*
X021019Y005909D01*
X021091Y005813D02*
X021317Y005813D01*
X021363Y005715D02*
X021145Y005715D01*
X021182Y005616D02*
X021363Y005616D01*
X021363Y005518D02*
X021219Y005518D01*
X021245Y005419D02*
X021363Y005419D01*
X021363Y005321D02*
X021259Y005321D01*
X021261Y005222D02*
X021363Y005222D01*
X021363Y005124D02*
X021254Y005124D01*
X021247Y005025D02*
X021363Y005025D01*
X021363Y004927D02*
X021231Y004927D01*
X021202Y004828D02*
X021363Y004828D01*
X021363Y004730D02*
X021158Y004730D01*
X021111Y004631D02*
X021363Y004631D01*
X021363Y004533D02*
X021050Y004533D01*
X020967Y004434D02*
X021363Y004434D01*
X021363Y004336D02*
X020868Y004336D01*
X020739Y004237D02*
X021363Y004237D01*
X021363Y004139D02*
X020559Y004139D01*
X021363Y004040D02*
X013313Y004040D01*
X013313Y003942D02*
X021363Y003942D01*
X021363Y003843D02*
X013412Y003843D01*
X013543Y003745D02*
X021363Y003745D01*
X021363Y003646D02*
X013641Y003646D01*
X013689Y003548D02*
X021363Y003548D01*
X021363Y003449D02*
X013730Y003449D01*
X013755Y003351D02*
X021363Y003351D01*
X021363Y003252D02*
X013755Y003252D01*
X013755Y003154D02*
X021363Y003154D01*
X021363Y003055D02*
X013727Y003055D01*
X013686Y002957D02*
X021363Y002957D01*
X021363Y002858D02*
X013632Y002858D01*
X013534Y002760D02*
X021363Y002760D01*
X021363Y002661D02*
X013391Y002661D01*
X013313Y002563D02*
X021363Y002563D01*
X021363Y002464D02*
X013313Y002464D01*
X013313Y002366D02*
X021363Y002366D01*
X021363Y002267D02*
X013313Y002267D01*
X013313Y002169D02*
X021363Y002169D01*
X021363Y002070D02*
X013313Y002070D01*
X013313Y001972D02*
X021363Y001972D01*
X021269Y001873D02*
X013313Y001873D01*
X013313Y001775D02*
X021177Y001775D01*
X021136Y001676D02*
X013313Y001676D01*
X013313Y001578D02*
X021113Y001578D01*
X021113Y001479D02*
X013313Y001479D01*
X013313Y001381D02*
X021113Y001381D01*
X021113Y001282D02*
X013313Y001282D01*
X013313Y001184D02*
X021113Y001184D01*
X021113Y001085D02*
X013313Y001085D01*
X013313Y000987D02*
X021152Y000987D01*
X021208Y000888D02*
X013313Y000888D01*
X013313Y000790D02*
X021307Y000790D01*
X021819Y000790D02*
X022307Y000790D01*
X022208Y000888D02*
X021917Y000888D01*
X021974Y000987D02*
X022152Y000987D01*
X022113Y001085D02*
X022013Y001085D01*
X022013Y001184D02*
X022113Y001184D01*
X022113Y001282D02*
X022013Y001282D01*
X022013Y001381D02*
X022113Y001381D01*
X022113Y001479D02*
X022013Y001479D01*
X022013Y001578D02*
X022113Y001578D01*
X022136Y001676D02*
X021989Y001676D01*
X021949Y001775D02*
X022177Y001775D01*
X022269Y001873D02*
X021856Y001873D01*
X021763Y001972D02*
X022363Y001972D01*
X022363Y002070D02*
X021763Y002070D01*
X021763Y002169D02*
X022363Y002169D01*
X022363Y002267D02*
X021763Y002267D01*
X021763Y002366D02*
X022363Y002366D01*
X022363Y002464D02*
X021763Y002464D01*
X021763Y002563D02*
X022363Y002563D01*
X022363Y002661D02*
X021763Y002661D01*
X021763Y002760D02*
X022363Y002760D01*
X022363Y002858D02*
X021763Y002858D01*
X021763Y002957D02*
X022363Y002957D01*
X022363Y003055D02*
X021763Y003055D01*
X021763Y003154D02*
X022363Y003154D01*
X022363Y003252D02*
X021763Y003252D01*
X021763Y003351D02*
X022363Y003351D01*
X022363Y003449D02*
X021763Y003449D01*
X021763Y003548D02*
X022363Y003548D01*
X022363Y003646D02*
X021763Y003646D01*
X021763Y003745D02*
X022363Y003745D01*
X022363Y003843D02*
X021763Y003843D01*
X021763Y003942D02*
X022363Y003942D01*
X022363Y004040D02*
X021763Y004040D01*
X021763Y004139D02*
X022363Y004139D01*
X022363Y004237D02*
X021763Y004237D01*
X021763Y004336D02*
X022363Y004336D01*
X022363Y004434D02*
X021763Y004434D01*
X021763Y004533D02*
X022363Y004533D01*
X022363Y004631D02*
X021763Y004631D01*
X021763Y004730D02*
X022363Y004730D01*
X022363Y004828D02*
X021763Y004828D01*
X021763Y004927D02*
X022363Y004927D01*
X022363Y005025D02*
X021763Y005025D01*
X021763Y005124D02*
X022363Y005124D01*
X022363Y005222D02*
X021763Y005222D01*
X021763Y005321D02*
X022309Y005321D01*
X022211Y005419D02*
X021763Y005419D01*
X021763Y005518D02*
X022112Y005518D01*
X022014Y005616D02*
X021763Y005616D01*
X021763Y005715D02*
X021915Y005715D01*
X021817Y005813D02*
X021763Y005813D01*
X021120Y006010D02*
X020943Y006010D01*
X021021Y006109D02*
X020834Y006109D01*
X020923Y006207D02*
X020693Y006207D01*
X020896Y006306D02*
X020486Y006306D01*
X020896Y006404D02*
X013313Y006404D01*
X013313Y006306D02*
X019715Y006306D01*
X019507Y006207D02*
X013313Y006207D01*
X013313Y006109D02*
X019367Y006109D01*
X019257Y006010D02*
X013313Y006010D01*
X013313Y005912D02*
X019181Y005912D01*
X019110Y005813D02*
X013313Y005813D01*
X013313Y005715D02*
X019055Y005715D01*
X019019Y005616D02*
X013313Y005616D01*
X013313Y005518D02*
X018982Y005518D01*
X018956Y005419D02*
X013313Y005419D01*
X013313Y005321D02*
X018941Y005321D01*
X018939Y005222D02*
X013313Y005222D01*
X013313Y005124D02*
X018946Y005124D01*
X018953Y005025D02*
X013313Y005025D01*
X013313Y004927D02*
X018970Y004927D01*
X018999Y004828D02*
X013313Y004828D01*
X013313Y004730D02*
X019042Y004730D01*
X019089Y004631D02*
X013313Y004631D01*
X013313Y004533D02*
X019150Y004533D01*
X019233Y004434D02*
X013313Y004434D01*
X013313Y004336D02*
X019333Y004336D01*
X019461Y004237D02*
X013313Y004237D01*
X013313Y004139D02*
X019641Y004139D01*
X020896Y006503D02*
X013313Y006503D01*
X013313Y006601D02*
X020896Y006601D01*
X020896Y006700D02*
X013313Y006700D01*
X013313Y006798D02*
X020896Y006798D01*
X020896Y006897D02*
X013313Y006897D01*
X013313Y006995D02*
X020896Y006995D01*
X020896Y007094D02*
X013313Y007094D01*
X013313Y007192D02*
X020896Y007192D01*
X023013Y001282D02*
X023113Y001282D01*
X023113Y001184D02*
X023013Y001184D01*
X023013Y001085D02*
X023113Y001085D01*
X023152Y000987D02*
X022974Y000987D01*
X022917Y000888D02*
X023208Y000888D01*
X023307Y000790D02*
X022819Y000790D01*
X030563Y000691D02*
X013313Y000691D01*
X013313Y000593D02*
X030563Y000593D01*
X030563Y000494D02*
X013313Y000494D01*
X013313Y000396D02*
X030563Y000396D01*
D22*
X025313Y005200D03*
X025313Y005850D03*
X025313Y006850D03*
X024213Y008250D03*
X023313Y010100D03*
X021463Y010350D03*
X021063Y009850D03*
X020963Y010900D03*
X021563Y012100D03*
X023313Y011850D03*
X027313Y013850D03*
X022363Y014900D03*
X016713Y013600D03*
X016163Y013450D03*
X014663Y012800D03*
X013663Y014000D03*
X012313Y013850D03*
X012313Y014850D03*
X013313Y015350D03*
X013213Y015950D03*
X012313Y015600D03*
X012313Y016350D03*
X011563Y016350D03*
X010813Y016350D03*
X010813Y015600D03*
X010813Y014850D03*
X010563Y014000D03*
X009963Y013750D03*
X010563Y013450D03*
X010513Y012350D03*
X011463Y012000D03*
X008713Y013450D03*
X008163Y013450D03*
X007613Y013450D03*
X007613Y014000D03*
X008163Y014000D03*
X008013Y014750D03*
X007613Y015050D03*
X006913Y015900D03*
X006913Y016600D03*
X004513Y016050D03*
X000763Y010350D03*
X002063Y008850D03*
X014413Y011150D03*
X015813Y010850D03*
X015813Y011450D03*
X017463Y010600D03*
X019513Y008250D03*
D23*
X010563Y013450D02*
X009563Y012500D01*
X004313Y012500D01*
X004313Y013500D01*
X004313Y014506D01*
X004313Y013500D02*
X002063Y013506D01*
X001563Y013900D01*
D24*
X003556Y014756D02*
X004313Y014756D01*
X004313Y014506D01*
X002913Y015550D02*
X002713Y015350D01*
X002063Y015350D01*
X001869Y015544D01*
X001563Y015544D01*
X001563Y016400D01*
X002913Y015550D02*
X003556Y015544D01*
X004513Y015544D01*
X004513Y016050D01*
X004513Y015544D02*
X006913Y015544D01*
X006913Y015900D01*
D25*
X013720Y007056D03*
X013570Y005806D03*
X015120Y004006D03*
X016020Y004006D03*
X016770Y003516D03*
X017150Y002666D03*
X018070Y002666D03*
X019090Y002666D03*
X020720Y002756D03*
X020820Y004006D03*
X019120Y004156D03*
X018070Y004156D03*
X020320Y001456D03*
X019120Y001046D03*
X018080Y001046D03*
X016970Y001046D03*
X016120Y001296D03*
X015150Y001286D03*
X013820Y000806D03*
D26*
X022355Y013390D02*
X022363Y013390D01*
X022363Y014900D01*
M02*
