%
M48
M72
T01C0.0236
T02C0.0240
T03C0.0315
T04C0.0354
T05C0.0400
T06C0.0500
T07C0.0512
T08C0.0700
%
T01
X2063Y8850
X763Y10350
X7613Y13450
X8163Y13450
X8713Y13450
X8163Y14000
X7613Y14000
X8013Y14750
X7613Y15050
X6913Y15900
X6913Y16600
X4513Y16050
X9963Y13750
X10563Y14000
X10563Y13450
X12313Y13850
X13663Y14000
X12313Y14850
X13313Y15350
X13213Y15950
X12313Y15600
X12313Y16350
X11563Y16350
X10813Y16350
X10813Y15600
X10813Y14850
X14663Y12800
X16163Y13450
X16713Y13600
X19963Y13200
X19963Y14000
X22363Y14900
X27313Y13850
X23313Y11850
X21563Y12100
X20963Y10900
X21463Y10350
X21063Y9850
X23313Y10100
X24613Y8850
X19513Y8250
X17463Y10600
X15813Y10850
X15813Y11450
X14413Y11150
X11463Y12000
X10513Y12350
X30813Y9600
X30563Y6600
X30563Y5600
X30563Y4600
T02
X20820Y4006
X19120Y4156
X18070Y4156
X16770Y3516
X16020Y4006
X15120Y4006
X17150Y2666
X18070Y2666
X19090Y2666
X20720Y2756
X20320Y1456
X19120Y1046
X18080Y1046
X16970Y1046
X16120Y1296
X15150Y1286
X13820Y806
X13570Y5806
X13720Y7056
T03
X32563Y14350
X33563Y14350
T04
X2463Y14284
X2463Y16016
T05
X14255Y15444
X15255Y15444
X15255Y14444
X14255Y14444
X14255Y13444
X15255Y13444
X21563Y16350
X22563Y16350
X23563Y16350
X24563Y16350
X25563Y16350
X26563Y16350
X27563Y16350
X28563Y16350
X29563Y16350
X30563Y16350
X31563Y16350
X32563Y16350
X33563Y16350
X33563Y12350
X32563Y12350
X32563Y1350
X31563Y1350
X30563Y1350
X29563Y1350
X28563Y1350
X27563Y1350
X26563Y1350
X25563Y1350
X24563Y1350
X23563Y1350
X22563Y1350
X21563Y1350
X33563Y1350
T06
X13090Y3256
T07
X2405Y7306
X10405Y11306
T08
X12086Y2252
X14094Y2252
X14094Y4260
X12086Y4260
M30
