G75*
G70*
%OFA0B0*%
%FSLAX24Y24*%
%IPPOS*%
%LPD*%
%AMOC8*
5,1,8,0,0,1.08239X$1,22.5*
%
%ADD10C,0.0000*%
%ADD11C,0.0060*%
%ADD12C,0.0030*%
%ADD13C,0.0080*%
%ADD14C,0.0100*%
%ADD15C,0.0050*%
%ADD16C,0.0010*%
%ADD17C,0.0040*%
%ADD18R,0.1673X0.0187*%
%ADD19C,0.0020*%
D10*
X000313Y000100D02*
X000313Y017600D01*
X034563Y017600D01*
X034563Y000100D01*
X000313Y000100D01*
X002149Y007306D02*
X002151Y007337D01*
X002157Y007368D01*
X002166Y007398D01*
X002179Y007427D01*
X002196Y007454D01*
X002216Y007478D01*
X002238Y007500D01*
X002264Y007519D01*
X002291Y007535D01*
X002320Y007547D01*
X002350Y007556D01*
X002381Y007561D01*
X002413Y007562D01*
X002444Y007559D01*
X002475Y007552D01*
X002505Y007542D01*
X002533Y007528D01*
X002559Y007510D01*
X002583Y007490D01*
X002604Y007466D01*
X002623Y007441D01*
X002638Y007413D01*
X002649Y007384D01*
X002657Y007353D01*
X002661Y007322D01*
X002661Y007290D01*
X002657Y007259D01*
X002649Y007228D01*
X002638Y007199D01*
X002623Y007171D01*
X002604Y007146D01*
X002583Y007122D01*
X002559Y007102D01*
X002533Y007084D01*
X002505Y007070D01*
X002475Y007060D01*
X002444Y007053D01*
X002413Y007050D01*
X002381Y007051D01*
X002350Y007056D01*
X002320Y007065D01*
X002291Y007077D01*
X002264Y007093D01*
X002238Y007112D01*
X002216Y007134D01*
X002196Y007158D01*
X002179Y007185D01*
X002166Y007214D01*
X002157Y007244D01*
X002151Y007275D01*
X002149Y007306D01*
X010149Y011306D02*
X010151Y011337D01*
X010157Y011368D01*
X010166Y011398D01*
X010179Y011427D01*
X010196Y011454D01*
X010216Y011478D01*
X010238Y011500D01*
X010264Y011519D01*
X010291Y011535D01*
X010320Y011547D01*
X010350Y011556D01*
X010381Y011561D01*
X010413Y011562D01*
X010444Y011559D01*
X010475Y011552D01*
X010505Y011542D01*
X010533Y011528D01*
X010559Y011510D01*
X010583Y011490D01*
X010604Y011466D01*
X010623Y011441D01*
X010638Y011413D01*
X010649Y011384D01*
X010657Y011353D01*
X010661Y011322D01*
X010661Y011290D01*
X010657Y011259D01*
X010649Y011228D01*
X010638Y011199D01*
X010623Y011171D01*
X010604Y011146D01*
X010583Y011122D01*
X010559Y011102D01*
X010533Y011084D01*
X010505Y011070D01*
X010475Y011060D01*
X010444Y011053D01*
X010413Y011050D01*
X010381Y011051D01*
X010350Y011056D01*
X010320Y011065D01*
X010291Y011077D01*
X010264Y011093D01*
X010238Y011112D01*
X010216Y011134D01*
X010196Y011158D01*
X010179Y011185D01*
X010166Y011214D01*
X010157Y011244D01*
X010151Y011275D01*
X010149Y011306D01*
X002286Y014284D02*
X002288Y014310D01*
X002294Y014336D01*
X002304Y014361D01*
X002317Y014384D01*
X002333Y014404D01*
X002353Y014422D01*
X002375Y014437D01*
X002398Y014449D01*
X002424Y014457D01*
X002450Y014461D01*
X002476Y014461D01*
X002502Y014457D01*
X002528Y014449D01*
X002552Y014437D01*
X002573Y014422D01*
X002593Y014404D01*
X002609Y014384D01*
X002622Y014361D01*
X002632Y014336D01*
X002638Y014310D01*
X002640Y014284D01*
X002638Y014258D01*
X002632Y014232D01*
X002622Y014207D01*
X002609Y014184D01*
X002593Y014164D01*
X002573Y014146D01*
X002551Y014131D01*
X002528Y014119D01*
X002502Y014111D01*
X002476Y014107D01*
X002450Y014107D01*
X002424Y014111D01*
X002398Y014119D01*
X002374Y014131D01*
X002353Y014146D01*
X002333Y014164D01*
X002317Y014184D01*
X002304Y014207D01*
X002294Y014232D01*
X002288Y014258D01*
X002286Y014284D01*
X002286Y016016D02*
X002288Y016042D01*
X002294Y016068D01*
X002304Y016093D01*
X002317Y016116D01*
X002333Y016136D01*
X002353Y016154D01*
X002375Y016169D01*
X002398Y016181D01*
X002424Y016189D01*
X002450Y016193D01*
X002476Y016193D01*
X002502Y016189D01*
X002528Y016181D01*
X002552Y016169D01*
X002573Y016154D01*
X002593Y016136D01*
X002609Y016116D01*
X002622Y016093D01*
X002632Y016068D01*
X002638Y016042D01*
X002640Y016016D01*
X002638Y015990D01*
X002632Y015964D01*
X002622Y015939D01*
X002609Y015916D01*
X002593Y015896D01*
X002573Y015878D01*
X002551Y015863D01*
X002528Y015851D01*
X002502Y015843D01*
X002476Y015839D01*
X002450Y015839D01*
X002424Y015843D01*
X002398Y015851D01*
X002374Y015863D01*
X002353Y015878D01*
X002333Y015896D01*
X002317Y015916D01*
X002304Y015939D01*
X002294Y015964D01*
X002288Y015990D01*
X002286Y016016D01*
D11*
X021063Y016100D02*
X021313Y015850D01*
X021813Y015850D01*
X022063Y016100D01*
X022313Y015850D01*
X022813Y015850D01*
X023063Y016100D01*
X023313Y015850D01*
X023813Y015850D01*
X024063Y016100D01*
X024063Y016600D01*
X023813Y016850D01*
X023313Y016850D01*
X023063Y016600D01*
X023063Y016100D01*
X023063Y016600D02*
X022813Y016850D01*
X022313Y016850D01*
X022063Y016600D01*
X022063Y016100D01*
X022063Y016600D02*
X021813Y016850D01*
X021313Y016850D01*
X021063Y016600D01*
X021063Y016100D01*
X024063Y016100D02*
X024313Y015850D01*
X024813Y015850D01*
X025063Y016100D01*
X025313Y015850D01*
X025813Y015850D01*
X026063Y016100D01*
X026063Y016600D01*
X025813Y016850D01*
X025313Y016850D01*
X025063Y016600D01*
X025063Y016100D01*
X025063Y016600D02*
X024813Y016850D01*
X024313Y016850D01*
X024063Y016600D01*
X024063Y016100D01*
X026063Y016100D02*
X026313Y015850D01*
X026813Y015850D01*
X027063Y016100D01*
X027313Y015850D01*
X027813Y015850D01*
X028063Y016100D01*
X028313Y015850D01*
X028813Y015850D01*
X029063Y016100D01*
X029063Y016600D01*
X028813Y016850D01*
X028313Y016850D01*
X028063Y016600D01*
X028063Y016100D01*
X027063Y016100D02*
X027063Y016600D01*
X027313Y016850D01*
X027813Y016850D01*
X028063Y016600D01*
X027063Y016600D02*
X026813Y016850D01*
X026313Y016850D01*
X026063Y016600D01*
X029063Y016600D02*
X029313Y016850D01*
X029813Y016850D01*
X030063Y016600D01*
X030313Y016850D01*
X030813Y016850D01*
X031063Y016600D01*
X031313Y016850D01*
X031813Y016850D01*
X032063Y016600D01*
X032313Y016850D01*
X032813Y016850D01*
X033063Y016600D01*
X033313Y016850D01*
X033813Y016850D01*
X034063Y016600D01*
X034063Y016100D01*
X033813Y015850D01*
X033313Y015850D01*
X033063Y016100D01*
X032813Y015850D01*
X032313Y015850D01*
X032063Y016100D01*
X032063Y016600D01*
X032063Y016100D01*
X031813Y015850D01*
X031313Y015850D01*
X031063Y016100D01*
X030813Y015850D01*
X030313Y015850D01*
X030063Y016100D01*
X029813Y015850D01*
X029313Y015850D01*
X029063Y016100D01*
X030063Y016100D02*
X030063Y016600D01*
X031063Y016600D02*
X031063Y016100D01*
X033063Y016100D02*
X033063Y016600D01*
X033313Y012850D02*
X033813Y012850D01*
X034063Y012600D01*
X034063Y012100D01*
X033813Y011850D01*
X033313Y011850D01*
X033063Y012100D01*
X032813Y011850D01*
X032313Y011850D01*
X032063Y012100D01*
X032063Y012600D01*
X032313Y012850D01*
X032813Y012850D01*
X033063Y012600D01*
X033313Y012850D01*
X033063Y012600D02*
X033063Y012100D01*
X033313Y001850D02*
X033813Y001850D01*
X034063Y001600D01*
X034063Y001100D01*
X033813Y000850D01*
X033313Y000850D01*
X033063Y001100D01*
X032813Y000850D01*
X032313Y000850D01*
X032063Y001100D01*
X032063Y001600D01*
X032313Y001850D01*
X032813Y001850D01*
X033063Y001600D01*
X033313Y001850D01*
X033063Y001600D02*
X033063Y001100D01*
X032063Y001100D02*
X032063Y001600D01*
X031813Y001850D01*
X031313Y001850D01*
X031063Y001600D01*
X031063Y001100D01*
X031313Y000850D01*
X031813Y000850D01*
X032063Y001100D01*
X031063Y001100D02*
X030813Y000850D01*
X030313Y000850D01*
X030063Y001100D01*
X029813Y000850D01*
X029313Y000850D01*
X029063Y001100D01*
X028813Y000850D01*
X028313Y000850D01*
X028063Y001100D01*
X027813Y000850D01*
X027313Y000850D01*
X027063Y001100D01*
X026813Y000850D01*
X026313Y000850D01*
X026063Y001100D01*
X025813Y000850D01*
X025313Y000850D01*
X025063Y001100D01*
X025063Y001600D01*
X025313Y001850D01*
X025813Y001850D01*
X026063Y001600D01*
X026313Y001850D01*
X026813Y001850D01*
X027063Y001600D01*
X027313Y001850D01*
X027813Y001850D01*
X028063Y001600D01*
X028063Y001100D01*
X028063Y001600D01*
X028313Y001850D01*
X028813Y001850D01*
X029063Y001600D01*
X029313Y001850D01*
X029813Y001850D01*
X030063Y001600D01*
X030063Y001100D01*
X030063Y001600D02*
X030313Y001850D01*
X030813Y001850D01*
X031063Y001600D01*
X029063Y001600D02*
X029063Y001100D01*
X027063Y001100D02*
X027063Y001600D01*
X026063Y001600D02*
X026063Y001100D01*
X025063Y001100D02*
X025063Y001600D01*
X024813Y001850D01*
X024313Y001850D01*
X024063Y001600D01*
X024063Y001100D01*
X024313Y000850D01*
X024813Y000850D01*
X025063Y001100D01*
X024063Y001100D02*
X023813Y000850D01*
X023313Y000850D01*
X023063Y001100D01*
X022813Y000850D01*
X022313Y000850D01*
X022063Y001100D01*
X021813Y000850D01*
X021313Y000850D01*
X021063Y001100D01*
X021063Y001600D01*
X021313Y001850D01*
X021813Y001850D01*
X022063Y001600D01*
X022313Y001850D01*
X022813Y001850D01*
X023063Y001600D01*
X023063Y001100D01*
X023063Y001600D02*
X023313Y001850D01*
X023813Y001850D01*
X024063Y001600D01*
X022063Y001600D02*
X022063Y001100D01*
X010544Y003194D02*
X010117Y003194D01*
X010117Y003300D02*
X010223Y003407D01*
X010437Y003407D01*
X010544Y003300D01*
X010544Y003194D01*
X010223Y002980D02*
X010117Y003087D01*
X010117Y003300D01*
X010223Y002980D02*
X010437Y002980D01*
X009900Y002980D02*
X009687Y002980D01*
X009794Y002980D02*
X009794Y003621D01*
X009687Y003621D01*
X009469Y003407D02*
X009469Y002980D01*
X009149Y002980D01*
X009042Y003087D01*
X009042Y003407D01*
X008825Y003407D02*
X008504Y003407D01*
X008398Y003300D01*
X008398Y003087D01*
X008504Y002980D01*
X008825Y002980D01*
X008825Y003621D01*
X008180Y003300D02*
X008073Y003407D01*
X007860Y003407D01*
X007753Y003300D01*
X007753Y003087D01*
X007860Y002980D01*
X008073Y002980D01*
X008180Y003087D01*
X008180Y003300D01*
X007536Y003621D02*
X007536Y002980D01*
X007109Y002980D02*
X007109Y003621D01*
X007322Y003407D01*
X007536Y003621D01*
X006247Y003300D02*
X006247Y003194D01*
X005820Y003194D01*
X005820Y003300D02*
X005926Y003407D01*
X006140Y003407D01*
X006247Y003300D01*
X006140Y002980D02*
X005926Y002980D01*
X005820Y003087D01*
X005820Y003300D01*
X005602Y003300D02*
X005602Y002980D01*
X005602Y003300D02*
X005495Y003407D01*
X005175Y003407D01*
X005175Y002980D01*
X004957Y003087D02*
X004957Y003300D01*
X004851Y003407D01*
X004637Y003407D01*
X004530Y003300D01*
X004530Y003087D01*
X004637Y002980D01*
X004851Y002980D01*
X004957Y003087D01*
X004313Y002980D02*
X004313Y003300D01*
X004206Y003407D01*
X003993Y003407D01*
X003886Y003300D01*
X003668Y003300D02*
X003668Y003087D01*
X003562Y002980D01*
X003241Y002980D01*
X003241Y002766D02*
X003241Y003407D01*
X003562Y003407D01*
X003668Y003300D01*
X003886Y002980D02*
X003886Y003621D01*
X002918Y003621D02*
X002918Y002980D01*
X002812Y002980D02*
X003025Y002980D01*
X003133Y002677D02*
X003133Y002571D01*
X003133Y002357D02*
X003026Y002357D01*
X003133Y002357D02*
X003133Y001930D01*
X003026Y001930D02*
X003240Y001930D01*
X003456Y002037D02*
X003456Y002250D01*
X003563Y002357D01*
X003883Y002357D01*
X003883Y002571D02*
X003883Y001930D01*
X003563Y001930D01*
X003456Y002037D01*
X002809Y002357D02*
X002595Y001930D01*
X002382Y002357D01*
X002164Y002250D02*
X002164Y001930D01*
X001844Y001930D01*
X001737Y002037D01*
X001844Y002144D01*
X002164Y002144D01*
X002164Y002250D02*
X002058Y002357D01*
X001844Y002357D01*
X001520Y002464D02*
X001413Y002571D01*
X001093Y002571D01*
X001093Y001930D01*
X001413Y001930D01*
X001520Y002037D01*
X001520Y002464D01*
X001413Y002980D02*
X001200Y002980D01*
X001093Y003087D01*
X001093Y003514D01*
X001200Y003621D01*
X001413Y003621D01*
X001520Y003514D01*
X001737Y003300D02*
X001844Y003407D01*
X002058Y003407D01*
X002164Y003300D01*
X002164Y003194D01*
X001737Y003194D01*
X001737Y003300D02*
X001737Y003087D01*
X001844Y002980D01*
X002058Y002980D01*
X002382Y002980D02*
X002595Y002980D01*
X002489Y002980D02*
X002489Y003621D01*
X002382Y003621D01*
X002812Y003621D02*
X002918Y003621D01*
X001520Y003087D02*
X001413Y002980D01*
X001413Y001521D02*
X001200Y001521D01*
X001093Y001414D01*
X001093Y000987D01*
X001200Y000880D01*
X001413Y000880D01*
X001520Y000987D01*
X001520Y001414D01*
X001413Y001521D01*
X001737Y001200D02*
X001844Y001307D01*
X002164Y001307D01*
X002382Y001307D02*
X002595Y001307D01*
X002489Y001414D02*
X002489Y000987D01*
X002595Y000880D01*
X002812Y000880D02*
X002812Y000987D01*
X002918Y000987D01*
X002918Y000880D01*
X002812Y000880D01*
X002164Y000880D02*
X001844Y000880D01*
X001737Y000987D01*
X001737Y001200D01*
X003778Y001414D02*
X003885Y001521D01*
X004099Y001521D01*
X004205Y001414D01*
X004205Y001307D01*
X003778Y000880D01*
X004205Y000880D01*
X004423Y000987D02*
X004530Y000880D01*
X004743Y000880D01*
X004850Y000987D01*
X004850Y001414D01*
X004743Y001521D01*
X004530Y001521D01*
X004423Y001414D01*
X004423Y001307D01*
X004530Y001200D01*
X004850Y001200D01*
X005174Y000987D02*
X005174Y000880D01*
X005281Y000880D01*
X005281Y000987D01*
X005174Y000987D01*
X005281Y000880D02*
X005068Y000666D01*
X006142Y000880D02*
X006569Y001307D01*
X006569Y001414D01*
X006462Y001521D01*
X006249Y001521D01*
X006142Y001414D01*
X006786Y001414D02*
X006786Y000987D01*
X007213Y001414D01*
X007213Y000987D01*
X007107Y000880D01*
X006893Y000880D01*
X006786Y000987D01*
X006569Y000880D02*
X006142Y000880D01*
X006786Y001414D02*
X006893Y001521D01*
X007107Y001521D01*
X007213Y001414D01*
X007431Y001307D02*
X007644Y001521D01*
X007644Y000880D01*
X007431Y000880D02*
X007858Y000880D01*
X008075Y000987D02*
X008182Y000880D01*
X008396Y000880D01*
X008502Y000987D01*
X008502Y001094D01*
X008396Y001200D01*
X008289Y001200D01*
X008396Y001200D02*
X008502Y001307D01*
X008502Y001414D01*
X008396Y001521D01*
X008182Y001521D01*
X008075Y001414D01*
X008075Y001930D02*
X008289Y001930D01*
X008182Y001930D02*
X008182Y002571D01*
X008075Y002571D01*
X007753Y002571D02*
X007753Y001930D01*
X007859Y001930D02*
X007646Y001930D01*
X007321Y001930D02*
X007108Y001930D01*
X007001Y002037D01*
X007001Y002250D01*
X007108Y002357D01*
X007321Y002357D01*
X007428Y002250D01*
X007428Y002144D01*
X007001Y002144D01*
X006784Y001930D02*
X006784Y002571D01*
X006570Y002357D01*
X006357Y002571D01*
X006357Y001930D01*
X005497Y001930D02*
X005390Y001930D01*
X005390Y002037D01*
X005497Y002037D01*
X005497Y001930D01*
X005172Y001930D02*
X005172Y002357D01*
X004959Y002571D01*
X004745Y002357D01*
X004745Y001930D01*
X004745Y002250D02*
X005172Y002250D01*
X007646Y002571D02*
X007753Y002571D01*
X008505Y002357D02*
X008612Y002357D01*
X008612Y001930D01*
X008505Y001930D02*
X008719Y001930D01*
X008935Y001930D02*
X009255Y001930D01*
X009362Y002037D01*
X009255Y002144D01*
X009042Y002144D01*
X008935Y002250D01*
X009042Y002357D01*
X009362Y002357D01*
X008612Y002571D02*
X008612Y002677D01*
D12*
X016658Y008612D02*
X016948Y008612D01*
X016948Y008708D02*
X016948Y008515D01*
X016754Y008515D02*
X016658Y008612D01*
X016706Y008810D02*
X016754Y008810D01*
X016803Y008858D01*
X016803Y008955D01*
X016851Y009003D01*
X016899Y009003D01*
X016948Y008955D01*
X016948Y008858D01*
X016899Y008810D01*
X016851Y008810D01*
X016803Y008858D01*
X016803Y008955D02*
X016754Y009003D01*
X016706Y009003D01*
X016658Y008955D01*
X016658Y008858D01*
X016706Y008810D01*
X016754Y009104D02*
X016754Y009249D01*
X016803Y009298D01*
X016899Y009298D01*
X016948Y009249D01*
X016948Y009104D01*
X017045Y009104D02*
X016754Y009104D01*
X016803Y009399D02*
X016803Y009496D01*
X016948Y009399D02*
X016658Y009399D01*
X016658Y009592D01*
X019028Y010135D02*
X019028Y010232D01*
X019076Y010280D01*
X019124Y010280D01*
X019173Y010232D01*
X019173Y010135D01*
X019124Y010086D01*
X019076Y010086D01*
X019028Y010135D01*
X019173Y010135D02*
X019221Y010086D01*
X019269Y010086D01*
X019318Y010135D01*
X019318Y010232D01*
X019269Y010280D01*
X019221Y010280D01*
X019173Y010232D01*
X019318Y010381D02*
X019028Y010381D01*
X019124Y010478D01*
X019028Y010575D01*
X019318Y010575D01*
X019318Y010676D02*
X019028Y010676D01*
X019173Y010676D02*
X019173Y010869D01*
X019269Y010970D02*
X019318Y010970D01*
X019318Y011164D01*
X019269Y010970D02*
X019076Y011164D01*
X019028Y011164D01*
X019028Y010970D01*
X019028Y010869D02*
X019318Y010869D01*
X017065Y012026D02*
X016774Y012026D01*
X016774Y012171D01*
X016823Y012219D01*
X016919Y012219D01*
X016968Y012171D01*
X016968Y012026D01*
X016919Y011925D02*
X016968Y011876D01*
X016968Y011779D01*
X016919Y011731D01*
X016871Y011731D01*
X016823Y011779D01*
X016823Y011876D01*
X016871Y011925D01*
X016919Y011925D01*
X016823Y011876D02*
X016774Y011925D01*
X016726Y011925D01*
X016678Y011876D01*
X016678Y011779D01*
X016726Y011731D01*
X016774Y011731D01*
X016823Y011779D01*
X016968Y011630D02*
X016968Y011436D01*
X016968Y011533D02*
X016678Y011533D01*
X016774Y011436D01*
X016823Y012320D02*
X016823Y012417D01*
X016968Y012320D02*
X016678Y012320D01*
X016678Y012514D01*
X017320Y013808D02*
X017272Y013856D01*
X017465Y014049D01*
X017465Y013856D01*
X017417Y013808D01*
X017320Y013808D01*
X017272Y013856D02*
X017272Y014049D01*
X017320Y014098D01*
X017417Y014098D01*
X017465Y014049D01*
X017566Y013856D02*
X017615Y013856D01*
X017615Y013808D01*
X017566Y013808D01*
X017566Y013856D01*
X017714Y013808D02*
X017907Y013808D01*
X017810Y013808D02*
X017810Y014098D01*
X017714Y014001D01*
X018303Y014001D02*
X018303Y013856D01*
X018351Y013808D01*
X018496Y013808D01*
X018496Y014001D01*
X018597Y013953D02*
X018694Y013953D01*
X018597Y013808D02*
X018597Y014098D01*
X018791Y014098D01*
X021671Y017115D02*
X021622Y017163D01*
X021671Y017115D02*
X021768Y017115D01*
X021816Y017163D01*
X021816Y017260D01*
X021768Y017308D01*
X021719Y017308D01*
X021622Y017260D01*
X021622Y017405D01*
X021816Y017405D01*
X022622Y017260D02*
X022622Y017163D01*
X022671Y017115D01*
X022768Y017115D01*
X022816Y017163D01*
X022816Y017212D01*
X022768Y017260D01*
X022622Y017260D01*
X022719Y017357D01*
X022816Y017405D01*
X023622Y017405D02*
X023816Y017405D01*
X023816Y017357D01*
X023622Y017163D01*
X023622Y017115D01*
X024328Y017163D02*
X024376Y017115D01*
X024473Y017115D01*
X024521Y017163D01*
X024521Y017212D01*
X024473Y017260D01*
X024425Y017260D01*
X024473Y017260D02*
X024521Y017308D01*
X024521Y017357D01*
X024473Y017405D01*
X024376Y017405D01*
X024328Y017357D01*
X024622Y017308D02*
X024719Y017405D01*
X024719Y017115D01*
X024622Y017115D02*
X024816Y017115D01*
X025328Y017163D02*
X025376Y017115D01*
X025473Y017115D01*
X025521Y017163D01*
X025521Y017212D01*
X025473Y017260D01*
X025425Y017260D01*
X025473Y017260D02*
X025521Y017308D01*
X025521Y017357D01*
X025473Y017405D01*
X025376Y017405D01*
X025328Y017357D01*
X025622Y017357D02*
X025671Y017405D01*
X025768Y017405D01*
X025816Y017357D01*
X025622Y017163D01*
X025671Y017115D01*
X025768Y017115D01*
X025816Y017163D01*
X025816Y017357D01*
X025622Y017357D02*
X025622Y017163D01*
X026328Y017115D02*
X026521Y017308D01*
X026521Y017357D01*
X026473Y017405D01*
X026376Y017405D01*
X026328Y017357D01*
X026328Y017115D02*
X026521Y017115D01*
X026622Y017163D02*
X026671Y017115D01*
X026768Y017115D01*
X026816Y017163D01*
X026816Y017357D01*
X026768Y017405D01*
X026671Y017405D01*
X026622Y017357D01*
X026622Y017308D01*
X026671Y017260D01*
X026816Y017260D01*
X027328Y017357D02*
X027376Y017405D01*
X027473Y017405D01*
X027521Y017357D01*
X027521Y017308D01*
X027328Y017115D01*
X027521Y017115D01*
X027622Y017163D02*
X027622Y017212D01*
X027671Y017260D01*
X027768Y017260D01*
X027816Y017212D01*
X027816Y017163D01*
X027768Y017115D01*
X027671Y017115D01*
X027622Y017163D01*
X027671Y017260D02*
X027622Y017308D01*
X027622Y017357D01*
X027671Y017405D01*
X027768Y017405D01*
X027816Y017357D01*
X027816Y017308D01*
X027768Y017260D01*
X028328Y017357D02*
X028376Y017405D01*
X028473Y017405D01*
X028521Y017357D01*
X028521Y017308D01*
X028328Y017115D01*
X028521Y017115D01*
X028622Y017115D02*
X028622Y017163D01*
X028816Y017357D01*
X028816Y017405D01*
X028622Y017405D01*
X029328Y017357D02*
X029376Y017405D01*
X029473Y017405D01*
X029521Y017357D01*
X029521Y017308D01*
X029328Y017115D01*
X029521Y017115D01*
X029622Y017163D02*
X029671Y017115D01*
X029768Y017115D01*
X029816Y017163D01*
X029816Y017212D01*
X029768Y017260D01*
X029622Y017260D01*
X029622Y017163D01*
X029622Y017260D02*
X029719Y017357D01*
X029816Y017405D01*
X030328Y017357D02*
X030376Y017405D01*
X030473Y017405D01*
X030521Y017357D01*
X030521Y017308D01*
X030328Y017115D01*
X030521Y017115D01*
X030622Y017163D02*
X030671Y017115D01*
X030768Y017115D01*
X030816Y017163D01*
X030816Y017260D01*
X030768Y017308D01*
X030719Y017308D01*
X030622Y017260D01*
X030622Y017405D01*
X030816Y017405D01*
X031328Y017357D02*
X031376Y017405D01*
X031473Y017405D01*
X031521Y017357D01*
X031521Y017308D01*
X031328Y017115D01*
X031521Y017115D01*
X031622Y017260D02*
X031816Y017260D01*
X031768Y017115D02*
X031768Y017405D01*
X031622Y017260D01*
X032328Y017212D02*
X032425Y017115D01*
X032521Y017212D01*
X032521Y017405D01*
X032622Y017357D02*
X032622Y017163D01*
X032671Y017115D01*
X032768Y017115D01*
X032816Y017163D01*
X032917Y017163D02*
X032966Y017115D01*
X033062Y017115D01*
X033111Y017163D01*
X032917Y017163D02*
X032917Y017357D01*
X032966Y017405D01*
X033062Y017405D01*
X033111Y017357D01*
X033328Y017357D02*
X033328Y017163D01*
X033376Y017115D01*
X033473Y017115D01*
X033521Y017163D01*
X033521Y017260D01*
X033425Y017260D01*
X033521Y017357D02*
X033473Y017405D01*
X033376Y017405D01*
X033328Y017357D01*
X033622Y017405D02*
X033622Y017115D01*
X033816Y017115D02*
X033816Y017405D01*
X033917Y017405D02*
X034062Y017405D01*
X034111Y017357D01*
X034111Y017163D01*
X034062Y017115D01*
X033917Y017115D01*
X033917Y017405D01*
X033622Y017405D02*
X033816Y017115D01*
X032816Y017357D02*
X032768Y017405D01*
X032671Y017405D01*
X032622Y017357D01*
X032328Y017405D02*
X032328Y017212D01*
X032548Y011625D02*
X032645Y011528D01*
X032741Y011625D01*
X032741Y011335D01*
X032842Y011335D02*
X032939Y011335D01*
X032891Y011335D02*
X032891Y011625D01*
X032939Y011625D02*
X032842Y011625D01*
X033039Y011577D02*
X033039Y011383D01*
X033087Y011335D01*
X033184Y011335D01*
X033232Y011383D01*
X033232Y011577D02*
X033184Y011625D01*
X033087Y011625D01*
X033039Y011577D01*
X032548Y011625D02*
X032548Y011335D01*
X031999Y010558D02*
X032048Y010510D01*
X032048Y010365D01*
X031758Y010365D01*
X031758Y010510D01*
X031806Y010558D01*
X031854Y010558D01*
X031903Y010510D01*
X031903Y010365D01*
X031903Y010510D02*
X031951Y010558D01*
X031999Y010558D01*
X023977Y006985D02*
X023783Y006985D01*
X023783Y006695D01*
X023682Y006695D02*
X023682Y006888D01*
X023783Y006840D02*
X023880Y006840D01*
X023682Y006695D02*
X023537Y006695D01*
X023489Y006743D01*
X023489Y006888D01*
X023387Y006695D02*
X023194Y006695D01*
X023291Y006695D02*
X023291Y006985D01*
X023194Y006888D01*
X023095Y006743D02*
X023095Y006695D01*
X023047Y006695D01*
X023047Y006743D01*
X023095Y006743D01*
X022945Y006743D02*
X022897Y006695D01*
X022800Y006695D01*
X022752Y006743D01*
X022945Y006937D01*
X022945Y006743D01*
X022752Y006743D02*
X022752Y006937D01*
X022800Y006985D01*
X022897Y006985D01*
X022945Y006937D01*
X023037Y009424D02*
X022844Y009424D01*
X023037Y009618D01*
X023037Y009666D01*
X022989Y009715D01*
X022892Y009715D01*
X022844Y009666D01*
X022646Y009715D02*
X022646Y009424D01*
X022742Y009424D02*
X022549Y009424D01*
X022448Y009424D02*
X022448Y009618D01*
X022351Y009715D01*
X022254Y009618D01*
X022254Y009424D01*
X022153Y009473D02*
X022153Y009570D01*
X022056Y009570D01*
X021960Y009666D02*
X021960Y009473D01*
X022008Y009424D01*
X022105Y009424D01*
X022153Y009473D01*
X022254Y009570D02*
X022448Y009570D01*
X022549Y009618D02*
X022646Y009715D01*
X023138Y009666D02*
X023138Y009618D01*
X023187Y009570D01*
X023283Y009570D01*
X023332Y009521D01*
X023332Y009473D01*
X023283Y009424D01*
X023187Y009424D01*
X023138Y009473D01*
X023138Y009521D01*
X023187Y009570D01*
X023283Y009570D02*
X023332Y009618D01*
X023332Y009666D01*
X023283Y009715D01*
X023187Y009715D01*
X023138Y009666D01*
X023433Y009570D02*
X023626Y009570D01*
X023578Y009715D02*
X023578Y009424D01*
X023433Y009570D02*
X023578Y009715D01*
X022153Y009666D02*
X022105Y009715D01*
X022008Y009715D01*
X021960Y009666D01*
X021859Y009715D02*
X021665Y009715D01*
X021665Y009424D01*
X021859Y009424D01*
X021762Y009570D02*
X021665Y009570D01*
X021564Y009715D02*
X021564Y009424D01*
X021370Y009424D02*
X021370Y009715D01*
X021467Y009618D01*
X021564Y009715D01*
X031758Y003760D02*
X031758Y003663D01*
X031806Y003615D01*
X031999Y003615D01*
X032048Y003663D01*
X032048Y003760D01*
X031999Y003808D01*
X031903Y003808D01*
X031903Y003712D01*
X031806Y003808D02*
X031758Y003760D01*
X031768Y000585D02*
X031816Y000537D01*
X031816Y000488D01*
X031768Y000440D01*
X031816Y000392D01*
X031816Y000343D01*
X031768Y000295D01*
X031671Y000295D01*
X031622Y000343D01*
X031521Y000295D02*
X031328Y000295D01*
X031521Y000488D01*
X031521Y000537D01*
X031473Y000585D01*
X031376Y000585D01*
X031328Y000537D01*
X031622Y000537D02*
X031671Y000585D01*
X031768Y000585D01*
X031768Y000440D02*
X031719Y000440D01*
X032328Y000392D02*
X032425Y000295D01*
X032521Y000392D01*
X032521Y000585D01*
X032622Y000537D02*
X032622Y000343D01*
X032671Y000295D01*
X032768Y000295D01*
X032816Y000343D01*
X032917Y000343D02*
X032966Y000295D01*
X033062Y000295D01*
X033111Y000343D01*
X032917Y000343D02*
X032917Y000537D01*
X032966Y000585D01*
X033062Y000585D01*
X033111Y000537D01*
X033328Y000537D02*
X033328Y000343D01*
X033376Y000295D01*
X033473Y000295D01*
X033521Y000343D01*
X033521Y000440D01*
X033425Y000440D01*
X033521Y000537D02*
X033473Y000585D01*
X033376Y000585D01*
X033328Y000537D01*
X033622Y000585D02*
X033816Y000295D01*
X033816Y000585D01*
X033917Y000585D02*
X034062Y000585D01*
X034111Y000537D01*
X034111Y000343D01*
X034062Y000295D01*
X033917Y000295D01*
X033917Y000585D01*
X033622Y000585D02*
X033622Y000295D01*
X032816Y000537D02*
X032768Y000585D01*
X032671Y000585D01*
X032622Y000537D01*
X032328Y000585D02*
X032328Y000392D01*
X030816Y000488D02*
X030622Y000295D01*
X030816Y000295D01*
X030816Y000488D02*
X030816Y000537D01*
X030768Y000585D01*
X030671Y000585D01*
X030622Y000537D01*
X030521Y000537D02*
X030473Y000585D01*
X030376Y000585D01*
X030328Y000537D01*
X030521Y000537D02*
X030521Y000488D01*
X030328Y000295D01*
X030521Y000295D01*
X029816Y000295D02*
X029622Y000295D01*
X029719Y000295D02*
X029719Y000585D01*
X029622Y000488D01*
X029521Y000488D02*
X029521Y000537D01*
X029473Y000585D01*
X029376Y000585D01*
X029328Y000537D01*
X029521Y000488D02*
X029328Y000295D01*
X029521Y000295D01*
X028816Y000343D02*
X028816Y000537D01*
X028622Y000343D01*
X028671Y000295D01*
X028768Y000295D01*
X028816Y000343D01*
X028622Y000343D02*
X028622Y000537D01*
X028671Y000585D01*
X028768Y000585D01*
X028816Y000537D01*
X028521Y000537D02*
X028521Y000488D01*
X028328Y000295D01*
X028521Y000295D01*
X028521Y000537D02*
X028473Y000585D01*
X028376Y000585D01*
X028328Y000537D01*
X027816Y000537D02*
X027816Y000488D01*
X027768Y000440D01*
X027671Y000440D01*
X027622Y000488D01*
X027622Y000537D01*
X027671Y000585D01*
X027768Y000585D01*
X027816Y000537D01*
X027768Y000440D02*
X027816Y000392D01*
X027816Y000343D01*
X027768Y000295D01*
X027671Y000295D01*
X027622Y000343D01*
X027622Y000392D01*
X027671Y000440D01*
X027521Y000295D02*
X027328Y000295D01*
X027425Y000295D02*
X027425Y000585D01*
X027328Y000488D01*
X026816Y000537D02*
X026622Y000343D01*
X026622Y000295D01*
X026521Y000295D02*
X026328Y000295D01*
X026425Y000295D02*
X026425Y000585D01*
X026328Y000488D01*
X026622Y000585D02*
X026816Y000585D01*
X026816Y000537D01*
X025816Y000585D02*
X025719Y000537D01*
X025622Y000440D01*
X025768Y000440D01*
X025816Y000392D01*
X025816Y000343D01*
X025768Y000295D01*
X025671Y000295D01*
X025622Y000343D01*
X025622Y000440D01*
X025521Y000295D02*
X025328Y000295D01*
X025425Y000295D02*
X025425Y000585D01*
X025328Y000488D01*
X024816Y000440D02*
X024816Y000343D01*
X024768Y000295D01*
X024671Y000295D01*
X024622Y000343D01*
X024622Y000440D02*
X024719Y000488D01*
X024768Y000488D01*
X024816Y000440D01*
X024816Y000585D02*
X024622Y000585D01*
X024622Y000440D01*
X024521Y000295D02*
X024328Y000295D01*
X024425Y000295D02*
X024425Y000585D01*
X024328Y000488D01*
X023816Y000440D02*
X023622Y000440D01*
X023768Y000585D01*
X023768Y000295D01*
X023521Y000295D02*
X023328Y000295D01*
X023425Y000295D02*
X023425Y000585D01*
X023328Y000488D01*
X022816Y000488D02*
X022768Y000440D01*
X022816Y000392D01*
X022816Y000343D01*
X022768Y000295D01*
X022671Y000295D01*
X022622Y000343D01*
X022521Y000295D02*
X022328Y000295D01*
X022425Y000295D02*
X022425Y000585D01*
X022328Y000488D01*
X022622Y000537D02*
X022671Y000585D01*
X022768Y000585D01*
X022816Y000537D01*
X022816Y000488D01*
X022768Y000440D02*
X022719Y000440D01*
X021816Y000488D02*
X021622Y000295D01*
X021816Y000295D01*
X021816Y000488D02*
X021816Y000537D01*
X021768Y000585D01*
X021671Y000585D01*
X021622Y000537D01*
X021425Y000585D02*
X021328Y000488D01*
X021425Y000585D02*
X021425Y000295D01*
X021521Y000295D02*
X021328Y000295D01*
D13*
X020623Y009217D02*
X020466Y009374D01*
X020466Y012839D01*
X020623Y012996D01*
X024088Y012996D01*
X024245Y012839D01*
X024245Y009374D01*
X024088Y009217D01*
X020623Y009217D01*
X006194Y014363D02*
X006194Y015937D01*
X004619Y016725D02*
X003241Y016725D01*
X003241Y016410D01*
X004225Y016410D01*
X004225Y015937D01*
X004225Y014363D02*
X004225Y013890D01*
X003241Y013890D01*
X003241Y013575D01*
X004619Y013575D01*
D14*
X020670Y012681D02*
X020672Y012701D01*
X020677Y012721D01*
X020687Y012739D01*
X020699Y012756D01*
X020714Y012770D01*
X020732Y012780D01*
X020751Y012788D01*
X020771Y012792D01*
X020791Y012792D01*
X020811Y012788D01*
X020830Y012780D01*
X020848Y012770D01*
X020863Y012756D01*
X020875Y012739D01*
X020885Y012721D01*
X020890Y012701D01*
X020892Y012681D01*
X020890Y012661D01*
X020885Y012641D01*
X020875Y012623D01*
X020863Y012606D01*
X020848Y012592D01*
X020830Y012582D01*
X020811Y012574D01*
X020791Y012570D01*
X020771Y012570D01*
X020751Y012574D01*
X020732Y012582D01*
X020714Y012592D01*
X020699Y012606D01*
X020687Y012623D01*
X020677Y012641D01*
X020672Y012661D01*
X020670Y012681D01*
D15*
X018943Y011584D02*
X018943Y009616D01*
X018825Y009616D01*
X018113Y009150D02*
X017713Y009150D01*
X017683Y009616D02*
X017683Y011584D01*
X017801Y011584D01*
X017713Y012050D02*
X018113Y012050D01*
X018825Y011584D02*
X018943Y011584D01*
X018113Y012650D02*
X017713Y012650D01*
X017707Y013043D02*
X018107Y013043D01*
X018107Y013643D02*
X017707Y013643D01*
X017683Y009616D02*
X017801Y009616D01*
X017713Y008550D02*
X018113Y008550D01*
X023113Y007750D02*
X023513Y007750D01*
X023513Y007150D02*
X023113Y007150D01*
X025972Y011476D02*
X025972Y011752D01*
X025618Y012500D02*
X025620Y012561D01*
X025626Y012622D01*
X025636Y012682D01*
X025650Y012742D01*
X025667Y012801D01*
X025688Y012858D01*
X025713Y012914D01*
X025742Y012968D01*
X025774Y013020D01*
X025809Y013070D01*
X025848Y013118D01*
X025889Y013163D01*
X025934Y013205D01*
X025981Y013244D01*
X026030Y013280D01*
X026082Y013313D01*
X026135Y013343D01*
X026191Y013369D01*
X026248Y013391D01*
X026306Y013409D01*
X026366Y013424D01*
X026426Y013435D01*
X026487Y013442D01*
X026548Y013445D01*
X026609Y013444D01*
X026670Y013439D01*
X026730Y013430D01*
X026790Y013417D01*
X026849Y013401D01*
X026907Y013380D01*
X026963Y013356D01*
X027018Y013328D01*
X027070Y013297D01*
X027121Y013263D01*
X027169Y013225D01*
X027215Y013184D01*
X027258Y013141D01*
X027298Y013094D01*
X027335Y013046D01*
X027368Y012994D01*
X027399Y012941D01*
X027425Y012886D01*
X027449Y012830D01*
X027468Y012772D01*
X027484Y012712D01*
X027496Y012652D01*
X027504Y012592D01*
X027508Y012531D01*
X027508Y012469D01*
X027504Y012408D01*
X027496Y012348D01*
X027484Y012288D01*
X027468Y012228D01*
X027449Y012170D01*
X027425Y012114D01*
X027399Y012059D01*
X027368Y012006D01*
X027335Y011954D01*
X027298Y011906D01*
X027258Y011859D01*
X027215Y011816D01*
X027169Y011775D01*
X027121Y011737D01*
X027070Y011703D01*
X027018Y011672D01*
X026963Y011644D01*
X026907Y011620D01*
X026849Y011599D01*
X026790Y011583D01*
X026730Y011570D01*
X026670Y011561D01*
X026609Y011556D01*
X026548Y011555D01*
X026487Y011558D01*
X026426Y011565D01*
X026366Y011576D01*
X026306Y011591D01*
X026248Y011609D01*
X026191Y011631D01*
X026135Y011657D01*
X026082Y011687D01*
X026030Y011720D01*
X025981Y011756D01*
X025934Y011795D01*
X025889Y011837D01*
X025848Y011882D01*
X025809Y011930D01*
X025774Y011980D01*
X025742Y012032D01*
X025713Y012086D01*
X025688Y012142D01*
X025667Y012199D01*
X025650Y012258D01*
X025636Y012318D01*
X025626Y012378D01*
X025620Y012439D01*
X025618Y012500D01*
X026169Y013366D02*
X026169Y013524D01*
X026957Y013524D02*
X026957Y013366D01*
X027153Y011752D02*
X027153Y011476D01*
X031803Y014350D02*
X031805Y014421D01*
X031811Y014491D01*
X031821Y014561D01*
X031835Y014630D01*
X031852Y014699D01*
X031874Y014766D01*
X031899Y014832D01*
X031928Y014897D01*
X031960Y014959D01*
X031996Y015020D01*
X032035Y015079D01*
X032078Y015136D01*
X032123Y015190D01*
X032172Y015241D01*
X032223Y015290D01*
X032277Y015335D01*
X032334Y015378D01*
X032393Y015417D01*
X032454Y015453D01*
X032516Y015485D01*
X032581Y015514D01*
X032647Y015539D01*
X032714Y015561D01*
X032783Y015578D01*
X032852Y015592D01*
X032922Y015602D01*
X032992Y015608D01*
X033063Y015610D01*
X033134Y015608D01*
X033204Y015602D01*
X033274Y015592D01*
X033343Y015578D01*
X033412Y015561D01*
X033479Y015539D01*
X033545Y015514D01*
X033610Y015485D01*
X033672Y015453D01*
X033733Y015417D01*
X033792Y015378D01*
X033849Y015335D01*
X033903Y015290D01*
X033954Y015241D01*
X034003Y015190D01*
X034048Y015136D01*
X034091Y015079D01*
X034130Y015020D01*
X034166Y014959D01*
X034198Y014897D01*
X034227Y014832D01*
X034252Y014766D01*
X034274Y014699D01*
X034291Y014630D01*
X034305Y014561D01*
X034315Y014491D01*
X034321Y014421D01*
X034323Y014350D01*
X034321Y014279D01*
X034315Y014209D01*
X034305Y014139D01*
X034291Y014070D01*
X034274Y014001D01*
X034252Y013934D01*
X034227Y013868D01*
X034198Y013803D01*
X034166Y013741D01*
X034130Y013680D01*
X034091Y013621D01*
X034048Y013564D01*
X034003Y013510D01*
X033954Y013459D01*
X033903Y013410D01*
X033849Y013365D01*
X033792Y013322D01*
X033733Y013283D01*
X033672Y013247D01*
X033610Y013215D01*
X033545Y013186D01*
X033479Y013161D01*
X033412Y013139D01*
X033343Y013122D01*
X033274Y013108D01*
X033204Y013098D01*
X033134Y013092D01*
X033063Y013090D01*
X032992Y013092D01*
X032922Y013098D01*
X032852Y013108D01*
X032783Y013122D01*
X032714Y013139D01*
X032647Y013161D01*
X032581Y013186D01*
X032516Y013215D01*
X032454Y013247D01*
X032393Y013283D01*
X032334Y013322D01*
X032277Y013365D01*
X032223Y013410D01*
X032172Y013459D01*
X032123Y013510D01*
X032078Y013564D01*
X032035Y013621D01*
X031996Y013680D01*
X031960Y013741D01*
X031928Y013803D01*
X031899Y013868D01*
X031874Y013934D01*
X031852Y014001D01*
X031835Y014070D01*
X031821Y014139D01*
X031811Y014209D01*
X031805Y014279D01*
X031803Y014350D01*
D16*
X005668Y015238D02*
X005668Y015263D01*
X005643Y015288D01*
X005518Y015288D01*
X005518Y015263D02*
X005518Y015313D01*
X005518Y015360D02*
X005518Y015435D01*
X005543Y015460D01*
X005593Y015460D01*
X005618Y015435D01*
X005618Y015360D01*
X005668Y015360D02*
X005518Y015360D01*
X005543Y015508D02*
X005518Y015533D01*
X005518Y015583D01*
X005543Y015608D01*
X005568Y015608D01*
X005593Y015583D01*
X005618Y015608D01*
X005643Y015608D01*
X005668Y015583D01*
X005668Y015533D01*
X005643Y015508D01*
X005593Y015558D02*
X005593Y015583D01*
X005668Y015238D02*
X005643Y015213D01*
D17*
X002390Y016508D02*
X002390Y013792D01*
X000736Y013792D02*
X000736Y016508D01*
D18*
X001563Y014553D03*
D19*
X032020Y014350D02*
X032022Y014414D01*
X032028Y014478D01*
X032038Y014542D01*
X032052Y014604D01*
X032069Y014666D01*
X032090Y014727D01*
X032115Y014786D01*
X032144Y014843D01*
X032176Y014899D01*
X032212Y014953D01*
X032250Y015004D01*
X032292Y015053D01*
X032337Y015099D01*
X032384Y015142D01*
X032434Y015182D01*
X032487Y015219D01*
X032541Y015253D01*
X032598Y015284D01*
X032656Y015311D01*
X032716Y015334D01*
X032778Y015353D01*
X032840Y015369D01*
X032903Y015381D01*
X032967Y015389D01*
X033031Y015393D01*
X033095Y015393D01*
X033159Y015389D01*
X033223Y015381D01*
X033286Y015369D01*
X033348Y015353D01*
X033410Y015334D01*
X033470Y015311D01*
X033528Y015284D01*
X033584Y015253D01*
X033639Y015219D01*
X033692Y015182D01*
X033742Y015142D01*
X033789Y015099D01*
X033834Y015053D01*
X033876Y015004D01*
X033914Y014953D01*
X033950Y014899D01*
X033982Y014843D01*
X034011Y014786D01*
X034036Y014727D01*
X034057Y014666D01*
X034074Y014604D01*
X034088Y014542D01*
X034098Y014478D01*
X034104Y014414D01*
X034106Y014350D01*
X034104Y014286D01*
X034098Y014222D01*
X034088Y014158D01*
X034074Y014096D01*
X034057Y014034D01*
X034036Y013973D01*
X034011Y013914D01*
X033982Y013857D01*
X033950Y013801D01*
X033914Y013747D01*
X033876Y013696D01*
X033834Y013647D01*
X033789Y013601D01*
X033742Y013558D01*
X033692Y013518D01*
X033639Y013481D01*
X033585Y013447D01*
X033528Y013416D01*
X033470Y013389D01*
X033410Y013366D01*
X033348Y013347D01*
X033286Y013331D01*
X033223Y013319D01*
X033159Y013311D01*
X033095Y013307D01*
X033031Y013307D01*
X032967Y013311D01*
X032903Y013319D01*
X032840Y013331D01*
X032778Y013347D01*
X032716Y013366D01*
X032656Y013389D01*
X032598Y013416D01*
X032541Y013447D01*
X032487Y013481D01*
X032434Y013518D01*
X032384Y013558D01*
X032337Y013601D01*
X032292Y013647D01*
X032250Y013696D01*
X032212Y013747D01*
X032176Y013801D01*
X032144Y013857D01*
X032115Y013914D01*
X032090Y013973D01*
X032069Y014034D01*
X032052Y014096D01*
X032038Y014158D01*
X032028Y014222D01*
X032022Y014286D01*
X032020Y014350D01*
M02*
