G75*
G70*
%OFA0B0*%
%FSLAX24Y24*%
%IPPOS*%
%LPD*%
%AMOC8*
5,1,8,0,0,1.08239X$1,22.5*
%
%ADD10C,0.0030*%
%ADD11C,0.0050*%
%ADD12C,0.0080*%
%ADD13C,0.0040*%
%ADD14C,0.0100*%
%ADD15C,0.0010*%
%ADD16C,0.0060*%
%ADD17R,0.0079X0.0079*%
%ADD18R,0.0098X0.0059*%
D10*
X004947Y001622D02*
X004947Y001992D01*
X005194Y001992D02*
X004947Y001622D01*
X005194Y001622D02*
X005194Y001992D01*
X005316Y001930D02*
X005316Y001683D01*
X005377Y001622D01*
X005501Y001622D01*
X005563Y001683D01*
X005563Y001930D01*
X005501Y001992D01*
X005377Y001992D01*
X005316Y001930D01*
X005685Y001992D02*
X005808Y001992D01*
X005746Y001992D02*
X005746Y001622D01*
X005685Y001622D02*
X005808Y001622D01*
X005930Y001683D02*
X005991Y001622D01*
X006115Y001622D01*
X006176Y001683D01*
X006298Y001683D02*
X006360Y001622D01*
X006483Y001622D01*
X006545Y001683D01*
X006545Y001992D01*
X006298Y001992D02*
X006298Y001683D01*
X006115Y001807D02*
X005991Y001807D01*
X005930Y001745D01*
X005930Y001683D01*
X006115Y001807D02*
X006176Y001869D01*
X006176Y001930D01*
X006115Y001992D01*
X005991Y001992D01*
X005930Y001930D01*
X006666Y001622D02*
X006913Y001622D01*
X006913Y001992D01*
X007035Y001930D02*
X007096Y001992D01*
X007220Y001992D01*
X007281Y001930D01*
X007281Y001683D01*
X007220Y001622D01*
X007096Y001622D01*
X007035Y001683D01*
X007403Y001622D02*
X007650Y001992D01*
X007771Y001992D02*
X008018Y001992D01*
X008018Y001622D01*
X007771Y001622D01*
X007650Y001622D02*
X007403Y001992D01*
X007895Y001807D02*
X008018Y001807D01*
X008140Y001560D02*
X008386Y001560D01*
X008508Y001622D02*
X008508Y001992D01*
X008631Y001869D01*
X008755Y001992D01*
X008755Y001622D01*
X008876Y001622D02*
X008876Y001992D01*
X009000Y001869D01*
X009123Y001992D01*
X009123Y001622D01*
X009244Y001683D02*
X009306Y001622D01*
X009430Y001622D01*
X009491Y001683D01*
X009244Y001930D01*
X009244Y001683D01*
X009491Y001683D02*
X009491Y001930D01*
X009430Y001992D01*
X009306Y001992D01*
X009244Y001930D01*
X009613Y001930D02*
X009860Y001683D01*
X009798Y001622D01*
X009674Y001622D01*
X009613Y001683D01*
X009613Y001930D01*
X009674Y001992D01*
X009798Y001992D01*
X009860Y001930D01*
X009860Y001683D01*
X009981Y001807D02*
X010228Y001807D01*
X010043Y001992D01*
X010043Y001622D01*
X010349Y001683D02*
X010411Y001622D01*
X010535Y001622D01*
X010596Y001683D01*
X010718Y001683D02*
X010779Y001622D01*
X010903Y001622D01*
X010965Y001683D01*
X010718Y001930D01*
X010718Y001683D01*
X010965Y001683D02*
X010965Y001930D01*
X010903Y001992D01*
X010779Y001992D01*
X010718Y001930D01*
X010596Y001930D02*
X010535Y001992D01*
X010411Y001992D01*
X010349Y001930D01*
X010349Y001869D01*
X010411Y001807D01*
X010349Y001745D01*
X010349Y001683D01*
X010411Y001807D02*
X010473Y001807D01*
X011086Y001622D02*
X011333Y001622D01*
X011454Y001622D02*
X011454Y001869D01*
X011578Y001992D01*
X011701Y001869D01*
X011701Y001622D01*
X011823Y001560D02*
X012070Y001560D01*
X012191Y001683D02*
X012253Y001622D01*
X012438Y001622D01*
X012438Y001992D01*
X012253Y001992D01*
X012191Y001930D01*
X012191Y001683D01*
X012559Y001622D02*
X012559Y001992D01*
X012683Y001869D01*
X012806Y001992D01*
X012806Y001622D01*
X012928Y001683D02*
X012989Y001622D01*
X013113Y001622D01*
X013174Y001683D01*
X013113Y001807D02*
X012989Y001807D01*
X012928Y001745D01*
X012928Y001683D01*
X013113Y001807D02*
X013174Y001869D01*
X013174Y001930D01*
X013113Y001992D01*
X012989Y001992D01*
X012928Y001930D01*
X013296Y001560D02*
X013543Y001560D01*
X013664Y001683D02*
X013664Y001930D01*
X013726Y001992D01*
X013911Y001992D01*
X013911Y001622D01*
X013726Y001622D01*
X013664Y001683D01*
X014033Y001622D02*
X014033Y001992D01*
X014279Y001992D02*
X014033Y001622D01*
X014279Y001622D02*
X014279Y001992D01*
X014401Y001869D02*
X014524Y001992D01*
X014648Y001869D01*
X014648Y001622D01*
X014769Y001683D02*
X014831Y001622D01*
X015016Y001622D01*
X015016Y001992D01*
X014831Y001992D01*
X014769Y001930D01*
X014769Y001869D01*
X014831Y001807D01*
X015016Y001807D01*
X015137Y001807D02*
X015137Y001683D01*
X015199Y001622D01*
X015323Y001622D01*
X015384Y001683D01*
X015384Y001807D02*
X015261Y001869D01*
X015199Y001869D01*
X015137Y001807D01*
X015137Y001992D02*
X015384Y001992D01*
X015384Y001807D01*
X015506Y001560D02*
X015753Y001560D01*
X015874Y001683D02*
X015936Y001622D01*
X016059Y001622D01*
X016121Y001683D01*
X016242Y001683D02*
X016304Y001622D01*
X016428Y001622D01*
X016489Y001683D01*
X016489Y001992D01*
X016611Y001992D02*
X016611Y001745D01*
X016734Y001622D01*
X016858Y001745D01*
X016858Y001992D01*
X017226Y001992D02*
X017226Y001622D01*
X016979Y001622D01*
X017347Y001622D02*
X017347Y001869D01*
X017471Y001992D01*
X017594Y001869D01*
X017594Y001622D01*
X017716Y001683D02*
X017777Y001622D01*
X017901Y001622D01*
X017963Y001683D01*
X017963Y001930D01*
X017901Y001992D01*
X017777Y001992D01*
X017716Y001930D01*
X017594Y001807D02*
X017347Y001807D01*
X016242Y001683D02*
X016242Y001992D01*
X016121Y001930D02*
X016121Y001869D01*
X016059Y001807D01*
X015936Y001807D01*
X015874Y001745D01*
X015874Y001683D01*
X015874Y001930D02*
X015936Y001992D01*
X016059Y001992D01*
X016121Y001930D01*
X014831Y001807D02*
X014769Y001745D01*
X014769Y001683D01*
X014648Y001807D02*
X014401Y001807D01*
X014401Y001869D02*
X014401Y001622D01*
X011701Y001807D02*
X011454Y001807D01*
X011333Y001869D02*
X011209Y001992D01*
X011209Y001622D01*
X018537Y001975D02*
X018661Y001851D01*
X018784Y001975D01*
X018784Y002222D01*
X018906Y002036D02*
X019153Y002036D01*
X019274Y002036D02*
X019521Y002036D01*
X019521Y002098D02*
X019397Y002222D01*
X019274Y002098D01*
X019274Y001851D01*
X019521Y001851D02*
X019521Y002098D01*
X019642Y002222D02*
X019766Y002098D01*
X019889Y002222D01*
X019889Y001851D01*
X020011Y001913D02*
X020072Y001851D01*
X020196Y001851D01*
X020258Y001913D01*
X020196Y002036D02*
X020072Y002036D01*
X020011Y001975D01*
X020011Y001913D01*
X020196Y002036D02*
X020258Y002098D01*
X020258Y002160D01*
X020196Y002222D01*
X020072Y002222D01*
X020011Y002160D01*
X019642Y002222D02*
X019642Y001851D01*
X020379Y002036D02*
X020626Y002036D01*
X020747Y001913D02*
X020747Y002222D01*
X020994Y002222D02*
X020994Y001913D01*
X020932Y001851D01*
X020809Y001851D01*
X020747Y001913D01*
X021116Y001913D02*
X021177Y001851D01*
X021362Y001851D01*
X021362Y002222D01*
X021177Y002222D01*
X021116Y002160D01*
X021116Y002098D01*
X021177Y002036D01*
X021362Y002036D01*
X021177Y002036D02*
X021116Y001975D01*
X021116Y001913D01*
X018537Y001975D02*
X018537Y002222D01*
X027836Y001367D02*
X027885Y001415D01*
X027981Y001415D01*
X028030Y001367D01*
X028131Y001367D02*
X028179Y001415D01*
X028324Y001415D01*
X028324Y001125D01*
X028179Y001125D01*
X028131Y001173D01*
X028131Y001367D01*
X028030Y001125D02*
X027836Y001318D01*
X027836Y001367D01*
X027836Y001125D02*
X028030Y001125D01*
X028425Y001125D02*
X028619Y001125D01*
X028619Y001415D01*
X028425Y001415D01*
X028522Y001270D02*
X028619Y001270D01*
X028720Y001125D02*
X028914Y001125D01*
X028914Y001415D01*
X029886Y001367D02*
X030080Y001173D01*
X030031Y001125D01*
X029935Y001125D01*
X029886Y001173D01*
X029886Y001367D01*
X029935Y001415D01*
X030031Y001415D01*
X030080Y001367D01*
X030080Y001173D01*
X030181Y001367D02*
X030374Y001173D01*
X030374Y001125D01*
X030524Y001125D02*
X030524Y001415D01*
X030669Y001270D01*
X030475Y001270D01*
X030374Y001415D02*
X030181Y001415D01*
X030181Y001367D01*
X022735Y007399D02*
X022735Y007523D01*
X022674Y007584D01*
X022427Y007338D01*
X022365Y007399D01*
X022365Y007523D01*
X022427Y007584D01*
X022674Y007584D01*
X022735Y007399D02*
X022674Y007338D01*
X022427Y007338D01*
X022427Y007706D02*
X022365Y007706D01*
X022365Y007768D01*
X022427Y007768D01*
X022427Y007706D01*
X022365Y007890D02*
X022365Y008137D01*
X022365Y008013D02*
X022735Y008013D01*
X022612Y007890D01*
X022612Y008258D02*
X022427Y008258D01*
X022365Y008320D01*
X022365Y008505D01*
X022612Y008505D01*
X022550Y008627D02*
X022550Y008750D01*
X022365Y008627D02*
X022735Y008627D01*
X022735Y008874D01*
X021408Y007899D02*
X021284Y008023D01*
X021284Y007652D01*
X021161Y007652D02*
X021408Y007652D01*
X021040Y007714D02*
X021040Y007961D01*
X020978Y008023D01*
X020854Y008023D01*
X020793Y007961D01*
X021040Y007714D01*
X020978Y007652D01*
X020854Y007652D01*
X020793Y007714D01*
X020793Y007961D01*
X020671Y007961D02*
X020610Y008023D01*
X020486Y008023D01*
X020424Y007961D01*
X020671Y007714D01*
X020610Y007652D01*
X020486Y007652D01*
X020424Y007714D01*
X020424Y007961D01*
X020303Y007961D02*
X020303Y007714D01*
X020056Y007961D01*
X020056Y007714D01*
X020118Y007652D01*
X020241Y007652D01*
X020303Y007714D01*
X020303Y007961D02*
X020241Y008023D01*
X020118Y008023D01*
X020056Y007961D01*
X019935Y007899D02*
X019935Y007714D01*
X019873Y007652D01*
X019688Y007652D01*
X019688Y007899D01*
X019566Y007838D02*
X019443Y007838D01*
X019566Y007652D02*
X019566Y008023D01*
X019319Y008023D01*
X020671Y007961D02*
X020671Y007714D01*
X038779Y017004D02*
X038779Y017375D01*
X038964Y017190D01*
X038717Y017190D01*
X039086Y017251D02*
X039147Y017190D01*
X039271Y017190D01*
X039333Y017251D01*
X039333Y017313D01*
X039271Y017375D01*
X039147Y017375D01*
X039086Y017313D01*
X039086Y017251D01*
X039147Y017190D02*
X039086Y017128D01*
X039086Y017066D01*
X039147Y017004D01*
X039271Y017004D01*
X039333Y017066D01*
X039333Y017128D01*
X039271Y017190D01*
X039454Y017251D02*
X039454Y017313D01*
X039516Y017375D01*
X039639Y017375D01*
X039701Y017313D01*
X039946Y017375D02*
X040069Y017251D01*
X040191Y017251D02*
X040191Y017004D01*
X040069Y017004D02*
X039822Y017004D01*
X039701Y017004D02*
X039454Y017251D01*
X039454Y017004D02*
X039701Y017004D01*
X039946Y017004D02*
X039946Y017375D01*
X040191Y017251D02*
X040314Y017375D01*
X040438Y017251D01*
X040438Y017004D01*
X040559Y017066D02*
X040559Y017190D01*
X040682Y017190D01*
X040559Y017313D02*
X040621Y017375D01*
X040744Y017375D01*
X040806Y017313D01*
X040806Y017066D01*
X040744Y017004D01*
X040621Y017004D01*
X040559Y017066D01*
X040438Y017190D02*
X040191Y017190D01*
X040927Y017375D02*
X041174Y017375D01*
X041174Y017004D01*
X040927Y017004D01*
X041051Y017190D02*
X041174Y017190D01*
X041296Y017375D02*
X041419Y017251D01*
X041542Y017375D01*
X041542Y017004D01*
X041296Y017004D02*
X041296Y017375D01*
X043183Y016715D02*
X043183Y016654D01*
X043430Y016407D01*
X043430Y016345D01*
X043183Y016345D01*
X043551Y016345D02*
X043551Y016715D01*
X043430Y016715D02*
X043183Y016715D01*
X043551Y016530D02*
X043798Y016530D01*
X043798Y016345D02*
X043798Y016715D01*
X043920Y016715D02*
X043920Y016345D01*
X044167Y016345D02*
X044167Y016715D01*
X044043Y016592D01*
X043920Y016715D01*
X044288Y016654D02*
X044288Y016592D01*
X044350Y016530D01*
X044473Y016530D01*
X044535Y016592D01*
X044535Y016654D01*
X044473Y016715D01*
X044350Y016715D01*
X044288Y016654D01*
X044350Y016530D02*
X044288Y016468D01*
X044288Y016407D01*
X044350Y016345D01*
X044473Y016345D01*
X044535Y016407D01*
X044535Y016468D01*
X044473Y016530D01*
X045465Y016520D02*
X045465Y016705D01*
X045712Y016705D01*
X045774Y016827D02*
X045527Y016827D01*
X045465Y016888D01*
X045465Y017012D01*
X045527Y017074D01*
X045774Y017074D02*
X045835Y017012D01*
X045835Y016888D01*
X045774Y016827D01*
X045712Y016458D02*
X045527Y016458D01*
X045465Y016520D01*
X045465Y016323D02*
X045465Y016199D01*
X045465Y016261D02*
X045835Y016261D01*
X045835Y016199D01*
X045835Y016016D02*
X045465Y016016D01*
X045465Y016077D02*
X045465Y015954D01*
X045588Y015832D02*
X045588Y015586D01*
X045527Y015586D02*
X045650Y015586D01*
X045712Y015647D01*
X045712Y015771D01*
X045650Y015832D01*
X045588Y015832D01*
X045465Y015771D02*
X045465Y015647D01*
X045527Y015586D01*
X045527Y015464D02*
X045465Y015402D01*
X045465Y015279D01*
X045527Y015217D01*
X045774Y015217D01*
X045835Y015279D01*
X045835Y015402D01*
X045774Y015464D01*
X045322Y015042D02*
X045322Y014857D01*
X045260Y014795D01*
X045075Y014795D01*
X045075Y015042D01*
X044953Y015104D02*
X044953Y014857D01*
X044892Y014795D01*
X044768Y014795D01*
X044706Y014857D01*
X044706Y015104D02*
X044768Y015165D01*
X044892Y015165D01*
X044953Y015104D01*
X044313Y015104D02*
X044313Y014857D01*
X044251Y014795D01*
X044128Y014795D01*
X044066Y014857D01*
X043944Y014857D02*
X043944Y014980D01*
X043883Y015042D01*
X043759Y015042D01*
X043698Y014980D01*
X043698Y014918D01*
X043944Y014918D01*
X043944Y014857D02*
X043883Y014795D01*
X043759Y014795D01*
X043576Y014795D02*
X043453Y014795D01*
X043514Y014795D02*
X043514Y015165D01*
X043576Y015165D01*
X043331Y015165D02*
X043269Y015165D01*
X043269Y014795D01*
X043331Y014795D02*
X043207Y014795D01*
X044066Y015104D02*
X044128Y015165D01*
X044251Y015165D01*
X044313Y015104D01*
X045835Y015954D02*
X045835Y016016D01*
X046915Y017095D02*
X046915Y017342D01*
X046915Y017218D02*
X047285Y017218D01*
X047162Y017095D01*
X047162Y017463D02*
X047224Y017463D01*
X047285Y017525D01*
X047285Y017648D01*
X047224Y017710D01*
X047162Y017710D01*
X047100Y017648D01*
X047100Y017525D01*
X047162Y017463D01*
X047100Y017525D02*
X047038Y017463D01*
X046977Y017463D01*
X046915Y017525D01*
X046915Y017648D01*
X046977Y017710D01*
X047038Y017710D01*
X047100Y017648D01*
X047162Y017832D02*
X046792Y017832D01*
X046915Y017832D02*
X046915Y018017D01*
X046977Y018079D01*
X047100Y018079D01*
X047162Y018017D01*
X047162Y017832D01*
X047100Y018200D02*
X047100Y018323D01*
X046915Y018200D02*
X047285Y018200D01*
X047285Y018447D01*
X046022Y019122D02*
X046022Y019492D01*
X045836Y019492D01*
X045775Y019430D01*
X045775Y019307D01*
X045836Y019245D01*
X046022Y019245D01*
X046143Y019307D02*
X046205Y019245D01*
X046328Y019245D01*
X046390Y019307D01*
X046390Y019368D01*
X046328Y019430D01*
X046205Y019430D01*
X046143Y019368D01*
X046143Y019307D01*
X046205Y019430D02*
X046143Y019492D01*
X046143Y019554D01*
X046205Y019615D01*
X046328Y019615D01*
X046390Y019554D01*
X046390Y019492D01*
X046328Y019430D01*
X046511Y019245D02*
X046758Y019245D01*
X046635Y019245D02*
X046635Y019615D01*
X046758Y019492D01*
X045653Y019430D02*
X045530Y019430D01*
X045653Y019245D02*
X045653Y019615D01*
X045406Y019615D01*
X049372Y019135D02*
X049558Y018950D01*
X049496Y018888D02*
X049743Y019135D01*
X049743Y018888D02*
X049372Y018888D01*
X049434Y018766D02*
X049372Y018705D01*
X049372Y018581D01*
X049434Y018520D01*
X049681Y018766D01*
X049434Y018766D01*
X049681Y018766D02*
X049743Y018705D01*
X049743Y018581D01*
X049681Y018520D01*
X049434Y018520D01*
X049372Y018398D02*
X049372Y018151D01*
X049372Y018275D02*
X049743Y018275D01*
X049619Y018151D01*
X049878Y015677D02*
X049878Y015430D01*
X049508Y015430D01*
X049508Y015309D02*
X049693Y015309D01*
X049754Y015247D01*
X049754Y015062D01*
X049508Y015062D01*
X049693Y015430D02*
X049693Y015554D01*
X049816Y014572D02*
X049569Y014325D01*
X049508Y014387D01*
X049508Y014510D01*
X049569Y014572D01*
X049816Y014572D01*
X049878Y014510D01*
X049878Y014387D01*
X049816Y014325D01*
X049569Y014325D01*
X049569Y014204D02*
X049508Y014142D01*
X049508Y014019D01*
X049569Y013957D01*
X049816Y014204D01*
X049569Y014204D01*
X049569Y013957D02*
X049816Y013957D01*
X049878Y014019D01*
X049878Y014142D01*
X049816Y014204D01*
X049508Y013836D02*
X049508Y013589D01*
X049508Y013712D02*
X049878Y013712D01*
X049754Y013589D01*
X034485Y018295D02*
X034238Y018542D01*
X034238Y018604D01*
X034300Y018665D01*
X034423Y018665D01*
X034485Y018604D01*
X034485Y018295D02*
X034238Y018295D01*
X034117Y018295D02*
X033870Y018542D01*
X033870Y018604D01*
X033932Y018665D01*
X034055Y018665D01*
X034117Y018604D01*
X034117Y018295D02*
X033870Y018295D01*
X033435Y018295D02*
X033188Y018542D01*
X033188Y018604D01*
X033250Y018665D01*
X033373Y018665D01*
X033435Y018604D01*
X033435Y018295D02*
X033188Y018295D01*
X033067Y018295D02*
X032820Y018542D01*
X032820Y018604D01*
X032882Y018665D01*
X033005Y018665D01*
X033067Y018604D01*
X033067Y018295D02*
X032820Y018295D01*
X032535Y018295D02*
X032288Y018542D01*
X032288Y018604D01*
X032350Y018665D01*
X032473Y018665D01*
X032535Y018604D01*
X032535Y018295D02*
X032288Y018295D01*
X032167Y018295D02*
X031920Y018542D01*
X031920Y018604D01*
X031982Y018665D01*
X032105Y018665D01*
X032167Y018604D01*
X032167Y018295D02*
X031920Y018295D01*
X032180Y020788D02*
X032180Y021158D01*
X031934Y021158D01*
X032057Y020973D02*
X032180Y020973D01*
X032302Y021034D02*
X032302Y020788D01*
X032487Y020788D01*
X032549Y020849D01*
X032549Y021034D01*
X032670Y021096D02*
X032917Y020849D01*
X032855Y020788D01*
X032732Y020788D01*
X032670Y020849D01*
X032670Y021096D01*
X032732Y021158D01*
X032855Y021158D01*
X032917Y021096D01*
X032917Y020849D01*
X033039Y020849D02*
X033100Y020788D01*
X033224Y020788D01*
X033285Y020849D01*
X033039Y021096D01*
X033039Y020849D01*
X033285Y020849D02*
X033285Y021096D01*
X033224Y021158D01*
X033100Y021158D01*
X033039Y021096D01*
X033407Y021096D02*
X033654Y020849D01*
X033592Y020788D01*
X033469Y020788D01*
X033407Y020849D01*
X033407Y021096D01*
X033469Y021158D01*
X033592Y021158D01*
X033654Y021096D01*
X033654Y020849D01*
X033775Y020788D02*
X034022Y020788D01*
X033899Y020788D02*
X033899Y021158D01*
X034022Y021034D01*
D11*
X043620Y019214D02*
X043620Y017246D01*
X043738Y017246D01*
X044762Y017246D02*
X044880Y017246D01*
X044880Y019214D01*
X044762Y019214D01*
X043738Y019214D02*
X043620Y019214D01*
X038244Y015254D02*
X038244Y015096D01*
X037456Y015096D02*
X037456Y015254D01*
X035007Y015445D02*
X035007Y015642D01*
X034811Y015642D01*
X036905Y014230D02*
X036907Y014291D01*
X036913Y014352D01*
X036923Y014412D01*
X036937Y014472D01*
X036954Y014531D01*
X036975Y014588D01*
X037000Y014644D01*
X037029Y014698D01*
X037061Y014750D01*
X037096Y014800D01*
X037135Y014848D01*
X037176Y014893D01*
X037221Y014935D01*
X037268Y014974D01*
X037317Y015010D01*
X037369Y015043D01*
X037422Y015073D01*
X037478Y015099D01*
X037535Y015121D01*
X037593Y015139D01*
X037653Y015154D01*
X037713Y015165D01*
X037774Y015172D01*
X037835Y015175D01*
X037896Y015174D01*
X037957Y015169D01*
X038017Y015160D01*
X038077Y015147D01*
X038136Y015131D01*
X038194Y015110D01*
X038250Y015086D01*
X038305Y015058D01*
X038357Y015027D01*
X038408Y014993D01*
X038456Y014955D01*
X038502Y014914D01*
X038545Y014871D01*
X038585Y014824D01*
X038622Y014776D01*
X038655Y014724D01*
X038686Y014671D01*
X038712Y014616D01*
X038736Y014560D01*
X038755Y014502D01*
X038771Y014442D01*
X038783Y014382D01*
X038791Y014322D01*
X038795Y014261D01*
X038795Y014199D01*
X038791Y014138D01*
X038783Y014078D01*
X038771Y014018D01*
X038755Y013958D01*
X038736Y013900D01*
X038712Y013844D01*
X038686Y013789D01*
X038655Y013736D01*
X038622Y013684D01*
X038585Y013636D01*
X038545Y013589D01*
X038502Y013546D01*
X038456Y013505D01*
X038408Y013467D01*
X038357Y013433D01*
X038305Y013402D01*
X038250Y013374D01*
X038194Y013350D01*
X038136Y013329D01*
X038077Y013313D01*
X038017Y013300D01*
X037957Y013291D01*
X037896Y013286D01*
X037835Y013285D01*
X037774Y013288D01*
X037713Y013295D01*
X037653Y013306D01*
X037593Y013321D01*
X037535Y013339D01*
X037478Y013361D01*
X037422Y013387D01*
X037369Y013417D01*
X037317Y013450D01*
X037268Y013486D01*
X037221Y013525D01*
X037176Y013567D01*
X037135Y013612D01*
X037096Y013660D01*
X037061Y013710D01*
X037029Y013762D01*
X037000Y013816D01*
X036975Y013872D01*
X036954Y013929D01*
X036937Y013988D01*
X036923Y014048D01*
X036913Y014108D01*
X036907Y014169D01*
X036905Y014230D01*
X037259Y013482D02*
X037259Y013206D01*
X038441Y013206D02*
X038441Y013482D01*
X023787Y015642D02*
X023590Y015445D01*
X023590Y015642D01*
X023787Y015642D01*
X026165Y006036D02*
X026167Y006098D01*
X026173Y006161D01*
X026183Y006222D01*
X026197Y006283D01*
X026214Y006343D01*
X026235Y006402D01*
X026261Y006459D01*
X026289Y006514D01*
X026321Y006568D01*
X026357Y006619D01*
X026395Y006669D01*
X026437Y006715D01*
X026481Y006759D01*
X026529Y006800D01*
X026578Y006838D01*
X026630Y006872D01*
X026684Y006903D01*
X026740Y006931D01*
X026798Y006955D01*
X026857Y006976D01*
X026917Y006992D01*
X026978Y007005D01*
X027040Y007014D01*
X027102Y007019D01*
X027165Y007020D01*
X027227Y007017D01*
X027289Y007010D01*
X027351Y006999D01*
X027411Y006984D01*
X027471Y006966D01*
X027529Y006944D01*
X027586Y006918D01*
X027641Y006888D01*
X027694Y006855D01*
X027745Y006819D01*
X027793Y006780D01*
X027839Y006737D01*
X027882Y006692D01*
X027922Y006644D01*
X027959Y006594D01*
X027993Y006541D01*
X028024Y006487D01*
X028050Y006431D01*
X028074Y006373D01*
X028093Y006313D01*
X028109Y006253D01*
X028121Y006191D01*
X028129Y006130D01*
X028133Y006067D01*
X028133Y006005D01*
X028129Y005942D01*
X028121Y005881D01*
X028109Y005819D01*
X028093Y005759D01*
X028074Y005699D01*
X028050Y005641D01*
X028024Y005585D01*
X027993Y005531D01*
X027959Y005478D01*
X027922Y005428D01*
X027882Y005380D01*
X027839Y005335D01*
X027793Y005292D01*
X027745Y005253D01*
X027694Y005217D01*
X027641Y005184D01*
X027586Y005154D01*
X027529Y005128D01*
X027471Y005106D01*
X027411Y005088D01*
X027351Y005073D01*
X027289Y005062D01*
X027227Y005055D01*
X027165Y005052D01*
X027102Y005053D01*
X027040Y005058D01*
X026978Y005067D01*
X026917Y005080D01*
X026857Y005096D01*
X026798Y005117D01*
X026740Y005141D01*
X026684Y005169D01*
X026630Y005200D01*
X026578Y005234D01*
X026529Y005272D01*
X026481Y005313D01*
X026437Y005357D01*
X026395Y005403D01*
X026357Y005453D01*
X026321Y005504D01*
X026289Y005558D01*
X026261Y005613D01*
X026235Y005670D01*
X026214Y005729D01*
X026197Y005789D01*
X026183Y005850D01*
X026173Y005911D01*
X026167Y005974D01*
X026165Y006036D01*
X023787Y004225D02*
X023590Y004225D01*
X023590Y004422D01*
X018457Y005243D02*
X018457Y005636D01*
X018064Y005636D01*
X018457Y002912D02*
X018457Y002518D01*
X018064Y002518D01*
X008221Y002518D02*
X007828Y002518D01*
X007828Y002912D01*
X007828Y005243D02*
X007828Y005636D01*
X008221Y005636D01*
X034811Y004225D02*
X035007Y004225D01*
X035007Y004422D01*
D12*
X021387Y004519D02*
X021387Y003653D01*
X020561Y002826D02*
X019694Y002826D01*
X018868Y003653D02*
X018868Y004519D01*
X019458Y004086D02*
X019460Y004137D01*
X019466Y004188D01*
X019476Y004238D01*
X019489Y004288D01*
X019507Y004336D01*
X019527Y004383D01*
X019552Y004428D01*
X019580Y004471D01*
X019611Y004512D01*
X019645Y004550D01*
X019682Y004585D01*
X019721Y004618D01*
X019763Y004648D01*
X019807Y004674D01*
X019853Y004696D01*
X019901Y004716D01*
X019950Y004731D01*
X020000Y004743D01*
X020050Y004751D01*
X020101Y004755D01*
X020153Y004755D01*
X020204Y004751D01*
X020254Y004743D01*
X020304Y004731D01*
X020353Y004716D01*
X020401Y004696D01*
X020447Y004674D01*
X020491Y004648D01*
X020533Y004618D01*
X020572Y004585D01*
X020609Y004550D01*
X020643Y004512D01*
X020674Y004471D01*
X020702Y004428D01*
X020727Y004383D01*
X020747Y004336D01*
X020765Y004288D01*
X020778Y004238D01*
X020788Y004188D01*
X020794Y004137D01*
X020796Y004086D01*
X020794Y004035D01*
X020788Y003984D01*
X020778Y003934D01*
X020765Y003884D01*
X020747Y003836D01*
X020727Y003789D01*
X020702Y003744D01*
X020674Y003701D01*
X020643Y003660D01*
X020609Y003622D01*
X020572Y003587D01*
X020533Y003554D01*
X020491Y003524D01*
X020447Y003498D01*
X020401Y003476D01*
X020353Y003456D01*
X020304Y003441D01*
X020254Y003429D01*
X020204Y003421D01*
X020153Y003417D01*
X020101Y003417D01*
X020050Y003421D01*
X020000Y003429D01*
X019950Y003441D01*
X019901Y003456D01*
X019853Y003476D01*
X019807Y003498D01*
X019763Y003524D01*
X019721Y003554D01*
X019682Y003587D01*
X019645Y003622D01*
X019611Y003660D01*
X019580Y003701D01*
X019552Y003744D01*
X019527Y003789D01*
X019507Y003836D01*
X019489Y003884D01*
X019476Y003934D01*
X019466Y003984D01*
X019460Y004035D01*
X019458Y004086D01*
X019694Y005346D02*
X020561Y005346D01*
X038168Y016954D02*
X038325Y016797D01*
X041790Y016797D01*
X041947Y016954D01*
X041947Y020419D01*
X041790Y020576D01*
X038325Y020576D01*
X038168Y020419D01*
X038168Y016954D01*
X029822Y017905D02*
X028444Y017905D01*
X028837Y018220D02*
X029822Y018220D01*
X029822Y017905D01*
X028837Y018220D02*
X028837Y018693D01*
X026869Y018693D02*
X026869Y020267D01*
X028444Y021055D02*
X029822Y021055D01*
X029822Y020740D01*
X028837Y020740D01*
X028837Y020267D01*
D13*
X039402Y016334D02*
X039479Y016410D01*
X039632Y016410D01*
X039709Y016334D01*
X039402Y016334D02*
X039402Y016257D01*
X039709Y015950D01*
X039402Y015950D01*
X039863Y015950D02*
X040170Y015950D01*
X040016Y015950D02*
X040016Y016410D01*
X040170Y016257D01*
X040323Y016334D02*
X040400Y016410D01*
X040553Y016410D01*
X040630Y016334D01*
X040630Y016027D01*
X040553Y015950D01*
X040400Y015950D01*
X040323Y016027D01*
X040536Y014910D02*
X040536Y014450D01*
X040689Y014450D02*
X040382Y014450D01*
X040229Y014527D02*
X040152Y014450D01*
X039922Y014450D01*
X039922Y014757D01*
X039769Y014680D02*
X039615Y014680D01*
X039769Y014450D02*
X039769Y014910D01*
X039462Y014910D01*
X040229Y014757D02*
X040229Y014527D01*
X040536Y014910D02*
X040689Y014757D01*
X040843Y014527D02*
X040843Y014450D01*
X040920Y014450D01*
X040920Y014527D01*
X040843Y014527D01*
X041073Y014527D02*
X041150Y014450D01*
X041303Y014450D01*
X041380Y014527D01*
X041073Y014834D01*
X041073Y014527D01*
X041380Y014527D02*
X041380Y014834D01*
X041303Y014910D01*
X041150Y014910D01*
X041073Y014834D01*
X041075Y014033D02*
X041075Y012358D01*
X040918Y012330D02*
X040918Y011356D01*
X040646Y011070D02*
X040574Y011070D01*
X040417Y010913D01*
X040417Y010841D02*
X040617Y010655D01*
X040417Y010455D01*
X040417Y010398D02*
X040617Y010211D01*
X040431Y010011D01*
X040431Y009968D02*
X040617Y009768D01*
X040417Y009567D01*
X040417Y009510D02*
X040617Y009324D01*
X040431Y009124D01*
X040417Y009066D02*
X040617Y008866D01*
X040431Y008680D01*
X040417Y008623D02*
X040617Y008422D01*
X040417Y008222D01*
X040417Y008165D02*
X040617Y007979D01*
X040417Y007778D01*
X040417Y007735D02*
X040617Y007535D01*
X040431Y007349D01*
X040431Y007292D02*
X040617Y007091D01*
X040431Y006905D01*
X040417Y006848D02*
X040617Y006648D01*
X040417Y006447D01*
X040417Y006404D02*
X041504Y005317D01*
X041519Y005317D02*
X041719Y005517D01*
X041734Y005517D02*
X041934Y005317D01*
X041962Y005317D02*
X042163Y005517D01*
X042191Y005517D02*
X042392Y005317D01*
X042392Y005317D01*
X042406Y005331D02*
X042592Y005517D01*
X042621Y005517D02*
X042821Y005317D01*
X042821Y005317D01*
X042836Y005317D02*
X043036Y005517D01*
X043036Y005517D01*
X043079Y005517D02*
X043279Y005317D01*
X043279Y005317D01*
X043294Y005331D02*
X043480Y005517D01*
X043523Y005517D02*
X043723Y005317D01*
X043737Y005331D02*
X043923Y005517D01*
X043966Y005517D02*
X044167Y005317D01*
X044167Y005317D01*
X044181Y005317D02*
X044381Y005517D01*
X044381Y005517D01*
X044410Y005517D02*
X044610Y005317D01*
X044625Y005317D02*
X044825Y005517D01*
X044868Y005517D02*
X045068Y005317D01*
X045083Y005331D02*
X045269Y005517D01*
X045269Y005517D01*
X045297Y005517D02*
X045498Y005317D01*
X045498Y005317D01*
X045512Y005317D02*
X045712Y005517D01*
X045712Y005517D01*
X045755Y005517D02*
X045956Y005317D01*
X046371Y005732D01*
X046385Y005732D02*
X046385Y009796D01*
X046185Y009997D01*
X046185Y009997D01*
X046371Y010183D01*
X046371Y010240D02*
X046185Y010426D01*
X046371Y010612D01*
X046371Y010684D02*
X046185Y010870D01*
X046371Y011056D01*
X046385Y011070D02*
X046170Y011070D01*
X046170Y005760D01*
X046185Y005760D02*
X046371Y005946D01*
X046371Y006018D02*
X046371Y006018D01*
X046185Y006204D01*
X046371Y006390D01*
X046371Y006462D02*
X046185Y006648D01*
X046371Y006834D01*
X046371Y006905D02*
X046185Y007091D01*
X046371Y007277D01*
X046371Y007349D02*
X046185Y007535D01*
X046371Y007721D01*
X046371Y007778D02*
X046185Y007964D01*
X046371Y008151D01*
X046371Y008236D02*
X046185Y008422D01*
X046371Y008609D01*
X046371Y008680D02*
X046185Y008866D01*
X046371Y009052D01*
X046371Y009124D02*
X046185Y009310D01*
X046185Y009310D01*
X046371Y009496D01*
X046371Y009567D02*
X046185Y009753D01*
X046371Y009940D01*
X046371Y010025D02*
X046185Y010211D01*
X046371Y010398D01*
X046371Y010469D02*
X046185Y010655D01*
X046371Y010841D01*
X046371Y010913D02*
X046228Y011056D01*
X046385Y011070D02*
X046385Y009796D01*
X046371Y009725D02*
X046185Y009539D01*
X046371Y009353D01*
X046371Y009281D02*
X046371Y009281D01*
X046185Y009095D01*
X046371Y008909D01*
X046371Y008837D02*
X046185Y008651D01*
X046371Y008465D01*
X046371Y008394D02*
X046185Y008208D01*
X046371Y008022D01*
X046371Y007936D02*
X046185Y007750D01*
X046371Y007564D01*
X046371Y007492D02*
X046185Y007306D01*
X046371Y007120D01*
X046371Y007048D02*
X046185Y006862D01*
X046371Y006676D01*
X046371Y006605D02*
X046185Y006419D01*
X046185Y006419D01*
X046371Y006233D01*
X046371Y006175D02*
X046371Y006175D01*
X046185Y005989D01*
X046185Y005975D02*
X046371Y005789D01*
X046185Y005746D02*
X046342Y005589D01*
X046270Y005445D02*
X046113Y005603D01*
X045970Y005517D02*
X046127Y005360D01*
X045956Y005317D02*
X045956Y005317D01*
X045956Y005302D02*
X041276Y005302D01*
X040402Y006175D01*
X040402Y011070D01*
X040574Y011070D01*
X040646Y011070D02*
X040646Y006276D01*
X041390Y005531D01*
X044138Y005531D01*
X044138Y005517D01*
X043952Y005331D01*
X043952Y005317D02*
X043952Y005317D01*
X043751Y005517D01*
X043709Y005517D02*
X043523Y005331D01*
X043494Y005317D02*
X043494Y005317D01*
X043294Y005517D01*
X043251Y005517D02*
X043065Y005331D01*
X043064Y005317D02*
X043065Y005317D01*
X043064Y005317D02*
X042864Y005517D01*
X042821Y005517D02*
X042821Y005517D01*
X042621Y005317D01*
X042607Y005317D02*
X042606Y005317D01*
X042406Y005517D01*
X042378Y005517D02*
X042177Y005317D01*
X042163Y005317D02*
X041962Y005517D01*
X041948Y005517D02*
X041748Y005317D01*
X041719Y005317D02*
X041519Y005517D01*
X041504Y005517D02*
X041304Y005317D01*
X041175Y005431D02*
X041318Y005574D01*
X041218Y005689D02*
X041061Y005531D01*
X040961Y005660D02*
X040961Y005660D01*
X041104Y005803D01*
X040989Y005918D02*
X040846Y005775D01*
X040746Y005875D02*
X040746Y005875D01*
X040889Y006018D01*
X040760Y006132D02*
X040617Y005989D01*
X040503Y006090D02*
X040660Y006247D01*
X040617Y006419D02*
X040417Y006233D01*
X040617Y006419D02*
X040417Y006619D01*
X040417Y006662D02*
X040631Y006877D01*
X040431Y007091D01*
X040431Y007134D02*
X040617Y007320D01*
X040431Y007506D01*
X040417Y007564D02*
X040617Y007764D01*
X040417Y007964D01*
X040417Y008007D02*
X040617Y008208D01*
X040417Y008408D01*
X040431Y008465D02*
X040617Y008651D01*
X040431Y008852D01*
X040417Y008909D02*
X040617Y009095D01*
X040417Y009281D01*
X040431Y009367D02*
X040617Y009553D01*
X040417Y009739D01*
X040417Y009796D02*
X040603Y009982D01*
X040617Y009982D02*
X040417Y010183D01*
X040417Y010240D02*
X040617Y010440D01*
X040417Y010626D01*
X040417Y010684D02*
X040617Y010884D01*
X040431Y011056D01*
X040216Y010927D02*
X040030Y010927D01*
X040030Y011342D01*
X040173Y012902D01*
X040145Y013246D01*
X040417Y013246D01*
X040402Y013231D02*
X040402Y011428D01*
X040488Y011342D01*
X046270Y011342D01*
X046270Y011343D02*
X046290Y011345D01*
X046309Y011350D01*
X046327Y011358D01*
X046343Y011370D01*
X046357Y011384D01*
X046369Y011400D01*
X046377Y011418D01*
X046382Y011437D01*
X046384Y011457D01*
X046385Y011457D02*
X046385Y013231D01*
X046385Y013246D02*
X046657Y013246D01*
X046614Y012902D01*
X046786Y011342D01*
X046786Y010927D01*
X046585Y010927D01*
X046585Y005216D01*
X046786Y005216D01*
X046786Y002268D01*
X045369Y002268D01*
X045369Y004558D01*
X041576Y004558D01*
X041576Y002268D01*
X040016Y002268D01*
X040016Y004186D01*
X040360Y004186D01*
X040360Y003470D01*
X041547Y002282D01*
X041562Y002426D02*
X040388Y003585D01*
X040388Y003599D01*
X040603Y003599D01*
X040603Y004200D01*
X040860Y004200D01*
X040860Y005216D01*
X040417Y005216D02*
X046385Y005216D01*
X046385Y004386D01*
X046471Y004301D01*
X046771Y004301D01*
X046771Y004186D02*
X046428Y004186D01*
X046428Y002612D01*
X046242Y002426D01*
X045397Y002426D01*
X046242Y002411D02*
X046242Y002282D01*
X046213Y003599D02*
X046414Y003599D01*
X046414Y003742D02*
X046299Y003742D01*
X046299Y004472D01*
X045956Y004816D01*
X046199Y004558D02*
X046199Y004200D01*
X046199Y003614D01*
X046213Y003599D01*
X046199Y004200D02*
X045941Y004458D01*
X045941Y005202D01*
X045755Y005331D02*
X045941Y005517D01*
X045941Y005531D02*
X044138Y005531D01*
X044195Y005517D02*
X044396Y005317D01*
X044596Y005517D01*
X044596Y005517D01*
X044639Y005517D02*
X044839Y005317D01*
X044839Y005317D01*
X044854Y005317D02*
X045054Y005517D01*
X045083Y005517D02*
X045283Y005317D01*
X045297Y005317D02*
X045498Y005517D01*
X045498Y005517D01*
X045526Y005517D02*
X045727Y005317D01*
X045956Y005303D02*
X045996Y005305D01*
X046035Y005310D01*
X046073Y005319D01*
X046111Y005332D01*
X046147Y005348D01*
X046182Y005367D01*
X046215Y005390D01*
X046245Y005415D01*
X046273Y005443D01*
X046298Y005473D01*
X046321Y005506D01*
X046340Y005541D01*
X046356Y005577D01*
X046369Y005615D01*
X046378Y005653D01*
X046383Y005692D01*
X046385Y005732D01*
X046170Y005760D02*
X046168Y005732D01*
X046163Y005705D01*
X046155Y005679D01*
X046144Y005654D01*
X046129Y005630D01*
X046112Y005608D01*
X046093Y005589D01*
X046071Y005572D01*
X046047Y005557D01*
X046022Y005546D01*
X045996Y005538D01*
X045969Y005533D01*
X045941Y005531D01*
X045998Y006018D02*
X045996Y006004D01*
X045992Y005990D01*
X045984Y005978D01*
X045974Y005968D01*
X045962Y005960D01*
X045948Y005956D01*
X045934Y005954D01*
X045920Y005956D01*
X045906Y005960D01*
X045894Y005968D01*
X045884Y005978D01*
X045876Y005990D01*
X045872Y006004D01*
X045870Y006018D01*
X045870Y006319D01*
X045872Y006333D01*
X045876Y006347D01*
X045884Y006359D01*
X045894Y006369D01*
X045906Y006377D01*
X045920Y006381D01*
X045934Y006383D01*
X045948Y006381D01*
X045962Y006377D01*
X045974Y006369D01*
X045984Y006359D01*
X045992Y006347D01*
X045996Y006333D01*
X045998Y006319D01*
X045999Y006319D02*
X045999Y006018D01*
X045583Y005961D02*
X045583Y006376D01*
X045512Y006376D01*
X045496Y006374D01*
X045481Y006369D01*
X045467Y006360D01*
X045456Y006349D01*
X045447Y006335D01*
X045442Y006320D01*
X045440Y006304D01*
X045440Y006218D01*
X045441Y006218D02*
X045442Y006205D01*
X045447Y006193D01*
X045453Y006182D01*
X045462Y006173D01*
X045473Y006167D01*
X045485Y006162D01*
X045498Y006161D01*
X045569Y006161D01*
X045154Y006161D02*
X045054Y006161D01*
X045025Y005961D02*
X045168Y005961D01*
X045168Y006376D01*
X045025Y006376D01*
X044753Y006376D02*
X044610Y005961D01*
X044610Y006376D01*
X044753Y006376D02*
X044753Y005961D01*
X044582Y005775D02*
X044582Y005775D01*
X044524Y005717D01*
X044567Y005717D02*
X044038Y006247D01*
X044038Y006247D01*
X043981Y006290D02*
X043981Y006290D01*
X043408Y005717D01*
X043437Y005717D02*
X043265Y005889D01*
X043150Y005789D02*
X043222Y005717D01*
X043193Y005717D02*
X043651Y006175D01*
X044109Y005717D01*
X044081Y005717D02*
X044338Y005975D01*
X044224Y006075D02*
X043866Y005717D01*
X043880Y005717D02*
X043508Y006090D01*
X043394Y005989D02*
X043394Y005989D01*
X043666Y005717D01*
X043637Y005717D02*
X044109Y006190D01*
X043852Y006376D02*
X043766Y006290D01*
X043766Y006290D01*
X044338Y005717D01*
X044295Y005717D02*
X044453Y005875D01*
X044682Y005703D02*
X043036Y005703D01*
X043866Y006404D01*
X044696Y005703D01*
X043766Y006290D02*
X043651Y006175D01*
X043852Y006376D02*
X043852Y006376D01*
X043737Y006719D02*
X043809Y007807D01*
X044052Y007807D01*
X044138Y006719D01*
X044310Y006719D02*
X044310Y008007D01*
X044553Y008007D02*
X044553Y006719D01*
X044725Y006719D02*
X044811Y007807D01*
X045054Y007807D01*
X045140Y006748D01*
X045297Y006819D02*
X045297Y007864D01*
X044896Y008022D02*
X042979Y008022D01*
X043050Y007807D02*
X043136Y006719D01*
X043308Y006734D02*
X043308Y008007D01*
X043565Y008007D02*
X043565Y006734D01*
X042921Y006705D02*
X044954Y006705D01*
X045003Y006707D01*
X045053Y006713D01*
X045101Y006722D01*
X045149Y006736D01*
X045195Y006753D01*
X045240Y006774D01*
X045283Y006798D01*
X045324Y006825D01*
X045363Y006856D01*
X045399Y006890D01*
X045433Y006926D01*
X045464Y006965D01*
X045491Y007006D01*
X045515Y007049D01*
X045536Y007094D01*
X045553Y007140D01*
X045567Y007188D01*
X045576Y007236D01*
X045582Y007286D01*
X045584Y007335D01*
X045583Y007335D02*
X045581Y007386D01*
X045575Y007437D01*
X045566Y007488D01*
X045552Y007537D01*
X045536Y007586D01*
X045515Y007633D01*
X045491Y007679D01*
X045464Y007722D01*
X045433Y007763D01*
X045400Y007802D01*
X045363Y007839D01*
X045324Y007872D01*
X045283Y007903D01*
X045240Y007930D01*
X045194Y007954D01*
X045147Y007975D01*
X045098Y007991D01*
X045049Y008005D01*
X044998Y008014D01*
X044947Y008020D01*
X044896Y008022D01*
X042807Y008837D02*
X042809Y008885D01*
X042815Y008932D01*
X042825Y008979D01*
X042838Y009025D01*
X042855Y009070D01*
X042876Y009113D01*
X042900Y009154D01*
X042928Y009194D01*
X042958Y009230D01*
X042992Y009265D01*
X043028Y009296D01*
X043067Y009324D01*
X043107Y009349D01*
X043150Y009371D01*
X043194Y009389D01*
X043240Y009403D01*
X043287Y009414D01*
X043334Y009421D01*
X043382Y009424D01*
X043430Y009423D01*
X043478Y009418D01*
X043525Y009409D01*
X043571Y009397D01*
X043616Y009380D01*
X043659Y009361D01*
X043701Y009337D01*
X043741Y009310D01*
X043778Y009281D01*
X043813Y009248D01*
X043845Y009212D01*
X043874Y009174D01*
X043900Y009134D01*
X043923Y009092D01*
X043942Y009048D01*
X043957Y009002D01*
X043969Y008956D01*
X043977Y008909D01*
X043981Y008861D01*
X043981Y008813D01*
X043977Y008765D01*
X043969Y008718D01*
X043957Y008672D01*
X043942Y008626D01*
X043923Y008582D01*
X043900Y008540D01*
X043874Y008500D01*
X043845Y008462D01*
X043813Y008426D01*
X043778Y008393D01*
X043741Y008364D01*
X043701Y008337D01*
X043659Y008313D01*
X043616Y008294D01*
X043571Y008277D01*
X043525Y008265D01*
X043478Y008256D01*
X043430Y008251D01*
X043382Y008250D01*
X043334Y008253D01*
X043287Y008260D01*
X043240Y008271D01*
X043194Y008285D01*
X043150Y008303D01*
X043107Y008325D01*
X043067Y008350D01*
X043028Y008378D01*
X042992Y008409D01*
X042958Y008444D01*
X042928Y008480D01*
X042900Y008520D01*
X042876Y008561D01*
X042855Y008604D01*
X042838Y008649D01*
X042825Y008695D01*
X042815Y008742D01*
X042809Y008789D01*
X042807Y008837D01*
X042034Y008666D02*
X041891Y008666D01*
X041605Y008537D01*
X041605Y008666D02*
X041891Y008666D01*
X041776Y008609D02*
X042034Y008537D01*
X041333Y008709D02*
X040903Y008709D01*
X040903Y008852D02*
X041333Y008709D01*
X041333Y008852D02*
X040903Y008852D01*
X040903Y009095D02*
X040903Y009238D01*
X041333Y009238D01*
X041333Y009095D01*
X041676Y009052D02*
X041962Y009052D01*
X041962Y009053D02*
X041978Y009051D01*
X041993Y009046D01*
X042007Y009037D01*
X042018Y009026D01*
X042027Y009012D01*
X042032Y008997D01*
X042034Y008981D01*
X042032Y008965D01*
X042027Y008950D01*
X042018Y008936D01*
X042007Y008925D01*
X041993Y008916D01*
X041978Y008911D01*
X041962Y008909D01*
X041948Y008909D01*
X041691Y008909D02*
X041676Y008909D01*
X041660Y008911D01*
X041645Y008916D01*
X041631Y008925D01*
X041620Y008936D01*
X041611Y008950D01*
X041606Y008965D01*
X041604Y008981D01*
X041606Y008997D01*
X041611Y009012D01*
X041620Y009026D01*
X041631Y009037D01*
X041645Y009046D01*
X041660Y009051D01*
X041676Y009053D01*
X041662Y009310D02*
X041962Y009310D01*
X041976Y009312D01*
X041990Y009316D01*
X042002Y009324D01*
X042012Y009334D01*
X042020Y009346D01*
X042024Y009360D01*
X042026Y009374D01*
X042024Y009388D01*
X042020Y009402D01*
X042012Y009414D01*
X042002Y009424D01*
X041990Y009432D01*
X041976Y009436D01*
X041962Y009438D01*
X041962Y009439D02*
X041662Y009439D01*
X041662Y009438D02*
X041648Y009436D01*
X041634Y009432D01*
X041622Y009424D01*
X041612Y009414D01*
X041604Y009402D01*
X041600Y009388D01*
X041598Y009374D01*
X041600Y009360D01*
X041604Y009346D01*
X041612Y009334D01*
X041622Y009324D01*
X041634Y009316D01*
X041648Y009312D01*
X041662Y009310D01*
X041333Y009496D02*
X041118Y009496D01*
X041118Y009625D01*
X040903Y009625D01*
X040903Y009496D02*
X041118Y009496D01*
X041118Y009625D02*
X041333Y009625D01*
X041605Y009825D02*
X042034Y009825D01*
X042034Y009682D01*
X042564Y009854D02*
X042564Y010841D01*
X042735Y010941D02*
X042821Y009868D01*
X043050Y009868D01*
X043136Y010984D01*
X043308Y010984D02*
X043308Y009739D01*
X043551Y009725D02*
X043551Y010970D01*
X043723Y010970D02*
X043809Y009882D01*
X044066Y009882D01*
X044138Y010984D01*
X044310Y010984D02*
X044310Y009739D01*
X044553Y009725D02*
X044553Y010999D01*
X044925Y010999D01*
X044725Y010984D02*
X044811Y009868D01*
X045054Y009868D01*
X045140Y010941D01*
X045297Y010856D02*
X045297Y009825D01*
X044954Y009711D02*
X042936Y009711D01*
X042034Y010083D02*
X041605Y010083D01*
X041934Y010197D01*
X041605Y010326D01*
X042034Y010326D01*
X042034Y010584D02*
X041605Y010584D01*
X041662Y010841D02*
X041691Y010841D01*
X041662Y010842D02*
X041648Y010844D01*
X041634Y010848D01*
X041622Y010856D01*
X041612Y010866D01*
X041604Y010878D01*
X041600Y010892D01*
X041598Y010906D01*
X041600Y010920D01*
X041604Y010934D01*
X041612Y010946D01*
X041622Y010956D01*
X041634Y010964D01*
X041648Y010968D01*
X041662Y010970D01*
X041762Y010970D01*
X041775Y010969D01*
X041787Y010964D01*
X041798Y010958D01*
X041807Y010949D01*
X041813Y010938D01*
X041818Y010926D01*
X041819Y010913D01*
X041819Y010898D01*
X041820Y010898D02*
X041825Y010883D01*
X041834Y010869D01*
X041845Y010857D01*
X041859Y010848D01*
X041875Y010843D01*
X041891Y010841D01*
X041977Y010841D01*
X041977Y010842D02*
X041991Y010844D01*
X042005Y010848D01*
X042017Y010856D01*
X042027Y010866D01*
X042035Y010878D01*
X042039Y010892D01*
X042041Y010906D01*
X042039Y010920D01*
X042035Y010934D01*
X042027Y010946D01*
X042017Y010956D01*
X042005Y010964D01*
X041991Y010968D01*
X041977Y010970D01*
X041934Y010970D01*
X041333Y010970D02*
X040903Y010870D01*
X041333Y010784D01*
X041161Y010841D02*
X041161Y010913D01*
X041333Y010512D02*
X040903Y010512D01*
X041218Y010398D01*
X040903Y010283D01*
X041333Y010283D01*
X041333Y010025D02*
X040903Y010025D01*
X040903Y009954D01*
X040905Y009938D01*
X040910Y009923D01*
X040918Y009909D01*
X040929Y009898D01*
X040943Y009889D01*
X040957Y009883D01*
X040973Y009881D01*
X040989Y009882D01*
X041046Y009882D01*
X041062Y009884D01*
X041077Y009889D01*
X041091Y009897D01*
X041102Y009908D01*
X041111Y009922D01*
X041117Y009936D01*
X041119Y009952D01*
X041118Y009968D01*
X041118Y010011D01*
X040216Y010927D02*
X040216Y005216D01*
X040016Y005216D01*
X040016Y004186D01*
X040030Y004301D02*
X040417Y004301D01*
X040417Y005216D01*
X040402Y005073D02*
X040030Y005073D01*
X040030Y004444D02*
X040402Y004444D01*
X040546Y004301D02*
X040546Y003800D01*
X040474Y003728D01*
X040374Y003728D01*
X040374Y003757D02*
X040488Y003757D01*
X040546Y004301D02*
X040846Y004301D01*
X041748Y005961D02*
X041748Y006376D01*
X041891Y006376D02*
X041748Y005961D01*
X041891Y005961D02*
X041891Y006376D01*
X042163Y006376D02*
X042306Y006376D01*
X042306Y005961D01*
X042163Y005961D01*
X042191Y006161D02*
X042292Y006161D01*
X042578Y006218D02*
X042578Y006304D01*
X042577Y006304D02*
X042579Y006320D01*
X042584Y006335D01*
X042593Y006349D01*
X042604Y006360D01*
X042618Y006369D01*
X042633Y006374D01*
X042649Y006376D01*
X042721Y006376D01*
X042721Y005961D01*
X042707Y006161D02*
X042635Y006161D01*
X042622Y006162D01*
X042610Y006167D01*
X042599Y006173D01*
X042590Y006182D01*
X042584Y006193D01*
X042579Y006205D01*
X042578Y006218D01*
X043007Y006319D02*
X043007Y006018D01*
X043008Y006018D02*
X043010Y006004D01*
X043014Y005990D01*
X043022Y005978D01*
X043032Y005968D01*
X043044Y005960D01*
X043058Y005956D01*
X043072Y005954D01*
X043086Y005956D01*
X043100Y005960D01*
X043112Y005968D01*
X043122Y005978D01*
X043130Y005990D01*
X043134Y006004D01*
X043136Y006018D01*
X043136Y006319D01*
X043134Y006333D01*
X043130Y006347D01*
X043122Y006359D01*
X043112Y006369D01*
X043100Y006377D01*
X043086Y006381D01*
X043072Y006383D01*
X043058Y006381D01*
X043044Y006377D01*
X043032Y006369D01*
X043022Y006359D01*
X043014Y006347D01*
X043010Y006333D01*
X043008Y006319D01*
X042735Y006748D02*
X042807Y007807D01*
X043050Y007807D01*
X042564Y007850D02*
X042564Y006834D01*
X042921Y006705D02*
X042872Y006707D01*
X042822Y006713D01*
X042774Y006722D01*
X042726Y006736D01*
X042680Y006753D01*
X042635Y006774D01*
X042592Y006798D01*
X042551Y006825D01*
X042512Y006856D01*
X042476Y006890D01*
X042442Y006926D01*
X042411Y006965D01*
X042384Y007006D01*
X042360Y007049D01*
X042339Y007094D01*
X042322Y007140D01*
X042308Y007188D01*
X042299Y007236D01*
X042293Y007286D01*
X042291Y007335D01*
X042292Y007335D02*
X042294Y007386D01*
X042300Y007437D01*
X042309Y007488D01*
X042323Y007537D01*
X042339Y007586D01*
X042360Y007633D01*
X042384Y007679D01*
X042411Y007722D01*
X042442Y007763D01*
X042475Y007802D01*
X042512Y007839D01*
X042551Y007872D01*
X042592Y007903D01*
X042636Y007930D01*
X042681Y007954D01*
X042728Y007975D01*
X042777Y007991D01*
X042826Y008005D01*
X042877Y008014D01*
X042928Y008020D01*
X042979Y008022D01*
X041862Y008079D02*
X041691Y008122D01*
X041691Y008165D01*
X041433Y008136D02*
X041435Y008169D01*
X041441Y008201D01*
X041451Y008232D01*
X041464Y008262D01*
X041481Y008291D01*
X041501Y008316D01*
X041525Y008340D01*
X041550Y008360D01*
X041579Y008377D01*
X041609Y008390D01*
X041640Y008400D01*
X041672Y008406D01*
X041705Y008408D01*
X041738Y008406D01*
X041770Y008400D01*
X041801Y008390D01*
X041831Y008377D01*
X041860Y008360D01*
X041885Y008340D01*
X041909Y008316D01*
X041929Y008291D01*
X041946Y008262D01*
X041959Y008232D01*
X041969Y008201D01*
X041975Y008169D01*
X041977Y008136D01*
X041975Y008103D01*
X041969Y008071D01*
X041959Y008040D01*
X041946Y008010D01*
X041929Y007981D01*
X041909Y007956D01*
X041885Y007932D01*
X041860Y007912D01*
X041831Y007895D01*
X041801Y007882D01*
X041770Y007872D01*
X041738Y007866D01*
X041705Y007864D01*
X041672Y007866D01*
X041640Y007872D01*
X041609Y007882D01*
X041579Y007895D01*
X041550Y007912D01*
X041525Y007932D01*
X041501Y007956D01*
X041481Y007981D01*
X041464Y008010D01*
X041451Y008040D01*
X041441Y008071D01*
X041435Y008103D01*
X041433Y008136D01*
X041547Y008136D02*
X041547Y008179D01*
X041862Y008179D01*
X041691Y008122D02*
X041686Y008110D01*
X041678Y008100D01*
X041669Y008091D01*
X041658Y008084D01*
X041646Y008080D01*
X041633Y008079D01*
X041605Y008079D01*
X041592Y008080D01*
X041580Y008085D01*
X041569Y008091D01*
X041560Y008100D01*
X041554Y008111D01*
X041549Y008123D01*
X041548Y008136D01*
X041318Y008065D02*
X041318Y007921D01*
X041318Y008065D02*
X040903Y008065D01*
X040961Y008322D02*
X041261Y008322D01*
X041261Y008323D02*
X041275Y008325D01*
X041289Y008329D01*
X041301Y008337D01*
X041311Y008347D01*
X041319Y008359D01*
X041323Y008373D01*
X041325Y008387D01*
X041323Y008401D01*
X041319Y008415D01*
X041311Y008427D01*
X041301Y008437D01*
X041289Y008445D01*
X041275Y008449D01*
X041261Y008451D01*
X040961Y008451D01*
X040947Y008449D01*
X040933Y008445D01*
X040921Y008437D01*
X040911Y008427D01*
X040903Y008415D01*
X040899Y008401D01*
X040897Y008387D01*
X040899Y008373D01*
X040903Y008359D01*
X040911Y008347D01*
X040921Y008337D01*
X040933Y008329D01*
X040947Y008325D01*
X040961Y008323D01*
X042936Y009710D02*
X042887Y009712D01*
X042837Y009718D01*
X042789Y009727D01*
X042741Y009741D01*
X042695Y009758D01*
X042650Y009779D01*
X042607Y009803D01*
X042566Y009830D01*
X042527Y009861D01*
X042491Y009895D01*
X042457Y009931D01*
X042426Y009970D01*
X042399Y010011D01*
X042375Y010054D01*
X042354Y010099D01*
X042337Y010145D01*
X042323Y010193D01*
X042314Y010241D01*
X042308Y010291D01*
X042306Y010340D01*
X042308Y010389D01*
X042313Y010438D01*
X042322Y010486D01*
X042335Y010534D01*
X042351Y010580D01*
X042371Y010625D01*
X042394Y010669D01*
X042420Y010711D01*
X042450Y010750D01*
X042482Y010788D01*
X042516Y010822D01*
X042554Y010854D01*
X042593Y010884D01*
X042635Y010910D01*
X042679Y010933D01*
X042724Y010953D01*
X042770Y010969D01*
X042818Y010982D01*
X042866Y010991D01*
X042915Y010996D01*
X042964Y010998D01*
X042964Y010999D02*
X044553Y010999D01*
X044567Y011356D02*
X044567Y011442D01*
X044569Y011459D01*
X044574Y011475D01*
X044581Y011490D01*
X044592Y011503D01*
X044605Y011514D01*
X044620Y011521D01*
X044636Y011526D01*
X044653Y011528D01*
X045226Y011528D01*
X045243Y011526D01*
X045259Y011521D01*
X045274Y011514D01*
X045287Y011503D01*
X045298Y011490D01*
X045305Y011475D01*
X045310Y011459D01*
X045312Y011442D01*
X045312Y011356D01*
X045140Y011356D02*
X045140Y011514D01*
X044710Y011514D02*
X044710Y011356D01*
X044310Y011356D02*
X044310Y011428D01*
X044308Y011445D01*
X044303Y011461D01*
X044296Y011476D01*
X044285Y011489D01*
X044272Y011500D01*
X044257Y011507D01*
X044241Y011512D01*
X044224Y011514D01*
X043637Y011514D01*
X043621Y011512D01*
X043606Y011507D01*
X043592Y011498D01*
X043581Y011487D01*
X043572Y011473D01*
X043567Y011458D01*
X043565Y011442D01*
X043565Y011356D01*
X043709Y011356D02*
X043709Y011500D01*
X043308Y011442D02*
X043308Y011356D01*
X043308Y011442D02*
X043306Y011458D01*
X043301Y011473D01*
X043292Y011487D01*
X043281Y011498D01*
X043267Y011507D01*
X043252Y011512D01*
X043236Y011514D01*
X042635Y011514D01*
X042619Y011512D01*
X042604Y011507D01*
X042590Y011498D01*
X042579Y011487D01*
X042570Y011473D01*
X042565Y011458D01*
X042563Y011442D01*
X042564Y011442D02*
X042564Y011356D01*
X042721Y011356D02*
X042721Y011500D01*
X043150Y011500D02*
X043150Y011371D01*
X044152Y011356D02*
X044152Y011500D01*
X045727Y012358D02*
X045727Y014047D01*
X045369Y014061D02*
X046356Y014061D01*
X046356Y012344D01*
X040431Y012344D01*
X040431Y014061D01*
X041562Y014061D01*
X041562Y013131D01*
X045369Y013131D01*
X045712Y013131D01*
X045741Y012988D02*
X046342Y012988D01*
X046342Y013031D02*
X046013Y013031D01*
X046013Y013804D01*
X046342Y013804D01*
X046342Y013704D02*
X046113Y013704D01*
X046027Y013789D01*
X046113Y013689D02*
X046113Y013145D01*
X046127Y013145D02*
X046027Y013045D01*
X046127Y013145D02*
X046342Y013145D01*
X046399Y012902D02*
X046600Y012902D01*
X046914Y012897D02*
X047221Y013204D01*
X047297Y013204D01*
X047374Y013127D01*
X047374Y012974D01*
X047297Y012897D01*
X047297Y012744D02*
X046990Y012437D01*
X046914Y012513D01*
X046914Y012667D01*
X046990Y012744D01*
X047297Y012744D01*
X047374Y012667D01*
X047374Y012513D01*
X047297Y012437D01*
X046990Y012437D01*
X046914Y012283D02*
X046914Y011976D01*
X046914Y011823D02*
X047067Y011669D01*
X047067Y011746D02*
X047067Y011516D01*
X046914Y011516D02*
X047374Y011516D01*
X047374Y011746D01*
X047297Y011823D01*
X047144Y011823D01*
X047067Y011746D01*
X047221Y011976D02*
X047374Y012130D01*
X046914Y012130D01*
X046700Y011915D02*
X046399Y011915D01*
X046399Y011743D02*
X046643Y011743D01*
X046728Y011800D01*
X046628Y011729D02*
X046671Y011342D01*
X046671Y010941D01*
X046914Y010902D02*
X046914Y010595D01*
X047221Y010902D01*
X047297Y010902D01*
X047374Y010825D01*
X047374Y010672D01*
X047297Y010595D01*
X047297Y010442D02*
X046990Y010135D01*
X046914Y010211D01*
X046914Y010365D01*
X046990Y010442D01*
X047297Y010442D01*
X047374Y010365D01*
X047374Y010211D01*
X047297Y010135D01*
X046990Y010135D01*
X046990Y009981D02*
X046914Y009905D01*
X046914Y009751D01*
X046990Y009674D01*
X047297Y009981D01*
X046990Y009981D01*
X046990Y009674D02*
X047297Y009674D01*
X047374Y009751D01*
X047374Y009905D01*
X047297Y009981D01*
X047297Y009521D02*
X047221Y009521D01*
X047144Y009444D01*
X047067Y009521D01*
X046990Y009521D01*
X046914Y009444D01*
X046914Y009291D01*
X046990Y009214D01*
X047144Y009367D02*
X047144Y009444D01*
X047297Y009521D02*
X047374Y009444D01*
X047374Y009291D01*
X047297Y009214D01*
X047144Y009060D02*
X047144Y008754D01*
X047221Y008600D02*
X047144Y008523D01*
X047067Y008600D01*
X046990Y008600D01*
X046914Y008523D01*
X046914Y008370D01*
X046990Y008293D01*
X046990Y008140D02*
X046914Y008063D01*
X046914Y007909D01*
X046990Y007833D01*
X047297Y008140D01*
X046990Y008140D01*
X046990Y007833D02*
X047297Y007833D01*
X047374Y007909D01*
X047374Y008063D01*
X047297Y008140D01*
X047297Y008293D02*
X047374Y008370D01*
X047374Y008523D01*
X047297Y008600D01*
X047221Y008600D01*
X047144Y008523D02*
X047144Y008447D01*
X047374Y007679D02*
X046914Y007679D01*
X046914Y007372D02*
X047374Y007372D01*
X047221Y007526D01*
X047374Y007679D01*
X047297Y007219D02*
X047374Y007142D01*
X047374Y006989D01*
X047297Y006912D01*
X046990Y006912D01*
X046914Y006989D01*
X046914Y007142D01*
X046990Y007219D01*
X046990Y006759D02*
X046914Y006682D01*
X046914Y006528D01*
X046990Y006452D01*
X047297Y006452D01*
X047374Y006528D01*
X047374Y006682D01*
X047297Y006759D01*
X044954Y009710D02*
X045003Y009712D01*
X045053Y009718D01*
X045101Y009727D01*
X045149Y009741D01*
X045195Y009758D01*
X045240Y009779D01*
X045283Y009803D01*
X045324Y009830D01*
X045363Y009861D01*
X045399Y009895D01*
X045433Y009931D01*
X045464Y009970D01*
X045491Y010011D01*
X045515Y010054D01*
X045536Y010099D01*
X045553Y010145D01*
X045567Y010193D01*
X045576Y010241D01*
X045582Y010291D01*
X045584Y010340D01*
X045583Y010340D02*
X045581Y010389D01*
X045576Y010438D01*
X045567Y010486D01*
X045554Y010534D01*
X045538Y010580D01*
X045518Y010625D01*
X045495Y010669D01*
X045469Y010711D01*
X045439Y010750D01*
X045407Y010788D01*
X045373Y010822D01*
X045335Y010854D01*
X045296Y010884D01*
X045254Y010910D01*
X045210Y010933D01*
X045165Y010953D01*
X045119Y010969D01*
X045071Y010982D01*
X045023Y010991D01*
X044974Y010996D01*
X044925Y010998D01*
X045884Y011356D02*
X045884Y012330D01*
X046914Y012897D02*
X046914Y013204D01*
X045369Y013131D02*
X045369Y014061D01*
X041547Y013131D02*
X041104Y013131D01*
X041061Y013002D02*
X040445Y013002D01*
X040445Y013045D02*
X040789Y013045D01*
X040789Y013804D01*
X040445Y013804D01*
X040445Y013704D02*
X040674Y013704D01*
X040674Y013174D01*
X040674Y013160D02*
X040775Y013060D01*
X040674Y013160D02*
X040445Y013160D01*
X040417Y012902D02*
X040188Y012902D01*
X040674Y013704D02*
X040689Y013704D01*
X040775Y013789D01*
X040388Y011915D02*
X040102Y011915D01*
X040088Y011786D02*
X040159Y011729D01*
X040388Y011729D01*
X040173Y011714D02*
X040131Y011328D01*
X040131Y010941D01*
X040116Y011328D02*
X040045Y011328D01*
X046671Y011342D02*
X046771Y011342D01*
X028697Y002647D02*
X028720Y002624D01*
X028740Y002598D01*
X028757Y002570D01*
X028771Y002541D01*
X028782Y002510D01*
X028789Y002479D01*
X028793Y002446D01*
X028793Y002414D01*
X028789Y002381D01*
X028782Y002350D01*
X028771Y002319D01*
X028757Y002290D01*
X028740Y002262D01*
X028720Y002236D01*
X028697Y002213D01*
X028303Y002213D02*
X028280Y002236D01*
X028260Y002262D01*
X028243Y002290D01*
X028229Y002319D01*
X028218Y002350D01*
X028211Y002381D01*
X028207Y002414D01*
X028207Y002446D01*
X028211Y002479D01*
X028218Y002510D01*
X028229Y002541D01*
X028243Y002570D01*
X028260Y002598D01*
X028280Y002624D01*
X028303Y002647D01*
D14*
X041521Y020261D02*
X041523Y020281D01*
X041528Y020301D01*
X041538Y020319D01*
X041550Y020336D01*
X041565Y020350D01*
X041583Y020360D01*
X041602Y020368D01*
X041622Y020372D01*
X041642Y020372D01*
X041662Y020368D01*
X041681Y020360D01*
X041699Y020350D01*
X041714Y020336D01*
X041726Y020319D01*
X041736Y020301D01*
X041741Y020281D01*
X041743Y020261D01*
X041741Y020241D01*
X041736Y020221D01*
X041726Y020203D01*
X041714Y020186D01*
X041699Y020172D01*
X041681Y020162D01*
X041662Y020154D01*
X041642Y020150D01*
X041622Y020150D01*
X041602Y020154D01*
X041583Y020162D01*
X041565Y020172D01*
X041550Y020186D01*
X041538Y020203D01*
X041528Y020221D01*
X041523Y020241D01*
X041521Y020261D01*
D15*
X027545Y019913D02*
X027520Y019938D01*
X027495Y019938D01*
X027470Y019913D01*
X027445Y019938D01*
X027420Y019938D01*
X027395Y019913D01*
X027395Y019863D01*
X027420Y019838D01*
X027470Y019790D02*
X027445Y019765D01*
X027445Y019690D01*
X027395Y019690D02*
X027545Y019690D01*
X027545Y019765D01*
X027520Y019790D01*
X027470Y019790D01*
X027520Y019838D02*
X027545Y019863D01*
X027545Y019913D01*
X027470Y019913D02*
X027470Y019888D01*
X027545Y019643D02*
X027545Y019593D01*
X027545Y019618D02*
X027420Y019618D01*
X027395Y019593D01*
X027395Y019568D01*
X027420Y019543D01*
D16*
X043400Y015930D02*
X043400Y015330D01*
X043402Y015313D01*
X043406Y015296D01*
X043413Y015280D01*
X043423Y015266D01*
X043436Y015253D01*
X043450Y015243D01*
X043466Y015236D01*
X043483Y015232D01*
X043500Y015230D01*
X045200Y015230D01*
X045217Y015232D01*
X045234Y015236D01*
X045250Y015243D01*
X045264Y015253D01*
X045277Y015266D01*
X045287Y015280D01*
X045294Y015296D01*
X045298Y015313D01*
X045300Y015330D01*
X045300Y015930D01*
X045298Y015947D01*
X045294Y015964D01*
X045287Y015980D01*
X045277Y015994D01*
X045264Y016007D01*
X045250Y016017D01*
X045234Y016024D01*
X045217Y016028D01*
X045200Y016030D01*
X043500Y016030D01*
X043483Y016028D01*
X043466Y016024D01*
X043450Y016017D01*
X043436Y016007D01*
X043423Y015994D01*
X043413Y015980D01*
X043406Y015964D01*
X043402Y015947D01*
X043400Y015930D01*
X046000Y015280D02*
X046000Y016980D01*
X046002Y016997D01*
X046006Y017014D01*
X046013Y017030D01*
X046023Y017044D01*
X046036Y017057D01*
X046050Y017067D01*
X046066Y017074D01*
X046083Y017078D01*
X046100Y017080D01*
X046700Y017080D01*
X046717Y017078D01*
X046734Y017074D01*
X046750Y017067D01*
X046764Y017057D01*
X046777Y017044D01*
X046787Y017030D01*
X046794Y017014D01*
X046798Y016997D01*
X046800Y016980D01*
X046800Y015280D01*
X046798Y015263D01*
X046794Y015246D01*
X046787Y015230D01*
X046777Y015216D01*
X046764Y015203D01*
X046750Y015193D01*
X046734Y015186D01*
X046717Y015182D01*
X046700Y015180D01*
X046100Y015180D01*
X046083Y015182D01*
X046066Y015186D01*
X046050Y015193D01*
X046036Y015203D01*
X046023Y015216D01*
X046013Y015230D01*
X046006Y015246D01*
X046002Y015263D01*
X046000Y015280D01*
D17*
X028500Y002430D03*
D18*
X028726Y002223D03*
M02*
