G75*
G70*
%OFA0B0*%
%FSLAX24Y24*%
%IPPOS*%
%LPD*%
%AMOC8*
5,1,8,0,0,1.08239X$1,22.5*
%
%ADD10R,0.0300X0.0600*%
%ADD11C,0.0670*%
%ADD12C,0.0790*%
%ADD13C,0.1090*%
%ADD14C,0.0552*%
%ADD15R,0.0780X0.0780*%
%ADD16OC8,0.0780*%
%ADD17C,0.0059*%
%ADD18C,0.0634*%
%ADD19C,0.0047*%
%ADD20C,0.0043*%
%ADD21C,0.0067*%
%ADD22C,0.0043*%
%ADD23C,0.0043*%
%ADD24C,0.0083*%
%ADD25C,0.0390*%
%ADD26C,0.0640*%
%ADD27C,0.0476*%
%ADD28C,0.0555*%
%ADD29C,0.0045*%
%ADD30C,0.0594*%
D10*
X029350Y006380D03*
D11*
X001400Y001480D03*
X026850Y001480D03*
X050300Y001480D03*
X050300Y021880D03*
X026850Y022180D03*
X001400Y021880D03*
D12*
X020127Y004086D03*
D13*
X019124Y003082D03*
X021131Y003082D03*
X021131Y005090D03*
X019124Y005090D03*
D14*
X037644Y012337D03*
X041644Y004337D03*
D15*
X047293Y020774D03*
D16*
X048293Y020774D03*
X049293Y020774D03*
X049293Y021774D03*
X048293Y021774D03*
X047293Y021774D03*
D17*
X026220Y013171D02*
X026220Y012089D01*
X026220Y013171D02*
X026752Y013171D01*
X026752Y012089D01*
X026220Y012089D01*
X026220Y012147D02*
X026752Y012147D01*
X026752Y012205D02*
X026220Y012205D01*
X026220Y012263D02*
X026752Y012263D01*
X026752Y012321D02*
X026220Y012321D01*
X026220Y012379D02*
X026752Y012379D01*
X026752Y012437D02*
X026220Y012437D01*
X026220Y012495D02*
X026752Y012495D01*
X026752Y012553D02*
X026220Y012553D01*
X026220Y012611D02*
X026752Y012611D01*
X026752Y012669D02*
X026220Y012669D01*
X026220Y012727D02*
X026752Y012727D01*
X026752Y012785D02*
X026220Y012785D01*
X026220Y012843D02*
X026752Y012843D01*
X026752Y012901D02*
X026220Y012901D01*
X026220Y012959D02*
X026752Y012959D01*
X026752Y013017D02*
X026220Y013017D01*
X026220Y013075D02*
X026752Y013075D01*
X026752Y013133D02*
X026220Y013133D01*
X024448Y013171D02*
X024448Y012089D01*
X024448Y013171D02*
X024980Y013171D01*
X024980Y012089D01*
X024448Y012089D01*
X024448Y012147D02*
X024980Y012147D01*
X024980Y012205D02*
X024448Y012205D01*
X024448Y012263D02*
X024980Y012263D01*
X024980Y012321D02*
X024448Y012321D01*
X024448Y012379D02*
X024980Y012379D01*
X024980Y012437D02*
X024448Y012437D01*
X024448Y012495D02*
X024980Y012495D01*
X024980Y012553D02*
X024448Y012553D01*
X024448Y012611D02*
X024980Y012611D01*
X024980Y012669D02*
X024448Y012669D01*
X024448Y012727D02*
X024980Y012727D01*
X024980Y012785D02*
X024448Y012785D01*
X024448Y012843D02*
X024980Y012843D01*
X024980Y012901D02*
X024448Y012901D01*
X024448Y012959D02*
X024980Y012959D01*
X024980Y013017D02*
X024448Y013017D01*
X024448Y013075D02*
X024980Y013075D01*
X024980Y013133D02*
X024448Y013133D01*
X023220Y013171D02*
X023220Y012089D01*
X023220Y013171D02*
X023752Y013171D01*
X023752Y012089D01*
X023220Y012089D01*
X023220Y012147D02*
X023752Y012147D01*
X023752Y012205D02*
X023220Y012205D01*
X023220Y012263D02*
X023752Y012263D01*
X023752Y012321D02*
X023220Y012321D01*
X023220Y012379D02*
X023752Y012379D01*
X023752Y012437D02*
X023220Y012437D01*
X023220Y012495D02*
X023752Y012495D01*
X023752Y012553D02*
X023220Y012553D01*
X023220Y012611D02*
X023752Y012611D01*
X023752Y012669D02*
X023220Y012669D01*
X023220Y012727D02*
X023752Y012727D01*
X023752Y012785D02*
X023220Y012785D01*
X023220Y012843D02*
X023752Y012843D01*
X023752Y012901D02*
X023220Y012901D01*
X023220Y012959D02*
X023752Y012959D01*
X023752Y013017D02*
X023220Y013017D01*
X023220Y013075D02*
X023752Y013075D01*
X023752Y013133D02*
X023220Y013133D01*
X021448Y013171D02*
X021448Y012089D01*
X021448Y013171D02*
X021980Y013171D01*
X021980Y012089D01*
X021448Y012089D01*
X021448Y012147D02*
X021980Y012147D01*
X021980Y012205D02*
X021448Y012205D01*
X021448Y012263D02*
X021980Y012263D01*
X021980Y012321D02*
X021448Y012321D01*
X021448Y012379D02*
X021980Y012379D01*
X021980Y012437D02*
X021448Y012437D01*
X021448Y012495D02*
X021980Y012495D01*
X021980Y012553D02*
X021448Y012553D01*
X021448Y012611D02*
X021980Y012611D01*
X021980Y012669D02*
X021448Y012669D01*
X021448Y012727D02*
X021980Y012727D01*
X021980Y012785D02*
X021448Y012785D01*
X021448Y012843D02*
X021980Y012843D01*
X021980Y012901D02*
X021448Y012901D01*
X021448Y012959D02*
X021980Y012959D01*
X021980Y013017D02*
X021448Y013017D01*
X021448Y013075D02*
X021980Y013075D01*
X021980Y013133D02*
X021448Y013133D01*
X019470Y013171D02*
X019470Y012089D01*
X019470Y013171D02*
X020002Y013171D01*
X020002Y012089D01*
X019470Y012089D01*
X019470Y012147D02*
X020002Y012147D01*
X020002Y012205D02*
X019470Y012205D01*
X019470Y012263D02*
X020002Y012263D01*
X020002Y012321D02*
X019470Y012321D01*
X019470Y012379D02*
X020002Y012379D01*
X020002Y012437D02*
X019470Y012437D01*
X019470Y012495D02*
X020002Y012495D01*
X020002Y012553D02*
X019470Y012553D01*
X019470Y012611D02*
X020002Y012611D01*
X020002Y012669D02*
X019470Y012669D01*
X019470Y012727D02*
X020002Y012727D01*
X020002Y012785D02*
X019470Y012785D01*
X019470Y012843D02*
X020002Y012843D01*
X020002Y012901D02*
X019470Y012901D01*
X019470Y012959D02*
X020002Y012959D01*
X020002Y013017D02*
X019470Y013017D01*
X019470Y013075D02*
X020002Y013075D01*
X020002Y013133D02*
X019470Y013133D01*
X017698Y013171D02*
X017698Y012089D01*
X017698Y013171D02*
X018230Y013171D01*
X018230Y012089D01*
X017698Y012089D01*
X017698Y012147D02*
X018230Y012147D01*
X018230Y012205D02*
X017698Y012205D01*
X017698Y012263D02*
X018230Y012263D01*
X018230Y012321D02*
X017698Y012321D01*
X017698Y012379D02*
X018230Y012379D01*
X018230Y012437D02*
X017698Y012437D01*
X017698Y012495D02*
X018230Y012495D01*
X018230Y012553D02*
X017698Y012553D01*
X017698Y012611D02*
X018230Y012611D01*
X018230Y012669D02*
X017698Y012669D01*
X017698Y012727D02*
X018230Y012727D01*
X018230Y012785D02*
X017698Y012785D01*
X017698Y012843D02*
X018230Y012843D01*
X018230Y012901D02*
X017698Y012901D01*
X017698Y012959D02*
X018230Y012959D01*
X018230Y013017D02*
X017698Y013017D01*
X017698Y013075D02*
X018230Y013075D01*
X018230Y013133D02*
X017698Y013133D01*
X015470Y013171D02*
X015470Y012089D01*
X015470Y013171D02*
X016002Y013171D01*
X016002Y012089D01*
X015470Y012089D01*
X015470Y012147D02*
X016002Y012147D01*
X016002Y012205D02*
X015470Y012205D01*
X015470Y012263D02*
X016002Y012263D01*
X016002Y012321D02*
X015470Y012321D01*
X015470Y012379D02*
X016002Y012379D01*
X016002Y012437D02*
X015470Y012437D01*
X015470Y012495D02*
X016002Y012495D01*
X016002Y012553D02*
X015470Y012553D01*
X015470Y012611D02*
X016002Y012611D01*
X016002Y012669D02*
X015470Y012669D01*
X015470Y012727D02*
X016002Y012727D01*
X016002Y012785D02*
X015470Y012785D01*
X015470Y012843D02*
X016002Y012843D01*
X016002Y012901D02*
X015470Y012901D01*
X015470Y012959D02*
X016002Y012959D01*
X016002Y013017D02*
X015470Y013017D01*
X015470Y013075D02*
X016002Y013075D01*
X016002Y013133D02*
X015470Y013133D01*
X013698Y013171D02*
X013698Y012089D01*
X013698Y013171D02*
X014230Y013171D01*
X014230Y012089D01*
X013698Y012089D01*
X013698Y012147D02*
X014230Y012147D01*
X014230Y012205D02*
X013698Y012205D01*
X013698Y012263D02*
X014230Y012263D01*
X014230Y012321D02*
X013698Y012321D01*
X013698Y012379D02*
X014230Y012379D01*
X014230Y012437D02*
X013698Y012437D01*
X013698Y012495D02*
X014230Y012495D01*
X014230Y012553D02*
X013698Y012553D01*
X013698Y012611D02*
X014230Y012611D01*
X014230Y012669D02*
X013698Y012669D01*
X013698Y012727D02*
X014230Y012727D01*
X014230Y012785D02*
X013698Y012785D01*
X013698Y012843D02*
X014230Y012843D01*
X014230Y012901D02*
X013698Y012901D01*
X013698Y012959D02*
X014230Y012959D01*
X014230Y013017D02*
X013698Y013017D01*
X013698Y013075D02*
X014230Y013075D01*
X014230Y013133D02*
X013698Y013133D01*
X011470Y013171D02*
X011470Y012089D01*
X011470Y013171D02*
X012002Y013171D01*
X012002Y012089D01*
X011470Y012089D01*
X011470Y012147D02*
X012002Y012147D01*
X012002Y012205D02*
X011470Y012205D01*
X011470Y012263D02*
X012002Y012263D01*
X012002Y012321D02*
X011470Y012321D01*
X011470Y012379D02*
X012002Y012379D01*
X012002Y012437D02*
X011470Y012437D01*
X011470Y012495D02*
X012002Y012495D01*
X012002Y012553D02*
X011470Y012553D01*
X011470Y012611D02*
X012002Y012611D01*
X012002Y012669D02*
X011470Y012669D01*
X011470Y012727D02*
X012002Y012727D01*
X012002Y012785D02*
X011470Y012785D01*
X011470Y012843D02*
X012002Y012843D01*
X012002Y012901D02*
X011470Y012901D01*
X011470Y012959D02*
X012002Y012959D01*
X012002Y013017D02*
X011470Y013017D01*
X011470Y013075D02*
X012002Y013075D01*
X012002Y013133D02*
X011470Y013133D01*
X009698Y013171D02*
X009698Y012089D01*
X009698Y013171D02*
X010230Y013171D01*
X010230Y012089D01*
X009698Y012089D01*
X009698Y012147D02*
X010230Y012147D01*
X010230Y012205D02*
X009698Y012205D01*
X009698Y012263D02*
X010230Y012263D01*
X010230Y012321D02*
X009698Y012321D01*
X009698Y012379D02*
X010230Y012379D01*
X010230Y012437D02*
X009698Y012437D01*
X009698Y012495D02*
X010230Y012495D01*
X010230Y012553D02*
X009698Y012553D01*
X009698Y012611D02*
X010230Y012611D01*
X010230Y012669D02*
X009698Y012669D01*
X009698Y012727D02*
X010230Y012727D01*
X010230Y012785D02*
X009698Y012785D01*
X009698Y012843D02*
X010230Y012843D01*
X010230Y012901D02*
X009698Y012901D01*
X009698Y012959D02*
X010230Y012959D01*
X010230Y013017D02*
X009698Y013017D01*
X009698Y013075D02*
X010230Y013075D01*
X010230Y013133D02*
X009698Y013133D01*
X007470Y013171D02*
X007470Y012089D01*
X007470Y013171D02*
X008002Y013171D01*
X008002Y012089D01*
X007470Y012089D01*
X007470Y012147D02*
X008002Y012147D01*
X008002Y012205D02*
X007470Y012205D01*
X007470Y012263D02*
X008002Y012263D01*
X008002Y012321D02*
X007470Y012321D01*
X007470Y012379D02*
X008002Y012379D01*
X008002Y012437D02*
X007470Y012437D01*
X007470Y012495D02*
X008002Y012495D01*
X008002Y012553D02*
X007470Y012553D01*
X007470Y012611D02*
X008002Y012611D01*
X008002Y012669D02*
X007470Y012669D01*
X007470Y012727D02*
X008002Y012727D01*
X008002Y012785D02*
X007470Y012785D01*
X007470Y012843D02*
X008002Y012843D01*
X008002Y012901D02*
X007470Y012901D01*
X007470Y012959D02*
X008002Y012959D01*
X008002Y013017D02*
X007470Y013017D01*
X007470Y013075D02*
X008002Y013075D01*
X008002Y013133D02*
X007470Y013133D01*
X005698Y013171D02*
X005698Y012089D01*
X005698Y013171D02*
X006230Y013171D01*
X006230Y012089D01*
X005698Y012089D01*
X005698Y012147D02*
X006230Y012147D01*
X006230Y012205D02*
X005698Y012205D01*
X005698Y012263D02*
X006230Y012263D01*
X006230Y012321D02*
X005698Y012321D01*
X005698Y012379D02*
X006230Y012379D01*
X006230Y012437D02*
X005698Y012437D01*
X005698Y012495D02*
X006230Y012495D01*
X006230Y012553D02*
X005698Y012553D01*
X005698Y012611D02*
X006230Y012611D01*
X006230Y012669D02*
X005698Y012669D01*
X005698Y012727D02*
X006230Y012727D01*
X006230Y012785D02*
X005698Y012785D01*
X005698Y012843D02*
X006230Y012843D01*
X006230Y012901D02*
X005698Y012901D01*
X005698Y012959D02*
X006230Y012959D01*
X006230Y013017D02*
X005698Y013017D01*
X005698Y013075D02*
X006230Y013075D01*
X006230Y013133D02*
X005698Y013133D01*
X005698Y014189D02*
X005698Y015271D01*
X006230Y015271D01*
X006230Y014189D01*
X005698Y014189D01*
X005698Y014247D02*
X006230Y014247D01*
X006230Y014305D02*
X005698Y014305D01*
X005698Y014363D02*
X006230Y014363D01*
X006230Y014421D02*
X005698Y014421D01*
X005698Y014479D02*
X006230Y014479D01*
X006230Y014537D02*
X005698Y014537D01*
X005698Y014595D02*
X006230Y014595D01*
X006230Y014653D02*
X005698Y014653D01*
X005698Y014711D02*
X006230Y014711D01*
X006230Y014769D02*
X005698Y014769D01*
X005698Y014827D02*
X006230Y014827D01*
X006230Y014885D02*
X005698Y014885D01*
X005698Y014943D02*
X006230Y014943D01*
X006230Y015001D02*
X005698Y015001D01*
X005698Y015059D02*
X006230Y015059D01*
X006230Y015117D02*
X005698Y015117D01*
X005698Y015175D02*
X006230Y015175D01*
X006230Y015233D02*
X005698Y015233D01*
X007470Y015271D02*
X007470Y014189D01*
X007470Y015271D02*
X008002Y015271D01*
X008002Y014189D01*
X007470Y014189D01*
X007470Y014247D02*
X008002Y014247D01*
X008002Y014305D02*
X007470Y014305D01*
X007470Y014363D02*
X008002Y014363D01*
X008002Y014421D02*
X007470Y014421D01*
X007470Y014479D02*
X008002Y014479D01*
X008002Y014537D02*
X007470Y014537D01*
X007470Y014595D02*
X008002Y014595D01*
X008002Y014653D02*
X007470Y014653D01*
X007470Y014711D02*
X008002Y014711D01*
X008002Y014769D02*
X007470Y014769D01*
X007470Y014827D02*
X008002Y014827D01*
X008002Y014885D02*
X007470Y014885D01*
X007470Y014943D02*
X008002Y014943D01*
X008002Y015001D02*
X007470Y015001D01*
X007470Y015059D02*
X008002Y015059D01*
X008002Y015117D02*
X007470Y015117D01*
X007470Y015175D02*
X008002Y015175D01*
X008002Y015233D02*
X007470Y015233D01*
X009698Y015271D02*
X009698Y014189D01*
X009698Y015271D02*
X010230Y015271D01*
X010230Y014189D01*
X009698Y014189D01*
X009698Y014247D02*
X010230Y014247D01*
X010230Y014305D02*
X009698Y014305D01*
X009698Y014363D02*
X010230Y014363D01*
X010230Y014421D02*
X009698Y014421D01*
X009698Y014479D02*
X010230Y014479D01*
X010230Y014537D02*
X009698Y014537D01*
X009698Y014595D02*
X010230Y014595D01*
X010230Y014653D02*
X009698Y014653D01*
X009698Y014711D02*
X010230Y014711D01*
X010230Y014769D02*
X009698Y014769D01*
X009698Y014827D02*
X010230Y014827D01*
X010230Y014885D02*
X009698Y014885D01*
X009698Y014943D02*
X010230Y014943D01*
X010230Y015001D02*
X009698Y015001D01*
X009698Y015059D02*
X010230Y015059D01*
X010230Y015117D02*
X009698Y015117D01*
X009698Y015175D02*
X010230Y015175D01*
X010230Y015233D02*
X009698Y015233D01*
X011470Y015271D02*
X011470Y014189D01*
X011470Y015271D02*
X012002Y015271D01*
X012002Y014189D01*
X011470Y014189D01*
X011470Y014247D02*
X012002Y014247D01*
X012002Y014305D02*
X011470Y014305D01*
X011470Y014363D02*
X012002Y014363D01*
X012002Y014421D02*
X011470Y014421D01*
X011470Y014479D02*
X012002Y014479D01*
X012002Y014537D02*
X011470Y014537D01*
X011470Y014595D02*
X012002Y014595D01*
X012002Y014653D02*
X011470Y014653D01*
X011470Y014711D02*
X012002Y014711D01*
X012002Y014769D02*
X011470Y014769D01*
X011470Y014827D02*
X012002Y014827D01*
X012002Y014885D02*
X011470Y014885D01*
X011470Y014943D02*
X012002Y014943D01*
X012002Y015001D02*
X011470Y015001D01*
X011470Y015059D02*
X012002Y015059D01*
X012002Y015117D02*
X011470Y015117D01*
X011470Y015175D02*
X012002Y015175D01*
X012002Y015233D02*
X011470Y015233D01*
X013698Y015271D02*
X013698Y014189D01*
X013698Y015271D02*
X014230Y015271D01*
X014230Y014189D01*
X013698Y014189D01*
X013698Y014247D02*
X014230Y014247D01*
X014230Y014305D02*
X013698Y014305D01*
X013698Y014363D02*
X014230Y014363D01*
X014230Y014421D02*
X013698Y014421D01*
X013698Y014479D02*
X014230Y014479D01*
X014230Y014537D02*
X013698Y014537D01*
X013698Y014595D02*
X014230Y014595D01*
X014230Y014653D02*
X013698Y014653D01*
X013698Y014711D02*
X014230Y014711D01*
X014230Y014769D02*
X013698Y014769D01*
X013698Y014827D02*
X014230Y014827D01*
X014230Y014885D02*
X013698Y014885D01*
X013698Y014943D02*
X014230Y014943D01*
X014230Y015001D02*
X013698Y015001D01*
X013698Y015059D02*
X014230Y015059D01*
X014230Y015117D02*
X013698Y015117D01*
X013698Y015175D02*
X014230Y015175D01*
X014230Y015233D02*
X013698Y015233D01*
X015470Y015271D02*
X015470Y014189D01*
X015470Y015271D02*
X016002Y015271D01*
X016002Y014189D01*
X015470Y014189D01*
X015470Y014247D02*
X016002Y014247D01*
X016002Y014305D02*
X015470Y014305D01*
X015470Y014363D02*
X016002Y014363D01*
X016002Y014421D02*
X015470Y014421D01*
X015470Y014479D02*
X016002Y014479D01*
X016002Y014537D02*
X015470Y014537D01*
X015470Y014595D02*
X016002Y014595D01*
X016002Y014653D02*
X015470Y014653D01*
X015470Y014711D02*
X016002Y014711D01*
X016002Y014769D02*
X015470Y014769D01*
X015470Y014827D02*
X016002Y014827D01*
X016002Y014885D02*
X015470Y014885D01*
X015470Y014943D02*
X016002Y014943D01*
X016002Y015001D02*
X015470Y015001D01*
X015470Y015059D02*
X016002Y015059D01*
X016002Y015117D02*
X015470Y015117D01*
X015470Y015175D02*
X016002Y015175D01*
X016002Y015233D02*
X015470Y015233D01*
X017698Y015271D02*
X017698Y014189D01*
X017698Y015271D02*
X018230Y015271D01*
X018230Y014189D01*
X017698Y014189D01*
X017698Y014247D02*
X018230Y014247D01*
X018230Y014305D02*
X017698Y014305D01*
X017698Y014363D02*
X018230Y014363D01*
X018230Y014421D02*
X017698Y014421D01*
X017698Y014479D02*
X018230Y014479D01*
X018230Y014537D02*
X017698Y014537D01*
X017698Y014595D02*
X018230Y014595D01*
X018230Y014653D02*
X017698Y014653D01*
X017698Y014711D02*
X018230Y014711D01*
X018230Y014769D02*
X017698Y014769D01*
X017698Y014827D02*
X018230Y014827D01*
X018230Y014885D02*
X017698Y014885D01*
X017698Y014943D02*
X018230Y014943D01*
X018230Y015001D02*
X017698Y015001D01*
X017698Y015059D02*
X018230Y015059D01*
X018230Y015117D02*
X017698Y015117D01*
X017698Y015175D02*
X018230Y015175D01*
X018230Y015233D02*
X017698Y015233D01*
X019470Y015271D02*
X019470Y014189D01*
X019470Y015271D02*
X020002Y015271D01*
X020002Y014189D01*
X019470Y014189D01*
X019470Y014247D02*
X020002Y014247D01*
X020002Y014305D02*
X019470Y014305D01*
X019470Y014363D02*
X020002Y014363D01*
X020002Y014421D02*
X019470Y014421D01*
X019470Y014479D02*
X020002Y014479D01*
X020002Y014537D02*
X019470Y014537D01*
X019470Y014595D02*
X020002Y014595D01*
X020002Y014653D02*
X019470Y014653D01*
X019470Y014711D02*
X020002Y014711D01*
X020002Y014769D02*
X019470Y014769D01*
X019470Y014827D02*
X020002Y014827D01*
X020002Y014885D02*
X019470Y014885D01*
X019470Y014943D02*
X020002Y014943D01*
X020002Y015001D02*
X019470Y015001D01*
X019470Y015059D02*
X020002Y015059D01*
X020002Y015117D02*
X019470Y015117D01*
X019470Y015175D02*
X020002Y015175D01*
X020002Y015233D02*
X019470Y015233D01*
X019470Y016089D02*
X019470Y017171D01*
X020002Y017171D01*
X020002Y016089D01*
X019470Y016089D01*
X019470Y016147D02*
X020002Y016147D01*
X020002Y016205D02*
X019470Y016205D01*
X019470Y016263D02*
X020002Y016263D01*
X020002Y016321D02*
X019470Y016321D01*
X019470Y016379D02*
X020002Y016379D01*
X020002Y016437D02*
X019470Y016437D01*
X019470Y016495D02*
X020002Y016495D01*
X020002Y016553D02*
X019470Y016553D01*
X019470Y016611D02*
X020002Y016611D01*
X020002Y016669D02*
X019470Y016669D01*
X019470Y016727D02*
X020002Y016727D01*
X020002Y016785D02*
X019470Y016785D01*
X019470Y016843D02*
X020002Y016843D01*
X020002Y016901D02*
X019470Y016901D01*
X019470Y016959D02*
X020002Y016959D01*
X020002Y017017D02*
X019470Y017017D01*
X019470Y017075D02*
X020002Y017075D01*
X020002Y017133D02*
X019470Y017133D01*
X017698Y017171D02*
X017698Y016089D01*
X017698Y017171D02*
X018230Y017171D01*
X018230Y016089D01*
X017698Y016089D01*
X017698Y016147D02*
X018230Y016147D01*
X018230Y016205D02*
X017698Y016205D01*
X017698Y016263D02*
X018230Y016263D01*
X018230Y016321D02*
X017698Y016321D01*
X017698Y016379D02*
X018230Y016379D01*
X018230Y016437D02*
X017698Y016437D01*
X017698Y016495D02*
X018230Y016495D01*
X018230Y016553D02*
X017698Y016553D01*
X017698Y016611D02*
X018230Y016611D01*
X018230Y016669D02*
X017698Y016669D01*
X017698Y016727D02*
X018230Y016727D01*
X018230Y016785D02*
X017698Y016785D01*
X017698Y016843D02*
X018230Y016843D01*
X018230Y016901D02*
X017698Y016901D01*
X017698Y016959D02*
X018230Y016959D01*
X018230Y017017D02*
X017698Y017017D01*
X017698Y017075D02*
X018230Y017075D01*
X018230Y017133D02*
X017698Y017133D01*
X015470Y017171D02*
X015470Y016089D01*
X015470Y017171D02*
X016002Y017171D01*
X016002Y016089D01*
X015470Y016089D01*
X015470Y016147D02*
X016002Y016147D01*
X016002Y016205D02*
X015470Y016205D01*
X015470Y016263D02*
X016002Y016263D01*
X016002Y016321D02*
X015470Y016321D01*
X015470Y016379D02*
X016002Y016379D01*
X016002Y016437D02*
X015470Y016437D01*
X015470Y016495D02*
X016002Y016495D01*
X016002Y016553D02*
X015470Y016553D01*
X015470Y016611D02*
X016002Y016611D01*
X016002Y016669D02*
X015470Y016669D01*
X015470Y016727D02*
X016002Y016727D01*
X016002Y016785D02*
X015470Y016785D01*
X015470Y016843D02*
X016002Y016843D01*
X016002Y016901D02*
X015470Y016901D01*
X015470Y016959D02*
X016002Y016959D01*
X016002Y017017D02*
X015470Y017017D01*
X015470Y017075D02*
X016002Y017075D01*
X016002Y017133D02*
X015470Y017133D01*
X013698Y017171D02*
X013698Y016089D01*
X013698Y017171D02*
X014230Y017171D01*
X014230Y016089D01*
X013698Y016089D01*
X013698Y016147D02*
X014230Y016147D01*
X014230Y016205D02*
X013698Y016205D01*
X013698Y016263D02*
X014230Y016263D01*
X014230Y016321D02*
X013698Y016321D01*
X013698Y016379D02*
X014230Y016379D01*
X014230Y016437D02*
X013698Y016437D01*
X013698Y016495D02*
X014230Y016495D01*
X014230Y016553D02*
X013698Y016553D01*
X013698Y016611D02*
X014230Y016611D01*
X014230Y016669D02*
X013698Y016669D01*
X013698Y016727D02*
X014230Y016727D01*
X014230Y016785D02*
X013698Y016785D01*
X013698Y016843D02*
X014230Y016843D01*
X014230Y016901D02*
X013698Y016901D01*
X013698Y016959D02*
X014230Y016959D01*
X014230Y017017D02*
X013698Y017017D01*
X013698Y017075D02*
X014230Y017075D01*
X014230Y017133D02*
X013698Y017133D01*
X011470Y017171D02*
X011470Y016089D01*
X011470Y017171D02*
X012002Y017171D01*
X012002Y016089D01*
X011470Y016089D01*
X011470Y016147D02*
X012002Y016147D01*
X012002Y016205D02*
X011470Y016205D01*
X011470Y016263D02*
X012002Y016263D01*
X012002Y016321D02*
X011470Y016321D01*
X011470Y016379D02*
X012002Y016379D01*
X012002Y016437D02*
X011470Y016437D01*
X011470Y016495D02*
X012002Y016495D01*
X012002Y016553D02*
X011470Y016553D01*
X011470Y016611D02*
X012002Y016611D01*
X012002Y016669D02*
X011470Y016669D01*
X011470Y016727D02*
X012002Y016727D01*
X012002Y016785D02*
X011470Y016785D01*
X011470Y016843D02*
X012002Y016843D01*
X012002Y016901D02*
X011470Y016901D01*
X011470Y016959D02*
X012002Y016959D01*
X012002Y017017D02*
X011470Y017017D01*
X011470Y017075D02*
X012002Y017075D01*
X012002Y017133D02*
X011470Y017133D01*
X009698Y017171D02*
X009698Y016089D01*
X009698Y017171D02*
X010230Y017171D01*
X010230Y016089D01*
X009698Y016089D01*
X009698Y016147D02*
X010230Y016147D01*
X010230Y016205D02*
X009698Y016205D01*
X009698Y016263D02*
X010230Y016263D01*
X010230Y016321D02*
X009698Y016321D01*
X009698Y016379D02*
X010230Y016379D01*
X010230Y016437D02*
X009698Y016437D01*
X009698Y016495D02*
X010230Y016495D01*
X010230Y016553D02*
X009698Y016553D01*
X009698Y016611D02*
X010230Y016611D01*
X010230Y016669D02*
X009698Y016669D01*
X009698Y016727D02*
X010230Y016727D01*
X010230Y016785D02*
X009698Y016785D01*
X009698Y016843D02*
X010230Y016843D01*
X010230Y016901D02*
X009698Y016901D01*
X009698Y016959D02*
X010230Y016959D01*
X010230Y017017D02*
X009698Y017017D01*
X009698Y017075D02*
X010230Y017075D01*
X010230Y017133D02*
X009698Y017133D01*
X007470Y017171D02*
X007470Y016089D01*
X007470Y017171D02*
X008002Y017171D01*
X008002Y016089D01*
X007470Y016089D01*
X007470Y016147D02*
X008002Y016147D01*
X008002Y016205D02*
X007470Y016205D01*
X007470Y016263D02*
X008002Y016263D01*
X008002Y016321D02*
X007470Y016321D01*
X007470Y016379D02*
X008002Y016379D01*
X008002Y016437D02*
X007470Y016437D01*
X007470Y016495D02*
X008002Y016495D01*
X008002Y016553D02*
X007470Y016553D01*
X007470Y016611D02*
X008002Y016611D01*
X008002Y016669D02*
X007470Y016669D01*
X007470Y016727D02*
X008002Y016727D01*
X008002Y016785D02*
X007470Y016785D01*
X007470Y016843D02*
X008002Y016843D01*
X008002Y016901D02*
X007470Y016901D01*
X007470Y016959D02*
X008002Y016959D01*
X008002Y017017D02*
X007470Y017017D01*
X007470Y017075D02*
X008002Y017075D01*
X008002Y017133D02*
X007470Y017133D01*
X005698Y017171D02*
X005698Y016089D01*
X005698Y017171D02*
X006230Y017171D01*
X006230Y016089D01*
X005698Y016089D01*
X005698Y016147D02*
X006230Y016147D01*
X006230Y016205D02*
X005698Y016205D01*
X005698Y016263D02*
X006230Y016263D01*
X006230Y016321D02*
X005698Y016321D01*
X005698Y016379D02*
X006230Y016379D01*
X006230Y016437D02*
X005698Y016437D01*
X005698Y016495D02*
X006230Y016495D01*
X006230Y016553D02*
X005698Y016553D01*
X005698Y016611D02*
X006230Y016611D01*
X006230Y016669D02*
X005698Y016669D01*
X005698Y016727D02*
X006230Y016727D01*
X006230Y016785D02*
X005698Y016785D01*
X005698Y016843D02*
X006230Y016843D01*
X006230Y016901D02*
X005698Y016901D01*
X005698Y016959D02*
X006230Y016959D01*
X006230Y017017D02*
X005698Y017017D01*
X005698Y017075D02*
X006230Y017075D01*
X006230Y017133D02*
X005698Y017133D01*
X005698Y011271D02*
X005698Y010189D01*
X005698Y011271D02*
X006230Y011271D01*
X006230Y010189D01*
X005698Y010189D01*
X005698Y010247D02*
X006230Y010247D01*
X006230Y010305D02*
X005698Y010305D01*
X005698Y010363D02*
X006230Y010363D01*
X006230Y010421D02*
X005698Y010421D01*
X005698Y010479D02*
X006230Y010479D01*
X006230Y010537D02*
X005698Y010537D01*
X005698Y010595D02*
X006230Y010595D01*
X006230Y010653D02*
X005698Y010653D01*
X005698Y010711D02*
X006230Y010711D01*
X006230Y010769D02*
X005698Y010769D01*
X005698Y010827D02*
X006230Y010827D01*
X006230Y010885D02*
X005698Y010885D01*
X005698Y010943D02*
X006230Y010943D01*
X006230Y011001D02*
X005698Y011001D01*
X005698Y011059D02*
X006230Y011059D01*
X006230Y011117D02*
X005698Y011117D01*
X005698Y011175D02*
X006230Y011175D01*
X006230Y011233D02*
X005698Y011233D01*
X007470Y011271D02*
X007470Y010189D01*
X007470Y011271D02*
X008002Y011271D01*
X008002Y010189D01*
X007470Y010189D01*
X007470Y010247D02*
X008002Y010247D01*
X008002Y010305D02*
X007470Y010305D01*
X007470Y010363D02*
X008002Y010363D01*
X008002Y010421D02*
X007470Y010421D01*
X007470Y010479D02*
X008002Y010479D01*
X008002Y010537D02*
X007470Y010537D01*
X007470Y010595D02*
X008002Y010595D01*
X008002Y010653D02*
X007470Y010653D01*
X007470Y010711D02*
X008002Y010711D01*
X008002Y010769D02*
X007470Y010769D01*
X007470Y010827D02*
X008002Y010827D01*
X008002Y010885D02*
X007470Y010885D01*
X007470Y010943D02*
X008002Y010943D01*
X008002Y011001D02*
X007470Y011001D01*
X007470Y011059D02*
X008002Y011059D01*
X008002Y011117D02*
X007470Y011117D01*
X007470Y011175D02*
X008002Y011175D01*
X008002Y011233D02*
X007470Y011233D01*
X009698Y011271D02*
X009698Y010189D01*
X009698Y011271D02*
X010230Y011271D01*
X010230Y010189D01*
X009698Y010189D01*
X009698Y010247D02*
X010230Y010247D01*
X010230Y010305D02*
X009698Y010305D01*
X009698Y010363D02*
X010230Y010363D01*
X010230Y010421D02*
X009698Y010421D01*
X009698Y010479D02*
X010230Y010479D01*
X010230Y010537D02*
X009698Y010537D01*
X009698Y010595D02*
X010230Y010595D01*
X010230Y010653D02*
X009698Y010653D01*
X009698Y010711D02*
X010230Y010711D01*
X010230Y010769D02*
X009698Y010769D01*
X009698Y010827D02*
X010230Y010827D01*
X010230Y010885D02*
X009698Y010885D01*
X009698Y010943D02*
X010230Y010943D01*
X010230Y011001D02*
X009698Y011001D01*
X009698Y011059D02*
X010230Y011059D01*
X010230Y011117D02*
X009698Y011117D01*
X009698Y011175D02*
X010230Y011175D01*
X010230Y011233D02*
X009698Y011233D01*
X011470Y011271D02*
X011470Y010189D01*
X011470Y011271D02*
X012002Y011271D01*
X012002Y010189D01*
X011470Y010189D01*
X011470Y010247D02*
X012002Y010247D01*
X012002Y010305D02*
X011470Y010305D01*
X011470Y010363D02*
X012002Y010363D01*
X012002Y010421D02*
X011470Y010421D01*
X011470Y010479D02*
X012002Y010479D01*
X012002Y010537D02*
X011470Y010537D01*
X011470Y010595D02*
X012002Y010595D01*
X012002Y010653D02*
X011470Y010653D01*
X011470Y010711D02*
X012002Y010711D01*
X012002Y010769D02*
X011470Y010769D01*
X011470Y010827D02*
X012002Y010827D01*
X012002Y010885D02*
X011470Y010885D01*
X011470Y010943D02*
X012002Y010943D01*
X012002Y011001D02*
X011470Y011001D01*
X011470Y011059D02*
X012002Y011059D01*
X012002Y011117D02*
X011470Y011117D01*
X011470Y011175D02*
X012002Y011175D01*
X012002Y011233D02*
X011470Y011233D01*
X013698Y011271D02*
X013698Y010189D01*
X013698Y011271D02*
X014230Y011271D01*
X014230Y010189D01*
X013698Y010189D01*
X013698Y010247D02*
X014230Y010247D01*
X014230Y010305D02*
X013698Y010305D01*
X013698Y010363D02*
X014230Y010363D01*
X014230Y010421D02*
X013698Y010421D01*
X013698Y010479D02*
X014230Y010479D01*
X014230Y010537D02*
X013698Y010537D01*
X013698Y010595D02*
X014230Y010595D01*
X014230Y010653D02*
X013698Y010653D01*
X013698Y010711D02*
X014230Y010711D01*
X014230Y010769D02*
X013698Y010769D01*
X013698Y010827D02*
X014230Y010827D01*
X014230Y010885D02*
X013698Y010885D01*
X013698Y010943D02*
X014230Y010943D01*
X014230Y011001D02*
X013698Y011001D01*
X013698Y011059D02*
X014230Y011059D01*
X014230Y011117D02*
X013698Y011117D01*
X013698Y011175D02*
X014230Y011175D01*
X014230Y011233D02*
X013698Y011233D01*
X015470Y011271D02*
X015470Y010189D01*
X015470Y011271D02*
X016002Y011271D01*
X016002Y010189D01*
X015470Y010189D01*
X015470Y010247D02*
X016002Y010247D01*
X016002Y010305D02*
X015470Y010305D01*
X015470Y010363D02*
X016002Y010363D01*
X016002Y010421D02*
X015470Y010421D01*
X015470Y010479D02*
X016002Y010479D01*
X016002Y010537D02*
X015470Y010537D01*
X015470Y010595D02*
X016002Y010595D01*
X016002Y010653D02*
X015470Y010653D01*
X015470Y010711D02*
X016002Y010711D01*
X016002Y010769D02*
X015470Y010769D01*
X015470Y010827D02*
X016002Y010827D01*
X016002Y010885D02*
X015470Y010885D01*
X015470Y010943D02*
X016002Y010943D01*
X016002Y011001D02*
X015470Y011001D01*
X015470Y011059D02*
X016002Y011059D01*
X016002Y011117D02*
X015470Y011117D01*
X015470Y011175D02*
X016002Y011175D01*
X016002Y011233D02*
X015470Y011233D01*
X017698Y011271D02*
X017698Y010189D01*
X017698Y011271D02*
X018230Y011271D01*
X018230Y010189D01*
X017698Y010189D01*
X017698Y010247D02*
X018230Y010247D01*
X018230Y010305D02*
X017698Y010305D01*
X017698Y010363D02*
X018230Y010363D01*
X018230Y010421D02*
X017698Y010421D01*
X017698Y010479D02*
X018230Y010479D01*
X018230Y010537D02*
X017698Y010537D01*
X017698Y010595D02*
X018230Y010595D01*
X018230Y010653D02*
X017698Y010653D01*
X017698Y010711D02*
X018230Y010711D01*
X018230Y010769D02*
X017698Y010769D01*
X017698Y010827D02*
X018230Y010827D01*
X018230Y010885D02*
X017698Y010885D01*
X017698Y010943D02*
X018230Y010943D01*
X018230Y011001D02*
X017698Y011001D01*
X017698Y011059D02*
X018230Y011059D01*
X018230Y011117D02*
X017698Y011117D01*
X017698Y011175D02*
X018230Y011175D01*
X018230Y011233D02*
X017698Y011233D01*
X019470Y011271D02*
X019470Y010189D01*
X019470Y011271D02*
X020002Y011271D01*
X020002Y010189D01*
X019470Y010189D01*
X019470Y010247D02*
X020002Y010247D01*
X020002Y010305D02*
X019470Y010305D01*
X019470Y010363D02*
X020002Y010363D01*
X020002Y010421D02*
X019470Y010421D01*
X019470Y010479D02*
X020002Y010479D01*
X020002Y010537D02*
X019470Y010537D01*
X019470Y010595D02*
X020002Y010595D01*
X020002Y010653D02*
X019470Y010653D01*
X019470Y010711D02*
X020002Y010711D01*
X020002Y010769D02*
X019470Y010769D01*
X019470Y010827D02*
X020002Y010827D01*
X020002Y010885D02*
X019470Y010885D01*
X019470Y010943D02*
X020002Y010943D01*
X020002Y011001D02*
X019470Y011001D01*
X019470Y011059D02*
X020002Y011059D01*
X020002Y011117D02*
X019470Y011117D01*
X019470Y011175D02*
X020002Y011175D01*
X020002Y011233D02*
X019470Y011233D01*
X021448Y011271D02*
X021448Y010189D01*
X021448Y011271D02*
X021980Y011271D01*
X021980Y010189D01*
X021448Y010189D01*
X021448Y010247D02*
X021980Y010247D01*
X021980Y010305D02*
X021448Y010305D01*
X021448Y010363D02*
X021980Y010363D01*
X021980Y010421D02*
X021448Y010421D01*
X021448Y010479D02*
X021980Y010479D01*
X021980Y010537D02*
X021448Y010537D01*
X021448Y010595D02*
X021980Y010595D01*
X021980Y010653D02*
X021448Y010653D01*
X021448Y010711D02*
X021980Y010711D01*
X021980Y010769D02*
X021448Y010769D01*
X021448Y010827D02*
X021980Y010827D01*
X021980Y010885D02*
X021448Y010885D01*
X021448Y010943D02*
X021980Y010943D01*
X021980Y011001D02*
X021448Y011001D01*
X021448Y011059D02*
X021980Y011059D01*
X021980Y011117D02*
X021448Y011117D01*
X021448Y011175D02*
X021980Y011175D01*
X021980Y011233D02*
X021448Y011233D01*
X023220Y011271D02*
X023220Y010189D01*
X023220Y011271D02*
X023752Y011271D01*
X023752Y010189D01*
X023220Y010189D01*
X023220Y010247D02*
X023752Y010247D01*
X023752Y010305D02*
X023220Y010305D01*
X023220Y010363D02*
X023752Y010363D01*
X023752Y010421D02*
X023220Y010421D01*
X023220Y010479D02*
X023752Y010479D01*
X023752Y010537D02*
X023220Y010537D01*
X023220Y010595D02*
X023752Y010595D01*
X023752Y010653D02*
X023220Y010653D01*
X023220Y010711D02*
X023752Y010711D01*
X023752Y010769D02*
X023220Y010769D01*
X023220Y010827D02*
X023752Y010827D01*
X023752Y010885D02*
X023220Y010885D01*
X023220Y010943D02*
X023752Y010943D01*
X023752Y011001D02*
X023220Y011001D01*
X023220Y011059D02*
X023752Y011059D01*
X023752Y011117D02*
X023220Y011117D01*
X023220Y011175D02*
X023752Y011175D01*
X023752Y011233D02*
X023220Y011233D01*
X024448Y011271D02*
X024448Y010189D01*
X024448Y011271D02*
X024980Y011271D01*
X024980Y010189D01*
X024448Y010189D01*
X024448Y010247D02*
X024980Y010247D01*
X024980Y010305D02*
X024448Y010305D01*
X024448Y010363D02*
X024980Y010363D01*
X024980Y010421D02*
X024448Y010421D01*
X024448Y010479D02*
X024980Y010479D01*
X024980Y010537D02*
X024448Y010537D01*
X024448Y010595D02*
X024980Y010595D01*
X024980Y010653D02*
X024448Y010653D01*
X024448Y010711D02*
X024980Y010711D01*
X024980Y010769D02*
X024448Y010769D01*
X024448Y010827D02*
X024980Y010827D01*
X024980Y010885D02*
X024448Y010885D01*
X024448Y010943D02*
X024980Y010943D01*
X024980Y011001D02*
X024448Y011001D01*
X024448Y011059D02*
X024980Y011059D01*
X024980Y011117D02*
X024448Y011117D01*
X024448Y011175D02*
X024980Y011175D01*
X024980Y011233D02*
X024448Y011233D01*
X026220Y011271D02*
X026220Y010189D01*
X026220Y011271D02*
X026752Y011271D01*
X026752Y010189D01*
X026220Y010189D01*
X026220Y010247D02*
X026752Y010247D01*
X026752Y010305D02*
X026220Y010305D01*
X026220Y010363D02*
X026752Y010363D01*
X026752Y010421D02*
X026220Y010421D01*
X026220Y010479D02*
X026752Y010479D01*
X026752Y010537D02*
X026220Y010537D01*
X026220Y010595D02*
X026752Y010595D01*
X026752Y010653D02*
X026220Y010653D01*
X026220Y010711D02*
X026752Y010711D01*
X026752Y010769D02*
X026220Y010769D01*
X026220Y010827D02*
X026752Y010827D01*
X026752Y010885D02*
X026220Y010885D01*
X026220Y010943D02*
X026752Y010943D01*
X026752Y011001D02*
X026220Y011001D01*
X026220Y011059D02*
X026752Y011059D01*
X026752Y011117D02*
X026220Y011117D01*
X026220Y011175D02*
X026752Y011175D01*
X026752Y011233D02*
X026220Y011233D01*
X024720Y009171D02*
X024720Y008089D01*
X024720Y009171D02*
X025252Y009171D01*
X025252Y008089D01*
X024720Y008089D01*
X024720Y008147D02*
X025252Y008147D01*
X025252Y008205D02*
X024720Y008205D01*
X024720Y008263D02*
X025252Y008263D01*
X025252Y008321D02*
X024720Y008321D01*
X024720Y008379D02*
X025252Y008379D01*
X025252Y008437D02*
X024720Y008437D01*
X024720Y008495D02*
X025252Y008495D01*
X025252Y008553D02*
X024720Y008553D01*
X024720Y008611D02*
X025252Y008611D01*
X025252Y008669D02*
X024720Y008669D01*
X024720Y008727D02*
X025252Y008727D01*
X025252Y008785D02*
X024720Y008785D01*
X024720Y008843D02*
X025252Y008843D01*
X025252Y008901D02*
X024720Y008901D01*
X024720Y008959D02*
X025252Y008959D01*
X025252Y009017D02*
X024720Y009017D01*
X024720Y009075D02*
X025252Y009075D01*
X025252Y009133D02*
X024720Y009133D01*
X022948Y009171D02*
X022948Y008089D01*
X022948Y009171D02*
X023480Y009171D01*
X023480Y008089D01*
X022948Y008089D01*
X022948Y008147D02*
X023480Y008147D01*
X023480Y008205D02*
X022948Y008205D01*
X022948Y008263D02*
X023480Y008263D01*
X023480Y008321D02*
X022948Y008321D01*
X022948Y008379D02*
X023480Y008379D01*
X023480Y008437D02*
X022948Y008437D01*
X022948Y008495D02*
X023480Y008495D01*
X023480Y008553D02*
X022948Y008553D01*
X022948Y008611D02*
X023480Y008611D01*
X023480Y008669D02*
X022948Y008669D01*
X022948Y008727D02*
X023480Y008727D01*
X023480Y008785D02*
X022948Y008785D01*
X022948Y008843D02*
X023480Y008843D01*
X023480Y008901D02*
X022948Y008901D01*
X022948Y008959D02*
X023480Y008959D01*
X023480Y009017D02*
X022948Y009017D01*
X022948Y009075D02*
X023480Y009075D01*
X023480Y009133D02*
X022948Y009133D01*
X019470Y009171D02*
X019470Y008089D01*
X019470Y009171D02*
X020002Y009171D01*
X020002Y008089D01*
X019470Y008089D01*
X019470Y008147D02*
X020002Y008147D01*
X020002Y008205D02*
X019470Y008205D01*
X019470Y008263D02*
X020002Y008263D01*
X020002Y008321D02*
X019470Y008321D01*
X019470Y008379D02*
X020002Y008379D01*
X020002Y008437D02*
X019470Y008437D01*
X019470Y008495D02*
X020002Y008495D01*
X020002Y008553D02*
X019470Y008553D01*
X019470Y008611D02*
X020002Y008611D01*
X020002Y008669D02*
X019470Y008669D01*
X019470Y008727D02*
X020002Y008727D01*
X020002Y008785D02*
X019470Y008785D01*
X019470Y008843D02*
X020002Y008843D01*
X020002Y008901D02*
X019470Y008901D01*
X019470Y008959D02*
X020002Y008959D01*
X020002Y009017D02*
X019470Y009017D01*
X019470Y009075D02*
X020002Y009075D01*
X020002Y009133D02*
X019470Y009133D01*
X017698Y009171D02*
X017698Y008089D01*
X017698Y009171D02*
X018230Y009171D01*
X018230Y008089D01*
X017698Y008089D01*
X017698Y008147D02*
X018230Y008147D01*
X018230Y008205D02*
X017698Y008205D01*
X017698Y008263D02*
X018230Y008263D01*
X018230Y008321D02*
X017698Y008321D01*
X017698Y008379D02*
X018230Y008379D01*
X018230Y008437D02*
X017698Y008437D01*
X017698Y008495D02*
X018230Y008495D01*
X018230Y008553D02*
X017698Y008553D01*
X017698Y008611D02*
X018230Y008611D01*
X018230Y008669D02*
X017698Y008669D01*
X017698Y008727D02*
X018230Y008727D01*
X018230Y008785D02*
X017698Y008785D01*
X017698Y008843D02*
X018230Y008843D01*
X018230Y008901D02*
X017698Y008901D01*
X017698Y008959D02*
X018230Y008959D01*
X018230Y009017D02*
X017698Y009017D01*
X017698Y009075D02*
X018230Y009075D01*
X018230Y009133D02*
X017698Y009133D01*
X015470Y009171D02*
X015470Y008089D01*
X015470Y009171D02*
X016002Y009171D01*
X016002Y008089D01*
X015470Y008089D01*
X015470Y008147D02*
X016002Y008147D01*
X016002Y008205D02*
X015470Y008205D01*
X015470Y008263D02*
X016002Y008263D01*
X016002Y008321D02*
X015470Y008321D01*
X015470Y008379D02*
X016002Y008379D01*
X016002Y008437D02*
X015470Y008437D01*
X015470Y008495D02*
X016002Y008495D01*
X016002Y008553D02*
X015470Y008553D01*
X015470Y008611D02*
X016002Y008611D01*
X016002Y008669D02*
X015470Y008669D01*
X015470Y008727D02*
X016002Y008727D01*
X016002Y008785D02*
X015470Y008785D01*
X015470Y008843D02*
X016002Y008843D01*
X016002Y008901D02*
X015470Y008901D01*
X015470Y008959D02*
X016002Y008959D01*
X016002Y009017D02*
X015470Y009017D01*
X015470Y009075D02*
X016002Y009075D01*
X016002Y009133D02*
X015470Y009133D01*
X013698Y009171D02*
X013698Y008089D01*
X013698Y009171D02*
X014230Y009171D01*
X014230Y008089D01*
X013698Y008089D01*
X013698Y008147D02*
X014230Y008147D01*
X014230Y008205D02*
X013698Y008205D01*
X013698Y008263D02*
X014230Y008263D01*
X014230Y008321D02*
X013698Y008321D01*
X013698Y008379D02*
X014230Y008379D01*
X014230Y008437D02*
X013698Y008437D01*
X013698Y008495D02*
X014230Y008495D01*
X014230Y008553D02*
X013698Y008553D01*
X013698Y008611D02*
X014230Y008611D01*
X014230Y008669D02*
X013698Y008669D01*
X013698Y008727D02*
X014230Y008727D01*
X014230Y008785D02*
X013698Y008785D01*
X013698Y008843D02*
X014230Y008843D01*
X014230Y008901D02*
X013698Y008901D01*
X013698Y008959D02*
X014230Y008959D01*
X014230Y009017D02*
X013698Y009017D01*
X013698Y009075D02*
X014230Y009075D01*
X014230Y009133D02*
X013698Y009133D01*
X011470Y009171D02*
X011470Y008089D01*
X011470Y009171D02*
X012002Y009171D01*
X012002Y008089D01*
X011470Y008089D01*
X011470Y008147D02*
X012002Y008147D01*
X012002Y008205D02*
X011470Y008205D01*
X011470Y008263D02*
X012002Y008263D01*
X012002Y008321D02*
X011470Y008321D01*
X011470Y008379D02*
X012002Y008379D01*
X012002Y008437D02*
X011470Y008437D01*
X011470Y008495D02*
X012002Y008495D01*
X012002Y008553D02*
X011470Y008553D01*
X011470Y008611D02*
X012002Y008611D01*
X012002Y008669D02*
X011470Y008669D01*
X011470Y008727D02*
X012002Y008727D01*
X012002Y008785D02*
X011470Y008785D01*
X011470Y008843D02*
X012002Y008843D01*
X012002Y008901D02*
X011470Y008901D01*
X011470Y008959D02*
X012002Y008959D01*
X012002Y009017D02*
X011470Y009017D01*
X011470Y009075D02*
X012002Y009075D01*
X012002Y009133D02*
X011470Y009133D01*
X009698Y009171D02*
X009698Y008089D01*
X009698Y009171D02*
X010230Y009171D01*
X010230Y008089D01*
X009698Y008089D01*
X009698Y008147D02*
X010230Y008147D01*
X010230Y008205D02*
X009698Y008205D01*
X009698Y008263D02*
X010230Y008263D01*
X010230Y008321D02*
X009698Y008321D01*
X009698Y008379D02*
X010230Y008379D01*
X010230Y008437D02*
X009698Y008437D01*
X009698Y008495D02*
X010230Y008495D01*
X010230Y008553D02*
X009698Y008553D01*
X009698Y008611D02*
X010230Y008611D01*
X010230Y008669D02*
X009698Y008669D01*
X009698Y008727D02*
X010230Y008727D01*
X010230Y008785D02*
X009698Y008785D01*
X009698Y008843D02*
X010230Y008843D01*
X010230Y008901D02*
X009698Y008901D01*
X009698Y008959D02*
X010230Y008959D01*
X010230Y009017D02*
X009698Y009017D01*
X009698Y009075D02*
X010230Y009075D01*
X010230Y009133D02*
X009698Y009133D01*
X007470Y009171D02*
X007470Y008089D01*
X007470Y009171D02*
X008002Y009171D01*
X008002Y008089D01*
X007470Y008089D01*
X007470Y008147D02*
X008002Y008147D01*
X008002Y008205D02*
X007470Y008205D01*
X007470Y008263D02*
X008002Y008263D01*
X008002Y008321D02*
X007470Y008321D01*
X007470Y008379D02*
X008002Y008379D01*
X008002Y008437D02*
X007470Y008437D01*
X007470Y008495D02*
X008002Y008495D01*
X008002Y008553D02*
X007470Y008553D01*
X007470Y008611D02*
X008002Y008611D01*
X008002Y008669D02*
X007470Y008669D01*
X007470Y008727D02*
X008002Y008727D01*
X008002Y008785D02*
X007470Y008785D01*
X007470Y008843D02*
X008002Y008843D01*
X008002Y008901D02*
X007470Y008901D01*
X007470Y008959D02*
X008002Y008959D01*
X008002Y009017D02*
X007470Y009017D01*
X007470Y009075D02*
X008002Y009075D01*
X008002Y009133D02*
X007470Y009133D01*
X005698Y009171D02*
X005698Y008089D01*
X005698Y009171D02*
X006230Y009171D01*
X006230Y008089D01*
X005698Y008089D01*
X005698Y008147D02*
X006230Y008147D01*
X006230Y008205D02*
X005698Y008205D01*
X005698Y008263D02*
X006230Y008263D01*
X006230Y008321D02*
X005698Y008321D01*
X005698Y008379D02*
X006230Y008379D01*
X006230Y008437D02*
X005698Y008437D01*
X005698Y008495D02*
X006230Y008495D01*
X006230Y008553D02*
X005698Y008553D01*
X005698Y008611D02*
X006230Y008611D01*
X006230Y008669D02*
X005698Y008669D01*
X005698Y008727D02*
X006230Y008727D01*
X006230Y008785D02*
X005698Y008785D01*
X005698Y008843D02*
X006230Y008843D01*
X006230Y008901D02*
X005698Y008901D01*
X005698Y008959D02*
X006230Y008959D01*
X006230Y009017D02*
X005698Y009017D01*
X005698Y009075D02*
X006230Y009075D01*
X006230Y009133D02*
X005698Y009133D01*
X005698Y007271D02*
X005698Y006189D01*
X005698Y007271D02*
X006230Y007271D01*
X006230Y006189D01*
X005698Y006189D01*
X005698Y006247D02*
X006230Y006247D01*
X006230Y006305D02*
X005698Y006305D01*
X005698Y006363D02*
X006230Y006363D01*
X006230Y006421D02*
X005698Y006421D01*
X005698Y006479D02*
X006230Y006479D01*
X006230Y006537D02*
X005698Y006537D01*
X005698Y006595D02*
X006230Y006595D01*
X006230Y006653D02*
X005698Y006653D01*
X005698Y006711D02*
X006230Y006711D01*
X006230Y006769D02*
X005698Y006769D01*
X005698Y006827D02*
X006230Y006827D01*
X006230Y006885D02*
X005698Y006885D01*
X005698Y006943D02*
X006230Y006943D01*
X006230Y007001D02*
X005698Y007001D01*
X005698Y007059D02*
X006230Y007059D01*
X006230Y007117D02*
X005698Y007117D01*
X005698Y007175D02*
X006230Y007175D01*
X006230Y007233D02*
X005698Y007233D01*
X007470Y007271D02*
X007470Y006189D01*
X007470Y007271D02*
X008002Y007271D01*
X008002Y006189D01*
X007470Y006189D01*
X007470Y006247D02*
X008002Y006247D01*
X008002Y006305D02*
X007470Y006305D01*
X007470Y006363D02*
X008002Y006363D01*
X008002Y006421D02*
X007470Y006421D01*
X007470Y006479D02*
X008002Y006479D01*
X008002Y006537D02*
X007470Y006537D01*
X007470Y006595D02*
X008002Y006595D01*
X008002Y006653D02*
X007470Y006653D01*
X007470Y006711D02*
X008002Y006711D01*
X008002Y006769D02*
X007470Y006769D01*
X007470Y006827D02*
X008002Y006827D01*
X008002Y006885D02*
X007470Y006885D01*
X007470Y006943D02*
X008002Y006943D01*
X008002Y007001D02*
X007470Y007001D01*
X007470Y007059D02*
X008002Y007059D01*
X008002Y007117D02*
X007470Y007117D01*
X007470Y007175D02*
X008002Y007175D01*
X008002Y007233D02*
X007470Y007233D01*
X009698Y007271D02*
X009698Y006189D01*
X009698Y007271D02*
X010230Y007271D01*
X010230Y006189D01*
X009698Y006189D01*
X009698Y006247D02*
X010230Y006247D01*
X010230Y006305D02*
X009698Y006305D01*
X009698Y006363D02*
X010230Y006363D01*
X010230Y006421D02*
X009698Y006421D01*
X009698Y006479D02*
X010230Y006479D01*
X010230Y006537D02*
X009698Y006537D01*
X009698Y006595D02*
X010230Y006595D01*
X010230Y006653D02*
X009698Y006653D01*
X009698Y006711D02*
X010230Y006711D01*
X010230Y006769D02*
X009698Y006769D01*
X009698Y006827D02*
X010230Y006827D01*
X010230Y006885D02*
X009698Y006885D01*
X009698Y006943D02*
X010230Y006943D01*
X010230Y007001D02*
X009698Y007001D01*
X009698Y007059D02*
X010230Y007059D01*
X010230Y007117D02*
X009698Y007117D01*
X009698Y007175D02*
X010230Y007175D01*
X010230Y007233D02*
X009698Y007233D01*
X011470Y007271D02*
X011470Y006189D01*
X011470Y007271D02*
X012002Y007271D01*
X012002Y006189D01*
X011470Y006189D01*
X011470Y006247D02*
X012002Y006247D01*
X012002Y006305D02*
X011470Y006305D01*
X011470Y006363D02*
X012002Y006363D01*
X012002Y006421D02*
X011470Y006421D01*
X011470Y006479D02*
X012002Y006479D01*
X012002Y006537D02*
X011470Y006537D01*
X011470Y006595D02*
X012002Y006595D01*
X012002Y006653D02*
X011470Y006653D01*
X011470Y006711D02*
X012002Y006711D01*
X012002Y006769D02*
X011470Y006769D01*
X011470Y006827D02*
X012002Y006827D01*
X012002Y006885D02*
X011470Y006885D01*
X011470Y006943D02*
X012002Y006943D01*
X012002Y007001D02*
X011470Y007001D01*
X011470Y007059D02*
X012002Y007059D01*
X012002Y007117D02*
X011470Y007117D01*
X011470Y007175D02*
X012002Y007175D01*
X012002Y007233D02*
X011470Y007233D01*
X013698Y007271D02*
X013698Y006189D01*
X013698Y007271D02*
X014230Y007271D01*
X014230Y006189D01*
X013698Y006189D01*
X013698Y006247D02*
X014230Y006247D01*
X014230Y006305D02*
X013698Y006305D01*
X013698Y006363D02*
X014230Y006363D01*
X014230Y006421D02*
X013698Y006421D01*
X013698Y006479D02*
X014230Y006479D01*
X014230Y006537D02*
X013698Y006537D01*
X013698Y006595D02*
X014230Y006595D01*
X014230Y006653D02*
X013698Y006653D01*
X013698Y006711D02*
X014230Y006711D01*
X014230Y006769D02*
X013698Y006769D01*
X013698Y006827D02*
X014230Y006827D01*
X014230Y006885D02*
X013698Y006885D01*
X013698Y006943D02*
X014230Y006943D01*
X014230Y007001D02*
X013698Y007001D01*
X013698Y007059D02*
X014230Y007059D01*
X014230Y007117D02*
X013698Y007117D01*
X013698Y007175D02*
X014230Y007175D01*
X014230Y007233D02*
X013698Y007233D01*
X015470Y007271D02*
X015470Y006189D01*
X015470Y007271D02*
X016002Y007271D01*
X016002Y006189D01*
X015470Y006189D01*
X015470Y006247D02*
X016002Y006247D01*
X016002Y006305D02*
X015470Y006305D01*
X015470Y006363D02*
X016002Y006363D01*
X016002Y006421D02*
X015470Y006421D01*
X015470Y006479D02*
X016002Y006479D01*
X016002Y006537D02*
X015470Y006537D01*
X015470Y006595D02*
X016002Y006595D01*
X016002Y006653D02*
X015470Y006653D01*
X015470Y006711D02*
X016002Y006711D01*
X016002Y006769D02*
X015470Y006769D01*
X015470Y006827D02*
X016002Y006827D01*
X016002Y006885D02*
X015470Y006885D01*
X015470Y006943D02*
X016002Y006943D01*
X016002Y007001D02*
X015470Y007001D01*
X015470Y007059D02*
X016002Y007059D01*
X016002Y007117D02*
X015470Y007117D01*
X015470Y007175D02*
X016002Y007175D01*
X016002Y007233D02*
X015470Y007233D01*
X017698Y007271D02*
X017698Y006189D01*
X017698Y007271D02*
X018230Y007271D01*
X018230Y006189D01*
X017698Y006189D01*
X017698Y006247D02*
X018230Y006247D01*
X018230Y006305D02*
X017698Y006305D01*
X017698Y006363D02*
X018230Y006363D01*
X018230Y006421D02*
X017698Y006421D01*
X017698Y006479D02*
X018230Y006479D01*
X018230Y006537D02*
X017698Y006537D01*
X017698Y006595D02*
X018230Y006595D01*
X018230Y006653D02*
X017698Y006653D01*
X017698Y006711D02*
X018230Y006711D01*
X018230Y006769D02*
X017698Y006769D01*
X017698Y006827D02*
X018230Y006827D01*
X018230Y006885D02*
X017698Y006885D01*
X017698Y006943D02*
X018230Y006943D01*
X018230Y007001D02*
X017698Y007001D01*
X017698Y007059D02*
X018230Y007059D01*
X018230Y007117D02*
X017698Y007117D01*
X017698Y007175D02*
X018230Y007175D01*
X018230Y007233D02*
X017698Y007233D01*
X019470Y007271D02*
X019470Y006189D01*
X019470Y007271D02*
X020002Y007271D01*
X020002Y006189D01*
X019470Y006189D01*
X019470Y006247D02*
X020002Y006247D01*
X020002Y006305D02*
X019470Y006305D01*
X019470Y006363D02*
X020002Y006363D01*
X020002Y006421D02*
X019470Y006421D01*
X019470Y006479D02*
X020002Y006479D01*
X020002Y006537D02*
X019470Y006537D01*
X019470Y006595D02*
X020002Y006595D01*
X020002Y006653D02*
X019470Y006653D01*
X019470Y006711D02*
X020002Y006711D01*
X020002Y006769D02*
X019470Y006769D01*
X019470Y006827D02*
X020002Y006827D01*
X020002Y006885D02*
X019470Y006885D01*
X019470Y006943D02*
X020002Y006943D01*
X020002Y007001D02*
X019470Y007001D01*
X019470Y007059D02*
X020002Y007059D01*
X020002Y007117D02*
X019470Y007117D01*
X019470Y007175D02*
X020002Y007175D01*
X020002Y007233D02*
X019470Y007233D01*
X022948Y007271D02*
X022948Y006189D01*
X022948Y007271D02*
X023480Y007271D01*
X023480Y006189D01*
X022948Y006189D01*
X022948Y006247D02*
X023480Y006247D01*
X023480Y006305D02*
X022948Y006305D01*
X022948Y006363D02*
X023480Y006363D01*
X023480Y006421D02*
X022948Y006421D01*
X022948Y006479D02*
X023480Y006479D01*
X023480Y006537D02*
X022948Y006537D01*
X022948Y006595D02*
X023480Y006595D01*
X023480Y006653D02*
X022948Y006653D01*
X022948Y006711D02*
X023480Y006711D01*
X023480Y006769D02*
X022948Y006769D01*
X022948Y006827D02*
X023480Y006827D01*
X023480Y006885D02*
X022948Y006885D01*
X022948Y006943D02*
X023480Y006943D01*
X023480Y007001D02*
X022948Y007001D01*
X022948Y007059D02*
X023480Y007059D01*
X023480Y007117D02*
X022948Y007117D01*
X022948Y007175D02*
X023480Y007175D01*
X023480Y007233D02*
X022948Y007233D01*
X024720Y007271D02*
X024720Y006189D01*
X024720Y007271D02*
X025252Y007271D01*
X025252Y006189D01*
X024720Y006189D01*
X024720Y006247D02*
X025252Y006247D01*
X025252Y006305D02*
X024720Y006305D01*
X024720Y006363D02*
X025252Y006363D01*
X025252Y006421D02*
X024720Y006421D01*
X024720Y006479D02*
X025252Y006479D01*
X025252Y006537D02*
X024720Y006537D01*
X024720Y006595D02*
X025252Y006595D01*
X025252Y006653D02*
X024720Y006653D01*
X024720Y006711D02*
X025252Y006711D01*
X025252Y006769D02*
X024720Y006769D01*
X024720Y006827D02*
X025252Y006827D01*
X025252Y006885D02*
X024720Y006885D01*
X024720Y006943D02*
X025252Y006943D01*
X025252Y007001D02*
X024720Y007001D01*
X024720Y007059D02*
X025252Y007059D01*
X025252Y007117D02*
X024720Y007117D01*
X024720Y007175D02*
X025252Y007175D01*
X025252Y007233D02*
X024720Y007233D01*
X024720Y014189D02*
X024720Y015271D01*
X025252Y015271D01*
X025252Y014189D01*
X024720Y014189D01*
X024720Y014247D02*
X025252Y014247D01*
X025252Y014305D02*
X024720Y014305D01*
X024720Y014363D02*
X025252Y014363D01*
X025252Y014421D02*
X024720Y014421D01*
X024720Y014479D02*
X025252Y014479D01*
X025252Y014537D02*
X024720Y014537D01*
X024720Y014595D02*
X025252Y014595D01*
X025252Y014653D02*
X024720Y014653D01*
X024720Y014711D02*
X025252Y014711D01*
X025252Y014769D02*
X024720Y014769D01*
X024720Y014827D02*
X025252Y014827D01*
X025252Y014885D02*
X024720Y014885D01*
X024720Y014943D02*
X025252Y014943D01*
X025252Y015001D02*
X024720Y015001D01*
X024720Y015059D02*
X025252Y015059D01*
X025252Y015117D02*
X024720Y015117D01*
X024720Y015175D02*
X025252Y015175D01*
X025252Y015233D02*
X024720Y015233D01*
X022948Y015271D02*
X022948Y014189D01*
X022948Y015271D02*
X023480Y015271D01*
X023480Y014189D01*
X022948Y014189D01*
X022948Y014247D02*
X023480Y014247D01*
X023480Y014305D02*
X022948Y014305D01*
X022948Y014363D02*
X023480Y014363D01*
X023480Y014421D02*
X022948Y014421D01*
X022948Y014479D02*
X023480Y014479D01*
X023480Y014537D02*
X022948Y014537D01*
X022948Y014595D02*
X023480Y014595D01*
X023480Y014653D02*
X022948Y014653D01*
X022948Y014711D02*
X023480Y014711D01*
X023480Y014769D02*
X022948Y014769D01*
X022948Y014827D02*
X023480Y014827D01*
X023480Y014885D02*
X022948Y014885D01*
X022948Y014943D02*
X023480Y014943D01*
X023480Y015001D02*
X022948Y015001D01*
X022948Y015059D02*
X023480Y015059D01*
X023480Y015117D02*
X022948Y015117D01*
X022948Y015175D02*
X023480Y015175D01*
X023480Y015233D02*
X022948Y015233D01*
X022948Y016089D02*
X022948Y017171D01*
X023480Y017171D01*
X023480Y016089D01*
X022948Y016089D01*
X022948Y016147D02*
X023480Y016147D01*
X023480Y016205D02*
X022948Y016205D01*
X022948Y016263D02*
X023480Y016263D01*
X023480Y016321D02*
X022948Y016321D01*
X022948Y016379D02*
X023480Y016379D01*
X023480Y016437D02*
X022948Y016437D01*
X022948Y016495D02*
X023480Y016495D01*
X023480Y016553D02*
X022948Y016553D01*
X022948Y016611D02*
X023480Y016611D01*
X023480Y016669D02*
X022948Y016669D01*
X022948Y016727D02*
X023480Y016727D01*
X023480Y016785D02*
X022948Y016785D01*
X022948Y016843D02*
X023480Y016843D01*
X023480Y016901D02*
X022948Y016901D01*
X022948Y016959D02*
X023480Y016959D01*
X023480Y017017D02*
X022948Y017017D01*
X022948Y017075D02*
X023480Y017075D01*
X023480Y017133D02*
X022948Y017133D01*
X024720Y017171D02*
X024720Y016089D01*
X024720Y017171D02*
X025252Y017171D01*
X025252Y016089D01*
X024720Y016089D01*
X024720Y016147D02*
X025252Y016147D01*
X025252Y016205D02*
X024720Y016205D01*
X024720Y016263D02*
X025252Y016263D01*
X025252Y016321D02*
X024720Y016321D01*
X024720Y016379D02*
X025252Y016379D01*
X025252Y016437D02*
X024720Y016437D01*
X024720Y016495D02*
X025252Y016495D01*
X025252Y016553D02*
X024720Y016553D01*
X024720Y016611D02*
X025252Y016611D01*
X025252Y016669D02*
X024720Y016669D01*
X024720Y016727D02*
X025252Y016727D01*
X025252Y016785D02*
X024720Y016785D01*
X024720Y016843D02*
X025252Y016843D01*
X025252Y016901D02*
X024720Y016901D01*
X024720Y016959D02*
X025252Y016959D01*
X025252Y017017D02*
X024720Y017017D01*
X024720Y017075D02*
X025252Y017075D01*
X025252Y017133D02*
X024720Y017133D01*
X046586Y007696D02*
X047118Y007696D01*
X047118Y007164D01*
X046586Y007164D01*
X046586Y007696D01*
X046586Y007222D02*
X047118Y007222D01*
X047118Y007280D02*
X046586Y007280D01*
X046586Y007338D02*
X047118Y007338D01*
X047118Y007396D02*
X046586Y007396D01*
X046586Y007454D02*
X047118Y007454D01*
X047118Y007512D02*
X046586Y007512D01*
X046586Y007570D02*
X047118Y007570D01*
X047118Y007628D02*
X046586Y007628D01*
X046586Y007686D02*
X047118Y007686D01*
X048082Y007696D02*
X048614Y007696D01*
X048614Y007164D01*
X048082Y007164D01*
X048082Y007696D01*
X048082Y007222D02*
X048614Y007222D01*
X048614Y007280D02*
X048082Y007280D01*
X048082Y007338D02*
X048614Y007338D01*
X048614Y007396D02*
X048082Y007396D01*
X048082Y007454D02*
X048614Y007454D01*
X048614Y007512D02*
X048082Y007512D01*
X048082Y007570D02*
X048614Y007570D01*
X048614Y007628D02*
X048082Y007628D01*
X048082Y007686D02*
X048614Y007686D01*
D18*
X044474Y008180D03*
X044474Y009180D03*
X044474Y010180D03*
X044474Y011180D03*
X044474Y012180D03*
X044474Y013180D03*
X044474Y014180D03*
X044474Y015180D03*
X028726Y015180D03*
X028726Y014180D03*
X028726Y013180D03*
X028726Y012180D03*
X028726Y011180D03*
X028726Y010180D03*
X028726Y009180D03*
X028726Y008180D03*
D19*
X046363Y006643D02*
X046869Y006643D01*
X046869Y006217D01*
X046363Y006217D01*
X046363Y006643D01*
X046363Y006263D02*
X046869Y006263D01*
X046869Y006309D02*
X046363Y006309D01*
X046363Y006355D02*
X046869Y006355D01*
X046869Y006401D02*
X046363Y006401D01*
X046363Y006447D02*
X046869Y006447D01*
X046869Y006493D02*
X046363Y006493D01*
X046363Y006539D02*
X046869Y006539D01*
X046869Y006585D02*
X046363Y006585D01*
X046363Y006631D02*
X046869Y006631D01*
X048331Y006643D02*
X048837Y006643D01*
X048837Y006217D01*
X048331Y006217D01*
X048331Y006643D01*
X048331Y006263D02*
X048837Y006263D01*
X048837Y006309D02*
X048331Y006309D01*
X048331Y006355D02*
X048837Y006355D01*
X048837Y006401D02*
X048331Y006401D01*
X048331Y006447D02*
X048837Y006447D01*
X048837Y006493D02*
X048331Y006493D01*
X048331Y006539D02*
X048837Y006539D01*
X048837Y006585D02*
X048331Y006585D01*
X048331Y006631D02*
X048837Y006631D01*
X048837Y005265D02*
X048331Y005265D01*
X048837Y005265D02*
X048837Y004839D01*
X048331Y004839D01*
X048331Y005265D01*
X048331Y004885D02*
X048837Y004885D01*
X048837Y004931D02*
X048331Y004931D01*
X048331Y004977D02*
X048837Y004977D01*
X048837Y005023D02*
X048331Y005023D01*
X048331Y005069D02*
X048837Y005069D01*
X048837Y005115D02*
X048331Y005115D01*
X048331Y005161D02*
X048837Y005161D01*
X048837Y005207D02*
X048331Y005207D01*
X048331Y005253D02*
X048837Y005253D01*
D20*
X047457Y004099D02*
X047457Y003709D01*
X046909Y003709D01*
X046909Y004099D01*
X047457Y004099D01*
X047457Y003751D02*
X046909Y003751D01*
X046909Y003793D02*
X047457Y003793D01*
X047457Y003835D02*
X046909Y003835D01*
X046909Y003877D02*
X047457Y003877D01*
X047457Y003919D02*
X046909Y003919D01*
X046909Y003961D02*
X047457Y003961D01*
X047457Y004003D02*
X046909Y004003D01*
X046909Y004045D02*
X047457Y004045D01*
X047457Y004087D02*
X046909Y004087D01*
X046591Y003725D02*
X046591Y003335D01*
X046043Y003335D01*
X046043Y003725D01*
X046591Y003725D01*
X046591Y003377D02*
X046043Y003377D01*
X046043Y003419D02*
X046591Y003419D01*
X046591Y003461D02*
X046043Y003461D01*
X046043Y003503D02*
X046591Y003503D01*
X046591Y003545D02*
X046043Y003545D01*
X046043Y003587D02*
X046591Y003587D01*
X046591Y003629D02*
X046043Y003629D01*
X046043Y003671D02*
X046591Y003671D01*
X046591Y003713D02*
X046043Y003713D01*
X047457Y003351D02*
X047457Y002961D01*
X046909Y002961D01*
X046909Y003351D01*
X047457Y003351D01*
X047457Y003003D02*
X046909Y003003D01*
X046909Y003045D02*
X047457Y003045D01*
X047457Y003087D02*
X046909Y003087D01*
X046909Y003129D02*
X047457Y003129D01*
X047457Y003171D02*
X046909Y003171D01*
X046909Y003213D02*
X047457Y003213D01*
X047457Y003255D02*
X046909Y003255D01*
X046909Y003297D02*
X047457Y003297D01*
X047457Y003339D02*
X046909Y003339D01*
D21*
X048108Y003222D02*
X048108Y002618D01*
X048108Y003222D02*
X048792Y003222D01*
X048792Y002618D01*
X048108Y002618D01*
X048108Y002684D02*
X048792Y002684D01*
X048792Y002750D02*
X048108Y002750D01*
X048108Y002816D02*
X048792Y002816D01*
X048792Y002882D02*
X048108Y002882D01*
X048108Y002948D02*
X048792Y002948D01*
X048792Y003014D02*
X048108Y003014D01*
X048108Y003080D02*
X048792Y003080D01*
X048792Y003146D02*
X048108Y003146D01*
X048108Y003212D02*
X048792Y003212D01*
X048108Y003738D02*
X048108Y004342D01*
X048792Y004342D01*
X048792Y003738D01*
X048108Y003738D01*
X048108Y003804D02*
X048792Y003804D01*
X048792Y003870D02*
X048108Y003870D01*
X048108Y003936D02*
X048792Y003936D01*
X048792Y004002D02*
X048108Y004002D01*
X048108Y004068D02*
X048792Y004068D01*
X048792Y004134D02*
X048108Y004134D01*
X048108Y004200D02*
X048792Y004200D01*
X048792Y004266D02*
X048108Y004266D01*
X048108Y004332D02*
X048792Y004332D01*
X015558Y018168D02*
X015558Y018772D01*
X016242Y018772D01*
X016242Y018168D01*
X015558Y018168D01*
X015558Y018234D02*
X016242Y018234D01*
X016242Y018300D02*
X015558Y018300D01*
X015558Y018366D02*
X016242Y018366D01*
X016242Y018432D02*
X015558Y018432D01*
X015558Y018498D02*
X016242Y018498D01*
X016242Y018564D02*
X015558Y018564D01*
X015558Y018630D02*
X016242Y018630D01*
X016242Y018696D02*
X015558Y018696D01*
X015558Y018762D02*
X016242Y018762D01*
X015558Y019288D02*
X015558Y019892D01*
X016242Y019892D01*
X016242Y019288D01*
X015558Y019288D01*
X015558Y019354D02*
X016242Y019354D01*
X016242Y019420D02*
X015558Y019420D01*
X015558Y019486D02*
X016242Y019486D01*
X016242Y019552D02*
X015558Y019552D01*
X015558Y019618D02*
X016242Y019618D01*
X016242Y019684D02*
X015558Y019684D01*
X015558Y019750D02*
X016242Y019750D01*
X016242Y019816D02*
X015558Y019816D01*
X015558Y019882D02*
X016242Y019882D01*
X017259Y019777D02*
X017259Y020381D01*
X017941Y020381D01*
X017941Y019777D01*
X017259Y019777D01*
X017259Y019843D02*
X017941Y019843D01*
X017941Y019909D02*
X017259Y019909D01*
X017259Y019975D02*
X017941Y019975D01*
X017941Y020041D02*
X017259Y020041D01*
X017259Y020107D02*
X017941Y020107D01*
X017941Y020173D02*
X017259Y020173D01*
X017259Y020239D02*
X017941Y020239D01*
X017941Y020305D02*
X017259Y020305D01*
X017259Y020371D02*
X017941Y020371D01*
X017259Y020879D02*
X017259Y021483D01*
X017941Y021483D01*
X017941Y020879D01*
X017259Y020879D01*
X017259Y020945D02*
X017941Y020945D01*
X017941Y021011D02*
X017259Y021011D01*
X017259Y021077D02*
X017941Y021077D01*
X017941Y021143D02*
X017259Y021143D01*
X017259Y021209D02*
X017941Y021209D01*
X017941Y021275D02*
X017259Y021275D01*
X017259Y021341D02*
X017941Y021341D01*
X017941Y021407D02*
X017259Y021407D01*
X017259Y021473D02*
X017941Y021473D01*
X015262Y019872D02*
X014658Y019872D01*
X015262Y019872D02*
X015262Y019188D01*
X014658Y019188D01*
X014658Y019872D01*
X014658Y019254D02*
X015262Y019254D01*
X015262Y019320D02*
X014658Y019320D01*
X014658Y019386D02*
X015262Y019386D01*
X015262Y019452D02*
X014658Y019452D01*
X014658Y019518D02*
X015262Y019518D01*
X015262Y019584D02*
X014658Y019584D01*
X014658Y019650D02*
X015262Y019650D01*
X015262Y019716D02*
X014658Y019716D01*
X014658Y019782D02*
X015262Y019782D01*
X015262Y019848D02*
X014658Y019848D01*
X014142Y019872D02*
X013538Y019872D01*
X014142Y019872D02*
X014142Y019188D01*
X013538Y019188D01*
X013538Y019872D01*
X013538Y019254D02*
X014142Y019254D01*
X014142Y019320D02*
X013538Y019320D01*
X013538Y019386D02*
X014142Y019386D01*
X014142Y019452D02*
X013538Y019452D01*
X013538Y019518D02*
X014142Y019518D01*
X014142Y019584D02*
X013538Y019584D01*
X013538Y019650D02*
X014142Y019650D01*
X014142Y019716D02*
X013538Y019716D01*
X013538Y019782D02*
X014142Y019782D01*
X014142Y019848D02*
X013538Y019848D01*
X012159Y019877D02*
X012159Y020481D01*
X012841Y020481D01*
X012841Y019877D01*
X012159Y019877D01*
X012159Y019943D02*
X012841Y019943D01*
X012841Y020009D02*
X012159Y020009D01*
X012159Y020075D02*
X012841Y020075D01*
X012841Y020141D02*
X012159Y020141D01*
X012159Y020207D02*
X012841Y020207D01*
X012841Y020273D02*
X012159Y020273D01*
X012159Y020339D02*
X012841Y020339D01*
X012841Y020405D02*
X012159Y020405D01*
X012159Y020471D02*
X012841Y020471D01*
X012159Y020979D02*
X012159Y021583D01*
X012841Y021583D01*
X012841Y020979D01*
X012159Y020979D01*
X012159Y021045D02*
X012841Y021045D01*
X012841Y021111D02*
X012159Y021111D01*
X012159Y021177D02*
X012841Y021177D01*
X012841Y021243D02*
X012159Y021243D01*
X012159Y021309D02*
X012841Y021309D01*
X012841Y021375D02*
X012159Y021375D01*
X012159Y021441D02*
X012841Y021441D01*
X012841Y021507D02*
X012159Y021507D01*
X012159Y021573D02*
X012841Y021573D01*
X013538Y018138D02*
X014142Y018138D01*
X013538Y018138D02*
X013538Y018822D01*
X014142Y018822D01*
X014142Y018138D01*
X014142Y018204D02*
X013538Y018204D01*
X013538Y018270D02*
X014142Y018270D01*
X014142Y018336D02*
X013538Y018336D01*
X013538Y018402D02*
X014142Y018402D01*
X014142Y018468D02*
X013538Y018468D01*
X013538Y018534D02*
X014142Y018534D01*
X014142Y018600D02*
X013538Y018600D01*
X013538Y018666D02*
X014142Y018666D01*
X014142Y018732D02*
X013538Y018732D01*
X013538Y018798D02*
X014142Y018798D01*
X014658Y018138D02*
X015262Y018138D01*
X014658Y018138D02*
X014658Y018822D01*
X015262Y018822D01*
X015262Y018138D01*
X015262Y018204D02*
X014658Y018204D01*
X014658Y018270D02*
X015262Y018270D01*
X015262Y018336D02*
X014658Y018336D01*
X014658Y018402D02*
X015262Y018402D01*
X015262Y018468D02*
X014658Y018468D01*
X014658Y018534D02*
X015262Y018534D01*
X015262Y018600D02*
X014658Y018600D01*
X014658Y018666D02*
X015262Y018666D01*
X015262Y018732D02*
X014658Y018732D01*
X014658Y018798D02*
X015262Y018798D01*
X005141Y014533D02*
X005141Y013929D01*
X004459Y013929D01*
X004459Y014533D01*
X005141Y014533D01*
X005141Y013995D02*
X004459Y013995D01*
X004459Y014061D02*
X005141Y014061D01*
X005141Y014127D02*
X004459Y014127D01*
X004459Y014193D02*
X005141Y014193D01*
X005141Y014259D02*
X004459Y014259D01*
X004459Y014325D02*
X005141Y014325D01*
X005141Y014391D02*
X004459Y014391D01*
X004459Y014457D02*
X005141Y014457D01*
X005141Y014523D02*
X004459Y014523D01*
X004241Y014533D02*
X004241Y013929D01*
X003559Y013929D01*
X003559Y014533D01*
X004241Y014533D01*
X004241Y013995D02*
X003559Y013995D01*
X003559Y014061D02*
X004241Y014061D01*
X004241Y014127D02*
X003559Y014127D01*
X003559Y014193D02*
X004241Y014193D01*
X004241Y014259D02*
X003559Y014259D01*
X003559Y014325D02*
X004241Y014325D01*
X004241Y014391D02*
X003559Y014391D01*
X003559Y014457D02*
X004241Y014457D01*
X004241Y014523D02*
X003559Y014523D01*
X004241Y013431D02*
X004241Y012827D01*
X003559Y012827D01*
X003559Y013431D01*
X004241Y013431D01*
X004241Y012893D02*
X003559Y012893D01*
X003559Y012959D02*
X004241Y012959D01*
X004241Y013025D02*
X003559Y013025D01*
X003559Y013091D02*
X004241Y013091D01*
X004241Y013157D02*
X003559Y013157D01*
X003559Y013223D02*
X004241Y013223D01*
X004241Y013289D02*
X003559Y013289D01*
X003559Y013355D02*
X004241Y013355D01*
X004241Y013421D02*
X003559Y013421D01*
X005141Y013431D02*
X005141Y012827D01*
X004459Y012827D01*
X004459Y013431D01*
X005141Y013431D01*
X005141Y012893D02*
X004459Y012893D01*
X004459Y012959D02*
X005141Y012959D01*
X005141Y013025D02*
X004459Y013025D01*
X004459Y013091D02*
X005141Y013091D01*
X005141Y013157D02*
X004459Y013157D01*
X004459Y013223D02*
X005141Y013223D01*
X005141Y013289D02*
X004459Y013289D01*
X004459Y013355D02*
X005141Y013355D01*
X005141Y013421D02*
X004459Y013421D01*
X005141Y012533D02*
X005141Y011929D01*
X004459Y011929D01*
X004459Y012533D01*
X005141Y012533D01*
X005141Y011995D02*
X004459Y011995D01*
X004459Y012061D02*
X005141Y012061D01*
X005141Y012127D02*
X004459Y012127D01*
X004459Y012193D02*
X005141Y012193D01*
X005141Y012259D02*
X004459Y012259D01*
X004459Y012325D02*
X005141Y012325D01*
X005141Y012391D02*
X004459Y012391D01*
X004459Y012457D02*
X005141Y012457D01*
X005141Y012523D02*
X004459Y012523D01*
X004241Y012533D02*
X004241Y011929D01*
X003559Y011929D01*
X003559Y012533D01*
X004241Y012533D01*
X004241Y011995D02*
X003559Y011995D01*
X003559Y012061D02*
X004241Y012061D01*
X004241Y012127D02*
X003559Y012127D01*
X003559Y012193D02*
X004241Y012193D01*
X004241Y012259D02*
X003559Y012259D01*
X003559Y012325D02*
X004241Y012325D01*
X004241Y012391D02*
X003559Y012391D01*
X003559Y012457D02*
X004241Y012457D01*
X004241Y012523D02*
X003559Y012523D01*
X004241Y011431D02*
X004241Y010827D01*
X003559Y010827D01*
X003559Y011431D01*
X004241Y011431D01*
X004241Y010893D02*
X003559Y010893D01*
X003559Y010959D02*
X004241Y010959D01*
X004241Y011025D02*
X003559Y011025D01*
X003559Y011091D02*
X004241Y011091D01*
X004241Y011157D02*
X003559Y011157D01*
X003559Y011223D02*
X004241Y011223D01*
X004241Y011289D02*
X003559Y011289D01*
X003559Y011355D02*
X004241Y011355D01*
X004241Y011421D02*
X003559Y011421D01*
X005141Y011431D02*
X005141Y010827D01*
X004459Y010827D01*
X004459Y011431D01*
X005141Y011431D01*
X005141Y010893D02*
X004459Y010893D01*
X004459Y010959D02*
X005141Y010959D01*
X005141Y011025D02*
X004459Y011025D01*
X004459Y011091D02*
X005141Y011091D01*
X005141Y011157D02*
X004459Y011157D01*
X004459Y011223D02*
X005141Y011223D01*
X005141Y011289D02*
X004459Y011289D01*
X004459Y011355D02*
X005141Y011355D01*
X005141Y011421D02*
X004459Y011421D01*
X005141Y010533D02*
X005141Y009929D01*
X004459Y009929D01*
X004459Y010533D01*
X005141Y010533D01*
X005141Y009995D02*
X004459Y009995D01*
X004459Y010061D02*
X005141Y010061D01*
X005141Y010127D02*
X004459Y010127D01*
X004459Y010193D02*
X005141Y010193D01*
X005141Y010259D02*
X004459Y010259D01*
X004459Y010325D02*
X005141Y010325D01*
X005141Y010391D02*
X004459Y010391D01*
X004459Y010457D02*
X005141Y010457D01*
X005141Y010523D02*
X004459Y010523D01*
X004241Y010533D02*
X004241Y009929D01*
X003559Y009929D01*
X003559Y010533D01*
X004241Y010533D01*
X004241Y009995D02*
X003559Y009995D01*
X003559Y010061D02*
X004241Y010061D01*
X004241Y010127D02*
X003559Y010127D01*
X003559Y010193D02*
X004241Y010193D01*
X004241Y010259D02*
X003559Y010259D01*
X003559Y010325D02*
X004241Y010325D01*
X004241Y010391D02*
X003559Y010391D01*
X003559Y010457D02*
X004241Y010457D01*
X004241Y010523D02*
X003559Y010523D01*
X004241Y009431D02*
X004241Y008827D01*
X003559Y008827D01*
X003559Y009431D01*
X004241Y009431D01*
X004241Y008893D02*
X003559Y008893D01*
X003559Y008959D02*
X004241Y008959D01*
X004241Y009025D02*
X003559Y009025D01*
X003559Y009091D02*
X004241Y009091D01*
X004241Y009157D02*
X003559Y009157D01*
X003559Y009223D02*
X004241Y009223D01*
X004241Y009289D02*
X003559Y009289D01*
X003559Y009355D02*
X004241Y009355D01*
X004241Y009421D02*
X003559Y009421D01*
X005141Y009431D02*
X005141Y008827D01*
X004459Y008827D01*
X004459Y009431D01*
X005141Y009431D01*
X005141Y008893D02*
X004459Y008893D01*
X004459Y008959D02*
X005141Y008959D01*
X005141Y009025D02*
X004459Y009025D01*
X004459Y009091D02*
X005141Y009091D01*
X005141Y009157D02*
X004459Y009157D01*
X004459Y009223D02*
X005141Y009223D01*
X005141Y009289D02*
X004459Y009289D01*
X004459Y009355D02*
X005141Y009355D01*
X005141Y009421D02*
X004459Y009421D01*
D22*
X015064Y020208D02*
X015064Y020404D01*
X015064Y020208D02*
X014612Y020208D01*
X014612Y020404D01*
X015064Y020404D01*
X015064Y020250D02*
X014612Y020250D01*
X014612Y020292D02*
X015064Y020292D01*
X015064Y020334D02*
X014612Y020334D01*
X014612Y020376D02*
X015064Y020376D01*
X016088Y020404D02*
X016088Y020208D01*
X015636Y020208D01*
X015636Y020404D01*
X016088Y020404D01*
X016088Y020250D02*
X015636Y020250D01*
X015636Y020292D02*
X016088Y020292D01*
X016088Y020334D02*
X015636Y020334D01*
X015636Y020376D02*
X016088Y020376D01*
X016088Y020582D02*
X016088Y020778D01*
X016088Y020582D02*
X015636Y020582D01*
X015636Y020778D01*
X016088Y020778D01*
X016088Y020624D02*
X015636Y020624D01*
X015636Y020666D02*
X016088Y020666D01*
X016088Y020708D02*
X015636Y020708D01*
X015636Y020750D02*
X016088Y020750D01*
X016088Y020956D02*
X016088Y021152D01*
X016088Y020956D02*
X015636Y020956D01*
X015636Y021152D01*
X016088Y021152D01*
X016088Y020998D02*
X015636Y020998D01*
X015636Y021040D02*
X016088Y021040D01*
X016088Y021082D02*
X015636Y021082D01*
X015636Y021124D02*
X016088Y021124D01*
X015064Y021152D02*
X015064Y020956D01*
X014612Y020956D01*
X014612Y021152D01*
X015064Y021152D01*
X015064Y020998D02*
X014612Y020998D01*
X014612Y021040D02*
X015064Y021040D01*
X015064Y021082D02*
X014612Y021082D01*
X014612Y021124D02*
X015064Y021124D01*
D23*
X008443Y020477D02*
X008443Y019515D01*
X008443Y020477D02*
X008617Y020477D01*
X008617Y019515D01*
X008443Y019515D01*
X008443Y019557D02*
X008617Y019557D01*
X008617Y019599D02*
X008443Y019599D01*
X008443Y019641D02*
X008617Y019641D01*
X008617Y019683D02*
X008443Y019683D01*
X008443Y019725D02*
X008617Y019725D01*
X008617Y019767D02*
X008443Y019767D01*
X008443Y019809D02*
X008617Y019809D01*
X008617Y019851D02*
X008443Y019851D01*
X008443Y019893D02*
X008617Y019893D01*
X008617Y019935D02*
X008443Y019935D01*
X008443Y019977D02*
X008617Y019977D01*
X008617Y020019D02*
X008443Y020019D01*
X008443Y020061D02*
X008617Y020061D01*
X008617Y020103D02*
X008443Y020103D01*
X008443Y020145D02*
X008617Y020145D01*
X008617Y020187D02*
X008443Y020187D01*
X008443Y020229D02*
X008617Y020229D01*
X008617Y020271D02*
X008443Y020271D01*
X008443Y020313D02*
X008617Y020313D01*
X008617Y020355D02*
X008443Y020355D01*
X008443Y020397D02*
X008617Y020397D01*
X008617Y020439D02*
X008443Y020439D01*
X008128Y020477D02*
X008128Y019515D01*
X008128Y020477D02*
X008302Y020477D01*
X008302Y019515D01*
X008128Y019515D01*
X008128Y019557D02*
X008302Y019557D01*
X008302Y019599D02*
X008128Y019599D01*
X008128Y019641D02*
X008302Y019641D01*
X008302Y019683D02*
X008128Y019683D01*
X008128Y019725D02*
X008302Y019725D01*
X008302Y019767D02*
X008128Y019767D01*
X008128Y019809D02*
X008302Y019809D01*
X008302Y019851D02*
X008128Y019851D01*
X008128Y019893D02*
X008302Y019893D01*
X008302Y019935D02*
X008128Y019935D01*
X008128Y019977D02*
X008302Y019977D01*
X008302Y020019D02*
X008128Y020019D01*
X008128Y020061D02*
X008302Y020061D01*
X008302Y020103D02*
X008128Y020103D01*
X008128Y020145D02*
X008302Y020145D01*
X008302Y020187D02*
X008128Y020187D01*
X008128Y020229D02*
X008302Y020229D01*
X008302Y020271D02*
X008128Y020271D01*
X008128Y020313D02*
X008302Y020313D01*
X008302Y020355D02*
X008128Y020355D01*
X008128Y020397D02*
X008302Y020397D01*
X008302Y020439D02*
X008128Y020439D01*
X007813Y020477D02*
X007813Y019515D01*
X007813Y020477D02*
X007987Y020477D01*
X007987Y019515D01*
X007813Y019515D01*
X007813Y019557D02*
X007987Y019557D01*
X007987Y019599D02*
X007813Y019599D01*
X007813Y019641D02*
X007987Y019641D01*
X007987Y019683D02*
X007813Y019683D01*
X007813Y019725D02*
X007987Y019725D01*
X007987Y019767D02*
X007813Y019767D01*
X007813Y019809D02*
X007987Y019809D01*
X007987Y019851D02*
X007813Y019851D01*
X007813Y019893D02*
X007987Y019893D01*
X007987Y019935D02*
X007813Y019935D01*
X007813Y019977D02*
X007987Y019977D01*
X007987Y020019D02*
X007813Y020019D01*
X007813Y020061D02*
X007987Y020061D01*
X007987Y020103D02*
X007813Y020103D01*
X007813Y020145D02*
X007987Y020145D01*
X007987Y020187D02*
X007813Y020187D01*
X007813Y020229D02*
X007987Y020229D01*
X007987Y020271D02*
X007813Y020271D01*
X007813Y020313D02*
X007987Y020313D01*
X007987Y020355D02*
X007813Y020355D01*
X007813Y020397D02*
X007987Y020397D01*
X007987Y020439D02*
X007813Y020439D01*
X007498Y020477D02*
X007498Y019515D01*
X007498Y020477D02*
X007672Y020477D01*
X007672Y019515D01*
X007498Y019515D01*
X007498Y019557D02*
X007672Y019557D01*
X007672Y019599D02*
X007498Y019599D01*
X007498Y019641D02*
X007672Y019641D01*
X007672Y019683D02*
X007498Y019683D01*
X007498Y019725D02*
X007672Y019725D01*
X007672Y019767D02*
X007498Y019767D01*
X007498Y019809D02*
X007672Y019809D01*
X007672Y019851D02*
X007498Y019851D01*
X007498Y019893D02*
X007672Y019893D01*
X007672Y019935D02*
X007498Y019935D01*
X007498Y019977D02*
X007672Y019977D01*
X007672Y020019D02*
X007498Y020019D01*
X007498Y020061D02*
X007672Y020061D01*
X007672Y020103D02*
X007498Y020103D01*
X007498Y020145D02*
X007672Y020145D01*
X007672Y020187D02*
X007498Y020187D01*
X007498Y020229D02*
X007672Y020229D01*
X007672Y020271D02*
X007498Y020271D01*
X007498Y020313D02*
X007672Y020313D01*
X007672Y020355D02*
X007498Y020355D01*
X007498Y020397D02*
X007672Y020397D01*
X007672Y020439D02*
X007498Y020439D01*
X007183Y020477D02*
X007183Y019515D01*
X007183Y020477D02*
X007357Y020477D01*
X007357Y019515D01*
X007183Y019515D01*
X007183Y019557D02*
X007357Y019557D01*
X007357Y019599D02*
X007183Y019599D01*
X007183Y019641D02*
X007357Y019641D01*
X007357Y019683D02*
X007183Y019683D01*
X007183Y019725D02*
X007357Y019725D01*
X007357Y019767D02*
X007183Y019767D01*
X007183Y019809D02*
X007357Y019809D01*
X007357Y019851D02*
X007183Y019851D01*
X007183Y019893D02*
X007357Y019893D01*
X007357Y019935D02*
X007183Y019935D01*
X007183Y019977D02*
X007357Y019977D01*
X007357Y020019D02*
X007183Y020019D01*
X007183Y020061D02*
X007357Y020061D01*
X007357Y020103D02*
X007183Y020103D01*
X007183Y020145D02*
X007357Y020145D01*
X007357Y020187D02*
X007183Y020187D01*
X007183Y020229D02*
X007357Y020229D01*
X007357Y020271D02*
X007183Y020271D01*
X007183Y020313D02*
X007357Y020313D01*
X007357Y020355D02*
X007183Y020355D01*
X007183Y020397D02*
X007357Y020397D01*
X007357Y020439D02*
X007183Y020439D01*
D24*
X005756Y020467D02*
X005756Y019525D01*
X005756Y020467D02*
X006500Y020467D01*
X006500Y019525D01*
X005756Y019525D01*
X005756Y019607D02*
X006500Y019607D01*
X006500Y019689D02*
X005756Y019689D01*
X005756Y019771D02*
X006500Y019771D01*
X006500Y019853D02*
X005756Y019853D01*
X005756Y019935D02*
X006500Y019935D01*
X006500Y020017D02*
X005756Y020017D01*
X005756Y020099D02*
X006500Y020099D01*
X006500Y020181D02*
X005756Y020181D01*
X005756Y020263D02*
X006500Y020263D01*
X006500Y020345D02*
X005756Y020345D01*
X005756Y020427D02*
X006500Y020427D01*
X009300Y020467D02*
X009300Y019525D01*
X009300Y020467D02*
X010044Y020467D01*
X010044Y019525D01*
X009300Y019525D01*
X009300Y019607D02*
X010044Y019607D01*
X010044Y019689D02*
X009300Y019689D01*
X009300Y019771D02*
X010044Y019771D01*
X010044Y019853D02*
X009300Y019853D01*
X009300Y019935D02*
X010044Y019935D01*
X010044Y020017D02*
X009300Y020017D01*
X009300Y020099D02*
X010044Y020099D01*
X010044Y020181D02*
X009300Y020181D01*
X009300Y020263D02*
X010044Y020263D01*
X010044Y020345D02*
X009300Y020345D01*
X009300Y020427D02*
X010044Y020427D01*
X009300Y021690D02*
X009300Y022632D01*
X010044Y022632D01*
X010044Y021690D01*
X009300Y021690D01*
X009300Y021772D02*
X010044Y021772D01*
X010044Y021854D02*
X009300Y021854D01*
X009300Y021936D02*
X010044Y021936D01*
X010044Y022018D02*
X009300Y022018D01*
X009300Y022100D02*
X010044Y022100D01*
X010044Y022182D02*
X009300Y022182D01*
X009300Y022264D02*
X010044Y022264D01*
X010044Y022346D02*
X009300Y022346D01*
X009300Y022428D02*
X010044Y022428D01*
X010044Y022510D02*
X009300Y022510D01*
X009300Y022592D02*
X010044Y022592D01*
X005756Y022632D02*
X005756Y021690D01*
X005756Y022632D02*
X006500Y022632D01*
X006500Y021690D01*
X005756Y021690D01*
X005756Y021772D02*
X006500Y021772D01*
X006500Y021854D02*
X005756Y021854D01*
X005756Y021936D02*
X006500Y021936D01*
X006500Y022018D02*
X005756Y022018D01*
X005756Y022100D02*
X006500Y022100D01*
X006500Y022182D02*
X005756Y022182D01*
X005756Y022264D02*
X006500Y022264D01*
X006500Y022346D02*
X005756Y022346D01*
X005756Y022428D02*
X006500Y022428D01*
X006500Y022510D02*
X005756Y022510D01*
X005756Y022592D02*
X006500Y022592D01*
D25*
X007034Y020980D03*
X008766Y020980D03*
D26*
X039700Y021850D02*
X039700Y022210D01*
X040700Y022210D02*
X040700Y021850D01*
X041700Y021850D02*
X041700Y022210D01*
X042700Y022210D02*
X042700Y021850D01*
X043700Y021850D02*
X043700Y022210D01*
X047420Y018930D02*
X047780Y018930D01*
X047780Y017930D02*
X047420Y017930D01*
X047420Y016930D02*
X047780Y016930D01*
X047780Y015930D02*
X047420Y015930D01*
X047420Y014930D02*
X047780Y014930D01*
X047780Y013930D02*
X047420Y013930D01*
D27*
X001706Y012054D03*
X001706Y011306D03*
D28*
X047446Y011180D02*
X047754Y011180D01*
X047754Y012180D02*
X047446Y012180D01*
D29*
X047082Y009008D02*
X047082Y008352D01*
X046780Y008352D01*
X046780Y009008D01*
X047082Y009008D01*
X047082Y008396D02*
X046780Y008396D01*
X046780Y008440D02*
X047082Y008440D01*
X047082Y008484D02*
X046780Y008484D01*
X046780Y008528D02*
X047082Y008528D01*
X047082Y008572D02*
X046780Y008572D01*
X046780Y008616D02*
X047082Y008616D01*
X047082Y008660D02*
X046780Y008660D01*
X046780Y008704D02*
X047082Y008704D01*
X047082Y008748D02*
X046780Y008748D01*
X046780Y008792D02*
X047082Y008792D01*
X047082Y008836D02*
X046780Y008836D01*
X046780Y008880D02*
X047082Y008880D01*
X047082Y008924D02*
X046780Y008924D01*
X046780Y008968D02*
X047082Y008968D01*
X048420Y009008D02*
X048420Y008352D01*
X048118Y008352D01*
X048118Y009008D01*
X048420Y009008D01*
X048420Y008396D02*
X048118Y008396D01*
X048118Y008440D02*
X048420Y008440D01*
X048420Y008484D02*
X048118Y008484D01*
X048118Y008528D02*
X048420Y008528D01*
X048420Y008572D02*
X048118Y008572D01*
X048118Y008616D02*
X048420Y008616D01*
X048420Y008660D02*
X048118Y008660D01*
X048118Y008704D02*
X048420Y008704D01*
X048420Y008748D02*
X048118Y008748D01*
X048118Y008792D02*
X048420Y008792D01*
X048420Y008836D02*
X048118Y008836D01*
X048118Y008880D02*
X048420Y008880D01*
X048420Y008924D02*
X048118Y008924D01*
X048118Y008968D02*
X048420Y008968D01*
D30*
X023600Y020680D03*
X019350Y021180D03*
M02*
