G75*
G70*
%OFA0B0*%
%FSLAX24Y24*%
%IPPOS*%
%LPD*%
%AMOC8*
5,1,8,0,0,1.08239X$1,22.5*
%
%ADD10C,0.0060*%
%ADD11C,0.0750*%
%ADD12C,0.1050*%
%ADD13R,0.0740X0.0740*%
%ADD14OC8,0.0740*%
%ADD15C,0.0055*%
%ADD16C,0.0594*%
%ADD17C,0.0043*%
%ADD18C,0.0039*%
%ADD19C,0.0063*%
%ADD20C,0.0039*%
%ADD21C,0.0079*%
%ADD22C,0.0600*%
%ADD23C,0.0436*%
%ADD24C,0.0515*%
%ADD25C,0.0041*%
%ADD26C,0.0160*%
%ADD27C,0.0500*%
%ADD28C,0.0554*%
%ADD29C,0.0100*%
%ADD30OC8,0.0440*%
D10*
X002844Y021710D02*
X002844Y022351D01*
X003057Y022351D02*
X002630Y022351D01*
X003275Y022244D02*
X003275Y021817D01*
X003381Y021710D01*
X003595Y021710D01*
X003702Y021817D01*
X003702Y022244D01*
X003595Y022351D01*
X003381Y022351D01*
X003275Y022244D01*
X003919Y022351D02*
X004239Y022351D01*
X004346Y022244D01*
X004346Y022030D01*
X004239Y021924D01*
X003919Y021924D01*
X003919Y021710D02*
X003919Y022351D01*
D11*
X020127Y004086D03*
D12*
X019124Y003082D03*
X021131Y003082D03*
X021131Y005090D03*
X019124Y005090D03*
D13*
X047293Y020774D03*
D14*
X048293Y020774D03*
X049293Y020774D03*
X049293Y021774D03*
X048293Y021774D03*
X047293Y021774D03*
D15*
X005716Y007253D02*
X005716Y006207D01*
X005716Y007253D02*
X006212Y007253D01*
X006212Y006207D01*
X005716Y006207D01*
X005716Y006261D02*
X006212Y006261D01*
X006212Y006315D02*
X005716Y006315D01*
X005716Y006369D02*
X006212Y006369D01*
X006212Y006423D02*
X005716Y006423D01*
X005716Y006477D02*
X006212Y006477D01*
X006212Y006531D02*
X005716Y006531D01*
X005716Y006585D02*
X006212Y006585D01*
X006212Y006639D02*
X005716Y006639D01*
X005716Y006693D02*
X006212Y006693D01*
X006212Y006747D02*
X005716Y006747D01*
X005716Y006801D02*
X006212Y006801D01*
X006212Y006855D02*
X005716Y006855D01*
X005716Y006909D02*
X006212Y006909D01*
X006212Y006963D02*
X005716Y006963D01*
X005716Y007017D02*
X006212Y007017D01*
X006212Y007071D02*
X005716Y007071D01*
X005716Y007125D02*
X006212Y007125D01*
X006212Y007179D02*
X005716Y007179D01*
X005716Y007233D02*
X006212Y007233D01*
X007488Y007253D02*
X007488Y006207D01*
X007488Y007253D02*
X007984Y007253D01*
X007984Y006207D01*
X007488Y006207D01*
X007488Y006261D02*
X007984Y006261D01*
X007984Y006315D02*
X007488Y006315D01*
X007488Y006369D02*
X007984Y006369D01*
X007984Y006423D02*
X007488Y006423D01*
X007488Y006477D02*
X007984Y006477D01*
X007984Y006531D02*
X007488Y006531D01*
X007488Y006585D02*
X007984Y006585D01*
X007984Y006639D02*
X007488Y006639D01*
X007488Y006693D02*
X007984Y006693D01*
X007984Y006747D02*
X007488Y006747D01*
X007488Y006801D02*
X007984Y006801D01*
X007984Y006855D02*
X007488Y006855D01*
X007488Y006909D02*
X007984Y006909D01*
X007984Y006963D02*
X007488Y006963D01*
X007488Y007017D02*
X007984Y007017D01*
X007984Y007071D02*
X007488Y007071D01*
X007488Y007125D02*
X007984Y007125D01*
X007984Y007179D02*
X007488Y007179D01*
X007488Y007233D02*
X007984Y007233D01*
X009716Y007253D02*
X009716Y006207D01*
X009716Y007253D02*
X010212Y007253D01*
X010212Y006207D01*
X009716Y006207D01*
X009716Y006261D02*
X010212Y006261D01*
X010212Y006315D02*
X009716Y006315D01*
X009716Y006369D02*
X010212Y006369D01*
X010212Y006423D02*
X009716Y006423D01*
X009716Y006477D02*
X010212Y006477D01*
X010212Y006531D02*
X009716Y006531D01*
X009716Y006585D02*
X010212Y006585D01*
X010212Y006639D02*
X009716Y006639D01*
X009716Y006693D02*
X010212Y006693D01*
X010212Y006747D02*
X009716Y006747D01*
X009716Y006801D02*
X010212Y006801D01*
X010212Y006855D02*
X009716Y006855D01*
X009716Y006909D02*
X010212Y006909D01*
X010212Y006963D02*
X009716Y006963D01*
X009716Y007017D02*
X010212Y007017D01*
X010212Y007071D02*
X009716Y007071D01*
X009716Y007125D02*
X010212Y007125D01*
X010212Y007179D02*
X009716Y007179D01*
X009716Y007233D02*
X010212Y007233D01*
X011488Y007253D02*
X011488Y006207D01*
X011488Y007253D02*
X011984Y007253D01*
X011984Y006207D01*
X011488Y006207D01*
X011488Y006261D02*
X011984Y006261D01*
X011984Y006315D02*
X011488Y006315D01*
X011488Y006369D02*
X011984Y006369D01*
X011984Y006423D02*
X011488Y006423D01*
X011488Y006477D02*
X011984Y006477D01*
X011984Y006531D02*
X011488Y006531D01*
X011488Y006585D02*
X011984Y006585D01*
X011984Y006639D02*
X011488Y006639D01*
X011488Y006693D02*
X011984Y006693D01*
X011984Y006747D02*
X011488Y006747D01*
X011488Y006801D02*
X011984Y006801D01*
X011984Y006855D02*
X011488Y006855D01*
X011488Y006909D02*
X011984Y006909D01*
X011984Y006963D02*
X011488Y006963D01*
X011488Y007017D02*
X011984Y007017D01*
X011984Y007071D02*
X011488Y007071D01*
X011488Y007125D02*
X011984Y007125D01*
X011984Y007179D02*
X011488Y007179D01*
X011488Y007233D02*
X011984Y007233D01*
X013716Y007253D02*
X013716Y006207D01*
X013716Y007253D02*
X014212Y007253D01*
X014212Y006207D01*
X013716Y006207D01*
X013716Y006261D02*
X014212Y006261D01*
X014212Y006315D02*
X013716Y006315D01*
X013716Y006369D02*
X014212Y006369D01*
X014212Y006423D02*
X013716Y006423D01*
X013716Y006477D02*
X014212Y006477D01*
X014212Y006531D02*
X013716Y006531D01*
X013716Y006585D02*
X014212Y006585D01*
X014212Y006639D02*
X013716Y006639D01*
X013716Y006693D02*
X014212Y006693D01*
X014212Y006747D02*
X013716Y006747D01*
X013716Y006801D02*
X014212Y006801D01*
X014212Y006855D02*
X013716Y006855D01*
X013716Y006909D02*
X014212Y006909D01*
X014212Y006963D02*
X013716Y006963D01*
X013716Y007017D02*
X014212Y007017D01*
X014212Y007071D02*
X013716Y007071D01*
X013716Y007125D02*
X014212Y007125D01*
X014212Y007179D02*
X013716Y007179D01*
X013716Y007233D02*
X014212Y007233D01*
X015488Y007253D02*
X015488Y006207D01*
X015488Y007253D02*
X015984Y007253D01*
X015984Y006207D01*
X015488Y006207D01*
X015488Y006261D02*
X015984Y006261D01*
X015984Y006315D02*
X015488Y006315D01*
X015488Y006369D02*
X015984Y006369D01*
X015984Y006423D02*
X015488Y006423D01*
X015488Y006477D02*
X015984Y006477D01*
X015984Y006531D02*
X015488Y006531D01*
X015488Y006585D02*
X015984Y006585D01*
X015984Y006639D02*
X015488Y006639D01*
X015488Y006693D02*
X015984Y006693D01*
X015984Y006747D02*
X015488Y006747D01*
X015488Y006801D02*
X015984Y006801D01*
X015984Y006855D02*
X015488Y006855D01*
X015488Y006909D02*
X015984Y006909D01*
X015984Y006963D02*
X015488Y006963D01*
X015488Y007017D02*
X015984Y007017D01*
X015984Y007071D02*
X015488Y007071D01*
X015488Y007125D02*
X015984Y007125D01*
X015984Y007179D02*
X015488Y007179D01*
X015488Y007233D02*
X015984Y007233D01*
X017716Y007253D02*
X017716Y006207D01*
X017716Y007253D02*
X018212Y007253D01*
X018212Y006207D01*
X017716Y006207D01*
X017716Y006261D02*
X018212Y006261D01*
X018212Y006315D02*
X017716Y006315D01*
X017716Y006369D02*
X018212Y006369D01*
X018212Y006423D02*
X017716Y006423D01*
X017716Y006477D02*
X018212Y006477D01*
X018212Y006531D02*
X017716Y006531D01*
X017716Y006585D02*
X018212Y006585D01*
X018212Y006639D02*
X017716Y006639D01*
X017716Y006693D02*
X018212Y006693D01*
X018212Y006747D02*
X017716Y006747D01*
X017716Y006801D02*
X018212Y006801D01*
X018212Y006855D02*
X017716Y006855D01*
X017716Y006909D02*
X018212Y006909D01*
X018212Y006963D02*
X017716Y006963D01*
X017716Y007017D02*
X018212Y007017D01*
X018212Y007071D02*
X017716Y007071D01*
X017716Y007125D02*
X018212Y007125D01*
X018212Y007179D02*
X017716Y007179D01*
X017716Y007233D02*
X018212Y007233D01*
X019488Y007253D02*
X019488Y006207D01*
X019488Y007253D02*
X019984Y007253D01*
X019984Y006207D01*
X019488Y006207D01*
X019488Y006261D02*
X019984Y006261D01*
X019984Y006315D02*
X019488Y006315D01*
X019488Y006369D02*
X019984Y006369D01*
X019984Y006423D02*
X019488Y006423D01*
X019488Y006477D02*
X019984Y006477D01*
X019984Y006531D02*
X019488Y006531D01*
X019488Y006585D02*
X019984Y006585D01*
X019984Y006639D02*
X019488Y006639D01*
X019488Y006693D02*
X019984Y006693D01*
X019984Y006747D02*
X019488Y006747D01*
X019488Y006801D02*
X019984Y006801D01*
X019984Y006855D02*
X019488Y006855D01*
X019488Y006909D02*
X019984Y006909D01*
X019984Y006963D02*
X019488Y006963D01*
X019488Y007017D02*
X019984Y007017D01*
X019984Y007071D02*
X019488Y007071D01*
X019488Y007125D02*
X019984Y007125D01*
X019984Y007179D02*
X019488Y007179D01*
X019488Y007233D02*
X019984Y007233D01*
X019488Y008107D02*
X019488Y009153D01*
X019984Y009153D01*
X019984Y008107D01*
X019488Y008107D01*
X019488Y008161D02*
X019984Y008161D01*
X019984Y008215D02*
X019488Y008215D01*
X019488Y008269D02*
X019984Y008269D01*
X019984Y008323D02*
X019488Y008323D01*
X019488Y008377D02*
X019984Y008377D01*
X019984Y008431D02*
X019488Y008431D01*
X019488Y008485D02*
X019984Y008485D01*
X019984Y008539D02*
X019488Y008539D01*
X019488Y008593D02*
X019984Y008593D01*
X019984Y008647D02*
X019488Y008647D01*
X019488Y008701D02*
X019984Y008701D01*
X019984Y008755D02*
X019488Y008755D01*
X019488Y008809D02*
X019984Y008809D01*
X019984Y008863D02*
X019488Y008863D01*
X019488Y008917D02*
X019984Y008917D01*
X019984Y008971D02*
X019488Y008971D01*
X019488Y009025D02*
X019984Y009025D01*
X019984Y009079D02*
X019488Y009079D01*
X019488Y009133D02*
X019984Y009133D01*
X017716Y009153D02*
X017716Y008107D01*
X017716Y009153D02*
X018212Y009153D01*
X018212Y008107D01*
X017716Y008107D01*
X017716Y008161D02*
X018212Y008161D01*
X018212Y008215D02*
X017716Y008215D01*
X017716Y008269D02*
X018212Y008269D01*
X018212Y008323D02*
X017716Y008323D01*
X017716Y008377D02*
X018212Y008377D01*
X018212Y008431D02*
X017716Y008431D01*
X017716Y008485D02*
X018212Y008485D01*
X018212Y008539D02*
X017716Y008539D01*
X017716Y008593D02*
X018212Y008593D01*
X018212Y008647D02*
X017716Y008647D01*
X017716Y008701D02*
X018212Y008701D01*
X018212Y008755D02*
X017716Y008755D01*
X017716Y008809D02*
X018212Y008809D01*
X018212Y008863D02*
X017716Y008863D01*
X017716Y008917D02*
X018212Y008917D01*
X018212Y008971D02*
X017716Y008971D01*
X017716Y009025D02*
X018212Y009025D01*
X018212Y009079D02*
X017716Y009079D01*
X017716Y009133D02*
X018212Y009133D01*
X015488Y009153D02*
X015488Y008107D01*
X015488Y009153D02*
X015984Y009153D01*
X015984Y008107D01*
X015488Y008107D01*
X015488Y008161D02*
X015984Y008161D01*
X015984Y008215D02*
X015488Y008215D01*
X015488Y008269D02*
X015984Y008269D01*
X015984Y008323D02*
X015488Y008323D01*
X015488Y008377D02*
X015984Y008377D01*
X015984Y008431D02*
X015488Y008431D01*
X015488Y008485D02*
X015984Y008485D01*
X015984Y008539D02*
X015488Y008539D01*
X015488Y008593D02*
X015984Y008593D01*
X015984Y008647D02*
X015488Y008647D01*
X015488Y008701D02*
X015984Y008701D01*
X015984Y008755D02*
X015488Y008755D01*
X015488Y008809D02*
X015984Y008809D01*
X015984Y008863D02*
X015488Y008863D01*
X015488Y008917D02*
X015984Y008917D01*
X015984Y008971D02*
X015488Y008971D01*
X015488Y009025D02*
X015984Y009025D01*
X015984Y009079D02*
X015488Y009079D01*
X015488Y009133D02*
X015984Y009133D01*
X013716Y009153D02*
X013716Y008107D01*
X013716Y009153D02*
X014212Y009153D01*
X014212Y008107D01*
X013716Y008107D01*
X013716Y008161D02*
X014212Y008161D01*
X014212Y008215D02*
X013716Y008215D01*
X013716Y008269D02*
X014212Y008269D01*
X014212Y008323D02*
X013716Y008323D01*
X013716Y008377D02*
X014212Y008377D01*
X014212Y008431D02*
X013716Y008431D01*
X013716Y008485D02*
X014212Y008485D01*
X014212Y008539D02*
X013716Y008539D01*
X013716Y008593D02*
X014212Y008593D01*
X014212Y008647D02*
X013716Y008647D01*
X013716Y008701D02*
X014212Y008701D01*
X014212Y008755D02*
X013716Y008755D01*
X013716Y008809D02*
X014212Y008809D01*
X014212Y008863D02*
X013716Y008863D01*
X013716Y008917D02*
X014212Y008917D01*
X014212Y008971D02*
X013716Y008971D01*
X013716Y009025D02*
X014212Y009025D01*
X014212Y009079D02*
X013716Y009079D01*
X013716Y009133D02*
X014212Y009133D01*
X011488Y009153D02*
X011488Y008107D01*
X011488Y009153D02*
X011984Y009153D01*
X011984Y008107D01*
X011488Y008107D01*
X011488Y008161D02*
X011984Y008161D01*
X011984Y008215D02*
X011488Y008215D01*
X011488Y008269D02*
X011984Y008269D01*
X011984Y008323D02*
X011488Y008323D01*
X011488Y008377D02*
X011984Y008377D01*
X011984Y008431D02*
X011488Y008431D01*
X011488Y008485D02*
X011984Y008485D01*
X011984Y008539D02*
X011488Y008539D01*
X011488Y008593D02*
X011984Y008593D01*
X011984Y008647D02*
X011488Y008647D01*
X011488Y008701D02*
X011984Y008701D01*
X011984Y008755D02*
X011488Y008755D01*
X011488Y008809D02*
X011984Y008809D01*
X011984Y008863D02*
X011488Y008863D01*
X011488Y008917D02*
X011984Y008917D01*
X011984Y008971D02*
X011488Y008971D01*
X011488Y009025D02*
X011984Y009025D01*
X011984Y009079D02*
X011488Y009079D01*
X011488Y009133D02*
X011984Y009133D01*
X009716Y009153D02*
X009716Y008107D01*
X009716Y009153D02*
X010212Y009153D01*
X010212Y008107D01*
X009716Y008107D01*
X009716Y008161D02*
X010212Y008161D01*
X010212Y008215D02*
X009716Y008215D01*
X009716Y008269D02*
X010212Y008269D01*
X010212Y008323D02*
X009716Y008323D01*
X009716Y008377D02*
X010212Y008377D01*
X010212Y008431D02*
X009716Y008431D01*
X009716Y008485D02*
X010212Y008485D01*
X010212Y008539D02*
X009716Y008539D01*
X009716Y008593D02*
X010212Y008593D01*
X010212Y008647D02*
X009716Y008647D01*
X009716Y008701D02*
X010212Y008701D01*
X010212Y008755D02*
X009716Y008755D01*
X009716Y008809D02*
X010212Y008809D01*
X010212Y008863D02*
X009716Y008863D01*
X009716Y008917D02*
X010212Y008917D01*
X010212Y008971D02*
X009716Y008971D01*
X009716Y009025D02*
X010212Y009025D01*
X010212Y009079D02*
X009716Y009079D01*
X009716Y009133D02*
X010212Y009133D01*
X007488Y009153D02*
X007488Y008107D01*
X007488Y009153D02*
X007984Y009153D01*
X007984Y008107D01*
X007488Y008107D01*
X007488Y008161D02*
X007984Y008161D01*
X007984Y008215D02*
X007488Y008215D01*
X007488Y008269D02*
X007984Y008269D01*
X007984Y008323D02*
X007488Y008323D01*
X007488Y008377D02*
X007984Y008377D01*
X007984Y008431D02*
X007488Y008431D01*
X007488Y008485D02*
X007984Y008485D01*
X007984Y008539D02*
X007488Y008539D01*
X007488Y008593D02*
X007984Y008593D01*
X007984Y008647D02*
X007488Y008647D01*
X007488Y008701D02*
X007984Y008701D01*
X007984Y008755D02*
X007488Y008755D01*
X007488Y008809D02*
X007984Y008809D01*
X007984Y008863D02*
X007488Y008863D01*
X007488Y008917D02*
X007984Y008917D01*
X007984Y008971D02*
X007488Y008971D01*
X007488Y009025D02*
X007984Y009025D01*
X007984Y009079D02*
X007488Y009079D01*
X007488Y009133D02*
X007984Y009133D01*
X005716Y009153D02*
X005716Y008107D01*
X005716Y009153D02*
X006212Y009153D01*
X006212Y008107D01*
X005716Y008107D01*
X005716Y008161D02*
X006212Y008161D01*
X006212Y008215D02*
X005716Y008215D01*
X005716Y008269D02*
X006212Y008269D01*
X006212Y008323D02*
X005716Y008323D01*
X005716Y008377D02*
X006212Y008377D01*
X006212Y008431D02*
X005716Y008431D01*
X005716Y008485D02*
X006212Y008485D01*
X006212Y008539D02*
X005716Y008539D01*
X005716Y008593D02*
X006212Y008593D01*
X006212Y008647D02*
X005716Y008647D01*
X005716Y008701D02*
X006212Y008701D01*
X006212Y008755D02*
X005716Y008755D01*
X005716Y008809D02*
X006212Y008809D01*
X006212Y008863D02*
X005716Y008863D01*
X005716Y008917D02*
X006212Y008917D01*
X006212Y008971D02*
X005716Y008971D01*
X005716Y009025D02*
X006212Y009025D01*
X006212Y009079D02*
X005716Y009079D01*
X005716Y009133D02*
X006212Y009133D01*
X005716Y010207D02*
X005716Y011253D01*
X006212Y011253D01*
X006212Y010207D01*
X005716Y010207D01*
X005716Y010261D02*
X006212Y010261D01*
X006212Y010315D02*
X005716Y010315D01*
X005716Y010369D02*
X006212Y010369D01*
X006212Y010423D02*
X005716Y010423D01*
X005716Y010477D02*
X006212Y010477D01*
X006212Y010531D02*
X005716Y010531D01*
X005716Y010585D02*
X006212Y010585D01*
X006212Y010639D02*
X005716Y010639D01*
X005716Y010693D02*
X006212Y010693D01*
X006212Y010747D02*
X005716Y010747D01*
X005716Y010801D02*
X006212Y010801D01*
X006212Y010855D02*
X005716Y010855D01*
X005716Y010909D02*
X006212Y010909D01*
X006212Y010963D02*
X005716Y010963D01*
X005716Y011017D02*
X006212Y011017D01*
X006212Y011071D02*
X005716Y011071D01*
X005716Y011125D02*
X006212Y011125D01*
X006212Y011179D02*
X005716Y011179D01*
X005716Y011233D02*
X006212Y011233D01*
X007488Y011253D02*
X007488Y010207D01*
X007488Y011253D02*
X007984Y011253D01*
X007984Y010207D01*
X007488Y010207D01*
X007488Y010261D02*
X007984Y010261D01*
X007984Y010315D02*
X007488Y010315D01*
X007488Y010369D02*
X007984Y010369D01*
X007984Y010423D02*
X007488Y010423D01*
X007488Y010477D02*
X007984Y010477D01*
X007984Y010531D02*
X007488Y010531D01*
X007488Y010585D02*
X007984Y010585D01*
X007984Y010639D02*
X007488Y010639D01*
X007488Y010693D02*
X007984Y010693D01*
X007984Y010747D02*
X007488Y010747D01*
X007488Y010801D02*
X007984Y010801D01*
X007984Y010855D02*
X007488Y010855D01*
X007488Y010909D02*
X007984Y010909D01*
X007984Y010963D02*
X007488Y010963D01*
X007488Y011017D02*
X007984Y011017D01*
X007984Y011071D02*
X007488Y011071D01*
X007488Y011125D02*
X007984Y011125D01*
X007984Y011179D02*
X007488Y011179D01*
X007488Y011233D02*
X007984Y011233D01*
X009716Y011253D02*
X009716Y010207D01*
X009716Y011253D02*
X010212Y011253D01*
X010212Y010207D01*
X009716Y010207D01*
X009716Y010261D02*
X010212Y010261D01*
X010212Y010315D02*
X009716Y010315D01*
X009716Y010369D02*
X010212Y010369D01*
X010212Y010423D02*
X009716Y010423D01*
X009716Y010477D02*
X010212Y010477D01*
X010212Y010531D02*
X009716Y010531D01*
X009716Y010585D02*
X010212Y010585D01*
X010212Y010639D02*
X009716Y010639D01*
X009716Y010693D02*
X010212Y010693D01*
X010212Y010747D02*
X009716Y010747D01*
X009716Y010801D02*
X010212Y010801D01*
X010212Y010855D02*
X009716Y010855D01*
X009716Y010909D02*
X010212Y010909D01*
X010212Y010963D02*
X009716Y010963D01*
X009716Y011017D02*
X010212Y011017D01*
X010212Y011071D02*
X009716Y011071D01*
X009716Y011125D02*
X010212Y011125D01*
X010212Y011179D02*
X009716Y011179D01*
X009716Y011233D02*
X010212Y011233D01*
X011488Y011253D02*
X011488Y010207D01*
X011488Y011253D02*
X011984Y011253D01*
X011984Y010207D01*
X011488Y010207D01*
X011488Y010261D02*
X011984Y010261D01*
X011984Y010315D02*
X011488Y010315D01*
X011488Y010369D02*
X011984Y010369D01*
X011984Y010423D02*
X011488Y010423D01*
X011488Y010477D02*
X011984Y010477D01*
X011984Y010531D02*
X011488Y010531D01*
X011488Y010585D02*
X011984Y010585D01*
X011984Y010639D02*
X011488Y010639D01*
X011488Y010693D02*
X011984Y010693D01*
X011984Y010747D02*
X011488Y010747D01*
X011488Y010801D02*
X011984Y010801D01*
X011984Y010855D02*
X011488Y010855D01*
X011488Y010909D02*
X011984Y010909D01*
X011984Y010963D02*
X011488Y010963D01*
X011488Y011017D02*
X011984Y011017D01*
X011984Y011071D02*
X011488Y011071D01*
X011488Y011125D02*
X011984Y011125D01*
X011984Y011179D02*
X011488Y011179D01*
X011488Y011233D02*
X011984Y011233D01*
X013716Y011253D02*
X013716Y010207D01*
X013716Y011253D02*
X014212Y011253D01*
X014212Y010207D01*
X013716Y010207D01*
X013716Y010261D02*
X014212Y010261D01*
X014212Y010315D02*
X013716Y010315D01*
X013716Y010369D02*
X014212Y010369D01*
X014212Y010423D02*
X013716Y010423D01*
X013716Y010477D02*
X014212Y010477D01*
X014212Y010531D02*
X013716Y010531D01*
X013716Y010585D02*
X014212Y010585D01*
X014212Y010639D02*
X013716Y010639D01*
X013716Y010693D02*
X014212Y010693D01*
X014212Y010747D02*
X013716Y010747D01*
X013716Y010801D02*
X014212Y010801D01*
X014212Y010855D02*
X013716Y010855D01*
X013716Y010909D02*
X014212Y010909D01*
X014212Y010963D02*
X013716Y010963D01*
X013716Y011017D02*
X014212Y011017D01*
X014212Y011071D02*
X013716Y011071D01*
X013716Y011125D02*
X014212Y011125D01*
X014212Y011179D02*
X013716Y011179D01*
X013716Y011233D02*
X014212Y011233D01*
X015488Y011253D02*
X015488Y010207D01*
X015488Y011253D02*
X015984Y011253D01*
X015984Y010207D01*
X015488Y010207D01*
X015488Y010261D02*
X015984Y010261D01*
X015984Y010315D02*
X015488Y010315D01*
X015488Y010369D02*
X015984Y010369D01*
X015984Y010423D02*
X015488Y010423D01*
X015488Y010477D02*
X015984Y010477D01*
X015984Y010531D02*
X015488Y010531D01*
X015488Y010585D02*
X015984Y010585D01*
X015984Y010639D02*
X015488Y010639D01*
X015488Y010693D02*
X015984Y010693D01*
X015984Y010747D02*
X015488Y010747D01*
X015488Y010801D02*
X015984Y010801D01*
X015984Y010855D02*
X015488Y010855D01*
X015488Y010909D02*
X015984Y010909D01*
X015984Y010963D02*
X015488Y010963D01*
X015488Y011017D02*
X015984Y011017D01*
X015984Y011071D02*
X015488Y011071D01*
X015488Y011125D02*
X015984Y011125D01*
X015984Y011179D02*
X015488Y011179D01*
X015488Y011233D02*
X015984Y011233D01*
X017716Y011253D02*
X017716Y010207D01*
X017716Y011253D02*
X018212Y011253D01*
X018212Y010207D01*
X017716Y010207D01*
X017716Y010261D02*
X018212Y010261D01*
X018212Y010315D02*
X017716Y010315D01*
X017716Y010369D02*
X018212Y010369D01*
X018212Y010423D02*
X017716Y010423D01*
X017716Y010477D02*
X018212Y010477D01*
X018212Y010531D02*
X017716Y010531D01*
X017716Y010585D02*
X018212Y010585D01*
X018212Y010639D02*
X017716Y010639D01*
X017716Y010693D02*
X018212Y010693D01*
X018212Y010747D02*
X017716Y010747D01*
X017716Y010801D02*
X018212Y010801D01*
X018212Y010855D02*
X017716Y010855D01*
X017716Y010909D02*
X018212Y010909D01*
X018212Y010963D02*
X017716Y010963D01*
X017716Y011017D02*
X018212Y011017D01*
X018212Y011071D02*
X017716Y011071D01*
X017716Y011125D02*
X018212Y011125D01*
X018212Y011179D02*
X017716Y011179D01*
X017716Y011233D02*
X018212Y011233D01*
X019488Y011253D02*
X019488Y010207D01*
X019488Y011253D02*
X019984Y011253D01*
X019984Y010207D01*
X019488Y010207D01*
X019488Y010261D02*
X019984Y010261D01*
X019984Y010315D02*
X019488Y010315D01*
X019488Y010369D02*
X019984Y010369D01*
X019984Y010423D02*
X019488Y010423D01*
X019488Y010477D02*
X019984Y010477D01*
X019984Y010531D02*
X019488Y010531D01*
X019488Y010585D02*
X019984Y010585D01*
X019984Y010639D02*
X019488Y010639D01*
X019488Y010693D02*
X019984Y010693D01*
X019984Y010747D02*
X019488Y010747D01*
X019488Y010801D02*
X019984Y010801D01*
X019984Y010855D02*
X019488Y010855D01*
X019488Y010909D02*
X019984Y010909D01*
X019984Y010963D02*
X019488Y010963D01*
X019488Y011017D02*
X019984Y011017D01*
X019984Y011071D02*
X019488Y011071D01*
X019488Y011125D02*
X019984Y011125D01*
X019984Y011179D02*
X019488Y011179D01*
X019488Y011233D02*
X019984Y011233D01*
X021466Y011253D02*
X021466Y010207D01*
X021466Y011253D02*
X021962Y011253D01*
X021962Y010207D01*
X021466Y010207D01*
X021466Y010261D02*
X021962Y010261D01*
X021962Y010315D02*
X021466Y010315D01*
X021466Y010369D02*
X021962Y010369D01*
X021962Y010423D02*
X021466Y010423D01*
X021466Y010477D02*
X021962Y010477D01*
X021962Y010531D02*
X021466Y010531D01*
X021466Y010585D02*
X021962Y010585D01*
X021962Y010639D02*
X021466Y010639D01*
X021466Y010693D02*
X021962Y010693D01*
X021962Y010747D02*
X021466Y010747D01*
X021466Y010801D02*
X021962Y010801D01*
X021962Y010855D02*
X021466Y010855D01*
X021466Y010909D02*
X021962Y010909D01*
X021962Y010963D02*
X021466Y010963D01*
X021466Y011017D02*
X021962Y011017D01*
X021962Y011071D02*
X021466Y011071D01*
X021466Y011125D02*
X021962Y011125D01*
X021962Y011179D02*
X021466Y011179D01*
X021466Y011233D02*
X021962Y011233D01*
X023238Y011253D02*
X023238Y010207D01*
X023238Y011253D02*
X023734Y011253D01*
X023734Y010207D01*
X023238Y010207D01*
X023238Y010261D02*
X023734Y010261D01*
X023734Y010315D02*
X023238Y010315D01*
X023238Y010369D02*
X023734Y010369D01*
X023734Y010423D02*
X023238Y010423D01*
X023238Y010477D02*
X023734Y010477D01*
X023734Y010531D02*
X023238Y010531D01*
X023238Y010585D02*
X023734Y010585D01*
X023734Y010639D02*
X023238Y010639D01*
X023238Y010693D02*
X023734Y010693D01*
X023734Y010747D02*
X023238Y010747D01*
X023238Y010801D02*
X023734Y010801D01*
X023734Y010855D02*
X023238Y010855D01*
X023238Y010909D02*
X023734Y010909D01*
X023734Y010963D02*
X023238Y010963D01*
X023238Y011017D02*
X023734Y011017D01*
X023734Y011071D02*
X023238Y011071D01*
X023238Y011125D02*
X023734Y011125D01*
X023734Y011179D02*
X023238Y011179D01*
X023238Y011233D02*
X023734Y011233D01*
X024466Y011253D02*
X024466Y010207D01*
X024466Y011253D02*
X024962Y011253D01*
X024962Y010207D01*
X024466Y010207D01*
X024466Y010261D02*
X024962Y010261D01*
X024962Y010315D02*
X024466Y010315D01*
X024466Y010369D02*
X024962Y010369D01*
X024962Y010423D02*
X024466Y010423D01*
X024466Y010477D02*
X024962Y010477D01*
X024962Y010531D02*
X024466Y010531D01*
X024466Y010585D02*
X024962Y010585D01*
X024962Y010639D02*
X024466Y010639D01*
X024466Y010693D02*
X024962Y010693D01*
X024962Y010747D02*
X024466Y010747D01*
X024466Y010801D02*
X024962Y010801D01*
X024962Y010855D02*
X024466Y010855D01*
X024466Y010909D02*
X024962Y010909D01*
X024962Y010963D02*
X024466Y010963D01*
X024466Y011017D02*
X024962Y011017D01*
X024962Y011071D02*
X024466Y011071D01*
X024466Y011125D02*
X024962Y011125D01*
X024962Y011179D02*
X024466Y011179D01*
X024466Y011233D02*
X024962Y011233D01*
X026238Y011253D02*
X026238Y010207D01*
X026238Y011253D02*
X026734Y011253D01*
X026734Y010207D01*
X026238Y010207D01*
X026238Y010261D02*
X026734Y010261D01*
X026734Y010315D02*
X026238Y010315D01*
X026238Y010369D02*
X026734Y010369D01*
X026734Y010423D02*
X026238Y010423D01*
X026238Y010477D02*
X026734Y010477D01*
X026734Y010531D02*
X026238Y010531D01*
X026238Y010585D02*
X026734Y010585D01*
X026734Y010639D02*
X026238Y010639D01*
X026238Y010693D02*
X026734Y010693D01*
X026734Y010747D02*
X026238Y010747D01*
X026238Y010801D02*
X026734Y010801D01*
X026734Y010855D02*
X026238Y010855D01*
X026238Y010909D02*
X026734Y010909D01*
X026734Y010963D02*
X026238Y010963D01*
X026238Y011017D02*
X026734Y011017D01*
X026734Y011071D02*
X026238Y011071D01*
X026238Y011125D02*
X026734Y011125D01*
X026734Y011179D02*
X026238Y011179D01*
X026238Y011233D02*
X026734Y011233D01*
X026238Y012107D02*
X026238Y013153D01*
X026734Y013153D01*
X026734Y012107D01*
X026238Y012107D01*
X026238Y012161D02*
X026734Y012161D01*
X026734Y012215D02*
X026238Y012215D01*
X026238Y012269D02*
X026734Y012269D01*
X026734Y012323D02*
X026238Y012323D01*
X026238Y012377D02*
X026734Y012377D01*
X026734Y012431D02*
X026238Y012431D01*
X026238Y012485D02*
X026734Y012485D01*
X026734Y012539D02*
X026238Y012539D01*
X026238Y012593D02*
X026734Y012593D01*
X026734Y012647D02*
X026238Y012647D01*
X026238Y012701D02*
X026734Y012701D01*
X026734Y012755D02*
X026238Y012755D01*
X026238Y012809D02*
X026734Y012809D01*
X026734Y012863D02*
X026238Y012863D01*
X026238Y012917D02*
X026734Y012917D01*
X026734Y012971D02*
X026238Y012971D01*
X026238Y013025D02*
X026734Y013025D01*
X026734Y013079D02*
X026238Y013079D01*
X026238Y013133D02*
X026734Y013133D01*
X024466Y013153D02*
X024466Y012107D01*
X024466Y013153D02*
X024962Y013153D01*
X024962Y012107D01*
X024466Y012107D01*
X024466Y012161D02*
X024962Y012161D01*
X024962Y012215D02*
X024466Y012215D01*
X024466Y012269D02*
X024962Y012269D01*
X024962Y012323D02*
X024466Y012323D01*
X024466Y012377D02*
X024962Y012377D01*
X024962Y012431D02*
X024466Y012431D01*
X024466Y012485D02*
X024962Y012485D01*
X024962Y012539D02*
X024466Y012539D01*
X024466Y012593D02*
X024962Y012593D01*
X024962Y012647D02*
X024466Y012647D01*
X024466Y012701D02*
X024962Y012701D01*
X024962Y012755D02*
X024466Y012755D01*
X024466Y012809D02*
X024962Y012809D01*
X024962Y012863D02*
X024466Y012863D01*
X024466Y012917D02*
X024962Y012917D01*
X024962Y012971D02*
X024466Y012971D01*
X024466Y013025D02*
X024962Y013025D01*
X024962Y013079D02*
X024466Y013079D01*
X024466Y013133D02*
X024962Y013133D01*
X023238Y013153D02*
X023238Y012107D01*
X023238Y013153D02*
X023734Y013153D01*
X023734Y012107D01*
X023238Y012107D01*
X023238Y012161D02*
X023734Y012161D01*
X023734Y012215D02*
X023238Y012215D01*
X023238Y012269D02*
X023734Y012269D01*
X023734Y012323D02*
X023238Y012323D01*
X023238Y012377D02*
X023734Y012377D01*
X023734Y012431D02*
X023238Y012431D01*
X023238Y012485D02*
X023734Y012485D01*
X023734Y012539D02*
X023238Y012539D01*
X023238Y012593D02*
X023734Y012593D01*
X023734Y012647D02*
X023238Y012647D01*
X023238Y012701D02*
X023734Y012701D01*
X023734Y012755D02*
X023238Y012755D01*
X023238Y012809D02*
X023734Y012809D01*
X023734Y012863D02*
X023238Y012863D01*
X023238Y012917D02*
X023734Y012917D01*
X023734Y012971D02*
X023238Y012971D01*
X023238Y013025D02*
X023734Y013025D01*
X023734Y013079D02*
X023238Y013079D01*
X023238Y013133D02*
X023734Y013133D01*
X021466Y013153D02*
X021466Y012107D01*
X021466Y013153D02*
X021962Y013153D01*
X021962Y012107D01*
X021466Y012107D01*
X021466Y012161D02*
X021962Y012161D01*
X021962Y012215D02*
X021466Y012215D01*
X021466Y012269D02*
X021962Y012269D01*
X021962Y012323D02*
X021466Y012323D01*
X021466Y012377D02*
X021962Y012377D01*
X021962Y012431D02*
X021466Y012431D01*
X021466Y012485D02*
X021962Y012485D01*
X021962Y012539D02*
X021466Y012539D01*
X021466Y012593D02*
X021962Y012593D01*
X021962Y012647D02*
X021466Y012647D01*
X021466Y012701D02*
X021962Y012701D01*
X021962Y012755D02*
X021466Y012755D01*
X021466Y012809D02*
X021962Y012809D01*
X021962Y012863D02*
X021466Y012863D01*
X021466Y012917D02*
X021962Y012917D01*
X021962Y012971D02*
X021466Y012971D01*
X021466Y013025D02*
X021962Y013025D01*
X021962Y013079D02*
X021466Y013079D01*
X021466Y013133D02*
X021962Y013133D01*
X019488Y013153D02*
X019488Y012107D01*
X019488Y013153D02*
X019984Y013153D01*
X019984Y012107D01*
X019488Y012107D01*
X019488Y012161D02*
X019984Y012161D01*
X019984Y012215D02*
X019488Y012215D01*
X019488Y012269D02*
X019984Y012269D01*
X019984Y012323D02*
X019488Y012323D01*
X019488Y012377D02*
X019984Y012377D01*
X019984Y012431D02*
X019488Y012431D01*
X019488Y012485D02*
X019984Y012485D01*
X019984Y012539D02*
X019488Y012539D01*
X019488Y012593D02*
X019984Y012593D01*
X019984Y012647D02*
X019488Y012647D01*
X019488Y012701D02*
X019984Y012701D01*
X019984Y012755D02*
X019488Y012755D01*
X019488Y012809D02*
X019984Y012809D01*
X019984Y012863D02*
X019488Y012863D01*
X019488Y012917D02*
X019984Y012917D01*
X019984Y012971D02*
X019488Y012971D01*
X019488Y013025D02*
X019984Y013025D01*
X019984Y013079D02*
X019488Y013079D01*
X019488Y013133D02*
X019984Y013133D01*
X017716Y013153D02*
X017716Y012107D01*
X017716Y013153D02*
X018212Y013153D01*
X018212Y012107D01*
X017716Y012107D01*
X017716Y012161D02*
X018212Y012161D01*
X018212Y012215D02*
X017716Y012215D01*
X017716Y012269D02*
X018212Y012269D01*
X018212Y012323D02*
X017716Y012323D01*
X017716Y012377D02*
X018212Y012377D01*
X018212Y012431D02*
X017716Y012431D01*
X017716Y012485D02*
X018212Y012485D01*
X018212Y012539D02*
X017716Y012539D01*
X017716Y012593D02*
X018212Y012593D01*
X018212Y012647D02*
X017716Y012647D01*
X017716Y012701D02*
X018212Y012701D01*
X018212Y012755D02*
X017716Y012755D01*
X017716Y012809D02*
X018212Y012809D01*
X018212Y012863D02*
X017716Y012863D01*
X017716Y012917D02*
X018212Y012917D01*
X018212Y012971D02*
X017716Y012971D01*
X017716Y013025D02*
X018212Y013025D01*
X018212Y013079D02*
X017716Y013079D01*
X017716Y013133D02*
X018212Y013133D01*
X015488Y013153D02*
X015488Y012107D01*
X015488Y013153D02*
X015984Y013153D01*
X015984Y012107D01*
X015488Y012107D01*
X015488Y012161D02*
X015984Y012161D01*
X015984Y012215D02*
X015488Y012215D01*
X015488Y012269D02*
X015984Y012269D01*
X015984Y012323D02*
X015488Y012323D01*
X015488Y012377D02*
X015984Y012377D01*
X015984Y012431D02*
X015488Y012431D01*
X015488Y012485D02*
X015984Y012485D01*
X015984Y012539D02*
X015488Y012539D01*
X015488Y012593D02*
X015984Y012593D01*
X015984Y012647D02*
X015488Y012647D01*
X015488Y012701D02*
X015984Y012701D01*
X015984Y012755D02*
X015488Y012755D01*
X015488Y012809D02*
X015984Y012809D01*
X015984Y012863D02*
X015488Y012863D01*
X015488Y012917D02*
X015984Y012917D01*
X015984Y012971D02*
X015488Y012971D01*
X015488Y013025D02*
X015984Y013025D01*
X015984Y013079D02*
X015488Y013079D01*
X015488Y013133D02*
X015984Y013133D01*
X013716Y013153D02*
X013716Y012107D01*
X013716Y013153D02*
X014212Y013153D01*
X014212Y012107D01*
X013716Y012107D01*
X013716Y012161D02*
X014212Y012161D01*
X014212Y012215D02*
X013716Y012215D01*
X013716Y012269D02*
X014212Y012269D01*
X014212Y012323D02*
X013716Y012323D01*
X013716Y012377D02*
X014212Y012377D01*
X014212Y012431D02*
X013716Y012431D01*
X013716Y012485D02*
X014212Y012485D01*
X014212Y012539D02*
X013716Y012539D01*
X013716Y012593D02*
X014212Y012593D01*
X014212Y012647D02*
X013716Y012647D01*
X013716Y012701D02*
X014212Y012701D01*
X014212Y012755D02*
X013716Y012755D01*
X013716Y012809D02*
X014212Y012809D01*
X014212Y012863D02*
X013716Y012863D01*
X013716Y012917D02*
X014212Y012917D01*
X014212Y012971D02*
X013716Y012971D01*
X013716Y013025D02*
X014212Y013025D01*
X014212Y013079D02*
X013716Y013079D01*
X013716Y013133D02*
X014212Y013133D01*
X011488Y013153D02*
X011488Y012107D01*
X011488Y013153D02*
X011984Y013153D01*
X011984Y012107D01*
X011488Y012107D01*
X011488Y012161D02*
X011984Y012161D01*
X011984Y012215D02*
X011488Y012215D01*
X011488Y012269D02*
X011984Y012269D01*
X011984Y012323D02*
X011488Y012323D01*
X011488Y012377D02*
X011984Y012377D01*
X011984Y012431D02*
X011488Y012431D01*
X011488Y012485D02*
X011984Y012485D01*
X011984Y012539D02*
X011488Y012539D01*
X011488Y012593D02*
X011984Y012593D01*
X011984Y012647D02*
X011488Y012647D01*
X011488Y012701D02*
X011984Y012701D01*
X011984Y012755D02*
X011488Y012755D01*
X011488Y012809D02*
X011984Y012809D01*
X011984Y012863D02*
X011488Y012863D01*
X011488Y012917D02*
X011984Y012917D01*
X011984Y012971D02*
X011488Y012971D01*
X011488Y013025D02*
X011984Y013025D01*
X011984Y013079D02*
X011488Y013079D01*
X011488Y013133D02*
X011984Y013133D01*
X009716Y013153D02*
X009716Y012107D01*
X009716Y013153D02*
X010212Y013153D01*
X010212Y012107D01*
X009716Y012107D01*
X009716Y012161D02*
X010212Y012161D01*
X010212Y012215D02*
X009716Y012215D01*
X009716Y012269D02*
X010212Y012269D01*
X010212Y012323D02*
X009716Y012323D01*
X009716Y012377D02*
X010212Y012377D01*
X010212Y012431D02*
X009716Y012431D01*
X009716Y012485D02*
X010212Y012485D01*
X010212Y012539D02*
X009716Y012539D01*
X009716Y012593D02*
X010212Y012593D01*
X010212Y012647D02*
X009716Y012647D01*
X009716Y012701D02*
X010212Y012701D01*
X010212Y012755D02*
X009716Y012755D01*
X009716Y012809D02*
X010212Y012809D01*
X010212Y012863D02*
X009716Y012863D01*
X009716Y012917D02*
X010212Y012917D01*
X010212Y012971D02*
X009716Y012971D01*
X009716Y013025D02*
X010212Y013025D01*
X010212Y013079D02*
X009716Y013079D01*
X009716Y013133D02*
X010212Y013133D01*
X007488Y013153D02*
X007488Y012107D01*
X007488Y013153D02*
X007984Y013153D01*
X007984Y012107D01*
X007488Y012107D01*
X007488Y012161D02*
X007984Y012161D01*
X007984Y012215D02*
X007488Y012215D01*
X007488Y012269D02*
X007984Y012269D01*
X007984Y012323D02*
X007488Y012323D01*
X007488Y012377D02*
X007984Y012377D01*
X007984Y012431D02*
X007488Y012431D01*
X007488Y012485D02*
X007984Y012485D01*
X007984Y012539D02*
X007488Y012539D01*
X007488Y012593D02*
X007984Y012593D01*
X007984Y012647D02*
X007488Y012647D01*
X007488Y012701D02*
X007984Y012701D01*
X007984Y012755D02*
X007488Y012755D01*
X007488Y012809D02*
X007984Y012809D01*
X007984Y012863D02*
X007488Y012863D01*
X007488Y012917D02*
X007984Y012917D01*
X007984Y012971D02*
X007488Y012971D01*
X007488Y013025D02*
X007984Y013025D01*
X007984Y013079D02*
X007488Y013079D01*
X007488Y013133D02*
X007984Y013133D01*
X005716Y013153D02*
X005716Y012107D01*
X005716Y013153D02*
X006212Y013153D01*
X006212Y012107D01*
X005716Y012107D01*
X005716Y012161D02*
X006212Y012161D01*
X006212Y012215D02*
X005716Y012215D01*
X005716Y012269D02*
X006212Y012269D01*
X006212Y012323D02*
X005716Y012323D01*
X005716Y012377D02*
X006212Y012377D01*
X006212Y012431D02*
X005716Y012431D01*
X005716Y012485D02*
X006212Y012485D01*
X006212Y012539D02*
X005716Y012539D01*
X005716Y012593D02*
X006212Y012593D01*
X006212Y012647D02*
X005716Y012647D01*
X005716Y012701D02*
X006212Y012701D01*
X006212Y012755D02*
X005716Y012755D01*
X005716Y012809D02*
X006212Y012809D01*
X006212Y012863D02*
X005716Y012863D01*
X005716Y012917D02*
X006212Y012917D01*
X006212Y012971D02*
X005716Y012971D01*
X005716Y013025D02*
X006212Y013025D01*
X006212Y013079D02*
X005716Y013079D01*
X005716Y013133D02*
X006212Y013133D01*
X005716Y014207D02*
X005716Y015253D01*
X006212Y015253D01*
X006212Y014207D01*
X005716Y014207D01*
X005716Y014261D02*
X006212Y014261D01*
X006212Y014315D02*
X005716Y014315D01*
X005716Y014369D02*
X006212Y014369D01*
X006212Y014423D02*
X005716Y014423D01*
X005716Y014477D02*
X006212Y014477D01*
X006212Y014531D02*
X005716Y014531D01*
X005716Y014585D02*
X006212Y014585D01*
X006212Y014639D02*
X005716Y014639D01*
X005716Y014693D02*
X006212Y014693D01*
X006212Y014747D02*
X005716Y014747D01*
X005716Y014801D02*
X006212Y014801D01*
X006212Y014855D02*
X005716Y014855D01*
X005716Y014909D02*
X006212Y014909D01*
X006212Y014963D02*
X005716Y014963D01*
X005716Y015017D02*
X006212Y015017D01*
X006212Y015071D02*
X005716Y015071D01*
X005716Y015125D02*
X006212Y015125D01*
X006212Y015179D02*
X005716Y015179D01*
X005716Y015233D02*
X006212Y015233D01*
X007488Y015253D02*
X007488Y014207D01*
X007488Y015253D02*
X007984Y015253D01*
X007984Y014207D01*
X007488Y014207D01*
X007488Y014261D02*
X007984Y014261D01*
X007984Y014315D02*
X007488Y014315D01*
X007488Y014369D02*
X007984Y014369D01*
X007984Y014423D02*
X007488Y014423D01*
X007488Y014477D02*
X007984Y014477D01*
X007984Y014531D02*
X007488Y014531D01*
X007488Y014585D02*
X007984Y014585D01*
X007984Y014639D02*
X007488Y014639D01*
X007488Y014693D02*
X007984Y014693D01*
X007984Y014747D02*
X007488Y014747D01*
X007488Y014801D02*
X007984Y014801D01*
X007984Y014855D02*
X007488Y014855D01*
X007488Y014909D02*
X007984Y014909D01*
X007984Y014963D02*
X007488Y014963D01*
X007488Y015017D02*
X007984Y015017D01*
X007984Y015071D02*
X007488Y015071D01*
X007488Y015125D02*
X007984Y015125D01*
X007984Y015179D02*
X007488Y015179D01*
X007488Y015233D02*
X007984Y015233D01*
X009716Y015253D02*
X009716Y014207D01*
X009716Y015253D02*
X010212Y015253D01*
X010212Y014207D01*
X009716Y014207D01*
X009716Y014261D02*
X010212Y014261D01*
X010212Y014315D02*
X009716Y014315D01*
X009716Y014369D02*
X010212Y014369D01*
X010212Y014423D02*
X009716Y014423D01*
X009716Y014477D02*
X010212Y014477D01*
X010212Y014531D02*
X009716Y014531D01*
X009716Y014585D02*
X010212Y014585D01*
X010212Y014639D02*
X009716Y014639D01*
X009716Y014693D02*
X010212Y014693D01*
X010212Y014747D02*
X009716Y014747D01*
X009716Y014801D02*
X010212Y014801D01*
X010212Y014855D02*
X009716Y014855D01*
X009716Y014909D02*
X010212Y014909D01*
X010212Y014963D02*
X009716Y014963D01*
X009716Y015017D02*
X010212Y015017D01*
X010212Y015071D02*
X009716Y015071D01*
X009716Y015125D02*
X010212Y015125D01*
X010212Y015179D02*
X009716Y015179D01*
X009716Y015233D02*
X010212Y015233D01*
X011488Y015253D02*
X011488Y014207D01*
X011488Y015253D02*
X011984Y015253D01*
X011984Y014207D01*
X011488Y014207D01*
X011488Y014261D02*
X011984Y014261D01*
X011984Y014315D02*
X011488Y014315D01*
X011488Y014369D02*
X011984Y014369D01*
X011984Y014423D02*
X011488Y014423D01*
X011488Y014477D02*
X011984Y014477D01*
X011984Y014531D02*
X011488Y014531D01*
X011488Y014585D02*
X011984Y014585D01*
X011984Y014639D02*
X011488Y014639D01*
X011488Y014693D02*
X011984Y014693D01*
X011984Y014747D02*
X011488Y014747D01*
X011488Y014801D02*
X011984Y014801D01*
X011984Y014855D02*
X011488Y014855D01*
X011488Y014909D02*
X011984Y014909D01*
X011984Y014963D02*
X011488Y014963D01*
X011488Y015017D02*
X011984Y015017D01*
X011984Y015071D02*
X011488Y015071D01*
X011488Y015125D02*
X011984Y015125D01*
X011984Y015179D02*
X011488Y015179D01*
X011488Y015233D02*
X011984Y015233D01*
X013716Y015253D02*
X013716Y014207D01*
X013716Y015253D02*
X014212Y015253D01*
X014212Y014207D01*
X013716Y014207D01*
X013716Y014261D02*
X014212Y014261D01*
X014212Y014315D02*
X013716Y014315D01*
X013716Y014369D02*
X014212Y014369D01*
X014212Y014423D02*
X013716Y014423D01*
X013716Y014477D02*
X014212Y014477D01*
X014212Y014531D02*
X013716Y014531D01*
X013716Y014585D02*
X014212Y014585D01*
X014212Y014639D02*
X013716Y014639D01*
X013716Y014693D02*
X014212Y014693D01*
X014212Y014747D02*
X013716Y014747D01*
X013716Y014801D02*
X014212Y014801D01*
X014212Y014855D02*
X013716Y014855D01*
X013716Y014909D02*
X014212Y014909D01*
X014212Y014963D02*
X013716Y014963D01*
X013716Y015017D02*
X014212Y015017D01*
X014212Y015071D02*
X013716Y015071D01*
X013716Y015125D02*
X014212Y015125D01*
X014212Y015179D02*
X013716Y015179D01*
X013716Y015233D02*
X014212Y015233D01*
X015488Y015253D02*
X015488Y014207D01*
X015488Y015253D02*
X015984Y015253D01*
X015984Y014207D01*
X015488Y014207D01*
X015488Y014261D02*
X015984Y014261D01*
X015984Y014315D02*
X015488Y014315D01*
X015488Y014369D02*
X015984Y014369D01*
X015984Y014423D02*
X015488Y014423D01*
X015488Y014477D02*
X015984Y014477D01*
X015984Y014531D02*
X015488Y014531D01*
X015488Y014585D02*
X015984Y014585D01*
X015984Y014639D02*
X015488Y014639D01*
X015488Y014693D02*
X015984Y014693D01*
X015984Y014747D02*
X015488Y014747D01*
X015488Y014801D02*
X015984Y014801D01*
X015984Y014855D02*
X015488Y014855D01*
X015488Y014909D02*
X015984Y014909D01*
X015984Y014963D02*
X015488Y014963D01*
X015488Y015017D02*
X015984Y015017D01*
X015984Y015071D02*
X015488Y015071D01*
X015488Y015125D02*
X015984Y015125D01*
X015984Y015179D02*
X015488Y015179D01*
X015488Y015233D02*
X015984Y015233D01*
X017716Y015253D02*
X017716Y014207D01*
X017716Y015253D02*
X018212Y015253D01*
X018212Y014207D01*
X017716Y014207D01*
X017716Y014261D02*
X018212Y014261D01*
X018212Y014315D02*
X017716Y014315D01*
X017716Y014369D02*
X018212Y014369D01*
X018212Y014423D02*
X017716Y014423D01*
X017716Y014477D02*
X018212Y014477D01*
X018212Y014531D02*
X017716Y014531D01*
X017716Y014585D02*
X018212Y014585D01*
X018212Y014639D02*
X017716Y014639D01*
X017716Y014693D02*
X018212Y014693D01*
X018212Y014747D02*
X017716Y014747D01*
X017716Y014801D02*
X018212Y014801D01*
X018212Y014855D02*
X017716Y014855D01*
X017716Y014909D02*
X018212Y014909D01*
X018212Y014963D02*
X017716Y014963D01*
X017716Y015017D02*
X018212Y015017D01*
X018212Y015071D02*
X017716Y015071D01*
X017716Y015125D02*
X018212Y015125D01*
X018212Y015179D02*
X017716Y015179D01*
X017716Y015233D02*
X018212Y015233D01*
X019488Y015253D02*
X019488Y014207D01*
X019488Y015253D02*
X019984Y015253D01*
X019984Y014207D01*
X019488Y014207D01*
X019488Y014261D02*
X019984Y014261D01*
X019984Y014315D02*
X019488Y014315D01*
X019488Y014369D02*
X019984Y014369D01*
X019984Y014423D02*
X019488Y014423D01*
X019488Y014477D02*
X019984Y014477D01*
X019984Y014531D02*
X019488Y014531D01*
X019488Y014585D02*
X019984Y014585D01*
X019984Y014639D02*
X019488Y014639D01*
X019488Y014693D02*
X019984Y014693D01*
X019984Y014747D02*
X019488Y014747D01*
X019488Y014801D02*
X019984Y014801D01*
X019984Y014855D02*
X019488Y014855D01*
X019488Y014909D02*
X019984Y014909D01*
X019984Y014963D02*
X019488Y014963D01*
X019488Y015017D02*
X019984Y015017D01*
X019984Y015071D02*
X019488Y015071D01*
X019488Y015125D02*
X019984Y015125D01*
X019984Y015179D02*
X019488Y015179D01*
X019488Y015233D02*
X019984Y015233D01*
X019488Y016107D02*
X019488Y017153D01*
X019984Y017153D01*
X019984Y016107D01*
X019488Y016107D01*
X019488Y016161D02*
X019984Y016161D01*
X019984Y016215D02*
X019488Y016215D01*
X019488Y016269D02*
X019984Y016269D01*
X019984Y016323D02*
X019488Y016323D01*
X019488Y016377D02*
X019984Y016377D01*
X019984Y016431D02*
X019488Y016431D01*
X019488Y016485D02*
X019984Y016485D01*
X019984Y016539D02*
X019488Y016539D01*
X019488Y016593D02*
X019984Y016593D01*
X019984Y016647D02*
X019488Y016647D01*
X019488Y016701D02*
X019984Y016701D01*
X019984Y016755D02*
X019488Y016755D01*
X019488Y016809D02*
X019984Y016809D01*
X019984Y016863D02*
X019488Y016863D01*
X019488Y016917D02*
X019984Y016917D01*
X019984Y016971D02*
X019488Y016971D01*
X019488Y017025D02*
X019984Y017025D01*
X019984Y017079D02*
X019488Y017079D01*
X019488Y017133D02*
X019984Y017133D01*
X017716Y017153D02*
X017716Y016107D01*
X017716Y017153D02*
X018212Y017153D01*
X018212Y016107D01*
X017716Y016107D01*
X017716Y016161D02*
X018212Y016161D01*
X018212Y016215D02*
X017716Y016215D01*
X017716Y016269D02*
X018212Y016269D01*
X018212Y016323D02*
X017716Y016323D01*
X017716Y016377D02*
X018212Y016377D01*
X018212Y016431D02*
X017716Y016431D01*
X017716Y016485D02*
X018212Y016485D01*
X018212Y016539D02*
X017716Y016539D01*
X017716Y016593D02*
X018212Y016593D01*
X018212Y016647D02*
X017716Y016647D01*
X017716Y016701D02*
X018212Y016701D01*
X018212Y016755D02*
X017716Y016755D01*
X017716Y016809D02*
X018212Y016809D01*
X018212Y016863D02*
X017716Y016863D01*
X017716Y016917D02*
X018212Y016917D01*
X018212Y016971D02*
X017716Y016971D01*
X017716Y017025D02*
X018212Y017025D01*
X018212Y017079D02*
X017716Y017079D01*
X017716Y017133D02*
X018212Y017133D01*
X015488Y017153D02*
X015488Y016107D01*
X015488Y017153D02*
X015984Y017153D01*
X015984Y016107D01*
X015488Y016107D01*
X015488Y016161D02*
X015984Y016161D01*
X015984Y016215D02*
X015488Y016215D01*
X015488Y016269D02*
X015984Y016269D01*
X015984Y016323D02*
X015488Y016323D01*
X015488Y016377D02*
X015984Y016377D01*
X015984Y016431D02*
X015488Y016431D01*
X015488Y016485D02*
X015984Y016485D01*
X015984Y016539D02*
X015488Y016539D01*
X015488Y016593D02*
X015984Y016593D01*
X015984Y016647D02*
X015488Y016647D01*
X015488Y016701D02*
X015984Y016701D01*
X015984Y016755D02*
X015488Y016755D01*
X015488Y016809D02*
X015984Y016809D01*
X015984Y016863D02*
X015488Y016863D01*
X015488Y016917D02*
X015984Y016917D01*
X015984Y016971D02*
X015488Y016971D01*
X015488Y017025D02*
X015984Y017025D01*
X015984Y017079D02*
X015488Y017079D01*
X015488Y017133D02*
X015984Y017133D01*
X013716Y017153D02*
X013716Y016107D01*
X013716Y017153D02*
X014212Y017153D01*
X014212Y016107D01*
X013716Y016107D01*
X013716Y016161D02*
X014212Y016161D01*
X014212Y016215D02*
X013716Y016215D01*
X013716Y016269D02*
X014212Y016269D01*
X014212Y016323D02*
X013716Y016323D01*
X013716Y016377D02*
X014212Y016377D01*
X014212Y016431D02*
X013716Y016431D01*
X013716Y016485D02*
X014212Y016485D01*
X014212Y016539D02*
X013716Y016539D01*
X013716Y016593D02*
X014212Y016593D01*
X014212Y016647D02*
X013716Y016647D01*
X013716Y016701D02*
X014212Y016701D01*
X014212Y016755D02*
X013716Y016755D01*
X013716Y016809D02*
X014212Y016809D01*
X014212Y016863D02*
X013716Y016863D01*
X013716Y016917D02*
X014212Y016917D01*
X014212Y016971D02*
X013716Y016971D01*
X013716Y017025D02*
X014212Y017025D01*
X014212Y017079D02*
X013716Y017079D01*
X013716Y017133D02*
X014212Y017133D01*
X011488Y017153D02*
X011488Y016107D01*
X011488Y017153D02*
X011984Y017153D01*
X011984Y016107D01*
X011488Y016107D01*
X011488Y016161D02*
X011984Y016161D01*
X011984Y016215D02*
X011488Y016215D01*
X011488Y016269D02*
X011984Y016269D01*
X011984Y016323D02*
X011488Y016323D01*
X011488Y016377D02*
X011984Y016377D01*
X011984Y016431D02*
X011488Y016431D01*
X011488Y016485D02*
X011984Y016485D01*
X011984Y016539D02*
X011488Y016539D01*
X011488Y016593D02*
X011984Y016593D01*
X011984Y016647D02*
X011488Y016647D01*
X011488Y016701D02*
X011984Y016701D01*
X011984Y016755D02*
X011488Y016755D01*
X011488Y016809D02*
X011984Y016809D01*
X011984Y016863D02*
X011488Y016863D01*
X011488Y016917D02*
X011984Y016917D01*
X011984Y016971D02*
X011488Y016971D01*
X011488Y017025D02*
X011984Y017025D01*
X011984Y017079D02*
X011488Y017079D01*
X011488Y017133D02*
X011984Y017133D01*
X009716Y017153D02*
X009716Y016107D01*
X009716Y017153D02*
X010212Y017153D01*
X010212Y016107D01*
X009716Y016107D01*
X009716Y016161D02*
X010212Y016161D01*
X010212Y016215D02*
X009716Y016215D01*
X009716Y016269D02*
X010212Y016269D01*
X010212Y016323D02*
X009716Y016323D01*
X009716Y016377D02*
X010212Y016377D01*
X010212Y016431D02*
X009716Y016431D01*
X009716Y016485D02*
X010212Y016485D01*
X010212Y016539D02*
X009716Y016539D01*
X009716Y016593D02*
X010212Y016593D01*
X010212Y016647D02*
X009716Y016647D01*
X009716Y016701D02*
X010212Y016701D01*
X010212Y016755D02*
X009716Y016755D01*
X009716Y016809D02*
X010212Y016809D01*
X010212Y016863D02*
X009716Y016863D01*
X009716Y016917D02*
X010212Y016917D01*
X010212Y016971D02*
X009716Y016971D01*
X009716Y017025D02*
X010212Y017025D01*
X010212Y017079D02*
X009716Y017079D01*
X009716Y017133D02*
X010212Y017133D01*
X007488Y017153D02*
X007488Y016107D01*
X007488Y017153D02*
X007984Y017153D01*
X007984Y016107D01*
X007488Y016107D01*
X007488Y016161D02*
X007984Y016161D01*
X007984Y016215D02*
X007488Y016215D01*
X007488Y016269D02*
X007984Y016269D01*
X007984Y016323D02*
X007488Y016323D01*
X007488Y016377D02*
X007984Y016377D01*
X007984Y016431D02*
X007488Y016431D01*
X007488Y016485D02*
X007984Y016485D01*
X007984Y016539D02*
X007488Y016539D01*
X007488Y016593D02*
X007984Y016593D01*
X007984Y016647D02*
X007488Y016647D01*
X007488Y016701D02*
X007984Y016701D01*
X007984Y016755D02*
X007488Y016755D01*
X007488Y016809D02*
X007984Y016809D01*
X007984Y016863D02*
X007488Y016863D01*
X007488Y016917D02*
X007984Y016917D01*
X007984Y016971D02*
X007488Y016971D01*
X007488Y017025D02*
X007984Y017025D01*
X007984Y017079D02*
X007488Y017079D01*
X007488Y017133D02*
X007984Y017133D01*
X005716Y017153D02*
X005716Y016107D01*
X005716Y017153D02*
X006212Y017153D01*
X006212Y016107D01*
X005716Y016107D01*
X005716Y016161D02*
X006212Y016161D01*
X006212Y016215D02*
X005716Y016215D01*
X005716Y016269D02*
X006212Y016269D01*
X006212Y016323D02*
X005716Y016323D01*
X005716Y016377D02*
X006212Y016377D01*
X006212Y016431D02*
X005716Y016431D01*
X005716Y016485D02*
X006212Y016485D01*
X006212Y016539D02*
X005716Y016539D01*
X005716Y016593D02*
X006212Y016593D01*
X006212Y016647D02*
X005716Y016647D01*
X005716Y016701D02*
X006212Y016701D01*
X006212Y016755D02*
X005716Y016755D01*
X005716Y016809D02*
X006212Y016809D01*
X006212Y016863D02*
X005716Y016863D01*
X005716Y016917D02*
X006212Y016917D01*
X006212Y016971D02*
X005716Y016971D01*
X005716Y017025D02*
X006212Y017025D01*
X006212Y017079D02*
X005716Y017079D01*
X005716Y017133D02*
X006212Y017133D01*
X022966Y017153D02*
X022966Y016107D01*
X022966Y017153D02*
X023462Y017153D01*
X023462Y016107D01*
X022966Y016107D01*
X022966Y016161D02*
X023462Y016161D01*
X023462Y016215D02*
X022966Y016215D01*
X022966Y016269D02*
X023462Y016269D01*
X023462Y016323D02*
X022966Y016323D01*
X022966Y016377D02*
X023462Y016377D01*
X023462Y016431D02*
X022966Y016431D01*
X022966Y016485D02*
X023462Y016485D01*
X023462Y016539D02*
X022966Y016539D01*
X022966Y016593D02*
X023462Y016593D01*
X023462Y016647D02*
X022966Y016647D01*
X022966Y016701D02*
X023462Y016701D01*
X023462Y016755D02*
X022966Y016755D01*
X022966Y016809D02*
X023462Y016809D01*
X023462Y016863D02*
X022966Y016863D01*
X022966Y016917D02*
X023462Y016917D01*
X023462Y016971D02*
X022966Y016971D01*
X022966Y017025D02*
X023462Y017025D01*
X023462Y017079D02*
X022966Y017079D01*
X022966Y017133D02*
X023462Y017133D01*
X024738Y017153D02*
X024738Y016107D01*
X024738Y017153D02*
X025234Y017153D01*
X025234Y016107D01*
X024738Y016107D01*
X024738Y016161D02*
X025234Y016161D01*
X025234Y016215D02*
X024738Y016215D01*
X024738Y016269D02*
X025234Y016269D01*
X025234Y016323D02*
X024738Y016323D01*
X024738Y016377D02*
X025234Y016377D01*
X025234Y016431D02*
X024738Y016431D01*
X024738Y016485D02*
X025234Y016485D01*
X025234Y016539D02*
X024738Y016539D01*
X024738Y016593D02*
X025234Y016593D01*
X025234Y016647D02*
X024738Y016647D01*
X024738Y016701D02*
X025234Y016701D01*
X025234Y016755D02*
X024738Y016755D01*
X024738Y016809D02*
X025234Y016809D01*
X025234Y016863D02*
X024738Y016863D01*
X024738Y016917D02*
X025234Y016917D01*
X025234Y016971D02*
X024738Y016971D01*
X024738Y017025D02*
X025234Y017025D01*
X025234Y017079D02*
X024738Y017079D01*
X024738Y017133D02*
X025234Y017133D01*
X024738Y015253D02*
X024738Y014207D01*
X024738Y015253D02*
X025234Y015253D01*
X025234Y014207D01*
X024738Y014207D01*
X024738Y014261D02*
X025234Y014261D01*
X025234Y014315D02*
X024738Y014315D01*
X024738Y014369D02*
X025234Y014369D01*
X025234Y014423D02*
X024738Y014423D01*
X024738Y014477D02*
X025234Y014477D01*
X025234Y014531D02*
X024738Y014531D01*
X024738Y014585D02*
X025234Y014585D01*
X025234Y014639D02*
X024738Y014639D01*
X024738Y014693D02*
X025234Y014693D01*
X025234Y014747D02*
X024738Y014747D01*
X024738Y014801D02*
X025234Y014801D01*
X025234Y014855D02*
X024738Y014855D01*
X024738Y014909D02*
X025234Y014909D01*
X025234Y014963D02*
X024738Y014963D01*
X024738Y015017D02*
X025234Y015017D01*
X025234Y015071D02*
X024738Y015071D01*
X024738Y015125D02*
X025234Y015125D01*
X025234Y015179D02*
X024738Y015179D01*
X024738Y015233D02*
X025234Y015233D01*
X022966Y015253D02*
X022966Y014207D01*
X022966Y015253D02*
X023462Y015253D01*
X023462Y014207D01*
X022966Y014207D01*
X022966Y014261D02*
X023462Y014261D01*
X023462Y014315D02*
X022966Y014315D01*
X022966Y014369D02*
X023462Y014369D01*
X023462Y014423D02*
X022966Y014423D01*
X022966Y014477D02*
X023462Y014477D01*
X023462Y014531D02*
X022966Y014531D01*
X022966Y014585D02*
X023462Y014585D01*
X023462Y014639D02*
X022966Y014639D01*
X022966Y014693D02*
X023462Y014693D01*
X023462Y014747D02*
X022966Y014747D01*
X022966Y014801D02*
X023462Y014801D01*
X023462Y014855D02*
X022966Y014855D01*
X022966Y014909D02*
X023462Y014909D01*
X023462Y014963D02*
X022966Y014963D01*
X022966Y015017D02*
X023462Y015017D01*
X023462Y015071D02*
X022966Y015071D01*
X022966Y015125D02*
X023462Y015125D01*
X023462Y015179D02*
X022966Y015179D01*
X022966Y015233D02*
X023462Y015233D01*
X022966Y009153D02*
X022966Y008107D01*
X022966Y009153D02*
X023462Y009153D01*
X023462Y008107D01*
X022966Y008107D01*
X022966Y008161D02*
X023462Y008161D01*
X023462Y008215D02*
X022966Y008215D01*
X022966Y008269D02*
X023462Y008269D01*
X023462Y008323D02*
X022966Y008323D01*
X022966Y008377D02*
X023462Y008377D01*
X023462Y008431D02*
X022966Y008431D01*
X022966Y008485D02*
X023462Y008485D01*
X023462Y008539D02*
X022966Y008539D01*
X022966Y008593D02*
X023462Y008593D01*
X023462Y008647D02*
X022966Y008647D01*
X022966Y008701D02*
X023462Y008701D01*
X023462Y008755D02*
X022966Y008755D01*
X022966Y008809D02*
X023462Y008809D01*
X023462Y008863D02*
X022966Y008863D01*
X022966Y008917D02*
X023462Y008917D01*
X023462Y008971D02*
X022966Y008971D01*
X022966Y009025D02*
X023462Y009025D01*
X023462Y009079D02*
X022966Y009079D01*
X022966Y009133D02*
X023462Y009133D01*
X024738Y009153D02*
X024738Y008107D01*
X024738Y009153D02*
X025234Y009153D01*
X025234Y008107D01*
X024738Y008107D01*
X024738Y008161D02*
X025234Y008161D01*
X025234Y008215D02*
X024738Y008215D01*
X024738Y008269D02*
X025234Y008269D01*
X025234Y008323D02*
X024738Y008323D01*
X024738Y008377D02*
X025234Y008377D01*
X025234Y008431D02*
X024738Y008431D01*
X024738Y008485D02*
X025234Y008485D01*
X025234Y008539D02*
X024738Y008539D01*
X024738Y008593D02*
X025234Y008593D01*
X025234Y008647D02*
X024738Y008647D01*
X024738Y008701D02*
X025234Y008701D01*
X025234Y008755D02*
X024738Y008755D01*
X024738Y008809D02*
X025234Y008809D01*
X025234Y008863D02*
X024738Y008863D01*
X024738Y008917D02*
X025234Y008917D01*
X025234Y008971D02*
X024738Y008971D01*
X024738Y009025D02*
X025234Y009025D01*
X025234Y009079D02*
X024738Y009079D01*
X024738Y009133D02*
X025234Y009133D01*
X024738Y007253D02*
X024738Y006207D01*
X024738Y007253D02*
X025234Y007253D01*
X025234Y006207D01*
X024738Y006207D01*
X024738Y006261D02*
X025234Y006261D01*
X025234Y006315D02*
X024738Y006315D01*
X024738Y006369D02*
X025234Y006369D01*
X025234Y006423D02*
X024738Y006423D01*
X024738Y006477D02*
X025234Y006477D01*
X025234Y006531D02*
X024738Y006531D01*
X024738Y006585D02*
X025234Y006585D01*
X025234Y006639D02*
X024738Y006639D01*
X024738Y006693D02*
X025234Y006693D01*
X025234Y006747D02*
X024738Y006747D01*
X024738Y006801D02*
X025234Y006801D01*
X025234Y006855D02*
X024738Y006855D01*
X024738Y006909D02*
X025234Y006909D01*
X025234Y006963D02*
X024738Y006963D01*
X024738Y007017D02*
X025234Y007017D01*
X025234Y007071D02*
X024738Y007071D01*
X024738Y007125D02*
X025234Y007125D01*
X025234Y007179D02*
X024738Y007179D01*
X024738Y007233D02*
X025234Y007233D01*
X022966Y007253D02*
X022966Y006207D01*
X022966Y007253D02*
X023462Y007253D01*
X023462Y006207D01*
X022966Y006207D01*
X022966Y006261D02*
X023462Y006261D01*
X023462Y006315D02*
X022966Y006315D01*
X022966Y006369D02*
X023462Y006369D01*
X023462Y006423D02*
X022966Y006423D01*
X022966Y006477D02*
X023462Y006477D01*
X023462Y006531D02*
X022966Y006531D01*
X022966Y006585D02*
X023462Y006585D01*
X023462Y006639D02*
X022966Y006639D01*
X022966Y006693D02*
X023462Y006693D01*
X023462Y006747D02*
X022966Y006747D01*
X022966Y006801D02*
X023462Y006801D01*
X023462Y006855D02*
X022966Y006855D01*
X022966Y006909D02*
X023462Y006909D01*
X023462Y006963D02*
X022966Y006963D01*
X022966Y007017D02*
X023462Y007017D01*
X023462Y007071D02*
X022966Y007071D01*
X022966Y007125D02*
X023462Y007125D01*
X023462Y007179D02*
X022966Y007179D01*
X022966Y007233D02*
X023462Y007233D01*
X046604Y007678D02*
X047100Y007678D01*
X047100Y007182D01*
X046604Y007182D01*
X046604Y007678D01*
X046604Y007236D02*
X047100Y007236D01*
X047100Y007290D02*
X046604Y007290D01*
X046604Y007344D02*
X047100Y007344D01*
X047100Y007398D02*
X046604Y007398D01*
X046604Y007452D02*
X047100Y007452D01*
X047100Y007506D02*
X046604Y007506D01*
X046604Y007560D02*
X047100Y007560D01*
X047100Y007614D02*
X046604Y007614D01*
X046604Y007668D02*
X047100Y007668D01*
X048100Y007678D02*
X048596Y007678D01*
X048596Y007182D01*
X048100Y007182D01*
X048100Y007678D01*
X048100Y007236D02*
X048596Y007236D01*
X048596Y007290D02*
X048100Y007290D01*
X048100Y007344D02*
X048596Y007344D01*
X048596Y007398D02*
X048100Y007398D01*
X048100Y007452D02*
X048596Y007452D01*
X048596Y007506D02*
X048100Y007506D01*
X048100Y007560D02*
X048596Y007560D01*
X048596Y007614D02*
X048100Y007614D01*
X048100Y007668D02*
X048596Y007668D01*
D16*
X044474Y008180D03*
X044474Y009180D03*
X044474Y010180D03*
X044474Y011180D03*
X044474Y012180D03*
X044474Y013180D03*
X044474Y014180D03*
X044474Y015180D03*
X028726Y015180D03*
X028726Y014180D03*
X028726Y013180D03*
X028726Y012180D03*
X028726Y011180D03*
X028726Y010180D03*
X028726Y009180D03*
X028726Y008180D03*
D17*
X046381Y006625D02*
X046851Y006625D01*
X046851Y006235D01*
X046381Y006235D01*
X046381Y006625D01*
X046381Y006277D02*
X046851Y006277D01*
X046851Y006319D02*
X046381Y006319D01*
X046381Y006361D02*
X046851Y006361D01*
X046851Y006403D02*
X046381Y006403D01*
X046381Y006445D02*
X046851Y006445D01*
X046851Y006487D02*
X046381Y006487D01*
X046381Y006529D02*
X046851Y006529D01*
X046851Y006571D02*
X046381Y006571D01*
X046381Y006613D02*
X046851Y006613D01*
X048349Y006625D02*
X048819Y006625D01*
X048819Y006235D01*
X048349Y006235D01*
X048349Y006625D01*
X048349Y006277D02*
X048819Y006277D01*
X048819Y006319D02*
X048349Y006319D01*
X048349Y006361D02*
X048819Y006361D01*
X048819Y006403D02*
X048349Y006403D01*
X048349Y006445D02*
X048819Y006445D01*
X048819Y006487D02*
X048349Y006487D01*
X048349Y006529D02*
X048819Y006529D01*
X048819Y006571D02*
X048349Y006571D01*
X048349Y006613D02*
X048819Y006613D01*
X048819Y005247D02*
X048349Y005247D01*
X048819Y005247D02*
X048819Y004857D01*
X048349Y004857D01*
X048349Y005247D01*
X048349Y004899D02*
X048819Y004899D01*
X048819Y004941D02*
X048349Y004941D01*
X048349Y004983D02*
X048819Y004983D01*
X048819Y005025D02*
X048349Y005025D01*
X048349Y005067D02*
X048819Y005067D01*
X048819Y005109D02*
X048349Y005109D01*
X048349Y005151D02*
X048819Y005151D01*
X048819Y005193D02*
X048349Y005193D01*
X048349Y005235D02*
X048819Y005235D01*
D18*
X047439Y004082D02*
X047439Y003726D01*
X046927Y003726D01*
X046927Y004082D01*
X047439Y004082D01*
X047439Y003764D02*
X046927Y003764D01*
X046927Y003802D02*
X047439Y003802D01*
X047439Y003840D02*
X046927Y003840D01*
X046927Y003878D02*
X047439Y003878D01*
X047439Y003916D02*
X046927Y003916D01*
X046927Y003954D02*
X047439Y003954D01*
X047439Y003992D02*
X046927Y003992D01*
X046927Y004030D02*
X047439Y004030D01*
X047439Y004068D02*
X046927Y004068D01*
X046573Y003708D02*
X046573Y003352D01*
X046061Y003352D01*
X046061Y003708D01*
X046573Y003708D01*
X046573Y003390D02*
X046061Y003390D01*
X046061Y003428D02*
X046573Y003428D01*
X046573Y003466D02*
X046061Y003466D01*
X046061Y003504D02*
X046573Y003504D01*
X046573Y003542D02*
X046061Y003542D01*
X046061Y003580D02*
X046573Y003580D01*
X046573Y003618D02*
X046061Y003618D01*
X046061Y003656D02*
X046573Y003656D01*
X046573Y003694D02*
X046061Y003694D01*
X047439Y003334D02*
X047439Y002978D01*
X046927Y002978D01*
X046927Y003334D01*
X047439Y003334D01*
X047439Y003016D02*
X046927Y003016D01*
X046927Y003054D02*
X047439Y003054D01*
X047439Y003092D02*
X046927Y003092D01*
X046927Y003130D02*
X047439Y003130D01*
X047439Y003168D02*
X046927Y003168D01*
X046927Y003206D02*
X047439Y003206D01*
X047439Y003244D02*
X046927Y003244D01*
X046927Y003282D02*
X047439Y003282D01*
X047439Y003320D02*
X046927Y003320D01*
X008451Y019523D02*
X008451Y020469D01*
X008609Y020469D01*
X008609Y019523D01*
X008451Y019523D01*
X008451Y019561D02*
X008609Y019561D01*
X008609Y019599D02*
X008451Y019599D01*
X008451Y019637D02*
X008609Y019637D01*
X008609Y019675D02*
X008451Y019675D01*
X008451Y019713D02*
X008609Y019713D01*
X008609Y019751D02*
X008451Y019751D01*
X008451Y019789D02*
X008609Y019789D01*
X008609Y019827D02*
X008451Y019827D01*
X008451Y019865D02*
X008609Y019865D01*
X008609Y019903D02*
X008451Y019903D01*
X008451Y019941D02*
X008609Y019941D01*
X008609Y019979D02*
X008451Y019979D01*
X008451Y020017D02*
X008609Y020017D01*
X008609Y020055D02*
X008451Y020055D01*
X008451Y020093D02*
X008609Y020093D01*
X008609Y020131D02*
X008451Y020131D01*
X008451Y020169D02*
X008609Y020169D01*
X008609Y020207D02*
X008451Y020207D01*
X008451Y020245D02*
X008609Y020245D01*
X008609Y020283D02*
X008451Y020283D01*
X008451Y020321D02*
X008609Y020321D01*
X008609Y020359D02*
X008451Y020359D01*
X008451Y020397D02*
X008609Y020397D01*
X008609Y020435D02*
X008451Y020435D01*
X008136Y020469D02*
X008136Y019523D01*
X008136Y020469D02*
X008294Y020469D01*
X008294Y019523D01*
X008136Y019523D01*
X008136Y019561D02*
X008294Y019561D01*
X008294Y019599D02*
X008136Y019599D01*
X008136Y019637D02*
X008294Y019637D01*
X008294Y019675D02*
X008136Y019675D01*
X008136Y019713D02*
X008294Y019713D01*
X008294Y019751D02*
X008136Y019751D01*
X008136Y019789D02*
X008294Y019789D01*
X008294Y019827D02*
X008136Y019827D01*
X008136Y019865D02*
X008294Y019865D01*
X008294Y019903D02*
X008136Y019903D01*
X008136Y019941D02*
X008294Y019941D01*
X008294Y019979D02*
X008136Y019979D01*
X008136Y020017D02*
X008294Y020017D01*
X008294Y020055D02*
X008136Y020055D01*
X008136Y020093D02*
X008294Y020093D01*
X008294Y020131D02*
X008136Y020131D01*
X008136Y020169D02*
X008294Y020169D01*
X008294Y020207D02*
X008136Y020207D01*
X008136Y020245D02*
X008294Y020245D01*
X008294Y020283D02*
X008136Y020283D01*
X008136Y020321D02*
X008294Y020321D01*
X008294Y020359D02*
X008136Y020359D01*
X008136Y020397D02*
X008294Y020397D01*
X008294Y020435D02*
X008136Y020435D01*
X007821Y020469D02*
X007821Y019523D01*
X007821Y020469D02*
X007979Y020469D01*
X007979Y019523D01*
X007821Y019523D01*
X007821Y019561D02*
X007979Y019561D01*
X007979Y019599D02*
X007821Y019599D01*
X007821Y019637D02*
X007979Y019637D01*
X007979Y019675D02*
X007821Y019675D01*
X007821Y019713D02*
X007979Y019713D01*
X007979Y019751D02*
X007821Y019751D01*
X007821Y019789D02*
X007979Y019789D01*
X007979Y019827D02*
X007821Y019827D01*
X007821Y019865D02*
X007979Y019865D01*
X007979Y019903D02*
X007821Y019903D01*
X007821Y019941D02*
X007979Y019941D01*
X007979Y019979D02*
X007821Y019979D01*
X007821Y020017D02*
X007979Y020017D01*
X007979Y020055D02*
X007821Y020055D01*
X007821Y020093D02*
X007979Y020093D01*
X007979Y020131D02*
X007821Y020131D01*
X007821Y020169D02*
X007979Y020169D01*
X007979Y020207D02*
X007821Y020207D01*
X007821Y020245D02*
X007979Y020245D01*
X007979Y020283D02*
X007821Y020283D01*
X007821Y020321D02*
X007979Y020321D01*
X007979Y020359D02*
X007821Y020359D01*
X007821Y020397D02*
X007979Y020397D01*
X007979Y020435D02*
X007821Y020435D01*
X007506Y020469D02*
X007506Y019523D01*
X007506Y020469D02*
X007664Y020469D01*
X007664Y019523D01*
X007506Y019523D01*
X007506Y019561D02*
X007664Y019561D01*
X007664Y019599D02*
X007506Y019599D01*
X007506Y019637D02*
X007664Y019637D01*
X007664Y019675D02*
X007506Y019675D01*
X007506Y019713D02*
X007664Y019713D01*
X007664Y019751D02*
X007506Y019751D01*
X007506Y019789D02*
X007664Y019789D01*
X007664Y019827D02*
X007506Y019827D01*
X007506Y019865D02*
X007664Y019865D01*
X007664Y019903D02*
X007506Y019903D01*
X007506Y019941D02*
X007664Y019941D01*
X007664Y019979D02*
X007506Y019979D01*
X007506Y020017D02*
X007664Y020017D01*
X007664Y020055D02*
X007506Y020055D01*
X007506Y020093D02*
X007664Y020093D01*
X007664Y020131D02*
X007506Y020131D01*
X007506Y020169D02*
X007664Y020169D01*
X007664Y020207D02*
X007506Y020207D01*
X007506Y020245D02*
X007664Y020245D01*
X007664Y020283D02*
X007506Y020283D01*
X007506Y020321D02*
X007664Y020321D01*
X007664Y020359D02*
X007506Y020359D01*
X007506Y020397D02*
X007664Y020397D01*
X007664Y020435D02*
X007506Y020435D01*
X007191Y020469D02*
X007191Y019523D01*
X007191Y020469D02*
X007349Y020469D01*
X007349Y019523D01*
X007191Y019523D01*
X007191Y019561D02*
X007349Y019561D01*
X007349Y019599D02*
X007191Y019599D01*
X007191Y019637D02*
X007349Y019637D01*
X007349Y019675D02*
X007191Y019675D01*
X007191Y019713D02*
X007349Y019713D01*
X007349Y019751D02*
X007191Y019751D01*
X007191Y019789D02*
X007349Y019789D01*
X007349Y019827D02*
X007191Y019827D01*
X007191Y019865D02*
X007349Y019865D01*
X007349Y019903D02*
X007191Y019903D01*
X007191Y019941D02*
X007349Y019941D01*
X007349Y019979D02*
X007191Y019979D01*
X007191Y020017D02*
X007349Y020017D01*
X007349Y020055D02*
X007191Y020055D01*
X007191Y020093D02*
X007349Y020093D01*
X007349Y020131D02*
X007191Y020131D01*
X007191Y020169D02*
X007349Y020169D01*
X007349Y020207D02*
X007191Y020207D01*
X007191Y020245D02*
X007349Y020245D01*
X007349Y020283D02*
X007191Y020283D01*
X007191Y020321D02*
X007349Y020321D01*
X007349Y020359D02*
X007191Y020359D01*
X007191Y020397D02*
X007349Y020397D01*
X007349Y020435D02*
X007191Y020435D01*
D19*
X012177Y020463D02*
X012177Y019895D01*
X012177Y020463D02*
X012823Y020463D01*
X012823Y019895D01*
X012177Y019895D01*
X012177Y019957D02*
X012823Y019957D01*
X012823Y020019D02*
X012177Y020019D01*
X012177Y020081D02*
X012823Y020081D01*
X012823Y020143D02*
X012177Y020143D01*
X012177Y020205D02*
X012823Y020205D01*
X012823Y020267D02*
X012177Y020267D01*
X012177Y020329D02*
X012823Y020329D01*
X012823Y020391D02*
X012177Y020391D01*
X012177Y020453D02*
X012823Y020453D01*
X012177Y020997D02*
X012177Y021565D01*
X012823Y021565D01*
X012823Y020997D01*
X012177Y020997D01*
X012177Y021059D02*
X012823Y021059D01*
X012823Y021121D02*
X012177Y021121D01*
X012177Y021183D02*
X012823Y021183D01*
X012823Y021245D02*
X012177Y021245D01*
X012177Y021307D02*
X012823Y021307D01*
X012823Y021369D02*
X012177Y021369D01*
X012177Y021431D02*
X012823Y021431D01*
X012823Y021493D02*
X012177Y021493D01*
X012177Y021555D02*
X012823Y021555D01*
X013556Y019854D02*
X014124Y019854D01*
X014124Y019206D01*
X013556Y019206D01*
X013556Y019854D01*
X013556Y019268D02*
X014124Y019268D01*
X014124Y019330D02*
X013556Y019330D01*
X013556Y019392D02*
X014124Y019392D01*
X014124Y019454D02*
X013556Y019454D01*
X013556Y019516D02*
X014124Y019516D01*
X014124Y019578D02*
X013556Y019578D01*
X013556Y019640D02*
X014124Y019640D01*
X014124Y019702D02*
X013556Y019702D01*
X013556Y019764D02*
X014124Y019764D01*
X014124Y019826D02*
X013556Y019826D01*
X014676Y019854D02*
X015244Y019854D01*
X015244Y019206D01*
X014676Y019206D01*
X014676Y019854D01*
X014676Y019268D02*
X015244Y019268D01*
X015244Y019330D02*
X014676Y019330D01*
X014676Y019392D02*
X015244Y019392D01*
X015244Y019454D02*
X014676Y019454D01*
X014676Y019516D02*
X015244Y019516D01*
X015244Y019578D02*
X014676Y019578D01*
X014676Y019640D02*
X015244Y019640D01*
X015244Y019702D02*
X014676Y019702D01*
X014676Y019764D02*
X015244Y019764D01*
X015244Y019826D02*
X014676Y019826D01*
X015576Y019874D02*
X015576Y019306D01*
X015576Y019874D02*
X016224Y019874D01*
X016224Y019306D01*
X015576Y019306D01*
X015576Y019368D02*
X016224Y019368D01*
X016224Y019430D02*
X015576Y019430D01*
X015576Y019492D02*
X016224Y019492D01*
X016224Y019554D02*
X015576Y019554D01*
X015576Y019616D02*
X016224Y019616D01*
X016224Y019678D02*
X015576Y019678D01*
X015576Y019740D02*
X016224Y019740D01*
X016224Y019802D02*
X015576Y019802D01*
X015576Y019864D02*
X016224Y019864D01*
X017277Y019795D02*
X017277Y020363D01*
X017923Y020363D01*
X017923Y019795D01*
X017277Y019795D01*
X017277Y019857D02*
X017923Y019857D01*
X017923Y019919D02*
X017277Y019919D01*
X017277Y019981D02*
X017923Y019981D01*
X017923Y020043D02*
X017277Y020043D01*
X017277Y020105D02*
X017923Y020105D01*
X017923Y020167D02*
X017277Y020167D01*
X017277Y020229D02*
X017923Y020229D01*
X017923Y020291D02*
X017277Y020291D01*
X017277Y020353D02*
X017923Y020353D01*
X017277Y020897D02*
X017277Y021465D01*
X017923Y021465D01*
X017923Y020897D01*
X017277Y020897D01*
X017277Y020959D02*
X017923Y020959D01*
X017923Y021021D02*
X017277Y021021D01*
X017277Y021083D02*
X017923Y021083D01*
X017923Y021145D02*
X017277Y021145D01*
X017277Y021207D02*
X017923Y021207D01*
X017923Y021269D02*
X017277Y021269D01*
X017277Y021331D02*
X017923Y021331D01*
X017923Y021393D02*
X017277Y021393D01*
X017277Y021455D02*
X017923Y021455D01*
X015576Y018754D02*
X015576Y018186D01*
X015576Y018754D02*
X016224Y018754D01*
X016224Y018186D01*
X015576Y018186D01*
X015576Y018248D02*
X016224Y018248D01*
X016224Y018310D02*
X015576Y018310D01*
X015576Y018372D02*
X016224Y018372D01*
X016224Y018434D02*
X015576Y018434D01*
X015576Y018496D02*
X016224Y018496D01*
X016224Y018558D02*
X015576Y018558D01*
X015576Y018620D02*
X016224Y018620D01*
X016224Y018682D02*
X015576Y018682D01*
X015576Y018744D02*
X016224Y018744D01*
X015244Y018156D02*
X014676Y018156D01*
X014676Y018804D01*
X015244Y018804D01*
X015244Y018156D01*
X015244Y018218D02*
X014676Y018218D01*
X014676Y018280D02*
X015244Y018280D01*
X015244Y018342D02*
X014676Y018342D01*
X014676Y018404D02*
X015244Y018404D01*
X015244Y018466D02*
X014676Y018466D01*
X014676Y018528D02*
X015244Y018528D01*
X015244Y018590D02*
X014676Y018590D01*
X014676Y018652D02*
X015244Y018652D01*
X015244Y018714D02*
X014676Y018714D01*
X014676Y018776D02*
X015244Y018776D01*
X014124Y018156D02*
X013556Y018156D01*
X013556Y018804D01*
X014124Y018804D01*
X014124Y018156D01*
X014124Y018218D02*
X013556Y018218D01*
X013556Y018280D02*
X014124Y018280D01*
X014124Y018342D02*
X013556Y018342D01*
X013556Y018404D02*
X014124Y018404D01*
X014124Y018466D02*
X013556Y018466D01*
X013556Y018528D02*
X014124Y018528D01*
X014124Y018590D02*
X013556Y018590D01*
X013556Y018652D02*
X014124Y018652D01*
X014124Y018714D02*
X013556Y018714D01*
X013556Y018776D02*
X014124Y018776D01*
X005123Y014515D02*
X005123Y013947D01*
X004477Y013947D01*
X004477Y014515D01*
X005123Y014515D01*
X005123Y014009D02*
X004477Y014009D01*
X004477Y014071D02*
X005123Y014071D01*
X005123Y014133D02*
X004477Y014133D01*
X004477Y014195D02*
X005123Y014195D01*
X005123Y014257D02*
X004477Y014257D01*
X004477Y014319D02*
X005123Y014319D01*
X005123Y014381D02*
X004477Y014381D01*
X004477Y014443D02*
X005123Y014443D01*
X005123Y014505D02*
X004477Y014505D01*
X004223Y014515D02*
X004223Y013947D01*
X003577Y013947D01*
X003577Y014515D01*
X004223Y014515D01*
X004223Y014009D02*
X003577Y014009D01*
X003577Y014071D02*
X004223Y014071D01*
X004223Y014133D02*
X003577Y014133D01*
X003577Y014195D02*
X004223Y014195D01*
X004223Y014257D02*
X003577Y014257D01*
X003577Y014319D02*
X004223Y014319D01*
X004223Y014381D02*
X003577Y014381D01*
X003577Y014443D02*
X004223Y014443D01*
X004223Y014505D02*
X003577Y014505D01*
X004223Y013413D02*
X004223Y012845D01*
X003577Y012845D01*
X003577Y013413D01*
X004223Y013413D01*
X004223Y012907D02*
X003577Y012907D01*
X003577Y012969D02*
X004223Y012969D01*
X004223Y013031D02*
X003577Y013031D01*
X003577Y013093D02*
X004223Y013093D01*
X004223Y013155D02*
X003577Y013155D01*
X003577Y013217D02*
X004223Y013217D01*
X004223Y013279D02*
X003577Y013279D01*
X003577Y013341D02*
X004223Y013341D01*
X004223Y013403D02*
X003577Y013403D01*
X005123Y013413D02*
X005123Y012845D01*
X004477Y012845D01*
X004477Y013413D01*
X005123Y013413D01*
X005123Y012907D02*
X004477Y012907D01*
X004477Y012969D02*
X005123Y012969D01*
X005123Y013031D02*
X004477Y013031D01*
X004477Y013093D02*
X005123Y013093D01*
X005123Y013155D02*
X004477Y013155D01*
X004477Y013217D02*
X005123Y013217D01*
X005123Y013279D02*
X004477Y013279D01*
X004477Y013341D02*
X005123Y013341D01*
X005123Y013403D02*
X004477Y013403D01*
X005123Y012515D02*
X005123Y011947D01*
X004477Y011947D01*
X004477Y012515D01*
X005123Y012515D01*
X005123Y012009D02*
X004477Y012009D01*
X004477Y012071D02*
X005123Y012071D01*
X005123Y012133D02*
X004477Y012133D01*
X004477Y012195D02*
X005123Y012195D01*
X005123Y012257D02*
X004477Y012257D01*
X004477Y012319D02*
X005123Y012319D01*
X005123Y012381D02*
X004477Y012381D01*
X004477Y012443D02*
X005123Y012443D01*
X005123Y012505D02*
X004477Y012505D01*
X004223Y012515D02*
X004223Y011947D01*
X003577Y011947D01*
X003577Y012515D01*
X004223Y012515D01*
X004223Y012009D02*
X003577Y012009D01*
X003577Y012071D02*
X004223Y012071D01*
X004223Y012133D02*
X003577Y012133D01*
X003577Y012195D02*
X004223Y012195D01*
X004223Y012257D02*
X003577Y012257D01*
X003577Y012319D02*
X004223Y012319D01*
X004223Y012381D02*
X003577Y012381D01*
X003577Y012443D02*
X004223Y012443D01*
X004223Y012505D02*
X003577Y012505D01*
X004223Y011413D02*
X004223Y010845D01*
X003577Y010845D01*
X003577Y011413D01*
X004223Y011413D01*
X004223Y010907D02*
X003577Y010907D01*
X003577Y010969D02*
X004223Y010969D01*
X004223Y011031D02*
X003577Y011031D01*
X003577Y011093D02*
X004223Y011093D01*
X004223Y011155D02*
X003577Y011155D01*
X003577Y011217D02*
X004223Y011217D01*
X004223Y011279D02*
X003577Y011279D01*
X003577Y011341D02*
X004223Y011341D01*
X004223Y011403D02*
X003577Y011403D01*
X005123Y011413D02*
X005123Y010845D01*
X004477Y010845D01*
X004477Y011413D01*
X005123Y011413D01*
X005123Y010907D02*
X004477Y010907D01*
X004477Y010969D02*
X005123Y010969D01*
X005123Y011031D02*
X004477Y011031D01*
X004477Y011093D02*
X005123Y011093D01*
X005123Y011155D02*
X004477Y011155D01*
X004477Y011217D02*
X005123Y011217D01*
X005123Y011279D02*
X004477Y011279D01*
X004477Y011341D02*
X005123Y011341D01*
X005123Y011403D02*
X004477Y011403D01*
X005123Y010515D02*
X005123Y009947D01*
X004477Y009947D01*
X004477Y010515D01*
X005123Y010515D01*
X005123Y010009D02*
X004477Y010009D01*
X004477Y010071D02*
X005123Y010071D01*
X005123Y010133D02*
X004477Y010133D01*
X004477Y010195D02*
X005123Y010195D01*
X005123Y010257D02*
X004477Y010257D01*
X004477Y010319D02*
X005123Y010319D01*
X005123Y010381D02*
X004477Y010381D01*
X004477Y010443D02*
X005123Y010443D01*
X005123Y010505D02*
X004477Y010505D01*
X004223Y010515D02*
X004223Y009947D01*
X003577Y009947D01*
X003577Y010515D01*
X004223Y010515D01*
X004223Y010009D02*
X003577Y010009D01*
X003577Y010071D02*
X004223Y010071D01*
X004223Y010133D02*
X003577Y010133D01*
X003577Y010195D02*
X004223Y010195D01*
X004223Y010257D02*
X003577Y010257D01*
X003577Y010319D02*
X004223Y010319D01*
X004223Y010381D02*
X003577Y010381D01*
X003577Y010443D02*
X004223Y010443D01*
X004223Y010505D02*
X003577Y010505D01*
X004223Y009413D02*
X004223Y008845D01*
X003577Y008845D01*
X003577Y009413D01*
X004223Y009413D01*
X004223Y008907D02*
X003577Y008907D01*
X003577Y008969D02*
X004223Y008969D01*
X004223Y009031D02*
X003577Y009031D01*
X003577Y009093D02*
X004223Y009093D01*
X004223Y009155D02*
X003577Y009155D01*
X003577Y009217D02*
X004223Y009217D01*
X004223Y009279D02*
X003577Y009279D01*
X003577Y009341D02*
X004223Y009341D01*
X004223Y009403D02*
X003577Y009403D01*
X005123Y009413D02*
X005123Y008845D01*
X004477Y008845D01*
X004477Y009413D01*
X005123Y009413D01*
X005123Y008907D02*
X004477Y008907D01*
X004477Y008969D02*
X005123Y008969D01*
X005123Y009031D02*
X004477Y009031D01*
X004477Y009093D02*
X005123Y009093D01*
X005123Y009155D02*
X004477Y009155D01*
X004477Y009217D02*
X005123Y009217D01*
X005123Y009279D02*
X004477Y009279D01*
X004477Y009341D02*
X005123Y009341D01*
X005123Y009403D02*
X004477Y009403D01*
X048126Y004324D02*
X048126Y003756D01*
X048126Y004324D02*
X048774Y004324D01*
X048774Y003756D01*
X048126Y003756D01*
X048126Y003818D02*
X048774Y003818D01*
X048774Y003880D02*
X048126Y003880D01*
X048126Y003942D02*
X048774Y003942D01*
X048774Y004004D02*
X048126Y004004D01*
X048126Y004066D02*
X048774Y004066D01*
X048774Y004128D02*
X048126Y004128D01*
X048126Y004190D02*
X048774Y004190D01*
X048774Y004252D02*
X048126Y004252D01*
X048126Y004314D02*
X048774Y004314D01*
X048126Y003204D02*
X048126Y002636D01*
X048126Y003204D02*
X048774Y003204D01*
X048774Y002636D01*
X048126Y002636D01*
X048126Y002698D02*
X048774Y002698D01*
X048774Y002760D02*
X048126Y002760D01*
X048126Y002822D02*
X048774Y002822D01*
X048774Y002884D02*
X048126Y002884D01*
X048126Y002946D02*
X048774Y002946D01*
X048774Y003008D02*
X048126Y003008D01*
X048126Y003070D02*
X048774Y003070D01*
X048774Y003132D02*
X048126Y003132D01*
X048126Y003194D02*
X048774Y003194D01*
D20*
X016079Y020217D02*
X016079Y020395D01*
X016079Y020217D02*
X015645Y020217D01*
X015645Y020395D01*
X016079Y020395D01*
X016079Y020255D02*
X015645Y020255D01*
X015645Y020293D02*
X016079Y020293D01*
X016079Y020331D02*
X015645Y020331D01*
X015645Y020369D02*
X016079Y020369D01*
X016079Y020591D02*
X016079Y020769D01*
X016079Y020591D02*
X015645Y020591D01*
X015645Y020769D01*
X016079Y020769D01*
X016079Y020629D02*
X015645Y020629D01*
X015645Y020667D02*
X016079Y020667D01*
X016079Y020705D02*
X015645Y020705D01*
X015645Y020743D02*
X016079Y020743D01*
X016079Y020965D02*
X016079Y021143D01*
X016079Y020965D02*
X015645Y020965D01*
X015645Y021143D01*
X016079Y021143D01*
X016079Y021003D02*
X015645Y021003D01*
X015645Y021041D02*
X016079Y021041D01*
X016079Y021079D02*
X015645Y021079D01*
X015645Y021117D02*
X016079Y021117D01*
X015055Y021143D02*
X015055Y020965D01*
X014621Y020965D01*
X014621Y021143D01*
X015055Y021143D01*
X015055Y021003D02*
X014621Y021003D01*
X014621Y021041D02*
X015055Y021041D01*
X015055Y021079D02*
X014621Y021079D01*
X014621Y021117D02*
X015055Y021117D01*
X015055Y020395D02*
X015055Y020217D01*
X014621Y020217D01*
X014621Y020395D01*
X015055Y020395D01*
X015055Y020255D02*
X014621Y020255D01*
X014621Y020293D02*
X015055Y020293D01*
X015055Y020331D02*
X014621Y020331D01*
X014621Y020369D02*
X015055Y020369D01*
D21*
X009318Y020449D02*
X009318Y019543D01*
X009318Y020449D02*
X010026Y020449D01*
X010026Y019543D01*
X009318Y019543D01*
X009318Y019621D02*
X010026Y019621D01*
X010026Y019699D02*
X009318Y019699D01*
X009318Y019777D02*
X010026Y019777D01*
X010026Y019855D02*
X009318Y019855D01*
X009318Y019933D02*
X010026Y019933D01*
X010026Y020011D02*
X009318Y020011D01*
X009318Y020089D02*
X010026Y020089D01*
X010026Y020167D02*
X009318Y020167D01*
X009318Y020245D02*
X010026Y020245D01*
X010026Y020323D02*
X009318Y020323D01*
X009318Y020401D02*
X010026Y020401D01*
X009318Y021708D02*
X009318Y022614D01*
X010026Y022614D01*
X010026Y021708D01*
X009318Y021708D01*
X009318Y021786D02*
X010026Y021786D01*
X010026Y021864D02*
X009318Y021864D01*
X009318Y021942D02*
X010026Y021942D01*
X010026Y022020D02*
X009318Y022020D01*
X009318Y022098D02*
X010026Y022098D01*
X010026Y022176D02*
X009318Y022176D01*
X009318Y022254D02*
X010026Y022254D01*
X010026Y022332D02*
X009318Y022332D01*
X009318Y022410D02*
X010026Y022410D01*
X010026Y022488D02*
X009318Y022488D01*
X009318Y022566D02*
X010026Y022566D01*
X005774Y022614D02*
X005774Y021708D01*
X005774Y022614D02*
X006482Y022614D01*
X006482Y021708D01*
X005774Y021708D01*
X005774Y021786D02*
X006482Y021786D01*
X006482Y021864D02*
X005774Y021864D01*
X005774Y021942D02*
X006482Y021942D01*
X006482Y022020D02*
X005774Y022020D01*
X005774Y022098D02*
X006482Y022098D01*
X006482Y022176D02*
X005774Y022176D01*
X005774Y022254D02*
X006482Y022254D01*
X006482Y022332D02*
X005774Y022332D01*
X005774Y022410D02*
X006482Y022410D01*
X006482Y022488D02*
X005774Y022488D01*
X005774Y022566D02*
X006482Y022566D01*
X005774Y020449D02*
X005774Y019543D01*
X005774Y020449D02*
X006482Y020449D01*
X006482Y019543D01*
X005774Y019543D01*
X005774Y019621D02*
X006482Y019621D01*
X006482Y019699D02*
X005774Y019699D01*
X005774Y019777D02*
X006482Y019777D01*
X006482Y019855D02*
X005774Y019855D01*
X005774Y019933D02*
X006482Y019933D01*
X006482Y020011D02*
X005774Y020011D01*
X005774Y020089D02*
X006482Y020089D01*
X006482Y020167D02*
X005774Y020167D01*
X005774Y020245D02*
X006482Y020245D01*
X006482Y020323D02*
X005774Y020323D01*
X005774Y020401D02*
X006482Y020401D01*
D22*
X039700Y021850D02*
X039700Y022210D01*
X040700Y022210D02*
X040700Y021850D01*
X041700Y021850D02*
X041700Y022210D01*
X042700Y022210D02*
X042700Y021850D01*
X043700Y021850D02*
X043700Y022210D01*
X047420Y018930D02*
X047780Y018930D01*
X047780Y017930D02*
X047420Y017930D01*
X047420Y016930D02*
X047780Y016930D01*
X047780Y015930D02*
X047420Y015930D01*
X047420Y014930D02*
X047780Y014930D01*
X047780Y013930D02*
X047420Y013930D01*
D23*
X045600Y015930D03*
X042950Y015680D03*
X042050Y015780D03*
X039100Y017680D03*
X041100Y017930D03*
X037900Y016430D03*
X037250Y016630D03*
X037000Y017180D03*
X036300Y019630D03*
X036750Y020080D03*
X035950Y020480D03*
X037050Y020880D03*
X037800Y020980D03*
X037300Y021680D03*
X036250Y021880D03*
X035700Y022330D03*
X040850Y019930D03*
X050100Y019680D03*
X036100Y013430D03*
X033350Y013430D03*
X036100Y011930D03*
X036100Y011180D03*
X029550Y011730D03*
X029600Y012680D03*
X022200Y013680D03*
X020650Y013680D03*
X020650Y014780D03*
X022200Y014780D03*
X013150Y018480D03*
X013100Y019430D03*
X013200Y020180D03*
X013850Y020280D03*
X013600Y021680D03*
X014600Y021680D03*
X016100Y021930D03*
X017100Y021930D03*
X018100Y021930D03*
X018100Y022680D03*
X017100Y022680D03*
X016100Y022680D03*
X014600Y022680D03*
X013600Y022680D03*
X012100Y022680D03*
X011850Y021930D03*
X010650Y020080D03*
X016850Y020130D03*
X016850Y019430D03*
X017600Y019430D03*
X002300Y013180D03*
X001706Y012054D03*
X001706Y011306D03*
X003100Y010180D03*
X031200Y002180D03*
X049100Y008680D03*
D24*
X047754Y011180D02*
X047446Y011180D01*
X047446Y012180D02*
X047754Y012180D01*
D25*
X048406Y008994D02*
X048406Y008366D01*
X048132Y008366D01*
X048132Y008994D01*
X048406Y008994D01*
X048406Y008406D02*
X048132Y008406D01*
X048132Y008446D02*
X048406Y008446D01*
X048406Y008486D02*
X048132Y008486D01*
X048132Y008526D02*
X048406Y008526D01*
X048406Y008566D02*
X048132Y008566D01*
X048132Y008606D02*
X048406Y008606D01*
X048406Y008646D02*
X048132Y008646D01*
X048132Y008686D02*
X048406Y008686D01*
X048406Y008726D02*
X048132Y008726D01*
X048132Y008766D02*
X048406Y008766D01*
X048406Y008806D02*
X048132Y008806D01*
X048132Y008846D02*
X048406Y008846D01*
X048406Y008886D02*
X048132Y008886D01*
X048132Y008926D02*
X048406Y008926D01*
X048406Y008966D02*
X048132Y008966D01*
X047068Y008994D02*
X047068Y008366D01*
X046794Y008366D01*
X046794Y008994D01*
X047068Y008994D01*
X047068Y008406D02*
X046794Y008406D01*
X046794Y008446D02*
X047068Y008446D01*
X047068Y008486D02*
X046794Y008486D01*
X046794Y008526D02*
X047068Y008526D01*
X047068Y008566D02*
X046794Y008566D01*
X046794Y008606D02*
X047068Y008606D01*
X047068Y008646D02*
X046794Y008646D01*
X046794Y008686D02*
X047068Y008686D01*
X047068Y008726D02*
X046794Y008726D01*
X046794Y008766D02*
X047068Y008766D01*
X047068Y008806D02*
X046794Y008806D01*
X046794Y008846D02*
X047068Y008846D01*
X047068Y008886D02*
X046794Y008886D01*
X046794Y008926D02*
X047068Y008926D01*
X047068Y008966D02*
X046794Y008966D01*
D26*
X046931Y008898D02*
X046931Y008898D01*
X046931Y009056D02*
X046931Y009056D01*
X046931Y009195D02*
X046767Y009195D01*
X046716Y009181D01*
X046671Y009155D01*
X046640Y009124D01*
X046640Y010890D01*
X047032Y010890D01*
X047164Y010758D01*
X047347Y010683D01*
X047853Y010683D01*
X048036Y010758D01*
X048176Y010898D01*
X048252Y011081D01*
X048252Y011279D01*
X048176Y011462D01*
X048036Y011602D01*
X047853Y011677D01*
X047347Y011677D01*
X047164Y011602D01*
X047032Y011470D01*
X046292Y011470D01*
X046186Y011426D01*
X046140Y011380D01*
X046140Y011890D01*
X047032Y011890D01*
X047164Y011758D01*
X047347Y011683D01*
X047853Y011683D01*
X048036Y011758D01*
X048176Y011898D01*
X048252Y012081D01*
X048252Y012279D01*
X048176Y012462D01*
X048036Y012602D01*
X047853Y012677D01*
X047347Y012677D01*
X047164Y012602D01*
X047032Y012470D01*
X045792Y012470D01*
X045686Y012426D01*
X045604Y012344D01*
X045560Y012238D01*
X045560Y009550D01*
X044980Y008970D01*
X044968Y008970D01*
X045011Y009073D01*
X045011Y009287D01*
X044929Y009484D01*
X044778Y009635D01*
X044670Y009680D01*
X044778Y009725D01*
X044929Y009876D01*
X045011Y010073D01*
X045011Y010287D01*
X044929Y010484D01*
X044778Y010635D01*
X044670Y010680D01*
X044778Y010725D01*
X044929Y010876D01*
X045011Y011073D01*
X045011Y011287D01*
X044929Y011484D01*
X044778Y011635D01*
X044670Y011680D01*
X044778Y011725D01*
X044929Y011876D01*
X045011Y012073D01*
X045011Y012287D01*
X044929Y012484D01*
X044778Y012635D01*
X044670Y012680D01*
X044778Y012725D01*
X044929Y012876D01*
X045011Y013073D01*
X045011Y013287D01*
X044929Y013484D01*
X044778Y013635D01*
X044586Y013715D01*
X044657Y013738D01*
X044724Y013772D01*
X044785Y013816D01*
X044838Y013869D01*
X044882Y013930D01*
X044916Y013997D01*
X044939Y014068D01*
X044951Y014142D01*
X044951Y014162D01*
X044492Y014162D01*
X044492Y014198D01*
X044951Y014198D01*
X044951Y014218D01*
X044943Y014267D01*
X046274Y012953D01*
X046319Y012909D01*
X046320Y012908D01*
X046320Y012908D01*
X046378Y012884D01*
X046436Y012860D01*
X044913Y012860D01*
X044988Y013019D02*
X046208Y013019D01*
X046048Y013177D02*
X045011Y013177D01*
X044991Y013336D02*
X045887Y013336D01*
X045726Y013494D02*
X044919Y013494D01*
X044736Y013653D02*
X045566Y013653D01*
X045405Y013811D02*
X044777Y013811D01*
X044902Y013970D02*
X045245Y013970D01*
X045084Y014128D02*
X044949Y014128D01*
X044456Y014162D02*
X043997Y014162D01*
X043997Y014142D01*
X044009Y014068D01*
X044032Y013997D01*
X044066Y013930D01*
X044110Y013869D01*
X044163Y013816D01*
X044224Y013772D01*
X044291Y013738D01*
X044362Y013715D01*
X044362Y013715D01*
X044170Y013635D01*
X044019Y013484D01*
X043937Y013287D01*
X043937Y013073D01*
X044019Y012876D01*
X044170Y012725D01*
X044278Y012680D01*
X044170Y012635D01*
X044019Y012484D01*
X043937Y012287D01*
X043937Y012073D01*
X044019Y011876D01*
X044170Y011725D01*
X044278Y011680D01*
X044170Y011635D01*
X044019Y011484D01*
X043937Y011287D01*
X043937Y011073D01*
X044019Y010876D01*
X044170Y010725D01*
X044278Y010680D01*
X044170Y010635D01*
X044019Y010484D01*
X043937Y010287D01*
X043937Y010073D01*
X044019Y009876D01*
X044170Y009725D01*
X044278Y009680D01*
X044170Y009635D01*
X044019Y009484D01*
X043937Y009287D01*
X043937Y009073D01*
X043980Y008970D01*
X039470Y008970D01*
X036558Y011882D01*
X036558Y012021D01*
X036509Y012140D01*
X036858Y012140D01*
X036964Y012184D01*
X037108Y012328D01*
X037108Y012231D01*
X037189Y012034D01*
X037340Y011883D01*
X037537Y011802D01*
X037750Y011802D01*
X037947Y011883D01*
X038098Y012034D01*
X038180Y012231D01*
X038180Y012444D01*
X038098Y012641D01*
X037947Y012792D01*
X037750Y012873D01*
X037654Y012873D01*
X038920Y014140D01*
X041758Y014140D01*
X041864Y014184D01*
X042902Y015222D01*
X043041Y015222D01*
X043209Y015292D01*
X043338Y015421D01*
X043408Y015589D01*
X043408Y015771D01*
X043359Y015890D01*
X045142Y015890D01*
X045142Y015839D01*
X045212Y015671D01*
X045341Y015542D01*
X045509Y015472D01*
X045691Y015472D01*
X045859Y015542D01*
X045988Y015671D01*
X046058Y015839D01*
X046058Y016021D01*
X045988Y016189D01*
X045859Y016318D01*
X045691Y016388D01*
X045552Y016388D01*
X045514Y016426D01*
X045408Y016470D01*
X042292Y016470D01*
X042186Y016426D01*
X042104Y016344D01*
X041998Y016238D01*
X041959Y016238D01*
X041791Y016168D01*
X041662Y016039D01*
X041592Y015871D01*
X041592Y015785D01*
X041574Y015770D01*
X041566Y015756D01*
X040780Y014970D01*
X038642Y014970D01*
X038536Y014926D01*
X038454Y014844D01*
X036630Y013020D01*
X036307Y013020D01*
X036359Y013042D01*
X036488Y013171D01*
X036558Y013339D01*
X036558Y013521D01*
X036488Y013689D01*
X036390Y013788D01*
X036390Y014510D01*
X037852Y015972D01*
X037991Y015972D01*
X038159Y016042D01*
X038288Y016171D01*
X038358Y016339D01*
X038358Y016521D01*
X038288Y016689D01*
X038159Y016818D01*
X037991Y016888D01*
X037809Y016888D01*
X037641Y016818D01*
X037512Y016689D01*
X037442Y016521D01*
X037442Y016382D01*
X035854Y014794D01*
X035810Y014688D01*
X035810Y013788D01*
X035712Y013689D01*
X035642Y013521D01*
X035642Y013339D01*
X035712Y013171D01*
X035841Y013042D01*
X035893Y013020D01*
X029908Y013020D01*
X029859Y013068D01*
X029691Y013138D01*
X029509Y013138D01*
X029341Y013068D01*
X029212Y012939D01*
X029142Y012771D01*
X029142Y012589D01*
X029212Y012421D01*
X029341Y012292D01*
X029509Y012222D01*
X029632Y012222D01*
X029598Y012188D01*
X029459Y012188D01*
X029291Y012118D01*
X029263Y012091D01*
X029263Y012287D01*
X029181Y012484D01*
X029030Y012635D01*
X028922Y012680D01*
X029030Y012725D01*
X029181Y012876D01*
X029263Y013073D01*
X029263Y013287D01*
X029181Y013484D01*
X029030Y013635D01*
X028922Y013680D01*
X029030Y013725D01*
X029181Y013876D01*
X029263Y014073D01*
X029263Y014287D01*
X029181Y014484D01*
X029030Y014635D01*
X028922Y014680D01*
X029030Y014725D01*
X029181Y014876D01*
X029263Y015073D01*
X029263Y015287D01*
X029181Y015484D01*
X029030Y015635D01*
X028833Y015717D01*
X028619Y015717D01*
X028540Y015684D01*
X028540Y018640D01*
X035560Y018640D01*
X035560Y018272D01*
X035604Y018166D01*
X036542Y017228D01*
X036542Y017089D01*
X036612Y016921D01*
X036741Y016792D01*
X036909Y016722D01*
X037091Y016722D01*
X037259Y016792D01*
X037388Y016921D01*
X037458Y017089D01*
X037458Y017271D01*
X037388Y017439D01*
X037259Y017568D01*
X037091Y017638D01*
X036952Y017638D01*
X036140Y018450D01*
X036140Y018988D01*
X036119Y019039D01*
X036252Y019172D01*
X036391Y019172D01*
X036559Y019242D01*
X036688Y019371D01*
X036758Y019539D01*
X036758Y019622D01*
X036841Y019622D01*
X037009Y019692D01*
X037138Y019821D01*
X037208Y019989D01*
X037208Y020171D01*
X037138Y020339D01*
X037056Y020422D01*
X037141Y020422D01*
X037309Y020492D01*
X037438Y020621D01*
X037460Y020672D01*
X037541Y020592D01*
X037709Y020522D01*
X037891Y020522D01*
X038059Y020592D01*
X038188Y020721D01*
X038258Y020889D01*
X038258Y021071D01*
X038188Y021239D01*
X038059Y021368D01*
X037891Y021438D01*
X037709Y021438D01*
X037693Y021431D01*
X037758Y021589D01*
X037758Y021771D01*
X037688Y021939D01*
X037559Y022068D01*
X037391Y022138D01*
X037209Y022138D01*
X037041Y022068D01*
X036912Y021939D01*
X036862Y021820D01*
X036708Y021820D01*
X036708Y021971D01*
X036638Y022139D01*
X036509Y022268D01*
X036341Y022338D01*
X036159Y022338D01*
X036158Y022338D01*
X036158Y022421D01*
X036088Y022589D01*
X035959Y022718D01*
X035791Y022788D01*
X035609Y022788D01*
X035441Y022718D01*
X035312Y022589D01*
X035242Y022421D01*
X035242Y022282D01*
X034180Y021220D01*
X026042Y021220D01*
X025936Y021176D01*
X025854Y021094D01*
X025810Y020988D01*
X025810Y019470D01*
X025542Y019470D01*
X025436Y019426D01*
X025354Y019344D01*
X024730Y018720D01*
X019100Y018720D01*
X019100Y020691D01*
X019179Y020691D01*
X019247Y020663D01*
X019453Y020663D01*
X019643Y020742D01*
X019788Y020887D01*
X019867Y021077D01*
X019867Y021283D01*
X019788Y021473D01*
X019643Y021618D01*
X019453Y021697D01*
X019247Y021697D01*
X019184Y021671D01*
X019100Y021671D01*
X019100Y022900D01*
X025416Y022900D01*
X025379Y022885D01*
X025145Y022651D01*
X025019Y022345D01*
X025019Y022015D01*
X025145Y021709D01*
X025379Y021475D01*
X025685Y021349D01*
X026015Y021349D01*
X026321Y021475D01*
X026555Y021709D01*
X026681Y022015D01*
X026681Y022345D01*
X026555Y022651D01*
X026321Y022885D01*
X026284Y022900D01*
X050166Y022900D01*
X050129Y022885D01*
X049895Y022651D01*
X049769Y022345D01*
X049769Y022075D01*
X049520Y022324D01*
X049313Y022324D01*
X049313Y021794D01*
X049843Y021794D01*
X049843Y021837D01*
X049895Y021709D01*
X050129Y021475D01*
X050435Y021349D01*
X050765Y021349D01*
X051071Y021475D01*
X051305Y021709D01*
X051320Y021746D01*
X051320Y001614D01*
X051305Y001651D01*
X051071Y001885D01*
X050765Y002011D01*
X050435Y002011D01*
X050129Y001885D01*
X049895Y001651D01*
X049769Y001345D01*
X049769Y001015D01*
X049895Y000709D01*
X050129Y000475D01*
X050166Y000460D01*
X026284Y000460D01*
X026321Y000475D01*
X026555Y000709D01*
X026681Y001015D01*
X026681Y001345D01*
X026555Y001651D01*
X026321Y001885D01*
X026015Y002011D01*
X025685Y002011D01*
X025379Y001885D01*
X025145Y001651D01*
X025019Y001345D01*
X025019Y001015D01*
X025145Y000709D01*
X025379Y000475D01*
X025416Y000460D01*
X019100Y000460D01*
X019100Y003002D01*
X019204Y003002D01*
X019204Y003162D01*
X019824Y003162D01*
X019817Y003220D01*
X019793Y003310D01*
X019757Y003395D01*
X019711Y003475D01*
X019655Y003548D01*
X019589Y003614D01*
X019516Y003670D01*
X019436Y003716D01*
X019351Y003751D01*
X019261Y003775D01*
X019204Y003783D01*
X019204Y003162D01*
X019100Y003162D01*
X019100Y005010D01*
X019204Y005010D01*
X019204Y005170D01*
X019824Y005170D01*
X019817Y005228D01*
X019793Y005317D01*
X019757Y005403D01*
X019711Y005483D01*
X019655Y005556D01*
X019589Y005621D01*
X019516Y005678D01*
X019436Y005724D01*
X019351Y005759D01*
X019261Y005783D01*
X019204Y005791D01*
X019204Y005170D01*
X019100Y005170D01*
X019100Y007270D01*
X019220Y007150D01*
X019220Y006154D01*
X019261Y006056D01*
X019336Y005981D01*
X019435Y005940D01*
X020037Y005940D01*
X020135Y005981D01*
X020211Y006056D01*
X020251Y006154D01*
X020251Y007306D01*
X020211Y007404D01*
X020135Y007479D01*
X020037Y007520D01*
X019670Y007520D01*
X019364Y007826D01*
X019258Y007870D01*
X019100Y007870D01*
X019100Y011270D01*
X019220Y011150D01*
X019220Y010154D01*
X019261Y010056D01*
X019336Y009981D01*
X019435Y009940D01*
X020037Y009940D01*
X020135Y009981D01*
X020211Y010056D01*
X020251Y010154D01*
X020251Y011306D01*
X020211Y011404D01*
X020135Y011479D01*
X020037Y011520D01*
X019670Y011520D01*
X019264Y011926D01*
X019158Y011970D01*
X019100Y011970D01*
X019100Y015270D01*
X019220Y015150D01*
X019220Y014154D01*
X019261Y014056D01*
X019336Y013981D01*
X019435Y013940D01*
X020037Y013940D01*
X020135Y013981D01*
X020211Y014056D01*
X020251Y014154D01*
X020251Y014545D01*
X020262Y014521D01*
X020391Y014392D01*
X020559Y014322D01*
X020741Y014322D01*
X020909Y014392D01*
X021008Y014490D01*
X021842Y014490D01*
X021941Y014392D01*
X022109Y014322D01*
X022291Y014322D01*
X022459Y014392D01*
X022460Y014392D01*
X022460Y014383D01*
X022455Y014343D01*
X022460Y014326D01*
X022460Y014068D01*
X022459Y014068D01*
X022291Y014138D01*
X022109Y014138D01*
X021941Y014068D01*
X021842Y013970D01*
X021008Y013970D01*
X020909Y014068D01*
X020741Y014138D01*
X020559Y014138D01*
X020391Y014068D01*
X020262Y013939D01*
X020192Y013771D01*
X020192Y013589D01*
X020262Y013421D01*
X020391Y013292D01*
X020559Y013222D01*
X020741Y013222D01*
X020909Y013292D01*
X021008Y013390D01*
X021340Y013390D01*
X021315Y013379D01*
X021239Y013304D01*
X021199Y013206D01*
X021199Y012054D01*
X021234Y011970D01*
X021220Y011970D01*
X020314Y012876D01*
X020251Y012902D01*
X020251Y013206D01*
X020211Y013304D01*
X020135Y013379D01*
X020037Y013420D01*
X019435Y013420D01*
X019336Y013379D01*
X019261Y013304D01*
X019220Y013206D01*
X019220Y012054D01*
X019261Y011956D01*
X019336Y011881D01*
X019435Y011840D01*
X020037Y011840D01*
X020135Y011881D01*
X020211Y011956D01*
X020251Y012054D01*
X020251Y012118D01*
X020854Y011516D01*
X020936Y011434D01*
X021042Y011390D01*
X021234Y011390D01*
X021199Y011306D01*
X021199Y010154D01*
X021239Y010056D01*
X021315Y009981D01*
X021413Y009940D01*
X021806Y009940D01*
X022095Y009538D01*
X022104Y009516D01*
X022128Y009492D01*
X022148Y009464D01*
X022169Y009451D01*
X022186Y009434D01*
X022217Y009421D01*
X022246Y009403D01*
X022263Y009400D01*
X022699Y008828D01*
X022699Y008054D01*
X022734Y007970D01*
X022470Y007970D01*
X021564Y008876D01*
X021458Y008920D01*
X020251Y008920D01*
X020251Y009206D01*
X020211Y009304D01*
X020135Y009379D01*
X020037Y009420D01*
X019435Y009420D01*
X019336Y009379D01*
X019261Y009304D01*
X019220Y009206D01*
X019220Y008054D01*
X019261Y007956D01*
X019336Y007881D01*
X019435Y007840D01*
X020037Y007840D01*
X020135Y007881D01*
X020211Y007956D01*
X020251Y008054D01*
X020251Y008340D01*
X021280Y008340D01*
X022104Y007516D01*
X022186Y007434D01*
X022292Y007390D01*
X022734Y007390D01*
X022699Y007306D01*
X022699Y006154D01*
X022739Y006056D01*
X022815Y005981D01*
X022913Y005940D01*
X023515Y005940D01*
X023614Y005981D01*
X023689Y006056D01*
X023730Y006154D01*
X023730Y007306D01*
X023695Y007390D01*
X023916Y007390D01*
X024470Y006835D01*
X024470Y006154D01*
X024511Y006056D01*
X024586Y005981D01*
X024685Y005940D01*
X025287Y005940D01*
X025385Y005981D01*
X025461Y006056D01*
X025501Y006154D01*
X025501Y007306D01*
X025461Y007404D01*
X025385Y007479D01*
X025287Y007520D01*
X024685Y007520D01*
X024629Y007497D01*
X024200Y007926D01*
X024094Y007970D01*
X023695Y007970D01*
X023730Y008054D01*
X023730Y009206D01*
X023689Y009304D01*
X023614Y009379D01*
X023515Y009420D01*
X022977Y009420D01*
X022668Y009826D01*
X022660Y009844D01*
X022633Y009871D01*
X022610Y009902D01*
X022593Y009912D01*
X022578Y009926D01*
X022543Y009940D01*
X022510Y009960D01*
X022506Y009960D01*
X022230Y010345D01*
X022230Y011306D01*
X022195Y011390D01*
X022416Y011390D01*
X022970Y010835D01*
X022970Y010154D01*
X023011Y010056D01*
X023086Y009981D01*
X023185Y009940D01*
X023787Y009940D01*
X023885Y009981D01*
X023961Y010056D01*
X024001Y010154D01*
X024001Y011306D01*
X023961Y011404D01*
X023885Y011479D01*
X023787Y011520D01*
X023185Y011520D01*
X023129Y011497D01*
X022700Y011926D01*
X022594Y011970D01*
X022195Y011970D01*
X022230Y012054D01*
X022230Y012340D01*
X022808Y012340D01*
X022914Y012384D01*
X022970Y012440D01*
X022970Y012054D01*
X023011Y011956D01*
X023086Y011881D01*
X023185Y011840D01*
X023530Y011840D01*
X023854Y011516D01*
X023936Y011434D01*
X024042Y011390D01*
X024234Y011390D01*
X024199Y011306D01*
X024199Y010154D01*
X024239Y010056D01*
X024315Y009981D01*
X024413Y009940D01*
X025015Y009940D01*
X025114Y009981D01*
X025189Y010056D01*
X025230Y010154D01*
X025230Y011306D01*
X025195Y011390D01*
X025416Y011390D01*
X025970Y010835D01*
X025970Y010154D01*
X026011Y010056D01*
X026086Y009981D01*
X026185Y009940D01*
X026787Y009940D01*
X026841Y009962D01*
X025490Y009232D01*
X025461Y009304D01*
X025385Y009379D01*
X025287Y009420D01*
X024685Y009420D01*
X024586Y009379D01*
X024511Y009304D01*
X024470Y009206D01*
X024470Y008054D01*
X024511Y007956D01*
X024586Y007881D01*
X024685Y007840D01*
X025287Y007840D01*
X025385Y007881D01*
X025461Y007956D01*
X025501Y008054D01*
X025501Y008579D01*
X028203Y010039D01*
X028271Y009876D01*
X028422Y009725D01*
X028530Y009680D01*
X028422Y009635D01*
X028271Y009484D01*
X028189Y009287D01*
X028189Y009073D01*
X028271Y008876D01*
X028422Y008725D01*
X028530Y008680D01*
X028422Y008635D01*
X028271Y008484D01*
X028189Y008287D01*
X028189Y008073D01*
X028271Y007876D01*
X028422Y007725D01*
X028619Y007643D01*
X028833Y007643D01*
X029030Y007725D01*
X029181Y007876D01*
X029263Y008073D01*
X029263Y008287D01*
X029181Y008484D01*
X029030Y008635D01*
X028922Y008680D01*
X029030Y008725D01*
X029181Y008876D01*
X029263Y009073D01*
X029263Y009287D01*
X029181Y009484D01*
X029030Y009635D01*
X028922Y009680D01*
X029030Y009725D01*
X029181Y009876D01*
X029263Y010073D01*
X029263Y010287D01*
X029181Y010484D01*
X029030Y010635D01*
X028922Y010680D01*
X029030Y010725D01*
X029181Y010876D01*
X029263Y011073D01*
X029263Y011287D01*
X029204Y011428D01*
X029291Y011342D01*
X029459Y011272D01*
X029641Y011272D01*
X029809Y011342D01*
X029938Y011471D01*
X030008Y011639D01*
X030008Y011778D01*
X030370Y012140D01*
X035691Y012140D01*
X035642Y012021D01*
X035642Y011839D01*
X035712Y011671D01*
X035827Y011555D01*
X035712Y011439D01*
X035642Y011271D01*
X035642Y011089D01*
X035712Y010921D01*
X035841Y010792D01*
X036009Y010722D01*
X036148Y010722D01*
X039436Y007434D01*
X039542Y007390D01*
X045158Y007390D01*
X045264Y007434D01*
X046593Y008763D01*
X046593Y008680D01*
X046593Y008339D01*
X046607Y008288D01*
X046633Y008243D01*
X046671Y008205D01*
X046716Y008179D01*
X046767Y008165D01*
X046931Y008165D01*
X047094Y008165D01*
X047145Y008179D01*
X047191Y008205D01*
X047228Y008243D01*
X047255Y008288D01*
X047268Y008339D01*
X047268Y008680D01*
X046931Y008680D01*
X047268Y008680D01*
X047268Y009021D01*
X047255Y009072D01*
X047228Y009117D01*
X047191Y009155D01*
X047145Y009181D01*
X047094Y009195D01*
X046931Y009195D01*
X046931Y008680D01*
X046931Y008680D01*
X046931Y008680D01*
X046931Y008165D01*
X046931Y008680D01*
X046931Y008680D01*
X046931Y009195D01*
X046640Y009215D02*
X047984Y009215D01*
X047985Y009215D02*
X047911Y009142D01*
X047872Y009046D01*
X047872Y008314D01*
X047911Y008218D01*
X047985Y008145D01*
X048080Y008105D01*
X048458Y008105D01*
X048554Y008145D01*
X048627Y008218D01*
X048667Y008314D01*
X048667Y008390D01*
X048742Y008390D01*
X048841Y008292D01*
X049009Y008222D01*
X049191Y008222D01*
X049359Y008292D01*
X049488Y008421D01*
X049558Y008589D01*
X049558Y008771D01*
X049488Y008939D01*
X049359Y009068D01*
X049191Y009138D01*
X049009Y009138D01*
X048841Y009068D01*
X048742Y008970D01*
X048667Y008970D01*
X048667Y009046D01*
X048627Y009142D01*
X048554Y009215D01*
X048458Y009255D01*
X048080Y009255D01*
X047985Y009215D01*
X047876Y009056D02*
X047259Y009056D01*
X047268Y008898D02*
X047872Y008898D01*
X047872Y008739D02*
X047268Y008739D01*
X047268Y008581D02*
X047872Y008581D01*
X047872Y008422D02*
X047268Y008422D01*
X047240Y008264D02*
X047893Y008264D01*
X046931Y008264D02*
X046931Y008264D01*
X046931Y008422D02*
X046931Y008422D01*
X046931Y008581D02*
X046931Y008581D01*
X046931Y008680D02*
X046593Y008680D01*
X046931Y008680D01*
X046931Y008680D01*
X046931Y008739D02*
X046931Y008739D01*
X046593Y008739D02*
X046569Y008739D01*
X046593Y008581D02*
X046411Y008581D01*
X046252Y008422D02*
X046593Y008422D01*
X046621Y008264D02*
X046094Y008264D01*
X045935Y008105D02*
X049780Y008105D01*
X049780Y007947D02*
X045777Y007947D01*
X045618Y007788D02*
X046360Y007788D01*
X046377Y007830D02*
X046336Y007731D01*
X046336Y007592D01*
X046296Y007494D01*
X046296Y006873D01*
X046233Y006847D01*
X046160Y006773D01*
X046138Y006720D01*
X046042Y006720D01*
X045936Y006676D01*
X045436Y006176D01*
X045436Y006176D01*
X045354Y006094D01*
X045310Y005988D01*
X045310Y003522D01*
X045354Y003416D01*
X045404Y003366D01*
X045404Y003366D01*
X045486Y003284D01*
X045592Y003240D01*
X045827Y003240D01*
X045841Y003206D01*
X045914Y003133D01*
X046009Y003093D01*
X046624Y003093D01*
X046667Y003111D01*
X046667Y002927D01*
X046707Y002832D01*
X046780Y002759D01*
X046876Y002719D01*
X047491Y002719D01*
X047586Y002759D01*
X047659Y002832D01*
X047673Y002866D01*
X047855Y002866D01*
X047855Y002583D01*
X047896Y002483D01*
X047909Y002470D01*
X031558Y002470D01*
X031459Y002568D01*
X031291Y002638D01*
X031109Y002638D01*
X030941Y002568D01*
X030812Y002439D01*
X030742Y002271D01*
X030742Y002089D01*
X030812Y001921D01*
X030941Y001792D01*
X031109Y001722D01*
X031291Y001722D01*
X031459Y001792D01*
X031558Y001890D01*
X049408Y001890D01*
X049514Y001934D01*
X049596Y002016D01*
X049640Y002122D01*
X049640Y003988D01*
X049596Y004094D01*
X049514Y004176D01*
X049408Y004220D01*
X049045Y004220D01*
X049045Y004377D01*
X049004Y004477D01*
X048927Y004553D01*
X048827Y004595D01*
X048073Y004595D01*
X047973Y004553D01*
X047896Y004477D01*
X047855Y004377D01*
X047855Y003702D01*
X047896Y003603D01*
X047973Y003526D01*
X048073Y003485D01*
X048827Y003485D01*
X048927Y003526D01*
X049004Y003603D01*
X049019Y003640D01*
X049060Y003640D01*
X049060Y002470D01*
X048991Y002470D01*
X049004Y002483D01*
X049045Y002583D01*
X049045Y003258D01*
X049004Y003357D01*
X048927Y003434D01*
X048827Y003475D01*
X048073Y003475D01*
X048002Y003446D01*
X047673Y003446D01*
X047659Y003480D01*
X047586Y003553D01*
X047558Y003565D01*
X047562Y003567D01*
X047599Y003604D01*
X047625Y003650D01*
X047639Y003701D01*
X047639Y003886D01*
X047202Y003886D01*
X047202Y003922D01*
X047639Y003922D01*
X047639Y004107D01*
X047625Y004158D01*
X047599Y004204D01*
X047562Y004241D01*
X047516Y004267D01*
X047465Y004281D01*
X047201Y004281D01*
X047201Y003922D01*
X047165Y003922D01*
X047165Y003886D01*
X046762Y003886D01*
X046720Y003927D01*
X046624Y003967D01*
X046009Y003967D01*
X045914Y003927D01*
X045890Y003903D01*
X045890Y005810D01*
X046163Y006083D01*
X046233Y006013D01*
X046329Y005973D01*
X046902Y005973D01*
X046998Y006013D01*
X047072Y006087D01*
X047112Y006183D01*
X047112Y006677D01*
X047072Y006773D01*
X046998Y006847D01*
X046936Y006873D01*
X046936Y006914D01*
X047153Y006914D01*
X047252Y006955D01*
X047327Y007030D01*
X047368Y007129D01*
X047368Y007731D01*
X047327Y007830D01*
X047252Y007905D01*
X047153Y007946D01*
X046551Y007946D01*
X046452Y007905D01*
X046377Y007830D01*
X046336Y007630D02*
X045460Y007630D01*
X045301Y007471D02*
X046296Y007471D01*
X046296Y007313D02*
X025499Y007313D01*
X025501Y007154D02*
X026579Y007154D01*
X026572Y007148D02*
X026507Y007112D01*
X026489Y007108D01*
X026462Y007087D01*
X026432Y007071D01*
X026420Y007056D01*
X026361Y007012D01*
X026343Y007004D01*
X026319Y006981D01*
X026292Y006960D01*
X026282Y006944D01*
X026230Y006891D01*
X026213Y006881D01*
X026193Y006854D01*
X026169Y006831D01*
X026161Y006813D01*
X026117Y006753D01*
X026102Y006741D01*
X026086Y006712D01*
X026066Y006685D01*
X026061Y006666D01*
X026025Y006601D01*
X026012Y006587D01*
X026000Y006555D01*
X025984Y006526D01*
X025982Y006506D01*
X025956Y006437D01*
X025945Y006421D01*
X025938Y006388D01*
X025926Y006356D01*
X025927Y006337D01*
X025911Y006265D01*
X025903Y006247D01*
X025900Y006214D01*
X025893Y006181D01*
X025896Y006162D01*
X025891Y006088D01*
X025885Y006070D01*
X025887Y006036D01*
X025885Y006002D01*
X025891Y005984D01*
X025896Y005910D01*
X025893Y005891D01*
X025900Y005858D01*
X025903Y005824D01*
X025911Y005807D01*
X025927Y005735D01*
X025926Y005715D01*
X025938Y005684D01*
X025945Y005651D01*
X025956Y005635D01*
X025982Y005566D01*
X025984Y005546D01*
X026000Y005517D01*
X026012Y005485D01*
X026025Y005471D01*
X026061Y005406D01*
X026066Y005387D01*
X026086Y005360D01*
X026102Y005331D01*
X026117Y005318D01*
X026161Y005259D01*
X026169Y005241D01*
X026193Y005217D01*
X026213Y005190D01*
X026230Y005180D01*
X026282Y005128D01*
X026292Y005112D01*
X026319Y005091D01*
X026343Y005067D01*
X026361Y005060D01*
X026420Y005016D01*
X026432Y005001D01*
X026462Y004984D01*
X026489Y004964D01*
X026507Y004959D01*
X026572Y004924D01*
X026587Y004911D01*
X026618Y004899D01*
X026648Y004883D01*
X026667Y004881D01*
X026736Y004855D01*
X026752Y004844D01*
X026785Y004837D01*
X026817Y004825D01*
X026836Y004826D01*
X026908Y004810D01*
X026926Y004801D01*
X026960Y004799D01*
X026993Y004792D01*
X027012Y004795D01*
X027085Y004790D01*
X027104Y004784D01*
X027137Y004786D01*
X027171Y004784D01*
X027190Y004790D01*
X027263Y004795D01*
X027282Y004792D01*
X027315Y004799D01*
X027349Y004801D01*
X027366Y004810D01*
X027439Y004826D01*
X027458Y004825D01*
X027490Y004837D01*
X027523Y004844D01*
X027538Y004855D01*
X027608Y004881D01*
X027627Y004883D01*
X027657Y004899D01*
X027688Y004911D01*
X027702Y004924D01*
X027767Y004959D01*
X027786Y004964D01*
X027813Y004984D01*
X027843Y005001D01*
X027855Y005016D01*
X027914Y005060D01*
X027932Y005067D01*
X027956Y005091D01*
X027983Y005112D01*
X027993Y005128D01*
X028045Y005180D01*
X028062Y005190D01*
X028082Y005217D01*
X028106Y005241D01*
X028113Y005259D01*
X028158Y005318D01*
X028173Y005331D01*
X028189Y005360D01*
X028209Y005387D01*
X028214Y005406D01*
X028249Y005471D01*
X028263Y005485D01*
X028274Y005517D01*
X028291Y005546D01*
X028293Y005566D01*
X028318Y005635D01*
X028330Y005651D01*
X028337Y005684D01*
X028348Y005715D01*
X028348Y005735D01*
X028364Y005807D01*
X028372Y005824D01*
X028375Y005858D01*
X028382Y005891D01*
X028378Y005910D01*
X028384Y005984D01*
X028390Y006002D01*
X028387Y006036D01*
X028390Y006070D01*
X028384Y006088D01*
X028378Y006162D01*
X028382Y006181D01*
X028375Y006214D01*
X028372Y006247D01*
X028364Y006265D01*
X028348Y006337D01*
X028348Y006356D01*
X028337Y006388D01*
X028330Y006421D01*
X028318Y006437D01*
X028293Y006506D01*
X028291Y006526D01*
X028274Y006555D01*
X028263Y006587D01*
X028249Y006601D01*
X028214Y006666D01*
X028209Y006685D01*
X028189Y006712D01*
X028173Y006741D01*
X028158Y006753D01*
X028113Y006813D01*
X028106Y006831D01*
X028082Y006854D01*
X028062Y006881D01*
X028045Y006891D01*
X027993Y006944D01*
X027983Y006960D01*
X027956Y006981D01*
X027932Y007004D01*
X027914Y007012D01*
X027855Y007056D01*
X027843Y007071D01*
X027813Y007087D01*
X027786Y007108D01*
X027767Y007112D01*
X027702Y007148D01*
X027688Y007161D01*
X027657Y007173D01*
X027627Y007189D01*
X027608Y007191D01*
X027538Y007217D01*
X027523Y007228D01*
X027490Y007235D01*
X027458Y007247D01*
X027439Y007246D01*
X027366Y007262D01*
X027349Y007271D01*
X027315Y007273D01*
X027282Y007280D01*
X027263Y007277D01*
X027190Y007282D01*
X027171Y007288D01*
X027137Y007286D01*
X027104Y007288D01*
X027085Y007282D01*
X027012Y007277D01*
X026993Y007280D01*
X026960Y007273D01*
X026926Y007271D01*
X026908Y007262D01*
X026836Y007246D01*
X026817Y007247D01*
X026785Y007235D01*
X026752Y007228D01*
X026736Y007217D01*
X026667Y007191D01*
X026648Y007189D01*
X026618Y007173D01*
X026587Y007161D01*
X026572Y007148D01*
X026334Y006996D02*
X025501Y006996D01*
X025501Y006837D02*
X026175Y006837D01*
X026064Y006679D02*
X025501Y006679D01*
X025501Y006520D02*
X025984Y006520D01*
X025928Y006362D02*
X025501Y006362D01*
X025501Y006203D02*
X025898Y006203D01*
X025887Y006045D02*
X025449Y006045D01*
X025894Y005886D02*
X019100Y005886D01*
X019100Y005728D02*
X019204Y005728D01*
X019204Y005569D02*
X019100Y005569D01*
X019100Y005411D02*
X019204Y005411D01*
X019204Y005252D02*
X019100Y005252D01*
X019204Y005094D02*
X021051Y005094D01*
X021051Y005170D02*
X021051Y005010D01*
X020431Y005010D01*
X020438Y004952D01*
X020462Y004863D01*
X020498Y004778D01*
X020544Y004698D01*
X020600Y004624D01*
X020666Y004559D01*
X020739Y004503D01*
X020819Y004457D01*
X020904Y004421D01*
X020994Y004397D01*
X021051Y004390D01*
X021051Y005010D01*
X021211Y005010D01*
X021211Y004390D01*
X021269Y004397D01*
X021358Y004421D01*
X021444Y004457D01*
X021524Y004503D01*
X021597Y004559D01*
X021663Y004624D01*
X021719Y004698D01*
X021765Y004778D01*
X021800Y004863D01*
X021824Y004952D01*
X021832Y005010D01*
X021211Y005010D01*
X021211Y005170D01*
X021051Y005170D01*
X020431Y005170D01*
X020438Y005228D01*
X020462Y005317D01*
X020498Y005403D01*
X020544Y005483D01*
X020600Y005556D01*
X020666Y005621D01*
X020739Y005678D01*
X020819Y005724D01*
X020904Y005759D01*
X020994Y005783D01*
X021051Y005791D01*
X021051Y005170D01*
X021051Y005252D02*
X021211Y005252D01*
X021211Y005170D02*
X021211Y005791D01*
X021269Y005783D01*
X021358Y005759D01*
X021444Y005724D01*
X021524Y005678D01*
X021597Y005621D01*
X021663Y005556D01*
X021719Y005483D01*
X021765Y005403D01*
X021800Y005317D01*
X021824Y005228D01*
X021832Y005170D01*
X021211Y005170D01*
X021211Y005094D02*
X026316Y005094D01*
X026164Y005252D02*
X021818Y005252D01*
X021761Y005411D02*
X026058Y005411D01*
X025981Y005569D02*
X021650Y005569D01*
X021435Y005728D02*
X025927Y005728D01*
X024522Y006045D02*
X023678Y006045D01*
X023730Y006203D02*
X024470Y006203D01*
X024470Y006362D02*
X023730Y006362D01*
X023730Y006520D02*
X024470Y006520D01*
X024470Y006679D02*
X023730Y006679D01*
X023730Y006837D02*
X024469Y006837D01*
X024310Y006996D02*
X023730Y006996D01*
X023730Y007154D02*
X024152Y007154D01*
X023993Y007313D02*
X023727Y007313D01*
X024150Y007947D02*
X024520Y007947D01*
X024470Y008105D02*
X023730Y008105D01*
X023730Y008264D02*
X024470Y008264D01*
X024470Y008422D02*
X023730Y008422D01*
X023730Y008581D02*
X024470Y008581D01*
X024470Y008739D02*
X023730Y008739D01*
X023730Y008898D02*
X024470Y008898D01*
X024470Y009056D02*
X023730Y009056D01*
X023726Y009215D02*
X024474Y009215D01*
X024580Y009373D02*
X023620Y009373D01*
X022892Y009532D02*
X026044Y009532D01*
X026337Y009690D02*
X022771Y009690D01*
X022656Y009849D02*
X026630Y009849D01*
X026060Y010007D02*
X025140Y010007D01*
X025230Y010166D02*
X025970Y010166D01*
X025970Y010324D02*
X025230Y010324D01*
X025230Y010483D02*
X025970Y010483D01*
X025970Y010641D02*
X025230Y010641D01*
X025230Y010800D02*
X025970Y010800D01*
X025848Y010958D02*
X025230Y010958D01*
X025230Y011117D02*
X025689Y011117D01*
X025531Y011275D02*
X025230Y011275D01*
X024199Y011275D02*
X024001Y011275D01*
X024001Y011117D02*
X024199Y011117D01*
X024199Y010958D02*
X024001Y010958D01*
X024001Y010800D02*
X024199Y010800D01*
X024199Y010641D02*
X024001Y010641D01*
X024001Y010483D02*
X024199Y010483D01*
X024199Y010324D02*
X024001Y010324D01*
X024001Y010166D02*
X024199Y010166D01*
X024288Y010007D02*
X023912Y010007D01*
X023060Y010007D02*
X022472Y010007D01*
X022358Y010166D02*
X022970Y010166D01*
X022970Y010324D02*
X022245Y010324D01*
X022230Y010483D02*
X022970Y010483D01*
X022970Y010641D02*
X022230Y010641D01*
X022230Y010800D02*
X022970Y010800D01*
X022848Y010958D02*
X022230Y010958D01*
X022230Y011117D02*
X022689Y011117D01*
X022531Y011275D02*
X022230Y011275D01*
X022717Y011909D02*
X023058Y011909D01*
X022970Y012068D02*
X022230Y012068D01*
X022230Y012226D02*
X022970Y012226D01*
X022970Y012385D02*
X022915Y012385D01*
X022875Y011751D02*
X023619Y011751D01*
X023778Y011592D02*
X023034Y011592D01*
X023931Y011434D02*
X023937Y011434D01*
X021199Y011275D02*
X020251Y011275D01*
X020251Y011117D02*
X021199Y011117D01*
X021199Y010958D02*
X020251Y010958D01*
X020251Y010800D02*
X021199Y010800D01*
X021199Y010641D02*
X020251Y010641D01*
X020251Y010483D02*
X021199Y010483D01*
X021199Y010324D02*
X020251Y010324D01*
X020251Y010166D02*
X021199Y010166D01*
X021288Y010007D02*
X020162Y010007D01*
X019310Y010007D02*
X019100Y010007D01*
X019100Y009849D02*
X021872Y009849D01*
X021986Y009690D02*
X019100Y009690D01*
X019100Y009532D02*
X022098Y009532D01*
X022283Y009373D02*
X020142Y009373D01*
X020248Y009215D02*
X022404Y009215D01*
X022525Y009056D02*
X020251Y009056D01*
X019330Y009373D02*
X019100Y009373D01*
X019100Y009215D02*
X019224Y009215D01*
X019220Y009056D02*
X019100Y009056D01*
X019100Y008898D02*
X019220Y008898D01*
X019220Y008739D02*
X019100Y008739D01*
X019100Y008581D02*
X019220Y008581D01*
X019220Y008422D02*
X019100Y008422D01*
X019100Y008264D02*
X019220Y008264D01*
X019220Y008105D02*
X019100Y008105D01*
X019100Y007947D02*
X019270Y007947D01*
X019402Y007788D02*
X021832Y007788D01*
X021990Y007630D02*
X019561Y007630D01*
X020144Y007471D02*
X022149Y007471D01*
X022701Y007313D02*
X020249Y007313D01*
X020251Y007154D02*
X022699Y007154D01*
X022699Y006996D02*
X020251Y006996D01*
X020251Y006837D02*
X022699Y006837D01*
X022699Y006679D02*
X020251Y006679D01*
X020251Y006520D02*
X022699Y006520D01*
X022699Y006362D02*
X020251Y006362D01*
X020251Y006203D02*
X022699Y006203D01*
X022751Y006045D02*
X020199Y006045D01*
X020828Y005728D02*
X019427Y005728D01*
X019642Y005569D02*
X020613Y005569D01*
X020502Y005411D02*
X019753Y005411D01*
X019810Y005252D02*
X020445Y005252D01*
X020443Y004935D02*
X019812Y004935D01*
X019817Y004952D02*
X019824Y005010D01*
X019204Y005010D01*
X019204Y004390D01*
X019261Y004397D01*
X019351Y004421D01*
X019436Y004457D01*
X019516Y004503D01*
X019589Y004559D01*
X019655Y004624D01*
X019711Y004698D01*
X019757Y004778D01*
X019793Y004863D01*
X019817Y004952D01*
X019757Y004777D02*
X019978Y004777D01*
X019989Y004781D02*
X019734Y004675D01*
X019538Y004480D01*
X019432Y004225D01*
X019432Y003948D01*
X019538Y003693D01*
X019734Y003497D01*
X019989Y003391D01*
X020266Y003391D01*
X020521Y003497D01*
X020717Y003693D01*
X020822Y003948D01*
X020822Y004225D01*
X020717Y004480D01*
X020521Y004675D01*
X020266Y004781D01*
X019989Y004781D01*
X020277Y004777D02*
X020498Y004777D01*
X020579Y004618D02*
X020607Y004618D01*
X020725Y004460D02*
X020814Y004460D01*
X020791Y004301D02*
X041108Y004301D01*
X041108Y004231D02*
X041189Y004034D01*
X041340Y003883D01*
X041537Y003802D01*
X041750Y003802D01*
X041947Y003883D01*
X042098Y004034D01*
X042180Y004231D01*
X042180Y004444D01*
X042098Y004641D01*
X041947Y004792D01*
X041750Y004873D01*
X041537Y004873D01*
X041340Y004792D01*
X041189Y004641D01*
X041108Y004444D01*
X041108Y004231D01*
X041144Y004143D02*
X020822Y004143D01*
X020822Y003984D02*
X041239Y003984D01*
X041479Y003826D02*
X020772Y003826D01*
X020819Y003716D02*
X020739Y003670D01*
X020666Y003614D01*
X020600Y003548D01*
X020544Y003475D01*
X020498Y003395D01*
X020462Y003310D01*
X020438Y003220D01*
X020431Y003162D01*
X021051Y003162D01*
X021051Y003002D01*
X021211Y003002D01*
X021211Y002382D01*
X021269Y002389D01*
X021358Y002413D01*
X021444Y002449D01*
X021524Y002495D01*
X021597Y002551D01*
X021663Y002617D01*
X021719Y002690D01*
X021765Y002770D01*
X021800Y002855D01*
X021824Y002945D01*
X021832Y003002D01*
X021211Y003002D01*
X021211Y003162D01*
X021832Y003162D01*
X021824Y003220D01*
X021800Y003310D01*
X021765Y003395D01*
X021719Y003475D01*
X021663Y003548D01*
X021597Y003614D01*
X021524Y003670D01*
X021444Y003716D01*
X021358Y003751D01*
X021269Y003775D01*
X021211Y003783D01*
X021211Y003162D01*
X021051Y003162D01*
X021051Y003783D01*
X020994Y003775D01*
X020904Y003751D01*
X020819Y003716D01*
X020735Y003667D02*
X020691Y003667D01*
X020570Y003509D02*
X020533Y003509D01*
X020479Y003350D02*
X019776Y003350D01*
X019820Y003192D02*
X020435Y003192D01*
X020431Y003002D02*
X020438Y002945D01*
X020462Y002855D01*
X020498Y002770D01*
X020544Y002690D01*
X020600Y002617D01*
X020666Y002551D01*
X020739Y002495D01*
X020819Y002449D01*
X020904Y002413D01*
X020994Y002389D01*
X021051Y002382D01*
X021051Y003002D01*
X020431Y003002D01*
X020457Y002875D02*
X019798Y002875D01*
X019793Y002855D02*
X019817Y002945D01*
X019824Y003002D01*
X019204Y003002D01*
X019204Y002382D01*
X019261Y002389D01*
X019351Y002413D01*
X019436Y002449D01*
X019516Y002495D01*
X019589Y002551D01*
X019655Y002617D01*
X019711Y002690D01*
X019757Y002770D01*
X019793Y002855D01*
X019726Y002716D02*
X020529Y002716D01*
X020659Y002558D02*
X019596Y002558D01*
X019297Y002399D02*
X020958Y002399D01*
X021051Y002399D02*
X021211Y002399D01*
X021305Y002399D02*
X030795Y002399D01*
X030742Y002241D02*
X019100Y002241D01*
X019100Y002399D02*
X019204Y002399D01*
X019204Y002558D02*
X019100Y002558D01*
X019100Y002716D02*
X019204Y002716D01*
X019204Y002875D02*
X019100Y002875D01*
X019204Y003033D02*
X021051Y003033D01*
X021051Y002875D02*
X021211Y002875D01*
X021211Y003033D02*
X046667Y003033D01*
X046689Y002875D02*
X021806Y002875D01*
X021734Y002716D02*
X047855Y002716D01*
X047866Y002558D02*
X031470Y002558D01*
X030930Y002558D02*
X021604Y002558D01*
X021211Y002558D02*
X021051Y002558D01*
X021051Y002716D02*
X021211Y002716D01*
X021211Y003192D02*
X021051Y003192D01*
X021051Y003350D02*
X021211Y003350D01*
X021211Y003509D02*
X021051Y003509D01*
X021051Y003667D02*
X021211Y003667D01*
X021528Y003667D02*
X045310Y003667D01*
X045310Y003826D02*
X041808Y003826D01*
X042048Y003984D02*
X045310Y003984D01*
X045310Y004143D02*
X042143Y004143D01*
X042180Y004301D02*
X045310Y004301D01*
X045310Y004460D02*
X042173Y004460D01*
X042108Y004618D02*
X045310Y004618D01*
X045310Y004777D02*
X041963Y004777D01*
X041325Y004777D02*
X021764Y004777D01*
X021820Y004935D02*
X026552Y004935D01*
X027723Y004935D02*
X045310Y004935D01*
X045310Y005094D02*
X027959Y005094D01*
X028110Y005252D02*
X045310Y005252D01*
X045310Y005411D02*
X028216Y005411D01*
X028294Y005569D02*
X045310Y005569D01*
X045310Y005728D02*
X028348Y005728D01*
X028381Y005886D02*
X045310Y005886D01*
X045334Y006045D02*
X028388Y006045D01*
X028377Y006203D02*
X045463Y006203D01*
X045621Y006362D02*
X028347Y006362D01*
X028291Y006520D02*
X045780Y006520D01*
X045942Y006679D02*
X028211Y006679D01*
X028099Y006837D02*
X046224Y006837D01*
X046296Y006996D02*
X027941Y006996D01*
X027696Y007154D02*
X046296Y007154D01*
X046616Y007430D02*
X046616Y006430D01*
X047112Y006362D02*
X048088Y006362D01*
X048088Y006520D02*
X047112Y006520D01*
X047111Y006679D02*
X048089Y006679D01*
X048088Y006677D02*
X048088Y006183D01*
X048128Y006087D01*
X048202Y006013D01*
X048298Y005973D01*
X048871Y005973D01*
X048967Y006013D01*
X049040Y006087D01*
X049080Y006183D01*
X049080Y006360D01*
X050164Y006360D01*
X050281Y006409D01*
X050371Y006499D01*
X050420Y006616D01*
X050420Y019352D01*
X050488Y019421D01*
X050558Y019589D01*
X050558Y019771D01*
X050488Y019939D01*
X050359Y020068D01*
X050191Y020138D01*
X050009Y020138D01*
X049841Y020068D01*
X049772Y020000D01*
X046670Y020000D01*
X046670Y021047D01*
X046683Y021060D01*
X046683Y020356D01*
X046719Y020268D01*
X046787Y020200D01*
X046875Y020164D01*
X047710Y020164D01*
X047798Y020200D01*
X047866Y020268D01*
X047886Y020317D01*
X048040Y020164D01*
X048545Y020164D01*
X048793Y020411D01*
X049040Y020164D01*
X049545Y020164D01*
X049903Y020521D01*
X049903Y021026D01*
X049613Y021316D01*
X049843Y021546D01*
X049843Y021754D01*
X049313Y021754D01*
X049313Y021794D01*
X049273Y021794D01*
X049273Y022324D01*
X049065Y022324D01*
X048835Y022094D01*
X048545Y022384D01*
X048040Y022384D01*
X047793Y022136D01*
X047545Y022384D01*
X047040Y022384D01*
X046683Y022026D01*
X046683Y021965D01*
X046169Y021451D01*
X046079Y021361D01*
X046030Y021244D01*
X046030Y019616D01*
X046079Y019499D01*
X046169Y019409D01*
X046286Y019360D01*
X047207Y019360D01*
X047168Y019341D01*
X047107Y019296D01*
X047054Y019243D01*
X047009Y019182D01*
X046975Y019114D01*
X046952Y019042D01*
X046940Y018968D01*
X046940Y018950D01*
X047580Y018950D01*
X047580Y018910D01*
X046940Y018910D01*
X046940Y018892D01*
X046952Y018818D01*
X046975Y018746D01*
X047009Y018678D01*
X047054Y018617D01*
X047107Y018564D01*
X047168Y018519D01*
X047236Y018485D01*
X047299Y018465D01*
X047114Y018388D01*
X046962Y018236D01*
X046880Y018037D01*
X046880Y017823D01*
X046962Y017624D01*
X047114Y017472D01*
X047216Y017430D01*
X047114Y017388D01*
X046962Y017236D01*
X046880Y017037D01*
X046880Y016823D01*
X046962Y016624D01*
X047114Y016472D01*
X047216Y016430D01*
X047114Y016388D01*
X046962Y016236D01*
X046880Y016037D01*
X046880Y015823D01*
X046962Y015624D01*
X047114Y015472D01*
X047216Y015430D01*
X047114Y015388D01*
X046962Y015236D01*
X046880Y015037D01*
X046880Y014823D01*
X046962Y014624D01*
X047114Y014472D01*
X047216Y014430D01*
X047114Y014388D01*
X046962Y014236D01*
X046880Y014037D01*
X046880Y013823D01*
X046962Y013624D01*
X047086Y013500D01*
X046631Y013500D01*
X045011Y015100D01*
X045011Y015287D01*
X044929Y015484D01*
X044778Y015635D01*
X044581Y015717D01*
X044367Y015717D01*
X044170Y015635D01*
X044019Y015484D01*
X043937Y015287D01*
X043937Y015073D01*
X044019Y014876D01*
X044170Y014725D01*
X044362Y014645D01*
X044291Y014622D01*
X044224Y014588D01*
X044163Y014544D01*
X044110Y014491D01*
X044066Y014430D01*
X044032Y014363D01*
X044009Y014292D01*
X043997Y014218D01*
X043997Y014198D01*
X044456Y014198D01*
X044456Y014162D01*
X044046Y013970D02*
X038750Y013970D01*
X038908Y014128D02*
X043999Y014128D01*
X044008Y014287D02*
X041967Y014287D01*
X042125Y014445D02*
X044077Y014445D01*
X044255Y014604D02*
X042284Y014604D01*
X042442Y014762D02*
X044133Y014762D01*
X044000Y014921D02*
X042601Y014921D01*
X042759Y015079D02*
X043937Y015079D01*
X043937Y015238D02*
X043079Y015238D01*
X043314Y015396D02*
X043982Y015396D01*
X044089Y015555D02*
X043394Y015555D01*
X043408Y015713D02*
X044358Y015713D01*
X044590Y015713D02*
X045194Y015713D01*
X045142Y015872D02*
X043367Y015872D01*
X044474Y015180D02*
X046500Y013180D01*
X050100Y013180D01*
X050100Y006680D01*
X048584Y006680D01*
X048584Y006430D01*
X048584Y006680D02*
X048584Y007430D01*
X048348Y007430D01*
X047832Y007471D02*
X047368Y007471D01*
X047368Y007313D02*
X047832Y007313D01*
X047832Y007154D02*
X047368Y007154D01*
X047292Y006996D02*
X047908Y006996D01*
X047873Y007030D02*
X047948Y006955D01*
X048047Y006914D01*
X048264Y006914D01*
X048264Y006873D01*
X048202Y006847D01*
X048128Y006773D01*
X048088Y006677D01*
X048192Y006837D02*
X047008Y006837D01*
X047832Y007129D02*
X047873Y007030D01*
X047832Y007129D02*
X047832Y007731D01*
X047873Y007830D01*
X047948Y007905D01*
X048047Y007946D01*
X048649Y007946D01*
X048748Y007905D01*
X048823Y007830D01*
X048864Y007731D01*
X048864Y007592D01*
X048904Y007494D01*
X048904Y007000D01*
X049780Y007000D01*
X049780Y012860D01*
X046501Y012860D01*
X046438Y012860D01*
X046437Y012860D01*
X046436Y012860D01*
X047105Y012543D02*
X044870Y012543D01*
X044970Y012385D02*
X045644Y012385D01*
X045560Y012226D02*
X045011Y012226D01*
X045009Y012068D02*
X045560Y012068D01*
X045560Y011909D02*
X044943Y011909D01*
X044804Y011751D02*
X045560Y011751D01*
X045560Y011592D02*
X044821Y011592D01*
X044950Y011434D02*
X045560Y011434D01*
X045560Y011275D02*
X045011Y011275D01*
X045011Y011117D02*
X045560Y011117D01*
X045560Y010958D02*
X044963Y010958D01*
X044853Y010800D02*
X045560Y010800D01*
X045560Y010641D02*
X044764Y010641D01*
X044930Y010483D02*
X045560Y010483D01*
X045560Y010324D02*
X044995Y010324D01*
X045011Y010166D02*
X045560Y010166D01*
X045560Y010007D02*
X044983Y010007D01*
X044902Y009849D02*
X045560Y009849D01*
X045560Y009690D02*
X044694Y009690D01*
X044882Y009532D02*
X045541Y009532D01*
X045383Y009373D02*
X044975Y009373D01*
X045011Y009215D02*
X045224Y009215D01*
X045066Y009056D02*
X045004Y009056D01*
X044066Y009532D02*
X038909Y009532D01*
X038750Y009690D02*
X044254Y009690D01*
X044046Y009849D02*
X038592Y009849D01*
X038433Y010007D02*
X043965Y010007D01*
X043937Y010166D02*
X038275Y010166D01*
X038116Y010324D02*
X043953Y010324D01*
X044018Y010483D02*
X037958Y010483D01*
X037799Y010641D02*
X044184Y010641D01*
X044095Y010800D02*
X037641Y010800D01*
X037482Y010958D02*
X043985Y010958D01*
X043937Y011117D02*
X037324Y011117D01*
X037165Y011275D02*
X043937Y011275D01*
X043998Y011434D02*
X037007Y011434D01*
X036848Y011592D02*
X044127Y011592D01*
X044144Y011751D02*
X036690Y011751D01*
X036558Y011909D02*
X037314Y011909D01*
X037175Y012068D02*
X036539Y012068D01*
X037006Y012226D02*
X037110Y012226D01*
X037973Y011909D02*
X044005Y011909D01*
X043940Y012068D02*
X038112Y012068D01*
X038178Y012226D02*
X043937Y012226D01*
X043978Y012385D02*
X038180Y012385D01*
X038139Y012543D02*
X044078Y012543D01*
X044226Y012702D02*
X038038Y012702D01*
X037783Y012860D02*
X044035Y012860D01*
X043960Y013019D02*
X037799Y013019D01*
X037957Y013177D02*
X043937Y013177D01*
X043957Y013336D02*
X038116Y013336D01*
X038274Y013494D02*
X044029Y013494D01*
X044212Y013653D02*
X038433Y013653D01*
X038591Y013811D02*
X044171Y013811D01*
X044586Y013715D02*
X044586Y013715D01*
X045835Y014287D02*
X047013Y014287D01*
X046918Y014128D02*
X045995Y014128D01*
X046156Y013970D02*
X046880Y013970D01*
X046885Y013811D02*
X046316Y013811D01*
X046477Y013653D02*
X046950Y013653D01*
X048114Y013500D02*
X048238Y013624D01*
X048320Y013823D01*
X048320Y014037D01*
X048238Y014236D01*
X048086Y014388D01*
X047984Y014430D01*
X048086Y014472D01*
X048238Y014624D01*
X048320Y014823D01*
X048320Y015037D01*
X048238Y015236D01*
X048086Y015388D01*
X047984Y015430D01*
X048086Y015472D01*
X048238Y015624D01*
X048320Y015823D01*
X048320Y016037D01*
X048238Y016236D01*
X048086Y016388D01*
X047984Y016430D01*
X048086Y016472D01*
X048238Y016624D01*
X048320Y016823D01*
X048320Y017037D01*
X048238Y017236D01*
X048086Y017388D01*
X047984Y017430D01*
X048086Y017472D01*
X048238Y017624D01*
X048320Y017823D01*
X048320Y018037D01*
X048238Y018236D01*
X048086Y018388D01*
X047901Y018465D01*
X047964Y018485D01*
X048032Y018519D01*
X048093Y018564D01*
X048146Y018617D01*
X048191Y018678D01*
X048225Y018746D01*
X048248Y018818D01*
X048260Y018892D01*
X048260Y018910D01*
X047620Y018910D01*
X047620Y018950D01*
X048260Y018950D01*
X048260Y018968D01*
X048248Y019042D01*
X048225Y019114D01*
X048191Y019182D01*
X048146Y019243D01*
X048093Y019296D01*
X048032Y019341D01*
X047993Y019360D01*
X049772Y019360D01*
X049780Y019352D01*
X049780Y013500D01*
X048114Y013500D01*
X048250Y013653D02*
X049780Y013653D01*
X049780Y013811D02*
X048315Y013811D01*
X048320Y013970D02*
X049780Y013970D01*
X049780Y014128D02*
X048282Y014128D01*
X048187Y014287D02*
X049780Y014287D01*
X049780Y014445D02*
X048020Y014445D01*
X048217Y014604D02*
X049780Y014604D01*
X049780Y014762D02*
X048295Y014762D01*
X048320Y014921D02*
X049780Y014921D01*
X049780Y015079D02*
X048303Y015079D01*
X048236Y015238D02*
X049780Y015238D01*
X049780Y015396D02*
X048066Y015396D01*
X048168Y015555D02*
X049780Y015555D01*
X049780Y015713D02*
X048275Y015713D01*
X048320Y015872D02*
X049780Y015872D01*
X049780Y016030D02*
X048320Y016030D01*
X048257Y016189D02*
X049780Y016189D01*
X049780Y016347D02*
X048127Y016347D01*
X048119Y016506D02*
X049780Y016506D01*
X049780Y016664D02*
X048254Y016664D01*
X048320Y016823D02*
X049780Y016823D01*
X049780Y016981D02*
X048320Y016981D01*
X048278Y017140D02*
X049780Y017140D01*
X049780Y017298D02*
X048176Y017298D01*
X048048Y017457D02*
X049780Y017457D01*
X049780Y017615D02*
X048229Y017615D01*
X048300Y017774D02*
X049780Y017774D01*
X049780Y017932D02*
X048320Y017932D01*
X048298Y018091D02*
X049780Y018091D01*
X049780Y018249D02*
X048225Y018249D01*
X048038Y018408D02*
X049780Y018408D01*
X049780Y018566D02*
X048095Y018566D01*
X048214Y018725D02*
X049780Y018725D01*
X049780Y018883D02*
X048259Y018883D01*
X048248Y019042D02*
X049780Y019042D01*
X049780Y019200D02*
X048177Y019200D01*
X047996Y019359D02*
X049774Y019359D01*
X050100Y019680D02*
X046350Y019680D01*
X046350Y021180D01*
X046944Y021774D01*
X047293Y021774D01*
X046612Y021895D02*
X044240Y021895D01*
X044240Y021743D02*
X044240Y022317D01*
X044158Y022516D01*
X044006Y022668D01*
X043807Y022750D01*
X043593Y022750D01*
X043394Y022668D01*
X043242Y022516D01*
X043200Y022414D01*
X043158Y022516D01*
X043006Y022668D01*
X042807Y022750D01*
X042593Y022750D01*
X042394Y022668D01*
X042242Y022516D01*
X042200Y022414D01*
X042158Y022516D01*
X042006Y022668D01*
X041807Y022750D01*
X041593Y022750D01*
X041394Y022668D01*
X041242Y022516D01*
X041200Y022414D01*
X041158Y022516D01*
X041006Y022668D01*
X040807Y022750D01*
X040593Y022750D01*
X040394Y022668D01*
X040242Y022516D01*
X040200Y022414D01*
X040158Y022516D01*
X040006Y022668D01*
X039807Y022750D01*
X039593Y022750D01*
X039394Y022668D01*
X039242Y022516D01*
X039160Y022317D01*
X039160Y021743D01*
X039242Y021544D01*
X039394Y021392D01*
X039593Y021310D01*
X039807Y021310D01*
X040006Y021392D01*
X040158Y021544D01*
X040200Y021646D01*
X040242Y021544D01*
X040394Y021392D01*
X040593Y021310D01*
X040807Y021310D01*
X041006Y021392D01*
X041158Y021544D01*
X041200Y021646D01*
X041242Y021544D01*
X041394Y021392D01*
X041593Y021310D01*
X041807Y021310D01*
X042006Y021392D01*
X042158Y021544D01*
X042200Y021646D01*
X042242Y021544D01*
X042394Y021392D01*
X042593Y021310D01*
X042807Y021310D01*
X043006Y021392D01*
X043158Y021544D01*
X043200Y021646D01*
X043242Y021544D01*
X043394Y021392D01*
X043593Y021310D01*
X043807Y021310D01*
X044006Y021392D01*
X044158Y021544D01*
X044240Y021743D01*
X044237Y021736D02*
X046453Y021736D01*
X046295Y021578D02*
X044172Y021578D01*
X044033Y021419D02*
X046136Y021419D01*
X046037Y021261D02*
X038167Y021261D01*
X038245Y021102D02*
X046030Y021102D01*
X046030Y020944D02*
X038258Y020944D01*
X038215Y020785D02*
X046030Y020785D01*
X046030Y020627D02*
X038094Y020627D01*
X037506Y020627D02*
X037441Y020627D01*
X037253Y020468D02*
X046030Y020468D01*
X046030Y020310D02*
X037151Y020310D01*
X037208Y020151D02*
X046030Y020151D01*
X046030Y019993D02*
X037208Y019993D01*
X037144Y019834D02*
X046030Y019834D01*
X046030Y019676D02*
X036971Y019676D01*
X036749Y019517D02*
X046071Y019517D01*
X046670Y020151D02*
X051320Y020151D01*
X051320Y019993D02*
X050435Y019993D01*
X050532Y019834D02*
X051320Y019834D01*
X051320Y019676D02*
X050558Y019676D01*
X050528Y019517D02*
X051320Y019517D01*
X051320Y019359D02*
X050426Y019359D01*
X050420Y019200D02*
X051320Y019200D01*
X051320Y019042D02*
X050420Y019042D01*
X050420Y018883D02*
X051320Y018883D01*
X051320Y018725D02*
X050420Y018725D01*
X050420Y018566D02*
X051320Y018566D01*
X051320Y018408D02*
X050420Y018408D01*
X050420Y018249D02*
X051320Y018249D01*
X051320Y018091D02*
X050420Y018091D01*
X050420Y017932D02*
X051320Y017932D01*
X051320Y017774D02*
X050420Y017774D01*
X050420Y017615D02*
X051320Y017615D01*
X051320Y017457D02*
X050420Y017457D01*
X050420Y017298D02*
X051320Y017298D01*
X051320Y017140D02*
X050420Y017140D01*
X050420Y016981D02*
X051320Y016981D01*
X051320Y016823D02*
X050420Y016823D01*
X050420Y016664D02*
X051320Y016664D01*
X051320Y016506D02*
X050420Y016506D01*
X050420Y016347D02*
X051320Y016347D01*
X051320Y016189D02*
X050420Y016189D01*
X050420Y016030D02*
X051320Y016030D01*
X051320Y015872D02*
X050420Y015872D01*
X050420Y015713D02*
X051320Y015713D01*
X051320Y015555D02*
X050420Y015555D01*
X050420Y015396D02*
X051320Y015396D01*
X051320Y015238D02*
X050420Y015238D01*
X050420Y015079D02*
X051320Y015079D01*
X051320Y014921D02*
X050420Y014921D01*
X050420Y014762D02*
X051320Y014762D01*
X051320Y014604D02*
X050420Y014604D01*
X050420Y014445D02*
X051320Y014445D01*
X051320Y014287D02*
X050420Y014287D01*
X050420Y014128D02*
X051320Y014128D01*
X051320Y013970D02*
X050420Y013970D01*
X050420Y013811D02*
X051320Y013811D01*
X051320Y013653D02*
X050420Y013653D01*
X050420Y013494D02*
X051320Y013494D01*
X051320Y013336D02*
X050420Y013336D01*
X050420Y013177D02*
X051320Y013177D01*
X051320Y013019D02*
X050420Y013019D01*
X050420Y012860D02*
X051320Y012860D01*
X051320Y012702D02*
X050420Y012702D01*
X050420Y012543D02*
X051320Y012543D01*
X051320Y012385D02*
X050420Y012385D01*
X050420Y012226D02*
X051320Y012226D01*
X051320Y012068D02*
X050420Y012068D01*
X050420Y011909D02*
X051320Y011909D01*
X051320Y011751D02*
X050420Y011751D01*
X050420Y011592D02*
X051320Y011592D01*
X051320Y011434D02*
X050420Y011434D01*
X050420Y011275D02*
X051320Y011275D01*
X051320Y011117D02*
X050420Y011117D01*
X050420Y010958D02*
X051320Y010958D01*
X051320Y010800D02*
X050420Y010800D01*
X050420Y010641D02*
X051320Y010641D01*
X051320Y010483D02*
X050420Y010483D01*
X050420Y010324D02*
X051320Y010324D01*
X051320Y010166D02*
X050420Y010166D01*
X050420Y010007D02*
X051320Y010007D01*
X051320Y009849D02*
X050420Y009849D01*
X050420Y009690D02*
X051320Y009690D01*
X051320Y009532D02*
X050420Y009532D01*
X050420Y009373D02*
X051320Y009373D01*
X051320Y009215D02*
X050420Y009215D01*
X050420Y009056D02*
X051320Y009056D01*
X051320Y008898D02*
X050420Y008898D01*
X050420Y008739D02*
X051320Y008739D01*
X051320Y008581D02*
X050420Y008581D01*
X050420Y008422D02*
X051320Y008422D01*
X051320Y008264D02*
X050420Y008264D01*
X050420Y008105D02*
X051320Y008105D01*
X051320Y007947D02*
X050420Y007947D01*
X050420Y007788D02*
X051320Y007788D01*
X051320Y007630D02*
X050420Y007630D01*
X050420Y007471D02*
X051320Y007471D01*
X051320Y007313D02*
X050420Y007313D01*
X050420Y007154D02*
X051320Y007154D01*
X051320Y006996D02*
X050420Y006996D01*
X050420Y006837D02*
X051320Y006837D01*
X051320Y006679D02*
X050420Y006679D01*
X050380Y006520D02*
X051320Y006520D01*
X051320Y006362D02*
X050167Y006362D01*
X049080Y006203D02*
X051320Y006203D01*
X051320Y006045D02*
X048998Y006045D01*
X048871Y005509D02*
X048298Y005509D01*
X048202Y005469D01*
X048128Y005395D01*
X048088Y005299D01*
X048088Y004805D01*
X048128Y004709D01*
X048202Y004635D01*
X048298Y004596D01*
X048871Y004596D01*
X048967Y004635D01*
X049040Y004709D01*
X049080Y004805D01*
X049080Y005299D01*
X049040Y005395D01*
X048967Y005469D01*
X048871Y005509D01*
X049025Y005411D02*
X051320Y005411D01*
X051320Y005569D02*
X045890Y005569D01*
X045890Y005411D02*
X048144Y005411D01*
X048088Y005252D02*
X045890Y005252D01*
X045890Y005094D02*
X048088Y005094D01*
X048088Y004935D02*
X045890Y004935D01*
X045890Y004777D02*
X048100Y004777D01*
X048244Y004618D02*
X045890Y004618D01*
X045890Y004460D02*
X047889Y004460D01*
X047855Y004301D02*
X045890Y004301D01*
X045890Y004143D02*
X046737Y004143D01*
X046741Y004158D02*
X046727Y004107D01*
X046727Y003922D01*
X047165Y003922D01*
X047165Y004281D01*
X046901Y004281D01*
X046850Y004267D01*
X046805Y004241D01*
X046767Y004204D01*
X046741Y004158D01*
X046727Y003984D02*
X045890Y003984D01*
X045316Y003509D02*
X021693Y003509D01*
X021784Y003350D02*
X045420Y003350D01*
X045855Y003192D02*
X021828Y003192D01*
X019722Y003509D02*
X019685Y003509D01*
X019564Y003667D02*
X019520Y003667D01*
X019483Y003826D02*
X019100Y003826D01*
X019100Y003984D02*
X019432Y003984D01*
X019432Y004143D02*
X019100Y004143D01*
X019100Y004301D02*
X019464Y004301D01*
X019441Y004460D02*
X019530Y004460D01*
X019648Y004618D02*
X019676Y004618D01*
X019204Y004618D02*
X019100Y004618D01*
X019100Y004460D02*
X019204Y004460D01*
X019204Y004777D02*
X019100Y004777D01*
X019100Y004935D02*
X019204Y004935D01*
X019272Y006045D02*
X019100Y006045D01*
X019100Y006203D02*
X019220Y006203D01*
X019220Y006362D02*
X019100Y006362D01*
X019100Y006520D02*
X019220Y006520D01*
X019220Y006679D02*
X019100Y006679D01*
X019100Y006837D02*
X019220Y006837D01*
X019220Y006996D02*
X019100Y006996D01*
X019100Y007154D02*
X019216Y007154D01*
X020201Y007947D02*
X021673Y007947D01*
X021515Y008105D02*
X020251Y008105D01*
X020251Y008264D02*
X021356Y008264D01*
X021860Y008581D02*
X022699Y008581D01*
X022699Y008739D02*
X021701Y008739D01*
X021512Y008898D02*
X022646Y008898D01*
X022699Y008422D02*
X022018Y008422D01*
X022177Y008264D02*
X022699Y008264D01*
X022699Y008105D02*
X022335Y008105D01*
X024338Y007788D02*
X028359Y007788D01*
X028242Y007947D02*
X025451Y007947D01*
X025501Y008105D02*
X028189Y008105D01*
X028189Y008264D02*
X025501Y008264D01*
X025501Y008422D02*
X028245Y008422D01*
X028367Y008581D02*
X025504Y008581D01*
X025797Y008739D02*
X028408Y008739D01*
X028262Y008898D02*
X026091Y008898D01*
X026384Y009056D02*
X028196Y009056D01*
X028189Y009215D02*
X026677Y009215D01*
X026971Y009373D02*
X028225Y009373D01*
X028318Y009532D02*
X027264Y009532D01*
X027557Y009690D02*
X028506Y009690D01*
X028298Y009849D02*
X027850Y009849D01*
X028144Y010007D02*
X028217Y010007D01*
X028946Y009690D02*
X037180Y009690D01*
X037338Y009532D02*
X029134Y009532D01*
X029227Y009373D02*
X037497Y009373D01*
X037655Y009215D02*
X029263Y009215D01*
X029256Y009056D02*
X037814Y009056D01*
X037972Y008898D02*
X029190Y008898D01*
X029044Y008739D02*
X038131Y008739D01*
X038289Y008581D02*
X029085Y008581D01*
X029207Y008422D02*
X038448Y008422D01*
X038606Y008264D02*
X029263Y008264D01*
X029263Y008105D02*
X038765Y008105D01*
X038923Y007947D02*
X029210Y007947D01*
X029093Y007788D02*
X039082Y007788D01*
X039240Y007630D02*
X024496Y007630D01*
X025394Y007471D02*
X039399Y007471D01*
X039384Y009056D02*
X043944Y009056D01*
X043937Y009215D02*
X039226Y009215D01*
X039067Y009373D02*
X043973Y009373D01*
X046640Y009373D02*
X049780Y009373D01*
X049780Y009215D02*
X048554Y009215D01*
X048663Y009056D02*
X048828Y009056D01*
X049372Y009056D02*
X049780Y009056D01*
X049780Y008898D02*
X049506Y008898D01*
X049558Y008739D02*
X049780Y008739D01*
X049780Y008581D02*
X049555Y008581D01*
X049489Y008422D02*
X049780Y008422D01*
X049780Y008264D02*
X049292Y008264D01*
X048908Y008264D02*
X048646Y008264D01*
X048840Y007788D02*
X049780Y007788D01*
X049780Y007630D02*
X048864Y007630D01*
X048904Y007471D02*
X049780Y007471D01*
X049780Y007313D02*
X048904Y007313D01*
X048904Y007154D02*
X049780Y007154D01*
X048088Y006203D02*
X047112Y006203D01*
X047029Y006045D02*
X048171Y006045D01*
X049080Y005252D02*
X051320Y005252D01*
X051320Y005094D02*
X049080Y005094D01*
X049080Y004935D02*
X051320Y004935D01*
X051320Y004777D02*
X049068Y004777D01*
X048925Y004618D02*
X051320Y004618D01*
X051320Y004460D02*
X049011Y004460D01*
X049045Y004301D02*
X051320Y004301D01*
X051320Y004143D02*
X049548Y004143D01*
X049640Y003984D02*
X051320Y003984D01*
X051320Y003826D02*
X049640Y003826D01*
X049640Y003667D02*
X051320Y003667D01*
X051320Y003509D02*
X049640Y003509D01*
X049640Y003350D02*
X051320Y003350D01*
X051320Y003192D02*
X049640Y003192D01*
X049640Y003033D02*
X051320Y003033D01*
X051320Y002875D02*
X049640Y002875D01*
X049640Y002716D02*
X051320Y002716D01*
X051320Y002558D02*
X049640Y002558D01*
X049640Y002399D02*
X051320Y002399D01*
X051320Y002241D02*
X049640Y002241D01*
X049623Y002082D02*
X051320Y002082D01*
X051320Y001924D02*
X050977Y001924D01*
X051190Y001765D02*
X051320Y001765D01*
X050223Y001924D02*
X049489Y001924D01*
X050010Y001765D02*
X031395Y001765D01*
X031005Y001765D02*
X026440Y001765D01*
X026573Y001607D02*
X049877Y001607D01*
X049811Y001448D02*
X026639Y001448D01*
X026681Y001290D02*
X049769Y001290D01*
X049769Y001131D02*
X026681Y001131D01*
X026664Y000973D02*
X049786Y000973D01*
X049852Y000814D02*
X026598Y000814D01*
X026501Y000656D02*
X049949Y000656D01*
X050108Y000497D02*
X026342Y000497D01*
X025358Y000497D02*
X019100Y000497D01*
X019100Y000656D02*
X025199Y000656D01*
X025102Y000814D02*
X019100Y000814D01*
X019100Y000973D02*
X025036Y000973D01*
X025019Y001131D02*
X019100Y001131D01*
X019100Y001290D02*
X025019Y001290D01*
X025061Y001448D02*
X019100Y001448D01*
X019100Y001607D02*
X025127Y001607D01*
X025260Y001765D02*
X019100Y001765D01*
X019100Y001924D02*
X025473Y001924D01*
X026227Y001924D02*
X030810Y001924D01*
X030745Y002082D02*
X019100Y002082D01*
X019100Y003192D02*
X019204Y003192D01*
X019204Y003350D02*
X019100Y003350D01*
X019100Y003509D02*
X019204Y003509D01*
X019204Y003667D02*
X019100Y003667D01*
X021051Y004460D02*
X021211Y004460D01*
X021211Y004618D02*
X021051Y004618D01*
X021051Y004777D02*
X021211Y004777D01*
X021211Y004935D02*
X021051Y004935D01*
X021051Y005411D02*
X021211Y005411D01*
X021211Y005569D02*
X021051Y005569D01*
X021051Y005728D02*
X021211Y005728D01*
X021656Y004618D02*
X041180Y004618D01*
X041114Y004460D02*
X021449Y004460D01*
X025392Y009373D02*
X025751Y009373D01*
X029154Y009849D02*
X037021Y009849D01*
X036863Y010007D02*
X029235Y010007D01*
X029263Y010166D02*
X036704Y010166D01*
X036546Y010324D02*
X029247Y010324D01*
X029182Y010483D02*
X036387Y010483D01*
X036229Y010641D02*
X029016Y010641D01*
X029105Y010800D02*
X035833Y010800D01*
X035696Y010958D02*
X029215Y010958D01*
X029263Y011117D02*
X035642Y011117D01*
X035644Y011275D02*
X029649Y011275D01*
X029451Y011275D02*
X029263Y011275D01*
X029901Y011434D02*
X035709Y011434D01*
X035790Y011592D02*
X029989Y011592D01*
X030008Y011751D02*
X035678Y011751D01*
X035642Y011909D02*
X030139Y011909D01*
X030298Y012068D02*
X035661Y012068D01*
X035709Y013177D02*
X029263Y013177D01*
X029243Y013336D02*
X035643Y013336D01*
X035642Y013494D02*
X029171Y013494D01*
X028988Y013653D02*
X035696Y013653D01*
X035810Y013811D02*
X029116Y013811D01*
X029220Y013970D02*
X035810Y013970D01*
X035810Y014128D02*
X029263Y014128D01*
X029263Y014287D02*
X035810Y014287D01*
X035810Y014445D02*
X029197Y014445D01*
X029062Y014604D02*
X035810Y014604D01*
X035841Y014762D02*
X029067Y014762D01*
X029200Y014921D02*
X035980Y014921D01*
X036139Y015079D02*
X029263Y015079D01*
X029263Y015238D02*
X036297Y015238D01*
X036456Y015396D02*
X029218Y015396D01*
X029111Y015555D02*
X036614Y015555D01*
X036773Y015713D02*
X028842Y015713D01*
X028610Y015713D02*
X028540Y015713D01*
X028540Y015872D02*
X036931Y015872D01*
X037090Y016030D02*
X028540Y016030D01*
X028540Y016189D02*
X037248Y016189D01*
X037407Y016347D02*
X028540Y016347D01*
X028540Y016506D02*
X037442Y016506D01*
X037501Y016664D02*
X028540Y016664D01*
X028540Y016823D02*
X036710Y016823D01*
X036587Y016981D02*
X028540Y016981D01*
X028540Y017140D02*
X036542Y017140D01*
X036472Y017298D02*
X028540Y017298D01*
X028540Y017457D02*
X036313Y017457D01*
X036155Y017615D02*
X028540Y017615D01*
X028540Y017774D02*
X035996Y017774D01*
X035838Y017932D02*
X028540Y017932D01*
X028540Y018091D02*
X035679Y018091D01*
X035570Y018249D02*
X028540Y018249D01*
X028540Y018408D02*
X035560Y018408D01*
X035560Y018566D02*
X028540Y018566D01*
X025810Y019517D02*
X019100Y019517D01*
X019100Y019359D02*
X025368Y019359D01*
X025210Y019200D02*
X019100Y019200D01*
X019100Y019042D02*
X025051Y019042D01*
X024893Y018883D02*
X019100Y018883D01*
X019100Y018725D02*
X024734Y018725D01*
X025810Y019676D02*
X019100Y019676D01*
X019100Y019834D02*
X025810Y019834D01*
X025810Y019993D02*
X019100Y019993D01*
X019100Y020151D02*
X025810Y020151D01*
X025810Y020310D02*
X019100Y020310D01*
X019100Y020468D02*
X025810Y020468D01*
X025810Y020627D02*
X019100Y020627D01*
X019686Y020785D02*
X025810Y020785D01*
X025810Y020944D02*
X019812Y020944D01*
X019867Y021102D02*
X025862Y021102D01*
X026185Y021419D02*
X034379Y021419D01*
X034537Y021578D02*
X026423Y021578D01*
X026566Y021736D02*
X034696Y021736D01*
X034854Y021895D02*
X026631Y021895D01*
X026681Y022053D02*
X035013Y022053D01*
X035171Y022212D02*
X026681Y022212D01*
X026671Y022370D02*
X035242Y022370D01*
X035286Y022529D02*
X026605Y022529D01*
X026518Y022687D02*
X035409Y022687D01*
X035991Y022687D02*
X039441Y022687D01*
X039255Y022529D02*
X036114Y022529D01*
X036158Y022370D02*
X039182Y022370D01*
X039160Y022212D02*
X036566Y022212D01*
X036674Y022053D02*
X037025Y022053D01*
X036893Y021895D02*
X036708Y021895D01*
X037575Y022053D02*
X039160Y022053D01*
X039160Y021895D02*
X037707Y021895D01*
X037758Y021736D02*
X039163Y021736D01*
X039228Y021578D02*
X037753Y021578D01*
X037937Y021419D02*
X039367Y021419D01*
X040033Y021419D02*
X040367Y021419D01*
X040228Y021578D02*
X040172Y021578D01*
X041033Y021419D02*
X041367Y021419D01*
X041228Y021578D02*
X041172Y021578D01*
X042033Y021419D02*
X042367Y021419D01*
X042228Y021578D02*
X042172Y021578D01*
X043033Y021419D02*
X043367Y021419D01*
X043228Y021578D02*
X043172Y021578D01*
X044240Y022053D02*
X046709Y022053D01*
X046868Y022212D02*
X044240Y022212D01*
X044218Y022370D02*
X047026Y022370D01*
X047559Y022370D02*
X048026Y022370D01*
X047868Y022212D02*
X047717Y022212D01*
X048559Y022370D02*
X049779Y022370D01*
X049769Y022212D02*
X049633Y022212D01*
X049313Y022212D02*
X049273Y022212D01*
X049273Y022053D02*
X049313Y022053D01*
X049313Y021895D02*
X049273Y021895D01*
X048953Y022212D02*
X048717Y022212D01*
X049845Y022529D02*
X044145Y022529D01*
X043959Y022687D02*
X049932Y022687D01*
X050090Y022846D02*
X026360Y022846D01*
X025340Y022846D02*
X019100Y022846D01*
X019100Y022687D02*
X025182Y022687D01*
X025095Y022529D02*
X019100Y022529D01*
X019100Y022370D02*
X025029Y022370D01*
X025019Y022212D02*
X019100Y022212D01*
X019100Y022053D02*
X025019Y022053D01*
X025069Y021895D02*
X019100Y021895D01*
X019100Y021736D02*
X025134Y021736D01*
X025277Y021578D02*
X019684Y021578D01*
X019811Y021419D02*
X025515Y021419D01*
X019867Y021261D02*
X034220Y021261D01*
X036676Y019359D02*
X047204Y019359D01*
X047023Y019200D02*
X036459Y019200D01*
X036122Y019042D02*
X046952Y019042D01*
X046941Y018883D02*
X036140Y018883D01*
X036140Y018725D02*
X046986Y018725D01*
X047105Y018566D02*
X036140Y018566D01*
X036183Y018408D02*
X047162Y018408D01*
X046975Y018249D02*
X036341Y018249D01*
X036500Y018091D02*
X046902Y018091D01*
X046880Y017932D02*
X036658Y017932D01*
X036817Y017774D02*
X046900Y017774D01*
X046971Y017615D02*
X037147Y017615D01*
X037371Y017457D02*
X047152Y017457D01*
X047024Y017298D02*
X037447Y017298D01*
X037458Y017140D02*
X046922Y017140D01*
X046880Y016981D02*
X037413Y016981D01*
X037290Y016823D02*
X037651Y016823D01*
X038149Y016823D02*
X046880Y016823D01*
X046946Y016664D02*
X038299Y016664D01*
X038358Y016506D02*
X047081Y016506D01*
X047073Y016347D02*
X045790Y016347D01*
X045989Y016189D02*
X046943Y016189D01*
X046880Y016030D02*
X046054Y016030D01*
X046058Y015872D02*
X046880Y015872D01*
X046925Y015713D02*
X046006Y015713D01*
X045872Y015555D02*
X047032Y015555D01*
X047134Y015396D02*
X044966Y015396D01*
X045011Y015238D02*
X046964Y015238D01*
X046897Y015079D02*
X045032Y015079D01*
X045192Y014921D02*
X046880Y014921D01*
X046905Y014762D02*
X045353Y014762D01*
X045513Y014604D02*
X046983Y014604D01*
X047180Y014445D02*
X045674Y014445D01*
X044362Y014645D02*
X044362Y014645D01*
X044859Y015555D02*
X045328Y015555D01*
X042107Y016347D02*
X038358Y016347D01*
X038296Y016189D02*
X041839Y016189D01*
X041658Y016030D02*
X038131Y016030D01*
X037752Y015872D02*
X041592Y015872D01*
X041523Y015713D02*
X037593Y015713D01*
X037435Y015555D02*
X041364Y015555D01*
X041206Y015396D02*
X037276Y015396D01*
X037118Y015238D02*
X041047Y015238D01*
X040889Y015079D02*
X036959Y015079D01*
X036801Y014921D02*
X038530Y014921D01*
X038372Y014762D02*
X036642Y014762D01*
X036484Y014604D02*
X038213Y014604D01*
X038055Y014445D02*
X036390Y014445D01*
X036390Y014287D02*
X037896Y014287D01*
X037738Y014128D02*
X036390Y014128D01*
X036390Y013970D02*
X037579Y013970D01*
X037421Y013811D02*
X036390Y013811D01*
X036504Y013653D02*
X037262Y013653D01*
X037104Y013494D02*
X036558Y013494D01*
X036557Y013336D02*
X036945Y013336D01*
X036787Y013177D02*
X036491Y013177D01*
X029499Y012226D02*
X029263Y012226D01*
X029248Y012385D02*
X029222Y012385D01*
X029161Y012543D02*
X029122Y012543D01*
X029142Y012702D02*
X028974Y012702D01*
X029165Y012860D02*
X029179Y012860D01*
X029240Y013019D02*
X029291Y013019D01*
X022460Y014128D02*
X022315Y014128D01*
X022460Y014287D02*
X020251Y014287D01*
X020251Y014445D02*
X020337Y014445D01*
X020241Y014128D02*
X020535Y014128D01*
X020765Y014128D02*
X022085Y014128D01*
X021887Y014445D02*
X020963Y014445D01*
X020292Y013970D02*
X020108Y013970D01*
X020208Y013811D02*
X019100Y013811D01*
X019100Y013653D02*
X020192Y013653D01*
X020231Y013494D02*
X019100Y013494D01*
X019100Y013336D02*
X019292Y013336D01*
X019220Y013177D02*
X019100Y013177D01*
X019100Y013019D02*
X019220Y013019D01*
X019220Y012860D02*
X019100Y012860D01*
X019100Y012702D02*
X019220Y012702D01*
X019220Y012543D02*
X019100Y012543D01*
X019100Y012385D02*
X019220Y012385D01*
X019220Y012226D02*
X019100Y012226D01*
X019100Y012068D02*
X019220Y012068D01*
X019281Y011909D02*
X019308Y011909D01*
X019440Y011751D02*
X020619Y011751D01*
X020461Y011909D02*
X020164Y011909D01*
X020251Y012068D02*
X020302Y012068D01*
X020806Y012385D02*
X021199Y012385D01*
X021199Y012543D02*
X020647Y012543D01*
X020489Y012702D02*
X021199Y012702D01*
X021199Y012860D02*
X020330Y012860D01*
X020251Y013019D02*
X021199Y013019D01*
X021199Y013177D02*
X020251Y013177D01*
X020179Y013336D02*
X020347Y013336D01*
X020953Y013336D02*
X021271Y013336D01*
X019363Y013970D02*
X019100Y013970D01*
X019100Y014128D02*
X019231Y014128D01*
X019220Y014287D02*
X019100Y014287D01*
X019100Y014445D02*
X019220Y014445D01*
X019220Y014604D02*
X019100Y014604D01*
X019100Y014762D02*
X019220Y014762D01*
X019220Y014921D02*
X019100Y014921D01*
X019100Y015079D02*
X019220Y015079D01*
X019132Y015238D02*
X019100Y015238D01*
X020964Y012226D02*
X021199Y012226D01*
X021199Y012068D02*
X021123Y012068D01*
X020778Y011592D02*
X019598Y011592D01*
X020181Y011434D02*
X020937Y011434D01*
X019220Y011117D02*
X019100Y011117D01*
X019100Y010958D02*
X019220Y010958D01*
X019220Y010800D02*
X019100Y010800D01*
X019100Y010641D02*
X019220Y010641D01*
X019220Y010483D02*
X019100Y010483D01*
X019100Y010324D02*
X019220Y010324D01*
X019220Y010166D02*
X019100Y010166D01*
X005400Y014231D02*
X005100Y014231D01*
X005100Y018680D01*
X007070Y018680D01*
X007100Y020230D01*
X008530Y019996D02*
X008700Y020180D01*
X008530Y019000D02*
X008700Y018930D01*
X014850Y019430D02*
X014960Y019530D01*
X014850Y019430D02*
X014850Y020306D01*
X015040Y020306D01*
X014850Y020306D02*
X014838Y020306D01*
X017600Y021054D02*
X017600Y021181D01*
X039959Y022687D02*
X040441Y022687D01*
X040255Y022529D02*
X040145Y022529D01*
X040959Y022687D02*
X041441Y022687D01*
X041255Y022529D02*
X041145Y022529D01*
X041959Y022687D02*
X042441Y022687D01*
X042255Y022529D02*
X042145Y022529D01*
X042959Y022687D02*
X043441Y022687D01*
X043255Y022529D02*
X043145Y022529D01*
X046670Y020944D02*
X046683Y020944D01*
X046670Y020785D02*
X046683Y020785D01*
X046670Y020627D02*
X046683Y020627D01*
X046670Y020468D02*
X046683Y020468D01*
X046670Y020310D02*
X046702Y020310D01*
X047883Y020310D02*
X047894Y020310D01*
X048691Y020310D02*
X048894Y020310D01*
X049691Y020310D02*
X051320Y020310D01*
X051320Y020468D02*
X049850Y020468D01*
X049903Y020627D02*
X051320Y020627D01*
X051320Y020785D02*
X049903Y020785D01*
X049903Y020944D02*
X051320Y020944D01*
X051320Y021102D02*
X049827Y021102D01*
X049668Y021261D02*
X051320Y021261D01*
X051320Y021419D02*
X050935Y021419D01*
X051173Y021578D02*
X051320Y021578D01*
X051316Y021736D02*
X051320Y021736D01*
X050265Y021419D02*
X049716Y021419D01*
X049843Y021578D02*
X050027Y021578D01*
X049884Y021736D02*
X049843Y021736D01*
X050100Y019680D02*
X050100Y013180D01*
X049780Y012702D02*
X044722Y012702D01*
X046140Y011751D02*
X047182Y011751D01*
X047154Y011592D02*
X046140Y011592D01*
X046140Y011434D02*
X046204Y011434D01*
X046640Y010800D02*
X047122Y010800D01*
X046640Y010641D02*
X049780Y010641D01*
X049780Y010483D02*
X046640Y010483D01*
X046640Y010324D02*
X049780Y010324D01*
X049780Y010166D02*
X046640Y010166D01*
X046640Y010007D02*
X049780Y010007D01*
X049780Y009849D02*
X046640Y009849D01*
X046640Y009690D02*
X049780Y009690D01*
X049780Y009532D02*
X046640Y009532D01*
X048078Y010800D02*
X049780Y010800D01*
X049780Y010958D02*
X048201Y010958D01*
X048252Y011117D02*
X049780Y011117D01*
X049780Y011275D02*
X048252Y011275D01*
X048188Y011434D02*
X049780Y011434D01*
X049780Y011592D02*
X048046Y011592D01*
X048018Y011751D02*
X049780Y011751D01*
X049780Y011909D02*
X048181Y011909D01*
X048246Y012068D02*
X049780Y012068D01*
X049780Y012226D02*
X048252Y012226D01*
X048208Y012385D02*
X049780Y012385D01*
X049780Y012543D02*
X048095Y012543D01*
X047856Y007788D02*
X047344Y007788D01*
X047368Y007630D02*
X047832Y007630D01*
X046852Y007430D02*
X046616Y007430D01*
X046202Y006045D02*
X046125Y006045D01*
X045966Y005886D02*
X051320Y005886D01*
X051320Y005728D02*
X045890Y005728D01*
X047165Y004143D02*
X047201Y004143D01*
X047201Y003984D02*
X047165Y003984D01*
X047639Y003984D02*
X047855Y003984D01*
X047855Y003826D02*
X047639Y003826D01*
X047630Y003667D02*
X047870Y003667D01*
X048016Y003509D02*
X047631Y003509D01*
X048884Y003509D02*
X049060Y003509D01*
X049060Y003350D02*
X049007Y003350D01*
X049045Y003192D02*
X049060Y003192D01*
X049045Y003033D02*
X049060Y003033D01*
X049045Y002875D02*
X049060Y002875D01*
X049045Y002716D02*
X049060Y002716D01*
X049060Y002558D02*
X049034Y002558D01*
X047855Y004143D02*
X047629Y004143D01*
D27*
X023600Y020680D02*
X022550Y019630D01*
X018350Y019630D01*
X017600Y021181D02*
X019299Y021181D01*
X019350Y021180D01*
X012500Y020179D02*
X012500Y018230D01*
X007100Y018230D01*
X007100Y020230D01*
X008700Y020180D02*
X008700Y018950D01*
X008700Y018930D02*
X011350Y018930D01*
X011350Y020180D01*
X011350Y021601D01*
D28*
X019350Y021180D03*
X023600Y020680D03*
D29*
X026100Y020930D02*
X034300Y020930D01*
X035700Y022330D01*
X035650Y021880D02*
X036250Y021880D01*
X035650Y021880D02*
X034400Y020630D01*
X026500Y020630D01*
X026500Y018680D01*
X025600Y018680D01*
X025100Y018180D01*
X018600Y018180D01*
X018100Y017680D01*
X014264Y017680D01*
X014014Y017430D01*
X010600Y017430D01*
X009964Y016794D01*
X009964Y016630D01*
X011736Y016630D02*
X012686Y015680D01*
X015100Y015680D01*
X015736Y015044D01*
X015736Y014730D01*
X016686Y015680D02*
X019100Y015680D01*
X019736Y015044D01*
X019736Y014730D01*
X020650Y014780D02*
X022200Y014780D01*
X022750Y014366D02*
X022750Y012630D01*
X021714Y012630D01*
X021100Y011680D02*
X020150Y012630D01*
X019736Y012630D01*
X017964Y012630D02*
X017964Y014730D01*
X016686Y015680D02*
X015736Y016630D01*
X014600Y017430D02*
X013964Y016794D01*
X013964Y016630D01*
X014600Y017430D02*
X018264Y017430D01*
X018764Y017930D01*
X025250Y017930D01*
X025550Y018230D01*
X026800Y018230D01*
X026800Y020330D01*
X034600Y020330D01*
X034600Y020430D01*
X035650Y021530D01*
X037100Y021530D01*
X037300Y021680D01*
X037250Y021280D02*
X037550Y020980D01*
X037800Y020980D01*
X037250Y021280D02*
X035750Y021280D01*
X034850Y020380D01*
X034850Y020130D01*
X027050Y020130D01*
X027050Y017930D01*
X025600Y017930D01*
X025350Y017680D01*
X019014Y017680D01*
X017964Y016630D01*
X019736Y016630D02*
X020400Y016630D01*
X021350Y015680D01*
X024286Y015680D01*
X024986Y014730D01*
X023214Y014730D02*
X022750Y014366D01*
X022200Y013680D02*
X020650Y013680D01*
X023486Y012630D02*
X023486Y012294D01*
X024100Y011680D01*
X025536Y011680D01*
X026486Y010730D01*
X028250Y010394D02*
X028250Y018930D01*
X035850Y018930D01*
X035850Y018330D01*
X037000Y017180D01*
X037900Y016430D02*
X036100Y014630D01*
X036100Y013430D01*
X036750Y012730D02*
X038700Y014680D01*
X040900Y014680D01*
X041800Y015580D01*
X042050Y015780D01*
X042050Y015880D01*
X042350Y016180D01*
X045350Y016180D01*
X045600Y015930D01*
X042950Y015680D02*
X041700Y014430D01*
X038800Y014430D01*
X036800Y012430D01*
X030250Y012430D01*
X029550Y011730D01*
X029600Y012680D02*
X029650Y012730D01*
X036750Y012730D01*
X036100Y011930D02*
X039350Y008680D01*
X045100Y008680D01*
X045850Y009430D01*
X045850Y012180D01*
X047600Y012180D01*
X047600Y011180D02*
X046350Y011180D01*
X046350Y008930D01*
X045100Y007680D01*
X039600Y007680D01*
X036100Y011180D01*
X028250Y010394D02*
X024986Y008630D01*
X023214Y008630D02*
X022414Y009680D01*
X022350Y009680D01*
X021714Y010566D01*
X021714Y010730D01*
X021100Y011680D02*
X022536Y011680D01*
X023486Y010730D01*
X024714Y012630D02*
X025764Y013680D01*
X027100Y013680D01*
X027700Y014280D01*
X027700Y019430D01*
X035600Y019430D01*
X035700Y019530D01*
X035700Y019630D01*
X036150Y020080D01*
X036750Y020080D01*
X036300Y019630D02*
X035850Y019180D01*
X028000Y019180D01*
X028000Y014144D01*
X026486Y012630D01*
X019736Y011044D02*
X019736Y010730D01*
X019736Y011044D02*
X019100Y011680D01*
X016686Y011680D01*
X015736Y012630D01*
X015100Y011680D02*
X015736Y011044D01*
X015736Y010730D01*
X015100Y011680D02*
X012686Y011680D01*
X011736Y012630D01*
X009964Y012630D02*
X009964Y014730D01*
X011100Y015680D02*
X011736Y015044D01*
X011736Y014730D01*
X011100Y015680D02*
X008686Y015680D01*
X007736Y016630D01*
X007100Y017680D02*
X006050Y016630D01*
X005964Y016630D01*
X007100Y017680D02*
X013850Y017680D01*
X014100Y017930D01*
X017764Y017930D01*
X018264Y018430D01*
X024850Y018430D01*
X025600Y019180D01*
X026100Y019180D01*
X026100Y020930D01*
X027250Y019930D02*
X035100Y019930D01*
X035100Y020230D01*
X035750Y020880D01*
X037050Y020880D01*
X035950Y020480D02*
X035350Y019880D01*
X035350Y019680D01*
X027450Y019680D01*
X027450Y017594D01*
X027286Y017430D01*
X026100Y017430D01*
X024986Y016630D01*
X024100Y017430D02*
X023214Y016630D01*
X024100Y017430D02*
X025600Y017430D01*
X025714Y017544D01*
X025714Y017630D01*
X027050Y017630D01*
X027250Y017830D01*
X027250Y019930D01*
X018600Y019979D02*
X016450Y019979D01*
X016450Y020077D02*
X018600Y020077D01*
X018600Y020176D02*
X016450Y020176D01*
X016450Y020274D02*
X018600Y020274D01*
X018600Y020373D02*
X016450Y020373D01*
X016450Y020471D02*
X018600Y020471D01*
X018600Y020530D02*
X018600Y019030D01*
X016450Y019030D01*
X016450Y020630D01*
X014300Y020630D01*
X014300Y019030D01*
X011950Y019030D01*
X011950Y020630D01*
X013600Y020630D01*
X013600Y020730D01*
X016850Y020730D01*
X016850Y020530D01*
X018600Y020530D01*
X018600Y020980D02*
X018600Y022930D01*
X015650Y022930D01*
X015650Y020980D01*
X018600Y020980D01*
X018600Y021062D02*
X015650Y021062D01*
X015650Y021161D02*
X018600Y021161D01*
X018600Y021259D02*
X015650Y021259D01*
X015650Y021358D02*
X018600Y021358D01*
X018600Y021456D02*
X015650Y021456D01*
X015650Y021555D02*
X018600Y021555D01*
X018600Y021653D02*
X015650Y021653D01*
X015650Y021752D02*
X018600Y021752D01*
X018600Y021850D02*
X015650Y021850D01*
X015650Y021949D02*
X018600Y021949D01*
X018600Y022047D02*
X015650Y022047D01*
X015650Y022146D02*
X018600Y022146D01*
X018600Y022244D02*
X015650Y022244D01*
X015650Y022343D02*
X018600Y022343D01*
X018600Y022441D02*
X015650Y022441D01*
X015650Y022540D02*
X018600Y022540D01*
X018600Y022638D02*
X015650Y022638D01*
X015650Y022737D02*
X018600Y022737D01*
X018600Y022835D02*
X015650Y022835D01*
X015050Y022835D02*
X010950Y022835D01*
X010950Y022930D02*
X015050Y022930D01*
X015050Y020980D01*
X010950Y020980D01*
X010950Y022930D01*
X010950Y022737D02*
X015050Y022737D01*
X015050Y022638D02*
X010950Y022638D01*
X010950Y022540D02*
X015050Y022540D01*
X015050Y022441D02*
X010950Y022441D01*
X010950Y022343D02*
X015050Y022343D01*
X015050Y022244D02*
X010950Y022244D01*
X010950Y022146D02*
X015050Y022146D01*
X015050Y022047D02*
X010950Y022047D01*
X010950Y021949D02*
X015050Y021949D01*
X015050Y021850D02*
X010950Y021850D01*
X010950Y021752D02*
X015050Y021752D01*
X015050Y021653D02*
X010950Y021653D01*
X010950Y021555D02*
X015050Y021555D01*
X015050Y021456D02*
X010950Y021456D01*
X010950Y021358D02*
X015050Y021358D01*
X015050Y021259D02*
X010950Y021259D01*
X010950Y021161D02*
X015050Y021161D01*
X015050Y021062D02*
X010950Y021062D01*
X011950Y020570D02*
X014300Y020570D01*
X014300Y020471D02*
X011950Y020471D01*
X011950Y020373D02*
X014300Y020373D01*
X014300Y020274D02*
X011950Y020274D01*
X011950Y020176D02*
X014300Y020176D01*
X014300Y020077D02*
X011950Y020077D01*
X011950Y019979D02*
X014300Y019979D01*
X014300Y019880D02*
X011950Y019880D01*
X011950Y019782D02*
X014300Y019782D01*
X014300Y019683D02*
X011950Y019683D01*
X011950Y019585D02*
X014300Y019585D01*
X014300Y019486D02*
X011950Y019486D01*
X011950Y019388D02*
X014300Y019388D01*
X014300Y019289D02*
X011950Y019289D01*
X011950Y019191D02*
X014300Y019191D01*
X014300Y019092D02*
X011950Y019092D01*
X013150Y018480D02*
X013840Y018480D01*
X014960Y018480D02*
X015900Y018480D01*
X015900Y018470D01*
X016450Y019092D02*
X018600Y019092D01*
X018600Y019191D02*
X016450Y019191D01*
X016450Y019289D02*
X018600Y019289D01*
X018600Y019388D02*
X016450Y019388D01*
X016450Y019486D02*
X018600Y019486D01*
X018600Y019585D02*
X016450Y019585D01*
X016450Y019683D02*
X018600Y019683D01*
X018600Y019782D02*
X016450Y019782D01*
X016450Y019880D02*
X018600Y019880D01*
X016850Y020570D02*
X016450Y020570D01*
X016850Y020668D02*
X013600Y020668D01*
X015862Y020306D02*
X015862Y019590D01*
X015900Y019590D01*
X011350Y020080D02*
X011350Y020180D01*
X011350Y020080D02*
X010650Y020080D01*
X008700Y018950D02*
X008700Y018930D01*
X007270Y019996D02*
X007100Y020230D01*
X005964Y014730D02*
X005964Y012630D01*
X004800Y012231D02*
X004800Y013129D01*
X003900Y013129D01*
X003699Y012231D02*
X002750Y013180D01*
X002300Y013180D01*
X003699Y012231D02*
X003900Y012231D01*
X004800Y012231D01*
X004800Y011129D02*
X003900Y011129D01*
X004800Y011129D02*
X004800Y010231D01*
X003900Y010231D01*
X003100Y010180D01*
X003900Y009129D02*
X004800Y009129D01*
X004800Y009080D01*
X005400Y009080D01*
X005400Y014231D01*
X004800Y014231D01*
X003900Y014231D01*
X007736Y012630D02*
X008686Y011680D01*
X011100Y011680D01*
X011736Y011044D01*
X011736Y010730D01*
X009964Y010730D02*
X009964Y008630D01*
X011736Y008630D02*
X012686Y007680D01*
X015100Y007680D01*
X015736Y007044D01*
X015736Y006730D01*
X016786Y007580D02*
X019200Y007580D01*
X019736Y007044D01*
X019736Y006730D01*
X021400Y008630D02*
X022350Y007680D01*
X024036Y007680D01*
X024986Y006730D01*
X021400Y008630D02*
X019736Y008630D01*
X017964Y008630D02*
X017964Y010730D01*
X013964Y010730D02*
X013964Y008630D01*
X015736Y008630D02*
X016786Y007580D01*
X011736Y007044D02*
X011736Y006730D01*
X011736Y007044D02*
X011100Y007680D01*
X008686Y007680D01*
X007736Y008630D01*
X005964Y008630D02*
X005964Y010730D01*
X013964Y012630D02*
X013964Y014730D01*
X031200Y002180D02*
X049350Y002180D01*
X049350Y003930D01*
X048450Y003930D01*
X048450Y004040D01*
X048450Y003156D02*
X047183Y003156D01*
X046317Y003530D02*
X045650Y003530D01*
X045600Y003580D01*
X045600Y005930D01*
X046100Y006430D01*
X046616Y006430D01*
X048269Y008680D02*
X049100Y008680D01*
X048450Y003156D02*
X048450Y002920D01*
D30*
X029357Y002636D03*
X027757Y003586D03*
X026127Y003496D03*
X025107Y003496D03*
X024187Y003496D03*
X023807Y004346D03*
X023057Y004836D03*
X022157Y004836D03*
X025107Y004986D03*
X026157Y004986D03*
X029357Y003936D03*
X027357Y002286D03*
X026157Y001876D03*
X025117Y001876D03*
X024007Y001876D03*
X023157Y002126D03*
X022187Y002116D03*
X020857Y001636D03*
X020607Y006636D03*
X020757Y007886D03*
X018957Y008036D03*
M02*
