G75*
G70*
%OFA0B0*%
%FSLAX24Y24*%
%IPPOS*%
%LPD*%
%AMOC8*
5,1,8,0,0,1.08239X$1,22.5*
%
%ADD10C,0.1142*%
%ADD11C,0.0390*%
%ADD12C,0.0063*%
%ADD13C,0.0790*%
%ADD14C,0.1090*%
%ADD15C,0.0311*%
%ADD16C,0.0055*%
%ADD17C,0.0552*%
%ADD18C,0.0067*%
%ADD19C,0.0043*%
%ADD20R,0.0780X0.0780*%
%ADD21OC8,0.0780*%
%ADD22C,0.0634*%
%ADD23C,0.0043*%
%ADD24C,0.0390*%
%ADD25C,0.0640*%
%ADD26C,0.0476*%
%ADD27C,0.0104*%
%ADD28C,0.0047*%
%ADD29C,0.0083*%
%ADD30C,0.0050*%
%ADD31C,0.0555*%
%ADD32C,0.0594*%
D10*
X001100Y001180D03*
X025850Y001180D03*
X050600Y001180D03*
X050600Y022180D03*
X025850Y022180D03*
X001100Y022180D03*
D11*
X023334Y013772D02*
X023846Y013772D01*
X023846Y013260D02*
X023334Y013260D01*
X023334Y012749D02*
X023846Y012749D01*
X023846Y012237D02*
X023334Y012237D01*
X023334Y011725D02*
X023846Y011725D01*
X023846Y011213D02*
X023334Y011213D01*
X023334Y010701D02*
X023846Y010701D01*
X023846Y010189D02*
X023334Y010189D01*
X023334Y009678D02*
X023846Y009678D01*
X023846Y009166D02*
X023334Y009166D01*
X023334Y008654D02*
X023846Y008654D01*
X023846Y008142D02*
X023334Y008142D01*
X023334Y007630D02*
X023846Y007630D01*
X023846Y007119D02*
X023334Y007119D01*
X023334Y006607D02*
X023846Y006607D01*
X023846Y006095D02*
X023334Y006095D01*
X024338Y004481D02*
X024338Y003969D01*
X024850Y003969D02*
X024850Y004481D01*
X025362Y004481D02*
X025362Y003969D01*
X025874Y003969D02*
X025874Y004481D01*
X026385Y004481D02*
X026385Y003969D01*
X026897Y003969D02*
X026897Y004481D01*
X027409Y004481D02*
X027409Y003969D01*
X030165Y003969D02*
X030165Y004481D01*
X030677Y004481D02*
X030677Y003969D01*
X031189Y003969D02*
X031189Y004481D01*
X031700Y004481D02*
X031700Y003969D01*
X032212Y003969D02*
X032212Y004481D01*
X032724Y004481D02*
X032724Y003969D01*
X033236Y003969D02*
X033236Y004481D01*
X033748Y004481D02*
X033748Y003969D01*
X034259Y003969D02*
X034259Y004481D01*
X034751Y006095D02*
X035263Y006095D01*
X035263Y006607D02*
X034751Y006607D01*
X034751Y007119D02*
X035263Y007119D01*
X035263Y007630D02*
X034751Y007630D01*
X034751Y008142D02*
X035263Y008142D01*
X035263Y008654D02*
X034751Y008654D01*
X034751Y009166D02*
X035263Y009166D01*
X035263Y009678D02*
X034751Y009678D01*
X034751Y010189D02*
X035263Y010189D01*
X035263Y010701D02*
X034751Y010701D01*
X034751Y011213D02*
X035263Y011213D01*
X035263Y011725D02*
X034751Y011725D01*
X034751Y012237D02*
X035263Y012237D01*
X035263Y012749D02*
X034751Y012749D01*
X034751Y013260D02*
X035263Y013260D01*
X035263Y013772D02*
X034751Y013772D01*
X034259Y015386D02*
X034259Y015898D01*
X033748Y015898D02*
X033748Y015386D01*
X033236Y015386D02*
X033236Y015898D01*
X032724Y015898D02*
X032724Y015386D01*
X032212Y015386D02*
X032212Y015898D01*
X031700Y015898D02*
X031700Y015386D01*
X031189Y015386D02*
X031189Y015898D01*
X030677Y015898D02*
X030677Y015386D01*
X030165Y015386D02*
X030165Y015898D01*
X027409Y015898D02*
X027409Y015386D01*
X026897Y015386D02*
X026897Y015898D01*
X026385Y015898D02*
X026385Y015386D01*
X025874Y015386D02*
X025874Y015898D01*
X025362Y015898D02*
X025362Y015386D01*
X024850Y015386D02*
X024850Y015898D01*
X024338Y015898D02*
X024338Y015386D01*
D12*
X012862Y005694D02*
X012862Y005028D01*
X012862Y005694D02*
X013430Y005694D01*
X013430Y005028D01*
X012862Y005028D01*
X012862Y005090D02*
X013430Y005090D01*
X013430Y005152D02*
X012862Y005152D01*
X012862Y005214D02*
X013430Y005214D01*
X013430Y005276D02*
X012862Y005276D01*
X012862Y005338D02*
X013430Y005338D01*
X013430Y005400D02*
X012862Y005400D01*
X012862Y005462D02*
X013430Y005462D01*
X013430Y005524D02*
X012862Y005524D01*
X012862Y005586D02*
X013430Y005586D01*
X013430Y005648D02*
X012862Y005648D01*
X007918Y005694D02*
X007918Y005028D01*
X007918Y005694D02*
X008486Y005694D01*
X008486Y005028D01*
X007918Y005028D01*
X007918Y005090D02*
X008486Y005090D01*
X008486Y005152D02*
X007918Y005152D01*
X007918Y005214D02*
X008486Y005214D01*
X008486Y005276D02*
X007918Y005276D01*
X007918Y005338D02*
X008486Y005338D01*
X008486Y005400D02*
X007918Y005400D01*
X007918Y005462D02*
X008486Y005462D01*
X008486Y005524D02*
X007918Y005524D01*
X007918Y005586D02*
X008486Y005586D01*
X008486Y005648D02*
X007918Y005648D01*
X007918Y003127D02*
X007918Y002461D01*
X007918Y003127D02*
X008486Y003127D01*
X008486Y002461D01*
X007918Y002461D01*
X007918Y002523D02*
X008486Y002523D01*
X008486Y002585D02*
X007918Y002585D01*
X007918Y002647D02*
X008486Y002647D01*
X008486Y002709D02*
X007918Y002709D01*
X007918Y002771D02*
X008486Y002771D01*
X008486Y002833D02*
X007918Y002833D01*
X007918Y002895D02*
X008486Y002895D01*
X008486Y002957D02*
X007918Y002957D01*
X007918Y003019D02*
X008486Y003019D01*
X008486Y003081D02*
X007918Y003081D01*
X012862Y003127D02*
X012862Y002461D01*
X012862Y003127D02*
X013430Y003127D01*
X013430Y002461D01*
X012862Y002461D01*
X012862Y002523D02*
X013430Y002523D01*
X013430Y002585D02*
X012862Y002585D01*
X012862Y002647D02*
X013430Y002647D01*
X013430Y002709D02*
X012862Y002709D01*
X012862Y002771D02*
X013430Y002771D01*
X013430Y002833D02*
X012862Y002833D01*
X012862Y002895D02*
X013430Y002895D01*
X013430Y002957D02*
X012862Y002957D01*
X012862Y003019D02*
X013430Y003019D01*
X013430Y003081D02*
X012862Y003081D01*
X017977Y003600D02*
X017977Y004562D01*
X018545Y004562D01*
X018545Y003600D01*
X017977Y003600D01*
X017977Y003662D02*
X018545Y003662D01*
X018545Y003724D02*
X017977Y003724D01*
X017977Y003786D02*
X018545Y003786D01*
X018545Y003848D02*
X017977Y003848D01*
X017977Y003910D02*
X018545Y003910D01*
X018545Y003972D02*
X017977Y003972D01*
X017977Y004034D02*
X018545Y004034D01*
X018545Y004096D02*
X017977Y004096D01*
X017977Y004158D02*
X018545Y004158D01*
X018545Y004220D02*
X017977Y004220D01*
X017977Y004282D02*
X018545Y004282D01*
X018545Y004344D02*
X017977Y004344D01*
X017977Y004406D02*
X018545Y004406D01*
X018545Y004468D02*
X017977Y004468D01*
X017977Y004530D02*
X018545Y004530D01*
D13*
X020127Y004086D03*
D14*
X019124Y003082D03*
X021131Y003082D03*
X021131Y005090D03*
X019124Y005090D03*
D15*
X022096Y004165D02*
X022096Y004007D01*
X022018Y004007D01*
X022018Y004165D01*
X022096Y004165D01*
X022796Y004165D02*
X022796Y004007D01*
X022718Y004007D01*
X022718Y004165D01*
X022796Y004165D01*
X022836Y003425D02*
X022836Y003347D01*
X022678Y003347D01*
X022678Y003425D01*
X022836Y003425D01*
X022156Y003425D02*
X022156Y003347D01*
X021998Y003347D01*
X021998Y003425D01*
X022156Y003425D01*
X022156Y002725D02*
X022156Y002647D01*
X021998Y002647D01*
X021998Y002725D01*
X022156Y002725D01*
X022836Y002725D02*
X022836Y002647D01*
X022678Y002647D01*
X022678Y002725D01*
X022836Y002725D01*
D16*
X039434Y002951D02*
X039434Y003605D01*
X039434Y002951D02*
X038936Y002951D01*
X038936Y003605D01*
X039434Y003605D01*
X039434Y003005D02*
X038936Y003005D01*
X038936Y003059D02*
X039434Y003059D01*
X039434Y003113D02*
X038936Y003113D01*
X038936Y003167D02*
X039434Y003167D01*
X039434Y003221D02*
X038936Y003221D01*
X038936Y003275D02*
X039434Y003275D01*
X039434Y003329D02*
X038936Y003329D01*
X038936Y003383D02*
X039434Y003383D01*
X039434Y003437D02*
X038936Y003437D01*
X038936Y003491D02*
X039434Y003491D01*
X039434Y003545D02*
X038936Y003545D01*
X038936Y003599D02*
X039434Y003599D01*
X040434Y003605D02*
X040434Y002951D01*
X039936Y002951D01*
X039936Y003605D01*
X040434Y003605D01*
X040434Y003005D02*
X039936Y003005D01*
X039936Y003059D02*
X040434Y003059D01*
X040434Y003113D02*
X039936Y003113D01*
X039936Y003167D02*
X040434Y003167D01*
X040434Y003221D02*
X039936Y003221D01*
X039936Y003275D02*
X040434Y003275D01*
X040434Y003329D02*
X039936Y003329D01*
X039936Y003383D02*
X040434Y003383D01*
X040434Y003437D02*
X039936Y003437D01*
X039936Y003491D02*
X040434Y003491D01*
X040434Y003545D02*
X039936Y003545D01*
X039936Y003599D02*
X040434Y003599D01*
X041434Y003605D02*
X041434Y002951D01*
X040936Y002951D01*
X040936Y003605D01*
X041434Y003605D01*
X041434Y003005D02*
X040936Y003005D01*
X040936Y003059D02*
X041434Y003059D01*
X041434Y003113D02*
X040936Y003113D01*
X040936Y003167D02*
X041434Y003167D01*
X041434Y003221D02*
X040936Y003221D01*
X040936Y003275D02*
X041434Y003275D01*
X041434Y003329D02*
X040936Y003329D01*
X040936Y003383D02*
X041434Y003383D01*
X041434Y003437D02*
X040936Y003437D01*
X040936Y003491D02*
X041434Y003491D01*
X041434Y003545D02*
X040936Y003545D01*
X040936Y003599D02*
X041434Y003599D01*
X040936Y013070D02*
X040936Y013724D01*
X041434Y013724D01*
X041434Y013070D01*
X040936Y013070D01*
X040936Y013124D02*
X041434Y013124D01*
X041434Y013178D02*
X040936Y013178D01*
X040936Y013232D02*
X041434Y013232D01*
X041434Y013286D02*
X040936Y013286D01*
X040936Y013340D02*
X041434Y013340D01*
X041434Y013394D02*
X040936Y013394D01*
X040936Y013448D02*
X041434Y013448D01*
X041434Y013502D02*
X040936Y013502D01*
X040936Y013556D02*
X041434Y013556D01*
X041434Y013610D02*
X040936Y013610D01*
X040936Y013664D02*
X041434Y013664D01*
X041434Y013718D02*
X040936Y013718D01*
X039936Y013724D02*
X039936Y013070D01*
X039936Y013724D02*
X040434Y013724D01*
X040434Y013070D01*
X039936Y013070D01*
X039936Y013124D02*
X040434Y013124D01*
X040434Y013178D02*
X039936Y013178D01*
X039936Y013232D02*
X040434Y013232D01*
X040434Y013286D02*
X039936Y013286D01*
X039936Y013340D02*
X040434Y013340D01*
X040434Y013394D02*
X039936Y013394D01*
X039936Y013448D02*
X040434Y013448D01*
X040434Y013502D02*
X039936Y013502D01*
X039936Y013556D02*
X040434Y013556D01*
X040434Y013610D02*
X039936Y013610D01*
X039936Y013664D02*
X040434Y013664D01*
X040434Y013718D02*
X039936Y013718D01*
X038936Y013724D02*
X038936Y013070D01*
X038936Y013724D02*
X039434Y013724D01*
X039434Y013070D01*
X038936Y013070D01*
X038936Y013124D02*
X039434Y013124D01*
X039434Y013178D02*
X038936Y013178D01*
X038936Y013232D02*
X039434Y013232D01*
X039434Y013286D02*
X038936Y013286D01*
X038936Y013340D02*
X039434Y013340D01*
X039434Y013394D02*
X038936Y013394D01*
X038936Y013448D02*
X039434Y013448D01*
X039434Y013502D02*
X038936Y013502D01*
X038936Y013556D02*
X039434Y013556D01*
X039434Y013610D02*
X038936Y013610D01*
X038936Y013664D02*
X039434Y013664D01*
X039434Y013718D02*
X038936Y013718D01*
D17*
X037644Y012337D03*
X041644Y004337D03*
D18*
X043738Y004838D02*
X044342Y004838D01*
X043738Y004838D02*
X043738Y005522D01*
X044342Y005522D01*
X044342Y004838D01*
X044342Y004904D02*
X043738Y004904D01*
X043738Y004970D02*
X044342Y004970D01*
X044342Y005036D02*
X043738Y005036D01*
X043738Y005102D02*
X044342Y005102D01*
X044342Y005168D02*
X043738Y005168D01*
X043738Y005234D02*
X044342Y005234D01*
X044342Y005300D02*
X043738Y005300D01*
X043738Y005366D02*
X044342Y005366D01*
X044342Y005432D02*
X043738Y005432D01*
X043738Y005498D02*
X044342Y005498D01*
X044858Y004838D02*
X045462Y004838D01*
X044858Y004838D02*
X044858Y005522D01*
X045462Y005522D01*
X045462Y004838D01*
X045462Y004904D02*
X044858Y004904D01*
X044858Y004970D02*
X045462Y004970D01*
X045462Y005036D02*
X044858Y005036D01*
X044858Y005102D02*
X045462Y005102D01*
X045462Y005168D02*
X044858Y005168D01*
X044858Y005234D02*
X045462Y005234D01*
X045462Y005300D02*
X044858Y005300D01*
X044858Y005366D02*
X045462Y005366D01*
X045462Y005432D02*
X044858Y005432D01*
X044858Y005498D02*
X045462Y005498D01*
X045942Y007568D02*
X045942Y008172D01*
X045942Y007568D02*
X045258Y007568D01*
X045258Y008172D01*
X045942Y008172D01*
X045942Y007634D02*
X045258Y007634D01*
X045258Y007700D02*
X045942Y007700D01*
X045942Y007766D02*
X045258Y007766D01*
X045258Y007832D02*
X045942Y007832D01*
X045942Y007898D02*
X045258Y007898D01*
X045258Y007964D02*
X045942Y007964D01*
X045942Y008030D02*
X045258Y008030D01*
X045258Y008096D02*
X045942Y008096D01*
X045942Y008162D02*
X045258Y008162D01*
X045942Y008688D02*
X045942Y009292D01*
X045942Y008688D02*
X045258Y008688D01*
X045258Y009292D01*
X045942Y009292D01*
X045942Y008754D02*
X045258Y008754D01*
X045258Y008820D02*
X045942Y008820D01*
X045942Y008886D02*
X045258Y008886D01*
X045258Y008952D02*
X045942Y008952D01*
X045942Y009018D02*
X045258Y009018D01*
X045258Y009084D02*
X045942Y009084D01*
X045942Y009150D02*
X045258Y009150D01*
X045258Y009216D02*
X045942Y009216D01*
X045942Y009282D02*
X045258Y009282D01*
X049134Y013621D02*
X049134Y014225D01*
X049134Y013621D02*
X048452Y013621D01*
X048452Y014225D01*
X049134Y014225D01*
X049134Y013687D02*
X048452Y013687D01*
X048452Y013753D02*
X049134Y013753D01*
X049134Y013819D02*
X048452Y013819D01*
X048452Y013885D02*
X049134Y013885D01*
X049134Y013951D02*
X048452Y013951D01*
X048452Y014017D02*
X049134Y014017D01*
X049134Y014083D02*
X048452Y014083D01*
X048452Y014149D02*
X049134Y014149D01*
X049134Y014215D02*
X048452Y014215D01*
X049134Y014723D02*
X049134Y015327D01*
X049134Y014723D02*
X048452Y014723D01*
X048452Y015327D01*
X049134Y015327D01*
X049134Y014789D02*
X048452Y014789D01*
X048452Y014855D02*
X049134Y014855D01*
X049134Y014921D02*
X048452Y014921D01*
X048452Y014987D02*
X049134Y014987D01*
X049134Y015053D02*
X048452Y015053D01*
X048452Y015119D02*
X049134Y015119D01*
X049134Y015185D02*
X048452Y015185D01*
X048452Y015251D02*
X049134Y015251D01*
X049134Y015317D02*
X048452Y015317D01*
X046803Y017339D02*
X046199Y017339D01*
X046199Y018021D01*
X046803Y018021D01*
X046803Y017339D01*
X046803Y017405D02*
X046199Y017405D01*
X046199Y017471D02*
X046803Y017471D01*
X046803Y017537D02*
X046199Y017537D01*
X046199Y017603D02*
X046803Y017603D01*
X046803Y017669D02*
X046199Y017669D01*
X046199Y017735D02*
X046803Y017735D01*
X046803Y017801D02*
X046199Y017801D01*
X046199Y017867D02*
X046803Y017867D01*
X046803Y017933D02*
X046199Y017933D01*
X046199Y017999D02*
X046803Y017999D01*
X045701Y017339D02*
X045097Y017339D01*
X045097Y018021D01*
X045701Y018021D01*
X045701Y017339D01*
X045701Y017405D02*
X045097Y017405D01*
X045097Y017471D02*
X045701Y017471D01*
X045701Y017537D02*
X045097Y017537D01*
X045097Y017603D02*
X045701Y017603D01*
X045701Y017669D02*
X045097Y017669D01*
X045097Y017735D02*
X045701Y017735D01*
X045701Y017801D02*
X045097Y017801D01*
X045097Y017867D02*
X045701Y017867D01*
X045701Y017933D02*
X045097Y017933D01*
X045097Y017999D02*
X045701Y017999D01*
X045701Y018389D02*
X045097Y018389D01*
X045097Y019071D01*
X045701Y019071D01*
X045701Y018389D01*
X045701Y018455D02*
X045097Y018455D01*
X045097Y018521D02*
X045701Y018521D01*
X045701Y018587D02*
X045097Y018587D01*
X045097Y018653D02*
X045701Y018653D01*
X045701Y018719D02*
X045097Y018719D01*
X045097Y018785D02*
X045701Y018785D01*
X045701Y018851D02*
X045097Y018851D01*
X045097Y018917D02*
X045701Y018917D01*
X045701Y018983D02*
X045097Y018983D01*
X045097Y019049D02*
X045701Y019049D01*
X046199Y018389D02*
X046803Y018389D01*
X046199Y018389D02*
X046199Y019071D01*
X046803Y019071D01*
X046803Y018389D01*
X046803Y018455D02*
X046199Y018455D01*
X046199Y018521D02*
X046803Y018521D01*
X046803Y018587D02*
X046199Y018587D01*
X046199Y018653D02*
X046803Y018653D01*
X046803Y018719D02*
X046199Y018719D01*
X046199Y018785D02*
X046803Y018785D01*
X046803Y018851D02*
X046199Y018851D01*
X046199Y018917D02*
X046803Y018917D01*
X046803Y018983D02*
X046199Y018983D01*
X046199Y019049D02*
X046803Y019049D01*
X049099Y018944D02*
X049099Y019548D01*
X049099Y018944D02*
X048415Y018944D01*
X048415Y019548D01*
X049099Y019548D01*
X049099Y019010D02*
X048415Y019010D01*
X048415Y019076D02*
X049099Y019076D01*
X049099Y019142D02*
X048415Y019142D01*
X048415Y019208D02*
X049099Y019208D01*
X049099Y019274D02*
X048415Y019274D01*
X048415Y019340D02*
X049099Y019340D01*
X049099Y019406D02*
X048415Y019406D01*
X048415Y019472D02*
X049099Y019472D01*
X049099Y019538D02*
X048415Y019538D01*
X049099Y018428D02*
X049099Y017824D01*
X048415Y017824D01*
X048415Y018428D01*
X049099Y018428D01*
X049099Y017890D02*
X048415Y017890D01*
X048415Y017956D02*
X049099Y017956D01*
X049099Y018022D02*
X048415Y018022D01*
X048415Y018088D02*
X049099Y018088D01*
X049099Y018154D02*
X048415Y018154D01*
X048415Y018220D02*
X049099Y018220D01*
X049099Y018286D02*
X048415Y018286D01*
X048415Y018352D02*
X049099Y018352D01*
X049099Y018418D02*
X048415Y018418D01*
X037041Y018181D02*
X037041Y017577D01*
X036359Y017577D01*
X036359Y018181D01*
X037041Y018181D01*
X037041Y017643D02*
X036359Y017643D01*
X036359Y017709D02*
X037041Y017709D01*
X037041Y017775D02*
X036359Y017775D01*
X036359Y017841D02*
X037041Y017841D01*
X037041Y017907D02*
X036359Y017907D01*
X036359Y017973D02*
X037041Y017973D01*
X037041Y018039D02*
X036359Y018039D01*
X036359Y018105D02*
X037041Y018105D01*
X037041Y018171D02*
X036359Y018171D01*
X037041Y018679D02*
X037041Y019283D01*
X037041Y018679D02*
X036359Y018679D01*
X036359Y019283D01*
X037041Y019283D01*
X037041Y018745D02*
X036359Y018745D01*
X036359Y018811D02*
X037041Y018811D01*
X037041Y018877D02*
X036359Y018877D01*
X036359Y018943D02*
X037041Y018943D01*
X037041Y019009D02*
X036359Y019009D01*
X036359Y019075D02*
X037041Y019075D01*
X037041Y019141D02*
X036359Y019141D01*
X036359Y019207D02*
X037041Y019207D01*
X037041Y019273D02*
X036359Y019273D01*
X034442Y018192D02*
X034442Y017588D01*
X033758Y017588D01*
X033758Y018192D01*
X034442Y018192D01*
X034442Y017654D02*
X033758Y017654D01*
X033758Y017720D02*
X034442Y017720D01*
X034442Y017786D02*
X033758Y017786D01*
X033758Y017852D02*
X034442Y017852D01*
X034442Y017918D02*
X033758Y017918D01*
X033758Y017984D02*
X034442Y017984D01*
X034442Y018050D02*
X033758Y018050D01*
X033758Y018116D02*
X034442Y018116D01*
X034442Y018182D02*
X033758Y018182D01*
X033542Y018192D02*
X033542Y017588D01*
X032858Y017588D01*
X032858Y018192D01*
X033542Y018192D01*
X033542Y017654D02*
X032858Y017654D01*
X032858Y017720D02*
X033542Y017720D01*
X033542Y017786D02*
X032858Y017786D01*
X032858Y017852D02*
X033542Y017852D01*
X033542Y017918D02*
X032858Y017918D01*
X032858Y017984D02*
X033542Y017984D01*
X033542Y018050D02*
X032858Y018050D01*
X032858Y018116D02*
X033542Y018116D01*
X033542Y018182D02*
X032858Y018182D01*
X032642Y018192D02*
X032642Y017588D01*
X031958Y017588D01*
X031958Y018192D01*
X032642Y018192D01*
X032642Y017654D02*
X031958Y017654D01*
X031958Y017720D02*
X032642Y017720D01*
X032642Y017786D02*
X031958Y017786D01*
X031958Y017852D02*
X032642Y017852D01*
X032642Y017918D02*
X031958Y017918D01*
X031958Y017984D02*
X032642Y017984D01*
X032642Y018050D02*
X031958Y018050D01*
X031958Y018116D02*
X032642Y018116D01*
X032642Y018182D02*
X031958Y018182D01*
X032642Y017072D02*
X032642Y016468D01*
X031958Y016468D01*
X031958Y017072D01*
X032642Y017072D01*
X032642Y016534D02*
X031958Y016534D01*
X031958Y016600D02*
X032642Y016600D01*
X032642Y016666D02*
X031958Y016666D01*
X031958Y016732D02*
X032642Y016732D01*
X032642Y016798D02*
X031958Y016798D01*
X031958Y016864D02*
X032642Y016864D01*
X032642Y016930D02*
X031958Y016930D01*
X031958Y016996D02*
X032642Y016996D01*
X032642Y017062D02*
X031958Y017062D01*
X033542Y017072D02*
X033542Y016468D01*
X032858Y016468D01*
X032858Y017072D01*
X033542Y017072D01*
X033542Y016534D02*
X032858Y016534D01*
X032858Y016600D02*
X033542Y016600D01*
X033542Y016666D02*
X032858Y016666D01*
X032858Y016732D02*
X033542Y016732D01*
X033542Y016798D02*
X032858Y016798D01*
X032858Y016864D02*
X033542Y016864D01*
X033542Y016930D02*
X032858Y016930D01*
X032858Y016996D02*
X033542Y016996D01*
X033542Y017062D02*
X032858Y017062D01*
X034442Y017072D02*
X034442Y016468D01*
X033758Y016468D01*
X033758Y017072D01*
X034442Y017072D01*
X034442Y016534D02*
X033758Y016534D01*
X033758Y016600D02*
X034442Y016600D01*
X034442Y016666D02*
X033758Y016666D01*
X033758Y016732D02*
X034442Y016732D01*
X034442Y016798D02*
X033758Y016798D01*
X033758Y016864D02*
X034442Y016864D01*
X034442Y016930D02*
X033758Y016930D01*
X033758Y016996D02*
X034442Y016996D01*
X034442Y017062D02*
X033758Y017062D01*
X028115Y018443D02*
X026803Y018443D01*
X028115Y018443D02*
X028115Y017839D01*
X026803Y017839D01*
X026803Y018443D01*
X026803Y017905D02*
X028115Y017905D01*
X028115Y017971D02*
X026803Y017971D01*
X026803Y018037D02*
X028115Y018037D01*
X028115Y018103D02*
X026803Y018103D01*
X026803Y018169D02*
X028115Y018169D01*
X028115Y018235D02*
X026803Y018235D01*
X026803Y018301D02*
X028115Y018301D01*
X028115Y018367D02*
X026803Y018367D01*
X026803Y018433D02*
X028115Y018433D01*
X028115Y021121D02*
X026803Y021121D01*
X028115Y021121D02*
X028115Y020517D01*
X026803Y020517D01*
X026803Y021121D01*
X026803Y020583D02*
X028115Y020583D01*
X028115Y020649D02*
X026803Y020649D01*
X026803Y020715D02*
X028115Y020715D01*
X028115Y020781D02*
X026803Y020781D01*
X026803Y020847D02*
X028115Y020847D01*
X028115Y020913D02*
X026803Y020913D01*
X026803Y020979D02*
X028115Y020979D01*
X028115Y021045D02*
X026803Y021045D01*
X026803Y021111D02*
X028115Y021111D01*
X022309Y006983D02*
X022309Y006379D01*
X022309Y006983D02*
X022991Y006983D01*
X022991Y006379D01*
X022309Y006379D01*
X022309Y006445D02*
X022991Y006445D01*
X022991Y006511D02*
X022309Y006511D01*
X022309Y006577D02*
X022991Y006577D01*
X022991Y006643D02*
X022309Y006643D01*
X022309Y006709D02*
X022991Y006709D01*
X022991Y006775D02*
X022309Y006775D01*
X022309Y006841D02*
X022991Y006841D01*
X022991Y006907D02*
X022309Y006907D01*
X022309Y006973D02*
X022991Y006973D01*
X022309Y005881D02*
X022309Y005277D01*
X022309Y005881D02*
X022991Y005881D01*
X022991Y005277D01*
X022309Y005277D01*
X022309Y005343D02*
X022991Y005343D01*
X022991Y005409D02*
X022309Y005409D01*
X022309Y005475D02*
X022991Y005475D01*
X022991Y005541D02*
X022309Y005541D01*
X022309Y005607D02*
X022991Y005607D01*
X022991Y005673D02*
X022309Y005673D01*
X022309Y005739D02*
X022991Y005739D01*
X022991Y005805D02*
X022309Y005805D01*
X022309Y005871D02*
X022991Y005871D01*
X028158Y003292D02*
X028158Y002688D01*
X028158Y003292D02*
X028842Y003292D01*
X028842Y002688D01*
X028158Y002688D01*
X028158Y002754D02*
X028842Y002754D01*
X028842Y002820D02*
X028158Y002820D01*
X028158Y002886D02*
X028842Y002886D01*
X028842Y002952D02*
X028158Y002952D01*
X028158Y003018D02*
X028842Y003018D01*
X028842Y003084D02*
X028158Y003084D01*
X028158Y003150D02*
X028842Y003150D01*
X028842Y003216D02*
X028158Y003216D01*
X028158Y003282D02*
X028842Y003282D01*
X030642Y003292D02*
X030642Y002688D01*
X029958Y002688D01*
X029958Y003292D01*
X030642Y003292D01*
X030642Y002754D02*
X029958Y002754D01*
X029958Y002820D02*
X030642Y002820D01*
X030642Y002886D02*
X029958Y002886D01*
X029958Y002952D02*
X030642Y002952D01*
X030642Y003018D02*
X029958Y003018D01*
X029958Y003084D02*
X030642Y003084D01*
X030642Y003150D02*
X029958Y003150D01*
X029958Y003216D02*
X030642Y003216D01*
X030642Y003282D02*
X029958Y003282D01*
X030642Y002172D02*
X030642Y001568D01*
X029958Y001568D01*
X029958Y002172D01*
X030642Y002172D01*
X030642Y001634D02*
X029958Y001634D01*
X029958Y001700D02*
X030642Y001700D01*
X030642Y001766D02*
X029958Y001766D01*
X029958Y001832D02*
X030642Y001832D01*
X030642Y001898D02*
X029958Y001898D01*
X029958Y001964D02*
X030642Y001964D01*
X030642Y002030D02*
X029958Y002030D01*
X029958Y002096D02*
X030642Y002096D01*
X030642Y002162D02*
X029958Y002162D01*
X028158Y002172D02*
X028158Y001568D01*
X028158Y002172D02*
X028842Y002172D01*
X028842Y001568D01*
X028158Y001568D01*
X028158Y001634D02*
X028842Y001634D01*
X028842Y001700D02*
X028158Y001700D01*
X028158Y001766D02*
X028842Y001766D01*
X028842Y001832D02*
X028158Y001832D01*
X028158Y001898D02*
X028842Y001898D01*
X028842Y001964D02*
X028158Y001964D01*
X028158Y002030D02*
X028842Y002030D01*
X028842Y002096D02*
X028158Y002096D01*
X028158Y002162D02*
X028842Y002162D01*
D19*
X038396Y016687D02*
X038570Y016687D01*
X038570Y016119D01*
X038396Y016119D01*
X038396Y016687D01*
X038396Y016161D02*
X038570Y016161D01*
X038570Y016203D02*
X038396Y016203D01*
X038396Y016245D02*
X038570Y016245D01*
X038570Y016287D02*
X038396Y016287D01*
X038396Y016329D02*
X038570Y016329D01*
X038570Y016371D02*
X038396Y016371D01*
X038396Y016413D02*
X038570Y016413D01*
X038570Y016455D02*
X038396Y016455D01*
X038396Y016497D02*
X038570Y016497D01*
X038570Y016539D02*
X038396Y016539D01*
X038396Y016581D02*
X038570Y016581D01*
X038570Y016623D02*
X038396Y016623D01*
X038396Y016665D02*
X038570Y016665D01*
X038711Y016687D02*
X038885Y016687D01*
X038885Y016119D01*
X038711Y016119D01*
X038711Y016687D01*
X038711Y016161D02*
X038885Y016161D01*
X038885Y016203D02*
X038711Y016203D01*
X038711Y016245D02*
X038885Y016245D01*
X038885Y016287D02*
X038711Y016287D01*
X038711Y016329D02*
X038885Y016329D01*
X038885Y016371D02*
X038711Y016371D01*
X038711Y016413D02*
X038885Y016413D01*
X038885Y016455D02*
X038711Y016455D01*
X038711Y016497D02*
X038885Y016497D01*
X038885Y016539D02*
X038711Y016539D01*
X038711Y016581D02*
X038885Y016581D01*
X038885Y016623D02*
X038711Y016623D01*
X038711Y016665D02*
X038885Y016665D01*
X039026Y016687D02*
X039200Y016687D01*
X039200Y016119D01*
X039026Y016119D01*
X039026Y016687D01*
X039026Y016161D02*
X039200Y016161D01*
X039200Y016203D02*
X039026Y016203D01*
X039026Y016245D02*
X039200Y016245D01*
X039200Y016287D02*
X039026Y016287D01*
X039026Y016329D02*
X039200Y016329D01*
X039200Y016371D02*
X039026Y016371D01*
X039026Y016413D02*
X039200Y016413D01*
X039200Y016455D02*
X039026Y016455D01*
X039026Y016497D02*
X039200Y016497D01*
X039200Y016539D02*
X039026Y016539D01*
X039026Y016581D02*
X039200Y016581D01*
X039200Y016623D02*
X039026Y016623D01*
X039026Y016665D02*
X039200Y016665D01*
X039341Y016687D02*
X039515Y016687D01*
X039515Y016119D01*
X039341Y016119D01*
X039341Y016687D01*
X039341Y016161D02*
X039515Y016161D01*
X039515Y016203D02*
X039341Y016203D01*
X039341Y016245D02*
X039515Y016245D01*
X039515Y016287D02*
X039341Y016287D01*
X039341Y016329D02*
X039515Y016329D01*
X039515Y016371D02*
X039341Y016371D01*
X039341Y016413D02*
X039515Y016413D01*
X039515Y016455D02*
X039341Y016455D01*
X039341Y016497D02*
X039515Y016497D01*
X039515Y016539D02*
X039341Y016539D01*
X039341Y016581D02*
X039515Y016581D01*
X039515Y016623D02*
X039341Y016623D01*
X039341Y016665D02*
X039515Y016665D01*
X039656Y016687D02*
X039830Y016687D01*
X039830Y016119D01*
X039656Y016119D01*
X039656Y016687D01*
X039656Y016161D02*
X039830Y016161D01*
X039830Y016203D02*
X039656Y016203D01*
X039656Y016245D02*
X039830Y016245D01*
X039830Y016287D02*
X039656Y016287D01*
X039656Y016329D02*
X039830Y016329D01*
X039830Y016371D02*
X039656Y016371D01*
X039656Y016413D02*
X039830Y016413D01*
X039830Y016455D02*
X039656Y016455D01*
X039656Y016497D02*
X039830Y016497D01*
X039830Y016539D02*
X039656Y016539D01*
X039656Y016581D02*
X039830Y016581D01*
X039830Y016623D02*
X039656Y016623D01*
X039656Y016665D02*
X039830Y016665D01*
X039970Y016687D02*
X040144Y016687D01*
X040144Y016119D01*
X039970Y016119D01*
X039970Y016687D01*
X039970Y016161D02*
X040144Y016161D01*
X040144Y016203D02*
X039970Y016203D01*
X039970Y016245D02*
X040144Y016245D01*
X040144Y016287D02*
X039970Y016287D01*
X039970Y016329D02*
X040144Y016329D01*
X040144Y016371D02*
X039970Y016371D01*
X039970Y016413D02*
X040144Y016413D01*
X040144Y016455D02*
X039970Y016455D01*
X039970Y016497D02*
X040144Y016497D01*
X040144Y016539D02*
X039970Y016539D01*
X039970Y016581D02*
X040144Y016581D01*
X040144Y016623D02*
X039970Y016623D01*
X039970Y016665D02*
X040144Y016665D01*
X040285Y016687D02*
X040459Y016687D01*
X040459Y016119D01*
X040285Y016119D01*
X040285Y016687D01*
X040285Y016161D02*
X040459Y016161D01*
X040459Y016203D02*
X040285Y016203D01*
X040285Y016245D02*
X040459Y016245D01*
X040459Y016287D02*
X040285Y016287D01*
X040285Y016329D02*
X040459Y016329D01*
X040459Y016371D02*
X040285Y016371D01*
X040285Y016413D02*
X040459Y016413D01*
X040459Y016455D02*
X040285Y016455D01*
X040285Y016497D02*
X040459Y016497D01*
X040459Y016539D02*
X040285Y016539D01*
X040285Y016581D02*
X040459Y016581D01*
X040459Y016623D02*
X040285Y016623D01*
X040285Y016665D02*
X040459Y016665D01*
X040600Y016687D02*
X040774Y016687D01*
X040774Y016119D01*
X040600Y016119D01*
X040600Y016687D01*
X040600Y016161D02*
X040774Y016161D01*
X040774Y016203D02*
X040600Y016203D01*
X040600Y016245D02*
X040774Y016245D01*
X040774Y016287D02*
X040600Y016287D01*
X040600Y016329D02*
X040774Y016329D01*
X040774Y016371D02*
X040600Y016371D01*
X040600Y016413D02*
X040774Y016413D01*
X040774Y016455D02*
X040600Y016455D01*
X040600Y016497D02*
X040774Y016497D01*
X040774Y016539D02*
X040600Y016539D01*
X040600Y016581D02*
X040774Y016581D01*
X040774Y016623D02*
X040600Y016623D01*
X040600Y016665D02*
X040774Y016665D01*
X040915Y016687D02*
X041089Y016687D01*
X041089Y016119D01*
X040915Y016119D01*
X040915Y016687D01*
X040915Y016161D02*
X041089Y016161D01*
X041089Y016203D02*
X040915Y016203D01*
X040915Y016245D02*
X041089Y016245D01*
X041089Y016287D02*
X040915Y016287D01*
X040915Y016329D02*
X041089Y016329D01*
X041089Y016371D02*
X040915Y016371D01*
X040915Y016413D02*
X041089Y016413D01*
X041089Y016455D02*
X040915Y016455D01*
X040915Y016497D02*
X041089Y016497D01*
X041089Y016539D02*
X040915Y016539D01*
X040915Y016581D02*
X041089Y016581D01*
X041089Y016623D02*
X040915Y016623D01*
X040915Y016665D02*
X041089Y016665D01*
X041230Y016687D02*
X041404Y016687D01*
X041404Y016119D01*
X041230Y016119D01*
X041230Y016687D01*
X041230Y016161D02*
X041404Y016161D01*
X041404Y016203D02*
X041230Y016203D01*
X041230Y016245D02*
X041404Y016245D01*
X041404Y016287D02*
X041230Y016287D01*
X041230Y016329D02*
X041404Y016329D01*
X041404Y016371D02*
X041230Y016371D01*
X041230Y016413D02*
X041404Y016413D01*
X041404Y016455D02*
X041230Y016455D01*
X041230Y016497D02*
X041404Y016497D01*
X041404Y016539D02*
X041230Y016539D01*
X041230Y016581D02*
X041404Y016581D01*
X041404Y016623D02*
X041230Y016623D01*
X041230Y016665D02*
X041404Y016665D01*
X041545Y016687D02*
X041719Y016687D01*
X041719Y016119D01*
X041545Y016119D01*
X041545Y016687D01*
X041545Y016161D02*
X041719Y016161D01*
X041719Y016203D02*
X041545Y016203D01*
X041545Y016245D02*
X041719Y016245D01*
X041719Y016287D02*
X041545Y016287D01*
X041545Y016329D02*
X041719Y016329D01*
X041719Y016371D02*
X041545Y016371D01*
X041545Y016413D02*
X041719Y016413D01*
X041719Y016455D02*
X041545Y016455D01*
X041545Y016497D02*
X041719Y016497D01*
X041719Y016539D02*
X041545Y016539D01*
X041545Y016581D02*
X041719Y016581D01*
X041719Y016623D02*
X041545Y016623D01*
X041545Y016665D02*
X041719Y016665D01*
X042057Y017198D02*
X042625Y017198D01*
X042625Y017024D01*
X042057Y017024D01*
X042057Y017198D01*
X042057Y017066D02*
X042625Y017066D01*
X042625Y017108D02*
X042057Y017108D01*
X042057Y017150D02*
X042625Y017150D01*
X042625Y017192D02*
X042057Y017192D01*
X042057Y017513D02*
X042625Y017513D01*
X042625Y017339D01*
X042057Y017339D01*
X042057Y017513D01*
X042057Y017381D02*
X042625Y017381D01*
X042625Y017423D02*
X042057Y017423D01*
X042057Y017465D02*
X042625Y017465D01*
X042625Y017507D02*
X042057Y017507D01*
X042057Y017828D02*
X042625Y017828D01*
X042625Y017654D01*
X042057Y017654D01*
X042057Y017828D01*
X042057Y017696D02*
X042625Y017696D01*
X042625Y017738D02*
X042057Y017738D01*
X042057Y017780D02*
X042625Y017780D01*
X042625Y017822D02*
X042057Y017822D01*
X042057Y018143D02*
X042625Y018143D01*
X042625Y017969D01*
X042057Y017969D01*
X042057Y018143D01*
X042057Y018011D02*
X042625Y018011D01*
X042625Y018053D02*
X042057Y018053D01*
X042057Y018095D02*
X042625Y018095D01*
X042625Y018137D02*
X042057Y018137D01*
X042057Y018458D02*
X042625Y018458D01*
X042625Y018284D01*
X042057Y018284D01*
X042057Y018458D01*
X042057Y018326D02*
X042625Y018326D01*
X042625Y018368D02*
X042057Y018368D01*
X042057Y018410D02*
X042625Y018410D01*
X042625Y018452D02*
X042057Y018452D01*
X042057Y018773D02*
X042625Y018773D01*
X042625Y018599D01*
X042057Y018599D01*
X042057Y018773D01*
X042057Y018641D02*
X042625Y018641D01*
X042625Y018683D02*
X042057Y018683D01*
X042057Y018725D02*
X042625Y018725D01*
X042625Y018767D02*
X042057Y018767D01*
X042057Y019088D02*
X042625Y019088D01*
X042625Y018914D01*
X042057Y018914D01*
X042057Y019088D01*
X042057Y018956D02*
X042625Y018956D01*
X042625Y018998D02*
X042057Y018998D01*
X042057Y019040D02*
X042625Y019040D01*
X042625Y019082D02*
X042057Y019082D01*
X042057Y019403D02*
X042625Y019403D01*
X042625Y019229D01*
X042057Y019229D01*
X042057Y019403D01*
X042057Y019271D02*
X042625Y019271D01*
X042625Y019313D02*
X042057Y019313D01*
X042057Y019355D02*
X042625Y019355D01*
X042625Y019397D02*
X042057Y019397D01*
X042057Y019718D02*
X042625Y019718D01*
X042625Y019544D01*
X042057Y019544D01*
X042057Y019718D01*
X042057Y019586D02*
X042625Y019586D01*
X042625Y019628D02*
X042057Y019628D01*
X042057Y019670D02*
X042625Y019670D01*
X042625Y019712D02*
X042057Y019712D01*
X042057Y020033D02*
X042625Y020033D01*
X042625Y019859D01*
X042057Y019859D01*
X042057Y020033D01*
X042057Y019901D02*
X042625Y019901D01*
X042625Y019943D02*
X042057Y019943D01*
X042057Y019985D02*
X042625Y019985D01*
X042625Y020027D02*
X042057Y020027D01*
X042057Y020348D02*
X042625Y020348D01*
X042625Y020174D01*
X042057Y020174D01*
X042057Y020348D01*
X042057Y020216D02*
X042625Y020216D01*
X042625Y020258D02*
X042057Y020258D01*
X042057Y020300D02*
X042625Y020300D01*
X042625Y020342D02*
X042057Y020342D01*
X041719Y021254D02*
X041545Y021254D01*
X041719Y021254D02*
X041719Y020686D01*
X041545Y020686D01*
X041545Y021254D01*
X041545Y020728D02*
X041719Y020728D01*
X041719Y020770D02*
X041545Y020770D01*
X041545Y020812D02*
X041719Y020812D01*
X041719Y020854D02*
X041545Y020854D01*
X041545Y020896D02*
X041719Y020896D01*
X041719Y020938D02*
X041545Y020938D01*
X041545Y020980D02*
X041719Y020980D01*
X041719Y021022D02*
X041545Y021022D01*
X041545Y021064D02*
X041719Y021064D01*
X041719Y021106D02*
X041545Y021106D01*
X041545Y021148D02*
X041719Y021148D01*
X041719Y021190D02*
X041545Y021190D01*
X041545Y021232D02*
X041719Y021232D01*
X041404Y021254D02*
X041230Y021254D01*
X041404Y021254D02*
X041404Y020686D01*
X041230Y020686D01*
X041230Y021254D01*
X041230Y020728D02*
X041404Y020728D01*
X041404Y020770D02*
X041230Y020770D01*
X041230Y020812D02*
X041404Y020812D01*
X041404Y020854D02*
X041230Y020854D01*
X041230Y020896D02*
X041404Y020896D01*
X041404Y020938D02*
X041230Y020938D01*
X041230Y020980D02*
X041404Y020980D01*
X041404Y021022D02*
X041230Y021022D01*
X041230Y021064D02*
X041404Y021064D01*
X041404Y021106D02*
X041230Y021106D01*
X041230Y021148D02*
X041404Y021148D01*
X041404Y021190D02*
X041230Y021190D01*
X041230Y021232D02*
X041404Y021232D01*
X041089Y021254D02*
X040915Y021254D01*
X041089Y021254D02*
X041089Y020686D01*
X040915Y020686D01*
X040915Y021254D01*
X040915Y020728D02*
X041089Y020728D01*
X041089Y020770D02*
X040915Y020770D01*
X040915Y020812D02*
X041089Y020812D01*
X041089Y020854D02*
X040915Y020854D01*
X040915Y020896D02*
X041089Y020896D01*
X041089Y020938D02*
X040915Y020938D01*
X040915Y020980D02*
X041089Y020980D01*
X041089Y021022D02*
X040915Y021022D01*
X040915Y021064D02*
X041089Y021064D01*
X041089Y021106D02*
X040915Y021106D01*
X040915Y021148D02*
X041089Y021148D01*
X041089Y021190D02*
X040915Y021190D01*
X040915Y021232D02*
X041089Y021232D01*
X040774Y021254D02*
X040600Y021254D01*
X040774Y021254D02*
X040774Y020686D01*
X040600Y020686D01*
X040600Y021254D01*
X040600Y020728D02*
X040774Y020728D01*
X040774Y020770D02*
X040600Y020770D01*
X040600Y020812D02*
X040774Y020812D01*
X040774Y020854D02*
X040600Y020854D01*
X040600Y020896D02*
X040774Y020896D01*
X040774Y020938D02*
X040600Y020938D01*
X040600Y020980D02*
X040774Y020980D01*
X040774Y021022D02*
X040600Y021022D01*
X040600Y021064D02*
X040774Y021064D01*
X040774Y021106D02*
X040600Y021106D01*
X040600Y021148D02*
X040774Y021148D01*
X040774Y021190D02*
X040600Y021190D01*
X040600Y021232D02*
X040774Y021232D01*
X040459Y021254D02*
X040285Y021254D01*
X040459Y021254D02*
X040459Y020686D01*
X040285Y020686D01*
X040285Y021254D01*
X040285Y020728D02*
X040459Y020728D01*
X040459Y020770D02*
X040285Y020770D01*
X040285Y020812D02*
X040459Y020812D01*
X040459Y020854D02*
X040285Y020854D01*
X040285Y020896D02*
X040459Y020896D01*
X040459Y020938D02*
X040285Y020938D01*
X040285Y020980D02*
X040459Y020980D01*
X040459Y021022D02*
X040285Y021022D01*
X040285Y021064D02*
X040459Y021064D01*
X040459Y021106D02*
X040285Y021106D01*
X040285Y021148D02*
X040459Y021148D01*
X040459Y021190D02*
X040285Y021190D01*
X040285Y021232D02*
X040459Y021232D01*
X040144Y021254D02*
X039970Y021254D01*
X040144Y021254D02*
X040144Y020686D01*
X039970Y020686D01*
X039970Y021254D01*
X039970Y020728D02*
X040144Y020728D01*
X040144Y020770D02*
X039970Y020770D01*
X039970Y020812D02*
X040144Y020812D01*
X040144Y020854D02*
X039970Y020854D01*
X039970Y020896D02*
X040144Y020896D01*
X040144Y020938D02*
X039970Y020938D01*
X039970Y020980D02*
X040144Y020980D01*
X040144Y021022D02*
X039970Y021022D01*
X039970Y021064D02*
X040144Y021064D01*
X040144Y021106D02*
X039970Y021106D01*
X039970Y021148D02*
X040144Y021148D01*
X040144Y021190D02*
X039970Y021190D01*
X039970Y021232D02*
X040144Y021232D01*
X039830Y021254D02*
X039656Y021254D01*
X039830Y021254D02*
X039830Y020686D01*
X039656Y020686D01*
X039656Y021254D01*
X039656Y020728D02*
X039830Y020728D01*
X039830Y020770D02*
X039656Y020770D01*
X039656Y020812D02*
X039830Y020812D01*
X039830Y020854D02*
X039656Y020854D01*
X039656Y020896D02*
X039830Y020896D01*
X039830Y020938D02*
X039656Y020938D01*
X039656Y020980D02*
X039830Y020980D01*
X039830Y021022D02*
X039656Y021022D01*
X039656Y021064D02*
X039830Y021064D01*
X039830Y021106D02*
X039656Y021106D01*
X039656Y021148D02*
X039830Y021148D01*
X039830Y021190D02*
X039656Y021190D01*
X039656Y021232D02*
X039830Y021232D01*
X039515Y021254D02*
X039341Y021254D01*
X039515Y021254D02*
X039515Y020686D01*
X039341Y020686D01*
X039341Y021254D01*
X039341Y020728D02*
X039515Y020728D01*
X039515Y020770D02*
X039341Y020770D01*
X039341Y020812D02*
X039515Y020812D01*
X039515Y020854D02*
X039341Y020854D01*
X039341Y020896D02*
X039515Y020896D01*
X039515Y020938D02*
X039341Y020938D01*
X039341Y020980D02*
X039515Y020980D01*
X039515Y021022D02*
X039341Y021022D01*
X039341Y021064D02*
X039515Y021064D01*
X039515Y021106D02*
X039341Y021106D01*
X039341Y021148D02*
X039515Y021148D01*
X039515Y021190D02*
X039341Y021190D01*
X039341Y021232D02*
X039515Y021232D01*
X039200Y021254D02*
X039026Y021254D01*
X039200Y021254D02*
X039200Y020686D01*
X039026Y020686D01*
X039026Y021254D01*
X039026Y020728D02*
X039200Y020728D01*
X039200Y020770D02*
X039026Y020770D01*
X039026Y020812D02*
X039200Y020812D01*
X039200Y020854D02*
X039026Y020854D01*
X039026Y020896D02*
X039200Y020896D01*
X039200Y020938D02*
X039026Y020938D01*
X039026Y020980D02*
X039200Y020980D01*
X039200Y021022D02*
X039026Y021022D01*
X039026Y021064D02*
X039200Y021064D01*
X039200Y021106D02*
X039026Y021106D01*
X039026Y021148D02*
X039200Y021148D01*
X039200Y021190D02*
X039026Y021190D01*
X039026Y021232D02*
X039200Y021232D01*
X038885Y021254D02*
X038711Y021254D01*
X038885Y021254D02*
X038885Y020686D01*
X038711Y020686D01*
X038711Y021254D01*
X038711Y020728D02*
X038885Y020728D01*
X038885Y020770D02*
X038711Y020770D01*
X038711Y020812D02*
X038885Y020812D01*
X038885Y020854D02*
X038711Y020854D01*
X038711Y020896D02*
X038885Y020896D01*
X038885Y020938D02*
X038711Y020938D01*
X038711Y020980D02*
X038885Y020980D01*
X038885Y021022D02*
X038711Y021022D01*
X038711Y021064D02*
X038885Y021064D01*
X038885Y021106D02*
X038711Y021106D01*
X038711Y021148D02*
X038885Y021148D01*
X038885Y021190D02*
X038711Y021190D01*
X038711Y021232D02*
X038885Y021232D01*
X038570Y021254D02*
X038396Y021254D01*
X038570Y021254D02*
X038570Y020686D01*
X038396Y020686D01*
X038396Y021254D01*
X038396Y020728D02*
X038570Y020728D01*
X038570Y020770D02*
X038396Y020770D01*
X038396Y020812D02*
X038570Y020812D01*
X038570Y020854D02*
X038396Y020854D01*
X038396Y020896D02*
X038570Y020896D01*
X038570Y020938D02*
X038396Y020938D01*
X038396Y020980D02*
X038570Y020980D01*
X038570Y021022D02*
X038396Y021022D01*
X038396Y021064D02*
X038570Y021064D01*
X038570Y021106D02*
X038396Y021106D01*
X038396Y021148D02*
X038570Y021148D01*
X038570Y021190D02*
X038396Y021190D01*
X038396Y021232D02*
X038570Y021232D01*
X038058Y020348D02*
X037490Y020348D01*
X038058Y020348D02*
X038058Y020174D01*
X037490Y020174D01*
X037490Y020348D01*
X037490Y020216D02*
X038058Y020216D01*
X038058Y020258D02*
X037490Y020258D01*
X037490Y020300D02*
X038058Y020300D01*
X038058Y020342D02*
X037490Y020342D01*
X037490Y020033D02*
X038058Y020033D01*
X038058Y019859D01*
X037490Y019859D01*
X037490Y020033D01*
X037490Y019901D02*
X038058Y019901D01*
X038058Y019943D02*
X037490Y019943D01*
X037490Y019985D02*
X038058Y019985D01*
X038058Y020027D02*
X037490Y020027D01*
X037490Y019718D02*
X038058Y019718D01*
X038058Y019544D01*
X037490Y019544D01*
X037490Y019718D01*
X037490Y019586D02*
X038058Y019586D01*
X038058Y019628D02*
X037490Y019628D01*
X037490Y019670D02*
X038058Y019670D01*
X038058Y019712D02*
X037490Y019712D01*
X037490Y019403D02*
X038058Y019403D01*
X038058Y019229D01*
X037490Y019229D01*
X037490Y019403D01*
X037490Y019271D02*
X038058Y019271D01*
X038058Y019313D02*
X037490Y019313D01*
X037490Y019355D02*
X038058Y019355D01*
X038058Y019397D02*
X037490Y019397D01*
X037490Y019088D02*
X038058Y019088D01*
X038058Y018914D01*
X037490Y018914D01*
X037490Y019088D01*
X037490Y018956D02*
X038058Y018956D01*
X038058Y018998D02*
X037490Y018998D01*
X037490Y019040D02*
X038058Y019040D01*
X038058Y019082D02*
X037490Y019082D01*
X037490Y018773D02*
X038058Y018773D01*
X038058Y018599D01*
X037490Y018599D01*
X037490Y018773D01*
X037490Y018641D02*
X038058Y018641D01*
X038058Y018683D02*
X037490Y018683D01*
X037490Y018725D02*
X038058Y018725D01*
X038058Y018767D02*
X037490Y018767D01*
X037490Y018458D02*
X038058Y018458D01*
X038058Y018284D01*
X037490Y018284D01*
X037490Y018458D01*
X037490Y018326D02*
X038058Y018326D01*
X038058Y018368D02*
X037490Y018368D01*
X037490Y018410D02*
X038058Y018410D01*
X038058Y018452D02*
X037490Y018452D01*
X037490Y018143D02*
X038058Y018143D01*
X038058Y017969D01*
X037490Y017969D01*
X037490Y018143D01*
X037490Y018011D02*
X038058Y018011D01*
X038058Y018053D02*
X037490Y018053D01*
X037490Y018095D02*
X038058Y018095D01*
X038058Y018137D02*
X037490Y018137D01*
X037490Y017828D02*
X038058Y017828D01*
X038058Y017654D01*
X037490Y017654D01*
X037490Y017828D01*
X037490Y017696D02*
X038058Y017696D01*
X038058Y017738D02*
X037490Y017738D01*
X037490Y017780D02*
X038058Y017780D01*
X038058Y017822D02*
X037490Y017822D01*
X037490Y017513D02*
X038058Y017513D01*
X038058Y017339D01*
X037490Y017339D01*
X037490Y017513D01*
X037490Y017381D02*
X038058Y017381D01*
X038058Y017423D02*
X037490Y017423D01*
X037490Y017465D02*
X038058Y017465D01*
X038058Y017507D02*
X037490Y017507D01*
X037490Y017198D02*
X038058Y017198D01*
X038058Y017024D01*
X037490Y017024D01*
X037490Y017198D01*
X037490Y017066D02*
X038058Y017066D01*
X038058Y017108D02*
X037490Y017108D01*
X037490Y017150D02*
X038058Y017150D01*
X038058Y017192D02*
X037490Y017192D01*
D20*
X047293Y020774D03*
D21*
X048293Y020774D03*
X049293Y020774D03*
X049293Y021774D03*
X048293Y021774D03*
X047293Y021774D03*
D22*
X044474Y015180D03*
X044474Y014180D03*
X044474Y013180D03*
X044474Y012180D03*
X044474Y011180D03*
X044474Y010180D03*
X044474Y009180D03*
X044474Y008180D03*
X028726Y008180D03*
X028726Y009180D03*
X028726Y010180D03*
X028726Y011180D03*
X028726Y012180D03*
X028726Y013180D03*
X028726Y014180D03*
X028726Y015180D03*
D23*
X035336Y014788D02*
X035726Y014788D01*
X035336Y014788D02*
X035336Y015572D01*
X035726Y015572D01*
X035726Y014788D01*
X035726Y014830D02*
X035336Y014830D01*
X035336Y014872D02*
X035726Y014872D01*
X035726Y014914D02*
X035336Y014914D01*
X035336Y014956D02*
X035726Y014956D01*
X035726Y014998D02*
X035336Y014998D01*
X035336Y015040D02*
X035726Y015040D01*
X035726Y015082D02*
X035336Y015082D01*
X035336Y015124D02*
X035726Y015124D01*
X035726Y015166D02*
X035336Y015166D01*
X035336Y015208D02*
X035726Y015208D01*
X035726Y015250D02*
X035336Y015250D01*
X035336Y015292D02*
X035726Y015292D01*
X035726Y015334D02*
X035336Y015334D01*
X035336Y015376D02*
X035726Y015376D01*
X035726Y015418D02*
X035336Y015418D01*
X035336Y015460D02*
X035726Y015460D01*
X035726Y015502D02*
X035336Y015502D01*
X035336Y015544D02*
X035726Y015544D01*
X028603Y018891D02*
X028603Y019281D01*
X030411Y019281D01*
X030411Y018891D01*
X028603Y018891D01*
X028603Y018933D02*
X030411Y018933D01*
X030411Y018975D02*
X028603Y018975D01*
X028603Y019017D02*
X030411Y019017D01*
X030411Y019059D02*
X028603Y019059D01*
X028603Y019101D02*
X030411Y019101D01*
X030411Y019143D02*
X028603Y019143D01*
X028603Y019185D02*
X030411Y019185D01*
X030411Y019227D02*
X028603Y019227D01*
X028603Y019269D02*
X030411Y019269D01*
X028603Y019679D02*
X028603Y020069D01*
X030411Y020069D01*
X030411Y019679D01*
X028603Y019679D01*
X028603Y019721D02*
X030411Y019721D01*
X030411Y019763D02*
X028603Y019763D01*
X028603Y019805D02*
X030411Y019805D01*
X030411Y019847D02*
X028603Y019847D01*
X028603Y019889D02*
X030411Y019889D01*
X030411Y019931D02*
X028603Y019931D01*
X028603Y019973D02*
X030411Y019973D01*
X030411Y020015D02*
X028603Y020015D01*
X028603Y020057D02*
X030411Y020057D01*
X044941Y007249D02*
X044941Y006859D01*
X044393Y006859D01*
X044393Y007249D01*
X044941Y007249D01*
X044941Y006901D02*
X044393Y006901D01*
X044393Y006943D02*
X044941Y006943D01*
X044941Y006985D02*
X044393Y006985D01*
X044393Y007027D02*
X044941Y007027D01*
X044941Y007069D02*
X044393Y007069D01*
X044393Y007111D02*
X044941Y007111D01*
X044941Y007153D02*
X044393Y007153D01*
X044393Y007195D02*
X044941Y007195D01*
X044941Y007237D02*
X044393Y007237D01*
X045807Y006875D02*
X045807Y006485D01*
X045259Y006485D01*
X045259Y006875D01*
X045807Y006875D01*
X045807Y006527D02*
X045259Y006527D01*
X045259Y006569D02*
X045807Y006569D01*
X045807Y006611D02*
X045259Y006611D01*
X045259Y006653D02*
X045807Y006653D01*
X045807Y006695D02*
X045259Y006695D01*
X045259Y006737D02*
X045807Y006737D01*
X045807Y006779D02*
X045259Y006779D01*
X045259Y006821D02*
X045807Y006821D01*
X045807Y006863D02*
X045259Y006863D01*
X044941Y006501D02*
X044941Y006111D01*
X044393Y006111D01*
X044393Y006501D01*
X044941Y006501D01*
X044941Y006153D02*
X044393Y006153D01*
X044393Y006195D02*
X044941Y006195D01*
X044941Y006237D02*
X044393Y006237D01*
X044393Y006279D02*
X044941Y006279D01*
X044941Y006321D02*
X044393Y006321D01*
X044393Y006363D02*
X044941Y006363D01*
X044941Y006405D02*
X044393Y006405D01*
X044393Y006447D02*
X044941Y006447D01*
X044941Y006489D02*
X044393Y006489D01*
D24*
X008766Y020980D03*
X007034Y020980D03*
D25*
X039700Y021850D02*
X039700Y022210D01*
X040700Y022210D02*
X040700Y021850D01*
X041700Y021850D02*
X041700Y022210D01*
X042700Y022210D02*
X042700Y021850D01*
X043700Y021850D02*
X043700Y022210D01*
X047420Y018930D02*
X047780Y018930D01*
X047780Y017930D02*
X047420Y017930D01*
X047420Y016930D02*
X047780Y016930D01*
X047780Y015930D02*
X047420Y015930D01*
X047420Y014930D02*
X047780Y014930D01*
X047780Y013930D02*
X047420Y013930D01*
D26*
X001706Y012054D03*
X001706Y011306D03*
D27*
X018680Y006231D02*
X019620Y006231D01*
X018680Y006231D02*
X018680Y007229D01*
X019620Y007229D01*
X019620Y006231D01*
X019620Y006334D02*
X018680Y006334D01*
X018680Y006437D02*
X019620Y006437D01*
X019620Y006540D02*
X018680Y006540D01*
X018680Y006643D02*
X019620Y006643D01*
X019620Y006746D02*
X018680Y006746D01*
X018680Y006849D02*
X019620Y006849D01*
X019620Y006952D02*
X018680Y006952D01*
X018680Y007055D02*
X019620Y007055D01*
X019620Y007158D02*
X018680Y007158D01*
X021180Y006231D02*
X022120Y006231D01*
X021180Y006231D02*
X021180Y007229D01*
X022120Y007229D01*
X022120Y006231D01*
X022120Y006334D02*
X021180Y006334D01*
X021180Y006437D02*
X022120Y006437D01*
X022120Y006540D02*
X021180Y006540D01*
X021180Y006643D02*
X022120Y006643D01*
X022120Y006746D02*
X021180Y006746D01*
X021180Y006849D02*
X022120Y006849D01*
X022120Y006952D02*
X021180Y006952D01*
X021180Y007055D02*
X022120Y007055D01*
X022120Y007158D02*
X021180Y007158D01*
X031130Y020179D02*
X032070Y020179D01*
X032070Y019181D01*
X031130Y019181D01*
X031130Y020179D01*
X031130Y019284D02*
X032070Y019284D01*
X032070Y019387D02*
X031130Y019387D01*
X031130Y019490D02*
X032070Y019490D01*
X032070Y019593D02*
X031130Y019593D01*
X031130Y019696D02*
X032070Y019696D01*
X032070Y019799D02*
X031130Y019799D01*
X031130Y019902D02*
X032070Y019902D01*
X032070Y020005D02*
X031130Y020005D01*
X031130Y020108D02*
X032070Y020108D01*
X033630Y020179D02*
X034570Y020179D01*
X034570Y019181D01*
X033630Y019181D01*
X033630Y020179D01*
X033630Y019284D02*
X034570Y019284D01*
X034570Y019387D02*
X033630Y019387D01*
X033630Y019490D02*
X034570Y019490D01*
X034570Y019593D02*
X033630Y019593D01*
X033630Y019696D02*
X034570Y019696D01*
X034570Y019799D02*
X033630Y019799D01*
X033630Y019902D02*
X034570Y019902D01*
X034570Y020005D02*
X033630Y020005D01*
X033630Y020108D02*
X034570Y020108D01*
D28*
X037956Y014593D02*
X038382Y014593D01*
X037956Y014593D02*
X037956Y015767D01*
X038382Y015767D01*
X038382Y014593D01*
X038382Y014639D02*
X037956Y014639D01*
X037956Y014685D02*
X038382Y014685D01*
X038382Y014731D02*
X037956Y014731D01*
X037956Y014777D02*
X038382Y014777D01*
X038382Y014823D02*
X037956Y014823D01*
X037956Y014869D02*
X038382Y014869D01*
X038382Y014915D02*
X037956Y014915D01*
X037956Y014961D02*
X038382Y014961D01*
X038382Y015007D02*
X037956Y015007D01*
X037956Y015053D02*
X038382Y015053D01*
X038382Y015099D02*
X037956Y015099D01*
X037956Y015145D02*
X038382Y015145D01*
X038382Y015191D02*
X037956Y015191D01*
X037956Y015237D02*
X038382Y015237D01*
X038382Y015283D02*
X037956Y015283D01*
X037956Y015329D02*
X038382Y015329D01*
X038382Y015375D02*
X037956Y015375D01*
X037956Y015421D02*
X038382Y015421D01*
X038382Y015467D02*
X037956Y015467D01*
X037956Y015513D02*
X038382Y015513D01*
X038382Y015559D02*
X037956Y015559D01*
X037956Y015605D02*
X038382Y015605D01*
X038382Y015651D02*
X037956Y015651D01*
X037956Y015697D02*
X038382Y015697D01*
X038382Y015743D02*
X037956Y015743D01*
D29*
X044701Y017071D02*
X044701Y017815D01*
X044701Y017071D02*
X043799Y017071D01*
X043799Y017815D01*
X044701Y017815D01*
X044701Y017153D02*
X043799Y017153D01*
X043799Y017235D02*
X044701Y017235D01*
X044701Y017317D02*
X043799Y017317D01*
X043799Y017399D02*
X044701Y017399D01*
X044701Y017481D02*
X043799Y017481D01*
X043799Y017563D02*
X044701Y017563D01*
X044701Y017645D02*
X043799Y017645D01*
X043799Y017727D02*
X044701Y017727D01*
X044701Y017809D02*
X043799Y017809D01*
X044701Y018645D02*
X044701Y019389D01*
X044701Y018645D02*
X043799Y018645D01*
X043799Y019389D01*
X044701Y019389D01*
X044701Y018727D02*
X043799Y018727D01*
X043799Y018809D02*
X044701Y018809D01*
X044701Y018891D02*
X043799Y018891D01*
X043799Y018973D02*
X044701Y018973D01*
X044701Y019055D02*
X043799Y019055D01*
X043799Y019137D02*
X044701Y019137D01*
X044701Y019219D02*
X043799Y019219D01*
X043799Y019301D02*
X044701Y019301D01*
X044701Y019383D02*
X043799Y019383D01*
D30*
X046090Y016955D02*
X046090Y016505D01*
X046090Y016955D02*
X046710Y016955D01*
X046710Y016505D01*
X046090Y016505D01*
X046090Y016554D02*
X046710Y016554D01*
X046710Y016603D02*
X046090Y016603D01*
X046090Y016652D02*
X046710Y016652D01*
X046710Y016701D02*
X046090Y016701D01*
X046090Y016750D02*
X046710Y016750D01*
X046710Y016799D02*
X046090Y016799D01*
X046090Y016848D02*
X046710Y016848D01*
X046710Y016897D02*
X046090Y016897D01*
X046090Y016946D02*
X046710Y016946D01*
X046090Y016355D02*
X046090Y015905D01*
X046090Y016355D02*
X046710Y016355D01*
X046710Y015905D01*
X046090Y015905D01*
X046090Y015954D02*
X046710Y015954D01*
X046710Y016003D02*
X046090Y016003D01*
X046090Y016052D02*
X046710Y016052D01*
X046710Y016101D02*
X046090Y016101D01*
X046090Y016150D02*
X046710Y016150D01*
X046710Y016199D02*
X046090Y016199D01*
X046090Y016248D02*
X046710Y016248D01*
X046710Y016297D02*
X046090Y016297D01*
X046090Y016346D02*
X046710Y016346D01*
X046090Y015755D02*
X046090Y015305D01*
X046090Y015755D02*
X046710Y015755D01*
X046710Y015305D01*
X046090Y015305D01*
X046090Y015354D02*
X046710Y015354D01*
X046710Y015403D02*
X046090Y015403D01*
X046090Y015452D02*
X046710Y015452D01*
X046710Y015501D02*
X046090Y015501D01*
X046090Y015550D02*
X046710Y015550D01*
X046710Y015599D02*
X046090Y015599D01*
X046090Y015648D02*
X046710Y015648D01*
X046710Y015697D02*
X046090Y015697D01*
X046090Y015746D02*
X046710Y015746D01*
X046090Y014755D02*
X046090Y014305D01*
X046090Y014755D02*
X046710Y014755D01*
X046710Y014305D01*
X046090Y014305D01*
X046090Y014354D02*
X046710Y014354D01*
X046710Y014403D02*
X046090Y014403D01*
X046090Y014452D02*
X046710Y014452D01*
X046710Y014501D02*
X046090Y014501D01*
X046090Y014550D02*
X046710Y014550D01*
X046710Y014599D02*
X046090Y014599D01*
X046090Y014648D02*
X046710Y014648D01*
X046710Y014697D02*
X046090Y014697D01*
X046090Y014746D02*
X046710Y014746D01*
X046090Y014155D02*
X046090Y013705D01*
X046090Y014155D02*
X046710Y014155D01*
X046710Y013705D01*
X046090Y013705D01*
X046090Y013754D02*
X046710Y013754D01*
X046710Y013803D02*
X046090Y013803D01*
X046090Y013852D02*
X046710Y013852D01*
X046710Y013901D02*
X046090Y013901D01*
X046090Y013950D02*
X046710Y013950D01*
X046710Y013999D02*
X046090Y013999D01*
X046090Y014048D02*
X046710Y014048D01*
X046710Y014097D02*
X046090Y014097D01*
X046090Y014146D02*
X046710Y014146D01*
X046090Y013555D02*
X046090Y013105D01*
X046090Y013555D02*
X046710Y013555D01*
X046710Y013105D01*
X046090Y013105D01*
X046090Y013154D02*
X046710Y013154D01*
X046710Y013203D02*
X046090Y013203D01*
X046090Y013252D02*
X046710Y013252D01*
X046710Y013301D02*
X046090Y013301D01*
X046090Y013350D02*
X046710Y013350D01*
X046710Y013399D02*
X046090Y013399D01*
X046090Y013448D02*
X046710Y013448D01*
X046710Y013497D02*
X046090Y013497D01*
X046090Y013546D02*
X046710Y013546D01*
D31*
X047446Y012180D02*
X047754Y012180D01*
X047754Y011180D02*
X047446Y011180D01*
D32*
X023600Y020680D03*
X019350Y021180D03*
M02*
