%
M48
M72
T01C0.0236
T02C0.0240
T03C0.0315
T04C0.0354
T05C0.0394
T06C0.0400
T07C0.0500
T08C0.0512
T09C0.0700
T10C0.1102
%
T01
X3100Y10180
X1706Y11306
X1706Y12054
X2300Y13180
X13150Y18480
X13100Y19430
X13200Y20180
X13850Y20280
X13600Y21680
X14600Y21680
X16100Y21930
X17100Y21930
X18100Y21930
X18100Y22680
X17100Y22680
X16100Y22680
X14600Y22680
X13600Y22680
X12100Y22680
X11850Y21930
X10650Y20080
X16850Y20130
X16850Y19430
X17600Y19430
X20650Y14780
X22200Y14780
X22200Y13680
X20650Y13680
X29600Y12680
X29550Y11730
X33350Y13430
X36100Y13430
X36100Y11930
X36100Y11180
X42950Y15680
X42050Y15780
X45600Y15930
X41100Y17930
X39100Y17680
X37000Y17180
X37250Y16630
X37900Y16430
X36300Y19630
X36750Y20080
X35950Y20480
X37050Y20880
X37800Y20980
X37300Y21680
X36250Y21880
X35700Y22330
X40850Y19930
X50100Y19680
X49100Y8680
X31200Y2180
T02
X29357Y2636
X27757Y3586
X26127Y3496
X25107Y3496
X24187Y3496
X23807Y4346
X23057Y4836
X22157Y4836
X25107Y4986
X26157Y4986
X29357Y3936
X27357Y2286
X26157Y1876
X25117Y1876
X24007Y1876
X23157Y2126
X22187Y2116
X20857Y1636
X20607Y6636
X20757Y7886
X18957Y8036
T03
X47600Y11180
X47600Y12180
T04
X23600Y20680
X19350Y21180
X8766Y20980
X7034Y20980
T05
X28726Y15180
X28726Y14180
X28726Y13180
X28726Y12180
X28726Y11180
X28726Y10180
X28726Y9180
X28726Y8180
X44474Y8180
X44474Y9180
X44474Y10180
X44474Y11180
X44474Y12180
X44474Y13180
X44474Y14180
X44474Y15180
T06
X47600Y14930
X47600Y13930
X47600Y15930
X47600Y16930
X47600Y17930
X47600Y18930
X47293Y20774
X48293Y20774
X49293Y20774
X49293Y21774
X48293Y21774
X47293Y21774
X43700Y22030
X42700Y22030
X41700Y22030
X40700Y22030
X39700Y22030
T07
X20127Y4086
T08
X37644Y12337
X41644Y4337
T09
X21131Y5090
X19124Y5090
X19124Y3082
X21131Y3082
T10
X1100Y1180
X25850Y1180
X50600Y1180
X50600Y22180
X25850Y22180
X1100Y22180
M30
